<?xml version="1.0" encoding="UTF-8"?>
<svg width="18px" height="18px" viewBox="0 0 18 18" version="1.1" xmlns="http://www.w3.org/2000/svg" xmlns:xlink="http://www.w3.org/1999/xlink">
    <title>UI icon/copy/light</title>
    <g id="👀-Icons" stroke="none" stroke-width="1" fill="none" fill-rule="evenodd">
        <g id="编组" transform="translate(-3.000000, -3.000000)" fill="#6F767E">
            <path d="M6,5 L14,5 C14.5523,5 15,5.44772 15,6 L15,7 L17,7 L17,6 C17,4.34315 15.6569,3 14,3 L6,3 C4.34315,3 3,4.34315 3,6 L3,14 C3,15.6569 4.34315,17 6,17 L7,17 L7,15 L6,15 C5.44772,15 5,14.5523 5,14 L5,6 C5,5.44772 5.44772,5 6,5 Z" id="Subtract" fill-rule="nonzero"></path>
            <path d="M18,9 L10,9 C9.44772,9 9,9.44772 9,10 L9,18 C9,18.5523 9.44772,19 10,19 L18,19 C18.5523,19 19,18.5523 19,18 L19,10 C19,9.44772 18.5523,9 18,9 Z M10,7 C8.34315,7 7,8.34315 7,10 L7,18 C7,19.6569 8.34315,21 10,21 L18,21 C19.6569,21 21,19.6569 21,18 L21,10 C21,8.34315 19.6569,7 18,7 L10,7 Z" id="Rectangle-323-(Stroke)"></path>
        </g>
    </g>
</svg>