<?xml version="1.0" encoding="UTF-8"?>
<svg width="20px" height="24px" viewBox="0 0 20 24" version="1.1" xmlns="http://www.w3.org/2000/svg" xmlns:xlink="http://www.w3.org/1999/xlink">
    <title>Logo icon/Apple</title>
    <g id="👀-Icons" stroke="none" stroke-width="1" fill="none" fill-rule="evenodd">
        <g id="编组" transform="translate(-2.000000, 0.000000)" fill="#1A1D1F" fill-rule="nonzero">
            <g id="Vector">
                <path d="M18.9509019,12.6721998 C18.9735019,15.0330998 20.3459019,16.3770998 21.3258019,17.0374998 C21.8469019,17.3885998 22.1591019,18.0082998 21.9163019,18.5766998 C21.6403019,19.2227998 21.2035019,20.1034998 20.5714019,20.9991998 C19.5324019,22.4713998 18.4542019,23.9381998 16.7556019,23.9684998 C15.0866019,23.9983998 14.5499019,23.0089998 12.6417019,23.0089998 C10.7340919,23.0089998 10.1378119,23.9381998 8.55788194,23.9983998 C6.91830194,24.0585998 5.66974194,22.4064998 4.62223194,20.9395998 C2.48166794,17.9391998 0.845831942,12.4611998 3.04234194,8.76349982 C4.13352194,6.92718982 6.08354194,5.76435982 8.20011194,5.73453982 C9.81013194,5.70476982 11.3297519,6.78469982 12.3140019,6.78469982 C13.2977019,6.78469982 15.1443019,5.48597982 17.0857019,5.67671982 C17.7530019,5.70363982 19.4103019,5.90090982 20.7928019,7.12121982 C21.3179019,7.58463982 21.1309019,8.37223982 20.6245019,8.85479982 C19.8543019,9.58873982 18.9340019,10.8477998 18.9509019,12.6721998 Z M15.8141019,3.69169982 C16.4527019,2.94230982 16.9381019,1.97735982 17.0883019,0.957795819 C17.1810019,0.329117819 16.5942019,-0.153176181 15.9719019,0.0451590193 C15.0263019,0.346567819 14.0772019,0.940395819 13.4388019,1.66469982 C12.8209019,2.35732982 12.2618019,3.36860982 12.1197019,4.42738982 C12.0438019,4.99305982 12.5442019,5.45253982 13.1194019,5.33262982 C14.1679019,5.11403982 15.1523019,4.46883982 15.8141019,3.69169982 Z"></path>
            </g>
        </g>
    </g>
</svg>