<?xml version="1.0" encoding="UTF-8"?>
<svg width="24px" height="24px" viewBox="0 0 24 24" version="1.1" xmlns="http://www.w3.org/2000/svg" xmlns:xlink="http://www.w3.org/1999/xlink">
    <title>Logo icon/google</title>
    <g id="👀-Icons" stroke="none" stroke-width="1" fill="none" fill-rule="evenodd">
        <g id="编组" fill-rule="nonzero">
            <g id="Group" transform="translate(0.255001, 0.000000)">
                <path d="M23.4899998,12.27 C23.4899998,11.48 23.4199998,10.73 23.2999998,10 L12,10 L12,14.5100001 L18.4699999,14.5100001 C18.1799999,15.9900001 17.3299999,17.2400001 16.0699999,18.0900001 L16.0699999,21.0900002 L19.9299998,21.0900002 C22.1899998,19 23.4899998,15.9200001 23.4899998,12.27 Z" id="Vector" fill="#4285F4"></path>
                <path d="M11.9999998,24 C15.24,24 17.9500002,22.9200001 19.9300003,21.0900003 L16.07,18.0900006 C14.99,18.8100005 13.6199999,19.2500004 11.9999998,19.2500004 C8.86999954,19.2500004 6.21999935,17.1400006 5.26999929,14.2900009 L1.28999901,14.2900009 L1.28999901,17.3800006 C3.25999915,21.3000003 7.30999943,24 11.9999998,24 Z" id="Vector" fill="#34A853"></path>
                <path d="M5.27000046,14.2900016 C5.02000044,13.5700017 4.89000042,12.8000018 4.89000042,12.0000019 C4.89000042,11.200002 5.03000044,10.4300022 5.27000046,9.71000226 L5.27000046,6.62000275 L1.29000011,6.62000275 C0.469999041,8.24000249 0,10.0600022 0,12.0000019 C0,13.9400016 0.469999041,15.7600013 1.29000011,17.3800011 L5.27000046,14.2900016 Z" id="Vector" fill="#FBBC05"></path>
                <path d="M11.9999987,4.75000142 C13.7699987,4.75000142 15.3499987,5.3600016 16.5999986,6.55000196 L20.0199986,3.13000093 C17.9499986,1.19000036 15.2399987,0 11.9999987,0 C7.30999886,0 3.25999896,2.70000081 1.28999901,6.62000198 L5.26999891,9.7100029 C6.21999889,6.86000205 8.86999882,4.75000142 11.9999987,4.75000142 Z" id="Vector" fill="#EA4335"></path>
            </g>
        </g>
    </g>
</svg>