<?xml version="1.0" encoding="UTF-8"?>
<svg width="22px" height="22px" viewBox="0 0 22 22" version="1.1" xmlns="http://www.w3.org/2000/svg" xmlns:xlink="http://www.w3.org/1999/xlink">
    <title>logo-instagram 1</title>
    <g id="👀-Icons" stroke="none" stroke-width="1" fill="none" fill-rule="evenodd">
        <g id="编组" transform="translate(-1.000000, -1.000000)" fill="#6F767E" fill-rule="nonzero">
            <g id="Group" transform="translate(1.000000, 1.000000)">
                <path d="M11,1.982 C13.937,1.982 14.285,1.993 15.445,2.046 C16.1424,2.05412 16.8332,2.18233 17.487,2.425 C17.965,2.60111 18.3973,2.88237 18.752,3.248 C19.1176,3.60269 19.3989,4.035 19.575,4.513 C19.8177,5.16685 19.9459,5.85762 19.954,6.555 C20.007,7.715 20.018,8.063 20.018,11 C20.018,13.937 20.007,14.285 19.954,15.445 C19.9459,16.1424 19.8177,16.8332 19.575,17.487 C19.3919,17.9615 19.1116,18.3924 18.752,18.752 C18.3924,19.1116 17.9615,19.3919 17.487,19.575 C16.8332,19.8177 16.1424,19.9459 15.445,19.954 C14.285,20.007 13.937,20.018 11,20.018 C8.063,20.018 7.715,20.007 6.555,19.954 C5.85762,19.9459 5.16685,19.8177 4.513,19.575 C4.035,19.3989 3.60269,19.1176 3.248,18.752 C2.88237,18.3973 2.60111,17.965 2.425,17.487 C2.18233,16.8332 2.05412,16.1424 2.046,15.445 C1.993,14.285 1.982,13.937 1.982,11 C1.982,8.063 1.993,7.715 2.046,6.555 C2.05412,5.85762 2.18233,5.16685 2.425,4.513 C2.60111,4.035 2.88237,3.60269 3.248,3.248 C3.60269,2.88237 4.035,2.60111 4.513,2.425 C5.16685,2.18233 5.85762,2.05412 6.555,2.046 C7.715,1.993 8.063,1.982 11,1.982 Z M11,0 C8.013,0 7.638,0.013 6.465,0.066 C5.55258,0.0848561 4.6499,0.257617 3.795,0.577 C3.06355,0.860172 2.3994,1.29319 1.84521,1.84824 C1.29102,2.40329 0.859036,3.06811 0.577,3.8 C0.257617,4.6549 0.0848561,5.55758 0.066,6.47 C0.013,7.638 0,8.013 0,11 C0,13.987 0.013,14.362 0.066,15.535 C0.0848561,16.4474 0.257617,17.3501 0.577,18.205 C0.860172,18.9365 1.29319,19.6006 1.84824,20.1548 C2.40329,20.709 3.06811,21.141 3.8,21.423 C4.6549,21.7424 5.55758,21.9151 6.47,21.934 C7.638,21.987 8.013,22 11,22 C13.987,22 14.362,21.987 15.535,21.934 C16.4474,21.9151 17.3501,21.7424 18.205,21.423 C18.9365,21.1398 19.6006,20.7068 20.1548,20.1518 C20.709,19.5967 21.141,18.9319 21.423,18.2 C21.7424,17.3451 21.9151,16.4424 21.934,15.53 C21.987,14.362 22,13.987 22,11 C22,8.013 21.987,7.638 21.934,6.465 C21.9151,5.55258 21.7424,4.6499 21.423,3.795 C21.1398,3.06355 20.7068,2.3994 20.1518,1.84521 C19.5967,1.29102 18.9319,0.859036 18.2,0.577 C17.3451,0.257617 16.4424,0.0848561 15.53,0.066 C14.362,0.013 13.987,0 11,0 Z" id="Vector"></path>
                <path d="M10.9999972,5.35099983 C9.88273716,5.35099983 8.79055716,5.68230783 7.86158716,6.30302783 C6.93260716,6.92374983 6.20856316,7.80599983 5.78100416,8.83821983 C5.35344456,9.87043983 5.24157616,11.0062698 5.45954416,12.1020698 C5.67751116,13.1978598 6.21552716,14.2044198 7.00555716,14.9944498 C7.79557716,15.7844998 8.80213716,16.3224998 9.89793716,16.5404998 C10.9937372,16.7583998 12.1295572,16.6465998 13.1617772,16.2189998 C14.1939972,15.7913998 15.0762472,15.0673898 15.6969972,14.1384198 C16.3176972,13.2094398 16.6489972,12.1172698 16.6489972,10.9999998 C16.6489972,9.50178983 16.0537972,8.06494983 14.9944472,7.00554983 C13.9350472,5.94616083 12.4982072,5.35099983 10.9999972,5.35099983 L10.9999972,5.35099983 Z M10.9999972,14.6669998 C10.2747372,14.6669998 9.56575716,14.4519298 8.96272716,14.0489998 C8.35968716,13.6460598 7.88967716,13.0733598 7.61213716,12.4032998 C7.33458716,11.7332398 7.26196716,10.9959298 7.40345716,10.2845998 C7.54494716,9.57327983 7.89419716,8.91987983 8.40703716,8.40703983 C8.91987716,7.89419983 9.57327716,7.54494983 10.2846072,7.40345983 C10.9959372,7.26196983 11.7332472,7.33458983 12.4032972,7.61212983 C13.0733572,7.88967983 13.6460672,8.35968983 14.0489972,8.96271983 C14.4519372,9.56575983 14.6669972,10.2747398 14.6669972,10.9999998 C14.6669972,11.9725498 14.2806572,12.9052598 13.5929572,13.5929598 C12.9052672,14.2806598 11.9725472,14.6669998 10.9999972,14.6669998 L10.9999972,14.6669998 Z" id="Vector"></path>
                <path d="M16.8719997,6.44799995 C17.6010196,6.44799995 18.1919994,5.85701998 18.1919994,5.12800002 C18.1919994,4.39898406 17.6010196,3.80800009 16.8719997,3.80800009 C16.1429839,3.80800009 15.552,4.39898406 15.552,5.12800002 C15.552,5.85701998 16.1429839,6.44799995 16.8719997,6.44799995 Z" id="Vector"></path>
            </g>
        </g>
    </g>
</svg>