<?xml version="1.0" encoding="UTF-8"?>
<svg width="24px" height="20px" viewBox="0 0 24 20" version="1.1" xmlns="http://www.w3.org/2000/svg" xmlns:xlink="http://www.w3.org/1999/xlink">
    <title>logo-twitter 1</title>
    <g id="👀-Icons" stroke="none" stroke-width="1" fill="none" fill-rule="evenodd">
        <g id="编组" transform="translate(0.000000, -2.000000)" fill="#6F767E" fill-rule="nonzero">
            <g id="Group" transform="translate(0.000000, 2.300000)">
                <path d="M24,2.30000018 C23.1,2.70000021 22.2,3 21.2,3.10000024 C22.2,2.5 23,1.5 23.4,0.400000031 C22.4,1 21.4,1.40000011 20.3,1.60000013 C19.4,0.600000047 18.1,0 16.7,0 C14,0 11.8,2.20000017 11.8,4.90000039 C11.8,5.30000042 11.8,5.70000045 11.9,6 C7.7,5.80000046 4.1,3.8000003 1.7,0.800000063 C1.2,1.60000013 1,2.40000019 1,3.30000026 C1,5 1.9,6.5 3.2,7.40000058 C2.4,7.40000058 1.6,7.20000057 1,6.80000053 C1,6.80000053 1,6.83333387 1,6.90000054 C1,9.30000073 2.7,11.3000009 4.9,11.7000009 C4.5,11.8000009 4.1,11.9000009 3.6,11.9000009 C3.3,11.9000009 3,11.9000009 2.7,11.8000009 C3.3,13.8000011 5.1,15.2000012 7.3,15.2000012 C5.6,16.5 3.5,17.3000014 1.2,17.3000014 C0.8,17.3000014 0.4,17.3000014 0,17.2000014 C2.2,18.6000015 4.8,19.4000015 7.5,19.4000015 C16.6,19.4000015 21.5,11.9000009 21.5,5.40000042 C21.5,5.20000041 21.5,5 21.5,4.80000038 C22.5,4.10000032 23.3,3.20000025 24,2.30000018 Z" id="Vector"></path>
            </g>
        </g>
    </g>
</svg>