<?xml version="1.0" encoding="UTF-8"?>
<svg width="20px" height="20px" viewBox="0 0 20 20" version="1.1" xmlns="http://www.w3.org/2000/svg" xmlns:xlink="http://www.w3.org/1999/xlink">
    <title>UI icon/bug/filled</title>
    <g id="👀-Icons" stroke="none" stroke-width="1" fill="none" fill-rule="evenodd">
        <g id="编组" transform="translate(-2.000000, -2.000000)" fill="#6F767E" fill-rule="nonzero">
            <g id="Subtract">
                <path d="M6.28665,9.38289275 C6.39338,9.2095009 6.50603,9.04102626 6.62432,8.87786179 C6.80007,8.63546084 7.08552,8.50381181 7.38344,8.50381181 L16.6166,8.50381181 C16.9145,8.50381181 17.1999,8.63546084 17.3757,8.87786179 C17.494,9.04102626 17.6066,9.2095009 17.7134,9.38289275 L18.7929,8.29512593 C19.1834,7.90162469 19.8166,7.90162469 20.2071,8.29512593 C20.5976,8.68862809 20.5976,9.32661698 20.2071,9.72012417 L18.7071,11.2315594 C18.6711,11.2678137 18.6331,11.3007226 18.5934,11.3302964 C18.7626,11.8764988 18.8819,12.4484058 18.9458,13.0381174 L21,13.0381174 C21.5523,13.0381174 22,13.4892506 22,14.0457409 C22,14.6022311 21.5523,15.0533643 21,15.0533643 L18.9449,15.0533643 C18.8804,15.6403554 18.7604,16.2117786 18.5902,16.7588376 C18.6311,16.7890159 18.6702,16.8227108 18.7071,16.8599224 L20.2071,18.3713676 C20.5976,18.7648446 20.5976,19.4028718 20.2071,19.7963487 C19.8166,20.1898257 19.1834,20.1898257 18.7929,19.7963487 L17.711,18.7062009 C16.7467,20.2793027 15.3002,21.4554008 13.574,21.9059092 C13.2761,21.9836978 13,21.7458986 13,21.4358529 L13,12.1144592 C13,11.511588 12.5523,11.0228705 12,11.0228705 C11.44771,11.0228705 11,11.511588 11,12.1144592 L11,21.4358529 C11,21.7458986 10.7239,21.9836978 10.426,21.9059092 C8.69981,21.4554008 7.25328,20.2793027 6.28903,18.7062009 L5.20711,19.7963487 C4.81658,20.1898257 4.18342,20.1898257 3.79289,19.7963487 C3.40237,19.4028718 3.40237,18.7648446 3.79289,18.3713676 L5.29289,16.8599224 C5.32983,16.8227108 5.36894,16.7890159 5.4098,16.7588376 C5.23963,16.2117786 5.11959,15.6403554 5.0551,15.0533643 L3,15.0533643 C2.447715,15.0533643 2,14.6022311 2,14.0457409 C2,13.4892506 2.447715,13.0381174 3,13.0381174 L5.05421,13.0381174 C5.11807,12.4484058 5.23735,11.8764988 5.40663,11.3302964 C5.36691,11.3007226 5.32887,11.2678137 5.29289,11.2315594 L3.79289,9.72012417 C3.40237,9.32661698 3.40237,8.68862809 3.79289,8.29512593 C4.18342,7.90162469 4.81658,7.90162469 5.20711,8.29512593 L6.28665,9.38289275 Z"></path>
                <path d="M8.59718013,6.5 C8.29648611,6.5 8.0614911,6.23507 8.14061111,5.94497 C8.26764911,5.47918 8.47675612,5.04725 8.75143014,4.66568 L7.79289309,3.70714 C7.40236897,3.31661 7.40236897,2.683448 7.79289309,2.292924 C8.18341711,1.9023993 8.81658014,1.9023993 9.20711016,2.292924 L10.2948302,3.38065 C10.8120802,3.13653 11.3901003,3.00003 12,3.00003 C12.6099003,3.00003 13.1879204,3.13653 13.7051704,3.38065 L14.7929204,2.292893 C15.1834505,1.902369 15.8166105,1.902369 16.2071405,2.292893 C16.5976605,2.683417 16.5976605,3.31658 16.2071405,3.70711 L15.2485705,4.66568 C15.5232405,5.04725 15.7323505,5.47918 15.8593905,5.94497 C15.9385105,6.23506 15.7035105,6.5 15.4028205,6.5 L8.59718013,6.5 Z"></path>
            </g>
        </g>
    </g>
</svg>