<?xml version="1.0" encoding="UTF-8"?>
<svg width="20px" height="20px" viewBox="0 0 20 20" version="1.1" xmlns="http://www.w3.org/2000/svg" xmlns:xlink="http://www.w3.org/1999/xlink">
    <title>UI icon/bug/light</title>
    <g id="👀-Icons" stroke="none" stroke-width="1" fill="none" fill-rule="evenodd">
        <g id="Union" transform="translate(-2.000000, -2.000000)" fill="#6F767E">
            <path d="M13.7052,3.38061948 L14.7929,2.29286248 C15.1834,1.90233848 15.8166,1.90233848 16.2071,2.29286248 C16.5977,2.68338648 16.5977,3.31654948 16.2071,3.70707948 L15.2486,4.66564948 C15.7215,5.32257948 16,6.12875948 16,6.99999948 L16,7.43090948 C16.6686,7.96290948 17.2474,8.62116948 17.7134,9.37242948 L18.7929,8.29288948 C19.1834,7.90236948 19.8166,7.90236948 20.2071,8.29288948 C20.5976,8.68341948 20.5976,9.31657948 20.2071,9.70710948 L18.7071,11.2071095 C18.6711,11.2430895 18.6331,11.2757495 18.5934,11.3050995 C18.7626,11.8471695 18.8819,12.4147695 18.9458,12.9999695 L21,12.9999695 C21.5523,12.9999695 22,13.4476695 22,13.9999695 C22,14.5522695 21.5523,14.9999695 21,14.9999695 L18.9449,14.9999695 C18.8804,15.5825695 18.7604,16.1496695 18.5902,16.6925695 C18.6311,16.7224695 18.6702,16.7559695 18.7071,16.7928695 L20.2071,18.2928695 C20.5976,18.6833695 20.5976,19.3165695 20.2071,19.7070695 C19.8166,20.0976695 19.1834,20.0976695 18.7929,19.7070695 L17.711,18.6251695 C16.466,20.6409695 14.4169,21.9999695 12,21.9999695 C9.5831,21.9999695 7.53404,20.6409695 6.28903,18.6251695 L5.20711,19.7070695 C4.81658,20.0976695 4.18342,20.0976695 3.79289,19.7070695 C3.40237,19.3165695 3.40237,18.6833695 3.79289,18.2928695 L5.29289,16.7928695 C5.32983,16.7559695 5.36894,16.7224695 5.4098,16.6925695 C5.23963,16.1496695 5.11959,15.5825695 5.0551,14.9999695 L3,14.9999695 C2.447715,14.9999695 2,14.5522695 2,13.9999695 C2,13.4476695 2.447715,12.9999695 3,12.9999695 L5.05421,12.9999695 C5.11807,12.4147695 5.23735,11.8471695 5.40663,11.3050995 C5.36691,11.2757495 5.32887,11.2430895 5.29289,11.2071095 L3.79289,9.70710948 C3.40237,9.31657948 3.40237,8.68341948 3.79289,8.29288948 C4.18342,7.90236948 4.81658,7.90236948 5.20711,8.29288948 L6.28665,9.37242948 C6.7526,8.62116948 7.33137,7.96290948 8,7.43090948 L8,6.99999948 C8,6.12875948 8.27854,5.32257948 8.75143,4.66564948 L7.79289,3.70710948 C7.40237,3.31657948 7.40237,2.68341748 7.79289,2.29289348 C8.18342,1.90236878 8.81658,1.90236878 9.20711,2.29289348 L10.29483,3.38061948 C10.81208,3.13649948 11.3901,2.99999948 12,2.99999948 C12.6099,2.99999948 13.1879,3.13649948 13.7052,3.38061948 Z M9.2403,8.99999948 C7.91687,10.0566895 7,11.8770095 7,13.9999695 C7,17.0161695 8.80271,19.3288695 11,19.8763695 L11,8.99999948 L9.2403,8.99999948 Z M10,6.99999948 C10,5.89542948 10.89543,4.99999948 12,4.99999948 C13.1046,4.99999948 14,5.89542948 14,6.99999948 L10,6.99999948 Z M13,8.99999948 L13,19.8763695 C15.1973,19.3288695 17,17.0161695 17,13.9999695 C17,11.8770095 16.0831,10.0566895 14.7597,8.99999948 L13,8.99999948 Z"></path>
        </g>
    </g>
</svg>