<?xml version="1.0" encoding="UTF-8"?>
<svg width="12px" height="20px" viewBox="0 0 12 20" version="1.1" xmlns="http://www.w3.org/2000/svg" xmlns:xlink="http://www.w3.org/1999/xlink">
    <title>UI icon/battery_charging/filled</title>
    <g id="👀-Icons" stroke="none" stroke-width="1" fill="none" fill-rule="evenodd">
        <g id="编组" transform="translate(-6.000000, -2.000000)" fill="#6F767E">
            <path d="M9,5 C7.34315,5 6,6.34315 6,8 L6,19 C6,20.6569 7.34315,22 9,22 L15,22 C16.6569,22 18,20.6569 18,19 L18,8 C18,6.34315 16.6569,5 15,5 L9,5 Z M13.70714,11.20711 C14.09766,10.81658 14.09766,10.18342 13.70714,9.79289 C13.31661,9.40237 12.68345,9.40237 12.29292,9.79289 L9.29292,12.79289 C9.00692,13.07889 8.92137,13.50901 9.07615,13.88268 C9.23093,14.25636 9.59557,14.5 10.00003,14.5 L11.58582,14.5 L10.29292,15.7929 C9.9024,16.1834 9.9024,16.8166 10.29292,17.2071 C10.68345,17.5976 11.31661,17.5976 11.70714,17.2071 L14.70714,14.20711 C14.99313,13.92111 15.07869,13.49099 14.92391,13.11732 C14.76913,12.74364 14.40449,12.5 14.00003,12.5 L12.41424,12.5 L13.70714,11.20711 Z" id="Subtract"></path>
            <path d="M10,3 C10,2.447715 10.447715,2 11,2 L13,2 C13.55228,2 14,2.447715 14,3 C14,3.55228 13.55228,4 13,4 L11,4 C10.447715,4 10,3.55228 10,3 Z" id="Vector-594-(Stroke)"></path>
        </g>
    </g>
</svg>