<?xml version="1.0" encoding="UTF-8"?>
<svg width="20px" height="12px" viewBox="0 0 20 12" version="1.1" xmlns="http://www.w3.org/2000/svg" xmlns:xlink="http://www.w3.org/1999/xlink">
    <title>UI icon/trending_down/light</title>
    <g id="👀-Icons" stroke="none" stroke-width="1" fill="none" fill-rule="evenodd">
        <g id="编组" transform="translate(-2.000000, -6.000000)" fill="#6F767E" fill-rule="nonzero">
            <g id="Union">
                <path d="M18.5858,16 L16,16 C15.4477,16 15,16.4477 15,17 C15,17.5523 15.4477,18 16,18 L21,18 C21.5523,18 22,17.5523 22,17 L22,12 C22,11.4477199 21.5523,11 21,11 C20.4477,11 20,11.4477199 20,12 L20,14.58579 L14.4142,9 C13.6332,8.21894992 12.3668,8.21894992 11.58579,9 L9,11.5857899 L3.70711007,6.2928939 C3.31658007,5.9023687 2.68341807,5.9023687 2.29289307,6.2928939 C1.90236898,6.68341791 1.90236898,7.31657991 2.29289307,7.70710991 L7.58579005,13 C8.36683005,13.78105 9.63316005,13.78105 10.41421,13 L13,10.4142099 L18.5858,16 Z"></path>
            </g>
        </g>
    </g>
</svg>