<?xml version="1.0" encoding="UTF-8"?>
<svg width="20px" height="20px" viewBox="0 0 20 20" version="1.1" xmlns="http://www.w3.org/2000/svg" xmlns:xlink="http://www.w3.org/1999/xlink">
    <title>UI icon/mic_off/filled</title>
    <g id="👀-Icons" stroke="none" stroke-width="1" fill="none" fill-rule="evenodd">
        <g id="编组" transform="translate(-2.000000, -2.000000)" fill="#6F767E">
            <g id="Subtract" transform="translate(5.000000, 10.000000)" fill-rule="nonzero">
                <path d="M10.7374,4.32152 C9.82154,5.35129 8.48653,6 7,6 C4.23858,6 2,3.76142 2,1 C2,0.447715 1.55228,0 1,0 C0.447715,0 0,0.447715 0,1 C0,4.52647 2.60771,7.44388 6,7.92911 L6,10 L4,10 C3.44772,10 3,10.4477 3,11 C3,11.5523 3.44772,12 4,12 L10,12 C10.5523,12 11,11.5523 11,11 C11,10.4477 10.5523,10 10,10 L8,10 L8,7.92911 C9.63461,7.6953 11.087,6.89676 12.1533,5.73747 L10.7374,4.32152 Z" id="A71837FF-47ED-4410-B019-D38AFACD107B"></path>
                <path d="M13.2997,4.05544 C13.7484,3.13217 14,2.09547 14,1 C14,0.447715 13.5523,0 13,0 C12.4477,0 12,0.447715 12,1 C12,1.5301 11.9175,2.04093 11.7647,2.52036 L13.2997,4.05544 Z" id="96F007F5-502E-4CC7-8B62-D1CF95FA7C08"></path>
            </g>
            <g id="Subtract" transform="translate(9.000000, 2.000000)" fill-rule="nonzero">
                <path d="M0,5.58414 L0,9 C0,10.6569 1.34315,12 3,12 C3.93433,12 4.7689,11.5729 5.3191,10.9032 L0,5.58414 Z" id="C25B854E-9298-4A2B-B8F8-7205AEFB507D"></path>
                <path d="M6,8.75571 L6,3 C6,1.34315 4.65685,0 3,0 C1.4223,0 0.129053,1.21787 0.00908466,2.76479 L6,8.75571 Z" id="408598BC-C579-4B34-B010-A88C6FF3A15D"></path>
            </g>
            <path d="M2.29289344,2.29289344 C2.68341793,1.90236885 3.31658172,1.90236885 3.7071122,2.29289344 L21.7071246,20.2929229 C22.0976251,20.6834234 22.0976251,21.3166241 21.7071246,21.7071246 C21.3166241,22.0976251 20.6834234,22.0976251 20.2929229,21.7071246 L2.29289344,3.7071122 C1.90236885,3.31658172 1.90236885,2.68341793 2.29289344,2.29289344 Z" id="Vector-606-(Stroke)"></path>
        </g>
    </g>
</svg>