<?xml version="1.0" encoding="UTF-8"?>
<svg width="20px" height="20px" viewBox="0 0 20 20" version="1.1" xmlns="http://www.w3.org/2000/svg" xmlns:xlink="http://www.w3.org/1999/xlink">
    <title>UI icon/mic_off/light</title>
    <g id="👀-Icons" stroke="none" stroke-width="1" fill="none" fill-rule="evenodd">
        <g id="编组" transform="translate(-2.000000, -2.000000)" fill="#6F767E">
            <g id="Subtract" transform="translate(5.000000, 10.000000)" fill-rule="nonzero">
                <path d="M10.7374,4.32155 C9.82151,5.3513 8.48651,6 7,6 C4.23858,6 2,3.76142 2,1 C2,0.447715 1.55228,0 1,0 C0.447715,0 0,0.447715 0,1 C0,4.52647 2.60771,7.44388 6,7.92911 L6,10 L4,10 C3.44772,10 3,10.4477 3,11 C3,11.5523 3.44772,12 4,12 L10,12 C10.5523,12 11,11.5523 11,11 C11,10.4477 10.5523,10 10,10 L8,10 L8,7.92911 C9.63459,7.6953 11.087,6.89678 12.1533,5.7375 L10.7374,4.32155 Z" id="385A1BD9-EA0C-4173-8411-36BBE063E2A5"></path>
                <path d="M13.2997,4.05548 C13.7484,3.1322 14,2.09549 14,1 C14,0.447715 13.5523,0 13,0 C12.4477,0 12,0.447715 12,1 C12,1.53012 11.9175,2.04097 11.7646,2.52041 L13.2997,4.05548 Z" id="43811262-65D4-4F4F-B19E-EC605E899162"></path>
            </g>
            <g id="Subtract" transform="translate(9.000000, 2.000000)" fill-rule="nonzero">
                <path d="M0,5.5842 L0,9 C0,10.6569 1.34315,12 3,12 C3.93431,12 4.76887,11.5729 5.31907,10.9033 L3.8839,9.4681 C3.71599,9.7845 3.38316,10 3,10 C2.44772,10 2,9.55228 2,9 L2,7.5842 L0,5.5842 Z" id="E9F49B0B-B287-4CEC-9FFE-01911AD87C8F"></path>
                <path d="M4,6.75577 L4,3 C4,2.44772 3.55228,2 3,2 C2.44772,2 2,2.44772 2,3 L2,4.75577 L0.00908027,2.76485 C0.129021,1.2179 1.42228,0 3,0 C4.65685,0 6,1.34315 6,3 L6,8.75577 L4,6.75577 Z" id="6A912971-F64A-45DA-9F54-034289633F5F"></path>
            </g>
            <path d="M2.29289344,2.29289344 C2.68341793,1.90236885 3.31658172,1.90236885 3.7071122,2.29289344 L21.7071246,20.2929229 C22.0976251,20.6834234 22.0976251,21.3166241 21.7071246,21.7071246 C21.3166241,22.0976251 20.6834234,22.0976251 20.2929229,21.7071246 L2.29289344,3.7071122 C1.90236885,3.31658172 1.90236885,2.68341793 2.29289344,2.29289344 Z" id="Vector-606-(Stroke)"></path>
        </g>
    </g>
</svg>