<?xml version="1.0" encoding="UTF-8"?>
<svg width="18px" height="18px" viewBox="0 0 18 18" version="1.1" xmlns="http://www.w3.org/2000/svg" xmlns:xlink="http://www.w3.org/1999/xlink">
    <title>UI icon/wind/light</title>
    <g id="👀-Icons" stroke="none" stroke-width="1" fill="none" fill-rule="evenodd">
        <g id="编组" transform="translate(-3.000000, -3.000000)" fill="#6F767E">
            <path d="M9,5 C8.63112,5 8.30758,5.19922 8.13317,5.50073 C7.85663,5.97879 7.2449,6.14215 6.76684,5.86561 C6.28878,5.58906 6.12542,4.97733 6.40196,4.49927 C6.91916,3.605181 7.88832,3 9,3 C10.65685,3 12,4.34315 12,6 C12,7.65685 10.65685,9 9,9 L4,9 C3.447715,9 3,8.55228 3,8 C3,7.44772 3.447715,7 4,7 L9,7 C9.55228,7 10,6.55228 10,6 C10,5.44772 9.55228,5 9,5 Z" id="Ellipse-216-(Stroke)"></path>
            <path d="M14,17 C13.6311,17 13.3076,17.19922 13.1332,17.50073 C12.85663,17.97879 12.2449,18.14215 11.76684,17.86561 C11.28878,17.58906 11.12542,16.97733 11.40196,16.49927 C11.91916,15.605181 12.88832,15 14,15 C15.6569,15 17,16.34315 17,18 C17,19.65685 15.6569,21 14,21 L4,21 C3.447715,21 3,20.55228 3,20 C3,19.44772 3.447715,19 4,19 L14,19 C14.5523,19 15,18.55228 15,18 C15,17.44772 14.5523,17 14,17 Z" id="Ellipse-218-(Stroke)" transform="translate(10.000000, 18.000000) scale(1, -1) translate(-10.000000, -18.000000) "></path>
            <path d="M17,7 C16.1307,7 15.3886,7.5551 15.1135,8.33325 C14.9295,8.85396 14.3582,9.12689 13.8375,8.94284 C13.3167,8.75879 13.0438,8.18747 13.2279,7.66675 C13.7765,6.11451 15.2568,5 17,5 C19.2091,5 21,6.79086 21,9 C21,11.20914 19.2091,13 17,13 L4,13 C3.447715,13 3,12.55228 3,12 C3,11.44772 3.447715,11 4,11 L17,11 C18.1046,11 19,10.10457 19,9 C19,7.89543 18.1046,7 17,7 Z" id="Ellipse-217-(Stroke)"></path>
        </g>
    </g>
</svg>