<?xml version="1.0" encoding="UTF-8"?>
<svg width="19px" height="16px" viewBox="0 0 19 16" version="1.1" xmlns="http://www.w3.org/2000/svg" xmlns:xlink="http://www.w3.org/1999/xlink">
    <title>UI icon/arrow_backward/light</title>
    <g id="👀-Icons" stroke="none" stroke-width="1" fill="none" fill-rule="evenodd">
        <g id="编组" transform="translate(-2.000000, -4.000000)" fill="#6F767E" fill-rule="nonzero">
            <g id="Union">
                <path d="M10.7070977,17.7929221 C11.0976274,18.1834228 11.0976274,18.8166239 10.7070977,19.2071245 C10.316578,19.5976252 9.68340841,19.5976252 9.29288869,19.2071245 L3.49999987,13.4142248 C2.71895243,12.6331835 2.71895043,11.3668514 3.49999887,10.5858001 L9.29288869,4.79289439 C9.68340841,4.40236854 10.316578,4.40236854 10.7070977,4.79289439 C11.0976274,5.18341904 11.0976274,5.8165821 10.7070977,6.20711276 L5.91421342,11.0000108 L20.000001,11.0000108 C20.5523006,11.0000108 21.0000002,11.4477315 21.0000002,12.0000125 C21.0000002,12.5523034 20.5523006,13.0000141 20.000001,13.0000141 L5.91421342,13.0000141 L10.7070977,17.7929221 Z"></path>
            </g>
        </g>
    </g>
</svg>