<?xml version="1.0" encoding="UTF-8"?>
<svg width="20px" height="19px" viewBox="0 0 20 19" version="1.1" xmlns="http://www.w3.org/2000/svg" xmlns:xlink="http://www.w3.org/1999/xlink">
    <title>UI icon/star/filled</title>
    <g id="👀-Icons" stroke="none" stroke-width="1" fill="none" fill-rule="evenodd">
        <g id="编组" transform="translate(-2.000000, -2.000000)" fill="#6F767E" fill-rule="nonzero">
            <g id="Star-3">
                <path d="M10.1359262,3.84333792 C10.7585167,2.05222169 13.2916088,2.05221969 13.9142093,3.84333792 L14.8597101,6.5634937 C15.1344104,7.35363248 15.871711,7.88937165 16.7081117,7.90641162 L19.5873141,7.96509153 C21.4831157,8.00372147 22.2659163,10.4128077 20.7548151,11.558416 L18.4600131,13.2982833 C17.7934126,13.8035825 17.5117123,14.6704811 17.7540126,15.4711799 L18.5879133,18.2275756 C19.1370137,20.0425728 17.087712,21.5314705 15.5312107,20.4483722 L13.1674087,18.8034747 C12.4807781,18.3256755 11.5693274,18.3256755 10.8826868,18.8034747 L8.51887481,20.4483722 C6.96239351,21.5314705 4.91309179,20.0425728 5.46220225,18.2275756 L6.29612295,15.4711799 C6.53835315,14.6704811 6.25670292,13.8035825 5.59010236,13.2982833 L3.29526343,11.558416 C1.78419717,10.4128077 2.56695642,8.00372147 4.46281141,7.96509153 L7.34201382,7.90641162 C8.17835453,7.88937165 8.91574514,7.35363248 9.19039537,6.5634937 L10.1359262,3.84333792 Z"></path>
            </g>
        </g>
    </g>
</svg>