<?xml version="1.0" encoding="UTF-8"?>
<svg width="20px" height="19px" viewBox="0 0 20 19" version="1.1" xmlns="http://www.w3.org/2000/svg" xmlns:xlink="http://www.w3.org/1999/xlink">
    <title>UI icon/star/light</title>
    <g id="👀-Icons" stroke="none" stroke-width="1" fill="none" fill-rule="evenodd">
        <g id="Star-3-(Stroke)" transform="translate(-2.000000, -2.000000)" fill="#6F767E">
            <path d="M12.9455754,7.22016 L12.0000254,4.5 L11.0544954,7.22016 C10.5051854,8.80044 9.03041535,9.87192 7.35773535,9.90601 L4.47853535,9.96468 L6.77336535,11.70451 C8.10656535,12.7153 8.66987535,14.449 8.18540535,16.0503 L7.35148535,18.8067 L9.71529535,17.1618 C11.0885654,16.2062 12.9114754,16.2062 14.2847754,17.1618 L16.6485754,18.8067 L15.8146754,16.0503 C15.3301754,14.449 15.8934754,12.7153 17.2266754,11.70451 L19.5214754,9.96468 L16.6422754,9.90601 C14.9695754,9.87192 13.4948754,8.80044 12.9455754,7.22016 Z M13.8891754,3.84334 C13.2665754,2.052219 10.7334854,2.052221 10.1108954,3.84334 L9.16536535,6.5635 C8.89071535,7.35364 8.15332535,7.88938 7.31698535,7.90642 L4.43778535,7.9651 C2.54193195,8.00373 1.75917335,10.41282 3.27023835,11.55843 L5.56507535,13.2983 C6.23167535,13.8036 6.51332535,14.6705 6.27109535,15.4712 L5.43717535,18.2276 C4.88806535,20.0426 6.93736535,21.5315 8.49384535,20.4484 L10.8576554,18.8035 C11.5442954,18.3257 12.4557454,18.3257 13.1423754,18.8035 L15.5061754,20.4484 C17.0626754,21.5315 19.1119754,20.0426 18.5628754,18.2276 L17.7289754,15.4712 C17.4866754,14.6705 17.7683754,13.8036 18.4349754,13.2983 L20.7297754,11.55843 C22.2408754,10.41282 21.4580754,8.00373 19.5622754,7.9651 L16.6830754,7.90642 C15.8466754,7.88938 15.1093754,7.35364 14.8346754,6.5635 L13.8891754,3.84334 Z"></path>
        </g>
    </g>
</svg>