<?xml version="1.0" encoding="UTF-8"?>
<svg width="20px" height="20px" viewBox="0 0 20 20" version="1.1" xmlns="http://www.w3.org/2000/svg" xmlns:xlink="http://www.w3.org/1999/xlink">
    <title>UI icon/laugh/filled</title>
    <g id="👀-Icons" stroke="none" stroke-width="1" fill="none" fill-rule="evenodd">
        <g id="Subtract" transform="translate(-2.000000, -2.000000)" fill="#6F767E">
            <path d="M12,22 C17.5228,22 22,17.5228 22,12 C22,6.47715 17.5228,2 12,2 C6.47715,2 2,6.47715 2,12 C2,17.5228 6.47715,22 12,22 Z M12,18 C8.56057,18 6.67593,16.1447 6.14946,14.0324 C6.01172,13.4798 6.47543,13 7.04495,13 L16.9551,13 C17.5246,13 17.9883,13.4798 17.8506,14.0324 C17.3242,16.1447 15.4395,18 12,18 Z M9,9 C9,9.55228 8.55228,10 8,10 C7.44772,10 7,9.55228 7,9 C7,8.44772 7.44772,8 8,8 C8.55228,8 9,8.44772 9,9 Z M16,10 C16.5523,10 17,9.55228 17,9 C17,8.44772 16.5523,8 16,8 C15.4477,8 15,8.44772 15,9 C15,9.55228 15.4477,10 16,10 Z"></path>
        </g>
    </g>
</svg>