<?xml version="1.0" encoding="UTF-8"?>
<svg width="20px" height="20px" viewBox="0 0 20 20" version="1.1" xmlns="http://www.w3.org/2000/svg" xmlns:xlink="http://www.w3.org/1999/xlink">
    <title>UI icon/laugh/light</title>
    <g id="👀-Icons" stroke="none" stroke-width="1" fill="none" fill-rule="evenodd">
        <g id="编组" transform="translate(-2.000000, -2.000000)" fill="#6F767E">
            <path d="M12,20 C16.4183,20 20,16.4183 20,12 C20,7.58172 16.4183,4 12,4 C7.58172,4 4,7.58172 4,12 C4,16.4183 7.58172,20 12,20 Z M12,22 C17.5228,22 22,17.5228 22,12 C22,6.47715 17.5228,2 12,2 C6.47715,2 2,6.47715 2,12 C2,17.5228 6.47715,22 12,22 Z" id="Ellipse-201-(Stroke)"></path>
            <path d="M6.6942558,12.307886 C6.8828538,12.111202 7.1435488,12 7.4160428,12 L16.5839428,12 C16.8564428,12 17.1171428,12.111198 17.3057428,12.307876 C17.4943428,12.504553 17.5945428,12.769677 17.5830428,13.04193 C17.5318428,14.2638 17.0621428,15.51178 16.1095028,16.45908 C15.1454328,17.41777 13.7559128,18 12.0000028,18 C10.2440828,18 8.8545728,17.41776 7.8905128,16.45908 C6.9379128,15.51178 6.4682324,14.2638 6.41692433,13.04196 C6.4054918,12.7697 6.505658,12.504569 6.6942558,12.307886 Z M8.6281628,14 C8.7765428,14.38683 9.0010428,14.74286 9.3007728,15.04092 C9.8451228,15.58224 10.7056028,16 12.0000028,16 C13.2944028,16 14.1548928,15.58223 14.6992528,15.04092 C14.9989828,14.74286 15.2234928,14.38683 15.3718528,14 L8.6281628,14 Z" id="Ellipse-204-(Stroke)"></path>
            <path d="M9,9 C9,9.55228 8.55228,10 8,10 C7.447715,10 7,9.55228 7,9 C7,8.447715 7.447715,8 8,8 C8.55228,8 9,8.447715 9,9 Z" id="Ellipse-202" fill-rule="nonzero"></path>
            <path d="M17,9 C17,9.55228 16.55228,10 16,10 C15.447715,10 15,9.55228 15,9 C15,8.447715 15.447715,8 16,8 C16.55228,8 17,8.447715 17,9 Z" id="Ellipse-203" fill-rule="nonzero"></path>
        </g>
    </g>
</svg>