<?xml version="1.0" encoding="UTF-8"?>
<svg width="20px" height="14px" viewBox="0 0 20 14" version="1.1" xmlns="http://www.w3.org/2000/svg" xmlns:xlink="http://www.w3.org/1999/xlink">
    <title>UI icon/cloud/light</title>
    <g id="👀-Icons" stroke="none" stroke-width="1" fill="none" fill-rule="evenodd">
        <g id="Union-(Stroke)" transform="translate(-2.000000, -5.000000)" fill="#6F767E">
            <path d="M10.40018,10.0354 C9.99215,10.98901 8.92281,11.47243 7.93736,11.14878 C7.64499,11.05275 7.33064,11 7,11 C5.34315,11 4,12.34315 4,14 C4,15.6569 5.34315,17 7,17 L15,17 C17.7614,17 20,14.76142 20,12 C20,9.23858 17.7614,7 15,7 C12.9394,7 11.16544,8.24691 10.40018,10.0354 Z M8.56143,9.24864 C8.07015,9.08728 7.54527,9 7,9 C4.23858,9 2,11.23858 2,14 C2,16.7614 4.23858,19 7,19 L15,19 C18.866,19 22,15.866 22,12 C22,8.13401 18.866,5 15,5 C12.1108,5 9.63037,6.75042 8.56143,9.24864 Z"></path>
        </g>
    </g>
</svg>