<?xml version="1.0" encoding="UTF-8"?>
<svg width="20px" height="18px" viewBox="0 0 20 18" version="1.1" xmlns="http://www.w3.org/2000/svg" xmlns:xlink="http://www.w3.org/1999/xlink">
    <title>UI icon/tv/light</title>
    <g id="👀-Icons" stroke="none" stroke-width="1" fill="none" fill-rule="evenodd">
        <g id="编组" transform="translate(-2.000000, -3.000000)" fill="#6F767E">
            <path d="M19,5 L5,5 C4.44772,5 4,5.44772 4,6 L4,15 C4,15.5523 4.44772,16 5,16 L19,16 C19.5523,16 20,15.5523 20,15 L20,6 C20,5.44771 19.5523,5 19,5 Z M5,3 C3.34315,3 2,4.34315 2,6 L2,15 C2,16.6569 3.34315,18 5,18 L19,18 C20.6569,18 22,16.6569 22,15 L22,6 C22,4.34315 20.6569,3 19,3 L5,3 Z" id="Rectangle-188-(Stroke)"></path>
            <path d="M7,20 C7,19.447715 7.447715,19 8,19 L16,19 C16.55229,19 17,19.447715 17,20 C17,20.55228 16.55229,21 16,21 L8,21 C7.447715,21 7,20.55228 7,20 Z" id="Vector-20-(Stroke)"></path>
        </g>
    </g>
</svg>