<?xml version="1.0" encoding="UTF-8"?>
<svg width="20px" height="20px" viewBox="0 0 20 20" version="1.1" xmlns="http://www.w3.org/2000/svg" xmlns:xlink="http://www.w3.org/1999/xlink">
    <title>UI icon/anchor/filled</title>
    <g id="👀-Icons" stroke="none" stroke-width="1" fill="none" fill-rule="evenodd">
        <g id="Union" transform="translate(-2.000000, -2.000000)" fill="#6F767E">
            <path d="M13,7.82929 C14.1652,7.41746 15,6.30622 15,5 C15,3.34315 13.6569,2 12,2 C10.34315,2 9,3.34315 9,5 C9,6.30622 9.83481,7.41746 11,7.82929 L11,19.9381 C7.38128,19.4869 4.51314,16.6187 4.06189,13 L6,13 C6.55228,13 7,12.5523 7,12 C7,11.44771 6.55228,11 6,11 L3,11 C2.447715,11 2,11.44771 2,12 C2,17.5228 6.47715,22 12,22 C17.5228,22 22,17.5228 22,12 C22,11.44771 21.5523,11 21,11 L18,11 C17.4477,11 17,11.44771 17,12 C17,12.5523 17.4477,13 18,13 L19.9381,13 C19.4869,16.6187 16.6187,19.4869 13,19.9381 L13,7.82929 Z M13,5 C13,5.55228 12.5523,6 12,6 C11.44772,6 11,5.55228 11,5 C11,4.44772 11.44772,4 12,4 C12.5523,4 13,4.44772 13,5 Z"></path>
        </g>
    </g>
</svg>