<?xml version="1.0" encoding="UTF-8"?>
<svg width="20px" height="20px" viewBox="0 0 20 20" version="1.1" xmlns="http://www.w3.org/2000/svg" xmlns:xlink="http://www.w3.org/1999/xlink">
    <title>UI icon/chrome/filled</title>
    <g id="👀-Icons" stroke="none" stroke-width="1" fill="none" fill-rule="evenodd">
        <g id="编组" transform="translate(-2.000000, -2.000000)" fill="#6F767E" fill-rule="nonzero">
            <g id="Union" transform="translate(1.998181, 1.998360)">
                <path d="M10.0847,5.00165 L17.7959,5.00164 C18.1808,5.00164 18.4173,4.58615 18.1971,4.27047 C15.2583,0.0579458 9.53204,-1.27419 5.00167,1.34142 C4.31862,1.73578 3.69969,2.19855 3.14854,2.71609 C2.83008,3.01513 2.78109,3.49531 2.99951,3.87364 L4.90293,7.17046 C5.10902,7.52743 5.65119,7.50122 5.88502,7.16178 C6.29337,6.56898 6.83674,6.05546 7.50163,5.67159 C8.31619,5.2013 9.20807,4.98626 10.0847,5.00165 Z" id="574D96F1-AD08-45A9-BB6D-265E192BD592"></path>
                <path d="M8.197,19.1274 C7.97859,19.5057 7.5383,19.7033 7.11999,19.5775 C4.76638,18.8697 2.66725,17.2981 1.34142,15.0017 C-0.354091,12.065 -0.390764,8.62574 0.940669,5.769 C1.10335,5.41996 1.58133,5.41727 1.77387,5.75077 L5.66446,12.4895 L5.6715,12.5017 C6.52507,13.9801 8.01964,14.8577 9.60149,14.9861 C10.012,15.0195 10.3052,15.4758 10.0993,15.8325 L8.197,19.1274 Z" id="5366EE3A-41CD-47E6-891B-989CF179DC86"></path>
                <path d="M10.0018,7.0012085 C9.49189,7.0007 8.975,7.13034 8.50163,7.40364 C7.06994,8.23022 6.57731,10.0587 7.39804,11.4921 L7.40367,11.5019 C8.23215,12.9366 10.0668,13.4282 11.5016,12.5998 C11.9571,12.3368 12.3175,11.9725 12.5709,11.5517 L12.5998,11.5015 C13.1168,10.604 13.1548,9.46319 12.5997,8.50171 C12.0532,7.55511 11.0687,7.01902 10.05,7.00165 L10.0018,7.0012085 Z" id="29275DF4-41FA-422A-86A0-AD4FA774A521"></path>
                <path d="M10.4332,19.2542 C10.2408,19.5874 10.4814,19.9997 10.8646,19.9668 C12.2794,19.8452 13.6906,19.4189 15.0017,18.6619 C18.9168,16.4015 20.7252,11.8934 19.7379,7.70858 C19.6377,7.28385 19.2466,7.00164 18.8102,7.00164 L14.6014,7.00164 C14.3543,7.00164 14.2082,7.2877 14.3318,7.50171 L14.3318,7.50171 C15.2742,9.13404 15.1916,11.0769 14.2837,12.5849 L10.4332,19.2542 Z" id="47620340-FC8E-469C-A432-B19124E0EBA9"></path>
            </g>
        </g>
    </g>
</svg>