<?xml version="1.0" encoding="UTF-8"?>
<svg width="20px" height="20px" viewBox="0 0 20 20" version="1.1" xmlns="http://www.w3.org/2000/svg" xmlns:xlink="http://www.w3.org/1999/xlink">
    <title>UI icon/chrome/light</title>
    <g id="👀-Icons" stroke="none" stroke-width="1" fill="none" fill-rule="evenodd">
        <g id="Union" transform="translate(-2.000000, -2.000000)" fill="#6F767E">
            <path d="M17.0000675,20.6601321 C12.2170675,23.4215321 6.10120749,21.7828321 3.33978749,16.9999321 C0.578357491,12.2169321 2.21711149,6.10107207 7.00003749,3.33965207 C11.7829675,0.578222069 17.8988675,2.21697607 20.6602675,6.99990207 C23.4216675,11.7828321 21.7829675,17.8987321 17.0000675,20.6601321 Z M12.5889675,19.9800321 C13.7547675,19.8948321 14.9198675,19.5517321 16.0000675,18.9281321 C19.3409675,16.9992321 20.7642675,13.0244321 19.6010675,9.50000207 L15.7420675,9.50000207 C15.7960675,9.58103207 15.8477675,9.66433207 15.8971675,9.74986207 C16.7442675,11.2169721 16.6712675,12.9628321 15.8572675,14.3192321 L12.5889675,19.9800321 Z M12.0856675,7.50000207 L18.6149675,7.50000207 C16.2820675,4.06297207 11.6546475,2.96170807 8.00003749,5.07170207 C7.24396749,5.50822207 6.58609749,6.04952207 6.03419749,6.66666207 L7.96389749,10.0090121 C8.34382749,9.23696207 8.94893749,8.56528207 9.75007749,8.10274207 C10.4865575,7.67754207 11.2932675,7.48417207 12.0856675,7.50000207 Z M9.83501749,13.2498321 C9.14465749,12.0541321 9.55434749,10.5251521 10.7500775,9.83479207 C11.1444075,9.60713207 11.5749775,9.49910207 11.9997675,9.49944127 L12.0507675,9.50000207 C12.8959675,9.51795207 13.7115675,9.96426207 14.1651675,10.7498621 C14.6277675,11.5511721 14.5963675,12.5021321 14.1654675,13.2501321 L14.1444675,13.2858321 C13.9331675,13.6389321 13.6316675,13.9446321 13.2500675,14.1649321 C12.0543675,14.8552321 10.5253775,14.4456321 9.83501749,13.2498321 Z M8.10296749,14.2498321 C8.98812749,15.7830321 10.6392175,16.5982321 12.2938675,16.4912321 L10.3655175,19.8312321 C8.21458749,19.3815321 6.25701749,18.0527321 5.07183749,15.9999321 C3.69698749,13.6186321 3.68553749,10.8242621 4.79528749,8.52081207 L8.10296749,14.2498321 Z"></path>
        </g>
    </g>
</svg>