<?xml version="1.0" encoding="UTF-8"?>
<svg width="20px" height="14px" viewBox="0 0 20 14" version="1.1" xmlns="http://www.w3.org/2000/svg" xmlns:xlink="http://www.w3.org/1999/xlink">
    <title>UI icon/youtube/filled</title>
    <g id="👀-Icons" stroke="none" stroke-width="1" fill="none" fill-rule="evenodd">
        <g id="Subtract" transform="translate(-2.000000, -5.000000)" fill="#6F767E">
            <path d="M5.27893045,5.7467707 C3.93075045,5.8965697 2.84611645,6.9236507 2.62311145,8.2616807 C2.21059045,10.7368107 2.21059045,13.2631507 2.62311145,15.7382707 C2.84611645,17.0762707 3.93075045,18.1033707 5.27893045,18.2531707 L5.80920045,18.3120707 C9.92378045,18.7692707 14.0763205,18.7692707 18.1909205,18.3120707 L18.7212205,18.2531707 C20.0694205,18.1033707 21.1540205,17.0762707 21.3770205,15.7382707 C21.7895205,13.2631507 21.7895205,10.7368107 21.3770205,8.2616807 C21.1540205,6.9236507 20.0694205,5.8965697 18.7212205,5.7467707 L18.1909205,5.6878527 C14.0763205,5.2306767 9.92378045,5.2306767 5.80920045,5.6878527 L5.27893045,5.7467707 Z M14.7519205,12.8320407 C15.3456205,12.4362107 15.3456205,11.5637607 14.7519205,11.1679307 L11.5547005,9.0364507 C10.8901405,8.5934207 10.0000005,9.0698107 10.0000005,9.8685007 L10.0000005,14.1314707 C10.0000005,14.9301607 10.8901405,15.4065707 11.5547005,14.9635207 L14.7519205,12.8320407 Z"></path>
        </g>
    </g>
</svg>