<?xml version="1.0" encoding="UTF-8"?>
<svg width="20px" height="14px" viewBox="0 0 20 14" version="1.1" xmlns="http://www.w3.org/2000/svg" xmlns:xlink="http://www.w3.org/1999/xlink">
    <title>UI icon/youtube/light</title>
    <g id="👀-Icons" stroke="none" stroke-width="1" fill="none" fill-rule="evenodd">
        <g id="编组" transform="translate(-2.000000, -5.000000)" fill="#6F767E">
            <path d="M5.90682685,7.68932575 L5.40885685,7.74465575 C5.00376685,7.78966575 4.67787685,8.09826575 4.61086685,8.50030575 C4.22467685,10.8174558 4.22467685,13.1825458 4.61086685,15.4996558 C4.67787685,15.9017558 5.00376685,16.2103558 5.40885685,16.2553558 L5.90682685,16.3106558 C9.95647685,16.7606558 14.0435268,16.7606558 18.0931268,16.3106558 L18.5911268,16.2553558 C18.9962268,16.2103558 19.3221268,15.9017558 19.3891268,15.4996558 C19.7753268,13.1825458 19.7753268,10.8174558 19.3891268,8.50030575 C19.3221268,8.09826575 18.9962268,7.78966575 18.5911268,7.74465575 L18.0931268,7.68932575 C14.0435268,7.23936575 9.95647685,7.23936575 5.90682685,7.68932575 Z M5.18799685,5.75688975 C3.89356685,5.90071475 2.85219385,6.88683575 2.63808285,8.17150575 C2.21560785,10.7063558 2.21560785,13.2936458 2.63808285,15.8284558 C2.85219385,17.1131558 3.89356685,18.0992558 5.18798685,18.2431558 L5.68596685,18.2984558 C9.88240685,18.7647558 14.1176268,18.7647558 18.3140268,18.2984558 L18.8120268,18.2431558 C20.1064268,18.0992558 21.1478268,17.1131558 21.3619268,15.8284558 C21.7844268,13.2936458 21.7844268,10.7063558 21.3619268,8.17150575 C21.1478268,6.88683575 20.1064268,5.90071475 18.8120268,5.75688975 L18.3140268,5.70155975 C14.1176268,5.23528775 9.88240685,5.23528775 5.68596685,5.70155975 L5.18799685,5.75688975 Z" id="Rectangle-259-(Stroke)"></path>
            <path d="M14.7519196,11.167946 C15.3456596,11.5637761 15.3456596,12.4362263 14.7519196,12.8320464 L11.5546999,14.9635368 C10.8901449,15.4065669 10,14.9301768 10,14.1314866 L10,9.86851573 C10,9.06982156 10.8901449,8.59343046 11.5546999,9.03646655 L14.7519196,11.167946 Z" id="Polygon-2" fill-rule="nonzero"></path>
        </g>
    </g>
</svg>