<?xml version="1.0" encoding="UTF-8"?>
<svg width="18px" height="16px" viewBox="0 0 18 16" version="1.1" xmlns="http://www.w3.org/2000/svg" xmlns:xlink="http://www.w3.org/1999/xlink">
    <title>UI icon/next/filled</title>
    <g id="👀-Icons" stroke="none" stroke-width="1" fill="none" fill-rule="evenodd">
        <g id="编组" transform="translate(-3.000000, -4.000000)" fill="#6F767E">
            <path d="M15.6040772,9.41418646 C17.5760737,10.574134 17.5760737,13.425828 15.6040772,14.5857756 L7.52105184,19.3405656 C5.52115545,20.5169632 3,19.0749662 3,16.7547711 L3,7.24524102 C3,4.92500088 5.52115545,3.48303691 7.52105184,4.65944644 L15.6040772,9.41418646 Z" id="Polygon-2" fill-rule="nonzero"></path>
            <path d="M20,4 C20.55228,4 21,4.447715 21,5 L21,19 C21,19.5523 20.55228,20 20,20 C19.447715,20 19,19.5523 19,19 L19,5 C19,4.447715 19.447715,4 20,4 Z" id="Vector-599-(Stroke)"></path>
        </g>
    </g>
</svg>