<?xml version="1.0" encoding="UTF-8"?>
<svg width="18px" height="16px" viewBox="0 0 18 16" version="1.1" xmlns="http://www.w3.org/2000/svg" xmlns:xlink="http://www.w3.org/1999/xlink">
    <title>UI icon/next/light</title>
    <g id="👀-Icons" stroke="none" stroke-width="1" fill="none" fill-rule="evenodd">
        <g id="编组" transform="translate(-3.000000, -4.000000)" fill="#6F767E">
            <path d="M6.50702,17.6166973 L14.5901,12.8619373 C15.2474,12.4752873 15.2474,11.5247173 14.5901,11.1380673 L6.50702,6.38331732 C5.84039,5.99117732 5,6.47183732 5,7.24524732 L5,16.7547973 C5,17.5281973 5.84039,18.0087973 6.50702,17.6166973 Z M15.6041,14.5857973 C17.5761,13.4258473 17.5761,10.5741473 15.6041,9.41419732 L7.52106,4.65944732 C5.52116,3.48303532 3,4.92500232 3,7.24524732 L3,16.7547973 C3,19.0749973 5.52116,20.5169973 7.52106,19.3405973 L15.6041,14.5857973 Z" id="Polygon-2-(Stroke)"></path>
            <path d="M20,4 C20.55228,4 21,4.447715 21,5 L21,19 C21,19.5523 20.55228,20 20,20 C19.447715,20 19,19.5523 19,19 L19,5 C19,4.447715 19.447715,4 20,4 Z" id="Vector-599-(Stroke)"></path>
        </g>
    </g>
</svg>