<?xml version="1.0" encoding="UTF-8"?>
<svg width="20px" height="20px" viewBox="0 0 20 20" version="1.1" xmlns="http://www.w3.org/2000/svg" xmlns:xlink="http://www.w3.org/1999/xlink">
    <title>UI icon/scan/filled</title>
    <g id="👀-Icons" stroke="none" stroke-width="1" fill="none" fill-rule="evenodd">
        <g id="编组" transform="translate(-2.000000, -2.000000)" fill="#6F767E">
            <path d="M7,15.5 C7,15.223858 7.223858,15 7.5,15 L16.5,15 C16.77614,15 17,15.223858 17,15.5 L17,15.5 C17,16.88071 15.88071,18 14.5,18 L9.5,18 C8.11929,18 7,16.88071 7,15.5 L7,15.5 Z" id="Rectangle-254" fill-rule="nonzero"></path>
            <path d="M7,8.5 C7,7.11929 8.11929,6 9.5,6 L14.5,6 C15.88071,6 17,7.11929 17,8.5 L17,12.5 C17,12.77614 16.77614,13 16.5,13 L7.5,13 C7.223858,13 7,12.77614 7,12.5 L7,8.5 Z" id="Rectangle-255" fill-rule="nonzero"></path>
            <path d="M2,12 C2,11.447715 2.447715,11 3,11 L21,11 C21.5523,11 22,11.447715 22,12 C22,12.55228 21.5523,13 21,13 L3,13 C2.447715,13 2,12.55228 2,12 Z" id="Vector-149-(Stroke)"></path>
            <path d="M2,5 C2,3.34315 3.34315,2 5,2 L7,2 C7.55228,2 8,2.447715 8,3 C8,3.55228 7.55228,4 7,4 L5,4 C4.44772,4 4,4.44772 4,5 L4,7 C4,7.55228 3.55228,8 3,8 C2.447715,8 2,7.55228 2,7 L2,5 Z" id="Vector-461-(Stroke)"></path>
            <path d="M2,19 C2,17.34315 3.34315,16 5,16 L7,16 C7.55228,16 8,16.447715 8,17 C8,17.55228 7.55228,18 7,18 L5,18 C4.44772,18 4,18.44772 4,19 L4,21 C4,21.55228 3.55228,22 3,22 C2.447715,22 2,21.55228 2,21 L2,19 Z" id="Vector-463-(Stroke)" transform="translate(5.000000, 19.000000) scale(1, -1) translate(-5.000000, -19.000000) "></path>
            <path d="M16,19 C16,17.34315 17.34315,16 19,16 L21,16 C21.55228,16 22,16.447715 22,17 C22,17.55228 21.55228,18 21,18 L19,18 C18.44772,18 18,18.44772 18,19 L18,21 C18,21.55228 17.55228,22 17,22 C16.447715,22 16,21.55228 16,21 L16,19 Z" id="Vector-464-(Stroke)" transform="translate(19.000000, 19.000000) rotate(-180.000000) translate(-19.000000, -19.000000) "></path>
            <path d="M16,5 C16,3.34315 17.34315,2 19,2 L21,2 C21.55228,2 22,2.447715 22,3 C22,3.55228 21.55228,4 21,4 L19,4 C18.44772,4 18,4.44772 18,5 L18,7 C18,7.55228 17.55228,8 17,8 C16.447715,8 16,7.55228 16,7 L16,5 Z" id="Vector-462-(Stroke)" transform="translate(19.000000, 5.000000) scale(1, -1) rotate(180.000000) translate(-19.000000, -5.000000) "></path>
        </g>
    </g>
</svg>