<?xml version="1.0" encoding="UTF-8"?>
<svg width="17px" height="20px" viewBox="0 0 17 20" version="1.1" xmlns="http://www.w3.org/2000/svg" xmlns:xlink="http://www.w3.org/1999/xlink">
    <title>UI icon/paragraph/filled</title>
    <g id="👀-Icons" stroke="none" stroke-width="1" fill="none" fill-rule="evenodd">
        <g id="编组" transform="translate(-3.000000, -2.000000)" fill="#6F767E" fill-rule="nonzero">
            <g id="UI-icon/paragraph/filled">
                <path d="M3,8 C3,4.68629 5.68629,2 9,2 L19,2 C19.5523,2 20,2.447715 20,3 C20,3.55228 19.5523,4 19,4 L18,4 L18,21 C18,21.5523 17.5523,22 17,22 C16.4477,22 16,21.5523 16,21 L16,4 L13,4 L13,21 C13,21.5523 12.55229,22 12,22 C11.44771,22 11,21.5523 11,21 L11,14 L9,14 C5.68629,14 3,11.31371 3,8 Z" id="Union"></path>
            </g>
        </g>
    </g>
</svg>