<?xml version="1.0" encoding="UTF-8"?>
<svg width="17px" height="20px" viewBox="0 0 17 20" version="1.1" xmlns="http://www.w3.org/2000/svg" xmlns:xlink="http://www.w3.org/1999/xlink">
    <title>UI icon/paragraph/light</title>
    <g id="👀-Icons" stroke="none" stroke-width="1" fill="none" fill-rule="evenodd">
        <g id="Union" transform="translate(-3.000000, -2.000000)" fill="#6F767E">
            <path d="M9,2 C5.68629,2 3,4.68629 3,8 C3,11.31371 5.68629,14 9,14 L11,14 L11,21 C11,21.5523 11.44771,22 12,22 C12.55229,22 13,21.5523 13,21 L13,4 L16,4 L16,21 C16,21.5523 16.4477,22 17,22 C17.5523,22 18,21.5523 18,21 L18,4 L19,4 C19.5523,4 20,3.55228 20,3 C20,2.447715 19.5523,2 19,2 L9,2 Z M9,4 L11,4 L11,12 L9,12 C6.79086,12 5,10.20914 5,8 C5,5.79086 6.79086,4 9,4 Z"></path>
        </g>
    </g>
</svg>