<?xml version="1.0" encoding="UTF-8"?>
<svg width="20px" height="20px" viewBox="0 0 20 20" version="1.1" xmlns="http://www.w3.org/2000/svg" xmlns:xlink="http://www.w3.org/1999/xlink">
    <title>UI icon/crop/filled</title>
    <g id="👀-Icons" stroke="none" stroke-width="1" fill="none" fill-rule="evenodd">
        <g id="编组" transform="translate(-2.000000, -2.000000)" fill="#6F767E">
            <path d="M6,2 C6.55228,2 7,2.447715 7,3 L7,16 C7,16.5523 7.44772,17 8,17 L21,17 C21.5523,17 22,17.4477 22,18 C22,18.5523 21.5523,19 21,19 L8,19 C6.34315,19 5,17.6569 5,16 L5,3 C5,2.447715 5.447715,2 6,2 Z" id="Vector-584-(Stroke)"></path>
            <path d="M2,6 C2,5.447715 2.447715,5 3,5 L16,5 C17.6569,5 19,6.34315 19,8 L19,21 C19,21.5523 18.5523,22 18,22 C17.4477,22 17,21.5523 17,21 L17,8 C17,7.44772 16.5523,7 16,7 L3,7 C2.447715,7 2,6.55228 2,6 Z" id="Vector-595-(Stroke)"></path>
        </g>
    </g>
</svg>