<?xml version="1.0" encoding="UTF-8"?>
<svg width="20px" height="20px" viewBox="0 0 20 20" version="1.1" xmlns="http://www.w3.org/2000/svg" xmlns:xlink="http://www.w3.org/1999/xlink">
    <title>UI icon/crop/light</title>
    <g id="👀-Icons" stroke="none" stroke-width="1" fill="none" fill-rule="evenodd">
        <g id="Union" transform="translate(-2.000000, -2.000000)" fill="#6F767E">
            <path d="M7,3 C7,2.447715 6.55228,2 6,2 C5.44772,2 5,2.447715 5,3 L5,5 L3,5 C2.447715,5 2,5.44772 2,6 C2,6.55228 2.447715,7 3,7 L5,7 L5,16 C5,17.6569 6.34315,19 8,19 L17,19 L17,21 C17,21.5523 17.4477,22 18,22 C18.5523,22 19,21.5523 19,21 L19,19 L21,19 C21.5523,19 22,18.5523 22,18 C22,17.4477 21.5523,17 21,17 L19,17 L19,8 C19,6.34315 17.6569,5 16,5 L7,5 L7,3 Z M7,7 L7,16 C7,16.5523 7.44772,17 8,17 L17,17 L17,8 C17,7.44772 16.5523,7 16,7 L7,7 Z"></path>
        </g>
    </g>
</svg>