<?xml version="1.0" encoding="UTF-8"?>
<svg width="22px" height="22px" viewBox="0 0 22 22" version="1.1" xmlns="http://www.w3.org/2000/svg" xmlns:xlink="http://www.w3.org/1999/xlink">
    <title>UI icon/new/filled</title>
    <g id="👀-Icons" stroke="none" stroke-width="1" fill="none" fill-rule="evenodd">
        <g id="Star-4-(Stroke)" transform="translate(-1.000000, -1.000000)" fill="#6F767E">
            <path d="M10.2162761,2.53468283 C11.2441074,1.65876879 12.7557993,1.65876879 13.7837006,2.53468283 L15.0551022,3.61821911 C15.2553025,3.78882932 15.5043028,3.89193944 15.7665031,3.91286946 L17.4317053,4.04574962 C18.777907,4.15317975 19.8468083,5.22213102 19.9542085,6.56828262 L20.0871087,8.2335246 C20.1081087,8.49573491 20.2112088,8.7446652 20.381809,8.94486544 L21.4653104,10.216337 C22.3412115,11.2441682 22.3412115,12.75586 21.4653104,13.7837612 L20.381809,15.0551627 C20.2112088,15.2553629 20.1081087,15.5043632 20.0871087,15.7665635 L19.9542085,17.4317655 C19.8468083,18.7779671 18.777907,19.8468684 17.4317053,19.9542685 L15.7665031,20.0871687 C15.5043028,20.1081687 15.2553025,20.2112688 15.0551022,20.381869 L13.7837006,21.4653703 C12.7557993,22.3412714 11.2441074,22.3412714 10.2162761,21.4653703 L8.94480444,20.381869 C8.74460418,20.2112688 8.49567387,20.1081687 8.23346353,20.0871687 L6.56822141,19.9542685 C5.22206969,19.8468684 4.15311833,18.7779671 4.04568819,17.4317655 L3.91280802,15.7665635 C3.89187799,15.5043632 3.78876786,15.2553629 3.61815764,15.0551627 L2.53462126,13.7837612 C1.65870714,12.75586 1.65870714,11.2441682 2.53462026,10.216337 L3.61815764,8.94486544 C3.78876786,8.7446652 3.89187799,8.49573491 3.91280802,8.2335246 L4.04568819,6.56828262 C4.15311833,5.22213102 5.22206969,4.15317975 6.56822141,4.04574962 L8.23346353,3.91286946 C8.49567387,3.89193944 8.74460418,3.78882932 8.94480444,3.61821911 L10.2162761,2.53468283 Z"></path>
        </g>
    </g>
</svg>