<?xml version="1.0" encoding="UTF-8"?>
<svg width="22px" height="22px" viewBox="0 0 22 22" version="1.1" xmlns="http://www.w3.org/2000/svg" xmlns:xlink="http://www.w3.org/1999/xlink">
    <title>UI icon/new/light</title>
    <g id="👀-Icons" stroke="none" stroke-width="1" fill="none" fill-rule="evenodd">
        <g id="Star-4-(Stroke)" transform="translate(-1.000000, -1.000000)" fill="#6F767E">
            <path d="M10.0541445,2.34438052 C11.1754245,1.38883952 12.8246245,1.38883952 13.9458245,2.34438052 L15.2173245,3.42791452 C15.3775245,3.56440452 15.5766245,3.64689452 15.7864245,3.66363452 L17.4516245,3.79652452 C18.9201245,3.91371452 20.0863245,5.07984452 20.2035245,6.54837452 L20.3363245,8.21361452 C20.3531245,8.42337452 20.4356245,8.62251452 20.5721245,8.78268452 L21.6556245,10.0541445 C22.6111245,11.1754245 22.6111245,12.8246245 21.6556245,13.9458245 L20.5721245,15.2173245 C20.4356245,15.3775245 20.3531245,15.5766245 20.3363245,15.7864245 L20.2035245,17.4516245 C20.0863245,18.9201245 18.9201245,20.0863245 17.4516245,20.2035245 L15.7864245,20.3363245 C15.5766245,20.3531245 15.3775245,20.4356245 15.2173245,20.5721245 L13.9458245,21.6556245 C12.8246245,22.6111245 11.1754245,22.6111245 10.0541445,21.6556245 L8.78268452,20.5721245 C8.62251452,20.4356245 8.42337452,20.3531245 8.21361452,20.3363245 L6.54837452,20.2035245 C5.07984452,20.0863245 3.91371452,18.9201245 3.79652452,17.4516245 L3.66363452,15.7864245 C3.64689452,15.5766245 3.56440452,15.3775245 3.42791452,15.2173245 L2.34438052,13.9458245 C1.38883952,12.8246245 1.38883952,11.1754245 2.34438052,10.0541445 L3.42791452,8.78268452 C3.56440452,8.62251452 3.64689452,8.42337452 3.66363452,8.21361452 L3.79652452,6.54837452 C3.91371452,5.07984452 5.07984452,3.91371452 6.54837452,3.79652452 L8.21361452,3.66363452 C8.42337452,3.64689452 8.62251452,3.56440452 8.78268452,3.42791452 L10.0541445,2.34438052 Z M12.6486245,3.86661452 C12.2748245,3.54809452 11.7251245,3.54809452 11.3513845,3.86661452 L10.0799145,4.95014452 C9.59942452,5.35961452 9.00200452,5.60707452 8.37270452,5.65729452 L6.70746452,5.79018452 C6.21795452,5.82924452 5.82924452,6.21795452 5.79018452,6.70746452 L5.65729452,8.37270452 C5.60707452,9.00200452 5.35961452,9.59942452 4.95014452,10.0799145 L3.86661452,11.3513845 C3.54809452,11.7251245 3.54809452,12.2748245 3.86661452,12.6486245 L4.95014452,13.9201245 C5.35961452,14.4006245 5.60707452,14.9980245 5.65729452,15.6273245 L5.79018452,17.2925245 C5.82924452,17.7820245 6.21795452,18.1707245 6.70746452,18.2098245 L8.37270452,18.3427245 C9.00200452,18.3929245 9.59942452,18.6404245 10.0799145,19.0498245 L11.3513845,20.1334245 C11.7251245,20.4519245 12.2748245,20.4519245 12.6486245,20.1334245 L13.9201245,19.0498245 C14.4006245,18.6404245 14.9980245,18.3929245 15.6273245,18.3427245 L17.2925245,18.2098245 C17.7820245,18.1707245 18.1707245,17.7820245 18.2098245,17.2925245 L18.3427245,15.6273245 C18.3929245,14.9980245 18.6404245,14.4006245 19.0498245,13.9201245 L20.1334245,12.6486245 C20.4519245,12.2748245 20.4519245,11.7251245 20.1334245,11.3513845 L19.0498245,10.0799145 C18.6404245,9.59942452 18.3929245,9.00200452 18.3427245,8.37270452 L18.2098245,6.70746452 C18.1707245,6.21795452 17.7820245,5.82924452 17.2925245,5.79018452 L15.6273245,5.65729452 C14.9980245,5.60707452 14.4006245,5.35961452 13.9201245,4.95014452 L12.6486245,3.86661452 Z"></path>
        </g>
    </g>
</svg>