<?xml version="1.0" encoding="UTF-8"?>
<svg width="20px" height="20px" viewBox="0 0 20 20" version="1.1" xmlns="http://www.w3.org/2000/svg" xmlns:xlink="http://www.w3.org/1999/xlink">
    <title>UI icon/home/filled</title>
    <g id="👀-Icons" stroke="none" stroke-width="1" fill="none" fill-rule="evenodd">
        <g id="Subtract" transform="translate(-2.000000, -2.000000)" fill="#6F767E">
            <path d="M2.993106,9.10620679 C2.360964,9.67512679 2,10.4856268 2,11.3360868 L2,18.9999868 C2,20.6568868 3.34315,21.9999868 5,21.9999868 L19,21.9999868 C20.6569,21.9999868 22,20.6568868 22,18.9999868 L22,11.3360868 C22,10.4856268 21.639,9.67512679 21.0069,9.10620679 L14.0069,2.80620379 C12.866,1.77938079 11.13402,1.77938179 9.9931,2.80620479 L2.993106,9.10620679 Z M11,12.9999868 C9.89543,12.9999868 9,13.8953868 9,14.9999868 L9,18.9999868 C9,19.5522868 9.44772,19.9999868 10,19.9999868 L14,19.9999868 C14.5523,19.9999868 15,19.5522868 15,18.9999868 L15,14.9999868 C15,13.8953868 14.1046,12.9999868 13,12.9999868 L11,12.9999868 Z"></path>
        </g>
    </g>
</svg>