<?xml version="1.0" encoding="UTF-8"?>
<svg width="20px" height="20px" viewBox="0 0 20 20" version="1.1" xmlns="http://www.w3.org/2000/svg" xmlns:xlink="http://www.w3.org/1999/xlink">
    <title>UI icon/home/light</title>
    <g id="👀-Icons" stroke="none" stroke-width="1" fill="none" fill-rule="evenodd">
        <g id="Union" transform="translate(-2.000000, -2.000000)" fill="#6F767E">
            <path d="M5,21.9999872 C3.34315,21.9999872 2,20.6568872 2,18.9999872 L2,11.3360872 C2,10.4856272 2.360964,9.67512716 2.993106,9.10620716 L9.9931,2.80620516 C11.13402,1.77938216 12.866,1.77938016 14.0069,2.80620416 L21.0069,9.10620716 C21.639,9.67512716 22,10.4856272 22,11.3360872 L22,18.9999872 C22,20.6568872 20.6569,21.9999872 19,21.9999872 L5,21.9999872 Z M20,11.3360872 L20,18.9999872 C20,19.5522872 19.5523,19.9999872 19,19.9999872 L16,19.9999872 L16,14.9999872 C16,13.3431872 14.6569,11.9999972 13,11.9999972 L11,11.9999972 C9.34315,11.9999972 8,13.3431872 8,14.9999872 L8,19.9999872 L5,19.9999872 C4.44772,19.9999872 4,19.5522872 4,18.9999872 L4,11.3360872 C4,11.0525972 4.12032,10.7824372 4.33104,10.5927972 L11.33103,4.29279716 C11.71134,3.95051716 12.2887,3.95051716 12.669,4.29279716 L19.669,10.5927872 C19.8797,10.7824372 20,11.0525972 20,11.3360872 Z M10,19.9999872 L10,14.9999872 C10,14.4476872 10.44772,13.9999872 11,13.9999872 L13,13.9999872 C13.5523,13.9999872 14,14.4476872 14,14.9999872 L14,19.9999872 L10,19.9999872 Z"></path>
        </g>
    </g>
</svg>