<?xml version="1.0" encoding="UTF-8"?>
<svg width="20px" height="16px" viewBox="0 0 20 16" version="1.1" xmlns="http://www.w3.org/2000/svg" xmlns:xlink="http://www.w3.org/1999/xlink">
    <title>UI icon/hybrid_view/filled</title>
    <g id="👀-Icons" stroke="none" stroke-width="1" fill="none" fill-rule="evenodd">
        <g id="编组" transform="translate(-2.000000, -4.000000)" fill="#6F767E">
            <path d="M12,7 C12,5.34315 13.34315,4 15,4 L19,4 C20.65685,4 22,5.34315 22,7 L22,17 C22,18.6569 20.65685,20 19,20 L15,20 C13.34315,20 12,18.6569 12,17 L12,7 Z" id="Rectangle-244" fill-rule="nonzero"></path>
            <path d="M2,6 C2,5.447715 2.447715,5 3,5 L9,5 C9.55228,5 10,5.447715 10,6 C10,6.55228 9.55228,7 9,7 L3,7 C2.447715,7 2,6.55228 2,6 Z" id="Vector-567-(Stroke)"></path>
            <path d="M2,10 C2,9.447715 2.447715,9 3,9 L9,9 C9.55228,9 10,9.447715 10,10 C10,10.55228 9.55228,11 9,11 L3,11 C2.447715,11 2,10.55228 2,10 Z" id="Vector-568-(Stroke)"></path>
            <path d="M2,14 C2,13.447715 2.447715,13 3,13 L9,13 C9.55228,13 10,13.447715 10,14 C10,14.55228 9.55228,15 9,15 L3,15 C2.447715,15 2,14.55228 2,14 Z" id="Vector-569-(Stroke)"></path>
            <path d="M2,18 C2,17.447715 2.447715,17 3,17 L9,17 C9.55228,17 10,17.447715 10,18 C10,18.55228 9.55228,19 9,19 L3,19 C2.447715,19 2,18.55228 2,18 Z" id="Vector-570-(Stroke)"></path>
        </g>
    </g>
</svg>