<?xml version="1.0" encoding="UTF-8"?>
<svg width="18px" height="20px" viewBox="0 0 18 20" version="1.1" xmlns="http://www.w3.org/2000/svg" xmlns:xlink="http://www.w3.org/1999/xlink">
    <title>UI icon/login/filled</title>
    <g id="👀-Icons" stroke="none" stroke-width="1" fill="none" fill-rule="evenodd">
        <g id="编组" transform="translate(-3.000000, -2.000000)" fill="#6F767E" fill-rule="nonzero">
            <g id="Union" transform="translate(3.000000, 2.000000)">
                <path d="M15,0 C16.6569,0 18,1.34315 18,3 L18,17 C18,18.6569 16.6569,20 15,20 L9,20 C7.34315,20 6,18.6569 6,17 L6,11 L10.0858,11 L8.29289,12.7929 C7.90237,13.1834 7.90237,13.8166 8.29289,14.2071 C8.68342,14.5976 9.31658,14.5976 9.70711,14.2071 L12.5,11.4142 C13.2811,10.6332 13.281,9.36683 12.5,8.58579 L9.70711,5.79289 C9.31658,5.40237 8.68342,5.40237 8.29289,5.79289 C7.90237,6.18342 7.90237,6.81658 8.29289,7.20711 L10.0858,9 L6,9 L6,3 C6,1.34315 7.34315,0 9,0 L15,0 Z" id="1E6FB1CC-205A-4027-B3AB-00ABE43FCC69"></path>
                <path d="M6,9 L6,11 L1,11 C0.447715,11 0,10.5523 0,10 C0,9.44771 0.447715,9 1,9 L6,9 Z" id="D243BAA0-8257-4D2E-9596-7C4663E28C40"></path>
            </g>
        </g>
    </g>
</svg>