<?xml version="1.0" encoding="UTF-8"?>
<svg width="18px" height="20px" viewBox="0 0 18 20" version="1.1" xmlns="http://www.w3.org/2000/svg" xmlns:xlink="http://www.w3.org/1999/xlink">
    <title>UI icon/login/light</title>
    <g id="👀-Icons" stroke="none" stroke-width="1" fill="none" fill-rule="evenodd">
        <g id="编组" transform="translate(-3.000000, -2.000000)" fill="#6F767E">
            <path d="M12.7071095,7.7928939 C12.3165795,7.4023687 11.6834195,7.4023687 11.2928896,7.7928939 C10.9023696,8.18341791 10.9023696,8.81657991 11.2928896,9.20710992 L13.0857995,11 L4,11 C3.44771498,11 3,11.4477199 3,12 C3,12.55229 3.44771498,13 4,13 L13.0857995,13 L11.2928896,14.79289 C10.9023696,15.18342 10.9023696,15.81658 11.2928896,16.20711 C11.6834195,16.59763 12.3165795,16.59763 12.7071095,16.20711 L15.5,13.41421 C16.2810993,12.63316 16.2809993,11.3668299 15.5,10.5857899 L12.7071095,7.7928939 Z" id="Union" fill-rule="nonzero"></path>
            <path d="M9,5 C9,3.34315 10.34315,2 12,2 L18,2 C19.6569,2 21,3.34315 21,5 L21,6 C21,6.55228 20.5523,7 20,7 C19.4477,7 19,6.55228 19,6 L19,5 C19,4.44772 18.55229,4 18,4 L12,4 C11.44772,4 11,4.44772 11,5 L11,19 C11,19.5523 11.44772,20 12,20 L18,20 C18.55229,20 19,19.5523 19,19 L19,18 C19,17.4477 19.4477,17 20,17 C20.5523,17 21,17.4477 21,18 L21,19 C21,20.6569 19.6569,22 18,22 L12,22 C10.34315,22 9,20.6569 9,19 L9,5 Z" id="Vector-587-(Stroke)" transform="translate(15.000000, 12.000000) scale(1, -1) rotate(180.000000) translate(-15.000000, -12.000000) "></path>
        </g>
    </g>
</svg>