<?xml version="1.0" encoding="UTF-8"?>
<svg width="20px" height="18px" viewBox="0 0 20 18" version="1.1" xmlns="http://www.w3.org/2000/svg" xmlns:xlink="http://www.w3.org/1999/xlink">
    <title>UI icon/twitter/filled</title>
    <g id="👀-Icons" stroke="none" stroke-width="1" fill="none" fill-rule="evenodd">
        <g id="编组" transform="translate(-2.000000, -3.000000)" fill="#6F767E" fill-rule="nonzero">
            <g id="Union">
                <path d="M20.1066191,8.63422832 C20.0826191,8.41076839 20.054619,8.23167845 20.031619,8.10404849 L21.916121,5.27734942 C22.0345211,5.09961948 22.0270211,4.86624955 21.897421,4.69649961 C21.7677209,4.52674966 21.5446206,4.45811069 21.3419204,4.52565966 L18.7212176,5.39921938 C18.5827175,5.19264945 18.3773173,4.92018954 18.103617,4.64644962 C17.5491164,4.09194781 16.6794155,3.5 15.5000142,3.5 C14.277513,3.5 13.372712,3.84217989 12.7266113,4.4039467 C12.0872106,4.95994952 11.7499803,5.68868928 11.5774701,6.37872906 C11.4051799,7.06788883 11.3898499,7.74610861 11.4147299,8.24371845 C11.4219799,8.3888284 11.4327399,8.52016836 11.44443,8.63383832 C10.1892786,8.90074823 8.87591725,8.49187837 7.5893459,7.72834862 C6.1706444,6.88640889 4.87015303,5.66300929 3.85358196,4.64644962 C3.71259181,4.50545967 3.50131158,4.46171069 3.31593139,4.53512966 C3.13054119,4.60854964 3.00650106,4.78508958 3.00027106,4.98437951 C2.87287392,9.06119818 3.71338181,13.9957966 7.51119581,16.4979957 C5.91380413,17.3621955 4.34766248,17.7651953 2.43801246,18.0038953 C2.21938023,18.0311952 2.04440695,18.1983952 2.0072074,18.4155951 C1.97000777,18.632795 2.07935088,18.848695 2.27642329,18.9471949 C7.43512573,21.5265941 14.1199128,21.3400942 17.9000168,16.2999958 C19.4670184,14.2106965 19.992119,12.1159372 20.1233191,10.5415177 C20.1888192,9.75519795 20.1563192,9.09807817 20.1066191,8.63422832 Z"></path>
            </g>
        </g>
    </g>
</svg>