<?xml version="1.0" encoding="UTF-8"?>
<svg width="22px" height="19px" viewBox="0 0 22 19" version="1.1" xmlns="http://www.w3.org/2000/svg" xmlns:xlink="http://www.w3.org/1999/xlink">
    <title>UI icon/twitter/light</title>
    <g id="👀-Icons" stroke="none" stroke-width="1" fill="none" fill-rule="evenodd">
        <g id="编组" transform="translate(-1.000000, -3.000000)" fill="#6F767E" fill-rule="nonzero">
            <g id="Vector">
                <path d="M9.00000396,21.1 C6.60000396,21.1 4.10000396,20.5 2.10000696,19.4 C1.70000696,19.2 1.50000736,18.8 1.60000736,18.3 C1.70000696,17.9 2.00000696,17.5 2.50000696,17.5 C4.20000396,17.3 5.50000396,17 6.70000396,16.4 C3.80000396,14.2 2.30000696,10.2 2.50000696,5 C2.50000696,4.6 2.80000396,4.2 3.10000396,4.1 C3.50000396,3.9 3.90000396,4 4.20000396,4.3 C6.20000396,6.3 8.60000396,8.4 10.900004,8.2 C10.900004,7.2 11.000004,5.6 11.900024,4.5 C12.700024,3.5 13.900024,3 15.400024,3 C17.100024,3 18.200024,4.1 18.800024,4.8 L21.100024,4 C21.500024,3.9 22.000024,4 22.200024,4.3 C22.500024,4.6 22.500024,5.1 22.200024,5.5 L20.400024,8.2 C20.600024,9.4 20.800024,13 18.100024,16.6 C15.900024,19.8 12.400024,21.1 9.00000396,21.1 Z M6.10000396,18.7 C9.90000396,19.6 14.100024,18.9 16.700024,15.4 C19.400024,11.9 18.600024,8.4 18.500024,8.2 C18.400024,7.9 18.500024,7.6 18.600024,7.4 L19.000024,6.8 L18.800024,6.9 C18.300024,7.1 17.800024,6.8 17.600024,6.4 C17.0666906,5.46666667 16.3666906,5 15.500024,5 C14.600024,5 13.900024,5.2 13.500024,5.8 C12.800024,6.7 12.900024,8.3 13.000024,8.9 C13.100024,9.4 12.800024,9.9 12.300024,10 C9.40000396,11 6.50000396,9.1 4.50000396,7.4 C4.80000396,10.6 5.80000396,14 9.00000396,15.6 C9.30000396,15.8 9.50000396,16.1 9.50000396,16.4 C9.50000396,16.8 9.30000396,17.1 9.00000396,17.3 C8.10000396,17.9 7.10000396,18.4 6.10000396,18.7 Z"></path>
            </g>
        </g>
    </g>
</svg>