<?xml version="1.0" encoding="UTF-8"?>
<svg width="18px" height="16px" viewBox="0 0 18 16" version="1.1" xmlns="http://www.w3.org/2000/svg" xmlns:xlink="http://www.w3.org/1999/xlink">
    <title>UI icon/previous/filled</title>
    <g id="👀-Icons" stroke="none" stroke-width="1" fill="none" fill-rule="evenodd">
        <g id="编组" transform="translate(-3.000000, -4.000000)" fill="#6F767E">
            <path d="M19.5210084,9.41418646 C21.4930048,10.574134 21.4930048,13.425828 19.5210084,14.5857756 L11.437983,19.3405656 C9.4380866,20.5169632 6.91693115,19.0749662 6.91693115,16.7547711 L6.91693115,7.24524102 C6.91693115,4.92500088 9.4380866,3.48303691 11.437983,4.65944644 L19.5210084,9.41418646 Z" id="Polygon-2" fill-rule="nonzero" transform="translate(13.958468, 12.000000) scale(1, -1) rotate(180.000000) translate(-13.958468, -12.000000) "></path>
            <path d="M4,4 C4.55228,4 5,4.447715 5,5 L5,19 C5,19.5523 4.55228,20 4,20 C3.447715,20 3,19.5523 3,19 L3,5 C3,4.447715 3.447715,4 4,4 Z" id="Vector-599-(Stroke)" transform="translate(4.000000, 12.000000) scale(1, -1) rotate(180.000000) translate(-4.000000, -12.000000) "></path>
        </g>
    </g>
</svg>