<?xml version="1.0" encoding="UTF-8"?>
<svg width="18px" height="16px" viewBox="0 0 18 16" version="1.1" xmlns="http://www.w3.org/2000/svg" xmlns:xlink="http://www.w3.org/1999/xlink">
    <title>UI icon/previous/light</title>
    <g id="👀-Icons" stroke="none" stroke-width="1" fill="none" fill-rule="evenodd">
        <g id="编组" transform="translate(-3.000000, -4.000000)" fill="#6F767E">
            <path d="M10.4238901,17.6166973 L18.5069701,12.8619373 C19.1642701,12.4752873 19.1642701,11.5247173 18.5069701,11.1380673 L10.4238901,6.38331732 C9.75726012,5.99117732 8.91687012,6.47183732 8.91687012,7.24524732 L8.91687012,16.7547973 C8.91687012,17.5281973 9.75726012,18.0087973 10.4238901,17.6166973 Z M19.5209701,14.5857973 C21.4929701,13.4258473 21.4929701,10.5741473 19.5209701,9.41419732 L11.4379301,4.65944732 C9.43803012,3.48303532 6.91687012,4.92500232 6.91687012,7.24524732 L6.91687012,16.7547973 C6.91687012,19.0749973 9.43803012,20.5169973 11.4379301,19.3405973 L19.5209701,14.5857973 Z" id="Polygon-2-(Stroke)" transform="translate(13.958407, 12.000000) scale(1, -1) rotate(180.000000) translate(-13.958407, -12.000000) "></path>
            <path d="M4,4 C4.55228,4 5,4.447715 5,5 L5,19 C5,19.5523 4.55228,20 4,20 C3.447715,20 3,19.5523 3,19 L3,5 C3,4.447715 3.447715,4 4,4 Z" id="Vector-599-(Stroke)" transform="translate(4.000000, 12.000000) scale(1, -1) rotate(180.000000) translate(-4.000000, -12.000000) "></path>
        </g>
    </g>
</svg>