<?xml version="1.0" encoding="UTF-8"?>
<svg width="20px" height="18px" viewBox="0 0 20 18" version="1.1" xmlns="http://www.w3.org/2000/svg" xmlns:xlink="http://www.w3.org/1999/xlink">
    <title>UI icon/alarm/filled</title>
    <g id="👀-Icons" stroke="none" stroke-width="1" fill="none" fill-rule="evenodd">
        <g id="编组" transform="translate(-2.000000, -3.000000)" fill="#6F767E">
            <path d="M12,21 C16.4183,21 20,17.4183 20,13 C20,8.58172 16.4183,5 12,5 C7.58172,5 4,8.58172 4,13 C4,17.4183 7.58172,21 12,21 Z M13,9 C13,8.44772 12.55229,8 12,8 C11.44772,8 11,8.44772 11,9 L11,12.58579 C11,13.11622 11.21071,13.62493 11.58579,14 L13.29289,15.7071 C13.68342,16.0976 14.3166,16.0976 14.7071,15.7071 C15.0976,15.3166 15.0976,14.68342 14.7071,14.29289 L13,12.58579 L13,9 Z" id="Subtract"></path>
            <path d="M7.46604995,4.08494063 C7.21612993,3.59352317 6.61217988,3.39398782 6.14542985,3.68741374 C4.75274974,4.56293949 3.57391966,5.73997916 2.69628859,7.13133877 C2.40215657,7.59763863 2.60077668,8.20188846 3.09181562,8.45255839 C3.58284966,8.70321832 4.1796497,8.50452838 4.48310972,8.04423851 C5.15698977,7.0220888 6.03245984,6.14793904 7.05562992,5.47561923 C7.51636995,5.17285932 7.71596997,4.57635949 7.46604995,4.08494063 Z" id="Ellipse-135" fill-rule="nonzero"></path>
            <path d="M21.3326264,4.08494063 C21.0827064,3.59352317 20.4787563,3.39398782 20.0120063,3.68741374 C18.6193262,4.56293949 17.4404961,5.73997916 16.562865,7.13133877 C16.268733,7.59763863 16.4673531,8.20188846 16.9583921,8.45255839 C17.4494261,8.70321832 18.0462261,8.50452838 18.3496862,8.04423851 C19.0235662,7.0220888 19.8990363,6.14793904 20.9222064,5.47561923 C21.3829464,5.17285932 21.5825464,4.57635949 21.3326264,4.08494063 Z" id="Ellipse-136" fill-rule="nonzero" transform="translate(18.933296, 6.056237) scale(1, -1) rotate(180.000000) translate(-18.933296, -6.056237) "></path>
        </g>
    </g>
</svg>