<?xml version="1.0" encoding="UTF-8"?>
<svg width="20px" height="18px" viewBox="0 0 20 18" version="1.1" xmlns="http://www.w3.org/2000/svg" xmlns:xlink="http://www.w3.org/1999/xlink">
    <title>UI icon/alarm/light</title>
    <g id="👀-Icons" stroke="none" stroke-width="1" fill="none" fill-rule="evenodd">
        <g id="编组" transform="translate(-2.000000, -3.000000)" fill="#6F767E">
            <path d="M12,19 C15.3137,19 18,16.3137 18,13 C18,9.68629 15.3137,7 12,7 C8.68629,7 6,9.68629 6,13 C6,16.3137 8.68629,19 12,19 Z M12,21 C16.4183,21 20,17.4183 20,13 C20,8.58172 16.4183,5 12,5 C7.58172,5 4,8.58172 4,13 C4,17.4183 7.58172,21 12,21 Z" id="Ellipse-134-(Stroke)"></path>
            <path d="M7.46604995,4.08494063 C7.21612993,3.59352317 6.61217988,3.39398782 6.14542985,3.68741374 C4.75274974,4.56293949 3.57391966,5.73997916 2.69628859,7.13133877 C2.40215657,7.59763863 2.60077668,8.20188846 3.09181562,8.45255839 C3.58284966,8.70321832 4.1796497,8.50452838 4.48310972,8.04423851 C5.15698977,7.0220888 6.03245984,6.14793904 7.05562992,5.47561923 C7.51636995,5.17285932 7.71596997,4.57635949 7.46604995,4.08494063 Z" id="Ellipse-135" fill-rule="nonzero"></path>
            <path d="M16.5339519,4.08494063 C16.7838731,3.59352317 17.3878204,3.39398782 17.8545716,3.68741374 C19.2472524,4.56293949 20.426083,5.73997916 21.3037134,7.13133877 C21.5978436,7.59763863 21.3992235,8.20188846 20.9081832,8.45255839 C20.417153,8.70321832 19.8203527,8.50452838 19.5168925,8.04423851 C18.8430122,7.0220888 17.9675417,6.14793904 16.9443732,5.47561923 C16.4836255,5.17285932 16.2840308,4.57635949 16.5339519,4.08494063 Z" id="Ellipse-136" fill-rule="nonzero"></path>
            <path d="M12,8 C12.55228,8 13,8.447715 13,9 L13,12.58579 L14.70711,14.29289 C15.09763,14.68342 15.09763,15.31658 14.70711,15.70711 C14.31658,16.09763 13.68342,16.09763 13.29289,15.70711 L11.585786,14 C11.210714,13.62493 11,13.11622 11,12.58579 L11,9 C11,8.447715 11.447715,8 12,8 Z" id="Vector-479-(Stroke)"></path>
        </g>
    </g>
</svg>