<?xml version="1.0" encoding="UTF-8"?>
<svg width="18px" height="14px" viewBox="0 0 18 14" version="1.1" xmlns="http://www.w3.org/2000/svg" xmlns:xlink="http://www.w3.org/1999/xlink">
    <title>UI icon/right_align/filled</title>
    <g id="👀-Icons" stroke="none" stroke-width="1" fill="none" fill-rule="evenodd">
        <g id="编组" transform="translate(-3.000000, -5.000000)" fill="#6F767E">
            <path d="M3,6 C3,5.447715 3.447715,5 4,5 L20,5 C20.5523,5 21,5.447715 21,6 C21,6.55228 20.5523,7 20,7 L4,7 C3.447715,7 3,6.55228 3,6 Z" id="Vector-605-(Stroke)"></path>
            <path d="M9,10 C9,9.447715 9.447715,9 10,9 L20,9 C20.5523,9 21,9.447715 21,10 C21,10.55228 20.5523,11 20,11 L10,11 C9.447715,11 9,10.55228 9,10 Z" id="Vector-606-(Stroke)"></path>
            <path d="M3,14 C3,13.447715 3.447715,13 4,13 L20,13 C20.5523,13 21,13.447715 21,14 C21,14.55228 20.5523,15 20,15 L4,15 C3.447715,15 3,14.55228 3,14 Z" id="Vector-607-(Stroke)"></path>
            <path d="M9,18 C9,17.447715 9.447715,17 10,17 L20,17 C20.5523,17 21,17.447715 21,18 C21,18.55228 20.5523,19 20,19 L10,19 C9.447715,19 9,18.55228 9,18 Z" id="Vector-608-(Stroke)"></path>
        </g>
    </g>
</svg>