<?xml version="1.0" encoding="UTF-8"?>
<svg width="20px" height="20px" viewBox="0 0 20 20" version="1.1" xmlns="http://www.w3.org/2000/svg" xmlns:xlink="http://www.w3.org/1999/xlink">
    <title>UI icon/photos/filled</title>
    <g id="👀-Icons" stroke="none" stroke-width="1" fill="none" fill-rule="evenodd">
        <g id="Union" transform="translate(-2.000000, -2.000000)" fill="#6F767E">
            <path d="M9,2 C7.34315,2 6,3.34315 6,5 L6,6 L5,6 C3.34315,6 2,7.34315 2,9 L2,19 C2,20.6569 3.34315,22 5,22 L15,22 C16.6569,22 18,20.6569 18,19 L18,18 L19,18 C20.6569,18 22,16.6569 22,15 L22,5 C22,3.34315 20.6569,2 19,2 L9,2 Z M16,18 L9.00008,18 C7.34323,18 6,16.6569 6,15 L6,8 L5,8 C4.44772,8 4,8.44772 4,9 L4,19 C4,19.5523 4.44772,20 5,20 L15,20 C15.5523,20 16,19.5523 16,19 L16,18 Z M17.5,8 C18.3284,8 19,7.32843 19,6.5 C19,5.67157 18.3284,5 17.5,5 C16.6716,5 16,5.67157 16,6.5 C16,7.32843 16.6716,8 17.5,8 Z M19.481,15.877 C19.6931,15.7604 19.6787,15.4785 19.5154,15.2999 C18.4834,14.1717 14.8537,10.20395 12.9326,8.10824 C11.90989,6.99253 10.13813,7.03436 9.16919,8.19709 L8.23186,9.32188 C8.0821,9.5016 8.00008,9.72813 8.00008,9.96207 L8.00008,15 C8.00008,15.5523 8.4478,16 9.00008,16 L19.0001,16 C19.1744,16 19.3383,15.9554 19.481,15.877 Z"></path>
        </g>
    </g>
</svg>