<?xml version="1.0" encoding="UTF-8"?>
<svg width="20px" height="20px" viewBox="0 0 20 20" version="1.1" xmlns="http://www.w3.org/2000/svg" xmlns:xlink="http://www.w3.org/1999/xlink">
    <title>UI icon/photos/light</title>
    <g id="👀-Icons" stroke="none" stroke-width="1" fill="none" fill-rule="evenodd">
        <g id="编组" transform="translate(-2.000000, -2.000000)" fill="#6F767E">
            <path d="M6,6 L5,6 C3.34315,6 2,7.34315 2,9 L2,19 C2,20.6569 3.34315,22 5,22 L15,22 C16.6569,22 18,20.6569 18,19 L18,18 L16,18 L16,19 C16,19.5523 15.5523,20 15,20 L5,20 C4.44772,20 4,19.5523 4,19 L4,9 C4,8.44772 4.44772,8 5,8 L6,8 L6,6 Z" id="Subtract" fill-rule="nonzero"></path>
            <path d="M6,5 C6,3.34315 7.34315,2 9,2 L19,2 C20.6569,2 22,3.34315 22,5 L22,15 C22,16.6569 20.6569,18 19,18 L9,18 C7.34315,18 6,16.6569 6,15 L6,5 Z M9,4 L19,4 C19.5523,4 20,4.44772 20,5 L20,15 C20,15.2279 19.9238,15.438 19.7954,15.6061 C19.7648,15.5654 19.7316,15.5254 19.6959,15.4864 L13.31905,8.52987 C12.09177,7.19102 9.96566,7.24121 8.80293,8.63649 L8,9.6 L8,5 C8,4.44772 8.44772,4 9,4 Z M8,12.7241 L8,15 C8,15.5523 8.44772,16 9,16 L17.4535,16 L11.84474,9.88132 C11.43564,9.43503 10.72694,9.45177 10.33937,9.91686 L8,12.7241 Z" id="Union"></path>
            <path d="M18,7.5 C18,8.32843 17.32843,9 16.5,9 C15.67157,9 15,8.32843 15,7.5 C15,6.67157 15.67157,6 16.5,6 C17.32843,6 18,6.67157 18,7.5 Z" id="Ellipse-133" fill-rule="nonzero"></path>
        </g>
    </g>
</svg>