<?xml version="1.0" encoding="UTF-8"?>
<svg width="20px" height="18px" viewBox="0 0 20 18" version="1.1" xmlns="http://www.w3.org/2000/svg" xmlns:xlink="http://www.w3.org/1999/xlink">
    <title>UI icon/safe/filled</title>
    <g id="👀-Icons" stroke="none" stroke-width="1" fill="none" fill-rule="evenodd">
        <g id="编组" transform="translate(-2.000000, -3.000000)" fill="#6F767E">
            <g id="Union" transform="translate(2.000000, 3.000000)">
                <path d="M14,8 C14,8.55228 13.5523,9 13,9 C12.4477,9 12,8.55228 12,8 C12,7.44772 12.4477,7 13,7 C13.5523,7 14,7.44772 14,8 Z" id="9EA77B2D-A2A9-4A80-877E-FCB51D18A539" fill-rule="nonzero"></path>
                <path d="M3,0 C1.34315,0 0,1.34315 0,3 L0,13 C0,14.3062 0.834808,15.4175 2,15.8293 L2,16 C2,17.1046 2.89543,18 4,18 C5.10457,18 6,17.1046 6,16 L14,16 C14,17.1046 14.8954,18 16,18 C17.1046,18 18,17.1046 18,16 L18,15.8293 C19.1652,15.4175 20,14.3062 20,13 L20,3 C20,1.34315 18.6569,0 17,0 L3,0 Z M5,6 C5,5.44771 4.55228,5 4,5 C3.44772,5 3,5.44771 3,6 L3,10 C3,10.5523 3.44772,11 4,11 C4.55228,11 5,10.5523 5,10 L5,6 Z M9.29299,11.707 C8.90246,11.3165 8.90246,10.6833 9.29299,10.2928 L10.2924,9.29334 C10.105,8.90173 10.0001,8.46313 10.0001,8.00003 C10.0001,7.53694 10.105,7.09836 10.2924,6.70676 L9.29289,5.70726 C8.90237,5.31673 8.90237,4.68357 9.29289,4.29304 C9.68342,3.90252 10.3166,3.90252 10.7071,4.29304 L11.7065,5.29247 C12.0982,5.10501 12.5369,5.00003 13.0001,5.00003 C13.4632,5.00003 13.9018,5.10496 14.2934,5.29235 L15.2929,4.29289 C15.6834,3.90237 16.3166,3.90237 16.7071,4.29289 C17.0976,4.68342 17.0976,5.31658 16.7071,5.70711 L15.7077,6.70651 C15.8951,7.09817 16.0001,7.53684 16.0001,8.00003 C16.0001,8.46323 15.8951,8.90192 15.7077,9.29359 L16.707,10.2929 C17.0975,10.6834 17.0975,11.3166 16.707,11.7071 C16.3165,12.0977 15.6833,12.0977 15.2928,11.7071 L14.2934,10.7077 C13.9018,10.8951 13.4632,11 13.0001,11 C12.5369,11 12.0982,10.8951 11.7066,10.7076 L10.7072,11.707 C10.3167,12.0975 9.68351,12.0975 9.29299,11.707 Z" id="BB533CFC-A9FF-4296-B040-5B9CACF81BA9"></path>
            </g>
        </g>
    </g>
</svg>