<?xml version="1.0" encoding="UTF-8"?>
<svg width="20px" height="18px" viewBox="0 0 20 18" version="1.1" xmlns="http://www.w3.org/2000/svg" xmlns:xlink="http://www.w3.org/1999/xlink">
    <title>UI icon/safe/light</title>
    <g id="👀-Icons" stroke="none" stroke-width="1" fill="none" fill-rule="evenodd">
        <g id="编组" transform="translate(-2.000000, -3.000000)" fill="#6F767E">
            <path d="M7,8 C7.55228,8 8,8.447715 8,9 L8,13 C8,13.55228 7.55228,14 7,14 C6.447715,14 6,13.55228 6,13 L6,9 C6,8.447715 6.447715,8 7,8 Z" id="Vector-86-(Stroke)"></path>
            <path d="M20,18.8293 C21.1652,18.4175 22,17.3062 22,16 L22,6 C22,4.34315 20.6569,3 19,3 L5,3 C3.34315,3 2,4.34315 2,6 L2,16 C2,17.3062 2.834808,18.4175 4,18.8293 L4,19 C4,20.1046 4.89543,21 6,21 C7.10457,21 8,20.1046 8,19 L16,19 C16,20.1046 16.8954,21 18,21 C19.1046,21 20,20.1046 20,19 L20,18.8293 Z M19,5 L5,5 C4.44772,5 4,5.44772 4,6 L4,16 C4,16.5523 4.44772,17 5,17 L19,17 C19.5523,17 20,16.5523 20,16 L20,6 C20,5.44771 19.5523,5 19,5 Z" id="Union"></path>
            <path d="M10.2929548,14.70698 C9.90243005,14.31646 9.90243005,13.6833 10.2929538,13.29277 L11.2923499,12.29337 C11.1049499,11.90175 11,11.46313 11,11 C11,10.53689 11.1049399,10.09828 11.2923298,9.70667004 L10.2928928,8.70723004 C9.90236905,8.31670004 9.90236905,7.68354004 10.2928928,7.29301504 C10.6834178,6.90249114 11.3165799,6.90249114 11.7071099,7.29301504 L12.7064999,8.29241004 C13.0981599,8.10497004 13.5368199,8 14,8 C14.4631298,8 14.9017498,8.10494004 15.2933699,8.29235004 L16.2928299,7.29289304 C16.6833599,6.90236884 17.3165198,6.90236914 17.7070399,7.29289304 C18.0975698,7.68341804 18.0975698,8.31658004 17.7070399,8.70711004 L16.7076099,9.70654004 C16.8950398,10.09819 17,10.53684 17,11 C17,11.46318 16.8950299,11.90184 16.7075898,12.2935 L17.7069798,13.29289 C18.0975099,13.68342 18.0975099,14.31658 17.7069798,14.70711 C17.3164599,15.09763 16.6832999,15.09763 16.2927698,14.70711 L15.2933298,13.70767 C14.9017198,13.89506 14.4631099,14 14,14 C13.5368398,14 13.0981899,13.89504 12.7065399,13.70761 L11.7071698,14.70698 C11.3166398,15.09751 10.6834789,15.09751 10.2929548,14.70698 Z M13.9999999,10 C13.4477199,10 12.9999999,10.44772 12.9999999,11 C12.9999999,11.55228 13.4477199,12 13.9999999,12 C14.5522899,12 14.9999999,11.55228 14.9999999,11 C14.9999999,10.44772 14.5522899,10 13.9999999,10 Z" id="Union"></path>
        </g>
    </g>
</svg>