<?xml version="1.0" encoding="UTF-8"?>
<svg width="20px" height="20px" viewBox="0 0 20 20" version="1.1" xmlns="http://www.w3.org/2000/svg" xmlns:xlink="http://www.w3.org/1999/xlink">
    <title>UI icon/hide/filled</title>
    <g id="👀-Icons" stroke="none" stroke-width="1" fill="none" fill-rule="evenodd">
        <g id="编组" transform="translate(-2.000000, -2.000000)" fill="#6F767E">
            <g id="Subtract" transform="translate(2.285156, 5.000000)" fill-rule="nonzero">
                <path d="M5.21588,1.08517 C2.70033,2.38362 1.10797,4.54721 0.3167,5.86664 C-0.105566,6.57076 -0.105567,7.42924 0.316699,8.13336 C1.50498,10.1148 4.49989,14 9.71491,14 C12.3276,14 14.383,13.0249 15.9332,11.8025 L12.4231,8.29234 C11.9402,9.30232 10.909,10 9.71491,10 C8.05805,10 6.71491,8.65685 6.71491,7 C6.71491,5.80587 7.41259,4.77469 8.42257,4.29186 L5.21588,1.08517 Z" id="1BBBC35C-0638-4BCE-9656-E81B3CE16FBF"></path>
                <path d="M17.3971,10.438 C18.1643,9.60127 18.7318,8.76927 19.1131,8.13336 C19.5354,7.42924 19.5354,6.57076 19.1131,5.86664 C17.9248,3.88521 14.9299,0 9.71491,0 C8.83511,0 8.01849,0.110579 7.26308,0.303941 L17.3971,10.438 Z" id="508FA7B9-8148-43F6-9E16-47F4DF5726B7"></path>
            </g>
            <path d="M2.29289344,2.29289344 C2.68341793,1.90236885 3.31658172,1.90236885 3.7071122,2.29289344 L21.7071246,20.2929229 C22.0976251,20.6834234 22.0976251,21.3166241 21.7071246,21.7071246 C21.3166241,22.0976251 20.6834234,22.0976251 20.2929229,21.7071246 L2.29289344,3.7071122 C1.90236885,3.31658172 1.90236885,2.68341793 2.29289344,2.29289344 Z" id="Vector-606-(Stroke)"></path>
        </g>
    </g>
</svg>