<?xml version="1.0" encoding="UTF-8"?>
<svg width="20px" height="20px" viewBox="0 0 20 20" version="1.1" xmlns="http://www.w3.org/2000/svg" xmlns:xlink="http://www.w3.org/1999/xlink">
    <title>UI icon/hide/light</title>
    <g id="👀-Icons" stroke="none" stroke-width="1" fill="none" fill-rule="evenodd">
        <g id="编组" transform="translate(-2.000000, -2.000000)" fill="#6F767E">
            <path d="M10.70766,9.29185677 C9.697684,9.77468977 9,10.8058668 9,11.9999968 C9,13.6568568 10.34315,14.9999968 12,14.9999968 C13.19413,14.9999968 14.22531,14.3023168 14.70814,13.2923368 L10.70766,9.29185677 Z M13,11.9999968 C13,12.5522868 12.55228,12.9999968 12,12.9999968 C11.44772,12.9999968 11,12.5522868 11,11.9999968 C11,11.4477168 11.44772,10.9999968 12,10.9999968 C12.55228,10.9999968 13,11.4477168 13,11.9999968 Z" id="Subtract"></path>
            <g id="Subtract" transform="translate(2.285095, 5.000000)" fill-rule="nonzero">
                <path d="M5.21588,1.08517 C2.70033,2.38362 1.10797,4.54721 0.3167,5.86664 C-0.105566,6.57076 -0.105567,7.42924 0.316699,8.13336 C1.50498,10.1148 4.49989,14 9.71491,14 C12.3276,14 14.383,13.0249 15.9332,11.8025 L14.5067,10.376 C13.2627,11.3033 11.6748,12 9.71491,12 C5.60286,12 3.12833,8.933 2.03191,7.10473 C2.00686,7.06296 2,7.02778 2,7 C2,6.97222 2.00686,6.93704 2.03191,6.89527 C2.83067,5.56335 4.36083,3.57399 6.72271,2.592 L5.21588,1.08517 Z" id="24EBB01D-D498-490C-AC5D-868E998C1303"></path>
                <path d="M15.9826,9.02347 C16.5905,8.35027 17.0598,7.66859 17.3979,7.10473 C17.423,7.06296 17.4298,7.02778 17.4298,7 C17.4298,6.97222 17.423,6.93704 17.3979,6.89527 C16.3015,5.067 13.827,2 9.71491,2 C9.46785,2 9.22671,2.01107 8.99142,2.03228 L7.26308,0.303941 C8.01849,0.110579 8.83511,0 9.71491,0 C14.9299,0 17.9248,3.88521 19.1131,5.86664 C19.5354,6.57076 19.5354,7.42924 19.1131,8.13336 C18.7318,8.76927 18.1643,9.60127 17.3971,10.438 L15.9826,9.02347 Z" id="582EA2BE-9302-411F-8B09-D055A7BD1112"></path>
            </g>
            <path d="M2.29289344,2.29289344 C2.68341793,1.90236885 3.31658172,1.90236885 3.7071122,2.29289344 L21.7071246,20.2929229 C22.0976251,20.6834234 22.0976251,21.3166241 21.7071246,21.7071246 C21.3166241,22.0976251 20.6834234,22.0976251 20.2929229,21.7071246 L2.29289344,3.7071122 C1.90236885,3.31658172 1.90236885,2.68341793 2.29289344,2.29289344 Z" id="Vector-606-(Stroke)"></path>
        </g>
    </g>
</svg>