<?xml version="1.0" encoding="UTF-8"?>
<svg width="20px" height="14px" viewBox="0 0 20 14" version="1.1" xmlns="http://www.w3.org/2000/svg" xmlns:xlink="http://www.w3.org/1999/xlink">
    <title>UI icon/show/filled</title>
    <g id="👀-Icons" stroke="none" stroke-width="1" fill="none" fill-rule="evenodd">
        <g id="Subtract" transform="translate(-2.000000, -5.000000)" fill="#6F767E">
            <path d="M21.3981907,13.13336 C20.2098907,15.1148 17.2149907,19 12.0000007,19 C6.78498068,19 3.79007068,15.1148 2.60178968,13.13336 C2.17952368,12.42924 2.17952468,11.57076 2.60179068,10.86664 C3.79007068,8.88521 6.78498068,5 12.0000007,5 C17.2149907,5 20.2098907,8.88521 21.3981907,10.86664 C21.8204907,11.57076 21.8204907,12.42924 21.3981907,13.13336 Z M12.0000007,15 C13.6568907,15 15.0000007,13.65685 15.0000007,12 C15.0000007,10.34315 13.6568907,9 12.0000007,9 C10.3431407,9 9.00000068,10.34315 9.00000068,12 C9.00000068,13.65685 10.3431407,15 12.0000007,15 Z"></path>
        </g>
    </g>
</svg>