<?xml version="1.0" encoding="UTF-8"?>
<svg width="20px" height="14px" viewBox="0 0 20 14" version="1.1" xmlns="http://www.w3.org/2000/svg" xmlns:xlink="http://www.w3.org/1999/xlink">
    <title>UI icon/show/light</title>
    <g id="👀-Icons" stroke="none" stroke-width="1" fill="none" fill-rule="evenodd">
        <g id="编组" transform="translate(-2.000000, -5.000000)" fill="#6F767E">
            <path d="M12.0000007,17 C16.1120907,17 18.5865907,13.933 19.6829907,12.10473 C19.7080907,12.06296 19.7148907,12.02778 19.7148907,12 C19.7148907,11.97222 19.7080907,11.93704 19.6829907,11.89527 C18.5865907,10.067 16.1120907,7 12.0000007,7 C7.88795068,7 5.41343068,10.067 4.31700068,11.89527 C4.29195068,11.93704 4.28509068,11.97222 4.28509068,12 C4.28509068,12.02778 4.29195068,12.06296 4.31700068,12.10473 C5.41342068,13.933 7.88795068,17 12.0000007,17 Z M21.3981907,13.13336 C20.2098907,15.1148 17.2149907,19 12.0000007,19 C6.78498068,19 3.79007068,15.1148 2.60178968,13.13336 C2.17952368,12.42924 2.17952468,11.57076 2.60179068,10.86664 C3.79007068,8.88521 6.78498068,5 12.0000007,5 C17.2149907,5 20.2098907,8.88521 21.3981907,10.86664 C21.8204907,11.57076 21.8204907,12.42924 21.3981907,13.13336 Z" id="Oval-(Stroke)"></path>
            <path d="M12,13 C12.55228,13 13,12.55228 13,12 C13,11.44772 12.55228,11 12,11 C11.44772,11 11,11.44772 11,12 C11,12.55228 11.44772,13 12,13 Z M12,15 C13.65685,15 15,13.65685 15,12 C15,10.34315 13.65685,9 12,9 C10.34315,9 9,10.34315 9,12 C9,13.65685 10.34315,15 12,15 Z" id="Ellipse-138-(Stroke)"></path>
        </g>
    </g>
</svg>