<?xml version="1.0" encoding="UTF-8"?>
<svg width="14px" height="21px" viewBox="0 0 14 21" version="1.1" xmlns="http://www.w3.org/2000/svg" xmlns:xlink="http://www.w3.org/1999/xlink">
    <title>UI icon/flashlight/filled</title>
    <g id="👀-Icons" stroke="none" stroke-width="1" fill="none" fill-rule="evenodd">
        <g id="编组" transform="translate(-5.000000, -1.000000)" fill="#6F767E">
            <path d="M7.81235,11.84988 C7.93095,11.94476 8,12.08842 8,12.24031 L8,19 C8,20.6569 9.34315,22 11,22 L13,22 C14.65685,22 16,20.6569 16,19 L16,12.24031 C16,12.08842 16.069,11.94476 16.1877,11.84988 L17.7494,10.60049 C18.2238,10.22094 18.5,9.64632 18.5,9.03875 L18.5,8 C18.5,7.447715 18.0523,7 17.5,7 L6.5,7 C5.947715,7 5.5,7.447715 5.5,8 L5.5,9.03875 C5.5,9.64632 5.77618,10.22094 6.25061,10.60049 L7.81235,11.84988 Z M13,14 C13,13.44772 12.55228,13 12,13 C11.44772,13 11,13.44772 11,14 L11,16 C11,16.55228 11.44772,17 12,17 C12.55228,17 13,16.55228 13,16 L13,14 Z" id="Subtract"></path>
            <path d="M12,1.5 C12.55228,1.5 13,1.947715 13,2.5 L13,3.5 C13,4.05228 12.55228,4.5 12,4.5 C11.447715,4.5 11,4.05228 11,3.5 L11,2.5 C11,1.947715 11.447715,1.5 12,1.5 Z" id="Vector-654-(Stroke)"></path>
            <path d="M6.05276004,2.60579169 C6.5467345,2.35880292 7.14741385,2.55902673 7.39440358,3.05300429 L7.89440303,4.05300837 C8.14139276,4.54697792 7.94116298,5.14765738 7.44718352,5.39464715 C6.95320406,5.64163693 6.35253572,5.44140711 6.10554699,4.94742756 L5.60554753,3.94742847 C5.3585588,3.45345292 5.55878258,2.85278047 6.05276004,2.60579169 Z" id="Vector-655-(Stroke)"></path>
            <path d="M17.9471835,2.60579169 C18.441163,2.85278047 18.6413928,3.45345292 18.394403,3.94742847 L17.8944036,4.94742756 C17.6474138,5.44140711 17.0467345,5.64163693 16.55276,5.39464715 C16.0587826,5.14765738 15.8585588,4.54697792 16.1055475,4.05300837 L16.605547,3.05300429 C16.8525357,2.55902673 17.4532041,2.35880292 17.9471835,2.60579169 Z" id="Vector-656-(Stroke)"></path>
        </g>
    </g>
</svg>