<?xml version="1.0" encoding="UTF-8"?>
<svg width="16px" height="21px" viewBox="0 0 16 21" version="1.1" xmlns="http://www.w3.org/2000/svg" xmlns:xlink="http://www.w3.org/1999/xlink">
    <title>UI icon/flashlight/light</title>
    <g id="👀-Icons" stroke="none" stroke-width="1" fill="none" fill-rule="evenodd">
        <g id="编组" transform="translate(-4.000000, -1.000000)" fill="#6F767E">
            <path d="M8.1094,10.3359 C8.6658,10.70683 9,11.33129 9,12 L9,19 C9,19.5523 9.44772,20 10,20 L14,20 C14.5523,20 15,19.5523 15,19 L15,12 C15,11.33129 15.3342,10.70683 15.8906,10.3359 L17.5547,9.2265 C17.8329,9.04103 18,8.7288 18,8.39445 L18,8 L6,8 L6,8.39445 C6,8.7288 6.1671,9.04103 6.4453,9.2265 L8.1094,10.3359 Z M7,12 L5.3359,10.8906 C4.501303,10.3342 4,9.39751 4,8.39445 L4,7 C4,6.447715 4.447715,6 5,6 L19,6 C19.5523,6 20,6.447715 20,7 L20,8.39445 C20,9.39751 19.4987,10.3342 18.6641,10.8906 L17,12 L17,19 C17,20.6569 15.6569,22 14,22 L10,22 C8.34315,22 7,20.6569 7,19 L7,12 Z" id="Rectangle-188-(Stroke)"></path>
            <path d="M12,13 C12.55228,13 13,13.447715 13,14 L13,16 C13,16.55228 12.55228,17 12,17 C11.447715,17 11,16.55228 11,16 L11,14 C11,13.447715 11.447715,13 12,13 Z" id="Vector-653-(Stroke)"></path>
            <path d="M12,1 C12.55228,1 13,1.447715 13,2 L13,3 C13,3.55228 12.55228,4 12,4 C11.447715,4 11,3.55228 11,3 L11,2 C11,1.447715 11.447715,1 12,1 Z" id="Vector-654-(Stroke)"></path>
            <path d="M7.05278532,2.10557259 C7.54675978,1.85858381 8.14743912,2.05880763 8.39442885,2.55278518 L8.8944283,3.55278927 C9.14141803,4.04675882 8.94118825,4.64743827 8.44720879,4.89442805 C7.95322933,5.14141782 7.35256099,4.941188 7.10557226,4.44720845 L6.6055728,3.44720936 C6.35858407,2.95323381 6.55880786,2.35256136 7.05278532,2.10557259 Z" id="Vector-655-(Stroke)"></path>
            <path d="M16.9472083,2.10557259 C17.4411878,2.35256136 17.6414176,2.95323381 17.3944278,3.44720936 L16.8944284,4.44720845 C16.6474386,4.941188 16.0467593,5.14141782 15.5527848,4.89442805 C15.0588074,4.64743827 14.8585836,4.04675882 15.1055723,3.55278927 L15.6055718,2.55278518 C15.8525605,2.05880763 16.4532289,1.85858381 16.9472083,2.10557259 Z" id="Vector-656-(Stroke)"></path>
        </g>
    </g>
</svg>