<?xml version="1.0" encoding="UTF-8"?>
<svg width="20px" height="12px" viewBox="0 0 20 12" version="1.1" xmlns="http://www.w3.org/2000/svg" xmlns:xlink="http://www.w3.org/1999/xlink">
    <title>UI icon/key/filled</title>
    <g id="👀-Icons" stroke="none" stroke-width="1" fill="none" fill-rule="evenodd">
        <g id="Subtract" transform="translate(-2.000000, -6.000000)" fill="#6F767E">
            <path d="M16.0000626,18 C19.3137626,18 22.0000626,15.31371 22.0000626,12 C22.0000626,8.68629 19.3137626,6 16.0000626,6 C13.7791626,6 11.8401426,7.2066 10.8027126,9 L5.41300259,9 C5.14771259,9 4.89329259,9.10542 4.70574259,9.29305 L2.70679759,11.29289 C2.31641969,11.68344 2.31649359,12.31649 2.70696259,12.70695 L4.70717259,14.70711 C4.89470259,14.89465 5.14905259,15 5.41427259,15 L10.8027126,15 C11.8401426,16.7934 13.7791626,18 16.0000626,18 Z M17.9999626,12 C17.9999626,13.10457 17.1045626,14 15.9999626,14 C14.8954626,14 13.9999626,13.10457 13.9999626,12 C13.9999626,10.89543 14.8954626,10 15.9999626,10 C17.1045626,10 17.9999626,10.89543 17.9999626,12 Z"></path>
        </g>
    </g>
</svg>