<?xml version="1.0" encoding="UTF-8"?>
<svg width="20px" height="12px" viewBox="0 0 20 12" version="1.1" xmlns="http://www.w3.org/2000/svg" xmlns:xlink="http://www.w3.org/1999/xlink">
    <title>UI icon/key/light</title>
    <g id="👀-Icons" stroke="none" stroke-width="1" fill="none" fill-rule="evenodd">
        <g id="编组" transform="translate(-2.000000, -6.000000)" stroke="#6F767E" stroke-width="2">
            <g>
                <path d="M16.000012,7 C17.3807177,7 18.6307149,7.55964477 19.5355354,8.46446724 C20.4403553,9.36928906 20.9999993,10.6192884 20.9999993,12 C20.9999993,13.3807116 20.4403553,14.6307109 19.5355354,15.5355328 C18.6307149,16.4403552 17.3807177,17 16.000012,17 C13.9495077,17 12.1875987,15.7656354 11.4157119,14.0000006 L11.4157119,14.0000006 L5.41424472,13.9999951 L3.41404105,11.9998377 L5.41297432,10.0000052 L11.4157116,10 C12.1875983,8.23436485 13.9495075,7 16.000012,7 L16.000012,7 Z" id="Union" fill-rule="nonzero"></path>
                <path d="M16,11 C16.2761424,11 16.5261424,11.1119288 16.7071067,11.2928932 C16.8880712,11.4738576 17,11.7238577 17,12 C17,12.2761425 16.8880714,12.5261426 16.707107,12.707107 C16.5261426,12.8880714 16.2761425,13 16,13 C15.7238577,13 15.4738576,12.8880712 15.2928932,12.7071067 C15.1119288,12.5261424 15,12.2761424 15,12 C15,11.7238577 15.111929,11.4738578 15.2928934,11.2928934 C15.4738578,11.111929 15.7238578,11 16,11 Z" id="Oval"></path>
            </g>
        </g>
    </g>
</svg>