<?xml version="1.0" encoding="UTF-8"?>
<svg width="20px" height="20px" viewBox="0 0 20 20" version="1.1" xmlns="http://www.w3.org/2000/svg" xmlns:xlink="http://www.w3.org/1999/xlink">
    <title>UI icon/fuel/filled</title>
    <g id="👀-Icons" stroke="none" stroke-width="1" fill="none" fill-rule="evenodd">
        <g id="Subtract" transform="translate(-2.000000, -2.000000)" fill="#6F767E">
            <path d="M7,2 C5.34315,2 4,3.34315 4,5 L4,20 L3,20 C2.447715,20 2,20.4477 2,21 C2,21.5523 2.447715,22 3,22 L17,22 C17.5523,22 18,21.5523 18,21 C18,20.4477 17.5523,20 17,20 L16,20 L16,14 C16.5523,14 17,14.4477 17,15 L17,16.5 C17,17.8807 18.1193,19 19.5,19 C20.8807,19 22,17.8807 22,16.5 L22,8.41421 C22,7.88378 21.7893,7.37507 21.4142,7 L19.7071,5.29289 C19.3166,4.90237 18.6834,4.90237 18.2929,5.29289 C17.9024,5.68342 17.9024,6.31658 18.2929,6.70711 L19,7.41421 L19,8.58579 C19,9.11622 19.2107,9.62493 19.5858,10 L20,10.41421 L20,16.5 C20,16.7761 19.7761,17 19.5,17 C19.2239,17 19,16.7761 19,16.5 L19,15 C19,13.3431 17.6569,12 16,12 L16,5 C16,3.34315 14.6569,2 13,2 L7,2 Z M7,4 C6.44772,4 6,4.44772 6,5 L6,9 C6,9.55228 6.44772,10 7,10 L13,10 C13.5523,10 14,9.55228 14,9 L14,5 C14,4.44772 13.5523,4 13,4 L7,4 Z"></path>
        </g>
    </g>
</svg>