<?xml version="1.0" encoding="UTF-8"?>
<svg width="20px" height="20px" viewBox="0 0 20 20" version="1.1" xmlns="http://www.w3.org/2000/svg" xmlns:xlink="http://www.w3.org/1999/xlink">
    <title>UI icon/fuel/light</title>
    <g id="👀-Icons" stroke="none" stroke-width="1" fill="none" fill-rule="evenodd">
        <g id="Union" transform="translate(-2.000000, -2.000000)" fill="#6F767E">
            <path d="M4,20 L4,5 C4,3.34315 5.34315,2 7,2 L13,2 C14.6569,2 16,3.34315 16,5 L16,12 C17.6569,12 19,13.3431 19,15 L19,16.5 C19,16.7761 19.2239,17 19.5,17 C19.7761,17 20,16.7761 20,16.5 L20,10.41421 L19.5858,10 C19.2107,9.62493 19,9.11622 19,8.58579 L19,7.41421 L18.2929,6.70711 C17.9024,6.31658 17.9024,5.68342 18.2929,5.29289 C18.6834,4.90237 19.3166,4.90237 19.7071,5.29289 L21.4142,7 C21.7893,7.37507 22,7.88378 22,8.41421 L22,16.5 C22,17.8807 20.8807,19 19.5,19 C18.1193,19 17,17.8807 17,16.5 L17,15 C17,14.4477 16.5523,14 16,14 L16,20 L17,20 C17.5523,20 18,20.4477 18,21 C18,21.5523 17.5523,22 17,22 L3,22 C2.447715,22 2,21.5523 2,21 C2,20.4477 2.447715,20 3,20 L4,20 Z M7,4 L13,4 C13.5523,4 14,4.44772 14,5 L14,9 L6,9 L6,5 C6,4.44772 6.44771,4 7,4 Z M6,11 L6,20 L14,20 L14,11 L6,11 Z"></path>
        </g>
    </g>
</svg>