<?xml version="1.0" encoding="UTF-8"?>
<svg width="18px" height="22px" viewBox="0 0 18 22" version="1.1" xmlns="http://www.w3.org/2000/svg" xmlns:xlink="http://www.w3.org/1999/xlink">
    <title>UI icon/shield_check/filled</title>
    <g id="👀-Icons" stroke="none" stroke-width="1" fill="none" fill-rule="evenodd">
        <g id="Subtract" transform="translate(-3.000000, -1.000000)" fill="#6F767E">
            <path d="M5.05132,3.81624251 C3.82629,4.22458251 3,5.37100251 3,6.66229248 L3,11.9999925 C3,17.5019925 8.56019,20.8417925 10.93993,22.0191925 C11.61252,22.3518925 12.38748,22.3518925 13.0601,22.0191925 C15.4398,20.8417925 21,17.5019925 21,11.9999925 L21,6.66229248 C21,5.37100251 20.1737,4.22458251 18.9487,3.81624251 L12.94868,1.81624251 C12.33288,1.61097551 11.66711,1.61097611 11.05131,1.81624251 L5.05132,3.81624251 Z M15.7071,10.7071025 C16.0976,10.3165825 16.0976,9.68341251 15.7071,9.29289251 C15.3166,8.90237251 14.6834,8.90237251 14.2929,9.29289251 L11,12.5857925 L9.70711,11.2928925 C9.31658,10.9023725 8.68342,10.9023725 8.29289,11.2928925 C7.90237,11.6833925 7.90237,12.3165925 8.29289,12.7070925 L9.72721,14.1413925 C10.43015,14.8443925 11.56985,14.8443925 12.27279,14.1413925 L15.7071,10.7071025 Z"></path>
        </g>
    </g>
</svg>