<?xml version="1.0" encoding="UTF-8"?>
<svg width="22px" height="22px" viewBox="0 0 22 22" version="1.1" xmlns="http://www.w3.org/2000/svg" xmlns:xlink="http://www.w3.org/1999/xlink">
    <title>UI icon/slack/filled</title>
    <g id="👀-Icons" stroke="none" stroke-width="1" fill="none" fill-rule="evenodd">
        <g id="编组" transform="translate(-1.000000, -1.000000)" fill="#6F767E" fill-rule="nonzero">
            <g id="Union" transform="translate(1.500000, 1.500000)">
                <path d="M6,2 C6,0.895431 6.89543,0 8,0 C9.10457,0 10,0.895431 10,2 L10,3.5 C10,3.77614 9.77614,4 9.5,4 L8,4 C6.89543,4 6,3.10457 6,2 Z" id="86FB8769-85A1-4522-A33F-5B65E81A7AE2"></path>
                <path d="M2.5,5 C1.11929,5 0,6.11929 0,7.5 C0,8.88071 1.11929,10 2.5,10 L7.5,10 C8.88071,10 10,8.88071 10,7.5 C10,6.11929 8.88071,5 7.5,5 L2.5,5 Z" id="E40CD5BF-A54B-4D1F-AA75-B8878D6B53E9"></path>
                <path d="M21,13.5 C21,14.8807 19.8807,16 18.5,16 L13.5,16 C12.1193,16 11,14.8807 11,13.5 C11,12.1193 12.1193,11 13.5,11 L18.5,11 C19.8807,11 21,12.1193 21,13.5 Z" id="4BFAACE4-B6DF-434D-B14F-97FF50ED04B4"></path>
                <path d="M15,19 C15,20.1046 14.1046,21 13,21 C11.8954,21 11,20.1046 11,19 L11,17.5 C11,17.2239 11.2239,17 11.5,17 L13,17 C14.1046,17 15,17.8954 15,19 Z" id="A3439D20-ACEE-44FD-82B8-95B7935DF03C"></path>
                <path d="M7.5,21 C6.11929,21 5,19.8807 5,18.5 L5,13.5 C5,12.1193 6.11929,11 7.5,11 C8.88071,11 10,12.1193 10,13.5 L10,18.5 C10,19.8807 8.88071,21 7.5,21 Z" id="5C09223F-1765-441B-84F5-55B7CB88918F"></path>
                <path d="M2,15 C0.895431,15 0,14.1046 0,13 C0,11.8954 0.895431,11 2,11 L3.5,11 C3.77614,11 4,11.2239 4,11.5 L4,13 C4,14.1046 3.10457,15 2,15 Z" id="280295B6-7FBE-4C78-B9BC-D64C70168A51"></path>
                <path d="M13.5,0 C14.8807,0 16,1.11929 16,2.5 L16,7.5 C16,8.88071 14.8807,10 13.5,10 C12.1193,10 11,8.88071 11,7.5 L11,2.5 C11,1.11929 12.1193,0 13.5,0 Z" id="F0E54DFE-E5A6-424B-8C64-BA47EA5F46BC"></path>
                <path d="M19,6 C20.1046,6 21,6.89543 21,8 C21,9.10457 20.1046,10 19,10 L17.5,10 C17.2239,10 17,9.77614 17,9.5 L17,8 C17,6.89543 17.8954,6 19,6 Z" id="AC5FFB44-928D-41E3-B9A5-B25511E627B4"></path>
            </g>
        </g>
    </g>
</svg>