<?xml version="1.0" encoding="UTF-8"?>
<svg width="22px" height="22px" viewBox="0 0 22 22" version="1.1" xmlns="http://www.w3.org/2000/svg" xmlns:xlink="http://www.w3.org/1999/xlink">
    <title>UI icon/slack/light</title>
    <g id="👀-Icons" stroke="none" stroke-width="1" fill="none" fill-rule="evenodd">
        <g id="编组" transform="translate(-1.000000, -1.000000)" fill="#6F767E">
            <path d="M9,8.50000048 L4,8.50000048 C3.72386,8.50000048 3.5,8.72386048 3.5,9.00000048 C3.5,9.27614048 3.72386,9.50000048 4,9.50000048 L9,9.50000048 C9.27614,9.50000048 9.5,9.27614048 9.5,9.00000048 C9.5,8.72386048 9.27614,8.50000048 9,8.50000048 Z M4,6.50000048 C2.61929,6.50000048 1.5,7.61929048 1.5,9.00000048 C1.5,10.3807105 2.61929,11.5000005 4,11.5000005 L9,11.5000005 C10.38071,11.5000005 11.5,10.3807105 11.5,9.00000048 C11.5,7.61929048 10.38071,6.50000048 9,6.50000048 L4,6.50000048 Z" id="Rectangle-275-(Stroke)"></path>
            <path d="M9.5,1.50000048 C8.395431,1.50000048 7.5,2.39543148 7.5,3.50000048 C7.5,4.60457048 8.395431,5.50000048 9.5,5.50000048 L10.5,5.50000048 C11.05228,5.50000048 11.5,5.05228048 11.5,4.50000048 L11.5,3.50000048 C11.5,2.39543148 10.60457,1.50000048 9.5,1.50000048 Z" id="Rectangle-276-(Stroke)"></path>
            <path d="M20.0000002,14.4999996 L15.0000002,14.4999996 C14.7238602,14.4999996 14.5000002,14.7238596 14.5000002,14.9999996 C14.5000002,15.2761396 14.7238602,15.4999996 15.0000002,15.4999996 L20.0000002,15.4999996 C20.2761402,15.4999996 20.5000002,15.2761396 20.5000002,14.9999996 C20.5000002,14.7238596 20.2761402,14.4999996 20.0000002,14.4999996 Z M15.0000002,12.4999996 C13.6192902,12.4999996 12.5000002,13.6192896 12.5000002,14.9999996 C12.5000002,16.3807096 13.6192902,17.4999996 15.0000002,17.4999996 L20.0000002,17.4999996 C21.3807102,17.4999996 22.5000002,16.3807096 22.5000002,14.9999996 C22.5000002,13.6192896 21.3807102,12.4999996 20.0000002,12.4999996 L15.0000002,12.4999996 Z" id="Rectangle-275-(Stroke)" transform="translate(17.500000, 15.000000) rotate(179.999995) translate(-17.500000, -15.000000) "></path>
            <path d="M14.5000002,18.4999998 C13.3954312,18.4999998 12.5000002,19.3954308 12.5000002,20.4999998 C12.5000002,21.6045698 13.3954312,22.4999998 14.5000002,22.4999998 L15.5000002,22.4999998 C16.0522802,22.4999998 16.5000002,22.0522798 16.5000002,21.4999998 L16.5000002,20.4999998 C16.5000002,19.3954308 15.6045702,18.4999998 14.5000002,18.4999998 Z" id="Rectangle-276-(Stroke)" transform="translate(14.500000, 20.500000) rotate(179.999995) translate(-14.500000, -20.500000) "></path>
            <path d="M11.5,17.0000001 L6.49999997,17.0000001 C6.22385997,17.0000001 5.99999997,17.2238601 5.99999997,17.5000001 C5.99999997,17.7761401 6.22385997,18.0000001 6.49999997,18.0000001 L11.5,18.0000001 C11.77614,18.0000001 12,17.7761401 12,17.5000001 C12,17.2238601 11.77614,17.0000001 11.5,17.0000001 Z M6.49999997,15.0000001 C5.11928997,15.0000001 3.99999997,16.1192901 3.99999997,17.5000001 C3.99999997,18.8807101 5.11928997,20.0000001 6.49999997,20.0000001 L11.5,20.0000001 C12.88071,20.0000001 14,18.8807101 14,17.5000001 C14,16.1192901 12.88071,15.0000001 11.5,15.0000001 L6.49999997,15.0000001 Z" id="Rectangle-275-(Stroke)" transform="translate(9.000000, 17.500000) rotate(-89.999999) translate(-9.000000, -17.500000) "></path>
            <path d="M3.49999998,12.5000001 C2.39543098,12.5000001 1.49999998,13.3954311 1.49999998,14.5000001 C1.49999998,15.6045701 2.39543098,16.5000001 3.49999998,16.5000001 L4.49999998,16.5000001 C5.05227998,16.5000001 5.49999998,16.0522801 5.49999998,15.5000001 L5.49999998,14.5000001 C5.49999998,13.3954311 4.60456998,12.5000001 3.49999998,12.5000001 Z" id="Rectangle-276-(Stroke)" transform="translate(3.500000, 14.500000) rotate(-89.999999) translate(-3.500000, -14.500000) "></path>
            <path d="M17.5000001,6.00000022 L12.5000001,6.00000022 C12.2238601,6.00000022 12.0000001,6.22386022 12.0000001,6.50000022 C12.0000001,6.77614022 12.2238601,7.00000022 12.5000001,7.00000022 L17.5000001,7.00000022 C17.7761401,7.00000022 18.0000001,6.77614022 18.0000001,6.50000022 C18.0000001,6.22386022 17.7761401,6.00000022 17.5000001,6.00000022 Z M12.5000001,4.00000022 C11.1192901,4.00000022 10.0000001,5.11929022 10.0000001,6.50000022 C10.0000001,7.88071022 11.1192901,9.00000022 12.5000001,9.00000022 L17.5000001,9.00000022 C18.8807101,9.00000022 20.0000001,7.88071022 20.0000001,6.50000022 C20.0000001,5.11929022 18.8807101,4.00000022 17.5000001,4.00000022 L12.5000001,4.00000022 Z" id="Rectangle-275-(Stroke)" transform="translate(15.000000, 6.500000) rotate(90.000003) translate(-15.000000, -6.500000) "></path>
            <path d="M20.5000004,7.50000009 C19.3954314,7.50000009 18.5000004,8.39543109 18.5000004,9.50000009 C18.5000004,10.6045701 19.3954314,11.5000001 20.5000004,11.5000001 L21.5000004,11.5000001 C22.0522804,11.5000001 22.5000004,11.0522801 22.5000004,10.5000001 L22.5000004,9.50000009 C22.5000004,8.39543109 21.6045704,7.50000009 20.5000004,7.50000009 Z" id="Rectangle-276-(Stroke)" transform="translate(20.500000, 9.500000) rotate(90.000003) translate(-20.500000, -9.500000) "></path>
        </g>
    </g>
</svg>