<?xml version="1.0" encoding="UTF-8"?>
<svg width="20px" height="20px" viewBox="0 0 20 20" version="1.1" xmlns="http://www.w3.org/2000/svg" xmlns:xlink="http://www.w3.org/1999/xlink">
    <title>UI icon/frown/filled</title>
    <g id="👀-Icons" stroke="none" stroke-width="1" fill="none" fill-rule="evenodd">
        <g id="Subtract" transform="translate(-2.000000, -2.000000)" fill="#6F767E">
            <path d="M12,22 C17.5228,22 22,17.5228 22,12 C22,6.47715 17.5228,2 12,2 C6.47715,2 2,6.47715 2,12 C2,17.5228 6.47715,22 12,22 Z M8.7996,16.6006 C8.46789,17.0422 7.84102,17.1313 7.39944,16.7995 C6.95787,16.4678 6.86881,15.841 7.20052,15.3994 C8.2934,13.9445 10.03637,13 12,13 C13.9637,13 15.7067,13.9445 16.7996,15.3994 C17.1313,15.841 17.0422,16.4678 16.6007,16.7995 C16.1591,17.1313 15.5322,17.0422 15.2005,16.6006 C14.469,15.6268 13.3079,15 12,15 C10.69222,15 9.53115,15.6268 8.7996,16.6006 Z M7.29289,8.29289 C7.68342,7.90237 8.31658,7.90237 8.70711,8.29289 L9.20711,8.79289 C9.59763,9.18342 9.59763,9.81658 9.20711,10.20711 C8.81658,10.59763 8.18342,10.59763 7.79289,10.20711 L7.29289,9.70711 C6.90237,9.31658 6.90237,8.68342 7.29289,8.29289 Z M15.2929,8.29289 C15.6834,7.90237 16.3166,7.90237 16.7071,8.29289 C17.0976,8.68342 17.0976,9.31658 16.7071,9.70711 L16.2071,10.20711 C15.8166,10.59763 15.1834,10.59763 14.7929,10.20711 C14.4024,9.81658 14.4024,9.18342 14.7929,8.79289 L15.2929,8.29289 Z"></path>
        </g>
    </g>
</svg>