<?xml version="1.0" encoding="UTF-8"?>
<svg width="20px" height="20px" viewBox="0 0 20 20" version="1.1" xmlns="http://www.w3.org/2000/svg" xmlns:xlink="http://www.w3.org/1999/xlink">
    <title>UI icon/frown/light</title>
    <g id="👀-Icons" stroke="none" stroke-width="1" fill="none" fill-rule="evenodd">
        <g id="编组" transform="translate(-2.000000, -2.000000)" fill="#6F767E">
            <path d="M12,20 C16.4183,20 20,16.4183 20,12 C20,7.58172 16.4183,4 12,4 C7.58172,4 4,7.58172 4,12 C4,16.4183 7.58172,20 12,20 Z M12,22 C17.5228,22 22,17.5228 22,12 C22,6.47715 17.5228,2 12,2 C6.47715,2 2,6.47715 2,12 C2,17.5228 6.47715,22 12,22 Z" id="Ellipse-201-(Stroke)"></path>
            <path d="M7.39938567,13.2005221 C7.84095937,12.8688112 8.46783436,12.9578724 8.79954489,13.399445 C9.53109604,14.3732814 10.6921679,15.0000611 11.99998,15.0000611 C13.307812,15.0000611 14.4689339,14.3732814 15.200475,13.39945 C15.5321755,12.9578754 16.1590465,12.8688102 16.6006272,13.2005181 C17.0421579,13.5322259 17.1312581,14.1590916 16.7995575,14.6006713 C15.7066658,16.0555406 13.9636431,17.0000601 11.99998,17.0000601 C10.0363168,17.0000601 8.29334409,16.0555106 7.20046236,14.6006713 C6.86875083,14.1591016 6.95781217,13.5322329 7.39938567,13.2005221 Z" id="Ellipse-204-(Stroke)" transform="translate(12.000000, 15.000031) scale(1, -1) translate(-12.000000, -15.000031) "></path>
            <path d="M7.29289307,8.29289307 C7.68341705,7.90236898 8.31658004,7.90236898 8.70711002,8.29289307 L9.20711001,8.79289305 C9.59763,9.18342004 9.59763,9.81658002 9.20711001,10.20711 C8.81658002,10.59763 8.18342004,10.59763 7.79289305,10.20711 L7.29289307,9.70711002 C6.90236898,9.31658004 6.90236898,8.68341705 7.29289307,8.29289307 Z" id="Vector-478-(Stroke)"></path>
            <path d="M14.7928931,8.29289307 C15.1834171,7.90236898 15.81658,7.90236898 16.20711,8.29289307 L16.70711,8.79289305 C17.09763,9.18342004 17.09763,9.81658002 16.70711,10.20711 C16.31658,10.59763 15.68342,10.59763 15.2928931,10.20711 L14.7928931,9.70711002 C14.402369,9.31658004 14.402369,8.68341705 14.7928931,8.29289307 Z" id="Vector-479-(Stroke)" transform="translate(15.750000, 9.250000) scale(1, -1) rotate(180.000000) translate(-15.750000, -9.250000) "></path>
        </g>
    </g>
</svg>