<?xml version="1.0" encoding="UTF-8"?>
<svg width="14px" height="20px" viewBox="0 0 14 20" version="1.1" xmlns="http://www.w3.org/2000/svg" xmlns:xlink="http://www.w3.org/1999/xlink">
    <title>UI icon/underline/filled</title>
    <g id="👀-Icons" stroke="none" stroke-width="1" fill="none" fill-rule="evenodd">
        <g id="编组" transform="translate(-5.000000, -2.000000)" fill="#6F767E">
            <path d="M5,21 C5,20.447715 5.447715,20 6,20 L18,20 C18.5523,20 19,20.447715 19,21 C19,21.55228 18.5523,22 18,22 L6,22 C5.447715,22 5,21.55228 5,21 Z" id="Vector-55-(Stroke)"></path>
            <path d="M6,2 C6.55228,2 7,2.447715 7,3 L7,11 C7,13.7614 9.23858,16 12,16 C14.76142,16 17,13.7614 17,11 L17,3 C17,2.447715 17.4477,2 18,2 C18.5523,2 19,2.447715 19,3 L19,11 C19,14.866 15.866,18 12,18 C8.13401,18 5,14.866 5,11 L5,3 C5,2.447715 5.447715,2 6,2 Z" id="Rectangle-31-(Stroke)"></path>
        </g>
    </g>
</svg>