<?xml version="1.0" encoding="UTF-8"?>
<svg width="19px" height="19px" viewBox="0 0 19 19" version="1.1" xmlns="http://www.w3.org/2000/svg" xmlns:xlink="http://www.w3.org/1999/xlink">
    <title>UI icon/zoom_in/light</title>
    <g id="👀-Icons" stroke="none" stroke-width="1" fill="none" fill-rule="evenodd">
        <g id="Union" transform="translate(-2.000000, -2.000000)" fill="#6F767E">
            <path d="M12,8 C12,7.447715 11.55228,7 11,7 C10.44772,7 10,7.447715 10,8 L10,10 L8,10 C7.447715,10 7,10.44772 7,11 C7,11.55228 7.447715,12 8,12 L10,12 L10,14 C10,14.55228 10.44772,15 11,15 C11.55228,15 12,14.55228 12,14 L12,12 L14,12 C14.55228,12 15,11.55228 15,11 C15,10.44772 14.55228,10 14,10 L12,10 L12,8 Z" fill-rule="nonzero"></path>
            <path d="M18.0319,16.6177 C19.2635,15.078 20,13.125 20,11 C20,6.02944 15.9706,2 11,2 C6.02944,2 2,6.02944 2,11 C2,15.9706 6.02944,20 11,20 C13.125,20 15.078,19.2635 16.6177,18.0319 L19.2929,20.7071 C19.6834,21.0976 20.3166,21.0976 20.7071,20.7071 C21.0976,20.3166 21.0976,19.6834 20.7071,19.2929 L18.0319,16.6177 Z M18,11 C18,14.866 14.866,18 11,18 C7.13401,18 4,14.866 4,11 C4,7.13401 7.13401,4 11,4 C14.866,4 18,7.13401 18,11 Z"></path>
        </g>
    </g>
</svg>