<?xml version="1.0" encoding="UTF-8"?>
<svg width="18px" height="21px" viewBox="0 0 18 21" version="1.1" xmlns="http://www.w3.org/2000/svg" xmlns:xlink="http://www.w3.org/1999/xlink">
    <title>UI icon/location/filled</title>
    <g id="👀-Icons" stroke="none" stroke-width="1" fill="none" fill-rule="evenodd">
        <g id="Subtract" transform="translate(-3.000000, -2.000000)" fill="#6F767E">
            <path d="M20.0346879,10.03478 C20.0346879,11.9349 19.3750879,13.681 18.2723879,15.0565 L18.2770879,15.0565 C16.4154212,17.5477 14.7635112,19.6753 13.3213579,21.4393 C12.6312079,22.2834 11.3687879,22.2831 10.6790479,21.4386 C9.24148122,19.6785333 7.59308122,17.5538667 5.73384789,15.0646 L5.72734789,15.0565 C4.62466189,13.681 3.96508789,11.9349 3.96508789,10.03478 C3.96508789,5.5973 7.56237789,2 11.9998679,2 C16.4373879,2 20.0346879,5.5973 20.0346879,10.03478 Z M14.9999979,10 C14.9999979,11.65685 13.6568579,13 11.9999979,13 C10.3431479,13 8.99999789,11.65685 8.99999789,10 C8.99999789,8.34315 10.3431479,7 11.9999979,7 C13.6568579,7 14.9999979,8.34315 14.9999979,10 Z"></path>
        </g>
    </g>
</svg>