<?xml version="1.0" encoding="UTF-8"?>
<svg width="18px" height="21px" viewBox="0 0 18 21" version="1.1" xmlns="http://www.w3.org/2000/svg" xmlns:xlink="http://www.w3.org/1999/xlink">
    <title>UI icon/location/light</title>
    <g id="👀-Icons" stroke="none" stroke-width="1" fill="none" fill-rule="evenodd">
        <g id="编组" transform="translate(-3.000000, -2.000000)" fill="#6F767E">
            <path d="M16.7119892,13.8056 C17.5404892,12.7721 18.0347892,11.46387 18.0347892,10.03478 C18.0347892,6.70186 15.3328892,4 11.9999692,4 C8.66704922,4 5.96518922,6.70186 5.96518922,10.03478 C5.96518922,11.46375 6.45934922,12.7718 7.28771922,13.8053 L7.28771922,13.8053 L7.29367922,13.8127 C7.46905922,14.0312 7.63142922,14.2613 7.80011922,14.4849 C8.09310922,14.8734 8.50625922,15.4189 8.98628922,16.0462 C9.88083922,17.2153 10.9982792,18.6565 12.0006792,19.8938 C13.0062292,18.6539 14.1261892,17.2104 15.0224892,16.0398 C15.5033892,15.4117 15.9171892,14.8657 16.2105892,14.4769 C16.3784892,14.2545 16.5377892,14.023 16.7119892,13.8056 Z M18.2753892,15.0589 C18.2742559,15.0603667 18.2732892,15.0616333 18.2724892,15.0627 C18.2212892,15.1312 17.7509892,15.7595 17.0695892,16.6544 C16.0586892,17.9819 14.5830892,19.8961 13.3214592,21.4393 C12.6313092,22.2834 11.3688892,22.2831 10.6791492,21.4386 C9.24158255,19.6785333 7.59318255,17.5538667 5.73394922,15.0646 L5.72744922,15.0565 C4.62476322,13.681 3.96518922,11.9349 3.96518922,10.03478 C3.96518922,5.5973 7.56247922,2 11.9999692,2 C16.4374892,2 20.0347892,5.5973 20.0347892,10.03478 C20.0347892,11.21703 19.7793892,12.3396 19.3208892,13.3505 C19.0434892,13.962 18.6916892,14.5326 18.2771892,15.0507 L18.2741892,15.0543 L18.2724892,15.0565 L18.2771892,15.0565 L18.2753892,15.0589 Z" id="Union-(Stroke)"></path>
            <path d="M12,11 C12.55229,11 13,10.55229 13,10 C13,9.44771 12.55229,9 12,9 C11.44771,9 11,9.44771 11,10 C11,10.55229 11.44771,11 12,11 Z M15,10 C15,11.65685 13.65685,13 12,13 C10.34315,13 9,11.65685 9,10 C9,8.34315 10.34315,7 12,7 C13.65685,7 15,8.34315 15,10 Z" id="Oval-(Stroke)"></path>
        </g>
    </g>
</svg>