<?xml version="1.0" encoding="UTF-8"?>
<svg width="20px" height="20px" viewBox="0 0 20 20" version="1.1" xmlns="http://www.w3.org/2000/svg" xmlns:xlink="http://www.w3.org/1999/xlink">
    <title>UI icon/spotify/filled</title>
    <g id="👀-Icons" stroke="none" stroke-width="1" fill="none" fill-rule="evenodd">
        <g id="Subtract" transform="translate(-2.000000, -2.000000)" fill="#6F767E">
            <path d="M12,22 C17.5228,22 22,17.5228 22,12 C22,6.47715 17.5228,2 12,2 C6.47715,2 2,6.47715 2,12 C2,17.5228 6.47715,22 12,22 Z M6.28438,9.34241 C6.13627,8.81036 6.44752,8.25898 6.97957,8.11086 L6.98059,8.11058 L6.98181,8.11024 L6.98481,8.10942 C7.12649,8.07158 7.26961,8.03932 7.4132,8.00959 C7.67664,7.95504 8.05377,7.88702 8.52669,7.82816 C9.47163,7.71055 10.80488,7.62876 12.3812,7.76667 C13.9576,7.90459 15.2564,8.21665 16.1666,8.49656 C16.6221,8.63665 16.9817,8.76912 17.2316,8.86859 C17.3687,8.92315 17.5056,8.97934 17.639,9.04263 C18.1271,9.27506 18.3452,9.88927 18.1119,10.37718 C17.8739,10.87479 17.2781,11.08566 16.7802,10.84887 L16.7791,10.84833 L16.7702,10.84422 C16.7403,10.83049 16.6456,10.78794 16.4922,10.72686 C16.2874,10.64539 15.9785,10.53116 15.5787,10.4082 C14.7782,10.16201 13.6192,9.88261 12.2069,9.75906 C10.79472,9.63551 9.60479,9.7094 8.77371,9.81284 C8.35862,9.86451 8.03453,9.92336 7.81875,9.96804 C7.657,10.00153 7.55642,10.02701 7.52457,10.03534 L7.51549,10.03772 C6.98373,10.18521 6.43241,9.87416 6.28438,9.34241 Z M8.34968,14.2957 C7.83606,14.4987 7.58424,15.0796 7.78724,15.5933 C7.98884,16.1033 8.56317,16.3552 9.07416,16.1598 L9.08526,16.156 C9.10101,16.1507 9.13231,16.1406 9.17902,16.1276 C9.27239,16.1016 9.42753,16.0639 9.64324,16.0296 C10.07397,15.9611 10.74998,15.9054 11.66225,15.9853 C12.5745,16.0651 13.2306,16.2373 13.6429,16.3795 C13.8494,16.4508 13.9956,16.5148 14.083,16.5566 C14.1268,16.5775 14.1559,16.5929 14.1704,16.6009 L14.1807,16.6066 C14.65,16.8877 15.2593,16.7394 15.5465,16.2721 C15.8356,15.8015 15.6884,15.1857 15.2179,14.8966 L15.2165,14.8957 L15.2118,14.8929 C15.1844,14.8766 15.1567,14.8607 15.1287,14.8454 C15.0834,14.8207 15.0225,14.789 14.9458,14.7523 C14.7924,14.6789 14.576,14.5858 14.2952,14.4889 C13.7331,14.295 12.9167,14.0874 11.83656,13.9929 C10.75644,13.8984 9.91636,13.961 9.32912,14.0544 C9.03583,14.1011 8.80651,14.1552 8.64266,14.2008 C8.56075,14.2236 8.49526,14.2443 8.44637,14.2608 C8.41612,14.271 8.38616,14.2819 8.35628,14.2931 L8.35279,14.2945 L8.35119,14.2951 L8.34968,14.2957 Z M7.0098,12.3823 C6.88148,11.84512 7.21292,11.30564 7.75009,11.17732 L7.75227,11.1768 L7.75503,11.17615 C7.78742,11.16862 7.81994,11.16165 7.85251,11.15497 C7.91029,11.14313 7.99134,11.12751 8.09451,11.11002 C8.30082,11.07505 8.59582,11.03255 8.97022,10.99779 C9.71885,10.92828 10.78642,10.88954 12.0979,11.00428 C13.4095,11.11903 14.4541,11.34256 15.1793,11.54101 C15.542,11.64026 15.8251,11.73334 16.0222,11.8036 C16.1208,11.83874 16.1979,11.8682 16.2527,11.8899 C16.2836,11.90213 16.3144,11.91464 16.345,11.92768 L16.3476,11.9288 L16.3497,11.92969 C16.8564,12.1493 17.0891,12.7382 16.8695,13.2449 C16.6503,13.7507 16.0629,13.9834 15.5568,13.7658 L15.552,13.7638 C15.5332,13.756 15.4651,13.7283 15.3506,13.6875 C15.1979,13.633 14.9627,13.5553 14.6514,13.4701 C14.0286,13.2996 13.1026,13.0998 11.92363,12.9967 C10.74467,12.8935 9.79806,12.9295 9.15513,12.9892 C8.83375,13.0191 8.58863,13.0548 8.42876,13.0819 C8.34885,13.0954 8.2903,13.1068 8.25424,13.1142 C8.23621,13.1179 8.22381,13.1206 8.21719,13.1221 L8.21176,13.1233 C7.67559,13.2497 7.13788,12.9185 7.0098,12.3823 Z"></path>
        </g>
    </g>
</svg>