<?xml version="1.0" encoding="UTF-8"?>
<svg width="20px" height="20px" viewBox="0 0 20 20" version="1.1" xmlns="http://www.w3.org/2000/svg" xmlns:xlink="http://www.w3.org/1999/xlink">
    <title>UI icon/spotify/light</title>
    <g id="👀-Icons" stroke="none" stroke-width="1" fill="none" fill-rule="evenodd">
        <g id="编组" transform="translate(-2.000000, -2.000000)" fill="#6F767E">
            <path d="M12,20 C16.4183,20 20,16.4183 20,12 C20,7.58172 16.4183,4 12,4 C7.58172,4 4,7.58172 4,12 C4,16.4183 7.58172,20 12,20 Z M12,22 C17.5228,22 22,17.5228 22,12 C22,6.47715 17.5228,2 12,2 C6.47715,2 2,6.47715 2,12 C2,17.5228 6.47715,22 12,22 Z" id="Ellipse-201-(Stroke)"></path>
            <path d="M6.91033895,8.57495209 C6.39321802,8.76887107 6.13121305,9.34528099 6.32513283,9.86240092 C6.518999,10.3793808 7.09514693,10.6413808 7.61216086,10.4477708 L7.61114087,10.4481508 L7.62099086,10.4446008 C7.65199086,10.4335308 7.74997085,10.3993808 7.90818083,10.3519209 C8.1192508,10.2886009 8.43698076,10.2017309 8.84599071,10.1140809 C9.6648906,9.93860091 10.8438505,9.7612812 12.2614603,9.7612812 C13.6790701,9.7612812 14.8580299,9.93860091 15.6769298,10.1140809 C16.0859398,10.2017309 16.4036897,10.2886009 16.6146897,10.3519209 C16.7729897,10.3993808 16.8708897,10.4335308 16.9018897,10.4446008 L16.9111897,10.4479108 L16.9122897,10.4483608 C17.4289896,10.6408508 18.0040895,10.3788608 18.1977895,9.86240092 C18.3876895,9.35601099 18.1168895,8.76315107 17.6103896,8.57413909 C17.4720896,8.5227121 17.3307896,8.4786661 17.1893896,8.43626711 C16.9317897,8.35896212 16.5619897,8.25833413 16.0959898,8.15847915 C15.1648899,7.95895817 13.8438501,7.7612812 12.2614603,7.7612812 C10.6790705,7.7612812 9.35803064,7.95895817 8.42693076,8.15847915 C7.96094082,8.25833413 7.59117087,8.35896212 7.3334909,8.43626711 C7.19304092,8.4784021 7.05327794,8.5230161 6.91542895,8.57305509 L6.91251395,8.57413909 L6.91133295,8.57457909 L6.91033895,8.57495209 Z" id="Vector-605-(Stroke)" transform="translate(12.259912, 9.136417) rotate(5.000000) translate(-12.259912, -9.136417) "></path>
            <path d="M8.28041384,14.5936794 C7.78643604,14.8406683 7.58621212,15.4413461 7.83320102,15.9353159 C8.07848592,16.4258857 8.67258968,16.6267457 9.16459848,16.3875858 L9.17531848,16.3827758 C9.19054847,16.3761158 9.22085846,16.3633358 9.26624844,16.3463058 C9.35699841,16.3122758 9.50826835,16.2612258 9.72015826,16.2082458 C10.1432881,16.1024659 10.8118778,15.9881067 11.7276275,15.9881067 C12.6433771,15.9881067 13.3119568,16.1024659 13.7350867,16.2082458 C13.9469866,16.2612258 14.0982565,16.3122758 14.1890065,16.3463058 C14.2343964,16.3633358 14.2647064,16.3761158 14.2799364,16.3827758 L14.2906464,16.3875858 C14.7826562,16.6267457 15.376766,16.4258857 15.6220559,15.9353159 C15.8690458,15.4413461 15.6688159,14.8406683 15.1748361,14.5936794 L15.1733961,14.5929584 L15.1684861,14.5905304 C15.1397161,14.5767304 15.1108161,14.5632595 15.0815661,14.5504645 C15.0342961,14.5297825 14.9708562,14.5035045 14.8912462,14.4736525 C14.7319963,14.4139335 14.5082663,14.3399905 14.2201565,14.2679646 C13.6432867,14.1237466 12.811877,13.9881067 11.7276275,13.9881067 C10.6433779,13.9881067 9.81195822,14.1237466 9.23508846,14.2679646 C8.94698857,14.3399905 8.72325466,14.4139335 8.56400472,14.4736525 C8.48439876,14.5035045 8.42095678,14.5297825 8.3736838,14.5504645 C8.34443981,14.5632595 8.31554182,14.5767304 8.28676284,14.5905304 L8.28339884,14.5921924 L8.28185884,14.5929584 C8.2805315,14.5936204 8.28004984,14.5938608 8.28041384,14.5936794 Z" id="Vector-607-(Stroke)" transform="translate(11.727628, 15.238216) rotate(5.000000) translate(-11.727628, -15.238216) "></path>
            <path d="M7.67288129,11.5508433 C7.14893711,11.7254913 6.86577702,12.2918062 7.04042507,12.8157561 C7.21474613,13.3387161 7.77927833,13.621796 8.30239751,13.4491861 L8.30769751,13.4474961 C8.31416751,13.4454461 8.32628751,13.4416761 8.34391752,13.4364261 C8.37919753,13.4259161 8.43653755,13.4094761 8.51496758,13.3890161 C8.67186763,13.3480861 8.91293771,13.2911361 9.23049782,13.2333961 C9.86577804,13.1178861 10.8056384,12.9995263 11.9891088,12.9995263 C13.1725792,12.9995263 14.1124495,13.1178861 14.7477297,13.2333961 C15.0652798,13.2911361 15.3063499,13.3480861 15.46325,13.3890161 C15.5809,13.4197061 15.6511,13.4413561 15.67052,13.4474961 L15.67551,13.4490761 C16.1986302,13.621696 16.7634704,13.3387161 16.9377905,12.8157561 C17.1124405,12.2918062 16.8292804,11.7254913 16.3053402,11.5508433 L16.3032102,11.5501353 L16.3005202,11.5492473 C16.2689102,11.5389223 16.2371202,11.5291483 16.2052502,11.5196563 C16.1487302,11.5028203 16.0693502,11.4801983 15.9681001,11.4537843 C15.7656201,11.4009633 15.47544,11.3329193 15.1054998,11.2656563 C14.3657796,11.1311613 13.3056392,10.9995263 11.9891088,10.9995263 C10.6725783,10.9995263 9.61244795,11.1311613 8.8727277,11.2656563 C8.50277757,11.3329193 8.21260748,11.4009633 8.01012741,11.4537843 C7.90886837,11.4801983 7.82948734,11.5028203 7.77296832,11.5196563 C7.74110231,11.5291483 7.7093073,11.5389223 7.67770029,11.5492473 L7.67501229,11.5501353 L7.67387729,11.5505113 L7.67288129,11.5508433 Z" id="Vector-606-(Stroke)" transform="translate(11.989108, 12.249662) rotate(5.000000) translate(-11.989108, -12.249662) "></path>
        </g>
    </g>
</svg>