<?xml version="1.0" encoding="UTF-8"?>
<svg width="17px" height="14px" viewBox="0 0 17 14" version="1.1" xmlns="http://www.w3.org/2000/svg" xmlns:xlink="http://www.w3.org/1999/xlink">
    <title>UI icon/sort/light</title>
    <g id="👀-Icons" stroke="none" stroke-width="1" fill="none" fill-rule="evenodd">
        <g id="编组" transform="translate(-4.000000, -5.000000)" fill="#6F767E">
            <path d="M4,6 C4,5.447715 4.447715,5 5,5 L20,5 C20.5523,5 21,5.447715 21,6 C21,6.55228 20.5523,7 20,7 L5,7 C4.447715,7 4,6.55228 4,6 Z" id="Path-13-Copy-5-(Stroke)"></path>
            <path d="M4,12 C4,11.447715 4.447715,11 5,11 L15,11 C15.5523,11 16,11.447715 16,12 C16,12.55228 15.5523,13 15,13 L5,13 C4.447715,13 4,12.55228 4,12 Z" id="Path-13-Copy-6-(Stroke)"></path>
            <path d="M4,18 C4,17.447715 4.447715,17 5,17 L11,17 C11.55228,17 12,17.447715 12,18 C12,18.55228 11.55228,19 11,19 L5,19 C4.447715,19 4,18.55228 4,18 Z" id="Path-13-Copy-7-(Stroke)"></path>
        </g>
    </g>
</svg>