<?xml version="1.0" encoding="UTF-8"?>
<svg width="18px" height="14px" viewBox="0 0 18 14" version="1.1" xmlns="http://www.w3.org/2000/svg" xmlns:xlink="http://www.w3.org/1999/xlink">
    <title>UI icon/center_align/filled</title>
    <g id="👀-Icons" stroke="none" stroke-width="1" fill="none" fill-rule="evenodd">
        <g id="编组" transform="translate(-3.000000, -5.000000)" fill="#6F767E">
            <path d="M3,6 C3,5.447715 3.447715,5 4,5 L20,5 C20.5523,5 21,5.447715 21,6 C21,6.55228 20.5523,7 20,7 L4,7 C3.447715,7 3,6.55228 3,6 Z" id="Vector-605-(Stroke)"></path>
            <path d="M6,10 C6,9.447715 6.447715,9 7,9 L17,9 C17.5523,9 18,9.447715 18,10 C18,10.55228 17.5523,11 17,11 L7,11 C6.447715,11 6,10.55228 6,10 Z" id="Vector-606-(Stroke)"></path>
            <path d="M3,14 C3,13.447715 3.447715,13 4,13 L20,13 C20.5523,13 21,13.447715 21,14 C21,14.55228 20.5523,15 20,15 L4,15 C3.447715,15 3,14.55228 3,14 Z" id="Vector-607-(Stroke)"></path>
            <path d="M6,18 C6,17.447715 6.447715,17 7,17 L17,17 C17.5523,17 18,17.447715 18,18 C18,18.55228 17.5523,19 17,19 L7,19 C6.447715,19 6,18.55228 6,18 Z" id="Vector-608-(Stroke)"></path>
        </g>
    </g>
</svg>