<?xml version="1.0" encoding="UTF-8"?>
<svg width="12px" height="20px" viewBox="0 0 12 20" version="1.1" xmlns="http://www.w3.org/2000/svg" xmlns:xlink="http://www.w3.org/1999/xlink">
    <title>UI icon/battery_low/filled</title>
    <g id="👀-Icons" stroke="none" stroke-width="1" fill="none" fill-rule="evenodd">
        <g id="编组" transform="translate(-6.000000, -2.000000)" fill="#6F767E">
            <path d="M9,5 C7.34315,5 6,6.34315 6,8 L6,19 C6,20.6569 7.34315,22 9,22 L15,22 C16.6569,22 18,20.6569 18,19 L18,8 C18,6.34315 16.6569,5 15,5 L9,5 Z M10,17 C9.44772,17 9,17.4477 9,18 C9,18.5523 9.44772,19 10,19 L14,19 C14.55228,19 15,18.5523 15,18 C15,17.4477 14.55228,17 14,17 L10,17 Z" id="Subtract"></path>
            <path d="M10,3 C10,2.447715 10.447715,2 11,2 L13,2 C13.55228,2 14,2.447715 14,3 C14,3.55228 13.55228,4 13,4 L11,4 C10.447715,4 10,3.55228 10,3 Z" id="Vector-594-(Stroke)"></path>
        </g>
    </g>
</svg>