<?xml version="1.0" encoding="UTF-8"?>
<svg width="17px" height="20px" viewBox="0 0 17 20" version="1.1" xmlns="http://www.w3.org/2000/svg" xmlns:xlink="http://www.w3.org/1999/xlink">
    <title>UI icon/pinterest/filled</title>
    <g id="👀-Icons" stroke="none" stroke-width="1" fill="none" fill-rule="evenodd">
        <g id="Vector-606-(Stroke)" transform="translate(-4.000000, -2.000000)" fill="#6F767E">
            <path d="M12.3193118,2.04039681 C14.9804888,1.91784033 17.7185857,2.86656822 19.2893839,4.88608099 C23.2875793,10.0266904 19.4206837,16.9999796 13.9999899,16.9999796 C12.7126814,16.9999796 11.7013825,16.7172796 10.9325834,16.2092797 C10.6370837,16.0140797 10.389184,15.7932797 10.1819142,15.5580798 L8.41696623,21.2940791 C8.25454642,21.821979 7.69496705,22.118279 7.16710765,21.955779 C6.63923825,21.793379 6.34298859,21.2337791 6.5054084,20.7059792 L10.5054139,7.70595066 C10.6678337,7.17809072 11.227423,6.88184076 11.7552824,7.04426074 C12.2831418,7.20668072 12.5793915,7.76626065 12.4169717,8.29413059 L11.2058131,12.2303801 C11.2035631,12.2459801 11.2009131,12.2656801 11.1981431,12.2891801 C11.1887531,12.3686801 11.1783531,12.4884801 11.1770031,12.6342801 C11.1742231,12.9330801 11.2098631,13.30238 11.3396429,13.65188 C11.4648828,13.9890799 11.6743425,14.3022799 12.0351521,14.5406799 C12.4014017,14.7826798 13.003301,14.9999798 13.9999899,14.9999798 C17.7153857,14.9999798 20.7123823,9.9733304 17.7105857,6.11397084 C16.6406869,4.738331 14.6093892,3.93705109 12.4113217,4.03828108 C10.2374242,4.13840107 8.08492661,5.11714096 6.79318808,7.05475074 C5.95324903,8.31467059 5.87674912,9.51732045 6.12254884,10.4265703 C6.38507854,11.3977102 6.96935788,11.9313502 7.33301746,12.0472802 C7.85919687,12.2150801 8.14972654,12.7776801 7.98193673,13.30388 C7.81414692,13.83008 7.25157756,14.1205799 6.72539815,13.9527799 C5.52109952,13.56878 4.5713616,12.3523801 4.19185303,10.9485003 C3.79561348,9.48274046 3.96906179,7.68540066 5.12908997,5.94535086 C6.83738803,3.38291116 9.63397485,2.1640673 12.3193118,2.04039681 Z"></path>
        </g>
    </g>
</svg>