<?xml version="1.0" encoding="UTF-8"?>
<svg width="20px" height="20px" viewBox="0 0 20 20" version="1.1" xmlns="http://www.w3.org/2000/svg" xmlns:xlink="http://www.w3.org/1999/xlink">
    <title>UI icon/internet/filled</title>
    <g id="👀-Icons" stroke="none" stroke-width="1" fill="none" fill-rule="evenodd">
        <g id="编组" transform="translate(-2.000000, -2.000000)" fill="#6F767E" fill-rule="nonzero">
            <g id="Subtract" transform="translate(2.000000, 2.274959)">
                <path d="M13,9.72504 C13,10.2538 12.9816,10.7698 12.9466,11.2702 C12.9286,11.5281 12.7121,11.725 12.4536,11.725 L7.54637,11.725 C7.28788,11.725 7.07137,11.5281 7.05336,11.2702 C7.01841,10.7698 7,10.2538 7,9.72504 C7,9.19628 7.01841,8.68031 7.05336,8.17989 C7.07137,7.92202 7.28788,7.72504 7.54637,7.72504 L12.4536,7.72504 C12.7121,7.72504 12.9286,7.92202 12.9466,8.17989 C12.9816,8.68031 13,9.19628 13,9.72504 Z" id="8ED1E5D6-113F-496F-B675-76CC60C0B82F"></path>
                <path d="M15.461,7.72504 C15.1685,7.72504 14.9389,7.97509 14.9565,8.26711 C14.9852,8.74412 15,9.23077 15,9.72504 C15,10.2193 14.9852,10.706 14.9565,11.183 C14.9389,11.475 15.1685,11.725 15.461,11.725 L19.3913,11.725 C19.6291,11.725 19.8353,11.5577 19.873,11.323 C19.9566,10.8026 20,10.2689 20,9.72504 C20,9.18117 19.9566,8.64744 19.873,8.12712 C19.8353,7.89233 19.6291,7.72504 19.3913,7.72504 L15.461,7.72504 Z" id="6BDC2FA7-1516-44EE-B0B4-FD64EA810A9F"></path>
                <path d="M18.8354,5.0372 C19.0046,5.35548 18.7643,5.72504 18.4038,5.72504 L15.0782,5.72504 C14.8358,5.72504 14.6289,5.55081 14.5816,5.31305 C14.2683,3.74075 13.7927,2.36057 13.2014,1.27514 C12.9695,0.849469 13.3569,0.28986 13.8051,0.474426 C15.9658,1.36415 17.7463,2.98885 18.8354,5.0372 Z" id="ACFDBC8A-0CB5-42BB-A01C-C8E561E7C743"></path>
                <path d="M12.4955,5.13007 C12.5678,5.43681 12.3308,5.725041 12.0156,5.725041 L7.98438,5.725041 C7.66925,5.725041 7.43221,5.43681 7.50445,5.13007 C7.71454,4.23808 7.98085,3.44403 8.2852,2.77447 C9.12898,0.918156 9.88585,0.725041 10,0.725041 C10.1142,0.725041 10.871,0.918156 11.7148,2.77447 C12.0191,3.44403 12.2855,4.23808 12.4955,5.13007 Z" id="DDF55AE6-59C3-4423-9D44-605D5948D674"></path>
                <path d="M4.92179,5.72504 C5.16422,5.72504 5.37106,5.55081 5.41843,5.31305 C5.73171,3.74075 6.20731,2.36057 6.79859,1.27514 C7.03048,0.849469 6.64314,0.28986 6.19492,0.474426 C4.03423,1.36415 2.25369,2.98885 1.16462,5.0372 C0.995395,5.35548 1.23572,5.72504 1.59619,5.72504 L4.92179,5.72504 Z" id="42FE293D-F56A-4585-9EDA-4FC54291EA24"></path>
                <path d="M0.608739,7.72504 C0.370938,7.72504 0.164683,7.89233 0.126977,8.12712 C0.0434179,8.64744 0,9.18117 0,9.72504 C0,10.2689 0.0434179,10.8026 0.126977,11.323 C0.164683,11.5577 0.370938,11.725 0.608739,11.725 L4.53896,11.725 C4.83151,11.725 5.06111,11.475 5.04353,11.183 C5.01482,10.706 5,10.2193 5,9.72504 C5,9.23077 5.01482,8.74412 5.04353,8.26711 C5.06111,7.97509 4.83151,7.72504 4.53896,7.72504 L0.608739,7.72504 Z" id="DD6DA192-F0E0-4C7B-9031-AE535ABF91DA"></path>
                <path d="M8.2852,16.6756 C7.98085,16.006 7.71454,15.212 7.50445,14.32 C7.43221,14.0133 7.66925,13.725 7.98438,13.725 L12.0156,13.725 C12.3308,13.725 12.5678,14.0133 12.4955,14.32 C12.2855,15.212 12.0191,16.006 11.7148,16.6756 C10.871,18.5319 10.1142,18.725 10,18.725 C9.88585,18.725 9.12898,18.5319 8.2852,16.6756 Z" id="73C9F53C-2924-4169-ABDD-588DF8E05524"></path>
                <path d="M5.41843,14.137 C5.37106,13.8993 5.16423,13.725 4.9218,13.725 L1.59619,13.725 C1.23572,13.725 0.995394,14.0946 1.16462,14.4129 C2.25369,16.4612 4.03423,18.0859 6.19492,18.9757 C6.64314,19.1602 7.03047,18.6006 6.79859,18.1749 C6.20731,17.0895 5.73171,15.7093 5.41843,14.137 Z" id="56126D51-B1AB-450A-A51A-DAE7CED8D288"></path>
                <path d="M18.8354,14.4129 C19.0046,14.0946 18.7643,13.725 18.4038,13.725 L15.0782,13.725 C14.8358,13.725 14.6289,13.8993 14.5816,14.137 C14.2683,15.7093 13.7927,17.0895 13.2014,18.1749 C12.9695,18.6006 13.3569,19.1602 13.8051,18.9757 C15.9658,18.0859 17.7463,16.4612 18.8354,14.4129 Z" id="C305E39E-680F-4424-BC51-90F031BCF9F6"></path>
            </g>
        </g>
    </g>
</svg>