<?xml version="1.0" encoding="UTF-8"?>
<svg width="20px" height="20px" viewBox="0 0 20 20" version="1.1" xmlns="http://www.w3.org/2000/svg" xmlns:xlink="http://www.w3.org/1999/xlink">
    <title>UI icon/internet/light</title>
    <g id="👀-Icons" stroke="none" stroke-width="1" fill="none" fill-rule="evenodd">
        <g id="Union" transform="translate(-2.000000, -2.000000)" fill="#6F767E">
            <path d="M12,2 C6.47715,2 2,6.47715 2,12 C2,17.5228 6.47715,22 12,22 C17.5228,22 22,17.5228 22,12 C22,6.47715 17.5228,2 12,2 Z M4.25203,10 C4.08751,10.63924 4,11.3094 4,12 C4,12.6906 4.08751,13.3608 4.25203,14 L7.09432,14 C7.03228,13.3521 7,12.6829 7,12 C7,11.31712 7.03228,10.64793 7.09432,10 L4.25203,10 Z M5.07026,8 L7.39317,8 C7.60515,6.9765 7.89762,6.04022 8.25776,5.2299 C8.31802,5.09431 8.38064,4.96122 8.44561,4.83099 C7.03292,5.53275 5.8571,6.63979 5.07026,8 Z M9.10446,10 C9.03652,10.63758 9,11.3072 9,12 C9,12.6928 9.03652,13.3624 9.10446,14 L14.8955,14 C14.9635,13.3624 15,12.6928 15,12 C15,11.3072 14.9635,10.63758 14.8955,10 L9.10446,10 Z M14.5584,8 L9.44164,8 C9.61531,7.26765 9.83379,6.60826 10.08538,6.04218 C10.41337,5.30422 10.77801,4.76892 11.1324,4.43166 C11.48164,4.0993 11.7731,4 12,4 C12.2269,4 12.5184,4.0993 12.8676,4.43166 C13.222,4.76892 13.5866,5.30422 13.9146,6.04218 C14.1662,6.60826 14.3847,7.26765 14.5584,8 Z M16.9057,10 C16.9677,10.64793 17,11.31712 17,12 C17,12.6829 16.9677,13.3521 16.9057,14 L19.748,14 C19.9125,13.3608 20,12.6906 20,12 C20,11.3094 19.9125,10.63924 19.748,10 L16.9057,10 Z M18.9297,8 L16.6068,8 C16.3949,6.9765 16.1024,6.04022 15.7422,5.2299 C15.682,5.09431 15.6194,4.96122 15.5544,4.83099 C16.9671,5.53275 18.1429,6.63979 18.9297,8 Z M8.44561,19.169 C7.03292,18.4672 5.85709,17.3602 5.07026,16 L7.39317,16 C7.60515,17.0235 7.89762,17.9598 8.25776,18.7701 C8.31802,18.9057 8.38064,19.0388 8.44561,19.169 Z M10.08538,17.9578 C9.83379,17.3917 9.61531,16.7324 9.44164,16 L14.5584,16 C14.3847,16.7324 14.1662,17.3917 13.9146,17.9578 C13.5866,18.6958 13.222,19.2311 12.8676,19.5683 C12.5184,19.9007 12.2269,20 12,20 C11.7731,20 11.48164,19.9007 11.1324,19.5683 C10.77801,19.2311 10.41337,18.6958 10.08538,17.9578 Z M15.7422,18.7701 C16.1024,17.9598 16.3949,17.0235 16.6068,16 L18.9297,16 C18.1429,17.3602 16.9671,18.4672 15.5544,19.169 C15.6194,19.0388 15.682,18.9057 15.7422,18.7701 Z"></path>
        </g>
    </g>
</svg>