<?xml version="1.0" encoding="UTF-8"?>
<svg width="20px" height="18px" viewBox="0 0 20 18" version="1.1" xmlns="http://www.w3.org/2000/svg" xmlns:xlink="http://www.w3.org/1999/xlink">
    <title>UI icon/inbox/filled</title>
    <g id="👀-Icons" stroke="none" stroke-width="1" fill="none" fill-rule="evenodd">
        <g id="Union" transform="translate(-2.000000, -3.000000)" fill="#6F767E">
            <path d="M22,18 C22,19.6569 20.6569,21 19,21 L5,21 C3.34315,21 2,19.6569 2,18 L2,13.1468 C2,13.0976 2.00362905,13.0485 2.0108291,13 C2.0178754,12.95251 2.0283417,12.90553 2.0421737,12.85942 L4.35861,5.13796 C4.7393,3.869004 5.90727,3 7.23209,3 L16.7679,3 C18.0927,3 19.2607,3.869004 19.6414,5.13796 L21.9578,12.85942 C21.9717,12.90553 21.9821,12.95251 21.9892,13 C21.9964,13.0485 22,13.0976 22,13.1468 L22,18 Z M16.7679,5 L7.23209,5 C6.79048,5 6.40116,5.28967 6.27427,5.71265 L4.28116,12.35633 C4.18492,12.67713 4.42515,13 4.76008,13 L8.38197,13 C8.76074,13 9.107,13.214 9.27639,13.5528 L9.72084,14.4417 C9.89023,14.7805 10.2365,14.9945 10.61527,14.9945 L13.3847,14.9945 C13.7635,14.9945 14.1098,14.7805 14.2792,14.4417 L14.7236,13.5528 C14.893,13.214 15.2393,13 15.618,13 L19.2399,13 C19.5749,13 19.8151,12.67713 19.7188,12.35633 L17.7257,5.71265 C17.5988,5.28967 17.2095,5 16.7679,5 Z"></path>
        </g>
    </g>
</svg>