<?xml version="1.0" encoding="UTF-8"?>
<svg width="20px" height="18px" viewBox="0 0 20 18" version="1.1" xmlns="http://www.w3.org/2000/svg" xmlns:xlink="http://www.w3.org/1999/xlink">
    <title>UI icon/inbox/light</title>
    <g id="👀-Icons" stroke="none" stroke-width="1" fill="none" fill-rule="evenodd">
        <g id="Union" transform="translate(-2.000000, -3.000000)" fill="#6F767E">
            <path d="M22,13.1468 C22,13.0976 21.9964,13.0485 21.9892,13 C21.9821,12.95251 21.9717,12.90553 21.9578,12.85942 L19.6414,5.13796 C19.2607,3.869004 18.0927,3 16.7679,3 L7.23209,3 C5.90727,3 4.7393,3.869004 4.35861,5.13796 L2.0421737,12.85942 C2.0283417,12.90553 2.0178754,12.95251 2.0108291,13 C2.00362905,13.0485 2,13.0976 2,13.1468 L2,18 C2,19.6569 3.34315,21 5,21 L19,21 C20.6569,21 22,19.6569 22,18 L22,13.1468 Z M16.7679,5 L7.23209,5 C6.79048,5 6.40116,5.28967 6.27427,5.71265 L4.08806,13 L8.38197,13 C8.76074,13 9.107,13.214 9.27639,13.5528 L9.99724,14.9945 C9.99893,14.9979 10.00239,15 10.00618,15 L13.9938,15 C13.9976,15 14.0011,14.9979 14.0028,14.9945 L14.7236,13.5528 C14.893,13.214 15.2393,13 15.618,13 L19.9119,13 L17.7257,5.71265 C17.5988,5.28967 17.2095,5 16.7679,5 Z M20,15 L16.2361,15 L15.7916,15.8889 C15.4511,16.5698 14.7552,17 13.9938,17 L10.00618,17 C9.24487,17 8.54887,16.5699 8.20838,15.8889 L7.76393,15 L4,15 L4,18 C4,18.5523 4.44772,19 5,19 L19,19 C19.5523,19 20,18.5523 20,18 L20,15 Z"></path>
        </g>
    </g>
</svg>