<?xml version="1.0" encoding="UTF-8"?>
<svg width="20px" height="18px" viewBox="0 0 20 18" version="1.1" xmlns="http://www.w3.org/2000/svg" xmlns:xlink="http://www.w3.org/1999/xlink">
    <title>UI icon/map/filled</title>
    <g id="👀-Icons" stroke="none" stroke-width="1" fill="none" fill-rule="evenodd">
        <g id="编组" transform="translate(-2.000000, -3.000000)" fill="#6F767E" fill-rule="nonzero">
            <g id="Subtract" transform="translate(2.000000, 3.240000)">
                <path d="M13,2.2284 C13,1.76601 12.683,1.36392 12.2334,1.25601 L7.61669,0.148005 C7.30227,0.0725458 7,0.310857 7,0.634199 L7,15.2916 C7,15.754 7.31701,16.1561 7.76663,16.264 L12.3833,17.372 C12.6977,17.4475 13,17.2091 13,16.8858 L13,2.2284 Z" id="F0D9E944-2959-4663-B6E8-828D72BDE179"></path>
                <path d="M15.6952,1.13753 C15.281,1.27007 15,1.65509 15,2.08995 L15,16.755 C15,17.0938 15.3298,17.3345 15.6524,17.2312 L17.9143,16.5074 C19.1569,16.1098 20,14.9547 20,13.6501 L20,2.49991 C20,1.14491 18.681,0.182088 17.3904,0.595058 L15.6952,1.13753 Z" id="37F5CABE-88B1-4350-8823-71D6031ABA40"></path>
                <path d="M2.08567,1.01259 L4.34761,0.288765 C4.67024,0.185522 5,0.426229 5,0.764977 L5,15.43 C5,15.8649 4.71896,16.2499 4.30478,16.3825 L2.60955,16.9249 C1.31902,17.3379 0,16.3751 0,15.0201 L0,3.86986 C0,2.56525 0.843132,1.4102 2.08567,1.01259 Z" id="0677A6BA-982F-46DB-9519-E28A2A42819B"></path>
            </g>
        </g>
    </g>
</svg>