<?xml version="1.0" encoding="UTF-8"?>
<svg width="20px" height="18px" viewBox="0 0 20 18" version="1.1" xmlns="http://www.w3.org/2000/svg" xmlns:xlink="http://www.w3.org/1999/xlink">
    <title>UI icon/map/light</title>
    <g id="👀-Icons" stroke="none" stroke-width="1" fill="none" fill-rule="evenodd">
        <g id="Union" transform="translate(-2.000000, -3.000000)" fill="#6F767E">
            <path d="M4.20645,4.31481003 L8.14074,3.23568603 C8.70147,3.08188343 9.29483,3.09434603 9.84861,3.27155803 L14.1514,4.64845003 C14.7052,4.82566003 15.2985,4.83812003 15.8593,4.68432003 L18.8387,3.86710003 C20.4299,3.43066403 22,4.62812003 22,6.27805003 L22,16.79203 C22,18.14333 21.0967,19.32773 19.7936,19.68523 L15.8593,20.76433 C15.2985,20.91813 14.7052,20.90563 14.1514,20.72843 L9.84861,19.35153 C9.29483,19.17433 8.70147,19.16193 8.14073,19.31573 L5.16129,20.13293 C3.57012,20.56933 2,19.37193 2,17.72193 L2,7.20795003 C2,5.85671003 2.903343,4.67223003 4.20645,4.31481003 Z M4.73548,6.24357003 L8,5.34816003 L8,17.29693 C7.86975,17.32163 7.74021,17.35163 7.6117,17.38693 L4.63226,18.20413 C4.31403,18.29143 4,18.05193 4,17.72193 L4,7.20795003 C4,6.75754003 4.30111,6.36271003 4.73548,6.24357003 Z M10.45817,17.44673 C10.30704,17.39833 10.15414,17.35733 10,17.32373 L10,5.41991003 L13.5418,6.55330003 C13.693,6.60166003 13.8459,6.64266003 14,6.67628003 L14,18.58013 L10.45817,17.44673 Z M16,18.65183 L19.2645,17.75643 C19.6989,17.63733 20,17.24243 20,16.79203 L20,6.27805003 C20,5.94806003 19.686,5.70858003 19.3677,5.79586003 L16.3883,6.61308003 C16.2598,6.64833003 16.1303,6.67834003 16,6.70312003 L16,18.65183 Z"></path>
        </g>
    </g>
</svg>