<?xml version="1.0" encoding="UTF-8"?>
<svg width="20px" height="20px" viewBox="0 0 20 20" version="1.1" xmlns="http://www.w3.org/2000/svg" xmlns:xlink="http://www.w3.org/1999/xlink">
    <title>UI icon/history/light</title>
    <g id="👀-Icons" stroke="none" stroke-width="1" fill="none" fill-rule="evenodd">
        <g id="编组" transform="translate(-2.000000, -2.000000)" fill="#6F767E">
            <path d="M20,12 C20,7.58172 16.4183,4 12,4 C9.48295,4 7.27119,5.1635 5.81776,6.99321 L7.49707,6.98829 C8.04935,6.98667 8.49838,7.43307 8.5,7.98535 C8.50161,8.53763 8.05521,8.98666 7.50293,8.98828 L4.06007,8.99836 C4.02166,9.00071 3.983,9.00084 3.94428,8.9987 L3.50293,9 C3.237206,9.00077 2.9821,8.89576 2.79393,8.70814 C2.605759,8.52052 2.5,8.26572 2.5,8 L2.5,4 C2.5,3.44771 2.947718,3 3.5,3 C4.05229,3 4.5,3.44772 4.5,4 L4.5,5.44947 C6.31255,3.34038 8.97702,2 12,2 C17.5228,2 22,6.47715 22,12 C22,17.5228 17.5228,22 12,22 C8.06405,22 4.73586,19.7278 3.104486,16.445 C2.858702,15.9505 3.060389,15.3503 3.55497,15.1045 C4.04955,14.8587 4.64973,15.0604 4.89551,15.555 C6.20955,18.1991 8.86851,20 12,20 C16.4183,20 20,16.4183 20,12 Z" id="Union" fill-rule="nonzero"></path>
            <path d="M12,7 C12.55228,7 13,7.447715 13,8 L13,11.58579 L14.70711,13.29289 C15.09763,13.68342 15.09763,14.31658 14.70711,14.70711 C14.31658,15.09763 13.68342,15.09763 13.29289,14.70711 L11.585786,13 C11.210714,12.62493 11,12.11622 11,11.58579 L11,8 C11,7.447715 11.447715,7 12,7 Z" id="Vector-479-(Stroke)"></path>
        </g>
    </g>
</svg>