<?xml version="1.0" encoding="UTF-8"?>
<svg width="20px" height="20px" viewBox="0 0 20 20" version="1.1" xmlns="http://www.w3.org/2000/svg" xmlns:xlink="http://www.w3.org/1999/xlink">
    <title>UI icon/play_circled/light</title>
    <g id="👀-Icons" stroke="none" stroke-width="1" fill="none" fill-rule="evenodd">
        <g id="编组" transform="translate(-2.000000, -2.000000)" fill="#6F767E">
            <path d="M12,20 C16.4183,20 20,16.4183 20,12 C20,7.58172 16.4183,4 12,4 C7.58172,4 4,7.58172 4,12 C4,16.4183 7.58172,20 12,20 Z M12,22 C17.5228,22 22,17.5228 22,12 C22,6.47715 17.5228,2 12,2 C6.47715,2 2,6.47715 2,12 C2,17.5228 6.47715,22 12,22 Z" id="Ellipse-134-(Stroke)"></path>
            <path d="M10,14.5358927 L14.39231,11.9999927 L10,9.46409273 L10,14.5358927 Z M15.39231,13.7320427 C16.72565,12.9622427 16.72565,11.0377427 15.39231,10.2679427 L11,7.73203573 C9.66667,6.96223473 8,7.92448873 8,9.46409273 L8,14.5358927 C8,16.0754927 9.66667,17.0377427 11,16.2679427 L15.39231,13.7320427 Z" id="Polygon-2-(Stroke)"></path>
        </g>
    </g>
</svg>