<?xml version="1.0" encoding="UTF-8"?>
<svg width="14px" height="20px" viewBox="0 0 14 20" version="1.1" xmlns="http://www.w3.org/2000/svg" xmlns:xlink="http://www.w3.org/1999/xlink">
    <title>UI icon/bulb/light</title>
    <g id="👀-Icons" stroke="none" stroke-width="1" fill="none" fill-rule="evenodd">
        <g id="编组" transform="translate(-5.000000, -2.000000)" fill="#6F767E">
            <path d="M9,21 C9,20.447715 9.447715,20 10,20 L14,20 C14.55228,20 15,20.447715 15,21 C15,21.55228 14.55228,22 14,22 L10,22 C9.447715,22 9,21.55228 9,21 Z" id="Vector-516-(Stroke)"></path>
            <path d="M14,14.7453 C14,14.0915 14.31956,13.479 14.8558,13.1049 C16.156,12.198 17,10.6974 17,9 C17,6.23858 14.76142,4 12,4 C9.23858,4 7,6.23858 7,9 C7,10.6974 7.84396,12.198 9.1442,13.1049 C9.68044,13.479 10,14.0915 10,14.7453 L10,16 C10,16.5523 10.44772,17 11,17 L13,17 C13.55229,17 14,16.5523 14,16 L14,14.7453 Z M8,14.7453 C6.18652,13.4804 5,11.37875 5,9 C5,5.13401 8.13401,2 12,2 C15.866,2 19,5.13401 19,9 C19,11.37875 17.8135,13.4804 16,14.7453 L16,16 C16,17.6569 14.65685,19 13,19 L11,19 C9.34315,19 8,17.6569 8,16 L8,14.7453 Z" id="Union-(Stroke)"></path>
        </g>
    </g>
</svg>