<?xml version="1.0" encoding="UTF-8"?>
<svg width="21px" height="20px" viewBox="0 0 21 20" version="1.1" xmlns="http://www.w3.org/2000/svg" xmlns:xlink="http://www.w3.org/1999/xlink">
    <title>UI icon/thumbs_down/filled</title>
    <g id="👀-Icons" stroke="none" stroke-width="1" fill="none" fill-rule="evenodd">
        <g id="编组" transform="translate(-2.000000, -3.000000)" fill="#6F767E" fill-rule="nonzero">
            <g id="Group-194" transform="translate(2.000000, 3.500000)">
                <path d="M0,1.99999237 C0,0.895423371 0.895431,-7.62939453e-06 2,-7.62939453e-06 L3,-7.62939453e-06 C3.55228,-7.62939453e-06 4,0.447707371 4,0.999992371 L4,9.99999237 C4,10.5522924 3.55228,10.9999924 3,10.9999924 L2,10.9999924 C0.895431,10.9999924 0,10.1045924 0,8.99999237 L0,1.99999237 Z" id="Rectangle-183" transform="translate(2.000000, 5.499992) scale(1, -1) translate(-2.000000, -5.499992) "></path>
                <path d="M20.9253236,10.2036266 C21.2871072,8.88289991 20.2888388,7.58107114 18.9138731,7.58052082 L13.4464655,7.5783299 C13.1073128,7.57819492 12.8585383,7.26082386 12.9407922,6.93323546 L13.686928,3.96173278 C14.0704041,2.43454097 13.3370752,0.847083443 11.9228963,0.143087674 L11.9228963,0.143087674 C11.0775593,-0.277731914 10.0708329,0.274719046 9.97679418,1.21103479 L9.74967037,3.47228669 C9.6849477,4.11671659 9.42009159,4.72503275 8.99195831,5.21260981 L6.51549429,8.03289788 C6.18315911,8.41137571 6,8.89703182 6,9.39974799 L6,16.926722 C6,18.0736812 6.93384929,19.003418 8.08580961,19.003418 L16.125156,19.003418 C17.5360915,19.003418 18.7723509,18.0632977 19.143625,16.7080459 L20.9253236,10.2036266 Z" id="Path" transform="translate(13.500000, 9.501705) scale(1, -1) translate(-13.500000, -9.501705) "></path>
            </g>
        </g>
    </g>
</svg>