<?xml version="1.0" encoding="UTF-8"?>
<svg width="21px" height="20px" viewBox="0 0 21 20" version="1.1" xmlns="http://www.w3.org/2000/svg" xmlns:xlink="http://www.w3.org/1999/xlink">
    <title>UI icon/thumbs_down/light</title>
    <g id="👀-Icons" stroke="none" stroke-width="1" fill="none" fill-rule="evenodd">
        <g id="Union" transform="translate(-2.000000, -3.000000)" fill="#6F767E">
            <path d="M6.80002,13.9999771 L9.34261,17.1782771 C9.76816,17.7101771 10,18.3710771 10,19.0522771 L10,20.5096771 C10,21.7347771 11.20023,22.5998771 12.3625,22.2124771 C14.4572,21.5142771 15.7326,19.3958771 15.3696,17.2178771 L15,14.9999771 L19.1591,14.9981771 C21.1104,14.9973771 22.5416,13.1633771 22.0682,11.2703971 L20.5682,5.27217711 C20.2343,3.93676911 19.0344,2.99997711 17.6578,2.99997711 L8,2.99997711 C7.99677,2.99997711 7.99355,2.99997711 7.99033,2.99997711 L5,2.99997711 C3.34315,2.99997711 2,4.34314711 2,5.99999711 L2,10.9999971 C2,12.6568571 3.34315,13.9999771 5,13.9999771 L6.80002,13.9999771 Z M13.0272,15.3287771 C12.9306,14.7489771 13.0939,14.1560771 13.4737,13.7075771 C13.8535,13.2589771 14.4114,13.0002771 14.9991,12.9999771 L19.1582,12.9981971 C19.8087,12.9979171 20.2857,12.3865871 20.1279,11.7555971 L18.628,5.75737711 C18.5166,5.31223711 18.1167,4.99997711 17.6578,4.99997711 L8,4.99997711 L8,12.2984171 L10.90434,15.9288771 C11.6136,16.8153771 12,17.9169771 12,19.0522771 L12,20.2073771 C12.9985,19.7397771 13.582,18.6571771 13.3969,17.5466771 L13.0272,15.3287771 Z M6,11.9999971 L6,4.99999711 L5,4.99999711 C4.44772,4.99999711 4,5.44771711 4,5.99999711 L4,10.9999971 C4,11.5522871 4.44772,11.9999971 5,11.9999971 L6,11.9999971 Z"></path>
        </g>
    </g>
</svg>