<?xml version="1.0" encoding="UTF-8"?>
<svg width="18px" height="18px" viewBox="0 0 18 18" version="1.1" xmlns="http://www.w3.org/2000/svg" xmlns:xlink="http://www.w3.org/1999/xlink">
    <title>UI icon/database/filled</title>
    <g id="👀-Icons" stroke="none" stroke-width="1" fill="none" fill-rule="evenodd">
        <g id="编组" transform="translate(-3.000000, -3.000000)" fill="#6F767E" fill-rule="nonzero">
            <g>
                <path d="M3.824137,14.9040294 C3.466871,14.6948401 3,14.9601144 3,15.3983071 L3,16.6890846 C3,19.1379648 6.95053,21 12,21 C17.0495,21 21,19.1379648 21,16.6890846 L21,15.3983071 C21,14.9601144 20.5331,14.6948411 20.1759,14.9040305 C19.9913,15.0120685 19.8007,15.1146639 19.6047,15.2118665 C17.7779,16.1179745 15.2238,16.6890846 12,16.6890846 C8.77623,16.6890846 6.2221,16.1179745 4.39529,15.2118665 C4.19932,15.1146629 4.00865,15.0120674 3.824137,14.9040294 Z" id="Subtract"></path>
                <path d="M21,6.08571 C21,7.78991 16.9706,9 12,9 C7.02944,9 3,7.78991 3,6.08571 C3,4.38152 7.02944,3 12,3 C16.9706,3 21,4.38152 21,6.08571 Z" id="Ellipse-44"></path>
                <path d="M12,10.7302816 C14.6205,10.7302816 17.0869,10.3929632 18.9675,9.75751382 C19.3924,9.61394988 19.8124,9.4469249 20.2115,9.25134084 C20.5666,9.07734021 21,9.34155359 21,9.75860793 L21,11.2639964 C21,12.8651408 18.0495,15 12,15 C5.95053,15 3,12.8651408 3,11.2639964 L3,9.758609 C3,9.34155465 3.433372,9.07734021 3.788451,9.25134084 C4.18758,9.4469249 4.60758,9.61394988 5.03247,9.75751382 C6.91314,10.3929632 9.37947,10.7302816 12,10.7302816 Z" id="Subtract"></path>
            </g>
        </g>
    </g>
</svg>