<?xml version="1.0" encoding="UTF-8"?>
<svg width="18px" height="18px" viewBox="0 0 18 18" version="1.1" xmlns="http://www.w3.org/2000/svg" xmlns:xlink="http://www.w3.org/1999/xlink">
    <title>UI icon/database/light</title>
    <g id="👀-Icons" stroke="none" stroke-width="1" fill="none" fill-rule="evenodd">
        <g id="Union" transform="translate(-3.000000, -3.000000)" fill="#6F767E">
            <path d="M18.9874,7.10749 C18.9383,7.00005 18.6986,6.55708 17.5324,6.024 C16.2197,5.42387 14.2656,5 12,5 C9.73441,5 7.78033,5.42387 6.46756,6.024 C5.30145,6.55708 5.06172,7.00005 5.01259,7.10749 C5.06446,7.21134 5.30835,7.6001 6.41373,8.06663 C7.73109,8.62264 9.70059,9 12,9 C14.2994,9 16.2689,8.62264 17.5863,8.06663 C18.6916,7.6001 18.9355,7.21134 18.9874,7.10749 Z M12,11 C14.8273,11 17.35,10.47799 19,9.60965 L19,11.97937 C18.999,11.98097 18.9978333,11.98342 18.9965,11.98672 C18.9719,12.04818 18.7958,12.48732 17.5846,13.023 C16.2845,13.598 14.3257,14 12,14 C9.67429,14 7.71551,13.598 6.41542,13.023 C5.20421,12.48732 5.0283,12.0479 5.00368,11.98641 C5.00236,11.98311 5.00120333,11.9806567 5.00021,11.97905 L5.00004,9.60965 C6.65,10.478 9.17276,11 12,11 Z M21,12 L21,7.11429 L21,7 L20.9966,7 C20.8644,4.78051 16.8871,3 12,3 C7.11304,3 3.135816,4.78058 3.00340522,7 L3,7 L3,7.11429 L3,12 L3,17 C3,19.2723 6.95053,21 12,21 C17.0495,21 21,19.2723 21,17 L21,12 Z M19,14.5545 C17.3631,15.4467 14.8575,16 12,16 C9.14248,16 6.6369,15.4467 5.00004,14.5545 L5.00021,16.9791 C5.00120333,16.9807 5.00236,16.9831333 5.00368,16.9864 C5.0283,17.0479 5.20421,17.4873 6.41542,18.023 C7.71551,18.598 9.67429,19 12,19 C14.3257,19 16.2845,18.598 17.5846,18.023 C18.7958,17.4873 18.9719,17.0482 18.9965,16.9867 C18.9978333,16.9834333 18.999,16.981 19,16.9794 L19,14.5545 Z"></path>
        </g>
    </g>
</svg>