<?xml version="1.0" encoding="UTF-8"?>
<svg width="20px" height="16px" viewBox="0 0 20 16" version="1.1" xmlns="http://www.w3.org/2000/svg" xmlns:xlink="http://www.w3.org/1999/xlink">
    <title>UI icon/ticket/filled</title>
    <g id="👀-Icons" stroke="none" stroke-width="1" fill="none" fill-rule="evenodd">
        <g id="Subtract" transform="translate(-2.000000, -4.000000)" fill="#6F767E">
            <path d="M5,4 C3.34315,4 2,5.34315 2,7 L2,9 C2,9.55228 2.474524,9.97928 2.958972,10.24447 C3.57933,10.58407 4,11.24291 4,12 C4,12.75709 3.57933,13.41593 2.958971,13.75553 C2.474523,14.0207 2,14.4477 2,15 L2,17 C2,18.6569 3.34315,20 5,20 L19,20 C20.6569,20 22,18.6569 22,17 L22,15 C22,14.4477 21.5255,14.0207 21.041,13.75553 C20.4207,13.41593 20,12.75709 20,12 C20,11.24291 20.4207,10.58406 21.041,10.24447 C21.5255,9.97928 22,9.55228 22,9 L22,7 C22,5.34315 20.6569,4 19,4 L5,4 Z M12.9445,8.71739 C12.6332,7.82183 11.36668,7.82183 11.05538,8.71739 L10.81773,9.40107 C10.6804,9.79614 10.31171,10.06401 9.89354,10.07254 L9.16988,10.08728 C8.22196,10.1066 7.83058,11.31114 8.58611,11.88395 L9.16289,12.32124 C9.49619,12.57393 9.63702,13.00735 9.5159,13.40769 L9.3063,14.1005 C9.03175,15.008 10.0564,15.7524 10.83464,15.2109 L11.42876,14.7975 C11.77208,14.5586 12.2278,14.5586 12.5711,14.7975 L13.1652,15.2109 C13.9435,15.7524 14.9681,15.008 14.6936,14.1005 L14.484,13.40769 C14.3629,13.00735 14.5037,12.57393 14.837,12.32124 L15.4138,11.88395 C16.1693,11.31114 15.7779,10.1066 14.83,10.08728 L14.1063,10.07254 C13.6882,10.06401 13.3195,9.79614 13.1822,9.40107 L12.9445,8.71739 Z"></path>
        </g>
    </g>
</svg>