<?xml version="1.0" encoding="UTF-8"?>
<svg width="20px" height="16px" viewBox="0 0 20 16" version="1.1" xmlns="http://www.w3.org/2000/svg" xmlns:xlink="http://www.w3.org/1999/xlink">
    <title>UI icon/ticket/light</title>
    <g id="👀-Icons" stroke="none" stroke-width="1" fill="none" fill-rule="evenodd">
        <g id="编组" transform="translate(-2.000000, -4.000000)" fill="#6F767E">
            <path d="M5,6 C4.44772,6 4,6.44772 4,7 L4,8.53552 C5.19153,9.22431 6,10.51636 6,12 C6,13.48364 5.19153,14.7757 4,15.4645 L4,17 C4,17.5523 4.44772,18 5,18 L19,18 C19.5523,18 20,17.5523 20,17 L20,15.4645 C18.8085,14.7757 18,13.48364 18,12 C18,10.51636 18.8085,9.22431 20,8.53552 L20,7 C20,6.44772 19.5523,6 19,6 L5,6 Z M5,4 C3.34315,4 2,5.34315 2,7 L2,9 C2,9.55228 2.474524,9.97928 2.958972,10.24447 C3.57933,10.58407 4,11.24291 4,12 C4,12.75709 3.57933,13.41593 2.958971,13.75553 C2.474523,14.0207 2,14.4477 2,15 L2,17 C2,18.6569 3.34315,20 5,20 L19,20 C20.6569,20 22,18.6569 22,17 L22,15 C22,14.4477 21.5255,14.0207 21.041,13.75553 C20.4207,13.41593 20,12.75709 20,12 C20,11.24291 20.4207,10.58406 21.041,10.24447 C21.5255,9.97928 22,9.55228 22,9 L22,7 C22,5.34315 20.6569,4 19,4 L5,4 Z" id="Subtract-(Stroke)"></path>
            <path d="M12.0000028,11.1886972 C11.7743528,11.4153872 11.5137228,11.6047372 11.2284028,11.7492972 C11.3742628,12.0339472 11.4738228,12.3403272 11.5231328,12.6563572 C11.8389228,12.6055972 12.1610728,12.6055972 12.4768728,12.6563572 C12.5261828,12.3403272 12.6257328,12.0339472 12.7715928,11.7492972 C12.4862728,11.6047372 12.2256528,11.4153872 12.0000028,11.1886972 Z M12.9445628,8.71738724 C12.6332628,7.82182724 11.3667328,7.82182724 11.0554328,8.71738724 L10.8177828,9.40107724 C10.6804628,9.79614724 10.3117728,10.0640172 9.89359284,10.0725372 L9.16993584,10.0872872 C8.22201154,10.1065972 7.83063184,11.3111472 8.58616384,11.8839472 L9.16295084,12.3212372 C9.49625284,12.5739272 9.63707284,13.0073472 9.51596284,13.4076872 L9.30636284,14.1004872 C9.03180784,15.0079872 10.0564528,15.7524372 10.8346928,15.2108872 L11.4288228,14.7974572 C11.7721328,14.5585572 12.2278628,14.5585672 12.5711828,14.7974672 L13.1653028,15.2108872 C13.9435428,15.7524372 14.9681928,15.0079872 14.6936428,14.1004872 L14.4840428,13.4076872 C14.3629228,13.0073472 14.5037528,12.5739272 14.8370528,12.3212372 L15.4138328,11.8839472 C16.1693728,11.3111472 15.7779828,10.1065972 14.8300628,10.0872872 L14.1064028,10.0725372 C13.6882328,10.0640172 13.3195428,9.79614724 13.1822128,9.40107724 L12.9445628,8.71738724 Z" id="Star-3-(Stroke)"></path>
        </g>
    </g>
</svg>