<?xml version="1.0" encoding="UTF-8"?>
<svg width="20px" height="20px" viewBox="0 0 20 20" version="1.1" xmlns="http://www.w3.org/2000/svg" xmlns:xlink="http://www.w3.org/1999/xlink">
    <title>UI icon/update/filled</title>
    <g id="👀-Icons" stroke="none" stroke-width="1" fill="none" fill-rule="evenodd">
        <g id="编组" transform="translate(-2.000000, -2.000000)" fill="#6F767E">
            <path d="M4,12 C4,7.58172 7.58172,4 12,4 C14.5171,4 16.7288,5.1635 18.1822,6.99321 L16.5029,6.98829 C15.9506,6.98667 15.5016,7.43307 15.5,7.98535 C15.4984,8.53763 15.9448,8.98666 16.4971,8.98828 L20.0557,8.9987 L20.4971,9 C20.7628,9.00077 21.0179,8.89576 21.2061,8.70814 C21.3942,8.52052 21.5,8.26572 21.5,8 L21.5,4 C21.5,3.44771 21.0523,3 20.5,3 C19.9477,3 19.5,3.44772 19.5,4 L19.5,5.44947 C17.6875,3.34038 15.023,2 12,2 C6.47715,2 2,6.47715 2,12 C2,17.5228 6.47715,22 12,22 C15.9359,22 19.2641,19.7278 20.8955,16.445 C21.1413,15.9505 20.9396,15.3503 20.445,15.1045 C19.9505,14.8587 19.3503,15.0604 19.1045,15.555 C17.7905,18.1991 15.1315,20 12,20 C7.58172,20 4,16.4183 4,12 Z" id="Union" fill-rule="nonzero"></path>
            <path d="M12,7 C12.55228,7 13,7.447715 13,8 L13,11.58579 L14.70711,13.29289 C15.09763,13.68342 15.09763,14.31658 14.70711,14.70711 C14.31658,15.09763 13.68342,15.09763 13.29289,14.70711 L11.585786,13 C11.210714,12.62493 11,12.11622 11,11.58579 L11,8 C11,7.447715 11.447715,7 12,7 Z" id="Vector-479-(Stroke)"></path>
        </g>
    </g>
</svg>