<?xml version="1.0" encoding="UTF-8"?>
<svg width="20px" height="20px" viewBox="0 0 20 20" version="1.1" xmlns="http://www.w3.org/2000/svg" xmlns:xlink="http://www.w3.org/1999/xlink">
    <title>UI icon/send/filled</title>
    <g id="👀-Icons" stroke="none" stroke-width="1" fill="none" fill-rule="evenodd">
        <g id="编组" transform="translate(-2.000000, -2.000000)" fill="#6F767E" fill-rule="nonzero">
            <g id="Subtract">
                <path d="M6.29603589,2.90587017 C3.91013482,1.80468134 1.36183369,4.08551506 2.19280206,6.57843695 L3.45424462,10.3195198 C3.59136468,10.7261801 3.97267485,11.0000103 4.40182504,11.0000103 L13.0000389,11.0000103 C13.5523391,11.0000103 14.0000393,11.4477206 14.0000393,12.0000111 C14.0000393,12.5522915 13.5523391,13.0000318 13.0000389,13.0000318 L4.40183504,13.0000318 C3.97267485,13.0000318 3.59136468,13.273832 3.45424462,13.6805323 L2.19281306,17.4216352 C1.36183869,19.914537 3.91013482,22.1953388 6.29603589,21.0941379 L20.098242,14.7239331 C22.4220431,13.6514323 22.4220431,10.3486698 20.098242,9.27615899 L6.29603589,2.90587017 Z"></path>
            </g>
        </g>
    </g>
</svg>