<?xml version="1.0" encoding="UTF-8"?>
<svg width="20px" height="20px" viewBox="0 0 20 20" version="1.1" xmlns="http://www.w3.org/2000/svg" xmlns:xlink="http://www.w3.org/1999/xlink">
    <title>UI icon/send/light</title>
    <g id="👀-Icons" stroke="none" stroke-width="1" fill="none" fill-rule="evenodd">
        <g id="编组" transform="translate(-2.000000, -2.000000)" fill="#6F767E">
            <g id="Group-147" transform="translate(2.032234, 2.621424)">
                <path d="M0.160575413,3.95700977 C-0.670392587,1.46408977 1.87790741,-0.816742234 4.26380741,0.284445766 L18.0660074,6.65472977 C20.3898074,7.72723977 20.3898074,11.0299998 18.0660074,12.1024998 L4.26380741,18.4726998 C1.87790741,19.5738998 -0.670387587,17.2930998 0.160586413,14.8001998 L1.65154741,10.3272998 C1.85680741,9.71149977 1.85681741,9.04572977 1.65154741,8.42992977 L0.160575413,3.95700977 Z M3.42568741,2.10035977 L17.2279074,8.47064977 C18.0025074,8.82814977 18.0025074,9.92905977 17.2279074,10.2865998 L3.42569741,16.6567998 C2.63038741,17.0238998 1.78095741,16.2635998 2.05795741,15.4325998 L3.54890741,10.9597998 C3.61264741,10.7685998 3.66449741,10.5744998 3.70448741,10.3785998 L11.9678074,10.3785998 C12.5201074,10.3785998 12.9678074,9.93085977 12.9678074,9.37857977 C12.9678074,8.82628977 12.5201074,8.37857977 11.9678074,8.37857977 L3.70447741,8.37857977 C3.66448741,8.18270977 3.61263741,7.98864977 3.54891741,7.79747977 L2.05794741,3.32454977 C1.78094741,2.49357977 2.63038741,1.73329977 3.42568741,2.10035977 Z" id="Union"></path>
            </g>
        </g>
    </g>
</svg>