<?xml version="1.0" encoding="UTF-8"?>
<svg width="20px" height="16px" viewBox="0 0 20 16" version="1.1" xmlns="http://www.w3.org/2000/svg" xmlns:xlink="http://www.w3.org/1999/xlink">
    <title>UI icon/code/filled</title>
    <g id="👀-Icons" stroke="none" stroke-width="1" fill="none" fill-rule="evenodd">
        <g id="编组" transform="translate(-2.000000, -4.000000)" fill="#6F767E">
            <path d="M14.2928902,9.29289107 C14.6834154,8.90236686 15.3165803,8.90236676 15.7071115,9.29289107 L19.0000214,12.5857899 L22.2929213,9.29289307 C22.6834525,8.90236866 23.3166144,8.90236876 23.7071356,9.29289307 C24.0976267,9.68341829 24.0976267,10.3165786 23.7071356,10.7071089 L19.7071235,14.7071111 C19.3166024,15.0976313 18.6834304,15.0976313 18.2929093,14.7071111 L14.2928902,10.7071089 C13.9023652,10.3165786 13.9023649,9.68341629 14.2928902,9.29289107 Z" id="Vector-474-(Stroke)" transform="translate(19.000000, 12.000000) rotate(-90.000003) translate(-19.000000, -12.000000) "></path>
            <path d="M0.292890235,9.29289107 C0.68341541,8.90236686 1.31658032,8.90236676 1.70711149,9.29289107 L5.0000214,12.5857899 L8.29292131,9.29289307 C8.68345248,8.90236866 9.31661439,8.90236876 9.70713556,9.29289307 C10.0976267,9.68341829 10.0976267,10.3165786 9.70713556,10.7071089 L5.70712353,14.7071111 C5.31660235,15.0976313 4.68343045,15.0976313 4.29290927,14.7071111 L0.292890235,10.7071089 C-0.0976348399,10.3165786 -0.0976351399,9.68341629 0.292890235,9.29289107 Z" id="Vector-601-(Stroke)" transform="translate(5.000000, 12.000000) scale(1, -1) rotate(89.999997) translate(-5.000000, -12.000000) "></path>
            <path d="M9.72524804,4.03847611 C10.256282,3.88675168 10.8097719,4.19424353 10.9614919,4.72527828 L14.9614916,18.7252356 C15.1132216,19.2563353 14.8057216,19.8098351 14.2746916,19.961535 C13.7436517,20.1132349 13.1901717,19.8057351 13.0384418,19.2747353 L9.0384456,5.27472201 C8.88672112,4.74368627 9.19421309,4.19020053 9.72524804,4.03847611 Z" id="Vector-600-(Stroke)" transform="translate(11.999969, 12.000000) scale(1, -1) rotate(180.000000) translate(-11.999969, -12.000000) "></path>
        </g>
    </g>
</svg>