<?xml version="1.0" encoding="UTF-8"?>
<svg width="22px" height="16px" viewBox="0 0 22 16" version="1.1" xmlns="http://www.w3.org/2000/svg" xmlns:xlink="http://www.w3.org/1999/xlink">
    <title>UI icon/wifi/filled</title>
    <g id="👀-Icons" stroke="none" stroke-width="1" fill="none" fill-rule="evenodd">
        <g id="编组" transform="translate(-1.000000, -4.000000)" fill="#6F767E">
            <path d="M14,18 C14,19.10457 13.10457,20 12,20 C10.895431,20 10,19.10457 10,18 C10,16.895431 10.895431,16 12,16 C13.10457,16 14,16.895431 14,18 Z" id="Ellipse-28" fill-rule="nonzero"></path>
            <path d="M12.000014,14 C10.6167312,14 9.36623861,14.5603998 8.45995673,15.4689797 C8.06992593,15.8599997 7.43676362,15.8608097 7.04574382,15.4707797 C6.65472411,15.0807497 6.65392151,14.4475798 7.04395081,14.0565598 C8.31009643,12.7872079 10.06407,12 12.000014,12 C13.935958,12 15.6899317,12.7872079 16.9560743,14.0565598 C17.3460751,14.4475798 17.3452751,15.0807497 16.9542743,15.4707797 C16.5632635,15.8608097 15.9301022,15.8599997 15.5400714,15.4689797 C14.6337895,14.5603998 13.3832869,14 12.000014,14 Z" id="Ellipse-187-(Stroke)"></path>
            <path d="M12.0000327,10 C9.51670428,10 7.26988572,11.00446 5.64045676,12.6316599 C5.24966701,13.0219199 4.61650441,13.0214799 4.22624766,12.6306899 C3.83599071,12.2398999 3.83642351,11.60674 4.22721466,11.21648 C6.21630639,9.23009998 8.96547464,8 12.0000327,8 C15.0346308,8 17.783729,9.23009998 19.7728277,11.21648 C20.1636275,11.60674 20.1641275,12.2398999 19.7738277,12.6306899 C19.383528,13.0214799 18.7504284,13.0219199 18.3596286,12.6316599 C16.7302297,11.00446 14.4833311,10 12.0000327,10 Z" id="Ellipse-188-(Stroke)"></path>
            <path d="M12.0000145,6 C8.40947286,6 5.16049133,7.45433907 2.80678022,9.80848843 C2.41630004,10.1990483 1.78313074,10.1991083 1.39256955,9.80861843 C1.00200827,9.41812854 1.00194837,8.78496871 1.39243555,8.39440881 C4.10589083,5.68043955 7.8576726,4 12.0000145,4 C16.1424165,4 19.8942183,5.68043955 22.6076195,8.39440881 C22.9981197,8.78496871 22.9981197,9.41812854 22.6075195,9.80861843 C22.2170194,10.1991083 21.5838191,10.1990483 21.1933189,9.80848843 C18.8396178,7.45433907 15.5906162,6 12.0000145,6 Z" id="Ellipse-189-(Stroke)"></path>
        </g>
    </g>
</svg>