<?xml version="1.0" encoding="UTF-8"?>
<svg width="16px" height="20px" viewBox="0 0 16 20" version="1.1" xmlns="http://www.w3.org/2000/svg" xmlns:xlink="http://www.w3.org/1999/xlink">
    <title>UI icon/fire/filled</title>
    <g id="👀-Icons" stroke="none" stroke-width="1" fill="none" fill-rule="evenodd">
        <g id="编组" transform="translate(-4.000000, -2.000000)" fill="#6F767E" fill-rule="nonzero">
            <g id="Path">
                <path d="M12.0000134,2 C16.2526134,2 20.0000134,5.08091 20.0000134,9.18879001 C20.0000134,13.29667 17.0000134,15.35061 16.0000134,16.37758 C14.5939134,17.8216025 14.1521134,19.7192377 14.0254134,21.0250301 C13.9552634,21.7479142 13.2759434,22.2606804 12.6864034,21.8591351 C11.5335334,21.0739138 9.90376335,19.4713271 9.00001335,16.37758 C8.57166002,14.9112038 8.57166002,13.5419104 9.00001335,12.2697 C8.33334668,12.6120233 7.83334668,13.29667 7.50001335,14.32364 C7.33531335,14.8310659 7.11636335,15.449918 6.89676335,16.0517224 C6.58072335,16.9178689 5.44067335,16.9102694 5.16291335,16.0303615 C4.61498835,14.2946795 4.00001335,11.9584459 4.00001335,10.21576 C4.00001335,5.08091 7.74746335,2 12.0000134,2 Z" transform="translate(12.000013, 12.000000) scale(1, -1) translate(-12.000013, -12.000000) "></path>
            </g>
        </g>
    </g>
</svg>