<?xml version="1.0" encoding="UTF-8"?>
<svg width="16px" height="20px" viewBox="0 0 16 20" version="1.1" xmlns="http://www.w3.org/2000/svg" xmlns:xlink="http://www.w3.org/1999/xlink">
    <title>UI icon/fire/light</title>
    <g id="👀-Icons" stroke="none" stroke-width="1" fill="none" fill-rule="evenodd">
        <g id="Path-(Stroke)" transform="translate(-4.000000, -2.000000)" fill="#6F767E">
            <path d="M9.00001335,12.0000046 L8.10558335,13.7888646 C8.83274335,14.1524646 9.70763335,14.0396646 10.3188234,13.5035646 C10.9254634,12.9714646 11.1524934,12.1274746 10.8960734,11.3636246 L10.8950334,11.3603046 C10.8940834,11.3572046 10.8927434,11.3528146 10.8910734,11.3471646 C10.8690534,11.2729346 10.7913334,10.9880246 10.7471434,10.5851046 C10.6872234,10.0388146 10.6916934,9.32128459 10.9156634,8.57469459 C11.3102034,7.25957459 11.8572134,6.30587459 12.4048734,5.61854459 C12.7587334,6.85073459 13.4053434,8.23375459 14.5858134,9.41421459 C14.8113134,9.63970459 15.0573134,9.86370459 15.3107134,10.0943546 C16.5658134,11.2368446 18.0000134,12.5424646 18.0000134,14.9999646 C18.0000134,17.6054646 15.4622134,19.9999646 12.0000134,19.9999646 C8.72614335,19.9999646 6.00001335,17.7735646 6.00001335,13.9999646 C6.00001335,13.4258646 6.09374335,12.7328646 6.24354335,11.9962146 C6.49465335,12.3947646 6.76543335,12.7188646 7.02330335,12.9766646 C7.27364335,13.2270646 7.50869335,13.4120646 7.69753335,13.5428646 C7.82775335,13.6329646 7.96217335,13.7168646 8.10382335,13.7879646 C8.10499668,13.7885646 8.40372668,13.1925779 9.00001335,12.0000046 Z M8.96163335,8.13303459 C8.81984335,8.64477459 8.74995335,9.13824459 8.72523335,9.59159459 C8.67454668,10.5208213 8.76614002,11.3236246 9.00001335,12.0000046 C8.33334668,11.6666713 7.83334668,11.0000046 7.50001335,10.0000046 C7.33531335,9.50589459 7.11636335,8.90329459 6.89676335,8.31727459 C6.89055335,8.30068459 6.88401335,8.28442459 6.87717335,8.26849459 C6.53620335,7.47449459 5.43521335,7.49819459 5.16291335,8.33811459 C4.61498835,10.0282046 4.00001335,12.3030846 4.00001335,13.9999646 C4.00001335,18.9999646 7.74746335,21.9999646 12.0000134,21.9999646 C16.2526134,21.9999646 20.0000134,18.9999646 20.0000134,14.9999646 C20.0000134,11.5714246 17.7959134,9.61224459 16.5364134,8.49271459 C16.3265134,8.30612459 16.1429134,8.14285459 16.0000134,8.00000459 C14.5939134,6.59389459 14.1521134,4.74611459 14.0254134,3.47460159 C13.9552634,2.77067159 13.2759434,2.27144659 12.6864034,2.66243359 C10.8010934,3.91277459 9.55754335,5.98240459 8.96163335,8.13303459 Z"></path>
        </g>
    </g>
</svg>