<?xml version="1.0" encoding="UTF-8"?>
<svg width="18px" height="18px" viewBox="0 0 18 18" version="1.1" xmlns="http://www.w3.org/2000/svg" xmlns:xlink="http://www.w3.org/1999/xlink">
    <title>UI icon/size/filled</title>
    <g id="👀-Icons" stroke="none" stroke-width="1" fill="none" fill-rule="evenodd">
        <g id="编组" transform="translate(-3.000000, -3.000000)" fill="#6F767E">
            <path d="M20,9.99999952 C19.4477,9.99999952 19,9.55228952 19,8.99999952 L19,6.41428952 L6.41429,18.9999995 L9,18.9999995 C9.55228,18.9999995 10,19.4476995 10,19.9999995 C10,20.5522995 9.55228,20.9999995 9,20.9999995 L5,20.9999995 C3.895431,20.9999995 3,20.1045995 3,18.9999995 L3,14.9999995 C3,14.4476995 3.447715,13.9999995 4,13.9999995 C4.55228,13.9999995 5,14.4476995 5,14.9999995 L5,17.5858995 L17.5859,4.99999952 L15,4.99999952 C14.4477,4.99999952 14,4.55227952 14,3.99999952 C14,3.44771452 14.4477,2.99999952 15,2.99999952 L19,2.99999952 C20.1046,2.99999952 21,3.89543052 21,4.99999952 L21,8.99999952 C21,9.55228952 20.5523,9.99999952 20,9.99999952 Z" id="Union" fill-rule="nonzero"></path>
            <path d="M3,5 C3,3.895431 3.89543,3 5,3 L9,3 C9.55228,3 10,3.447715 10,4 C10,4.55228 9.55228,5 9,5 L5,5 L5,9 C5,9.55228 4.55228,10 4,10 C3.447715,10 3,9.55228 3,9 L3,5 Z" id="Vector-461-(Stroke)"></path>
            <path d="M14,16 C14,14.895431 14.89543,14 16,14 L20,14 C20.55228,14 21,14.447715 21,15 C21,15.55228 20.55228,16 20,16 L16,16 L16,20 C16,20.55228 15.55228,21 15,21 C14.447715,21 14,20.55228 14,20 L14,16 Z" id="Vector-465-(Stroke)" transform="translate(17.500000, 17.500000) rotate(-180.000000) translate(-17.500000, -17.500000) "></path>
        </g>
    </g>
</svg>