<?xml version="1.0" encoding="UTF-8"?>
<svg width="20px" height="19px" viewBox="0 0 20 19" version="1.1" xmlns="http://www.w3.org/2000/svg" xmlns:xlink="http://www.w3.org/1999/xlink">
    <title>UI icon/coffee/filled</title>
    <g id="👀-Icons" stroke="none" stroke-width="1" fill="none" fill-rule="evenodd">
        <g id="编组" transform="translate(-2.000000, -3.000000)" fill="#6F767E">
            <path d="M2,20.5 C2,19.947715 2.447715,19.5 3,19.5 L19,19.5 C19.5523,19.5 20,19.947715 20,20.5 C20,21.05228 19.5523,21.5 19,21.5 L3,21.5 C2.447715,21.5 2,21.05228 2,20.5 Z" id="Vector-238-(Stroke)"></path>
            <path d="M5,3 C3.895431,3 3,3.89543 3,5 L3,13 C3,15.7614 5.23858,18 8,18 L13,18 C15.6482,18 17.8155,15.9413 17.9888,13.3371 L19.9487,12.68377 C21.1737,12.27543 22,11.12901 22,9.83772 L22,7 C22,5.89543 21.1046,5 20,5 L18,5 C18,3.895431 17.1046,3 16,3 L5,3 Z M18,11.22515 L18,7 L20,7 L20,9.83772 C20,10.26815 19.7246,10.65029 19.3162,10.78641 L18,11.22515 Z" id="Union"></path>
        </g>
    </g>
</svg>