<?xml version="1.0" encoding="UTF-8"?>
<svg width="20px" height="18px" viewBox="0 0 20 18" version="1.1" xmlns="http://www.w3.org/2000/svg" xmlns:xlink="http://www.w3.org/1999/xlink">
    <title>UI icon/coffee/light</title>
    <g id="👀-Icons" stroke="none" stroke-width="1" fill="none" fill-rule="evenodd">
        <g id="编组" transform="translate(-2.000000, -3.000000)" fill="#6F767E">
            <path d="M17.9888,13.3371 C17.8155,15.9413 15.6482,18 13,18 L8,18 C5.23858,18 3,15.7614 3,13 L3,5 C3,3.89543 3.895431,3 5,3 L16,3 C17.1046,3 18,3.895431 18,5 L20,5 C21.1046,5 22,5.89543 22,7 L22,9.83772 C22,11.12901 21.1737,12.27543 19.9487,12.68377 L17.9888,13.3371 Z M5,5 L16,5 L16,13 C16,14.6569 14.6569,16 13,16 L8,16 C6.34315,16 5,14.6569 5,13 L5,5 Z M18,11.22515 L19.3162,10.78641 C19.7246,10.65029 20,10.26815 20,9.83772 L20,7 L18,7 L18,11.22515 Z" id="Union"></path>
            <path d="M2,20 C2,19.447715 2.447715,19 3,19 L19,19 C19.5523,19 20,19.447715 20,20 C20,20.55228 19.5523,21 19,21 L3,21 C2.447715,21 2,20.55228 2,20 Z" id="Vector-238-(Stroke)"></path>
        </g>
    </g>
</svg>