<?xml version="1.0" encoding="UTF-8"?>
<svg width="20px" height="20px" viewBox="0 0 20 20" version="1.1" xmlns="http://www.w3.org/2000/svg" xmlns:xlink="http://www.w3.org/1999/xlink">
    <title>UI icon/snapchat/light</title>
    <g id="👀-Icons" stroke="none" stroke-width="1" fill="none" fill-rule="evenodd">
        <g id="Vector-(Stroke)" transform="translate(-2.000000, -2.000000)" fill="#6F767E">
            <path d="M4.92053,12.0636 L4.80558,11.98792 C4.74025,11.94477 4.67495,11.90131 4.61041,11.85749 C3.95076,11.40954 3.37165,10.92336 3.66667,10.33333 C3.9538,9.75906 4.43463,9.86304 4.96223,9.97713 C5.12243,10.01177 5.28694,10.04734 5.45164,10.06514 C5.79404,10.10216 6.13728,10.06237 6.44444,9.77778 C6.43212,9.54939 6.41694,9.32551 6.402,9.1051 C6.31358,7.80052 6.23342,6.61786 6.80081,5.34581 C7.76907,3.11111 9.77778,2 12,2 C14.2222,2 16.2309,3.11111 17.1992,5.34581 C17.7666,6.61786 17.6864,7.80052 17.598,9.1051 C17.5831,9.32551 17.5679,9.54939 17.5556,9.77778 C17.8627,10.06237 18.206,10.10216 18.5484,10.06514 C18.7131,10.04734 18.8776,10.01177 19.0378,9.97713 C19.5654,9.86304 20.0462,9.75906 20.3333,10.33333 C20.6283,10.92336 20.0492,11.40954 19.3896,11.85749 C19.3251,11.90131 19.2597,11.94477 19.1944,11.98792 L19.0795,12.0636 C18.595,12.3822 18.1332,12.6859 18,13 C17.6391,13.8505 17.8947,14.7615 19,15.5 C19.643,15.9296 20.2351,16.1685 20.7203,16.3643 C21.497,16.6777 22,16.8806 22,17.5788 C22,18.6667 19.5764,18.9111 19,19 L18.3,19.9333 C18.1111,20.1851 17.814,20.3339 17.4992,20.3295 C16.2405,20.3117 15.8219,20.2642 14.7778,20.8889 C14.6875,20.9429 14.5971,20.9979 14.5064,21.0531 C13.7391,21.5203 12.9512,22 12,22 C11.04876,22 10.26085,21.5203 9.49358,21.0531 C9.40292,20.9979 9.31254,20.9429 9.22222,20.8889 C8.17809,20.2642 7.75948,20.3117 6.50075,20.3295 C6.18603,20.3339 5.88885,20.1851 5.7,19.9333 L5,19 C4.42359,18.9111 2,18.6667 2,17.5788 C2,16.8806 2.502953,16.6777 3.2797,16.3643 C3.76492,16.1685 4.35697,15.9296 5,15.5 C6.10535,14.7615 6.36094,13.8505 6,13 C5.86679,12.6859 5.40496,12.3822 4.92053,12.0636 Z M8.62734,6.16054 L8.63596,6.14095 C9.25355,4.71558 10.48649,4 12,4 C13.5135,4 14.7465,4.71558 15.364,6.14095 L15.3727,6.16054 C15.7252,6.95081 15.6848,7.59999 15.6037,8.90497 C15.5893,9.13762 15.5735,9.39112 15.5585,9.66998 C15.5264,10.26364 15.7602,10.84079 16.1963,11.24486 C16.3182,11.35786 16.4435,11.457 16.5709,11.54366 L16.1589,12.2187 C15.8024,13.059 15.7217,14.0277 16.0733,14.9829 C16.4299,15.9517 17.1694,16.705 18.0265,17.2529 C17.5797,17.5019 17.3081,17.9225 17.009,18.3213 C16.6031,18.3172 16.1603,18.3252 15.7362,18.3943 C15.0126,18.5123 14.4047,18.7815 13.751,19.1726 L13.6685,19.222 C12.6648,19.8226 12.3683,20 12,20 C11.6317,20 11.33523,19.8226 10.33153,19.222 L10.24902,19.1726 C9.59531,18.7815 8.9874,18.5123 8.26377,18.3943 C7.83974,18.3252 7.39692,18.3172 6.99096,18.3213 C6.69189,17.9225 6.42026,17.5019 5.97347,17.2529 C6.83058,16.705 7.57011,15.9517 7.92674,14.9829 C8.27833,14.0277 8.19755,13.059 7.84107,12.2187 C7.72522,11.94565 7.57387,11.72088 7.42907,11.54366 C7.55647,11.457 7.68178,11.35785 7.80373,11.24486 C8.23985,10.84079 8.47358,10.26364 8.44154,9.66998 C8.42648,9.39112 8.41073,9.13762 8.39628,8.90497 C8.31518,7.59999 8.27484,6.95081 8.62734,6.16054 Z"></path>
        </g>
    </g>
</svg>