<?xml version="1.0" encoding="UTF-8"?>
<svg width="18px" height="18px" viewBox="0 0 18 18" version="1.1" xmlns="http://www.w3.org/2000/svg" xmlns:xlink="http://www.w3.org/1999/xlink">
    <title>UI icon/category/light</title>
    <g id="👀-Icons" stroke="none" stroke-width="1" fill="none" fill-rule="evenodd">
        <g id="编组" transform="translate(-3.000000, -3.000000)" fill="#6F767E">
            <path d="M8,5 L6,5 C5.44772,5 5,5.44772 5,6 L5,8 C5,8.55228 5.44772,9 6,9 L8,9 C8.55228,9 9,8.55228 9,8 L9,6 C9,5.44772 8.55228,5 8,5 Z M6,3 C4.34315,3 3,4.34315 3,6 L3,8 C3,9.65685 4.34315,11 6,11 L8,11 C9.65685,11 11,9.65685 11,8 L11,6 C11,4.34315 9.65685,3 8,3 L6,3 Z" id="Rectangle-241-(Stroke)"></path>
            <path d="M8,15 L6,15 C5.44772,15 5,15.44772 5,16 L5,18 C5,18.55228 5.44772,19 6,19 L8,19 C8.55228,19 9,18.55228 9,18 L9,16 C9,15.44772 8.55228,15 8,15 Z M6,13 C4.34315,13 3,14.34315 3,16 L3,18 C3,19.65685 4.34315,21 6,21 L8,21 C9.65685,21 11,19.65685 11,18 L11,16 C11,14.34315 9.65685,13 8,13 L6,13 Z" id="Rectangle-243-(Stroke)"></path>
            <path d="M18,5 L16,5 C15.44772,5 15,5.44772 15,6 L15,8 C15,8.55228 15.44772,9 16,9 L18,9 C18.55228,9 19,8.55228 19,8 L19,6 C19,5.44772 18.55228,5 18,5 Z M16,3 C14.34315,3 13,4.34315 13,6 L13,8 C13,9.65685 14.34315,11 16,11 L18,11 C19.65685,11 21,9.65685 21,8 L21,6 C21,4.34315 19.65685,3 18,3 L16,3 Z" id="Rectangle-242-(Stroke)"></path>
            <path d="M18,15 L16,15 C15.44772,15 15,15.44772 15,16 L15,18 C15,18.55228 15.44772,19 16,19 L18,19 C18.55228,19 19,18.55228 19,18 L19,16 C19,15.44772 18.55228,15 18,15 Z M16,13 C14.34315,13 13,14.34315 13,16 L13,18 C13,19.65685 14.34315,21 16,21 L18,21 C19.65685,21 21,19.65685 21,18 L21,16 C21,14.34315 19.65685,13 18,13 L16,13 Z" id="Rectangle-244-(Stroke)"></path>
        </g>
    </g>
</svg>