<?xml version="1.0" encoding="UTF-8"?>
<svg width="20px" height="20px" viewBox="0 0 20 20" version="1.1" xmlns="http://www.w3.org/2000/svg" xmlns:xlink="http://www.w3.org/1999/xlink">
    <title>UI icon/notification_off/filled</title>
    <g id="👀-Icons" stroke="none" stroke-width="1" fill="none" fill-rule="evenodd">
        <g id="编组" transform="translate(-2.000000, -2.000000)" fill="#6F767E">
            <path d="M15.7384543,20.17582 C16.1348196,19.627814 15.6052968,19 14.8776026,19 L9.12230983,19 C8.39462337,19 7.86510396,19.627814 8.26145812,20.17582 C9.0555919,21.27379 10.4333377,22 11.9999562,22 C13.5665858,22 14.9443205,21.27379 15.7384543,20.17582 Z" id="Subtract" fill-rule="nonzero"></path>
            <g id="Subtract" transform="translate(2.000000, 2.000000)" fill-rule="nonzero">
                <path d="M4.08176,2.66589 C2.81919,4.08102 2.05416,5.94931 2.06086,7.99568 L2.06791,10.1473 C2.06969,10.692 1.84919,11.2139 1.45736,11.5924 L0.428635,12.586 C0.154705,12.8506 0,13.2151 0,13.5959 C0,14.3714 0.628628,15 1.40408,15 L16.4159,15 L4.08176,2.66589 Z" id="A1D326A3-1006-4BDD-96B7-B9FCAA054CE8"></path>
                <path d="M19.1341,14.8898 C19.6428,14.6756 20,14.1724 20,13.5858 C20,13.2107 19.851,12.851 19.5858,12.5858 L18.5858,11.5858 C18.2107,11.2107 18,10.702 18,10.1716 L18,7.96958 C18,3.5681 14.4319,0 10.0304,0 C8.38757,0 6.86112,0.496997 5.59295,1.34865 L19.1341,14.8898 Z" id="87277B70-6606-4769-AA42-AADF23978B11"></path>
            </g>
            <path d="M2.29289344,2.29289344 C2.68341793,1.90236885 3.31658172,1.90236885 3.7071122,2.29289344 L21.7071246,20.2929229 C22.0976251,20.6834234 22.0976251,21.3166241 21.7071246,21.7071246 C21.3166241,22.0976251 20.6834234,22.0976251 20.2929229,21.7071246 L2.29289344,3.7071122 C1.90236885,3.31658172 1.90236885,2.68341793 2.29289344,2.29289344 Z" id="Vector-606-(Stroke)"></path>
        </g>
    </g>
</svg>