<?xml version="1.0" encoding="UTF-8"?>
<svg width="20px" height="20px" viewBox="0 0 20 20" version="1.1" xmlns="http://www.w3.org/2000/svg" xmlns:xlink="http://www.w3.org/1999/xlink">
    <title>UI icon/notification_off/light</title>
    <g id="👀-Icons" stroke="none" stroke-width="1" fill="none" fill-rule="evenodd">
        <g id="编组" transform="translate(-2.000000, -2.000000)" fill="#6F767E">
            <g id="Subtract" transform="translate(2.000000, 2.000000)">
                <path d="M4.0809,2.66509 C2.818,4.08003 2.05253,5.9482 2.05867,7.9946 L2.06814,11.1476 C2.06977,11.6922 1.84928,12.2139 1.45759,12.5922 L0.428635,13.586 C0.154705,13.8506 0,14.2151 0,14.5959 C0,15.3714 0.628628,16 1.40408,16 L6,16 C6,18.2091 7.79086,20 10,20 C12.2091,20 14,18.2091 14,16 L17.4158,16 L15.4158,14 L2.87851,14 C3.64222,13.246 4.07136,12.2161 4.06813,11.1416 L4.05867,7.9886 C4.05419,6.49679 4.59712,5.13142 5.49817,4.08237 L4.0809,2.66509 Z M10,18 C8.89543,18 8,17.1046 8,16 L12,16 C12,17.1046 11.1046,18 10,18 Z" id="DC63EA07-9A4D-4950-8153-50992B638675"></path>
                <path d="M16.0507,11.8065 C16.0171,11.5978 16,11.3856 16,11.1716 L16,7.97067 C16,4.67316 13.3268,2 10.0293,2 C8.9414,2 7.92161,2.29092 7.04335,2.79912 L5.59234,1.34811 C6.86049,0.496775 8.38674,0 10.0293,0 C14.4314,0 18,3.56859 18,7.97067 L18,11.1716 C18,11.702 18.2107,12.2107 18.5858,12.5858 L19.5858,13.5858 C19.851,13.851 20,14.2107 20,14.5858 C20,14.9141 19.8881,15.2162 19.7005,15.4562 L16.0507,11.8065 Z" id="1FEFA1C8-CCBE-4B74-8674-F3B8C883C3A6" fill-rule="nonzero"></path>
            </g>
            <path d="M2.29289344,2.29289344 C2.68341793,1.90236885 3.31658172,1.90236885 3.7071122,2.29289344 L21.7071246,20.2929229 C22.0976251,20.6834234 22.0976251,21.3166241 21.7071246,21.7071246 C21.3166241,22.0976251 20.6834234,22.0976251 20.2929229,21.7071246 L2.29289344,3.7071122 C1.90236885,3.31658172 1.90236885,2.68341793 2.29289344,2.29289344 Z" id="Vector-606-(Stroke)"></path>
        </g>
    </g>
</svg>