<?xml version="1.0" encoding="UTF-8"?>
<svg width="20px" height="20px" viewBox="0 0 20 20" version="1.1" xmlns="http://www.w3.org/2000/svg" xmlns:xlink="http://www.w3.org/1999/xlink">
    <title>UI icon/archive/filled</title>
    <g id="👀-Icons" stroke="none" stroke-width="1" fill="none" fill-rule="evenodd">
        <g id="Union" transform="translate(-2.000000, -2.000000)" fill="#6F767E">
            <path d="M2,7.70156 C2,7.24742 2.154561,6.8068 2.438262,6.45217 L5.09927,3.12592 C5.66858,2.41427 6.53052,2 7.44187,2 L16.5581,2 C17.4695,2 18.3314,2.414269 18.9007,3.12591 L21.5617,6.45217 C21.8454,6.8068 22,7.24742 22,7.70156 L22,19 C22,20.6569 20.6569,22 19,22 L5,22 C3.34315,22 2,20.6569 2,19 L2,7.70156 Z M7.44187,4 L16.5581,4 C16.8619,4 17.1492,4.13809 17.339,4.3753 L19.1138,6.59383 C19.2448,6.75752 19.1282,7 18.9186,7 L5.08141,7 C4.87178,7 4.75524,6.75752 4.88619,6.59383 L6.66101,4.37531 C6.85078,4.13809 7.13809,4 7.44187,4 Z M13.002,10.99959 C13.002,10.4473 12.5542,9.99959 12.002,9.99959 C11.44967,9.99959 11.00195,10.4473 11.00195,10.99959 L11.00195,16.0859 L10.20711,15.291 C9.81658,14.9005 9.18342,14.9005 8.79289,15.291 C8.40237,15.6816 8.40237,16.3147 8.79289,16.7053 L10.58768,18.5 C11.36872,19.2811 12.635,19.2811 13.4161,18.5 L15.2071,16.7091 C15.5976,16.3185 15.5976,15.6854 15.2071,15.2948 C14.8166,14.9043 14.1834,14.9043 13.7929,15.2948 L13.002,16.0858 L13.002,10.99959 Z"></path>
        </g>
    </g>
</svg>