<?xml version="1.0" encoding="UTF-8"?>
<svg width="20px" height="20px" viewBox="0 0 20 20" version="1.1" xmlns="http://www.w3.org/2000/svg" xmlns:xlink="http://www.w3.org/1999/xlink">
    <title>UI icon/archive/light</title>
    <g id="👀-Icons" stroke="none" stroke-width="1" fill="none" fill-rule="evenodd">
        <g id="Union" transform="translate(-2.000000, -2.000000)" fill="#6F767E">
            <path d="M13.0018918,10.999588 C13.0018918,10.4473031 12.5541817,9.99958801 12.0018916,9.99958801 C11.4496115,9.99958801 11.0018914,10.4473031 11.0018914,10.999588 L11.0018914,15.0858287 L10.2071113,14.2910486 C9.81658119,13.9005185 9.18341808,13.9005185 8.79289401,14.2910486 C8.40236994,14.6815686 8.40236994,15.3147387 8.79289401,15.7052588 L10.5876813,17.500039 C11.3687215,18.2810891 12.6350517,18.2810891 13.4161018,17.500049 L15.2071022,15.7090488 C15.5976322,15.3185287 15.5976322,14.6853586 15.2071122,14.2948386 C14.8165921,13.9043085 14.183422,13.9043085 13.7929019,14.2948286 L13.0018918,15.0858287 L13.0018918,10.999588 Z" fill-rule="nonzero"></path>
            <path d="M2.0146541,6.82847 C2.0784224,6.22172 2.348246,5.65175 2.783612,5.21639 L5.12132,2.878679 C5.68393,2.31607 6.44699,2 7.24264,2 L16.7574,2 C17.553,2 18.3161,2.316071 18.8787,2.87868 L21.2164,5.21639 C21.6518,5.65176 21.9216,6.22172 21.9853,6.82847 C21.995,6.88421 22,6.94152 22,7 L22,19 C22,20.6569 20.6569,22 19,22 L5,22 C3.34315,22 2,20.6569 2,19 L2,7 C2,6.94152 2.00502053,6.8842 2.0146541,6.82847 Z M7.24264,4 L16.7574,4 C17.0226,4 17.2769,4.10536 17.4645,4.29289 L19.1716,6 L4.82843,6 L6.53553,4.29289 C6.72307,4.10536 6.97742,4 7.24264,4 Z M4,8 L4,19 C4,19.5523 4.44772,20 5,20 L19,20 C19.5523,20 20,19.5523 20,19 L20,8 L4,8 Z"></path>
        </g>
    </g>
</svg>