<?xml version="1.0" encoding="UTF-8"?>
<svg width="22px" height="22px" viewBox="0 0 22 22" version="1.1" xmlns="http://www.w3.org/2000/svg" xmlns:xlink="http://www.w3.org/1999/xlink">
    <title>UI icon/sun/filled</title>
    <g id="👀-Icons" stroke="none" stroke-width="1" fill="none" fill-rule="evenodd">
        <g id="编组" transform="translate(-1.000000, -1.000000)" fill="#6F767E">
            <path d="M12,18 C15.31371,18 18,15.31371 18,12 C18,8.68629 15.31371,6 12,6 C8.68629,6 6,8.68629 6,12 C6,15.31371 8.68629,18 12,18 Z" id="Oval"></path>
            <g id="Vector" transform="translate(1.496729, 1.500000)">
                <path d="M10.49839,0 C11.0507,0 11.4984,0.447715 11.4984,1 L11.4984,2 C11.4984,2.55228 11.0507,3 10.49839,3 C9.9461,3 9.49839,2.55228 9.49839,2 L9.49839,1 C9.49839,0.447715 9.9461,0 10.49839,0 Z" id="18B8E503-BF04-49B6-9CA5-1363453B356B"></path>
                <path d="M10.49839,18 C11.0507,18 11.4984,18.4477 11.4984,19 L11.4984,19.9968 C11.4984,20.5491 11.0507,20.9968 10.49839,20.9968 C9.9461,20.9968 9.49839,20.5491 9.49839,19.9968 L9.49839,19 C9.49839,18.4477 9.9461,18 10.49839,18 Z" id="75AE14D2-CDA5-4A34-9878-EA51C6BA29B0"></path>
                <path d="M0,10.49839 C0,9.9461 0.447715,9.49839 1,9.49839 L2,9.49839 C2.55228,9.49839 3,9.9461 3,10.49839 C3,11.0507 2.55228,11.4984 2,11.4984 L1,11.4984 C0.447715,11.4984 0,11.0507 0,10.49839 Z" id="BCE794A1-B752-41E1-83FC-48B366A8E6D4"></path>
                <path d="M18,10.49839 C18,9.9461 18.4477,9.49839 19,9.49839 L19.9968,9.49839 C20.5491,9.49839 20.9968,9.9461 20.9968,10.49839 C20.9968,11.0507 20.5491,11.4984 19.9968,11.4984 L19,11.4984 C18.4477,11.4984 18,11.0507 18,10.49839 Z" id="E11B44B1-98F3-4FA4-946E-349A02E2F952"></path>
                <path d="M3.075,17.9219 C2.68448,17.5313 2.68448,16.8982 3.075,16.5077 L3.78211,15.8005 C4.17264,15.41 4.8058,15.41 5.19632,15.8005 C5.58685,16.1911 5.58685,16.8242 5.19632,17.2148 L4.48922,17.9219 C4.09869,18.3124 3.46553,18.3124 3.075,17.9219 Z" id="FB6AC71A-F55B-4126-ADE3-456CB8F9E7D0"></path>
                <path d="M15.8029,5.19394 C15.4124,4.80342 15.4124,4.17025 15.8029,3.77973 L16.5078,3.0749 C16.8983,2.68438 17.5314,2.68438 17.922,3.0749 C18.3125,3.46543 18.3125,4.09859 17.922,4.48911 L17.2171,5.19394 C16.8266,5.58447 16.1935,5.58447 15.8029,5.19394 Z" id="E2D2194A-9D7E-4A95-830F-970A917750AD"></path>
                <path d="M3.075,3.0749 C3.46553,2.68438 4.09869,2.68438 4.48922,3.0749 L5.19632,3.78201 C5.58685,4.17253 5.58685,4.8057 5.19632,5.19622 C4.8058,5.58675 4.17263,5.58675 3.78211,5.19622 L3.075,4.48911 C2.68448,4.09859 2.68448,3.46543 3.075,3.0749 Z" id="7E14DF2E-B83E-4C28-B8A3-C56D1D574198"></path>
                <path d="M15.8029,15.8028 C16.1935,15.4123 16.8266,15.4123 17.2171,15.8028 L17.922,16.5077 C18.3125,16.8982 18.3125,17.5313 17.922,17.9219 C17.5314,18.3124 16.8983,18.3124 16.5078,17.9219 L15.8029,17.217 C15.4124,16.8265 15.4124,16.1933 15.8029,15.8028 Z" id="EF63BA4F-E3AB-48E6-9EBC-09DDB742800E"></path>
            </g>
        </g>
    </g>
</svg>