<?xml version="1.0" encoding="UTF-8"?>
<svg width="20px" height="20px" viewBox="0 0 20 20" version="1.1" xmlns="http://www.w3.org/2000/svg" xmlns:xlink="http://www.w3.org/1999/xlink">
    <title>UI icon/sun/light</title>
    <g id="👀-Icons" stroke="none" stroke-width="1" fill="none" fill-rule="evenodd">
        <g id="编组" transform="translate(-2.000000, -2.000000)" fill="#6F767E">
            <path d="M12,16 C14.20914,16 16,14.20914 16,12 C16,9.79086 14.20914,8 12,8 C9.79086,8 8,9.79086 8,12 C8,14.20914 9.79086,16 12,16 Z M18,12 C18,15.31371 15.31371,18 12,18 C8.68629,18 6,15.31371 6,12 C6,8.68629 8.68629,6 12,6 C15.31371,6 18,8.68629 18,12 Z" id="Oval-(Stroke)"></path>
            <path d="M11.9951782,2 C12.5474582,2 12.9951782,2.447715 12.9951782,3 L12.9951782,4 C12.9951782,4.55228 12.5474582,5 11.9951782,5 C11.4428932,5 10.9951782,4.55228 10.9951782,4 L10.9951782,3 C10.9951782,2.447715 11.4428932,2 11.9951782,2 Z" id="Path-(Stroke)"></path>
            <path d="M11.9951782,18.9996338 C12.5474582,18.9996338 12.9951782,19.4473483 12.9951782,19.9996338 L12.9951782,20.9964118 C12.9951782,21.5486913 12.5474582,21.9964108 11.9951782,21.9964108 C11.4428932,21.9964108 10.9951782,21.5486913 10.9951782,20.9964118 L10.9951782,19.9996338 C10.9951782,19.4473483 11.4428932,18.9996338 11.9951782,18.9996338 Z" id="Path-(Stroke)"></path>
            <path d="M6.06471812,4.45650142 C6.61699812,4.45650142 7.06471812,4.90421604 7.06471812,5.45650142 L7.06471812,6.67904955 C7.06471812,7.23132909 6.61699812,7.67904871 6.06471812,7.67904871 C5.51243312,7.67904871 5.06471812,7.23132909 5.06471812,6.67904955 L5.06471812,5.45650142 C5.06471812,4.90421604 5.51243312,4.45650142 6.06471812,4.45650142 Z" id="Path-(Stroke)" transform="translate(6.064718, 6.067775) rotate(-45.000000) translate(-6.064718, -6.067775) "></path>
            <path d="M17.9289692,16.3254184 C18.4812497,16.3254184 18.9289501,16.7731515 18.9289501,17.3254385 L18.9289501,18.5385886 C18.9289284,19.0908687 18.4811997,19.5385687 17.9289112,19.5385687 C17.3766258,19.5385687 16.9289284,19.0908387 16.9289284,18.5385486 L16.92895,17.3254005 C16.9289598,16.7731155 17.3766838,16.3254184 17.9289692,16.3254184 Z" id="Path-(Stroke)" transform="translate(17.928939, 17.931994) rotate(-45.000000) translate(-17.928939, -17.931994) "></path>
            <path d="M3.49694824,10.49823 C4.04922824,10.49823 4.49694824,10.945945 4.49694824,11.49823 L4.49694824,12.49823 C4.49694824,13.05051 4.04922824,13.49823 3.49694824,13.49823 C2.94466324,13.49823 2.49694824,13.05051 2.49694824,12.49823 L2.49694824,11.49823 C2.49694824,10.945945 2.94466324,10.49823 3.49694824,10.49823 Z" id="Path-(Stroke)" transform="translate(3.496948, 11.998230) rotate(-90.000000) translate(-3.496948, -11.998230) "></path>
            <path d="M20.4949951,10.4998169 C21.0472751,10.4998169 21.4949951,10.9475315 21.4949951,11.4998169 L21.4949951,12.4965949 C21.4949951,13.0488744 21.0472751,13.496594 20.4949951,13.496594 C19.9427101,13.496594 19.4949951,13.0488744 19.4949951,12.4965949 L19.4949951,11.4998169 C19.4949951,10.9475315 19.9427101,10.4998169 20.4949951,10.4998169 Z" id="Path-(Stroke)" transform="translate(20.494995, 11.998205) rotate(-90.000000) translate(-20.494995, -11.998205) "></path>
            <path d="M6.06291641,16.3216806 C6.61519641,16.3216806 7.06291641,16.7693957 7.06291641,17.3216806 L7.06291641,18.5392212 C7.06291641,19.0915113 6.61519641,19.5392214 6.06291641,19.5392214 C5.51063141,19.5392214 5.06291641,19.0915113 5.06291641,18.5392212 L5.06291641,17.3216806 C5.06291641,16.7693957 5.51063141,16.3216806 6.06291641,16.3216806 Z" id="Path-(Stroke)" transform="translate(6.062916, 17.930451) rotate(-135.000000) translate(-6.062916, -17.930451) "></path>
            <path d="M17.9257158,4.45642332 C18.4779963,4.45642332 18.9256967,4.90415665 18.9256967,5.45644405 L18.9256967,6.67904495 C18.925675,7.23132536 18.4779463,7.67902569 17.9256578,7.67902569 C17.3733734,7.67902569 16.925675,7.23129536 16.925675,6.67900495 L16.9256966,5.45640605 C16.9257063,4.90412165 17.3734304,4.45642332 17.9257158,4.45642332 Z" id="Path-(Stroke)" transform="translate(17.925686, 6.067725) rotate(-135.000000) translate(-17.925686, -6.067725) "></path>
        </g>
    </g>
</svg>