<?xml version="1.0" encoding="UTF-8"?>
<svg width="20px" height="20px" viewBox="0 0 20 20" version="1.1" xmlns="http://www.w3.org/2000/svg" xmlns:xlink="http://www.w3.org/1999/xlink">
    <title>UI icon/cloud_off/filled</title>
    <g id="👀-Icons" stroke="none" stroke-width="1" fill="none" fill-rule="evenodd">
        <g id="编组" transform="translate(-2.000000, -2.000000)" fill="#6F767E">
            <g id="Subtract" transform="translate(2.000000, 5.000000)" fill-rule="nonzero">
                <path d="M7.3216,2.90574 C7.02136,3.32142 6.76564,3.77138 6.56143,4.24864 C6.07015,4.08728 5.54527,4 5,4 C2.23858,4 0,6.23858 0,9 C0,11.7614 2.23858,14 5,14 L13,14 C14.5287,14 15.943,13.51 17.0943,12.6784 L7.3216,2.90574 Z" id="95B09E20-C321-4872-AEFB-4D7196F9A050"></path>
                <path d="M18.5329,11.2886 C19.4525,10.1039 20,8.61587 20,7 C20,3.13401 16.866,0 13,0 C11.3841,0 9.89614,0.547507 8.71142,1.46713 L18.5329,11.2886 Z" id="F56209B6-1B3C-461A-AC0D-31C6EF8B841A"></path>
            </g>
            <path d="M2.29289344,2.29289344 C2.68341793,1.90236885 3.31658172,1.90236885 3.7071122,2.29289344 L21.7071246,20.2929229 C22.0976251,20.6834234 22.0976251,21.3166241 21.7071246,21.7071246 C21.3166241,22.0976251 20.6834234,22.0976251 20.2929229,21.7071246 L2.29289344,3.7071122 C1.90236885,3.31658172 1.90236885,2.68341793 2.29289344,2.29289344 Z" id="Vector-606-(Stroke)"></path>
        </g>
    </g>
</svg>