<?xml version="1.0" encoding="UTF-8"?>
<svg width="20px" height="20px" viewBox="0 0 20 20" version="1.1" xmlns="http://www.w3.org/2000/svg" xmlns:xlink="http://www.w3.org/1999/xlink">
    <title>UI icon/cloud_off/light</title>
    <g id="👀-Icons" stroke="none" stroke-width="1" fill="none" fill-rule="evenodd">
        <g id="编组" transform="translate(-2.000000, -2.000000)" fill="#6F767E">
            <g id="Subtract" transform="translate(2.000000, 5.000000)" fill-rule="nonzero">
                <path d="M7.32157,2.90577 C7.02134,3.32144 6.76563,3.7714 6.56143,4.24864 C6.07015,4.08728 5.54527,4 5,4 C2.23858,4 0,6.23858 0,9 C0,11.7614 2.23858,14 5,14 L13,14 C14.5287,14 15.9429,13.51 17.0942,12.6784 L15.654,11.2382 C14.8849,11.7209 13.975,12 13,12 L5,12 C3.34315,12 2,10.6569 2,9 C2,7.34315 3.34315,6 5,6 C5.33064,6 5.64499,6.05275 5.93736,6.14878 C6.92281,6.47243 7.99215,5.98901 8.40018,5.0354 C8.50298,4.79514 8.62399,4.56465 8.76145,4.34565 L7.32157,2.90577 Z" id="18F8A326-31BA-4858-9A89-22CA6EC611EE"></path>
                <path d="M17.1028,9.85857 C17.6683,9.04842 18,8.06294 18,7 C18,4.23858 15.7614,2 13,2 C11.938,2 10.9521,2.3312 10.1413,2.89704 L8.71138,1.46715 C9.89611,0.547517 11.3841,0 13,0 C16.866,0 20,3.13401 20,7 C20,8.61588 19.4525,10.1039 18.5328,11.2886 L17.1028,9.85857 Z" id="543D6F45-64E6-42A2-8FCA-3C42C0EC2553"></path>
            </g>
            <path d="M2.29289344,2.29289344 C2.68341793,1.90236885 3.31658172,1.90236885 3.7071122,2.29289344 L21.7071246,20.2929229 C22.0976251,20.6834234 22.0976251,21.3166241 21.7071246,21.7071246 C21.3166241,22.0976251 20.6834234,22.0976251 20.2929229,21.7071246 L2.29289344,3.7071122 C1.90236885,3.31658172 1.90236885,2.68341793 2.29289344,2.29289344 Z" id="Vector-606-(Stroke)"></path>
        </g>
    </g>
</svg>