<?xml version="1.0" encoding="UTF-8"?>
<svg width="20px" height="20px" viewBox="0 0 20 20" version="1.1" xmlns="http://www.w3.org/2000/svg" xmlns:xlink="http://www.w3.org/1999/xlink">
    <title>UI icon/calendar/filled</title>
    <g id="👀-Icons" stroke="none" stroke-width="1" fill="none" fill-rule="evenodd">
        <g id="编组" transform="translate(-2.000000, -2.000000)" fill="#6F767E" fill-rule="nonzero">
            <g>
                <path d="M2,13 C2,12.447715 2.447715,12 3,12 L21,12 C21.5523,12 22,12.447715 22,13 L22,19 C22,20.65685 20.6569,22 19,22 L5,22 C3.34315,22 2,20.65685 2,19 L2,13 Z" id="Rectangle-Copy-228"></path>
                <path d="M7,2 C7.55228,2 8,2.447715 8,3 L8,4 L16,4 L16,3 C16,2.447715 16.4477,2 17,2 C17.5523,2 18,2.447715 18,3 L18,4 L19,4 C20.6569,4 22,5.34315 22,7 L22,9 C22,9.55228 21.5523,10 21,10 L3,10 C2.447716,10 2,9.55228 2,9 L2,7 C2,5.34315 3.34315,4 5,4 L6,4 L6,3 C6,2.447715 6.44772,2 7,2 Z" id="Union"></path>
            </g>
        </g>
    </g>
</svg>