<?xml version="1.0" encoding="UTF-8"?>
<svg width="20px" height="18px" viewBox="0 0 20 18" version="1.1" xmlns="http://www.w3.org/2000/svg" xmlns:xlink="http://www.w3.org/1999/xlink">
    <title>UI icon/film/filled</title>
    <g id="👀-Icons" stroke="none" stroke-width="1" fill="none" fill-rule="evenodd">
        <g id="Union" transform="translate(-2.000000, -3.000000)" fill="#6F767E">
            <path d="M22,18 C22,19.6569 20.6569,21 19,21 L5,21 C3.34315,21 2,19.6569 2,18 L2,6 C2,4.34315 3.34315,3 5,3 L19,3 C20.6569,3 22,4.34315 22,6 L22,18 Z M16,5.5 C16,5.22386 15.7761,5 15.5,5 L13.5,5 C13.2239,5 13,5.22386 13,5.5 L13,7 C13,7.27614 13.2239,7.5 13.5,7.5 L15.5,7.5 C15.7761,7.5 16,7.27614 16,7 L16,5.5 Z M18,7 C18,7.27614 18.2239,7.5 18.5,7.5 L19.5,7.5 C19.7761,7.5 20,7.27614 20,7 L20,6 C20,5.44771 19.5523,5 19,5 L18.5,5 C18.2239,5 18,5.22386 18,5.5 L18,7 Z M4,7 C4,7.27614 4.22386,7.5 4.5,7.5 L5.5,7.5 C5.77614,7.5 6,7.27614 6,7 L6,5.5 C6,5.22386 5.77614,5 5.5,5 L5,5 C4.44772,5 4,5.44772 4,6 L4,7 Z M8,7 C8,7.27614 8.22386,7.5 8.5,7.5 L10.5,7.5 C10.77614,7.5 11,7.27614 11,7 L11,5.5 C11,5.22386 10.77614,5 10.5,5 L8.5,5 C8.22386,5 8,5.22386 8,5.5 L8,7 Z M4.5,16.5 C4.22386,16.5 4,16.7239 4,17 L4,18 C4,18.5523 4.44772,19 5,19 L5.5,19 C5.77614,19 6,18.7761 6,18.5 L6,17 C6,16.7239 5.77614,16.5 5.5,16.5 L4.5,16.5 Z M8.5,16.5 C8.22386,16.5 8,16.7239 8,17 L8,18.5 C8,18.7761 8.22386,19 8.5,19 L10.5,19 C10.77614,19 11,18.7761 11,18.5 L11,17 C11,16.7239 10.77614,16.5 10.5,16.5 L8.5,16.5 Z M13.5,16.5 C13.2239,16.5 13,16.7239 13,17 L13,18.5 C13,18.7761 13.2239,19 13.5,19 L15.5,19 C15.7761,19 16,18.7761 16,18.5 L16,17 C16,16.7239 15.7761,16.5 15.5,16.5 L13.5,16.5 Z M18.5,16.5 C18.2239,16.5 18,16.7239 18,17 L18,18.5 C18,18.7761 18.2239,19 18.5,19 L19,19 C19.5523,19 20,18.5523 20,18 L20,17 C20,16.7239 19.7761,16.5 19.5,16.5 L18.5,16.5 Z"></path>
        </g>
    </g>
</svg>