<?xml version="1.0" encoding="UTF-8"?>
<svg width="20px" height="18px" viewBox="0 0 20 18" version="1.1" xmlns="http://www.w3.org/2000/svg" xmlns:xlink="http://www.w3.org/1999/xlink">
    <title>UI icon/film/light</title>
    <g id="👀-Icons" stroke="none" stroke-width="1" fill="none" fill-rule="evenodd">
        <g id="Union" transform="translate(-2.000000, -3.000000)" fill="#6F767E">
            <path d="M13,5 L16,5 L16,7 L13,7 L13,5 Z M18,7 L18,5 L19,5 C19.5523,5 20,5.44771 20,6 L20,7 L18,7 Z M13,9 L17,9 L20,9 L20,15 L17,15 L13,15 L13,9 Z M16,17 L13,17 L13,19 L16,19 L16,17 Z M18,19 L18,17 L20,17 L20,18 C20,18.5523 19.5523,19 19,19 L18,19 Z M11,5 L8,5 L8,7 L11,7 L11,5 Z M11,9 L7,9 L4,9 L4,15 L7,15 L11,15 L11,9 Z M11,17 L8,17 L8,19 L11,19 L11,17 Z M12,21 L19,21 C20.6569,21 22,19.6569 22,18 L22,16 L22,8 L22,6 C22,4.34315 20.6569,3 19,3 L5,3 C3.34315,3 2,4.34315 2,6 L2,8 L2,16 L2,18 C2,19.6569 3.34315,21 5,21 L12,21 Z M6,5 L5,5 C4.44772,5 4,5.44772 4,6 L4,7 L6,7 L6,5 Z M4,18 L4,17 L6,17 L6,19 L5,19 C4.44772,19 4,18.5523 4,18 Z"></path>
        </g>
    </g>
</svg>