<?xml version="1.0" encoding="UTF-8"?>
<svg width="21px" height="14px" viewBox="0 0 21 14" version="1.1" xmlns="http://www.w3.org/2000/svg" xmlns:xlink="http://www.w3.org/1999/xlink">
    <title>UI icon/fast_backward/filled</title>
    <g id="👀-Icons" stroke="none" stroke-width="1" fill="none" fill-rule="evenodd">
        <g id="编组" transform="translate(-1.000000, -5.000000)" fill="#6F767E" fill-rule="nonzero">
            <g id="Union">
                <path d="M2.66666746,14.0000077 C1.33333368,13.0000069 1.33333368,11.0000053 2.66666746,10.0000045 L8.00000728,6.00000028 C9.64809989,4.76393129 11.9999836,5.93988723 11.9999836,8.00000289 L11.9999836,10.7490751 C12.1626839,10.4673149 12.3848842,10.2113247 12.6666847,10.0000045 L17.9999932,6.00000028 C19.6480958,4.76393129 21.9999995,5.93988723 21.9999995,8.00000289 L21.9999995,15.9999693 C21.9999995,18.060171 19.6480958,19.2360719 17.9999932,17.9999709 L12.6666847,14.0000077 C12.3848842,13.7886775 12.1626839,13.5326973 11.9999836,13.2509371 L11.9999836,15.9999693 C11.9999836,18.060171 9.64809989,19.2360719 8.00000728,17.9999709 L2.66666746,14.0000077 Z"></path>
            </g>
        </g>
    </g>
</svg>