<?xml version="1.0" encoding="UTF-8"?>
<svg width="20px" height="12px" viewBox="0 0 20 12" version="1.1" xmlns="http://www.w3.org/2000/svg" xmlns:xlink="http://www.w3.org/1999/xlink">
    <title>UI icon/fast_backward/light</title>
    <g id="👀-Icons" stroke="none" stroke-width="1" fill="none" fill-rule="evenodd">
        <g id="编组" transform="translate(-2.000000, -6.000000)" fill="#6F767E">
            <path d="M15.6,15.8000031 L19.6,12.8000031 C20.13333,12.4000031 20.13333,11.6000031 19.6,11.2000031 L15.6,8.20000313 C14.94076,7.70557313 14,8.17595313 14,9.00000313 L14,15.0000031 C14,15.8240431 14.94076,16.2944531 15.6,15.8000031 Z M20.8,14.4000031 C22.4,13.2000031 22.4,10.8000031 20.8,9.60000313 L16.8,6.60000013 C14.82229,5.11671813 12,6.52786313 12,9.00000313 L12,15.0000031 C12,17.4721531 14.82229,18.8832531 16.8,17.3999531 L20.8,14.4000031 Z" id="Polygon-3-(Stroke)" transform="translate(17.000000, 12.000000) scale(1, -1) rotate(180.000000) translate(-17.000000, -12.000000) "></path>
            <path d="M5.6,15.8000031 L9.6,12.8000031 C10.13333,12.4000031 10.13333,11.6000031 9.6,11.2000031 L5.6,8.20000313 C4.94076,7.70557313 4,8.17595313 4,9.00000313 L4,15.0000031 C4,15.8240431 4.94076,16.2944531 5.6,15.8000031 Z M10.8,14.4000031 C12.4,13.2000031 12.4,10.8000031 10.8,9.60000313 L6.8,6.60000013 C4.82229,5.11671813 2,6.52786313 2,9.00000313 L2,15.0000031 C2,17.4721531 4.82229,18.8832531 6.8,17.3999531 L10.8,14.4000031 Z" id="Polygon-4-(Stroke)" transform="translate(7.000000, 12.000000) scale(1, -1) rotate(180.000000) translate(-7.000000, -12.000000) "></path>
        </g>
    </g>
</svg>