<?xml version="1.0" encoding="UTF-8"?>
<svg width="20px" height="20px" viewBox="0 0 20 20" version="1.1" xmlns="http://www.w3.org/2000/svg" xmlns:xlink="http://www.w3.org/1999/xlink">
    <title>UI icon/printer/filled</title>
    <g id="👀-Icons" stroke="none" stroke-width="1" fill="none" fill-rule="evenodd">
        <g id="Subtract" transform="translate(-2.000000, -2.000000)" fill="#6F767E">
            <path d="M7,4.5 L7,7 L5,7 C3.34315,7 2,8.34315 2,10 L2,16 C2,17.6569 3.34315,19 5,19 L7,19 L7,19.5 C7,20.8807 8.11929,22 9.5,22 L14.5,22 C15.8807,22 17,20.8807 17,19.5 L17,19 L19,19 C20.6569,19 22,17.6569 22,16 L22,10 C22,8.34315 20.6569,7 19,7 L17,7 L17,4.5 C17,3.11929 15.8807,2 14.5,2 L9.5,2 C8.11929,2 7,3.11929 7,4.5 Z M14.5,4 L9.5,4 C9.22386,4 9,4.22386 9,4.5 L9,7 L15,7 L15,4.5 C15,4.22386 14.7761,4 14.5,4 Z M9.5,16 L14.5,16 C14.7761,16 15,16.2239 15,16.5 L15,19.5 C15,19.7761 14.7761,20 14.5,20 L9.5,20 C9.22386,20 9,19.7761 9,19.5 L9,16.5 C9,16.2239 9.22386,16 9.5,16 Z M20,10 C20,10.55228 19.5523,11 19,11 C18.4477,11 18,10.55228 18,10 C18,9.44772 18.4477,9 19,9 C19.5523,9 20,9.44772 20,10 Z"></path>
        </g>
    </g>
</svg>