<?xml version="1.0" encoding="UTF-8"?>
<svg width="20px" height="20px" viewBox="0 0 20 20" version="1.1" xmlns="http://www.w3.org/2000/svg" xmlns:xlink="http://www.w3.org/1999/xlink">
    <title>UI icon/printer/light</title>
    <g id="👀-Icons" stroke="none" stroke-width="1" fill="none" fill-rule="evenodd">
        <g id="编组" transform="translate(-2.000000, -2.000000)" fill="#6F767E">
            <path d="M7,5 L7,7 L5,7 C3.34315,7 2,8.34315 2,10 L2,16 C2,17.6569 3.34315,19 5,19 L7,19 C7,20.6569 8.34315,22 10,22 L14,22 C15.6569,22 17,20.6569 17,19 L19,19 C20.6569,19 22,17.6569 22,16 L22,10 C22,8.34315 20.6569,7 19,7 L17,7 L17,5 C17,3.34315 15.6569,2 14,2 L10,2 C8.34315,2 7,3.34315 7,5 Z M17,17 L19,17 C19.5523,17 20,16.5523 20,16 L20,10 C20,9.44771 19.5523,9 19,9 L5,9 C4.44772,9 4,9.44772 4,10 L4,16 C4,16.5523 4.44772,17 5,17 L7,17 L7,16 C6.44772,16 6,15.5523 6,15 C6,14.4477 6.44772,14 7,14 L17,14 C17.5523,14 18,14.4477 18,15 C18,15.5523 17.5523,16 17,16 L17,17 Z M15,16 L9,16 L9,19 C9,19.5523 9.44772,20 10,20 L14,20 C14.5523,20 15,19.5523 15,19 L15,16 Z M14,4 L10,4 C9.44771,4 9,4.44772 9,5 L9,7 L15,7 L15,5 C15,4.44772 14.5523,4 14,4 Z" id="Union"></path>
            <path d="M18,12 C18.55228,12 19,11.55228 19,11 C19,10.447715 18.55228,10 18,10 C17.447715,10 17,10.447715 17,11 C17,11.55228 17.447715,12 18,12 Z" id="Ellipse-16-(Stroke)"></path>
        </g>
    </g>
</svg>