<?xml version="1.0" encoding="UTF-8"?>
<svg width="22px" height="18px" viewBox="0 0 22 18" version="1.1" xmlns="http://www.w3.org/2000/svg" xmlns:xlink="http://www.w3.org/1999/xlink">
    <title>UI icon/group/filled</title>
    <g id="👀-Icons" stroke="none" stroke-width="1" fill="none" fill-rule="evenodd">
        <g id="编组" transform="translate(-1.000000, -3.000000)" fill="#6F767E" fill-rule="nonzero">
            <g>
                <path d="M1,17 L1,20 C1,20.55228 1.447715,21 2,21 L16,21 C16.5523,21 17,20.55228 17,20 L17,17 C17,14.79086 15.2091,13 13,13 L5,13 C2.79086,13 1,14.79086 1,17 Z" id="Vector-631"></path>
                <path d="M18.7535592,20.31179 C18.7160751,20.65504 18.9727219,21 19.3375914,21 L21.942622,21 C22.5265907,21 23,20.55228 23,20 L23,17 C23,14.79086 21.106384,13 18.7704878,13 L17.7463918,13 C17.5178755,13 17.3924694,13.259721 17.528444,13.433415 C18.3089423,14.43042 18.7704878,15.66424 18.7704878,17 L18.7704878,20 C18.7704878,20.10529 18.7647463,20.2093 18.7535592,20.31179 Z" id="Subtract"></path>
                <path d="M13,7 C13,9.20914 11.20914,11 9,11 C6.79086,11 5,9.20914 5,7 C5,4.79086 6.79086,3 9,3 C11.20914,3 13,4.79086 13,7 Z" id="Ellipse-132"></path>
                <path d="M14.0492304,10.94758 C13.6863913,10.89196 13.5626667,10.48927 13.7588451,10.19729 C14.3807243,9.2717 14.7405754,8.17531 14.7405754,7 C14.7405754,5.82469 14.3807243,4.7283 13.7588451,3.802712 C13.5626678,3.510725 13.6863923,3.108036 14.0492314,3.0524212 C14.274243,3.0179321 14.5051783,3 14.7405754,3 C17.0929917,3 19,4.79086 19,7 C19,9.20914 17.0929917,11 14.7405754,11 C14.5051783,11 14.274243,10.98207 14.0492304,10.94758 Z" id="Subtract"></path>
            </g>
        </g>
    </g>
</svg>