<?xml version="1.0" encoding="UTF-8"?>
<svg width="20px" height="18px" viewBox="0 0 20 18" version="1.1" xmlns="http://www.w3.org/2000/svg" xmlns:xlink="http://www.w3.org/1999/xlink">
    <title>UI icon/group/light</title>
    <g id="👀-Icons" stroke="none" stroke-width="1" fill="none" fill-rule="evenodd">
        <g id="编组" transform="translate(-2.000000, -3.000000)" fill="#6F767E">
            <path d="M14.4996862,10.9690924 C16.4729986,10.7231922 18.0000005,9.03992122 18.0000005,7 C18.0000005,4.96008878 16.4729986,3.27681778 14.4996862,3.03090763 C15.4334194,4.08864826 15.9999981,5.47815909 15.9999981,7 C15.9999981,8.52184091 15.4334194,9.91135174 14.4996862,10.9690924 Z" id="Subtract" fill-rule="nonzero"></path>
            <path d="M20.0000008,19.9999992 C20.0000008,20.5522894 20.4477209,20.9999995 21.0000009,20.9999995 C21.5522809,20.9999995 22.000001,20.5522894 22.000001,19.9999992 L22.000001,17.9999985 C22.000001,15.3398977 19.9226908,13.164985 17.3017807,13.0089569 C18.3538808,13.9407132 19.1587608,15.1453476 19.6055508,16.5119881 C19.8565408,16.9505282 20.0000008,17.4585084 20.0000008,17.9999985 L20.0000008,19.9999992 Z" id="Subtract" fill-rule="nonzero"></path>
            <path d="M7,15 C5.34315,15 4,16.34315 4,18 L4,20 C4,20.55228 3.55228,21 3,21 C2.447715,21 2,20.55228 2,20 L2,18 C2,15.23858 4.23858,13 7,13 L13,13 C15.7614,13 18,15.23858 18,18 L18,20 C18,20.55228 17.5523,21 17,21 C16.4477,21 16,20.55228 16,20 L16,18 C16,16.34315 14.6569,15 13,15 L7,15 Z" id="Vector-631-(Stroke)"></path>
            <path d="M10,5 C8.89543,5 8,5.89543 8,7 C8,8.10457 8.89543,9 10,9 C11.10457,9 12,8.10457 12,7 C12,5.89543 11.10457,5 10,5 Z M6,7 C6,4.79086 7.79086,3 10,3 C12.20914,3 14,4.79086 14,7 C14,9.20914 12.20914,11 10,11 C7.79086,11 6,9.20914 6,7 Z" id="Ellipse-132-(Stroke)"></path>
        </g>
    </g>
</svg>