<?xml version="1.0" encoding="UTF-8"?>
<svg width="20px" height="20px" viewBox="0 0 20 20" version="1.1" xmlns="http://www.w3.org/2000/svg" xmlns:xlink="http://www.w3.org/1999/xlink">
    <title>UI icon/close_circled/filled</title>
    <g id="👀-Icons" stroke="none" stroke-width="1" fill="none" fill-rule="evenodd">
        <g id="Subtract" transform="translate(-2.000000, -2.000000)" fill="#6F767E">
            <path d="M12,22 C17.5228,22 22,17.5228 22,12 C22,6.47715 17.5228,2 12,2 C6.47715,2 2,6.47715 2,12 C2,17.5228 6.47715,22 12,22 Z M8.29289,15.7071 C7.90237,15.3166 7.90237,14.6834 8.29289,14.2929 L10.58582,11.99997 L8.29299,9.70714 C7.90246,9.31661 7.90246,8.68345 8.29299,8.29292 C8.68351,7.9024 9.31668,7.9024 9.7072,8.29292 L12,10.58576 L14.2929,8.29289 C14.6834,7.90237 15.3166,7.90237 15.7071,8.29289 C16.0976,8.68342 16.0976,9.31658 15.7071,9.70711 L13.4142,11.99997 L15.7072,14.2929 C16.0977,14.6835 16.0977,15.3166 15.7072,15.7071 C15.3167,16.0977 14.6835,16.0977 14.293,15.7071 L12,13.4142 L9.70711,15.7071 C9.31658,16.0976 8.68342,16.0976 8.29289,15.7071 Z"></path>
        </g>
    </g>
</svg>