<?xml version="1.0" encoding="UTF-8"?>
<svg width="20px" height="20px" viewBox="0 0 20 20" version="1.1" xmlns="http://www.w3.org/2000/svg" xmlns:xlink="http://www.w3.org/1999/xlink">
    <title>UI icon/close_circled/light</title>
    <g id="👀-Icons" stroke="none" stroke-width="1" fill="none" fill-rule="evenodd">
        <g id="编组" transform="translate(-2.000000, -2.000000)" fill="#6F767E">
            <path d="M9.70710997,8.29286118 C9.31657999,7.90233731 8.68341903,7.90233671 8.29289306,8.29286118 C7.90236928,8.68338425 7.90236868,9.31654836 8.29289306,9.70707842 L10.5858099,11.9999988 L8.29292206,14.2928992 C7.90239788,14.6834193 7.90239788,15.3165794 8.29292206,15.7071095 C8.68344603,16.0976295 9.31660999,16.0976295 9.70713997,15.7071095 L12.0000298,13.4142191 L14.2928897,15.7070895 C14.6834196,16.0976095 15.3165796,16.0976095 15.7071096,15.7070895 C16.0976296,15.3165694 16.0976296,14.6833993 15.7071096,14.2928792 L13.4142397,11.9999988 L15.7071396,9.70710842 C16.0976596,9.31657836 16.0976596,8.68341725 15.7071396,8.29289318 C15.3166096,7.90236861 14.6834496,7.90236831 14.2929197,8.29289318 L12.0000298,10.5857886 L9.70710997,8.29286118 Z" id="Union" fill-rule="nonzero"></path>
            <path d="M12,20 C16.4183,20 20,16.4183 20,12 C20,7.58172 16.4183,4 12,4 C7.58172,4 4,7.58172 4,12 C4,16.4183 7.58172,20 12,20 Z M12,22 C17.5228,22 22,17.5228 22,12 C22,6.47715 17.5228,2 12,2 C6.47715,2 2,6.47715 2,12 C2,17.5228 6.47715,22 12,22 Z" id="Ellipse-201-(Stroke)"></path>
        </g>
    </g>
</svg>