<?xml version="1.0" encoding="UTF-8"?>
<svg width="16px" height="20px" viewBox="0 0 16 20" version="1.1" xmlns="http://www.w3.org/2000/svg" xmlns:xlink="http://www.w3.org/1999/xlink">
    <title>UI icon/hourglass/filled</title>
    <g id="👀-Icons" stroke="none" stroke-width="1" fill="none" fill-rule="evenodd">
        <g id="Union" transform="translate(-4.000000, -2.000000)" fill="#6F767E">
            <path d="M4,3 C4,2.447715 4.447715,2 5,2 L19,2 C19.5523,2 20,2.447715 20,3 C20,3.55228 19.5523,4 19,4 L19,4.5778 C19,6.15719 18.5325,7.70126 17.6564,9.0154 L15.6667,12 L17.6564,14.9846 C18.5325,16.2987 19,17.8428 19,19.4222 L19,20 C19.5523,20 20,20.4477 20,21 C20,21.5523 19.5523,22 19,22 L5,22 C4.447715,22 4,21.5523 4,21 C4,20.4477 4.447715,20 5,20 L5,19.4222 C5,17.8428 5.4675,16.2987 6.3436,14.9846 L8.33333,12 L6.3436,9.0154 C5.4675,7.70126 5,6.15719 5,4.5778 L5,4 C4.447715,4 4,3.55228 4,3 Z M7,20 L8.24999,20 L9.88,17.392 C10.85917,15.8253 13.14083,15.8253 14.12,17.392 L15.75,20 L17,20 L17,19.4222 C17,18.2377 16.6494,17.0796 15.9923,16.094 L13.92963,13 L10.07037,13 L8.0077,16.094 C7.35063,17.0796 7,18.2377 7,19.4222 L7,20 Z M7,4 L17,4 L17,4.5778 C17,5.41567 16.8246,6.24029 16.4894,7 L7.51065,7 C7.17543,6.24029 7,5.41567 7,4.5778 L7,4 Z"></path>
        </g>
    </g>
</svg>