<?xml version="1.0" encoding="UTF-8"?>
<svg width="20px" height="20px" viewBox="0 0 20 20" version="1.1" xmlns="http://www.w3.org/2000/svg" xmlns:xlink="http://www.w3.org/1999/xlink">
    <title>UI icon/wallet/filled</title>
    <g id="👀-Icons" stroke="none" stroke-width="1" fill="none" fill-rule="evenodd">
        <g id="Subtract" transform="translate(-2.000000, -2.000000)" fill="#6F767E">
            <path d="M5,2 C3.34315,2 2,3.34315 2,5 L2,19 C2,20.6569 3.34315,22 5,22 L19,22 C20.6569,22 22,20.6569 22,19 L22,9 C22,7.69378 21.1652,6.58254 20,6.17071 L20,5 C20,3.34315 18.6569,2 17,2 L5,2 Z M5,4 C4.44772,4 4,4.44772 4,5 C4,5.55228 4.44772,6 5,6 L18,6 L18,5 C18,4.44772 17.5523,4 17,4 L5,4 Z M17,12 C15.8954,12 15,12.8954 15,14 C15,15.1046 15.8954,16 17,16 L19,16 C19.5523,16 20,15.5523 20,15 L20,13 C20,12.4477 19.5523,12 19,12 L17,12 Z"></path>
        </g>
    </g>
</svg>