<?xml version="1.0" encoding="UTF-8"?>
<svg width="20px" height="20px" viewBox="0 0 20 20" version="1.1" xmlns="http://www.w3.org/2000/svg" xmlns:xlink="http://www.w3.org/1999/xlink">
    <title>UI icon/wallet/light</title>
    <g id="👀-Icons" stroke="none" stroke-width="1" fill="none" fill-rule="evenodd">
        <g id="UI-icon/wallet/light" transform="translate(-2.000000, -2.000000)" fill="#6F767E">
            <path d="M20,6.17071 L20,5 C20,3.34315 18.6569,2 17,2 L5,2 C3.34315,2 2,3.34315 2,5 L2,19 C2,20.6569 3.34315,22 5,22 L19,22 C20.6569,22 22,20.6569 22,19 L22,9 C22,7.69378 21.1652,6.58254 20,6.17071 Z M4,5 C4,4.44772 4.44772,4 5,4 L17,4 C17.5523,4 18,4.44772 18,5 L18,6 L5,6 C4.44772,6 4,5.55228 4,5 Z M4,7.82929 C4.31278,7.93985 4.64936,8 5,8 L19,8 C19.5523,8 20,8.44771 20,9 L20,11 L17,11 C15.3431,11 14,12.3431 14,14 C14,15.6569 15.3431,17 17,17 L20,17 L20,19 C20,19.5523 19.5523,20 19,20 L5,20 C4.44772,20 4,19.5523 4,19 L4,7.82929 Z M17,13 L20,13 L20,15 L17,15 C16.4477,15 16,14.5523 16,14 C16,13.4477 16.4477,13 17,13 Z" id="Union"></path>
        </g>
    </g>
</svg>