<?xml version="1.0" encoding="UTF-8"?>
<svg width="21px" height="10px" viewBox="0 0 21 10" version="1.1" xmlns="http://www.w3.org/2000/svg" xmlns:xlink="http://www.w3.org/1999/xlink">
    <title>UI icon/undo/filled</title>
    <g id="👀-Icons" stroke="none" stroke-width="1" fill="none" fill-rule="evenodd">
        <g id="编组" transform="translate(-2.000000, -7.000000)" fill="#6F767E" fill-rule="nonzero">
            <g id="Union">
                <path d="M20.1417864,14.7427768 C19.0569859,10.6943064 14.8956841,8.29176621 10.8471824,9.37655631 C8.57428143,9.98557637 6.8503507,11.5572865 5.95620031,13.5495567 L7.41064093,13.1552767 C7.94368116,13.0107667 8.4929414,13.3257467 8.63745146,13.8587867 C8.78195152,14.3918368 8.46698139,14.9410968 7.93393116,15.0855969 L4.7635498,15.9450669 C4.72816979,15.9568269 4.69202977,15.9666469 4.65526976,15.9744169 L4.24956958,16.084397 C3.99309947,16.153927 3.71950936,16.118517 3.48918926,15.9859969 C3.25886916,15.8534669 3.09076909,15.6347269 3.02199906,15.3780569 L2.03400094,11.6907965 C1.89105958,11.1573365 2.20764171,10.6089964 2.74110794,10.4660564 C3.27457917,10.3231164 3.8229094,10.6396964 3.96584946,11.1731565 L4.2922896,12.3914566 C5.4594201,10.0401464 7.572091,8.1835562 10.3295522,7.44470312 C15.4449844,6.07403599 20.7029866,9.10974628 22.0735872,14.2251468 C22.2165873,14.7586068 21.8999871,15.3069469 21.3664869,15.4498869 C20.8330867,15.5928269 20.2846864,15.2762469 20.1417864,14.7427768 Z"></path>
            </g>
        </g>
    </g>
</svg>