<?xml version="1.0" encoding="UTF-8"?>
<svg width="20px" height="20px" viewBox="0 0 20 20" version="1.1" xmlns="http://www.w3.org/2000/svg" xmlns:xlink="http://www.w3.org/1999/xlink">
    <title>UI icon/smile/filled</title>
    <g id="👀-Icons" stroke="none" stroke-width="1" fill="none" fill-rule="evenodd">
        <g id="Subtract" transform="translate(-2.000000, -2.000000)" fill="#6F767E">
            <path d="M12,22 C17.5228,22 22,17.5228 22,12 C22,6.47715 17.5228,2 12,2 C6.47715,2 2,6.47715 2,12 C2,17.5228 6.47715,22 12,22 Z M8.33238,13.5996 C8.11126,13.0935 7.52174,12.8625 7.01565,13.0837 C6.50957,13.3048 6.27855,13.8943 6.49967,14.4004 C7.42463,16.5174 9.53804,18 11.99998,18 C14.4619,18 16.5753,16.5174 17.5003,14.4004 C17.7214,13.8943 17.4904,13.3048 16.9843,13.0837 C16.4782,12.8625 15.8887,13.0935 15.6676,13.5996 C15.0494,15.0145 13.6387,16 11.99998,16 C10.36128,16 8.95054,15.0145 8.33238,13.5996 Z M9,9 C9,9.55228 8.55228,10 8,10 C7.44772,10 7,9.55228 7,9 C7,8.44772 7.44772,8 8,8 C8.55228,8 9,8.44772 9,9 Z M16,10 C16.5523,10 17,9.55228 17,9 C17,8.44772 16.5523,8 16,8 C15.4477,8 15,8.44772 15,9 C15,9.55228 15.4477,10 16,10 Z"></path>
        </g>
    </g>
</svg>