<?xml version="1.0" encoding="UTF-8"?>
<svg width="13px" height="20px" viewBox="0 0 13 20" version="1.1" xmlns="http://www.w3.org/2000/svg" xmlns:xlink="http://www.w3.org/1999/xlink">
    <title>UI icon/smart_watch/filled</title>
    <g id="👀-Icons" stroke="none" stroke-width="1" fill="none" fill-rule="evenodd">
        <g id="编组" transform="translate(-6.000000, -2.000000)" fill="#6F767E">
            <path d="M8.57647,3.97618 C8.82347,2.823502 9.84213,2 11.02097,2 L12.9789,2 C14.15774,2 15.1764,2.8235 15.4234,3.97618 L15.88554,6.13284 C17.1101,6.51063 18,7.65139 18,9 L18,10.08535 C18.5826,10.29127 19,10.84689 19,11.5 L19,12.5 C19,13.1531 18.5826,13.7087 18,13.9146 L18,15 C18,16.3486 17.1102,17.4893 15.88564,17.8671 L15.4235,20.0238 C15.1765,21.1765 14.15784,22 12.97899,22 L11.021,22 C9.84217,22 8.82351,21.1766 8.5765,20.0239 L8.11432,17.8671 C6.889799,17.4893 6,16.3486 6,15 L6,9 C6,7.65145 6.889797,6.51072 8.11432,6.13288 L8.57647,3.97618 Z M16,9 C16,8.44772 15.55228,8 15,8 L9,8 C8.44772,8 8,8.44772 8,9 L8,15 C8,15.5523 8.44772,16 9,16 L15,16 C15.55228,16 16,15.5523 16,15 L16,9 Z" id="Union"></path>
            <path d="M10,13 C10.55228,13 11,12.55228 11,12 C11,11.447715 10.55228,11 10,11 C9.447715,11 9,11.447715 9,12 C9,12.55228 9.447715,13 10,13 Z" id="Oval"></path>
            <path d="M14,13 C14.55228,13 15,12.55228 15,12 C15,11.447715 14.55228,11 14,11 C13.447715,11 13,11.447715 13,12 C13,12.55228 13.447715,13 14,13 Z" id="Oval-Copy"></path>
            <path d="M12,11 C12.55228,11 13,10.55228 13,10 C13,9.447715 12.55228,9 12,9 C11.447715,9 11,9.447715 11,10 C11,10.55228 11.447715,11 12,11 Z" id="Oval-Copy-2"></path>
            <path d="M12,15 C12.55228,15 13,14.55228 13,14 C13,13.447715 12.55228,13 12,13 C11.447715,13 11,13.447715 11,14 C11,14.55228 11.447715,15 12,15 Z" id="Oval-Copy-3"></path>
        </g>
    </g>
</svg>