<?xml version="1.0" encoding="UTF-8"?>
<svg width="13px" height="20px" viewBox="0 0 13 20" version="1.1" xmlns="http://www.w3.org/2000/svg" xmlns:xlink="http://www.w3.org/1999/xlink">
    <title>UI icon/smart_watch/light</title>
    <g id="👀-Icons" stroke="none" stroke-width="1" fill="none" fill-rule="evenodd">
        <g id="编组" transform="translate(-6.000000, -2.000000)" fill="#6F767E">
            <path d="M7.56464,6.36501 L7.99184,4.37141 C8.28824,2.988202 9.51063,2 10.92525,2 L13.07475,2 C14.48937,2 15.71176,2.9882 16.0082,4.37141 L16.4354,6.36501 C17.3676,6.87391 18,7.8631 18,9 L18,10.08535 C18.5826,10.29127 19,10.84689 19,11.5 L19,12.5 C19,13.1531 18.5826,13.7087 18,13.9146 L18,15 C18,16.1369 17.3676,17.1261 16.4354,17.635 L16.0082,19.6286 C15.7118,21.0118 14.4894,22 13.07478,22 L10.92529,22 C9.51068,22 8.2883,21.0118 7.99189,19.6286 L7.56467,17.635 C6.632423,17.1261 6,16.1369 6,15 L6,9 C6,7.8631 6.632411,6.87391 7.56464,6.36501 Z M10.92525,4 L13.07475,4 C13.54629,4 13.95375,4.3294 14.05256,4.79047 L14.31174,6 L9.68826,6 L9.94744,4.79047 C10.04625,4.3294 10.45371,4 10.92525,4 Z M9.68829,18 L9.94749,19.2095 C10.04629,19.6706 10.45375,20 10.92529,20 L13.07478,20 C13.54632,20 13.95379,19.6706 14.05259,19.2095 L14.31176,18 L9.68829,18 Z M9,8 L15,8 C15.55228,8 16,8.44772 16,9 L16,15 C16,15.5523 15.55228,16 15,16 L9,16 C8.44772,16 8,15.5523 8,15 L8,9 C8,8.44772 8.44772,8 9,8 Z" id="Union"></path>
            <path d="M10,13 C10.55228,13 11,12.55228 11,12 C11,11.447715 10.55228,11 10,11 C9.447715,11 9,11.447715 9,12 C9,12.55228 9.447715,13 10,13 Z" id="Oval"></path>
            <path d="M14,13 C14.55228,13 15,12.55228 15,12 C15,11.447715 14.55228,11 14,11 C13.447715,11 13,11.447715 13,12 C13,12.55228 13.447715,13 14,13 Z" id="Oval-Copy"></path>
            <path d="M12,11 C12.55228,11 13,10.55228 13,10 C13,9.447715 12.55228,9 12,9 C11.447715,9 11,9.447715 11,10 C11,10.55228 11.447715,11 12,11 Z" id="Oval-Copy-2"></path>
            <path d="M12,15 C12.55228,15 13,14.55228 13,14 C13,13.447715 12.55228,13 12,13 C11.447715,13 11,13.447715 11,14 C11,14.55228 11.447715,15 12,15 Z" id="Oval-Copy-3"></path>
        </g>
    </g>
</svg>