<?xml version="1.0" encoding="UTF-8"?>
<svg width="20px" height="20px" viewBox="0 0 20 20" version="1.1" xmlns="http://www.w3.org/2000/svg" xmlns:xlink="http://www.w3.org/1999/xlink">
    <title>UI icon/line_chart/light</title>
    <g id="👀-Icons" stroke="none" stroke-width="1" fill="none" fill-rule="evenodd">
        <g id="编组" transform="translate(-2.000000, -2.000000)" fill="#6F767E">
            <path d="M3,2 C3.55228,2 4,2.447715 4,3 L4,19 C4,19.5523 4.44772,20 5,20 L21,20 C21.5523,20 22,20.4477 22,21 C22,21.5523 21.5523,22 21,22 L5,22 C3.34315,22 2,20.6569 2,19 L2,3 C2,2.447715 2.447715,2 3,2 Z" id="Vector-606-(Stroke)"></path>
            <path d="M21.7071246,8.29289302 C22.0976251,8.68341694 22.0976251,9.31657981 21.7071246,9.70710973 L17.1213176,14.2928888 C15.9497159,15.4644686 14.050263,15.4644686 12.8786912,14.2928888 L10.7071179,12.1213192 C10.3165874,11.7307993 9.68342639,11.7307993 9.2928958,12.1213192 L7.20711265,14.2071088 C6.81658206,14.5976288 6.18341811,14.5976288 5.79289352,14.2071088 C5.40236883,13.8165789 5.40236883,13.183419 5.79289352,12.7928891 L7.87868367,10.7071095 C9.05025544,9.53552977 10.9497583,9.53552977 12.1213301,10.7071095 L14.2929134,12.8786791 C14.6834339,13.269199 15.3165949,13.269209 15.7071155,12.8786791 L20.2929224,8.29289302 C20.683423,7.90236899 21.316624,7.90236899 21.7071246,8.29289302 Z" id="Vector-618-(Stroke)"></path>
        </g>
    </g>
</svg>