<?xml version="1.0" encoding="UTF-8"?>
<svg width="18px" height="21px" viewBox="0 0 18 21" version="1.1" xmlns="http://www.w3.org/2000/svg" xmlns:xlink="http://www.w3.org/1999/xlink">
    <title>UI icon/twitch/filled</title>
    <g id="👀-Icons" stroke="none" stroke-width="1" fill="none" fill-rule="evenodd">
        <g id="Subtract" transform="translate(-3.000000, -2.000000)" fill="#6F767E">
            <path d="M3,5 C3,3.34315 4.34315,2 6,2 L18,2 C19.6569,2 21,3.34315 21,5 L21,12.8488 C21,13.5899 20.7257,14.3048 20.2299,14.8557 L17.3938,18.0069 C16.8249,18.639 16.0144,19 15.1639,19 L12.38374,19 C12.13669,19 11.8984,19.0914 11.71477,19.2567 L8.66897,21.9979 C8.02544,22.5771 7,22.1204 7,21.2546 L7,19.5 C7,19.2239 6.77614,19 6.5,19 L6,19 C4.34315,19 3,17.6569 3,16 L3,5 Z M10,7 C10.55228,7 11,7.44772 11,8 L11,12 C11,12.5523 10.55228,13 10,13 C9.44772,13 9,12.5523 9,12 L9,8 C9,7.44772 9.44772,7 10,7 Z M16,8 C16,7.44772 15.5523,7 15,7 C14.4477,7 14,7.44772 14,8 L14,12 C14,12.5523 14.4477,13 15,13 C15.5523,13 16,12.5523 16,12 L16,8 Z"></path>
        </g>
    </g>
</svg>