<?xml version="1.0" encoding="UTF-8"?>
<svg width="18px" height="21px" viewBox="0 0 18 21" version="1.1" xmlns="http://www.w3.org/2000/svg" xmlns:xlink="http://www.w3.org/1999/xlink">
    <title>UI icon/twitch/light</title>
    <g id="👀-Icons" stroke="none" stroke-width="1" fill="none" fill-rule="evenodd">
        <g id="编组" transform="translate(-3.000000, -2.000000)" fill="#6F767E">
            <path d="M7,17 C8.10457,17 9,17.8954 9,19 L9,19.0093 L10.37684,17.7701 C10.92772,17.2743 11.64261,17 12.38374,17 L15.1639,17 C15.4474,17 15.7176,16.8797 15.9072,16.669 L18.7433,13.5178 C18.9086,13.3341 19,13.0958 19,12.8488 L19,5 C19,4.44772 18.5523,4 18,4 L6,4 C5.44772,4 5,4.44772 5,5 L5,16 C5,16.5523 5.44772,17 6,17 L7,17 Z M6,2 C4.34315,2 3,3.34315 3,5 L3,16 C3,17.6569 4.34315,19 6,19 L7,19 L7,21.2546 C7,22.1204 8.02544,22.5771 8.66897,21.9979 L11.71477,19.2567 C11.8984,19.0914 12.13669,19 12.38374,19 L15.1639,19 C16.0144,19 16.8249,18.639 17.3938,18.0069 L20.2299,14.8557 C20.7257,14.3048 21,13.5899 21,12.8488 L21,5 C21,3.34315 19.6569,2 18,2 L6,2 Z" id="Rectangle-259-(Stroke)"></path>
            <path d="M10,7 C10.55228,7 11,7.447715 11,8 L11,12 C11,12.55228 10.55228,13 10,13 C9.447715,13 9,12.55228 9,12 L9,8 C9,7.447715 9.447715,7 10,7 Z" id="Vector-606-(Stroke)"></path>
            <path d="M15,7 C15.55228,7 16,7.447715 16,8 L16,12 C16,12.55228 15.55228,13 15,13 C14.447715,13 14,12.55228 14,12 L14,8 C14,7.447715 14.447715,7 15,7 Z" id="Vector-607-(Stroke)"></path>
        </g>
    </g>
</svg>