<?xml version="1.0" encoding="UTF-8"?>
<svg width="20px" height="14px" viewBox="0 0 20 14" version="1.1" xmlns="http://www.w3.org/2000/svg" xmlns:xlink="http://www.w3.org/1999/xlink">
    <title>UI icon/notes/filled</title>
    <g id="👀-Icons" stroke="none" stroke-width="1" fill="none" fill-rule="evenodd">
        <g id="Subtract" transform="translate(-2.000000, -5.000000)" fill="#6F767E">
            <path d="M5,15 L6,15 L6,16 C6,17.6569 7.34315,19 9,19 L19,19 C20.6569,19 22,17.6569 22,16 L22,12 C22,10.34315 20.6569,9 19,9 L18,9 L18,8 C18,6.34315 16.6569,5 15,5 L5,5 C3.34315,5 2,6.34315 2,8 L2,12 C2,13.65685 3.34315,15 5,15 Z M15,7 L5,7 C4.44772,7 4,7.44772 4,8 L4,12 C4,12.55228 4.44772,13 5,13 L6,13 L6,12 C6,10.34315 7.34315,9 9,9 L16,9 L16,8 C16,7.44772 15.5523,7 15,7 Z M14,16 C15.1046,16 16,15.1046 16,14 C16,12.89543 15.1046,12 14,12 C12.8954,12 12,12.89543 12,14 C12,15.1046 12.8954,16 14,16 Z M10,14 C10,14.55229 9.55228,15 9,15 C8.44772,15 8,14.55229 8,14 C8,13.44771 8.44772,13 9,13 C9.55228,13 10,13.44771 10,14 Z M19,15 C19.5523,15 20,14.55229 20,14 C20,13.44771 19.5523,13 19,13 C18.4477,13 18,13.44771 18,14 C18,14.55229 18.4477,15 19,15 Z"></path>
        </g>
    </g>
</svg>