<?xml version="1.0" encoding="UTF-8"?>
<svg width="20px" height="14px" viewBox="0 0 20 14" version="1.1" xmlns="http://www.w3.org/2000/svg" xmlns:xlink="http://www.w3.org/1999/xlink">
    <title>UI icon/notes/light</title>
    <g id="👀-Icons" stroke="none" stroke-width="1" fill="none" fill-rule="evenodd">
        <g id="编组" transform="translate(-2.000000, -5.000000)" fill="#6F767E">
            <path d="M19,11 L9,11 C8.44772,11 8,11.44772 8,12 L8,16 C8,16.55228 8.44772,17 9,17 L19,17 C19.5523,17 20,16.55228 20,16 L20,12 C20,11.44772 19.5523,11 19,11 Z M9,9 C7.34315,9 6,10.34315 6,12 L6,16 C6,17.65685 7.34315,19 9,19 L19,19 C20.6569,19 22,17.65685 22,16 L22,12 C22,10.34315 20.6569,9 19,9 L9,9 Z" id="Rectangle-199-(Stroke)"></path>
            <path d="M5,7 L15,7 C15.5523,7 16,7.44772 16,8 L16,9 L18,9 L18,8 C18,6.34315 16.6569,5 15,5 L5,5 C3.34315,5 2,6.34315 2,8 L2,12 C2,13.65685 3.34315,15 5,15 L6,15 L6,13 L5,13 C4.44772,13 4,12.55228 4,12 L4,8 C4,7.44772 4.44772,7 5,7 Z" id="Subtract"></path>
            <path d="M14,16 C15.10457,16 16,15.10457 16,14 C16,12.895431 15.10457,12 14,12 C12.895431,12 12,12.895431 12,14 C12,15.10457 12.895431,16 14,16 Z" id="Ellipse-150-(Stroke)"></path>
            <path d="M11,14 C11,14.55228 10.55228,15 10,15 C9.447715,15 9,14.55228 9,14 C9,13.447715 9.447715,13 10,13 C10.55228,13 11,13.447715 11,14 Z" id="Ellipse-151" fill-rule="nonzero"></path>
            <path d="M19,14 C19,14.55228 18.55228,15 18,15 C17.447715,15 17,14.55228 17,14 C17,13.447715 17.447715,13 18,13 C18.55228,13 19,13.447715 19,14 Z" id="Ellipse-152" fill-rule="nonzero"></path>
        </g>
    </g>
</svg>