<?xml version="1.0" encoding="UTF-8"?>
<svg width="18px" height="19px" viewBox="0 0 18 19" version="1.1" xmlns="http://www.w3.org/2000/svg" xmlns:xlink="http://www.w3.org/1999/xlink">
    <title>UI icon/power/filled</title>
    <g id="👀-Icons" stroke="none" stroke-width="1" fill="none" fill-rule="evenodd">
        <g id="编组" transform="translate(-3.000000, -2.000000)" fill="#6F767E">
            <path d="M15.6323952,4.87105706 C15.8828953,4.37946025 16.4882954,4.17951618 16.9490955,4.48290969 C18.3472957,5.4034142 19.4669959,6.69988211 20.173296,8.23205964 C21.0195962,10.0679267 21.2232962,12.1352833 20.7512961,14.1009902 C20.279396,16.066707 19.1593958,17.8163042 17.5718956,19.0678022 C15.9842953,20.3194001 14.0215949,20.999999 12.0000146,20.999999 C9.97844421,20.999999 8.01574386,20.3194001 6.42816357,19.0678022 C4.84059329,17.8163042 3.72060409,16.066707 3.248674,14.1010102 C2.77674492,12.1353033 2.98035785,10.0679467 3.82670411,8.23206964 C4.53304323,6.69990211 5.65272343,5.4034242 7.05088368,4.48292069 C7.51171377,4.17952618 8.11712387,4.37946865 8.36760392,4.87106506 C8.61808396,5.36266427 8.41730393,5.95873331 7.96631385,6.27657279 C6.96388367,6.98306165 6.15949352,7.9442401 5.64117343,9.06854829 C4.98272331,10.496856 4.82430328,12.1052634 5.19147335,13.6345809 C5.55863342,15.1639085 6.42998357,16.5251063 7.66511379,17.4988047 C8.90024401,18.4725031 10.4272243,19.0020023 12.0000046,19.0020023 C13.5727948,19.0020023 15.0997951,18.4725031 16.3348953,17.4988047 C17.5699956,16.5251063 18.4413957,15.1639085 18.8084958,13.6345709 C19.1756959,12.1052434 19.0172958,10.496846 18.3587957,9.06853829 C17.8404956,7.9442301 17.0360955,6.98305165 16.0336953,6.27656279 C15.5826952,5.95873331 15.3818952,5.36265427 15.6323952,4.87105706 Z" id="Ellipse-201" fill-rule="nonzero"></path>
            <path d="M12,2 C12.55228,2 13,2.447715 13,3 L13,8 C13,8.55228 12.55228,9 12,9 C11.447715,9 11,8.55228 11,8 L11,3 C11,2.447715 11.447715,2 12,2 Z" id="Vector-606-(Stroke)"></path>
        </g>
    </g>
</svg>