<?xml version="1.0" encoding="UTF-8"?>
<svg width="16px" height="10px" viewBox="0 0 16 10" version="1.1" xmlns="http://www.w3.org/2000/svg" xmlns:xlink="http://www.w3.org/1999/xlink">
    <title>UI icon/menu/light</title>
    <g id="👀-Icons" stroke="none" stroke-width="1" fill="none" fill-rule="evenodd">
        <g id="编组" transform="translate(-4.000000, -7.000000)" fill="#6F767E">
            <path d="M4,16 C4,15.447715 4.447715,15 5,15 L19,15 C19.5523,15 20,15.447715 20,16 C20,16.55228 19.5523,17 19,17 L5,17 C4.447715,17 4,16.55228 4,16 Z" id="Path-13-Copy-5-(Stroke)"></path>
            <path d="M4,8 C4,7.447715 4.447715,7 5,7 L19,7 C19.5523,7 20,7.447715 20,8 C20,8.55228 19.5523,9 19,9 L5,9 C4.447715,9 4,8.55228 4,8 Z" id="Path-13-Copy-7-(Stroke)"></path>
        </g>
    </g>
</svg>