<?xml version="1.0" encoding="UTF-8"?>
<svg width="20px" height="20px" viewBox="0 0 20 20" version="1.1" xmlns="http://www.w3.org/2000/svg" xmlns:xlink="http://www.w3.org/1999/xlink">
    <title>UI icon/box/filled</title>
    <g id="👀-Icons" stroke="none" stroke-width="1" fill="none" fill-rule="evenodd">
        <g id="编组" transform="translate(-2.000000, -2.000000)" fill="#6F767E" fill-rule="nonzero">
            <g id="Union" transform="translate(2.000000, 2.000000)">
                <path d="M5.24264,0 L6.34118,0 C6.70699,0 6.94896,0.379952 6.79427,0.711443 L5.37527,3.75216 C5.25433,4.01132 5.16189,4.2819 5.09903,4.55916 C5.04271,4.80753 4.83207,5 4.57739,5 L0.445904,5 C0.199638,5 0,4.80036 0,4.5541 C0,4.19931 0.140937,3.85906 0.391806,3.60819 L3.12132,0.878679 C3.68393,0.31607 4.44699,0 5.24264,0 Z" id="C8E0C128-89CB-430B-82B9-993DCD2955B7"></path>
                <path d="M12.9502,5 C12.9187,4.86187 12.8726,4.72706 12.8124,4.59793 L10.8013,0.288557 C10.7192,0.11252 10.5425,0 10.3482,0 L9.65177,0 C9.4575,0 9.28082,0.11252 9.19867,0.288557 L7.18763,4.59793 C7.12737,4.72706 7.08126,4.86187 7.04984,5 C7.01681,5.14515 7,5.29396 7,5.4437 L7,9 C7,9.55229 7.44772,10 8,10 L12,10 C12.5523,10 13,9.55229 13,9 L13,5.4437 C13,5.29396 12.9832,5.14515 12.9502,5 Z" id="0F6B1AF6-2EE2-475A-8932-D8914A9E0D44"></path>
                <path d="M14.901,4.55916 C14.9573,4.80753 15.1679,5 15.4226,5 L19.5541,5 C19.8004,5 20,4.80036 20,4.5541 C20,4.19931 19.8591,3.85906 19.6082,3.60819 L16.8787,0.87868 C16.3161,0.316071 15.553,0 14.7574,0 L13.6588,0 C13.293,0 13.051,0.379952 13.2057,0.711443 L14.6247,3.75216 C14.7457,4.01132 14.8381,4.2819 14.901,4.55916 Z" id="1BD99534-FA72-423F-A7DD-382383DDA04C"></path>
                <path d="M1,7 L4.5,7 C4.77614,7 5,7.22386 5,7.5 L5,9 C5,10.6569 6.34315,12 8,12 L12,12 C13.6569,12 15,10.6569 15,9 L15,7.5 C15,7.22386 15.2239,7 15.5,7 L19,7 C19.5523,7 20,7.44772 20,8 L20,17 C20,18.6569 18.6569,20 17,20 L3,20 C1.34315,20 0,18.6569 0,17 L0,8 C0,7.44772 0.447715,7 1,7 Z" id="6A0B0C48-A63E-42BC-A456-BCA4CB98A1BE"></path>
            </g>
        </g>
    </g>
</svg>