<?xml version="1.0" encoding="UTF-8"?>
<svg width="20px" height="20px" viewBox="0 0 20 20" version="1.1" xmlns="http://www.w3.org/2000/svg" xmlns:xlink="http://www.w3.org/1999/xlink">
    <title>UI icon/box/light</title>
    <g id="👀-Icons" stroke="none" stroke-width="1" fill="none" fill-rule="evenodd">
        <g id="Union" transform="translate(-2.000000, -2.000000)" fill="#6F767E">
            <path d="M11.60706,4 L10.67373,6 L13.3263,6 L12.3929,4 L11.60706,4 Z M9.4,4 L8.46667,6 L4.82843,6 L6.53553,4.29289 C6.72307,4.10536 6.97742,4 7.24264,4 L9.4,4 Z M2.0146541,6.82847 C2.0784224,6.22172 2.348246,5.65175 2.783612,5.21639 L5.12132,2.878679 C5.68393,2.31607 6.44699,2 7.24264,2 L16.7574,2 C17.553,2 18.3161,2.316071 18.8787,2.87868 L21.2164,5.21639 C21.6518,5.65176 21.9216,6.22172 21.9853,6.82847 C21.995,6.88421 22,6.94152 22,7 L22,19 C22,20.6569 20.6569,22 19,22 L5,22 C3.34315,22 2,20.6569 2,19 L2,7 C2,6.94152 2.00502053,6.8842 2.0146541,6.82847 Z M4,8 L4,19 C4,19.5523 4.44772,20 5,20 L19,20 C19.5523,20 20,19.5523 20,19 L20,8 L16,8 L16,11 C16,12.6569 14.6569,14 13,14 L11,14 C9.34315,14 8,12.6569 8,11 L8,8 L4,8 Z M10,8 L10,11 C10,11.55228 10.44772,12 11,12 L13,12 C13.5523,12 14,11.55229 14,11 L14,8 L10,8 Z M19.1716,6 L17.4645,4.29289 C17.2769,4.10536 17.0226,4 16.7574,4 L14.6,4 L15.5333,6 L19.1716,6 Z"></path>
        </g>
    </g>
</svg>