<?xml version="1.0" encoding="UTF-8"?>
<svg width="18px" height="18px" viewBox="0 0 18 18" version="1.1" xmlns="http://www.w3.org/2000/svg" xmlns:xlink="http://www.w3.org/1999/xlink">
    <title>UI icon/layout/filled</title>
    <g id="👀-Icons" stroke="none" stroke-width="1" fill="none" fill-rule="evenodd">
        <g id="编组" transform="translate(-3.000000, -3.000000)" fill="#6F767E" fill-rule="nonzero">
            <g id="Subtract" transform="translate(3.000000, 3.000000)">
                <path d="M0,3 C0,1.34315 1.34315,0 3,0 L15,0 C16.6569,0 18,1.34315 18,3 L18,3 C18,3.55228 17.5523,4 17,4 L1,4 C0.447715,4 0,3.55229 0,3 L0,3 Z" id="18337EF1-84A7-4169-9DA2-DB483CB762ED"></path>
                <path d="M10,7 C10,6.44771 9.55229,6 9,6 L1,6 C0.447715,6 0,6.44772 0,7 L0,15 C0,16.6569 1.34315,18 3,18 L9,18 C9.55229,18 10,17.5523 10,17 L10,7 Z" id="7ABEFF0E-EFA6-4ED8-9657-A19832E4B851"></path>
                <path d="M13,18 C12.4477,18 12,17.5523 12,17 L12,7 C12,6.44772 12.4477,6 13,6 L17,6 C17.5523,6 18,6.44772 18,7 L18,15 C18,16.6569 16.6569,18 15,18 L13,18 Z" id="9C0767ED-23FC-4F07-A10B-BEABD03E5405"></path>
            </g>
        </g>
    </g>
</svg>