<?xml version="1.0" encoding="UTF-8"?>
<svg width="18px" height="18px" viewBox="0 0 18 18" version="1.1" xmlns="http://www.w3.org/2000/svg" xmlns:xlink="http://www.w3.org/1999/xlink">
    <title>UI icon/layout/light</title>
    <g id="👀-Icons" stroke="none" stroke-width="1" fill="none" fill-rule="evenodd">
        <g id="Union" transform="translate(-3.000000, -3.000000)" fill="#6F767E">
            <path d="M6,21 C4.34315,21 3,19.6569 3,18 L3,6 C3,4.34315 4.34315,3 6,3 L18,3 C19.6569,3 21,4.34315 21,6 L21,18 C21,19.6569 19.6569,21 18,21 L6,21 Z M18,5 L6,5 C5.44772,5 5,5.44772 5,6 L5,7 L19,7 L19,6 C19,5.44772 18.5523,5 18,5 Z M13,9 L5,9 L5,18 C5,18.5523 5.44772,19 6,19 L13,19 L13,9 Z M15,19 L15,9 L19,9 L19,18 C19,18.5523 18.5523,19 18,19 L15,19 Z"></path>
        </g>
    </g>
</svg>