<?xml version="1.0" encoding="UTF-8"?>
<svg width="20px" height="16px" viewBox="0 0 20 16" version="1.1" xmlns="http://www.w3.org/2000/svg" xmlns:xlink="http://www.w3.org/1999/xlink">
    <title>UI icon/gamepad/filled</title>
    <g id="👀-Icons" stroke="none" stroke-width="1" fill="none" fill-rule="evenodd">
        <g id="编组" transform="translate(-2.000000, -3.000000)" fill="#6F767E">
            <g id="Subtract" transform="translate(2.000000, 3.000000)">
                <path d="M15,10 C15.5523,10 16,9.55228 16,9 C16,8.44772 15.5523,8 15,8 C14.4477,8 14,8.44772 14,9 C14,9.55228 14.4477,10 15,10 Z" id="78209E48-51BB-4ABA-8B72-BE34496A59E5" fill-rule="nonzero"></path>
                <path d="M11,1 C11,0.447715 10.5523,0 10,0 C9.44771,0 9,0.447715 9,1 L9,2 L4,2 C1.79086,2 0,3.79086 0,6 L0,12 C0,14.2091 1.79086,16 4,16 L16,16 C18.2091,16 20,14.2091 20,12 L20,6 C20,3.79086 18.2091,2 16,2 L11,2 L11,1 Z M18,9 C18,10.6569 16.6569,12 15,12 C13.3431,12 12,10.6569 12,9 C12,7.34315 13.3431,6 15,6 C16.6569,6 18,7.34315 18,9 Z M5,6 C5.55228,6 6,6.44772 6,7 L6,8 L7,8 C7.55228,8 8,8.44771 8,9 C8,9.55228 7.55228,10 7,10 L6,10 L6,11 C6,11.5523 5.55228,12 5,12 C4.44772,12 4,11.5523 4,11 L4,10 L3,10 C2.44772,10 2,9.55228 2,9 C2,8.44771 2.44772,8 3,8 L4,8 L4,7 C4,6.44772 4.44772,6 5,6 Z" id="2683C83A-047B-4FC3-913B-0906F6AB7AFC"></path>
            </g>
        </g>
    </g>
</svg>