<?xml version="1.0" encoding="UTF-8"?>
<svg width="20px" height="16px" viewBox="0 0 20 16" version="1.1" xmlns="http://www.w3.org/2000/svg" xmlns:xlink="http://www.w3.org/1999/xlink">
    <title>UI icon/gamepad/light</title>
    <g id="👀-Icons" stroke="none" stroke-width="1" fill="none" fill-rule="evenodd">
        <g id="编组" transform="translate(-2.000000, -3.000000)" fill="#6F767E">
            <path d="M16,13 C16.55228,13 17,12.55228 17,12 C17,11.44772 16.55228,11 16,11 C15.44772,11 15,11.44772 15,12 C15,12.55228 15.44772,13 16,13 Z M19,12 C19,13.65685 17.65685,15 16,15 C14.34315,15 13,13.65685 13,12 C13,10.34315 14.34315,9 16,9 C17.65685,9 19,10.34315 19,12 Z" id="Oval-Copy-(Stroke)"></path>
            <path d="M9,10 C9,9.447715 8.55228,9 8,9 C7.44772,9 7,9.447715 7,10 L7,11 L6,11 C5.447715,11 5,11.44771 5,12 C5,12.55228 5.447715,13 6,13 L7,13 L7,14 C7,14.55228 7.44772,15 8,15 C8.55228,15 9,14.55228 9,14 L9,13 L10,13 C10.55228,13 11,12.55228 11,12 C11,11.44772 10.55228,11 10,11 L9,11 L9,10 Z" id="Union" fill-rule="nonzero"></path>
            <path d="M13,4 C13,3.447715 12.5523,3 12,3 C11.44771,3 11,3.447715 11,4 L11,5 L6,5 C3.79086,5 2,6.79086 2,9 L2,15 C2,17.2091 3.79086,19 6,19 L18,19 C20.2091,19 22,17.2091 22,15 L22,9 C22,6.79086 20.2091,5 18,5 L13,5 L13,4 Z M6,7 C4.89543,7 4,7.89543 4,9 L4,15 C4,16.1046 4.89543,17 6,17 L18,17 C19.1046,17 20,16.1046 20,15 L20,9 C20,7.89543 19.1046,7 18,7 L6,7 Z" id="Union"></path>
        </g>
    </g>
</svg>