<?xml version="1.0" encoding="UTF-8"?>
<svg width="20px" height="20px" viewBox="0 0 20 20" version="1.1" xmlns="http://www.w3.org/2000/svg" xmlns:xlink="http://www.w3.org/1999/xlink">
    <title>UI icon/grid/filled</title>
    <g id="👀-Icons" stroke="none" stroke-width="1" fill="none" fill-rule="evenodd">
        <g id="Union" transform="translate(-2.000000, -2.000000)" fill="#6F767E">
            <path d="M2,5 C2,3.34315 3.34315,2 5,2 L19,2 C20.6569,2 22,3.34315 22,5 L22,19 C22,20.6569 20.6569,22 19,22 L5,22 C3.34315,22 2,20.6569 2,19 L2,5 Z M16,4 L19,4 C19.5523,4 20,4.44771 20,5 L20,8 L16,8 L16,4 Z M14,4 L10,4 L10,8 L14,8 L14,4 Z M8,4 L5,4 C4.44771,4 4,4.44772 4,5 L4,8 L8,8 L8,4 Z M4,10 L4,14 L8,14 L8,10 L4,10 Z M4,16 L4,19 C4,19.5523 4.44772,20 5,20 L8,20 L8,16 L4,16 Z M10,20 L14,20 L14,16 L10,16 L10,20 Z M16,20 L19,20 C19.5523,20 20,19.5523 20,19 L20,16 L16,16 L16,20 Z M20,14 L20,10 L16,10 L16,14 L20,14 Z M14,10 L14,14 L10,14 L10,10 L14,10 Z"></path>
        </g>
    </g>
</svg>