<?xml version="1.0" encoding="UTF-8"?>
<svg width="20px" height="20px" viewBox="0 0 20 20" version="1.1" xmlns="http://www.w3.org/2000/svg" xmlns:xlink="http://www.w3.org/1999/xlink">
    <title>UI icon/grid/light</title>
    <g id="👀-Icons" stroke="none" stroke-width="1" fill="none" fill-rule="evenodd">
        <g id="Union" transform="translate(-2.000000, -2.000000)" fill="#6F767E">
            <path d="M5,2 C3.34315,2 2,3.34315 2,5 L2,19 C2,20.6569 3.34315,22 5,22 L19,22 C20.6569,22 22,20.6569 22,19 L22,5 C22,3.34315 20.6569,2 19,2 L5,2 Z M14,4 L10,4 L10,8 L14,8 L14,4 Z M16,4 L16,8 L20,8 L20,5 C20,4.44771 19.5523,4 19,4 L16,4 Z M14,10 L10,10 L10,14 L14,14 L14,10 Z M16,14 L16,10 L20,10 L20,14 L16,14 Z M14,16 L10,16 L10,20 L14,20 L14,16 Z M16,20 L16,16 L20,16 L20,19 C20,19.5523 19.5523,20 19,20 L16,20 Z M5,4 L8,4 L8,8 L4,8 L4,5 C4,4.44772 4.44771,4 5,4 Z M4,10 L8,10 L8,14 L4,14 L4,10 Z M4,16 L8,16 L8,20 L5,20 C4.44772,20 4,19.5523 4,19 L4,16 Z"></path>
        </g>
    </g>
</svg>