<?xml version="1.0" encoding="UTF-8"?>
<svg width="13px" height="18px" viewBox="0 0 13 18" version="1.1" xmlns="http://www.w3.org/2000/svg" xmlns:xlink="http://www.w3.org/1999/xlink">
    <title>UI icon/bold/filled</title>
    <g id="👀-Icons" stroke="none" stroke-width="1" fill="none" fill-rule="evenodd">
        <g id="Union" transform="translate(-6.000000, -3.000000)" fill="#6F767E">
            <path d="M6,6.27273 C6,4.46525 7.46525,3 9.27273,3 L13,3 C15.76142,3 18,5.23858 18,8 C18,9.43071 17.3991,10.72107 16.4359,11.63246 C17.9657,12.48749 19,14.123 19,16 C19,18.7614 16.7614,21 14,21 L9.25,21 C7.45507,21 6,19.5449 6,17.75 L6,6.27273 Z M9.27273,5 L13,5 C14.65685,5 16,6.34315 16,8 C16,9.65685 14.65685,11 13,11 L8,11 L8,6.27273 C8,5.56982 8.56982,5 9.27273,5 Z M8,13 L8,17.75 C8,18.4404 8.55964,19 9.25,19 L14,19 C15.65685,19 17,17.6569 17,16 C17,14.3431 15.65685,13 14,13 L8,13 Z"></path>
        </g>
    </g>
</svg>