<?xml version="1.0" encoding="UTF-8"?>
<svg width="22px" height="18px" viewBox="0 0 22 18" version="1.1" xmlns="http://www.w3.org/2000/svg" xmlns:xlink="http://www.w3.org/1999/xlink">
    <title>UI icon/burger/filled</title>
    <g id="👀-Icons" stroke="none" stroke-width="1" fill="none" fill-rule="evenodd">
        <g id="编组" transform="translate(-1.000000, -3.000000)" fill="#6F767E" fill-rule="nonzero">
            <g>
                <path d="M2.5,14.5 C2.5,13.671573 3.171573,13 4,13 L20,13 C20.8284,13 21.5,13.671573 21.5,14.5 L21.5,14.5 C21.5,15.32843 20.8284,16 20,16 L4,16 C3.171573,16 2.5,15.32843 2.5,14.5 L2.5,14.5 Z" id="Rectangle-344"></path>
                <path d="M3,18.5 C3,17.947715 3.447715,17.5 4,17.5 L20,17.5 C20.5523,17.5 21,17.947715 21,18.5 L21,18.5 C21,19.88071 19.8807,21 18.5,21 L5.5,21 C4.11929,21 3,19.88071 3,18.5 L3,18.5 Z" id="Rectangle-260"></path>
                <path d="M3,7.28571 C3,4.91878 4.91878,3 7.28571,3 L16.7143,3 C19.0812,3 21,4.91878 21,7.28571 L21,7.28571 C21,7.6802 20.6802,8 20.2857,8 L3.714285,8 C3.319796,8 3,7.6802 3,7.28571 L3,7.28571 Z" id="Rectangle-259"></path>
                <path d="M7.88066568,10.2006446 L7.81838122,10.2711884 C7.07598778,11.1120276 5.88999057,11.1729665 5.08343425,10.4117036 L4.57588729,9.93266542 C3.83967836,9.23780072 2.7372324,9.39838419 2.18020939,10.2816144 L1.70655089,11.0326877 C1.18722041,11.8561585 1.70694634,13 2.60042629,13 L21.3995795,13 C22.2930924,13 22.8127887,11.8561585 22.293422,11.0326877 L21.8197525,10.2816144 C21.2628173,9.39838419 20.1603714,9.23780072 19.4241624,9.93266542 L18.9165496,10.4117036 C18.1100372,11.1729665 16.923996,11.1120276 16.1816356,10.2711884 L16.1193511,10.2006446 C15.3609526,9.3417327 14.1315211,9.3417327 13.3731226,10.2006446 C12.6147242,11.0595615 11.3852487,11.0595615 10.6268942,10.2006446 C9.86853964,9.3417327 8.6390202,9.34173145 7.88066568,10.2006446 Z" id="Vector-247" transform="translate(12.000000, 11.250000) scale(1, -1) translate(-12.000000, -11.250000) "></path>
            </g>
        </g>
    </g>
</svg>