<?xml version="1.0" encoding="UTF-8"?>
<svg width="20px" height="18px" viewBox="0 0 20 18" version="1.1" xmlns="http://www.w3.org/2000/svg" xmlns:xlink="http://www.w3.org/1999/xlink">
    <title>UI icon/burger/light</title>
    <g id="👀-Icons" stroke="none" stroke-width="1" fill="none" fill-rule="evenodd">
        <g id="Union" transform="translate(-2.000000, -3.000000)" fill="#6F767E">
            <path d="M3,16.50018 C2.392777,16.04408 2,15.31791 2,14.5 C2,13.11929 3.11929,12 4.5,12 L19.5,12 C20.8807,12 22,13.11929 22,14.5 C22,15.31791 21.6072,16.04408 21,16.50018 L21,18 C21,19.65685 19.6569,21 18,21 L6,21 C4.34315,21 3,19.65685 3,18 L3,16.50018 Z M4.5,14 L19.5,14 C19.7761,14 20,14.22386 20,14.5 C20,14.77614 19.7761,15 19.5,15 L4.5,15 C4.22386,15 4,14.77614 4,14.5 C4,14.22386 4.22386,14 4.5,14 Z M5,17 L5,18 C5,18.55228 5.44772,19 6,19 L18,19 C18.5523,19 19,18.55228 19,18 L19,17 L5,17 Z"></path>
            <path d="M3.08184113,8.00668 C3.55515913,5.16568 6.02466913,3 8.99999913,3 L14.9999591,3 C17.9753591,3 20.4448591,5.16569 20.9181591,8.0067 C21.6112591,8.08565 22.0254591,8.85416 21.6746591,9.4857 L20.8797591,10.91642 C20.4229591,11.73866 19.3308591,11.94245 18.6082591,11.34029 L18.2964591,11.08042 C17.5621591,10.46855 16.4825591,10.51752 15.8066591,11.19335 L15.7499591,11.25005 C15.0596591,11.94041 13.9403591,11.94041 13.2499591,11.25005 C12.5596591,10.5597 11.4403391,10.5597 10.7499791,11.25005 C10.0596291,11.94041 8.94033913,11.94041 8.24997913,11.25006 L8.19327913,11.19335 C7.51744913,10.51752 6.43778913,10.46855 5.70354913,11.08042 L5.39169913,11.34029 C4.66910913,11.94245 3.57698913,11.73866 3.12018713,10.91642 L2.32534013,9.4857 C1.97448013,8.85415 2.38876913,8.08562 3.08184113,8.00668 Z M8.99999913,5 L14.9999591,5 C16.8638591,5 18.4299591,6.27477 18.8739591,8 L5.12601913,8 C5.57005913,6.27477 7.13615913,5 8.99999913,5 Z"></path>
        </g>
    </g>
</svg>