<?xml version="1.0" encoding="UTF-8"?>
<svg width="16px" height="16px" viewBox="0 0 16 16" version="1.1" xmlns="http://www.w3.org/2000/svg" xmlns:xlink="http://www.w3.org/1999/xlink">
    <title>UI icon/add/light</title>
    <g id="👀-Icons" stroke="none" stroke-width="1" fill="none" fill-rule="evenodd">
        <g id="编组" transform="translate(-4.000000, -4.000000)" fill="#6F767E" fill-rule="nonzero">
            <g id="Union">
                <path d="M13,5 C13,4.447715 12.55229,4 12,4 C11.44772,4 11,4.447715 11,5 L11,11 L5,11 C4.447715,11 4,11.44772 4,12 C4,12.55229 4.447715,13 5,13 L11,13 L11,19 C11,19.5523 11.44771,20 12,20 C12.55228,20 13,19.5523 13,19 L13,13 L19,13 C19.5523,13 20,12.55229 20,12 C20,11.44772 19.5523,11 19,11 L13,11 L13,5 Z"></path>
            </g>
        </g>
    </g>
</svg>