<?xml version="1.0" encoding="UTF-8"?>
<svg width="20px" height="18px" viewBox="0 0 20 18" version="1.1" xmlns="http://www.w3.org/2000/svg" xmlns:xlink="http://www.w3.org/1999/xlink">
    <title>UI icon/attachment/light</title>
    <g id="👀-Icons" stroke="none" stroke-width="1" fill="none" fill-rule="evenodd">
        <g id="Path-85-(Stroke)" transform="translate(-2.000000, -3.000000)" fill="#6F767E">
            <path d="M18.6997756,7.61397247 C17.5281745,6.4423911 15.6286728,6.4423911 14.4570717,7.61397247 L8.8002565,13.2708391 C8.40973614,13.6613396 8.40973614,14.2945403 8.8002565,14.6850408 C9.19078686,15.0755412 9.82394745,15.0755412 10.2144778,14.6850408 L15.871373,9.02818413 C16.2618734,8.63765367 16.894974,8.63765367 17.2855743,9.02818413 C17.6760747,9.41870459 17.6760747,10.0518753 17.2855743,10.4423958 L11.6286891,16.0992424 C10.457118,17.2708438 8.55761628,17.2708438 7.3860452,16.0992424 C6.21447412,14.9276411 6.21447412,13.0281888 7.3860452,11.8566175 L13.0428704,6.19975081 C14.9955722,4.24712852 18.1613751,4.24712852 20.1139769,6.19975081 C22.0665787,8.15237311 22.0665787,11.3182068 20.1139769,13.2708391 L14.4570717,18.9276457 C11.7234492,21.661349 7.29128511,21.661349 4.5576126,18.9276457 C1.82394308,16.1940425 1.82394308,11.7618573 4.5576126,9.02818413 L10.2144778,3.3713205 C10.6049982,2.98079594 11.2381587,2.98079594 11.6286891,3.3713205 C12.0192095,3.76184495 12.0192095,4.3950087 11.6286891,4.78553915 L5.9718339,10.4423958 C4.0192021,12.3950181 4.0192021,15.5608418 5.9718339,17.5134441 C7.9244557,19.4661464 11.0902786,19.4661464 13.0428704,17.5134441 L18.6997756,11.8566175 C19.8713767,10.6850361 19.8713767,8.78554385 18.6997756,7.61397247 Z"></path>
        </g>
    </g>
</svg>