<?xml version="1.0" encoding="UTF-8"?>
<svg width="14px" height="20px" viewBox="0 0 14 20" version="1.1" xmlns="http://www.w3.org/2000/svg" xmlns:xlink="http://www.w3.org/1999/xlink">
    <title>UI icon/mic/filled</title>
    <g id="👀-Icons" stroke="none" stroke-width="1" fill="none" fill-rule="evenodd">
        <g id="编组" transform="translate(-5.000000, -2.000000)" fill="#6F767E" fill-rule="nonzero">
            <g>
                <path d="M9,5 C9,3.34315 10.34315,2 12,2 C13.65685,2 15,3.34315 15,5 L15,11 C15,12.6569 13.65685,14 12,14 C10.34315,14 9,12.6569 9,11 L9,5 Z" id="Rectangle"></path>
                <path d="M7,11 C7,10.447715 6.55228,10 6,10 C5.447715,10 5,10.447715 5,11 C5,14.52647 7.60771,17.44388 11,17.92911 L11,20 L9,20 C8.44772,20 8,20.4477 8,21 C8,21.5523 8.44772,22 9,22 L15,22 C15.5523,22 16,21.5523 16,21 C16,20.4477 15.5523,20 15,20 L13,20 L13,17.92911 C16.3923,17.44388 19,14.52647 19,11 C19,10.447715 18.5523,10 18,10 C17.4477,10 17,10.447715 17,11 C17,13.76142 14.76142,16 12,16 C9.23858,16 7,13.76142 7,11 Z" id="Union"></path>
            </g>
        </g>
    </g>
</svg>