<?xml version="1.0" encoding="UTF-8"?>
<svg width="20px" height="19px" viewBox="0 0 20 19" version="1.1" xmlns="http://www.w3.org/2000/svg" xmlns:xlink="http://www.w3.org/1999/xlink">
    <title>UI icon/message/light</title>
    <g id="👀-Icons" stroke="none" stroke-width="1" fill="none" fill-rule="evenodd">
        <g id="编组" transform="translate(-2.000000, -3.000000)" fill="#6F767E">
            <path d="M7,9 C7,8.447715 7.447715,8 8,8 L16,8 C16.55229,8 17,8.447715 17,9 C17,9.55228 16.55229,10 16,10 L8,10 C7.447715,10 7,9.55228 7,9 Z" id="Vector-409-(Stroke)"></path>
            <path d="M7,13 C7,12.447715 7.447715,12 8,12 L12,12 C12.55228,12 13,12.447715 13,13 C13,13.55228 12.55228,14 12,14 L8,14 C7.447715,14 7,13.55228 7,13 Z" id="Vector-410-(Stroke)"></path>
            <path d="M6.71963,17.4636 C7.07906,17.164 7.53213,17 8,17 L19,17 C19.5523,17 20,16.5523 20,16 L20,6 C20,5.44771 19.5523,5 19,5 L5,5 C4.44772,5 4,5.44772 4,6 L4,19.7299 L6.71963,17.4636 Z M8,19 L19,19 C20.6569,19 22,17.6569 22,16 L22,6 C22,4.34315 20.6569,3 19,3 L5,3 C3.34315,3 2,4.34315 2,6 L2,19.7299 C2,21.4256 3.97771,22.3519 5.28037,21.2664 L8,19 Z" id="Rectangle-192-(Stroke)"></path>
        </g>
    </g>
</svg>