<?xml version="1.0" encoding="UTF-8"?>
<svg width="20px" height="16px" viewBox="0 0 20 16" version="1.1" xmlns="http://www.w3.org/2000/svg" xmlns:xlink="http://www.w3.org/1999/xlink">
    <title>UI icon/mail/filled</title>
    <g id="👀-Icons" stroke="none" stroke-width="1" fill="none" fill-rule="evenodd">
        <g id="编组" transform="translate(-2.000000, -4.000000)" fill="#6F767E" fill-rule="nonzero">
            <g id="Subtract" transform="translate(2.000000, 4.000000)">
                <path d="M0.457585,1.40673 C0.324955,1.61793 0.411543,1.88824 0.62359,2.0195 L9.47354,7.49804 C9.79605,7.69769 10.2037,7.69769 10.5262,7.49804 L19.3764,2.01941 C19.5884,1.88814 19.675,1.61782 19.5423,1.40662 C19.0117,0.561666 18.0714,0 17,0 L3,0 C1.92853,0 0.988253,0.561714 0.457585,1.40673 Z" id="27EF7330-3EE8-41F0-82B2-05221561F1DD"></path>
                <path d="M20,4.88312 C20,4.49137 19.5699,4.25179 19.2368,4.45799 L11.579,9.19857 C10.6114,9.79751 9.38835,9.79751 8.42083,9.19857 L0.763176,4.45812 C0.430081,4.25192 0,4.4915 0,4.88326 L0,13 C0,14.6569 1.34315,16 3,16 L17,16 C18.6569,16 20,14.6569 20,13 L20,4.88312 Z" id="241D5CCF-B239-4623-9816-9A5A6B3DAD74"></path>
            </g>
        </g>
    </g>
</svg>