<?xml version="1.0" encoding="UTF-8"?>
<svg width="20px" height="16px" viewBox="0 0 20 16" version="1.1" xmlns="http://www.w3.org/2000/svg" xmlns:xlink="http://www.w3.org/1999/xlink">
    <title>UI icon/mail/light</title>
    <g id="👀-Icons" stroke="none" stroke-width="1" fill="none" fill-rule="evenodd">
        <g id="Union" transform="translate(-2.000000, -4.000000)" fill="#6F767E">
            <path d="M5,6 L19,6 C19.3862,6 19.7213,6.21897 19.8879,6.53954 L12.5547,11.42834 C12.2188,11.65227 11.78121,11.65227 11.44531,11.42834 L4.11209,6.53953 C4.27868,6.21896 4.61377,6 5,6 Z M4,8.8685 L4,17 C4,17.5523 4.44772,18 5,18 L19,18 C19.5523,18 20,17.5523 20,17 L20,8.8685 L13.6641,13.09244 C12.6564,13.76424 11.34361,13.76424 10.33591,13.09244 L4,8.8685 Z M2,7 C2,5.34315 3.34315,4 5,4 L19,4 C20.6569,4 22,5.34315 22,7 L22,17 C22,18.6569 20.6569,20 19,20 L5,20 C3.34315,20 2,18.6569 2,17 L2,7 Z"></path>
        </g>
    </g>
</svg>