<?xml version="1.0" encoding="UTF-8"?>
<svg width="20px" height="14px" viewBox="0 0 20 14" version="1.1" xmlns="http://www.w3.org/2000/svg" xmlns:xlink="http://www.w3.org/1999/xlink">
    <title>UI icon/video_recorder/light</title>
    <g id="👀-Icons" stroke="none" stroke-width="1" fill="none" fill-rule="evenodd">
        <g id="Union" transform="translate(-2.000000, -5.000000)" fill="#6F767E">
            <path d="M17,15.4286 L17,16 C17,17.6569 15.6569,19 14,19 L5,19 C3.34315,19 2,17.6569 2,16 L2,8 C2,6.34315 3.34315,5 5,5 L14,5 C15.6569,5 17,6.34315 17,8 L17,8.57142 L18.8375,7.2589 C20.1613,6.31338 22,7.25962 22,8.88637 L22,15.1136 C22,16.7404 20.1613,17.6866 18.8375,16.7411 L17,15.4286 Z M5,7 L14,7 C14.5523,7 15,7.44772 15,8 L15,16 C15,16.5523 14.5523,17 14,17 L5,17 C4.44772,17 4,16.5523 4,16 L4,8 C4,7.44772 4.44772,7 5,7 Z M17,12.97075 L20,15.1136 L20,8.88637 L17,11.02923 L17,12.97075 Z"></path>
        </g>
    </g>
</svg>