<?xml version="1.0" encoding="UTF-8"?>
<svg width="20px" height="20px" viewBox="0 0 20 20" version="1.1" xmlns="http://www.w3.org/2000/svg" xmlns:xlink="http://www.w3.org/1999/xlink">
    <title>UI icon/add_circled/light</title>
    <g id="👀-Icons" stroke="none" stroke-width="1" fill="none" fill-rule="evenodd">
        <g id="编组" transform="translate(-2.000000, -2.000000)" fill="#6F767E">
            <path d="M12,20 C16.4183,20 20,16.4183 20,12 C20,7.58172 16.4183,4 12,4 C7.58172,4 4,7.58172 4,12 C4,16.4183 7.58172,20 12,20 Z M12,22 C17.5228,22 22,17.5228 22,12 C22,6.47715 17.5228,2 12,2 C6.47715,2 2,6.47715 2,12 C2,17.5228 6.47715,22 12,22 Z" id="Ellipse-201-(Stroke)"></path>
            <path d="M13,8 C13,7.447715 12.55228,7 12,7 C11.44772,7 11,7.447715 11,8 L11,11 L8,11 C7.447715,11 7,11.44772 7,12 C7,12.55228 7.447715,13 8,13 L11,13 L11,16 C11,16.55228 11.44771,17 12,17 C12.55228,17 13,16.55229 13,16 L13,13 L16,13 C16.55229,13 17,12.55228 17,12 C17,11.44772 16.55229,11 16,11 L13,11 L13,8 Z" id="Union" fill-rule="nonzero"></path>
        </g>
    </g>
</svg>