<?xml version="1.0" encoding="UTF-8"?>
<svg width="20px" height="19px" viewBox="0 0 20 19" version="1.1" xmlns="http://www.w3.org/2000/svg" xmlns:xlink="http://www.w3.org/1999/xlink">
    <title>UI icon/playlist/filled</title>
    <g id="👀-Icons" stroke="none" stroke-width="1" fill="none" fill-rule="evenodd">
        <g id="编组" transform="translate(-2.000000, -2.000000)" fill="#6F767E">
            <path d="M16.27239,3.43187715 C14.93689,3.76575445 14,4.96570553 14,6.34230677 L14,13.5350933 C13.41165,13.194793 12.72857,12.9999928 12,12.9999928 C9.79086,12.9999928 8,14.7908944 8,16.9999964 C8,19.2091984 9.79086,21 12,21 C14.20914,21 16,19.2091984 16,16.9999964 L16,9.89036998 C16,9.66092977 16.15615,9.46093959 16.37873,9.40529954 L19.7276,8.56807878 C21.0631,8.23419848 22,7.0342474 22,5.65764616 L22,5.20191574 C22,3.57548828 20.4715,2.3820922 18.8937,2.77655876 L16.27239,3.43187715 Z" id="Union" fill-rule="nonzero"></path>
            <path d="M2,6 C2,5.447715 2.447715,5 3,5 L11,5 C11.55229,5 12,5.447715 12,6 C12,6.55228 11.55229,7 11,7 L3,7 C2.447715,7 2,6.55228 2,6 Z" id="Vector-605-(Stroke)"></path>
            <path d="M2,10 C2,9.447715 2.447715,9 3,9 L11,9 C11.55229,9 12,9.447715 12,10 C12,10.55228 11.55229,11 11,11 L3,11 C2.447715,11 2,10.55228 2,10 Z" id="Vector-606-(Stroke)"></path>
            <path d="M2,14 C2,13.447715 2.447715,13 3,13 L6,13 C6.55228,13 7,13.447715 7,14 C7,14.55228 6.55228,15 6,15 L3,15 C2.447715,15 2,14.55228 2,14 Z" id="Vector-607-(Stroke)"></path>
        </g>
    </g>
</svg>