<?xml version="1.0" encoding="UTF-8"?>
<svg width="20px" height="19px" viewBox="0 0 20 19" version="1.1" xmlns="http://www.w3.org/2000/svg" xmlns:xlink="http://www.w3.org/1999/xlink">
    <title>UI icon/playlist/light</title>
    <g id="👀-Icons" stroke="none" stroke-width="1" fill="none" fill-rule="evenodd">
        <g id="编组" transform="translate(-2.000000, -2.000000)" fill="#6F767E">
            <path d="M2,6 C2,5.447715 2.447715,5 3,5 L11,5 C11.55229,5 12,5.447715 12,6 C12,6.55228 11.55229,7 11,7 L3,7 C2.447715,7 2,6.55228 2,6 Z" id="Vector-605-(Stroke)"></path>
            <path d="M2,10 C2,9.447715 2.447715,9 3,9 L11,9 C11.55229,9 12,9.447715 12,10 C12,10.55228 11.55229,11 11,11 L3,11 C2.447715,11 2,10.55228 2,10 Z" id="Vector-606-(Stroke)"></path>
            <path d="M2,14 C2,13.447715 2.447715,13 3,13 L6,13 C6.55228,13 7,13.447715 7,14 C7,14.55228 6.55228,15 6,15 L3,15 C2.447715,15 2,14.55228 2,14 Z" id="Vector-607-(Stroke)"></path>
            <path d="M14,6.34237595 C14,4.96577595 14.93689,3.76582795 16.27239,3.43195295 L18.3837,2.90412775 C20.2206,2.44490095 22,3.83421595 22,5.72765595 C22,7.06315595 21.0911,8.22727595 19.7955,8.55118595 L16,9.50004595 L16,16.999996 C16,19.209096 14.20914,20.999996 12,20.999996 C9.79086,20.999996 8,19.209096 8,16.999996 C8,14.790896 9.79086,12.999996 12,12.999996 C12.72857,12.999996 13.41165,13.194796 14,13.535096 L14,6.34237595 Z M16.75746,5.37223595 L18.8688,4.84441595 C19.4434,4.70075595 20,5.13535595 20,5.72765595 C20,6.14542595 19.7157,6.50957595 19.3104,6.61090595 L16,7.43849595 L16,6.34237595 C16,5.88351595 16.3123,5.48352595 16.75746,5.37223595 Z M12,14.999996 C13.10457,14.999996 14,15.895396 14,16.999996 C14,18.104596 13.10457,18.999996 12,18.999996 C10.89543,18.999996 10,18.104596 10,16.999996 C10,15.895396 10.89543,14.999996 12,14.999996 Z" id="Union"></path>
        </g>
    </g>
</svg>