<?xml version="1.0" encoding="UTF-8"?>
<svg width="16px" height="18px" viewBox="0 0 16 18" version="1.1" xmlns="http://www.w3.org/2000/svg" xmlns:xlink="http://www.w3.org/1999/xlink">
    <title>UI icon/share/filled</title>
    <g id="👀-Icons" stroke="none" stroke-width="1" fill="none" fill-rule="evenodd">
        <g id="编组" transform="translate(-4.000000, -3.000000)" fill="#6F767E" fill-rule="nonzero">
            <g id="Union">
                <path d="M20,6 C20,7.65685 18.6569,9 17,9 C16.2739,9 15.6081,8.74205 15.0891,8.31278 L9.9404,11.40201 C9.97948,11.59525 10,11.79523 10,12 C10,12.20477 9.97948,12.40475 9.9404,12.59799 L15.0891,15.6872 C15.6081,15.258 16.2739,15 17,15 C18.6569,15 20,16.3431 20,18 C20,19.6569 18.6569,21 17,21 C15.3431,21 14,19.6569 14,18 C14,17.7952 14.0205,17.5952 14.0596,17.4019 L8.91097,14.3127 C8.392,14.742 7.72613,15 7,15 C5.34315,15 4,13.6569 4,12 C4,10.34315 5.34315,9 7,9 C7.72613,9 8.39201,9.25798 8.91097,9.68728 L14.0596,6.59809 C14.0205,6.40482 14,6.2048 14,6 C14,4.34315 15.3431,3 17,3 C18.6569,3 20,4.34315 20,6 Z"></path>
            </g>
        </g>
    </g>
</svg>