<?xml version="1.0" encoding="UTF-8"?>
<svg width="18px" height="20px" viewBox="0 0 18 20" version="1.1" xmlns="http://www.w3.org/2000/svg" xmlns:xlink="http://www.w3.org/1999/xlink">
    <title>UI icon/share/light</title>
    <g id="👀-Icons" stroke="none" stroke-width="1" fill="none" fill-rule="evenodd">
        <g id="编组" transform="translate(-3.000000, -2.000000)" fill="#6F767E">
            <path d="M13.1635063,7.13566494 C13.3580162,7.7937502 13.717226,8.38114544 14.1934156,8.85010562 L10.8364479,10.8642864 C10.641933,10.2062062 10.2827102,9.61881593 9.80651855,9.14986574 L13.1635063,7.13566494 Z" id="Subtract" fill-rule="nonzero"></path>
            <path d="M9.80651855,14.8501437 L13.1634874,16.8643217 C13.3579873,16.2062324 13.7172072,15.618843 14.193397,15.1498834 L10.8364482,13.1357155 C10.6419333,13.7937968 10.2827104,14.3811842 9.80651855,14.8501437 Z" id="Subtract" fill-rule="nonzero"></path>
            <path d="M17,8 C18.10457,8 19,7.10457 19,6 C19,4.89543 18.10457,4 17,4 C15.89543,4 15,4.89543 15,6 C15,7.10457 15.89543,8 17,8 Z M21,6 C21,8.20914 19.20914,10 17,10 C14.79086,10 13,8.20914 13,6 C13,3.79086 14.79086,2 17,2 C19.20914,2 21,3.79086 21,6 Z" id="Oval-(Stroke)"></path>
            <path d="M17,20 C18.10457,20 19,19.10457 19,18 C19,16.89543 18.10457,16 17,16 C15.89543,16 15,16.89543 15,18 C15,19.10457 15.89543,20 17,20 Z M21,18 C21,20.20914 19.20914,22 17,22 C14.79086,22 13,20.20914 13,18 C13,15.79086 14.79086,14 17,14 C19.20914,14 21,15.79086 21,18 Z" id="Oval-Copy-7-(Stroke)"></path>
            <path d="M7,14 C8.10457,14 9,13.10457 9,12 C9,10.89543 8.10457,10 7,10 C5.89543,10 5,10.89543 5,12 C5,13.10457 5.89543,14 7,14 Z M11,12 C11,14.20914 9.20914,16 7,16 C4.79086,16 3,14.20914 3,12 C3,9.79086 4.79086,8 7,8 C9.20914,8 11,9.79086 11,12 Z" id="Oval-Copy-8-(Stroke)"></path>
        </g>
    </g>
</svg>