<?xml version="1.0" encoding="UTF-8"?>
<svg width="20px" height="20px" viewBox="0 0 20 20" version="1.1" xmlns="http://www.w3.org/2000/svg" xmlns:xlink="http://www.w3.org/1999/xlink">
    <title>UI icon/schedule/filled</title>
    <g id="👀-Icons" stroke="none" stroke-width="1" fill="none" fill-rule="evenodd">
        <g id="编组" transform="translate(-2.000000, -2.000000)" fill="#6F767E">
            <g id="Subtract" transform="translate(2.000000, 2.000000)">
                <path d="M6,1 C6,0.447715 5.55228,0 5,0 C4.44772,0 4,0.447715 4,1 L4,2 L3,2 C1.34315,2 0,3.34315 0,5 L0,17 C0,18.6569 1.34315,20 3,20 L8.87638,20 C9.32429,20 9.56588,19.4354 9.30509,19.0713 C8.48355,17.9242 8,16.5186 8,15 C8,11.134 11.134,8 15,8 C16.5186,8 17.9242,8.48355 19.0713,9.30509 C19.4354,9.56588 20,9.32428 20,8.87638 L20,5 C20,3.34315 18.6569,2 17,2 L16,2 L16,1 C16,0.447715 15.5523,0 15,0 C14.4477,0 14,0.447715 14,1 L14,2 L6,2 L6,1 Z" id="5BF34414-55C0-44BA-9195-858599D54FC4" fill-rule="nonzero"></path>
                <path d="M20,15 C20,12.2386 17.7614,10 15,10 C12.2386,10 10,12.2386 10,15 C10,17.7614 12.2386,20 15,20 C17.7614,20 20,17.7614 20,15 Z M16,13 C16,12.4477 15.5523,12 15,12 C14.4477,12 14,12.4477 14,13 L14,15 C14,15.2652 14.1054,15.5196 14.2929,15.7071 L15.7929,17.2071 C16.1834,17.5976 16.8166,17.5976 17.2071,17.2071 C17.5976,16.8166 17.5976,16.1834 17.2071,15.7929 L16,14.5858 L16,13 Z" id="11B25C6D-248A-41D3-BF39-9C65A8C89D49"></path>
            </g>
        </g>
    </g>
</svg>