<?xml version="1.0" encoding="UTF-8"?>
<svg width="21px" height="21px" viewBox="0 0 21 21" version="1.1" xmlns="http://www.w3.org/2000/svg" xmlns:xlink="http://www.w3.org/1999/xlink">
    <title>UI icon/schedule/light</title>
    <g id="👀-Icons" stroke="none" stroke-width="1" fill="none" fill-rule="evenodd">
        <g id="编组" transform="translate(-2.000000, -2.000000)" fill="#6F767E">
            <path d="M8,3 C8,2.447715 7.55228,2 7,2 C6.44772,2 6,2.447715 6,3 L6,4 L5,4 C3.34315,4 2,5.34315 2,7 L2,19 C2,20.6569 3.34315,22 5,22 L13.6822,22 C12.9121,21.488 12.2671,20.8028 11.80269,20 L5,20 C4.44772,20 4,19.5523 4,19 L4,7 C4,6.44772 4.44772,6 5,6 L6,6 L6,7 C6,7.55228 6.44772,8 7,8 C7.55228,8 8,7.55228 8,7 L8,6 L16,6 L16,7 C16,7.55228 16.4477,8 17,8 C17.5523,8 18,7.55228 18,7 L18,6 L19,6 C19.5523,6 20,6.44771 20,7 L20,11.80269 C20.8028,12.2671 21.488,12.9121 22,13.6822 L22,7 C22,5.34315 20.6569,4 19,4 L18,4 L18,3 C18,2.447715 17.5523,2 17,2 C16.4477,2 16,2.447715 16,3 L16,4 L8,4 L8,3 Z" id="Subtract" fill-rule="nonzero"></path>
            <path d="M17,21 C19.20914,21 21,19.20914 21,17 C21,14.79086 19.20914,13 17,13 C14.79086,13 13,14.79086 13,17 C13,19.20914 14.79086,21 17,21 Z M17,23 C20.31371,23 23,20.31371 23,17 C23,13.68629 20.31371,11 17,11 C13.68629,11 11,13.68629 11,17 C11,20.31371 13.68629,23 17,23 Z" id="Ellipse-134-(Stroke)"></path>
            <path d="M17,14 C17.55228,14 18,14.447715 18,15 L18,16.58579 L18.70711,17.29289 C19.09763,17.68342 19.09763,18.31658 18.70711,18.70711 C18.31658,19.09763 17.68342,19.09763 17.29289,18.70711 L16.292893,17.70711 C16.105357,17.51957 16,17.26522 16,17 L16,15 C16,14.447715 16.447715,14 17,14 Z" id="Vector-479-(Stroke)"></path>
        </g>
    </g>
</svg>