<?xml version="1.0" encoding="UTF-8"?>
<svg width="15px" height="16px" viewBox="0 0 15 16" version="1.1" xmlns="http://www.w3.org/2000/svg" xmlns:xlink="http://www.w3.org/1999/xlink">
    <title>UI icon/chevron_double_backward/filled</title>
    <g id="👀-Icons" stroke="none" stroke-width="1" fill="none" fill-rule="evenodd">
        <g id="编组" transform="translate(-4.000000, -4.000000)" fill="#6F767E">
            <path d="M1.25000176,8.25000124 C1.64052641,7.85947723 2.27369047,7.85947723 2.66422111,8.25000124 L8.45712074,14.042897 L14.2500304,8.25000124 C14.640531,7.85947723 15.2737321,7.85947723 15.6642327,8.25000124 C16.0547334,8.64052516 16.0547334,9.27368803 15.6642327,9.66421794 L9.87133309,15.4571082 C9.09028179,16.2381566 7.82394969,16.2381566 7.04290839,15.4571082 L1.25000176,9.66421794 C0.859477015,9.27368803 0.859477015,8.64052516 1.25000176,8.25000124 Z" id="Vector-474-(Stroke)" transform="translate(8.457108, 12.000001) scale(1, -1) rotate(89.999991) translate(-8.457108, -12.000001) "></path>
            <path d="M7.50000176,8.25000124 C7.89052641,7.85947723 8.52369047,7.85947723 8.91422111,8.25000124 L14.7071207,14.042897 L20.5000304,8.25000124 C20.890531,7.85947723 21.5237321,7.85947723 21.9142327,8.25000124 C22.3047334,8.64052516 22.3047334,9.27368803 21.9142327,9.66421794 L16.1213331,15.4571082 C15.3402818,16.2381566 14.0739497,16.2381566 13.2929084,15.4571082 L7.50000176,9.66421794 C7.10947702,9.27368803 7.10947702,8.64052516 7.50000176,8.25000124 Z" id="Vector-475-(Stroke)" transform="translate(14.707108, 12.000001) scale(1, -1) rotate(89.999991) translate(-14.707108, -12.000001) "></path>
        </g>
    </g>
</svg>