<?xml version="1.0" encoding="UTF-8"?>
<svg width="15px" height="16px" viewBox="0 0 15 16" version="1.1" xmlns="http://www.w3.org/2000/svg" xmlns:xlink="http://www.w3.org/1999/xlink">
    <title>UI icon/chevron_double_backward/light</title>
    <g id="👀-Icons" stroke="none" stroke-width="1" fill="none" fill-rule="evenodd">
        <g id="编组" transform="translate(-4.000000, -4.000000)" fill="#6F767E">
            <path d="M1.24998651,8.24998598 C1.64051115,7.85946197 2.27367521,7.85946197 2.66420586,8.24998598 L8.45710548,14.0428818 L14.2500151,8.24998598 C14.6405158,7.85946197 15.2737168,7.85946197 15.6642175,8.24998598 C16.0547181,8.6405099 16.0547181,9.27367277 15.6642175,9.66420268 L9.87131783,15.457093 C9.09026653,16.2381413 7.82393443,16.2381413 7.04289313,15.457093 L1.24998651,9.66420268 C0.859461757,9.27367277 0.859461757,8.6405099 1.24998651,8.24998598 Z" id="Vector-474-(Stroke)" transform="translate(8.457093, 11.999986) scale(1, -1) rotate(89.999991) translate(-8.457093, -11.999986) "></path>
            <path d="M7.49998651,8.24998598 C7.89051115,7.85946197 8.52367521,7.85946197 8.91420586,8.24998598 L14.7071055,14.0428818 L20.5000151,8.24998598 C20.8905158,7.85946197 21.5237168,7.85946197 21.9142175,8.24998598 C22.3047181,8.6405099 22.3047181,9.27367277 21.9142175,9.66420268 L16.1213178,15.457093 C15.3402665,16.2381413 14.0739344,16.2381413 13.2928931,15.457093 L7.49998651,9.66420268 C7.10946176,9.27367277 7.10946176,8.6405099 7.49998651,8.24998598 Z" id="Vector-475-(Stroke)" transform="translate(14.707093, 11.999986) scale(1, -1) rotate(89.999991) translate(-14.707093, -11.999986) "></path>
        </g>
    </g>
</svg>