<?xml version="1.0" encoding="UTF-8"?>
<svg width="20px" height="20px" viewBox="0 0 20 20" version="1.1" xmlns="http://www.w3.org/2000/svg" xmlns:xlink="http://www.w3.org/1999/xlink">
    <title>UI icon/save/filled</title>
    <g id="👀-Icons" stroke="none" stroke-width="1" fill="none" fill-rule="evenodd">
        <g id="Subtract" transform="translate(-2.000000, -2.000000)" fill="#6F767E">
            <path d="M5,2 C3.34315,2 2,3.34315 2,5 L2,19 C2,20.6569 3.34315,22 5,22 L19,22 C20.6569,22 22,20.6569 22,19 L22,8.24264 C22,7.44699 21.6839,6.68393 21.1213,6.12132 L17.8787,2.87868 C17.3161,2.316071 16.553,2 15.7574,2 L5,2 Z M6,16 C6,14.8954 6.89543,14 8,14 L16,14 C17.1046,14 18,14.8954 18,16 L18,19 C18,19.5523 17.5523,20 17,20 L7,20 C6.44771,20 6,19.5523 6,19 L6,16 Z M15,9 L9,9 C7.89543,9 7,8.10457 7,7 L7,5 C7,4.44772 7.44772,4 8,4 L15.5858,4 C15.851,4 16.1054,4.10536 16.2929,4.29289 L16.7071,4.70711 C16.8946,4.89464 17,5.149 17,5.41421 L17,7 C17,8.10457 16.1046,9 15,9 Z"></path>
        </g>
    </g>
</svg>