<?xml version="1.0" encoding="UTF-8"?>
<svg width="20px" height="20px" viewBox="0 0 20 20" version="1.1" xmlns="http://www.w3.org/2000/svg" xmlns:xlink="http://www.w3.org/1999/xlink">
    <title>UI icon/save/light</title>
    <g id="👀-Icons" stroke="none" stroke-width="1" fill="none" fill-rule="evenodd">
        <g id="Union" transform="translate(-2.000000, -2.000000)" fill="#6F767E">
            <path d="M15.7574,2 C16.553,2 17.3161,2.316071 17.8787,2.87868 L21.1213,6.12132 C21.6839,6.68393 22,7.44699 22,8.24264 L22,19 C22,20.6569 20.6569,22 19,22 L5,22 C3.34315,22 2,20.6569 2,19 L2,5 C2,3.34315 3.34315,2 5,2 L15.7574,2 Z M5,20 L6,20 L6,16 C6,14.8954 6.89543,14 8,14 L16,14 C17.1046,14 18,14.8954 18,16 L18,20 L19,20 C19.5523,20 20,19.5523 20,19 L20,8.24264 C20,7.97742 19.8946,7.72307 19.7071,7.53553 L17,4.82843 L17,7 C17,8.10457 16.1046,9 15,9 L9,9 C7.89543,9 7,8.10457 7,7 L7,4 L5,4 C4.44771,4 4,4.44772 4,5 L4,19 C4,19.5523 4.44772,20 5,20 Z M9,4 L9,7 L15,7 L15,4.02988 C14.9213,4.01019 14.8399,4 14.7574,4 L9,4 Z M16,20 L8,20 L8,16 L16,16 L16,20 Z"></path>
        </g>
    </g>
</svg>