<?xml version="1.0" encoding="UTF-8"?>
<svg width="18px" height="16px" viewBox="0 0 18 16" version="1.1" xmlns="http://www.w3.org/2000/svg" xmlns:xlink="http://www.w3.org/1999/xlink">
    <title>UI icon/upload/filled</title>
    <g id="👀-Icons" stroke="none" stroke-width="1" fill="none" fill-rule="evenodd">
        <g id="编组" transform="translate(-3.000000, -4.000000)" fill="#6F767E">
            <path d="M17.2070503,9.29050399 C17.5976499,9.6810232 17.5976499,10.3141919 17.2070503,10.7047111 C16.8165507,11.0952404 16.1834114,11.0952404 15.7928818,10.7047111 L13.0019448,7.91377676 L13.0019448,15.0000025 C13.0019448,15.5523014 12.5542353,16.0000005 12.0019458,16.0000005 C11.4496664,16.0000005 11.0019469,15.5523014 11.0019469,15.0000025 L11.0019469,7.91368676 L8.20896988,10.7066711 C7.8184403,11.0971904 7.18527897,11.0971904 6.79475439,10.7066711 C6.4042313,10.3161419 6.4042303,9.6829832 6.79475339,9.29245399 L11.2947966,4.79241705 C11.4823264,4.60488043 11.7366861,4.49952364 12.0018958,4.49952364 C12.2671156,4.49952364 12.5214653,4.60488043 12.7090051,4.79241605 L17.2070503,9.29050399 Z" id="Union" fill-rule="nonzero"></path>
            <path d="M4,14 C4.55228,14 5,14.447715 5,15 L5,17 C5,17.55228 5.44772,18 6,18 L18,18 C18.5523,18 19,17.55228 19,17 L19,15 C19,14.447715 19.4477,14 20,14 C20.5523,14 21,14.447715 21,15 L21,17 C21,18.65685 19.6569,20 18,20 L6,20 C4.34315,20 3,18.65685 3,17 L3,15 C3,14.447715 3.447715,14 4,14 Z" id="Path-13-Copy-7-(Stroke)"></path>
        </g>
    </g>
</svg>