<?xml version="1.0" encoding="UTF-8"?>
<svg width="20px" height="20px" viewBox="0 0 20 20" version="1.1" xmlns="http://www.w3.org/2000/svg" xmlns:xlink="http://www.w3.org/1999/xlink">
    <title>UI icon/profile_circled/filled</title>
    <g id="👀-Icons" stroke="none" stroke-width="1" fill="none" fill-rule="evenodd">
        <g id="Subtract" transform="translate(-2.000000, -2.000000)" fill="#6F767E">
            <path d="M22,12 C22,17.5228 17.5228,22 12,22 C6.47715,22 2,17.5228 2,12 C2,6.47715 6.47715,2 12,2 C17.5228,2 22,6.47715 22,12 Z M17.7137,16.4006 C18.0416,16.7351 18.0416,17.265 17.7136,17.5996 C16.2617,19.0809 14.2382,20 12.0001,20 C9.76186,20 7.73834,19.0809 6.28636,17.5994 C5.95845,17.2649 5.95846,16.735 6.28637,16.4004 C7.73834,14.9191 9.76181,14 11.99995,14 C14.2382,14 16.2617,14.9192 17.7137,16.4006 Z M12,12 C13.6569,12 15,10.65685 15,9 C15,7.34315 13.6569,6 12,6 C10.34315,6 9,7.34315 9,9 C9,10.65685 10.34315,12 12,12 Z"></path>
        </g>
    </g>
</svg>