<?xml version="1.0" encoding="UTF-8"?>
<svg width="20px" height="20px" viewBox="0 0 20 20" version="1.1" xmlns="http://www.w3.org/2000/svg" xmlns:xlink="http://www.w3.org/1999/xlink">
    <title>UI icon/profile_circled/light</title>
    <g id="👀-Icons" stroke="none" stroke-width="1" fill="none" fill-rule="evenodd">
        <g id="编组" transform="translate(-2.000000, -2.000000)" fill="#6F767E">
            <g id="Vector" transform="translate(2.000000, 2.000000)">
                <path d="M10,10 C11.1046,10 12,9.10457 12,8 C12,6.89543 11.1046,6 10,6 C8.89543,6 8,6.89543 8,8 C8,9.10457 8.89543,10 10,10 Z M10,12 C12.2091,12 14,10.2091 14,8 C14,5.79086 12.2091,4 10,4 C7.79086,4 6,5.79086 6,8 C6,10.2091 7.79086,12 10,12 Z" id="02146242-8FBE-4AB0-8799-48FD6659CB3F"></path>
                <path d="M16.5588,17.5488 C18.6672,15.7154 20,13.0134 20,10 C20,4.47715 15.5228,0 10,0 C4.47715,0 0,4.47715 0,10 C0,13.0134 1.33284,15.7154 3.44116,17.5488 C5.19693,19.0756 7.49052,20 10,20 C12.4162,20 14.6323,19.143 16.3609,17.7165 C16.4276,17.6614 16.4936,17.6055 16.5588,17.5488 Z M10.2579,17.9959 C10.1723,17.9986 10.0863,18 10,18 C9.99137,18 9.98274,18 9.97412,18 C9.89368,17.9997 9.81353,17.9983 9.73367,17.9956 C8.39138,17.9517 7.13273,17.5772 6.03655,16.9508 C6.95181,15.7632 8.3882,15 10,15 C11.6118,15 13.0482,15.7632 13.9634,16.9508 C12.865,17.5785 11.6033,17.9533 10.2579,17.9959 Z M15.5624,15.7498 C14.2832,14.0781 12.2675,13 10,13 C7.73249,13 5.7168,14.0781 4.43759,15.7498 C2.93447,14.2953 2,12.2568 2,10 C2,5.58172 5.58172,2 10,2 C14.4183,2 18,5.58172 18,10 C18,12.2568 17.0655,14.2953 15.5624,15.7498 Z" id="1C64AAA6-B5E3-497D-9D6C-DF4ABCBB6A24"></path>
            </g>
        </g>
    </g>
</svg>