<?xml version="1.0" encoding="UTF-8"?>
<svg width="22px" height="20px" viewBox="0 0 22 20" version="1.1" xmlns="http://www.w3.org/2000/svg" xmlns:xlink="http://www.w3.org/1999/xlink">
    <title>UI icon/snowflake/light</title>
    <g id="👀-Icons" stroke="none" stroke-width="1" fill="none" fill-rule="evenodd">
        <g id="Vector-(Stroke)" transform="translate(-1.000000, -2.000000)" fill="#6F767E">
            <path d="M8.51511457,2.40400513 C8.90563429,2.01348016 9.53880384,2.01347986 9.92932357,2.40400413 L12.0000321,4.47467152 L14.0706306,2.40400413 C14.4612304,2.01347986 15.0943299,2.01348026 15.4848296,2.40400513 C15.8754294,2.7945292 15.8754294,3.42769132 15.4848296,3.8182214 L13.0000314,6.30310186 L13.0000314,10.2679726 L16.433629,8.28555224 L17.3431283,4.8911416 C17.4861282,4.3576715 18.0344278,4.04109144 18.5679274,4.18403147 C19.1013271,4.32697149 19.4179268,4.8753116 19.2750269,5.4087717 L18.5171275,8.23736223 L21.3457255,8.99528237 C21.8791251,9.1382224 22.1957249,9.6865625 22.052825,10.2200326 C21.9098251,10.7534927 21.3615255,11.0700828 20.8280258,10.9271327 L17.4336282,10.0176026 L14.0000307,12.0000229 L17.4336282,13.9824133 L20.8280258,13.0729131 C21.3615255,12.9300131 21.9098251,13.2465132 22.052825,13.7800133 C22.1957249,14.3135134 21.8791251,14.8618135 21.3457255,15.0048135 L18.5171275,15.7627136 L19.2750269,18.5913142 C19.4179268,19.1247143 19.1013271,19.6731144 18.5679274,19.8160144 C18.0344278,19.9590144 17.4861282,19.6424144 17.3431283,19.1089143 L16.433629,15.7145136 L13.0000314,13.7321133 L13.0000314,17.696914 L15.4848296,20.1818145 C15.8754294,20.5723145 15.8754294,21.2055147 15.4848296,21.5960147 C15.0943299,21.9865148 14.4612304,21.9865148 14.0706306,21.5960147 L12.0000321,19.5253143 L9.92932357,21.5960147 C9.53880384,21.9865148 8.90563429,21.9865148 8.51511457,21.5960147 C8.12458484,21.2055147 8.12458484,20.5723145 8.51511457,20.1818145 L10.9999928,17.696914 L10.9999928,13.7321133 L7.56631524,15.7145136 L6.65678588,19.1089143 C6.51384599,19.6424144 5.96550637,19.9590144 5.43204675,19.8160144 C4.89857713,19.6731144 4.58199735,19.1247143 4.72493725,18.5913142 L5.48285672,15.7627136 L2.65426772,15.0048135 C2.1208021,14.8618135 1.80422032,14.3135134 1.94716162,13.7800133 C2.09010312,13.2465132 2.63843973,12.9300131 3.17190835,13.0729131 L6.56631595,13.9824133 L9.99998352,12.0000229 L6.56635595,10.0176026 L3.17193835,10.9271327 C2.63847373,11.0700828 2.09013712,10.7534927 1.94719512,10.2200326 C1.80425332,9.6865625 2.1208361,9.1382224 2.65430172,8.99528237 L5.48288672,8.23736223 L4.72496725,5.4087717 C4.58202735,4.8753116 4.89860713,4.32697149 5.43207675,4.18403147 C5.96554637,4.04109144 6.51387599,4.3576715 6.65682588,4.8911416 L7.56635524,8.28555224 L10.9999928,10.2679726 L10.9999928,6.30310186 L8.51511457,3.8182214 C8.12458484,3.42769132 8.12458484,2.7945292 8.51511457,2.40400513 Z"></path>
        </g>
    </g>
</svg>