<?xml version="1.0" encoding="UTF-8"?>
<svg width="19px" height="19px" viewBox="0 0 19 19" version="1.1" xmlns="http://www.w3.org/2000/svg" xmlns:xlink="http://www.w3.org/1999/xlink">
    <title>UI icon/zoom_out/light</title>
    <g id="👀-Icons" stroke="none" stroke-width="1" fill="none" fill-rule="evenodd">
        <g id="编组" transform="translate(-2.000000, -2.000000)" fill="#6F767E">
            <path d="M7,11 C7,10.447715 7.447715,10 8,10 L14,10 C14.55228,10 15,10.447715 15,11 C15,11.55228 14.55228,12 14,12 L8,12 C7.447715,12 7,11.55228 7,11 Z" id="Vector-605-(Stroke)"></path>
            <path d="M18.0319,16.6177 C19.2635,15.078 20,13.125 20,11 C20,6.02944 15.9706,2 11,2 C6.02944,2 2,6.02944 2,11 C2,15.9706 6.02944,20 11,20 C13.125,20 15.078,19.2635 16.6177,18.0319 L19.2929,20.7071 C19.6834,21.0976 20.3166,21.0976 20.7071,20.7071 C21.0976,20.3166 21.0976,19.6834 20.7071,19.2929 L18.0319,16.6177 Z M18,11 C18,14.866 14.866,18 11,18 C7.13401,18 4,14.866 4,11 C4,7.13401 7.13401,4 11,4 C14.866,4 18,7.13401 18,11 Z" id="Union"></path>
        </g>
    </g>
</svg>