<?xml version="1.0" encoding="UTF-8"?>
<svg width="20px" height="20px" viewBox="0 0 20 20" version="1.1" xmlns="http://www.w3.org/2000/svg" xmlns:xlink="http://www.w3.org/1999/xlink">
    <title>UI icon/ship/filled</title>
    <g id="👀-Icons" stroke="none" stroke-width="1" fill="none" fill-rule="evenodd">
        <g id="Union" transform="translate(-2.000000, -2.000000)" fill="#6F767E">
            <path d="M12.9999556,3 C12.9999556,2.447715 12.5522556,2 11.9999556,2 C11.4477156,2 10.9999956,2.447715 10.9999956,3 L10.9999956,4 L9.49999565,4 C8.11928565,4 6.99999565,5.11929 6.99999565,6.5 L6.99999565,7 C5.34314565,7 3.99999565,8.34315 3.99999565,10 L3.99999565,13.2857 L3.86163565,13.3253 C2.55062665,13.6998 1.78153265,15.0558 2.13284665,16.3732 L2.96674765,19.5004 C2.61224965,19.5125 2.27533165,19.7132 2.10554765,20.0528 C1.85855865,20.5467 2.05878265,21.1474 2.55276065,21.3944 L2.65833365,21.4472 C3.50291565,21.8695 4.49703565,21.8695 5.34161565,21.4472 L5.55276565,21.3416 C5.83428565,21.2009 6.16566565,21.2009 6.44718565,21.3416 L6.65833565,21.4472 C7.50291565,21.8695 8.49703565,21.8695 9.34161565,21.4472 L9.55276565,21.3416 C9.83428565,21.2009 10.1656556,21.2009 10.4471856,21.3416 L10.6583356,21.4472 C11.5029156,21.8695 12.4970556,21.8695 13.3416556,21.4472 L13.5527556,21.3416 C13.8342556,21.2009 14.1656556,21.2009 14.4471556,21.3416 L14.6583556,21.4472 C15.5029556,21.8695 16.4970556,21.8695 17.3416556,21.4472 L17.5527556,21.3416 C17.8342556,21.2009 18.1656556,21.2009 18.4471556,21.3416 L18.6583556,21.4472 C19.5029556,21.8695 20.4970556,21.8695 21.3416556,21.4472 L21.4471556,21.3944 C21.9411556,21.1474 22.1413556,20.5467 21.8943556,20.0528 C21.7246556,19.7132 21.3877556,19.5125 21.0332556,19.5004 L21.8671556,16.3732 C22.2184556,15.0558 21.4493556,13.6998 20.1383556,13.3253 L19.9999556,13.2857 L19.9999556,10 C19.9999556,8.34315 18.6568556,7 16.9999556,7 L16.9999556,6.5 C16.9999556,5.11929 15.8807556,4 14.4999556,4 L12.9999556,4 L12.9999556,3 Z M17.9999556,12.7143 L17.9999556,10 C17.9999556,9.44772 17.5522556,9 16.9999556,9 L6.99999565,9 C6.44771565,9 5.99999565,9.44771 5.99999565,10 L5.99999565,12.7143 L11.1758256,11.23548 C11.7144956,11.08158 12.2854556,11.08158 12.8241556,11.23548 L17.9999556,12.7143 Z"></path>
        </g>
    </g>
</svg>