<?xml version="1.0" encoding="UTF-8"?>
<svg width="20px" height="20px" viewBox="0 0 20 20" version="1.1" xmlns="http://www.w3.org/2000/svg" xmlns:xlink="http://www.w3.org/1999/xlink">
    <title>UI icon/ship/light</title>
    <g id="👀-Icons" stroke="none" stroke-width="1" fill="none" fill-rule="evenodd">
        <g id="Union" transform="translate(-2.000000, -2.000000)" fill="#6F767E">
            <path d="M11.9999556,2 C12.5522556,2 12.9999556,2.447715 12.9999556,3 L12.9999556,4 L13.9999556,4 C15.6568556,4 16.9999556,5.34315 16.9999556,7 L16.9999556,8 C18.6568556,8 19.9999556,9.34315 19.9999556,11 L19.9999556,13.2857 L20.1383556,13.3253 C21.4493556,13.6998 22.2184556,15.0558 21.8671556,16.3732 L21.0332556,19.5003 C21.3877556,19.5125 21.7246556,19.7132 21.8943556,20.0528 C22.1413556,20.5467 21.9411556,21.1474 21.4471556,21.3944 L21.3416556,21.4472 C20.5338556,21.8511 19.5892556,21.8687 18.7695556,21.5 L18.7499556,21.5 L18.7519556,21.492 C18.7205556,21.4777 18.6893556,21.4627 18.6583556,21.4472 L18.4471556,21.3416 C18.1656556,21.2009 17.8342556,21.2009 17.5527556,21.3416 L17.3416556,21.4472 C16.4970556,21.8695 15.5029556,21.8695 14.6583556,21.4472 L14.4471556,21.3416 C14.1656556,21.2009 13.8342556,21.2009 13.5527556,21.3416 L13.3416556,21.4472 C12.4970556,21.8695 11.5029156,21.8695 10.6583356,21.4472 L10.4471856,21.3416 C10.1656556,21.2009 9.83428565,21.2009 9.55276565,21.3416 L9.34161565,21.4472 C8.49703565,21.8695 7.50291565,21.8695 6.65833565,21.4472 L6.44718565,21.3416 C6.16566565,21.2009 5.83428565,21.2009 5.55276565,21.3416 L5.34161565,21.4472 C5.31060565,21.4627 5.27939565,21.4776 5.24799565,21.492 L5.25000565,21.5 L5.23034565,21.5 C4.41065565,21.8687 3.46610565,21.8511 2.65833365,21.4472 L2.55276065,21.3944 C2.05878265,21.1474 1.85855865,20.5467 2.10554765,20.0528 C2.27533165,19.7132 2.61224665,19.5124 2.96674565,19.5003 L2.13284665,16.3732 C1.78153265,15.0558 2.55062665,13.6998 3.86163565,13.3253 L3.99999565,13.2857 L3.99999565,11 C3.99999565,9.34315 5.34314565,8 6.99999565,8 L6.99999565,7 C6.99999565,5.34315 8.34314565,4 9.99999565,4 L10.9999956,4 L10.9999956,3 C10.9999956,2.447715 11.4477156,2 11.9999556,2 Z M5.01088565,19.4038 C5.77085565,19.1383 6.61202565,19.188 7.34161565,19.5528 L7.55276565,19.6583 C7.83428565,19.7991 8.16565565,19.7991 8.44718565,19.6583 L8.65833565,19.5528 C9.50291565,19.1305 10.4970356,19.1305 11.3416156,19.5528 L11.5527656,19.6583 C11.8342856,19.7991 12.1656556,19.7991 12.4471556,19.6583 L12.6583556,19.5528 C13.5029556,19.1305 14.4970556,19.1305 15.3416556,19.5528 L15.5527556,19.6583 C15.8342556,19.7991 16.1656556,19.7991 16.4471556,19.6583 L16.6583556,19.5528 C17.3879556,19.188 18.2291556,19.1383 18.9890556,19.4038 L19.9346556,15.8579 C20.0049556,15.5944 19.8511556,15.3232 19.5889556,15.2483 L12.2747556,13.1585 C12.0951556,13.1072 11.9048256,13.1072 11.7252656,13.1585 L4.41107565,15.2483 C4.14887565,15.3232 3.99505565,15.5944 4.06531565,15.8579 L5.01088565,19.4038 Z M5.99999565,12.7143 L11.1758256,11.23548 C11.7144956,11.08158 12.2854556,11.08158 12.8241556,11.23548 L17.9999556,12.7143 L17.9999556,11 C17.9999556,10.44772 17.5522556,10 16.9999556,10 L6.99999565,10 C6.44771565,10 5.99999565,10.44771 5.99999565,11 L5.99999565,12.7143 Z M8.99999565,7 C8.99999565,6.44772 9.44771565,6 9.99999565,6 L13.9999556,6 C14.5522556,6 14.9999556,6.44772 14.9999556,7 L14.9999556,8 L8.99999565,8 L8.99999565,7 Z"></path>
        </g>
    </g>
</svg>