<?xml version="1.0" encoding="UTF-8"?>
<svg width="19px" height="18px" viewBox="0 0 19 18" version="1.1" xmlns="http://www.w3.org/2000/svg" xmlns:xlink="http://www.w3.org/1999/xlink">
    <title>UI icon/hash/filled</title>
    <g id="👀-Icons" stroke="none" stroke-width="1" fill="none" fill-rule="evenodd">
        <g id="Union" transform="translate(-2.000000, -3.000000)" fill="#6F767E">
            <path d="M10.2983,3.04554329 C10.82544,3.21027609 11.11924,3.77115309 10.9545,4.29829609 L10.11022,6.99999609 L16.0148,6.99999609 L17.0455,3.70174809 C17.2103,3.17460309 17.7712,2.88081009 18.2983,3.04554329 C18.8254,3.21027609 19.1192,3.77115309 18.9545,4.29829609 L18.1102,6.99999609 L20,6.99999609 C20.5523,6.99999609 21,7.44771609 21,7.99999609 C21,8.55228609 20.5523,8.99999609 20,8.99999609 L17.4852,8.99999609 L15.6102,14.9999561 L18,14.9999561 C18.5523,14.9999561 19,15.4477561 19,15.9999561 C19,16.5522561 18.5523,16.9999561 18,16.9999561 L14.9852,16.9999561 L13.9545,20.2982561 C13.7898,20.8254561 13.2289,21.1192561 12.7017,20.9544561 C12.1746,20.7897561 11.88081,20.2288561 12.0455,19.7017561 L12.8898,16.9999561 L6.98522,16.9999561 L5.9545,20.2982561 C5.78977,20.8254561 5.22889,21.1192561 4.70175,20.9544561 C4.1746,20.7897561 3.88081,20.2288561 4.04554,19.7017561 L4.88984,16.9999561 L3,16.9999561 C2.447715,16.9999561 2,16.5522561 2,15.9999561 C2,15.4477561 2.447715,14.9999561 3,14.9999561 L5.51484,14.9999561 L7.38984,8.99999609 L5,8.99999609 C4.44772,8.99999609 4,8.55228609 4,7.99999609 C4,7.44771609 4.44772,6.99999609 5,6.99999609 L8.01484,6.99999609 L9.04554,3.70174809 C9.21028,3.17460309 9.77115,2.88081009 10.2983,3.04554329 Z M13.5148,14.9999561 L15.3898,8.99999609 L9.48522,8.99999609 L7.61022,14.9999561 L13.5148,14.9999561 Z"></path>
        </g>
    </g>
</svg>