<?xml version="1.0" encoding="UTF-8"?>
<svg width="20px" height="18px" viewBox="0 0 20 18" version="1.1" xmlns="http://www.w3.org/2000/svg" xmlns:xlink="http://www.w3.org/1999/xlink">
    <title>UI icon/hash/light</title>
    <g id="👀-Icons" stroke="none" stroke-width="1" fill="none" fill-rule="evenodd">
        <g id="Union" transform="translate(-2.000000, -3.000000)" fill="#6F767E">
            <path d="M10.7983,3.04554329 C11.32544,3.21027609 11.61924,3.77115309 11.4545,4.29829609 L10.61022,6.99999609 L16.5148,6.99999609 L17.5455,3.70174809 C17.7103,3.17460309 18.2712,2.88081009 18.7983,3.04554329 C19.3254,3.21027609 19.6192,3.77115309 19.4545,4.29829609 L18.6102,6.99999609 L20.5,6.99999609 C21.0523,6.99999609 21.5,7.44771609 21.5,7.99999609 C21.5,8.55228609 21.0523,8.99999609 20.5,8.99999609 L17.9852,8.99999609 L16.1102,14.9999561 L18.5,14.9999561 C19.0523,14.9999561 19.5,15.4477561 19.5,15.9999561 C19.5,16.5522561 19.0523,16.9999561 18.5,16.9999561 L15.4852,16.9999561 L14.4545,20.2982561 C14.2898,20.8254561 13.7289,21.1192561 13.2017,20.9544561 C12.6746,20.7897561 12.38081,20.2288561 12.5455,19.7017561 L13.3898,16.9999561 L7.48522,16.9999561 L6.4545,20.2982561 C6.28977,20.8254561 5.72889,21.1192561 5.20175,20.9544561 C4.6746,20.7897561 4.38081,20.2288561 4.54554,19.7017561 L5.38984,16.9999561 L3.5,16.9999561 C2.947715,16.9999561 2.5,16.5522561 2.5,15.9999561 C2.5,15.4477561 2.947715,14.9999561 3.5,14.9999561 L6.01484,14.9999561 L7.88984,8.99999609 L5.5,8.99999609 C4.94772,8.99999609 4.5,8.55228609 4.5,7.99999609 C4.5,7.44771609 4.94772,6.99999609 5.5,6.99999609 L8.51484,6.99999609 L9.54554,3.70174809 C9.71028,3.17460309 10.27115,2.88081009 10.7983,3.04554329 Z M14.0148,14.9999561 L15.8898,8.99999609 L9.98522,8.99999609 L8.11022,14.9999561 L14.0148,14.9999561 Z"></path>
        </g>
    </g>
</svg>