<?xml version="1.0" encoding="UTF-8"?>
<svg width="20px" height="10px" viewBox="0 0 20 10" version="1.1" xmlns="http://www.w3.org/2000/svg" xmlns:xlink="http://www.w3.org/1999/xlink">
    <title>UI icon/link/filled</title>
    <g id="👀-Icons" stroke="none" stroke-width="1" fill="none" fill-rule="evenodd">
        <g id="编组" transform="translate(-2.000000, -7.000000)" fill="#6F767E">
            <path d="M2,12 C2,9.23858 4.23858,7 7,7 L10,7 C10.55228,7 11,7.447715 11,8 C11,8.55228 10.55228,9 10,9 L7,9 C5.34315,9 4,10.34315 4,12 C4,13.65685 5.34315,15 7,15 L10,15 C10.55228,15 11,15.44772 11,16 C11,16.55229 10.55228,17 10,17 L7,17 C4.23858,17 2,14.76142 2,12 Z" id="Rectangle-104-(Stroke)"></path>
            <path d="M13,8 C13,7.447715 13.447715,7 14,7 L17,7 C19.76142,7 22,9.23858 22,12 C22,14.76142 19.76142,17 17,17 L14,17 C13.447715,17 13,16.55229 13,16 C13,15.44772 13.447715,15 14,15 L17,15 C18.65685,15 20,13.65685 20,12 C20,10.34315 18.65685,9 17,9 L14,9 C13.447715,9 13,8.55228 13,8 Z" id="Rectangle-105-(Stroke)"></path>
            <path d="M7.99998474,12 C7.99998474,11.447715 8.44769974,11 8.99998474,11 L14.9999847,11 C15.5522647,11 15.9999847,11.447715 15.9999847,12 C15.9999847,12.55228 15.5522647,13 14.9999847,13 L8.99998474,13 C8.44769974,13 7.99998474,12.55228 7.99998474,12 Z" id="Path-61-(Stroke)"></path>
        </g>
    </g>
</svg>