<?xml version="1.0" encoding="UTF-8"?>
<svg width="16px" height="19px" viewBox="0 0 16 19" version="1.1" xmlns="http://www.w3.org/2000/svg" xmlns:xlink="http://www.w3.org/1999/xlink">
    <title>UI icon/bookmark/light</title>
    <g id="👀-Icons" stroke="none" stroke-width="1" fill="none" fill-rule="evenodd">
        <g id="编组" transform="translate(-4.000000, -2.000000)" fill="#6F767E">
            <path d="M10.8,16.4 C11.51111,15.8667 12.48889,15.8667 13.2,16.4 L16.4,18.8 C17.0592,19.2944 18,18.824 18,18 L18,5 C18,4.44772 17.5523,4 17,4 L7,4 C6.44772,4 6,4.44772 6,5 L6,18 C6,18.824 6.94076,19.2944 7.6,18.8 L10.8,16.4 Z M12,18 L15.2,20.4 C17.1777,21.8833 20,20.4721 20,18 L20,5 C20,3.34315 18.6569,2 17,2 L7,2 C5.34315,2 4,3.34315 4,5 L4,18 C4,20.4721 6.82229,21.8833 8.8,20.4 L12,18 Z" id="Rectangle-190-(Stroke)"></path>
            <path d="M8,7 C8,6.447715 8.447715,6 9,6 L15,6 C15.55228,6 16,6.447715 16,7 C16,7.55228 15.55228,8 15,8 L9,8 C8.447715,8 8,7.55228 8,7 Z" id="Vector-583-(Stroke)"></path>
        </g>
    </g>
</svg>