<?xml version="1.0" encoding="UTF-8"?>
<svg width="20px" height="20px" viewBox="0 0 20 20" version="1.1" xmlns="http://www.w3.org/2000/svg" xmlns:xlink="http://www.w3.org/1999/xlink">
    <title>UI icon/activity/filled</title>
    <g id="👀-Icons" stroke="none" stroke-width="1" fill="none" fill-rule="evenodd">
        <g id="Vector-605-(Stroke)" transform="translate(-2.000000, -2.000000)" fill="#6F767E">
            <path d="M9.4889,5.0541429 C9.37598,4.52717289 8.62402,4.52716289 8.5111,5.0541529 L7.31658,10.628583 C7.02017,12.011803 5.79778,13.000013 4.38317,13.000013 L3,13.000013 C2.447715,13.000013 2,12.552283 2,12.000003 C2,11.447713 2.447715,11.000003 3,11.000003 L4.38317,11.000003 C4.85471,11.000003 5.26217,10.670603 5.36097,10.2095329 L6.55549,4.63509289 C7.12011,2.00019887 10.87988,2.00017487 11.44451,4.63509289 L14.5111,18.945813 C14.624,19.472813 15.376,19.472813 15.4889,18.945813 L16.6834,13.371413 C16.9798,11.988203 18.2022,11.000003 19.6168,11.000003 L21,11.000003 C21.5523,11.000003 22,11.447713 22,12.000003 C22,12.552283 21.5523,13.000013 21,13.000013 L19.6168,13.000013 C19.1453,13.000013 18.7378,13.329413 18.639,13.790513 L17.4445,19.364913 C16.8799,21.9998131 13.1201,21.9998131 12.5555,19.364913 L9.4889,5.0541429 Z"></path>
        </g>
    </g>
</svg>