<?xml version="1.0" encoding="UTF-8"?>
<svg width="20px" height="18px" viewBox="0 0 20 18" version="1.1" xmlns="http://www.w3.org/2000/svg" xmlns:xlink="http://www.w3.org/1999/xlink">
    <title>UI icon/activity/light</title>
    <g id="👀-Icons" stroke="none" stroke-width="1" fill="none" fill-rule="evenodd">
        <g id="Vector-605-(Stroke)" transform="translate(-2.000000, -3.000000)" fill="#6F767E">
            <path d="M9.40802,5 C9.03939,5 8.71805,5.25089 8.62865,5.60852 L7.34887,10.72761 C7.015,12.06311 5.81505,13 4.43845,13 L3,13 C2.447715,13 2,12.55229 2,12 C2,11.44772 2.447715,11 3,11 L4.43845,11 C4.89731,11 5.2973,10.6877 5.40859,10.24254 L6.68836,5.12345 C7.00035,3.875482 8.12165,3 9.40802,3 C10.82183,3 12.0144,4.05276 12.1897,5.45565 L13.7948,18.2963 C13.8451,18.6983 14.1868,19 14.592,19 C14.9606,19 15.2819,18.7491 15.3714,18.3915 L16.6511,13.2724 C16.985,11.93689 18.185,11 19.5616,11 L21,11 C21.5523,11 22,11.44772 22,12 C22,12.55229 21.5523,13 21,13 L19.5616,13 C19.1027,13 18.7027,13.3123 18.5914,13.7575 L17.3116,18.8766 C16.9996,20.1245 15.8783,21 14.592,21 C13.1782,21 11.98562,19.9472 11.81026,18.5444 L10.20518,5.70372 C10.15493,5.30169 9.81318,5 9.40802,5 Z"></path>
        </g>
    </g>
</svg>