<?xml version="1.0" encoding="UTF-8"?>
<svg width="14px" height="14px" viewBox="0 0 14 14" version="1.1" xmlns="http://www.w3.org/2000/svg" xmlns:xlink="http://www.w3.org/1999/xlink">
    <title>UI icon/linkedin/light</title>
    <g id="👀-Icons" stroke="none" stroke-width="1" fill="none" fill-rule="evenodd">
        <g id="编组" transform="translate(-5.000000, -5.000000)" fill="#6F767E">
            <path d="M6,8 C6.55228,8 7,8.447715 7,9 L7,18 C7,18.5523 6.55228,19 6,19 C5.447715,19 5,18.5523 5,18 L5,9 C5,8.447715 5.447715,8 6,8 Z" id="Vector-619-(Stroke)"></path>
            <path d="M11,8.999634 C10.9998,8.447517 10.55216,8 10,8 C9.447715,8 9,8.447715 9,9 L9,13 L9,18 C9,18.5523 9.447715,19 10,19 C10.55228,19 11,18.5523 11,18 L11,13 C11,11.34315 12.34315,10 14,10 C15.65685,10 17,11.34315 17,13 L17,18 C17,18.5523 17.44772,19 18,19 C18.55229,19 19,18.5523 19,18 L19,13 C19,10.23858 16.76142,8 14,8 C12.87439,8 11.83566,8.371945 11,8.999634 Z" id="Union"></path>
            <path d="M7,6 C7,6.55228 6.55228,7 6,7 C5.447715,7 5,6.55228 5,6 C5,5.447715 5.447715,5 6,5 C6.55228,5 7,5.447715 7,6 Z" id="Ellipse-206" fill-rule="nonzero"></path>
        </g>
    </g>
</svg>