<?xml version="1.0" encoding="UTF-8"?>
<svg width="20px" height="11px" viewBox="0 0 20 11" version="1.1" xmlns="http://www.w3.org/2000/svg" xmlns:xlink="http://www.w3.org/1999/xlink">
    <title>UI icon/check_all/light</title>
    <g id="👀-Icons" stroke="none" stroke-width="1" fill="none" fill-rule="evenodd">
        <g id="编组" transform="translate(-2.000000, -7.000000)" fill="#6F767E">
            <g id="Subtract" transform="translate(2.000000, 7.000000)" fill-rule="nonzero">
                <path d="M9.94988,6.46433 L14.7071,1.70711 C15.0976,1.31658 15.0976,0.683417 14.7071,0.292893 C14.3166,-0.0976311 13.6834,-0.0976311 13.2929,0.292893 L8.53567,5.05012 L9.94988,6.46433 Z" id="B4EA2659-BF40-448C-B56E-30A12CFD290C"></path>
                <path d="M6.29369,9.87921 L4.30684,7.89237 C4.30216,7.88786 4.29751,7.8833 4.29289,7.87868 L1.70711,5.29289 C1.31658,4.90237 0.683418,4.90237 0.292893,5.29289 C-0.0976311,5.68342 -0.0976311,6.31658 0.292893,6.70711 L2.87868,9.29289 C3.80237,10.2166 5.17853,10.412 6.29369,9.87921 Z" id="9750DCC1-122D-4113-BC07-26CCE429F679"></path>
            </g>
            <path d="M21.7071248,7.24290432 C22.0976251,7.63342703 22.0976251,8.26658795 21.7071248,8.65711666 L14.0713383,16.2928615 C12.8997673,17.4644777 11.0002657,17.4644777 9.82869471,16.2928615 L7.24290553,13.70708 C6.8523811,13.3165613 6.8523811,12.6834034 7.24290553,12.2928747 C7.63342986,11.902356 8.26659339,11.902356 8.65712372,12.2928747 L11.2429059,14.8786562 C11.6334362,15.2691749 12.2665968,15.2691749 12.6571271,14.8786562 L20.2929236,7.24290432 C20.6834239,6.8523815 21.3166244,6.8523815 21.7071248,7.24290432 Z" id="Vector-410-(Stroke)"></path>
        </g>
    </g>
</svg>