<?xml version="1.0" encoding="UTF-8"?>
<svg width="22px" height="20px" viewBox="0 0 22 20" version="1.1" xmlns="http://www.w3.org/2000/svg" xmlns:xlink="http://www.w3.org/1999/xlink">
    <title>UI icon/volume_high/filled</title>
    <g id="👀-Icons" stroke="none" stroke-width="1" fill="none" fill-rule="evenodd">
        <g id="编组" transform="translate(-1.000000, -2.000000)" fill="#6F767E">
            <path d="M15.8099699,14.3924889 C16.0440999,14.2153689 16.2523719,14.0037789 16.4270519,13.7633589 C16.7994319,13.2508089 17.0000019,12.6335389 17.0000019,11.9999989 C17.0000019,11.3664589 16.7994319,10.7491889 16.4270519,10.2366489 C16.2522819,9.99608891 16.0438669,9.78439891 15.8095769,9.60720891 C15.7525859,9.56410891 15.6978839,9.51732891 15.6462039,9.46740891 C15.5988339,9.42163891 15.5540029,9.37323891 15.5122719,9.32259891 C15.2476393,9.00150891 15.107722,8.59077891 15.2360675,8.19577391 C15.4067329,7.67051991 15.9781579,7.37485191 16.4590319,7.64647291 C16.6527419,7.75588891 16.8387819,7.87802991 17.0159619,8.01201791 M17.0159619,8.01201791 C17.4062919,8.30725191 17.7538619,8.66023891 18.0450819,9.06106891 C18.6657219,9.91530891 19.0000019,10.9440989 19.0000019,11.9999989 C19.0000019,13.0558989 18.6657219,14.0846889 18.0450819,14.9389289 C17.7537919,15.3398589 17.4064019,15.6927089 17.0159619,15.9879789 C16.8387819,16.1219689 16.6527419,16.2441089 16.4590319,16.3535289 C15.9781589,16.6251489 15.4067329,16.3294789 15.2360675,15.8042289 C15.107722,15.4092189 15.2476393,14.9984889 15.5122719,14.6773989 C15.5540029,14.6267589 15.5988339,14.5783589 15.6462039,14.5325989 C15.6978839,14.4826689 15.7529789,14.4355889 15.8099699,14.3924889" id="Ellipse-124-(Stroke)"></path>
            <path d="M17.887496,17.2594768 C18.6587209,16.836077 19.3315808,16.2458773 19.8541008,15.5266776 C20.5988707,14.501618 21.0000007,13.2670686 21.0000007,11.9999991 C21.0000007,10.7329197 20.5988707,9.49837025 19.8541008,8.47329071 C19.3063508,7.71938104 18.5933909,7.10721131 17.775095,6.6803215 C17.773818,6.6796615 17.77254,6.6790015 17.771266,6.6783315 C17.735811,6.65968151 17.701399,6.63944152 17.668125,6.61775153 C17.631992,6.59420154 17.597204,6.56893155 17.563893,6.54211156 C17.2062117,6.25412169 17.0187298,5.7869919 17.1631189,5.3426041 C17.333785,4.81735033 17.901584,4.52430846 18.4014609,4.75912956 C18.5021209,4.80641633 18.6017009,4.85575831 18.7001409,4.90711029 C19.7911408,5.47626004 20.7417707,6.29246167 21.4721306,7.29772123 C22.4651605,8.66450062 23.0000005,10.3105599 23.0000005,11.9999991 C23.0000005,13.6894284 22.4651605,15.3354777 21.4721306,16.7022771 C20.7417707,17.7075766 19.7911408,18.5237762 18.7001409,19.092876 C18.6017009,19.144276 18.5021209,19.1935759 18.4014609,19.2408759 C17.901584,19.4756758 17.333785,19.182676 17.1631189,18.6573762 C17.0187298,18.2129764 17.2062117,17.7458766 17.563893,17.4578767 C17.597204,17.4310767 17.631991,17.4057767 17.668124,17.3822768 C17.701398,17.3605768 17.735811,17.3402768 17.771266,17.3216768 C17.77254,17.3209768 17.773818,17.3203768 17.775095,17.3196768 C17.812788,17.2999768 17.850257,17.2799768 17.887496,17.2594768 Z" id="Ellipse-125-(Stroke)"></path>
            <path d="M14,19.5924394 L14,4.40753309 C14,2.68921851 11.9762,1.77086173 10.68299,2.90238146 L6,7.00000245 L4,7.00000245 C2.34315,7.00000245 1,8.34314212 1,10.0000017 L1,14.0000407 C1,15.6568403 2.34315,17.00004 4,17.00004 L6,17.00004 L10.68299,21.097639 C11.9762,22.2291387 14,21.3107389 14,19.5924394 Z" id="Vector-432" fill-rule="nonzero"></path>
        </g>
    </g>
</svg>