<?xml version="1.0" encoding="UTF-8"?>
<svg width="12px" height="20px" viewBox="0 0 12 20" version="1.1" xmlns="http://www.w3.org/2000/svg" xmlns:xlink="http://www.w3.org/1999/xlink">
    <title>UI icon/battery_half/filled</title>
    <g id="👀-Icons" stroke="none" stroke-width="1" fill="none" fill-rule="evenodd">
        <g id="编组" transform="translate(-6.000000, -2.000000)" fill="#6F767E">
            <path d="M10,3 C10,2.447715 10.447715,2 11,2 L13,2 C13.55228,2 14,2.447715 14,3 C14,3.55228 13.55228,4 13,4 L11,4 C10.447715,4 10,3.55228 10,3 Z" id="Vector-594-(Stroke)"></path>
            <path d="M6,8 C6,6.34315 7.34315,5 9,5 L15,5 C16.6569,5 18,6.34315 18,8 L18,19 C18,20.6569 16.6569,22 15,22 L9,22 C7.34315,22 6,20.6569 6,19 L6,8 Z M9,18 C9,17.4477 9.44772,17 10,17 L14,17 C14.55228,17 15,17.4477 15,18 C15,18.5523 14.55228,19 14,19 L10,19 C9.44772,19 9,18.5523 9,18 Z M10,14 C9.44772,14 9,14.44771 9,15 C9,15.5523 9.44772,16 10,16 L14,16 C14.55228,16 15,15.5523 15,15 C15,14.44771 14.55228,14 14,14 L10,14 Z" id="Subtract"></path>
        </g>
    </g>
</svg>