<?xml version="1.0" encoding="UTF-8"?>
<svg width="20px" height="19px" viewBox="0 0 20 19" version="1.1" xmlns="http://www.w3.org/2000/svg" xmlns:xlink="http://www.w3.org/1999/xlink">
    <title>UI icon/rain/filled</title>
    <g id="👀-Icons" stroke="none" stroke-width="1" fill="none" fill-rule="evenodd">
        <g id="编组" transform="translate(-2.000000, -3.000000)" fill="#6F767E">
            <path d="M15.9531558,14.9857798 C16.5028459,15.0392508 16.905106,15.528209 16.8516359,16.0778997 L16.4380259,20.3298269 C16.3845559,20.8795166 15.8955958,21.2817863 15.3459097,21.2283164 C14.7962186,21.1748364 14.393954,20.6858867 14.447425,20.1361971 L14.8610316,15.8842638 C14.9145027,15.3345732 15.4034617,14.9323088 15.9531558,14.9857798 Z" id="Path-93-Copy-(Stroke)" transform="translate(15.649530, 18.107048) rotate(15.000000) translate(-15.649530, -18.107048) "></path>
            <path d="M7.95313634,14.9857794 C8.50282606,15.039249 8.90509586,15.5282069 8.85162589,16.0778995 L8.43802609,20.3298268 C8.38455612,20.8795164 7.89560637,21.2817862 7.34591264,21.2283162 C6.79622292,21.1748463 6.39395672,20.6858866 6.44742629,20.1361969 L6.86102089,15.8842657 C6.91449086,15.334576 7.40344762,14.9323099 7.95313634,14.9857794 Z" id="Path-93-Copy-3-(Stroke)" transform="translate(7.649526, 18.107048) rotate(15.000000) translate(-7.649526, -18.107048) "></path>
            <path d="M11.9531368,14.9857793 C12.5028265,15.0392489 12.9050963,15.5282068 12.8516263,16.0778994 L12.4380266,20.3298267 C12.3845566,20.8795163 11.8956068,21.2817861 11.3459131,21.2283161 C10.7962234,21.1748461 10.3939572,20.6858864 10.4474267,20.1361968 L10.8610213,15.8842655 C10.9144913,15.3345759 11.4034481,14.9323098 11.9531368,14.9857793 Z" id="Path-93-Copy-4-(Stroke)" transform="translate(11.649527, 18.107048) rotate(15.000000) translate(-11.649527, -18.107048) "></path>
            <path d="M18.8044,15.4230029 C18.8557,15.602903 19.0687,15.699803 19.2179,15.587003 C20.9079,14.3091027 22,12.2820922 22,10 C22,6.13401074 18.866,3 15,3 C12.1108,3 9.63037,4.75042041 8.56143,7.248641 C8.07015,7.08728097 7.54527,7 7,7 C4.23858,7 2,9.23858148 2,12 C2,14.0647026 3.25147,15.837103 5.03725,16.6000032 C5.28212,16.7047032 5.55601,16.5700032 5.6495,16.3206031 L6.05876,15.2293029 C6.54355,13.9365026 7.98458,13.2814024 9.27739,13.7662025 C9.62974,13.8984026 9.93471,14.1015026 10.18215,14.3534027 C10.29902,14.4723027 10.49985,14.4723027 10.61685,14.3535027 C11.28847,13.6715025 12.3233,13.4085025 13.2774,13.7662025 C13.6297,13.8984026 13.9347,14.1015026 14.1822,14.3534027 C14.299,14.4723027 14.4999,14.4723027 14.6169,14.3535027 C15.2885,13.6715025 16.3233,13.4085025 17.2774,13.7662025 C18.0496,14.0558026 18.5942,14.6865028 18.8044,15.4230029 Z" id="Subtract" fill-rule="nonzero"></path>
        </g>
    </g>
</svg>