<?xml version="1.0" encoding="UTF-8"?>
<svg width="20px" height="19px" viewBox="0 0 20 19" version="1.1" xmlns="http://www.w3.org/2000/svg" xmlns:xlink="http://www.w3.org/1999/xlink">
    <title>UI icon/rain/light</title>
    <g id="👀-Icons" stroke="none" stroke-width="1" fill="none" fill-rule="evenodd">
        <g id="编组" transform="translate(-2.000000, -3.000000)" fill="#6F767E">
            <path d="M8.75063772,15.1707207 C9.26775821,15.3646383 9.52976846,15.9410492 9.33584828,16.4581702 L7.83586686,20.4581798 C7.64194668,20.9752998 7.06553613,21.2372998 6.54841764,21.0433898 C6.03129515,20.8494698 5.7692869,20.2730599 5.96320549,19.7559399 L7.46318651,15.7559312 C7.65710669,15.2388103 8.23351724,14.9768023 8.75063772,15.1707207 Z" id="Path-93-Copy-3-(Stroke)"></path>
            <path d="M12.7506382,15.1707207 C13.2677587,15.3646383 13.5297689,15.9410492 13.3358488,16.4581702 L11.8358673,20.4581798 C11.6419472,20.9752998 11.0655366,21.2372998 10.5484181,21.0433898 C10.0312956,20.8494698 9.76928738,20.2730599 9.96320597,19.7559399 L11.463187,15.7559312 C11.6571072,15.2388103 12.2335177,14.9768023 12.7506382,15.1707207 Z" id="Path-93-Copy-4-(Stroke)"></path>
            <path d="M16.7506547,15.1707243 C17.2677746,15.364644 17.5297745,15.9410562 17.3358646,16.4581733 L15.8358649,20.4581744 C15.6419449,20.9753045 15.065535,21.2373046 14.5484142,21.0433846 C14.0312933,20.8494645 13.7692873,20.2730544 13.9632067,19.7559342 L15.463205,15.7559321 C15.6571249,15.238811 16.2335348,14.9768049 16.7506547,15.1707243 Z" id="Path-93-Copy-(Stroke)"></path>
            <path d="M8.56161,7.24898774 C9.63043,4.75081907 12.1098,3 15,3 C18.866,3 22,6.13400833 22,10 C22,12.0732552 21.0974,13.9369942 19.6669,15.2172935 C19.2554,15.5856933 18.6232,15.5506933 18.2549,15.1390935 C17.8865,14.7275938 17.9216,14.0953941 18.3331,13.7270943 C19.3576,12.8101048 20,11.4807355 20,10 C20,7.23857774 17.7614,5 15,5 C12.6324,5 10.64697,6.64654806 10.13076,8.85809688 C10.05692,9.17444671 9.83401,9.43521658 9.533,9.55737651 C9.23199,9.67954645 8.8904,9.64788646 8.61697,9.47247656 C8.15091,9.17348672 7.59724,9 7,9 C5.34315,9 4,10.3431461 4,12 C4,13.1091946 4.60141,14.0789941 5.50073,14.5992938 C5.97879,14.8757937 6.14215,15.4874934 5.86561,15.9655931 C5.58906,16.4436928 4.97733,16.6069928 4.49927,16.3304929 C3.00738,15.4674934 2,13.8519942 2,12 C2,9.23857668 4.23858,7 7,7 C7.54465,7 8.0698,7.08739783 8.56161,7.24898774 Z" id="Union-(Stroke)"></path>
        </g>
    </g>
</svg>