<?xml version="1.0" encoding="UTF-8"?>
<svg width="22px" height="20px" viewBox="0 0 22 20" version="1.1" xmlns="http://www.w3.org/2000/svg" xmlns:xlink="http://www.w3.org/1999/xlink">
    <title>UI icon/presentation/filled</title>
    <g id="👀-Icons" stroke="none" stroke-width="1" fill="none" fill-rule="evenodd">
        <g id="编组" transform="translate(-1.000000, -2.000000)" fill="#6F767E">
            <g id="Union" transform="translate(1.000000, 2.000000)">
                <path d="M7,8 C7.55229,8 8,7.55229 8,7 C8,6.44771 7.55229,6 7,6 C6.44772,6 6,6.44771 6,7 C6,7.55229 6.44772,8 7,8 Z" id="A7252A38-E032-4DB8-A4B4-B1BF62052E70" fill-rule="nonzero"></path>
                <path d="M1,0 C0.447715,0 0,0.447715 0,1 C0,1.55228 0.447715,2 1,2 L1,11 C1,12.6569 2.34315,14 4,14 L10,14 L10,14.5858 L6.29289,18.2929 C5.90237,18.6834 5.90237,19.3166 6.29289,19.7071 C6.68342,20.0976 7.31658,20.0976 7.70711,19.7071 L10,17.4142 L10,18 C10,18.5523 10.4477,19 11,19 C11.5523,19 12,18.5523 12,18 L12,17.4142 L14.2929,19.7071 C14.6834,20.0976 15.3166,20.0976 15.7071,19.7071 C16.0976,19.3166 16.0976,18.6834 15.7071,18.2929 L12,14.5858 L12,14 L18,14 C19.6569,14 21,12.6569 21,11 L21,2 C21.5523,2 22,1.55228 22,1 C22,0.447715 21.5523,0 21,0 L1,0 Z M10,7 C10,8.65685 8.65685,10 7,10 C5.34315,10 4,8.65685 4,7 C4,5.34315 5.34315,4 7,4 C8.65685,4 10,5.34315 10,7 Z M14,4 C13.4477,4 13,4.44772 13,5 C13,5.55228 13.4477,6 14,6 L17,6 C17.5523,6 18,5.55228 18,5 C18,4.44772 17.5523,4 17,4 L14,4 Z M13,9 C13,8.44771 13.4477,8 14,8 L17,8 C17.5523,8 18,8.44771 18,9 C18,9.55229 17.5523,10 17,10 L14,10 C13.4477,10 13,9.55229 13,9 Z" id="D7E88058-9138-4DA1-AF98-DA5550A1481C"></path>
            </g>
        </g>
    </g>
</svg>