<?xml version="1.0" encoding="UTF-8"?>
<svg width="22px" height="20px" viewBox="0 0 22 20" version="1.1" xmlns="http://www.w3.org/2000/svg" xmlns:xlink="http://www.w3.org/1999/xlink">
    <title>UI icon/presentation/light</title>
    <g id="👀-Icons" stroke="none" stroke-width="1" fill="none" fill-rule="evenodd">
        <g id="编组" transform="translate(-1.000000, -2.000000)" fill="#6F767E">
            <path d="M2,2 C1.447715,2 1,2.447715 1,3 C1,3.55228 1.447715,4 2,4 L2,13 C2,14.6569 3.34315,16 5,16 L11,16 L11,16.5858 L7.29289,20.2929 C6.90237,20.6834 6.90237,21.3166 7.29289,21.7071 C7.68342,22.0976 8.31658,22.0976 8.70711,21.7071 L11,19.4142 L11,20 C11,20.5523 11.4477,21 12,21 C12.5523,21 13,20.5523 13,20 L13,19.4142 L15.2929,21.7071 C15.6834,22.0976 16.3166,22.0976 16.7071,21.7071 C17.0976,21.3166 17.0976,20.6834 16.7071,20.2929 L13,16.5858 L13,16 L19,16 C20.6569,16 22,14.6569 22,13 L22,4 C22.5523,4 23,3.55228 23,3 C23,2.447715 22.5523,2 22,2 L2,2 Z M20,4 L4,4 L4,13 C4,13.5523 4.44772,14 5,14 L19,14 C19.5523,14 20,13.5523 20,13 L20,4 Z" id="Union"></path>
            <path d="M9,8 C8.44772,8 8,8.44772 8,9 C8,9.55228 8.44772,10 9,10 C9.55228,10 10,9.55228 10,9 C10,8.44772 9.55228,8 9,8 Z M6,9 C6,7.34315 7.34315,6 9,6 C10.65685,6 12,7.34315 12,9 C12,10.65685 10.65685,12 9,12 C7.34315,12 6,10.65685 6,9 Z" id="Ellipse-201-(Stroke)"></path>
            <path d="M14,7 C14,6.447715 14.447715,6 15,6 L17,6 C17.55228,6 18,6.447715 18,7 C18,7.55228 17.55228,8 17,8 L15,8 C14.447715,8 14,7.55228 14,7 Z" id="Vector-607-(Stroke)"></path>
            <path d="M14,11 C14,10.447715 14.447715,10 15,10 L17,10 C17.55228,10 18,10.447715 18,11 C18,11.55228 17.55228,12 17,12 L15,12 C14.447715,12 14,11.55228 14,11 Z" id="Vector-608-(Stroke)"></path>
        </g>
    </g>
</svg>