<?xml version="1.0" encoding="UTF-8"?>
<svg width="18px" height="18px" viewBox="0 0 18 18" version="1.1" xmlns="http://www.w3.org/2000/svg" xmlns:xlink="http://www.w3.org/1999/xlink">
    <title>UI icon/open/filled</title>
    <g id="👀-Icons" stroke="none" stroke-width="1" fill="none" fill-rule="evenodd">
        <g id="编组" transform="translate(-3.000000, -3.000000)" fill="#6F767E">
            <path d="M3,6 C3,4.34315 4.34315,3 6,3 L11,3 C11.55228,3 12,3.447715 12,4 C12,4.55228 11.55228,5 11,5 L6,5 C5.44772,5 5,5.44772 5,6 L5,18 C5,18.5523 5.44772,19 6,19 L18,19 C18.5523,19 19,18.5523 19,18 L19,13 C19,12.44771 19.4477,12 20,12 C20.5523,12 21,12.44771 21,13 L21,18 C21,19.6569 19.6569,21 18,21 L6,21 C4.34315,21 3,19.6569 3,18 L3,6 Z" id="Vector-598-(Stroke)"></path>
            <path d="M19,9.0000135 C19,9.55230474 19.44772,10.0000158 20,10.0000158 C20.55229,10.0000158 21,9.55230474 21,9.0000135 L21,5 C21,3.89543301 20.10457,3 19,3 L15,3 C14.44772,3 14,3.44771601 14,4 C14,4.55228349 14.44772,5 15,5 L17.58579,5 L11.2928931,11.2929087 C10.902369,11.6834395 10.902369,12.316601 11.2928931,12.7071318 C11.6834171,13.0976227 12.3165801,13.0976227 12.7071101,12.7071318 L19,6.41421768 L19,9.0000135 Z" id="Union" fill-rule="nonzero"></path>
        </g>
    </g>
</svg>