<?xml version="1.0" encoding="UTF-8"?>
<svg width="18px" height="18px" viewBox="0 0 18 18" version="1.1" xmlns="http://www.w3.org/2000/svg" xmlns:xlink="http://www.w3.org/1999/xlink">
    <title>UI icon/open/light</title>
    <g id="👀-Icons" stroke="none" stroke-width="1" fill="none" fill-rule="evenodd">
        <g id="UI-icon/open/light" transform="translate(-3.000000, -3.000000)" fill="#6F767E">
            <path d="M19,9.00001302 C19,9.55230427 19.44772,10.0000153 20,10.0000153 C20.55229,10.0000153 21,9.55230427 21,9.00001302 L21,4.99999952 C21,3.89543254 20.10457,2.99999952 19,2.99999952 L15,2.99999952 C14.44772,2.99999952 14,3.44771553 14,3.99999952 C14,4.55228302 14.44772,4.99999952 15,4.99999952 L17.58579,4.99999952 L11.2928931,11.2929082 C10.902369,11.6834391 10.902369,12.3166005 11.2928931,12.7071314 C11.6834171,13.0976222 12.3165801,13.0976222 12.7071101,12.7071314 L19,6.41421721 L19,9.00001302 Z" id="Union" fill-rule="nonzero"></path>
            <path d="M3,6 C3,4.34315 4.34315,3 6,3 L11,3 C11.55228,3 12,3.447715 12,4 C12,4.55228 11.55228,5 11,5 L6,5 C5.44772,5 5,5.44772 5,6 L5,18 C5,18.5523 5.44772,19 6,19 L18,19 C18.5523,19 19,18.5523 19,18 L19,13 C19,12.44771 19.4477,12 20,12 C20.5523,12 21,12.44771 21,13 L21,18 C21,19.6569 19.6569,21 18,21 L6,21 C4.34315,21 3,19.6569 3,18 L3,6 Z" id="Vector-598-(Stroke)"></path>
        </g>
    </g>
</svg>