<?xml version="1.0" encoding="UTF-8"?>
<svg width="20px" height="20px" viewBox="0 0 20 20" version="1.1" xmlns="http://www.w3.org/2000/svg" xmlns:xlink="http://www.w3.org/1999/xlink">
    <title>UI icon/basketball/filled</title>
    <g id="👀-Icons" stroke="none" stroke-width="1" fill="none" fill-rule="evenodd">
        <g id="编组" transform="translate(-2.000000, -2.000000)" fill="#6F767E" fill-rule="nonzero">
            <g id="Subtract" transform="translate(2.000000, 2.000000)">
                <path d="M8.96964,19.6446 C8.9276,19.7972 9.02902,19.9547 9.18674,19.9674 C9.45498,19.989 9.7262,20 10,20 C12.302,20 14.4224,19.2222 16.1125,17.915 C16.2295,17.8245 16.2379,17.6523 16.1333,17.5477 L10.1768,11.5911 C10.0792,11.4935 9.92086,11.4935 9.82323,11.5911 L7.9818,13.4325 C7.89384,13.5205 7.88435,13.6595 7.95584,13.7613 C9.17642,15.4992 9.51435,17.6681 8.96964,19.6446 Z" id="1310A251-D29F-4681-A1DD-F2CAE867C48F"></path>
                <path d="M6.68455,19.4373 C6.81113,19.4818 6.94946,19.4148 6.98983,19.2869 C7.40667,17.9656 7.26162,16.5053 6.55468,15.2807 C6.47566,15.1438 6.28919,15.1252 6.17743,15.2369 L3.86666,17.5477 C3.76208,17.6523 3.7705,17.8245 3.88749,17.915 C4.72442,18.5623 5.66684,19.0798 6.68455,19.4373 Z" id="EB902C9C-F93D-4EB2-B26B-F5C233AE20E4"></path>
                <path d="M2.08514,16.1127 C2.17562,16.2297 2.34785,16.2381 2.45243,16.1335 L4.76323,13.8227 C4.87499,13.7109 4.85636,13.5245 4.71948,13.4454 C3.49481,12.7385 2.0345,12.5934 0.71313,13.0103 C0.585183,13.0506 0.518282,13.189 0.562751,13.3155 C0.920296,14.3333 1.43782,15.2757 2.08514,16.1127 Z" id="54C9A89F-0511-4FAC-99CE-41B377DEECCA"></path>
                <path d="M0.0326009,10.8134 C0.0452965,10.9711 0.20283,11.0725 0.355373,11.0305 C2.33197,10.4857 4.50089,10.8237 6.23886,12.0443 C6.34065,12.1158 6.47963,12.1063 6.5676,12.0183 L8.40902,10.1769 C8.50665,10.0793 8.50665,9.92098 8.40902,9.82335 L2.45232,3.86665 C2.34775,3.76207 2.17552,3.77048 2.08504,3.88747 C0.777843,5.57765 0,7.69799 0,10 C0,10.0236 0,10.0472 0.000245571,10.0708 C0.00197819,10.3206 0.0128699,10.5682 0.0326009,10.8134 Z" id="0124F9B1-F80D-432A-B09B-6107E57A8065"></path>
                <path d="M3.86652,2.45242 C3.76194,2.34784 3.77036,2.17562 3.88734,2.08514 C5.46735,0.863107 7.42328,0.103676 9.55214,0.00984979 C9.70061,0.00330615 9.84992,0 10,0 C10.2738,0 10.545,0.0110032 10.8132,0.0325912 C10.971,0.0452851 11.0724,0.202825 11.0303,0.35537 C10.4855,2.33201 10.8235,4.501 12.0441,6.23902 C12.1156,6.34082 12.1061,6.4798 12.0182,6.56776 L10.1768,8.40913 C10.0792,8.50676 9.92086,8.50676 9.82323,8.40913 L3.86652,2.45242 Z" id="B9808CB0-DD13-4B33-B274-C8F895BEFFF4"></path>
                <path d="M13.3154,0.562715 C13.1889,0.518249 13.0505,0.585145 13.0102,0.713085 C12.5932,2.03451 12.7383,3.49491 13.4453,4.71964 C13.5243,4.85652 13.7108,4.87516 13.8225,4.76339 L16.1335,2.45243 C16.2381,2.34785 16.2297,2.17562 16.1127,2.08514 C15.2757,1.4378 14.3332,0.920262 13.3154,0.562715 Z" id="78126CF7-9F82-4DC8-B989-8F7EA5874627"></path>
                <path d="M17.915,3.88749 C17.8245,3.7705 17.6523,3.76208 17.5477,3.86666 L15.2368,6.17759 C15.125,6.28936 15.1436,6.47582 15.2805,6.55484 C16.5052,7.26182 17.9656,7.40685 19.2869,6.98993 C19.4149,6.94956 19.4818,6.81123 19.4373,6.68466 C19.0798,5.6669 18.5623,4.72445 17.915,3.88749 Z" id="D213E7CC-A29E-45CF-BDB1-78239183B1AB"></path>
                <path d="M19.9674,9.18686 C19.9547,9.02914 19.7972,8.92772 19.6446,8.96976 C17.668,9.51453 15.4991,9.17661 13.7611,7.95601 C13.6593,7.88451 13.5203,7.894 13.4324,7.98196 L11.591,9.82335 C11.4934,9.92098 11.4934,10.0793 11.591,10.1769 L17.5476,16.1335 C17.6522,16.2381 17.8244,16.2296 17.9149,16.1127 C19.2221,14.4225 20,12.3021 20,10 C20,9.72625 19.989,9.45506 19.9674,9.18686 Z" id="4DBD558A-8702-4B53-AF21-6B3EB54AA11C"></path>
            </g>
        </g>
    </g>
</svg>