<?xml version="1.0" encoding="UTF-8"?>
<svg width="20px" height="20px" viewBox="0 0 20 20" version="1.1" xmlns="http://www.w3.org/2000/svg" xmlns:xlink="http://www.w3.org/1999/xlink">
    <title>UI icon/basketball/light</title>
    <g id="👀-Icons" stroke="none" stroke-width="1" fill="none" fill-rule="evenodd">
        <g id="Union" transform="translate(-2.000000, -2.000000)" fill="#6F767E">
            <path d="M4.92897653,4.92892956 C1.02373553,8.83417956 1.02373553,15.1657996 4.92897653,19.0710996 C8.83422653,22.9762996 15.1658465,22.9762996 19.0711465,19.0710996 C22.9763465,15.1657996 22.9763465,8.83417956 19.0711465,4.92892956 C15.1658465,1.02368856 8.83422653,1.02368856 4.92897653,4.92892956 Z M7.68669653,14.8990996 L5.67984653,16.9059996 C5.01930653,16.0571996 4.55357653,15.1059996 4.28264653,14.1126996 C5.45285653,13.9610996 6.66644653,14.2231996 7.68669653,14.8990996 Z M9.10090653,16.3133996 L7.09406653,18.3201996 C7.94279653,18.9806996 8.89401653,19.4464996 9.88726653,19.7173996 C10.0389565,18.5471996 9.77683653,17.3335996 9.10090653,16.3133996 Z M11.8675665,19.9988996 C12.1034465,18.2247996 11.6595465,16.3775996 10.5357165,14.8784996 L12.0000465,13.4141996 L16.9060465,18.3201996 C15.4304465,19.4685996 13.6450465,20.0281996 11.8675665,19.9988996 Z M9.12150653,13.4642996 C7.62249653,12.3404996 5.77526653,11.8965296 4.00113653,12.1323996 C3.97188653,10.3549796 4.53145653,8.56961956 5.67984653,7.09401956 L10.5858365,11.9999996 L9.12150653,13.4642996 Z M12.0000465,10.5857896 L7.09406653,5.67979956 C8.56964653,4.53141956 10.3549965,3.97184956 12.1324465,4.00108956 C11.8965165,5.77522956 12.3404465,7.62247956 13.4643465,9.12149956 L12.0000465,10.5857896 Z M14.8785465,10.5357096 L13.4142465,11.9999996 L18.3202465,16.9059996 C19.4686465,15.4303996 20.0282465,13.6449996 19.9989465,11.8675496 C18.2248465,12.1034996 16.3775465,11.6595396 14.8785465,10.5357096 Z M19.7174465,9.88724956 C18.5472465,10.0389496 17.3336465,9.77682956 16.3133465,9.10088956 L18.3202465,7.09401956 C18.9807465,7.94275956 19.4465465,8.89398956 19.7174465,9.88724956 Z M14.8991465,7.68668956 C14.2231465,6.66641956 13.9610465,5.45280956 14.1127465,4.28258956 C15.1060465,4.55351956 16.0572465,5.01924956 16.9060465,5.67979956 L14.8991465,7.68668956 Z"></path>
        </g>
    </g>
</svg>