<?xml version="1.0" encoding="UTF-8"?>
<svg width="22px" height="22px" viewBox="0 0 22 22" version="1.1" xmlns="http://www.w3.org/2000/svg" xmlns:xlink="http://www.w3.org/1999/xlink">
    <title>UI icon/design/filled</title>
    <g id="👀-Icons" stroke="none" stroke-width="1" fill="none" fill-rule="evenodd">
        <g id="编组" transform="translate(-1.000000, -1.000000)" fill="#6F767E" fill-rule="nonzero">
            <g>
                <g id="Subtract" transform="translate(1.575439, 1.575439)">
                    <path d="M0.87868,3.70711 C-0.292893,4.87868 -0.292893,6.77818 0.87868,7.94975 L2.74516,9.81623 C3.13539,10.2065 3.76798,10.2068 4.15862,9.81699 L9.82151,4.16617 C10.2127,3.77577 10.2131,3.14202 9.82227,2.7512 L7.94975,0.878679 C6.77817,-0.292893 4.87868,-0.292893 3.70711,0.87868 L0.87868,3.70711 Z" id="027A451E-359F-49A2-A9D7-EC2B42C3AAC4"></path>
                    <path d="M11.2289,18.3 C10.8387,17.9098 10.8384,17.2772 11.2282,16.8865 L16.879,11.2237 C17.2694,10.8324 17.9031,10.8321 18.294,11.2229 L19.9706,12.8995 C21.1421,14.0711 21.1421,15.9706 19.9706,17.1421 L17.1421,19.9706 C15.9706,21.1421 14.0711,21.1421 12.8995,19.9706 L11.2289,18.3 Z" id="7C501ABC-E28D-4BFB-8270-BFDD910FCF04"></path>
                </g>
                <g id="Union" transform="translate(2.502441, 2.500000)">
                    <path d="M14.3649,0.585786 C15.1459,-0.195262 16.4123,-0.195262 17.1933,0.585787 L18.6075,2.00000012 C19.3886,2.78105 19.3886,4.04738 18.6075,4.82843 L17.9004,5.5356 C17.5098,5.92612 16.8767,5.92612 16.4861,5.5356 L13.6577,2.70717 C13.2672,2.31665 13.2672,1.68348 13.6577,1.29296 L14.3649,0.585786 Z" id="3B56151E-CAB7-4992-95FC-192068CFD5E8"></path>
                    <path d="M12.2436,4.12141 C11.8531,3.73089 11.22,3.73089 10.8294,4.12141 L1.46474,13.4861 C1.34583,13.605 1.25883,13.752 1.21178,13.9134 L0.0412301,17.9302 C-0.180218,18.6901 0.527064,19.3939 1.28586,19.1686 L5.28295,17.9822 C5.44254,17.9348 5.58778,17.8483 5.7055,17.7306 L15.0721,8.36405 C15.4626,7.97353 15.4626,7.34036 15.0721,6.94984 L12.2436,4.12141 Z" id="DCFC59AE-23D9-4982-90D4-F324698663C0"></path>
                </g>
            </g>
        </g>
    </g>
</svg>