<?xml version="1.0" encoding="UTF-8"?>
<svg width="22px" height="22px" viewBox="0 0 22 22" version="1.1" xmlns="http://www.w3.org/2000/svg" xmlns:xlink="http://www.w3.org/1999/xlink">
    <title>UI icon/design/light</title>
    <g id="👀-Icons" stroke="none" stroke-width="1" fill="none" fill-rule="evenodd">
        <g id="Union" transform="translate(-1.000000, -1.000000)" fill="#6F767E">
            <path d="M12.7278939,5.6568752 L9.87864392,2.8076342 C8.70706392,1.6360622 6.80757392,1.6360622 5.63600392,2.8076342 L2.80757392,5.6360652 C1.63600092,6.8076352 1.63600092,8.7071252 2.80757292,9.8787052 L4.21517392,11.2863052 L4.22179392,11.2929852 L4.22846392,11.2995952 L5.65681392,12.7279552 L3.45671392,14.9280552 C3.31710392,15.0676552 3.22195392,15.2454552 3.18323392,15.4390552 L2.12257492,20.7423552 C1.98263122,21.4420552 2.59955092,22.0590552 3.29927392,21.9190552 L8.60257392,20.8583552 C8.79616392,20.8196552 8.97396392,20.7245552 9.11356392,20.5849552 L11.3136739,18.3847552 L14.1212939,21.1924552 C15.2928939,22.3639552 17.1923939,22.3639552 18.3638939,21.1924552 L21.1923939,18.3639552 C22.3638939,17.1924552 22.3638939,15.2929552 21.1923939,14.1213552 L18.3846939,11.3137352 L20.9202939,8.7782052 C22.0918939,7.6066352 22.0918939,5.7071452 20.9202939,4.5355652 L19.5060939,3.1213552 C18.3344939,1.9497827 16.4349939,1.9497824 15.2633939,3.1213552 L12.7278939,5.6568752 Z M4.22178392,7.0502752 C3.83126392,7.4407952 3.83126392,8.0739652 4.22178392,8.4644852 L4.92892392,9.1716252 L6.34311392,7.7574452 C6.73363392,7.3669252 7.36680392,7.3669252 7.75732392,7.7574452 C8.14784392,8.1479752 8.14784392,8.7811352 7.75732392,9.1716552 L6.34314392,10.5858452 L7.07103392,11.3137352 L11.3136739,7.0710952 L8.46442392,4.2218452 C8.07390392,3.8313252 7.44073392,3.8313252 7.05021392,4.2218452 L4.22178392,7.0502752 Z M16.9704939,12.7279552 L12.7278939,16.9705552 L13.4141939,17.6568552 L14.1212939,16.9497552 C14.5117939,16.5592552 15.1449939,16.5592552 15.5354939,16.9497552 C15.9259939,17.3403552 15.9259939,17.9734552 15.5354939,18.3639552 L14.8283939,19.0710552 L15.5354939,19.7781552 C15.9259939,20.1687552 16.5591939,20.1687552 16.9496939,19.7781552 L19.7780939,16.9497552 C20.1686939,16.5592552 20.1686939,15.9260552 19.7780939,15.5355552 L16.9704939,12.7279552 Z M19.5060939,5.9497852 L18.0918939,4.5355652 C17.7012939,4.1450452 17.0681939,4.1450452 16.6775939,4.5355652 L15.2633939,5.9498052 L18.0917939,8.7782252 L19.5060939,7.3639952 C19.8965939,6.9734752 19.8965939,6.3403052 19.5060939,5.9497852 Z M5.08501392,16.1281552 L13.8491939,7.3640152 L16.6775939,10.1924452 L7.91344392,18.9566552 L4.37791392,19.6637552 L5.08501392,16.1281552 Z"></path>
        </g>
    </g>
</svg>