<?xml version="1.0" encoding="UTF-8"?>
<svg width="20px" height="20px" viewBox="0 0 20 20" version="1.1" xmlns="http://www.w3.org/2000/svg" xmlns:xlink="http://www.w3.org/1999/xlink">
    <title>UI icon/event_scheduled/filled</title>
    <g id="👀-Icons" stroke="none" stroke-width="1" fill="none" fill-rule="evenodd">
        <g id="Subtract" transform="translate(-2.000000, -2.000000)" fill="#6F767E">
            <path d="M8,3 C8,2.447715 7.55228,2 7,2 C6.44772,2 6,2.447715 6,3 L6,4 L5,4 C3.34315,4 2,5.34315 2,7 L2,19 C2,20.6569 3.34315,22 5,22 L19,22 C20.6569,22 22,20.6569 22,19 L22,7 C22,5.34315 20.6569,4 19,4 L18,4 L18,3 C18,2.447715 17.5523,2 17,2 C16.4477,2 16,2.447715 16,3 L16,4 L8,4 L8,3 Z M16.7071,11.70711 C17.0976,11.31658 17.0976,10.68342 16.7071,10.29289 C16.3166,9.90237 15.6834,9.90237 15.2929,10.29289 L11,14.5858 L9.20711,12.7929 C8.81658,12.4024 8.18342,12.4024 7.79289,12.7929 C7.40237,13.1834 7.40237,13.8166 7.79289,14.2071 L10.29289,16.7071 C10.68342,17.0976 11.31658,17.0976 11.70711,16.7071 L16.7071,11.70711 Z"></path>
        </g>
    </g>
</svg>