<?xml version="1.0" encoding="UTF-8"?>
<svg width="20px" height="20px" viewBox="0 0 20 20" version="1.1" xmlns="http://www.w3.org/2000/svg" xmlns:xlink="http://www.w3.org/1999/xlink">
    <title>UI icon/event_scheduled/light</title>
    <g id="👀-Icons" stroke="none" stroke-width="1" fill="none" fill-rule="evenodd">
        <g id="编组" transform="translate(-2.000000, -2.000000)" fill="#6F767E">
            <path d="M7,2 C7.55228,2 8,2.447715 8,3 L8,4 L16,4 L16,3 C16,2.447715 16.4477,2 17,2 C17.5523,2 18,2.447715 18,3 L18,4 L19,4 C20.6569,4 22,5.34315 22,7 L22,19 C22,20.6569 20.6569,22 19,22 L5,22 C3.34315,22 2,20.6569 2,19 L2,7 C2,5.34315 3.34315,4 5,4 L6,4 L6,3 C6,2.447715 6.44772,2 7,2 Z M16,6 L16,7 C16,7.55228 16.4477,8 17,8 C17.5523,8 18,7.55228 18,7 L18,6 L19,6 C19.5523,6 20,6.44771 20,7 L20,19 C20,19.5523 19.5523,20 19,20 L5,20 C4.44772,20 4,19.5523 4,19 L4,7 C4,6.44772 4.44772,6 5,6 L6,6 L6,7 C6,7.55228 6.44772,8 7,8 C7.55228,8 8,7.55228 8,7 L8,6 L16,6 Z" id="Union"></path>
            <path d="M16.70711,10.2928931 C17.09763,10.6834171 17.09763,11.3165801 16.70711,11.7071101 L11.70711,16.70711 C11.31658,17.09763 10.68342,17.09763 10.2928901,16.70711 L7.79289307,14.20711 C7.40236898,13.81658 7.40236898,13.18342 7.79289307,12.79289 C8.18341707,12.40237 8.81658006,12.40237 9.20711006,12.79289 L11,14.58579 L15.29289,10.2928931 C15.68342,9.90236898 16.31658,9.90236898 16.70711,10.2928931 Z" id="Vector-408-(Stroke)"></path>
        </g>
    </g>
</svg>