<?xml version="1.0" encoding="UTF-8"?>
<svg width="10px" height="18px" viewBox="0 0 10 18" version="1.1" xmlns="http://www.w3.org/2000/svg" xmlns:xlink="http://www.w3.org/1999/xlink">
    <title>UI icon/facebook/filled</title>
    <g id="👀-Icons" stroke="none" stroke-width="1" fill="none" fill-rule="evenodd">
        <g id="编组" transform="translate(-7.000000, -3.000000)" fill="#6F767E" fill-rule="nonzero">
            <g id="Union">
                <path d="M13,7 C13,5.89543 13.89543,5 15,5 L16,5 C16.55228,5 17,4.55228 17,4 C17,3.447715 16.55228,3 16,3 L15,3 C12.79086,3 11,4.79086 11,7 L11,9 L8.5,9 C7.947715,9 7.5,9.44772 7.5,10 C7.5,10.55228 7.947715,11 8.5,11 L11,11 L11,20 C11,20.5523 11.44772,21 12,21 C12.55228,21 13,20.5523 13,20 L13,11 L15.5,11 C16.05228,11 16.5,10.55228 16.5,10 C16.5,9.44772 16.05228,9 15.5,9 L13,9 L13,7 Z"></path>
            </g>
        </g>
    </g>
</svg>