<?xml version="1.0" encoding="UTF-8"?>
<svg width="20px" height="22px" viewBox="0 0 20 22" version="1.1" xmlns="http://www.w3.org/2000/svg" xmlns:xlink="http://www.w3.org/1999/xlink">
    <title>UI icon/messages/filled</title>
    <g id="👀-Icons" stroke="none" stroke-width="1" fill="none" fill-rule="evenodd">
        <g id="Subtract" transform="translate(-2.000000, -1.000000)" fill="#6F767E">
            <path d="M6,6.5000126 L6,8.0000126 L4.5,8.0000126 C3.11929,8.0000126 2,9.1193026 2,10.5000126 L2,20.8790626 C2,22.1368626 3.4549,22.8360626 4.43704,22.0503626 L6.86304,20.1095626 C6.9517,20.0386626 7.06185,19.9999626 7.17539,19.9999626 L15.5,19.9999626 C16.8807,19.9999626 18,18.8807626 18,17.4999626 L18,15.9999626 L19.5,15.9999626 C20.8807,15.9999626 22,14.8807626 22,13.4999626 L22,2.8027826 C22,1.6047426 20.6648,0.890154599 19.668,1.5547086 L16.126,3.9160326 C16.0438,3.9707926 15.9473,4.0000126 15.8486,4.0000126 L8.5,4.0000126 C7.11929,4.0000126 6,5.1193026 6,6.5000126 Z M15.5,8.0000126 L8,8.0000126 L8,6.5000126 C8,6.2238726 8.22386,6.0000126 8.5,6.0000126 L15.8486,6.0000126 C16.3422,6.0000126 16.8247,5.8539126 17.2354,5.5801326 L20,3.7370426 L20,13.4999626 C20,13.7761626 19.7761,13.9999626 19.5,13.9999626 L18,13.9999626 L18,10.5000126 C18,9.1193026 16.8807,8.0000126 15.5,8.0000126 Z M7,12.9999626 C6.44772,12.9999626 6,13.4477626 6,13.9999626 C6,14.5522626 6.44772,14.9999626 7,14.9999626 L13,14.9999626 C13.5523,14.9999626 14,14.5522626 14,13.9999626 C14,13.4477626 13.5523,12.9999626 13,12.9999626 L7,12.9999626 Z"></path>
        </g>
    </g>
</svg>