<?xml version="1.0" encoding="UTF-8"?>
<svg width="20px" height="21px" viewBox="0 0 20 21" version="1.1" xmlns="http://www.w3.org/2000/svg" xmlns:xlink="http://www.w3.org/1999/xlink">
    <title>UI icon/messages/light</title>
    <g id="👀-Icons" stroke="none" stroke-width="1" fill="none" fill-rule="evenodd">
        <g id="编组" transform="translate(-2.000000, -1.000000)" fill="#6F767E">
            <path d="M16,6.00000942 C16.3948,6.00000942 16.7809,5.88312918 17.1094,5.66410874 L20,3.73703487 L20,12.9999935 C20,13.5522946 19.5523,13.9999955 19,13.9999955 L18,13.9999955 L18,15.9999995 L19,15.9999995 C20.6569,15.9999995 22,14.6568968 22,12.9999935 L22,3.73703487 C22,2.13964465 20.2197,1.18685874 18.8906,2.07293352 L16,4.00000539 L9,4.00000539 C7.34315,4.00000539 6,5.34314809 6,7.00001143 L6,8.00001344 L8,8.00001344 L8,7.00001143 C8,6.44772032 8.44772,6.00000942 9,6.00000942 L16,6.00000942 Z" id="Subtract" fill-rule="nonzero"></path>
            <path d="M5.75061,18.4383 C6.10524,18.1546 6.54586,18 7,18 L15,18 C15.5523,18 16,17.55228 16,17 L16,11 C16,10.44772 15.5523,10 15,10 L5,10 C4.44772,10 4,10.44772 4,11 L4,19.8388 L5.75061,18.4383 Z M7,20 L15,20 C16.6569,20 18,18.6569 18,17 L18,11 C18,9.34315 16.6569,8 15,8 L5,8 C3.34315,8 2,9.34315 2,11 L2,19.8388 C2,21.5158 3.93986,22.4481 5.24939,21.4005 L7,20 Z" id="Rectangle-192-(Stroke)"></path>
            <path d="M6,14 C6,13.447715 6.447715,13 7,13 L13,13 C13.55228,13 14,13.447715 14,14 C14,14.55228 13.55228,15 13,15 L7,15 C6.447715,15 6,14.55228 6,14 Z" id="Vector-409-(Stroke)"></path>
        </g>
    </g>
</svg>