<?xml version="1.0" encoding="UTF-8"?>
<svg width="18px" height="18px" viewBox="0 0 18 18" version="1.1" xmlns="http://www.w3.org/2000/svg" xmlns:xlink="http://www.w3.org/1999/xlink">
    <title>UI icon/moon/light</title>
    <g id="👀-Icons" stroke="none" stroke-width="1" fill="none" fill-rule="evenodd">
        <g id="Subtract-(Stroke)" transform="translate(-3.000000, -3.000000)" fill="#6F767E">
            <path d="M8.06567,6.02552475 C6.21318,7.28663475 5,9.41151475 5,11.8165847 C5,15.6826247 8.13401,18.8166247 12,18.8166247 C14.4051,18.8166247 16.5299,17.6034247 17.7911,15.7509247 C12.68173,15.1924247 8.62421,11.1348447 8.06567,6.02552475 Z M19,13.8166247 C19.866,13.8166247 20.6118,14.5798247 20.2691,15.3752247 C18.8898,18.5759247 15.7066,20.8166247 12,20.8166247 C7.02944,20.8166247 3,16.7871247 3,11.8165847 C3,8.11001475 5.24067,4.92677475 8.4414,3.54750205 C9.23674,3.20476875 10,3.95054875 10,4.81659475 C10,9.78715475 14.0294,13.8166247 19,13.8166247 Z"></path>
        </g>
    </g>
</svg>