<?xml version="1.0" encoding="UTF-8"?>
<svg width="19px" height="19px" viewBox="0 0 19 19" version="1.1" xmlns="http://www.w3.org/2000/svg" xmlns:xlink="http://www.w3.org/1999/xlink">
    <title>UI icon/phone_call_incoming/filled</title>
    <g id="👀-Icons" stroke="none" stroke-width="1" fill="none" fill-rule="evenodd">
        <g id="编组" transform="translate(-2.000000, -2.000000)" fill="#6F767E" fill-rule="nonzero">
            <g>
                <path d="M20.20711,5.20711006 C20.59763,4.81658006 20.59763,4.18341707 20.20711,3.79289307 C19.81658,3.40236898 19.18342,3.40236898 18.79289,3.79289307 L16,6.58579004 L16,6 C16,5.44772005 15.55228,5 15,5 C14.447715,5 14,5.44772005 14,6 L14,8.5 C14,9.32843001 14.671573,10 15.5,10 L18,10 C18.55228,10 19,9.55228001 19,9 C19,8.44772002 18.55228,8 18,8 L17.41421,8 L20.20711,5.20711006 Z" id="Union"></path>
                <path d="M2.49083475,8.70887608 C1.3875108,6.49466782 2.50075275,4.05101974 4.62207857,2.77822574 C5.64340944,2.16542922 6.96339057,2.43137361 7.66774118,3.39185125 L9.23040251,5.52275858 C9.89551308,6.42971787 9.99745317,7.63251693 9.49447274,8.63848614 L9.08474239,9.4579355 C8.96613229,9.69515531 8.94738227,9.96956509 9.06870238,10.2053949 C9.28975257,10.6350646 9.76047297,11.396494 10.6672637,12.3032933 C11.5740645,13.2100426 12.3355152,13.6808422 12.7652155,13.901842 C13.0010157,14.0231419 13.275416,14.0044419 13.5126162,13.885842 L14.3321169,13.4760423 C15.3380177,12.9731427 16.5408188,13.0750427 17.4478195,13.7401421 L19.5787214,15.3028409 C20.5392222,16.0071404 20.8051224,17.3271393 20.1923219,18.3484385 C18.9195208,20.4698369 16.4759187,21.583036 14.2617168,20.4797368 C12.3956152,19.5498376 10.0109032,18.0108388 7.48528102,15.4852408 C4.95966886,12.9596427 3.42071754,10.5750046 2.49083475,8.70887608 Z" id="Rectangle-158"></path>
            </g>
        </g>
    </g>
</svg>