<?xml version="1.0" encoding="UTF-8"?>
<svg width="20px" height="20px" viewBox="0 0 20 20" version="1.1" xmlns="http://www.w3.org/2000/svg" xmlns:xlink="http://www.w3.org/1999/xlink">
    <title>UI icon/phone_call_incoming/light</title>
    <g id="👀-Icons" stroke="none" stroke-width="1" fill="none" fill-rule="evenodd">
        <g id="编组" transform="translate(-2.000000, -2.000000)" fill="#6F767E">
            <path d="M8.32469118,6.99837901 L6.81706118,4.94250901 C6.71453118,4.80270901 6.52079118,4.76707901 6.37523118,4.86125901 C4.40281118,6.13753901 3.86061118,8.08712901 4.65194118,9.52432901 C5.51737118,11.096109 6.85213118,13.023659 8.89949118,15.071059 C10.9468612,17.118459 12.8744612,18.453159 14.4462612,19.318659 C15.8834612,20.109959 17.8330612,19.567759 19.1092612,17.595359 C19.2034612,17.449759 19.1678612,17.256059 19.0280612,17.153459 L16.9721612,15.645859 C16.6698612,15.424159 16.2689612,15.390159 15.9335612,15.557859 L15.1141612,15.967559 C14.4171612,16.316059 13.4617612,16.438459 12.5573612,15.973159 C11.9526512,15.662159 11.0207012,15.070959 9.96015118,14.010359 C8.89960118,12.949859 8.30844118,12.017909 7.99736118,11.413239 C7.53207118,10.508819 7.65450118,9.55338901 8.00299118,8.85640901 L8.41271118,8.03695901 C8.58038118,7.70162901 8.54640118,7.30069901 8.32469118,6.99837901 Z M5.28873118,3.18212001 C2.74821818,4.82597901 1.44046018,7.83825901 2.89995918,10.488979 C3.85248118,12.218949 5.29932118,14.299359 7.48528118,16.485259 C9.67124118,18.671259 11.7516112,20.118059 13.4815612,21.070559 C16.1322612,22.530059 19.1445612,21.222359 20.7884612,18.681859 C21.4580612,17.646959 21.2047612,16.269559 20.2107612,15.540659 L18.1549612,14.033059 C17.2479612,13.367959 16.0451612,13.265959 15.0391612,13.768959 L14.2197612,14.178759 C13.9824612,14.297359 13.7080612,14.316059 13.4722612,14.194759 C13.0425612,13.973659 12.2811612,13.502959 11.3743712,12.596189 C10.4675712,11.689399 9.99685118,10.927959 9.77581118,10.498299 C9.65448118,10.262459 9.67323118,9.98804901 9.79184118,9.75083901 L10.2015712,8.93137901 C10.7045512,7.92541901 10.6026112,6.72261901 9.93750118,5.81564901 L8.42987118,3.75978601 C7.70098118,2.76584031 6.32355118,2.51252801 5.28873118,3.18212001 Z" id="Rectangle-159-(Stroke)"></path>
            <path d="M20.20711,5.20711006 C20.59763,4.81658006 20.59763,4.18341707 20.20711,3.79289307 C19.81658,3.40236898 19.18342,3.40236898 18.79289,3.79289307 L16,6.58579004 L16,6 C16,5.44772005 15.55228,5 15,5 C14.447715,5 14,5.44772005 14,6 L14,8.5 C14,9.32843001 14.671573,10 15.5,10 L18,10 C18.55228,10 19,9.55228001 19,9 C19,8.44772002 18.55228,8 18,8 L17.41421,8 L20.20711,5.20711006 Z" id="Union" fill-rule="nonzero"></path>
        </g>
    </g>
</svg>