<?xml version="1.0" encoding="UTF-8"?>
<svg width="20px" height="16px" viewBox="0 0 20 16" version="1.1" xmlns="http://www.w3.org/2000/svg" xmlns:xlink="http://www.w3.org/1999/xlink">
    <title>UI icon/live/filled</title>
    <g id="👀-Icons" stroke="none" stroke-width="1" fill="none" fill-rule="evenodd">
        <g id="编组" transform="translate(-2.000000, -4.000000)" fill="#6F767E">
            <path d="M11.9999999,13.9004517 C13.1045699,13.9004517 13.9999999,13.0050217 13.9999999,11.9004517 C13.9999999,10.7958827 13.1045699,9.90045175 11.9999999,9.90045175 C10.8954309,9.90045175 9.99999991,10.7958827 9.99999991,11.9004517 C9.99999991,13.0050217 10.8954309,13.9004517 11.9999999,13.9004517 Z" id="Ellipse-28-(Stroke)" transform="translate(12.000000, 11.900452) rotate(90.000003) translate(-12.000000, -11.900452) "></path>
            <path d="M16.2698833,12.2965853 C15.1259235,12.2965853 14.0742437,12.6795453 13.2321338,13.3247953 C12.7937439,13.6606953 12.16605,13.5776153 11.8301471,13.1392153 C11.4942432,12.7008253 11.5773266,12.0731353 12.0157181,11.7372353 C13.1947039,10.8338773 14.6709636,10.2965853 16.2698833,10.2965853 C17.9363229,10.2965853 19.4691826,10.8801563 20.6713024,11.8532153 C21.1005823,12.2006853 21.1668923,12.8303753 20.8194124,13.2596453 C20.4719424,13.6889253 19.8422526,13.7552353 19.4129826,13.4077653 C18.5539228,12.7124053 17.461823,12.2965853 16.2698833,12.2965853 Z" id="Ellipse-187-(Stroke)" transform="translate(16.333024, 11.963552) rotate(90.000003) translate(-16.333024, -11.963552) "></path>
            <path d="M7.60606707,12.294327 C6.46060697,12.294327 5.40766687,12.6782977 4.56499679,13.325078 C4.12688675,13.6613481 3.49912369,13.578788 3.16285565,13.1406779 C2.82658662,12.7025678 2.90914763,12.0748076 3.34725967,11.7385374 C4.52700678,10.8330342 6.00504692,10.294327 7.60606707,10.294327 C9.27121723,10.294327 10.8029974,10.8769962 12.0046975,11.8486975 C12.4341575,12.1959576 12.5007875,12.8256078 12.1535275,13.2550579 C11.8062775,13.6845181 11.1766274,13.7511481 10.7471674,13.403888 C9.88841729,12.7095078 8.79708719,12.294327 7.60606707,12.294327 Z" id="Ellipse-189-(Stroke)" transform="translate(7.666023, 11.960328) scale(1, -1) rotate(-89.999997) translate(-7.666023, -11.960328) "></path>
            <path d="M19.6902429,11.7101901 C17.4581929,11.7101901 15.418163,12.5214317 13.8450731,13.8664024 C13.4253031,14.2253026 12.7940651,14.1759526 12.4351651,13.7561824 C12.0762661,13.3364121 12.1256133,12.7051718 12.5453861,12.3462716 C14.4670131,10.7033087 16.963923,9.71019015 19.6902429,9.71019015 C22.4793128,9.71019015 25.0280127,10.7494907 26.9665126,12.4604516 C27.3806126,12.8259218 27.4200126,13.4578522 27.0545126,13.8719224 C26.6891126,14.2859926 26.0571126,14.3253927 25.6431126,13.9599325 C24.0559127,12.5590817 21.9734328,11.7101901 19.6902429,11.7101901 Z" id="Ellipse-188-(Stroke)" transform="translate(19.750013, 11.960196) rotate(90.000003) translate(-19.750013, -11.960196) "></path>
            <path d="M4.19047327,11.709946 C1.95856753,11.709946 -0.0813285756,12.5210869 -1.65437557,13.8658973 C-2.07416477,14.2247774 -2.70539957,14.1753974 -3.06427988,13.7556073 C-3.4231602,13.3358272 -3.37378419,12.704587 -2.95399609,12.3457068 C-1.03242676,10.7029353 1.46432847,9.70994601 4.19047327,9.70994601 C6.97577795,9.70994601 9.52137309,10.7464363 11.4588694,12.4532969 C11.8733686,12.818367 11.9133685,13.4502672 11.5482692,13.8646873 C11.1831699,14.2790975 10.5512711,14.3190975 10.1368719,13.9540273 C8.55047495,12.5565469 6.47058892,11.709946 4.19047327,11.709946 Z" id="Ellipse-190-(Stroke)" transform="translate(4.246864, 11.956809) scale(1, -1) rotate(-89.999997) translate(-4.246864, -11.956809) "></path>
        </g>
    </g>
</svg>