<?xml version="1.0" encoding="UTF-8"?>
<svg width="20px" height="16px" viewBox="0 0 20 16" version="1.1" xmlns="http://www.w3.org/2000/svg" xmlns:xlink="http://www.w3.org/1999/xlink">
    <title>UI icon/live/light</title>
    <g id="👀-Icons" stroke="none" stroke-width="1" fill="none" fill-rule="evenodd">
        <g id="编组" transform="translate(-2.000000, -4.000000)" fill="#6F767E">
            <path d="M11.9999999,13.9004517 C13.1045699,13.9004517 13.9999999,13.0050217 13.9999999,11.9004517 C13.9999999,10.7958827 13.1045699,9.90045175 11.9999999,9.90045175 C10.8954309,9.90045175 9.99999991,10.7958827 9.99999991,11.9004517 C9.99999991,13.0050217 10.8954309,13.9004517 11.9999999,13.9004517 Z" id="Ellipse-28-(Stroke)" transform="translate(12.000000, 11.900452) rotate(90.000003) translate(-12.000000, -11.900452) "></path>
            <path d="M16.2698527,12.2965548 C15.125893,12.2965548 14.0742132,12.6795148 13.2321033,13.3247648 C12.7937134,13.6606648 12.1660195,13.5775848 11.8301166,13.1391848 C11.4942127,12.7007948 11.577296,12.0731048 12.0156876,11.7372048 C13.1946733,10.8338468 14.670933,10.2965548 16.2698527,10.2965548 C17.9362924,10.2965548 19.4691521,10.8801258 20.6712719,11.8531848 C21.1005518,12.2006548 21.1668618,12.8303448 20.8193819,13.2596148 C20.4719119,13.6888948 19.842222,13.7552048 19.4129521,13.4077348 C18.5538923,12.7123748 17.4617925,12.2965548 16.2698527,12.2965548 Z" id="Ellipse-187-(Stroke)" transform="translate(16.332994, 11.963522) rotate(90.000003) translate(-16.332994, -11.963522) "></path>
            <path d="M7.60606707,12.294327 C6.46060697,12.294327 5.40766687,12.6782977 4.56499679,13.325078 C4.12688675,13.6613481 3.49912369,13.578788 3.16285565,13.1406779 C2.82658662,12.7025678 2.90914763,12.0748076 3.34725967,11.7385374 C4.52700678,10.8330342 6.00504692,10.294327 7.60606707,10.294327 C9.27121723,10.294327 10.8029974,10.8769962 12.0046975,11.8486975 C12.4341575,12.1959576 12.5007875,12.8256078 12.1535275,13.2550579 C11.8062775,13.6845181 11.1766274,13.7511481 10.7471674,13.403888 C9.88841729,12.7095078 8.79708719,12.294327 7.60606707,12.294327 Z" id="Ellipse-189-(Stroke)" transform="translate(7.666023, 11.960328) scale(1, -1) rotate(-89.999997) translate(-7.666023, -11.960328) "></path>
            <path d="M19.6902429,11.7101901 C17.4581929,11.7101901 15.418163,12.5214317 13.8450731,13.8664024 C13.4253031,14.2253026 12.7940651,14.1759526 12.4351651,13.7561824 C12.0762661,13.3364121 12.1256133,12.7051718 12.5453861,12.3462716 C14.4670131,10.7033087 16.963923,9.71019015 19.6902429,9.71019015 C22.4793128,9.71019015 25.0280127,10.7494907 26.9665126,12.4604516 C27.3806126,12.8259218 27.4200126,13.4578522 27.0545126,13.8719224 C26.6891126,14.2859926 26.0571126,14.3253927 25.6431126,13.9599325 C24.0559127,12.5590817 21.9734328,11.7101901 19.6902429,11.7101901 Z" id="Ellipse-188-(Stroke)" transform="translate(19.750013, 11.960196) rotate(90.000003) translate(-19.750013, -11.960196) "></path>
            <path d="M4.19050379,11.7099155 C1.95859805,11.7099155 -0.081298058,12.5210564 -1.65434506,13.8658668 C-2.07413425,14.2247469 -2.70536905,14.1753669 -3.06424936,13.7555768 C-3.42312968,13.3357966 -3.37375367,12.7045564 -2.95396557,12.3456763 C-1.03239624,10.7029048 1.46435899,9.70991549 4.19050379,9.70991549 C6.97580847,9.70991549 9.52140361,10.7464058 11.4588999,12.4532664 C11.8733991,12.8183365 11.913399,13.4502367 11.5482997,13.8646568 C11.1832004,14.2790669 10.5513016,14.3190669 10.1369024,13.9539968 C8.55050546,12.5565164 6.47061943,11.7099155 4.19050379,11.7099155 Z" id="Ellipse-190-(Stroke)" transform="translate(4.246894, 11.956779) scale(1, -1) rotate(-89.999997) translate(-4.246894, -11.956779) "></path>
        </g>
    </g>
</svg>