<?xml version="1.0" encoding="UTF-8"?>
<svg width="14px" height="22px" viewBox="0 0 14 22" version="1.1" xmlns="http://www.w3.org/2000/svg" xmlns:xlink="http://www.w3.org/1999/xlink">
    <title>UI icon/dollar/filled</title>
    <g id="👀-Icons" stroke="none" stroke-width="1" fill="none" fill-rule="evenodd">
        <g id="编组" transform="translate(-5.000000, -1.000000)" fill="#6F767E" fill-rule="nonzero">
            <g id="Union">
                <path d="M12,1 C12.55228,1 13,1.447715 13,2 L13,3 L15,3 C17.2091,3 19,4.79086 19,7 L19,8 C19,8.55228 18.5523,9 18,9 C17.4477,9 17,8.55228 17,8 L17,7 C17,5.89543 16.1046,5 15,5 L9,5 C7.89543,5 7,5.89543 7,7 L7,7.11696 C7,8.40825 7.82629,9.55467 9.05132,9.96301 L15.5811,12.1396 C17.6228,12.8202 19,14.7309 19,16.883 L19,17 C19,19.2091 17.2091,21 15,21 L13,21 L13,22 C13,22.5523 12.55228,23 12,23 C11.44772,23 11,22.5523 11,22 L11,21 L9,21 C6.79086,21 5,19.2091 5,17 L5,16 C5,15.4477 5.447715,15 6,15 C6.55228,15 7,15.4477 7,16 L7,17 C7,18.1046 7.89543,19 9,19 L15,19 C16.1046,19 17,18.1046 17,17 L17,16.883 C17,15.5917 16.1737,14.4453 14.94868,14.037 L8.41886,11.8604 C6.37715,11.1798 5,9.26912 5,7.11696 L5,7 C5,4.79086 6.79086,3 9,3 L11,3 L11,2 C11,1.447715 11.44772,1 12,1 Z"></path>
            </g>
        </g>
    </g>
</svg>