<?xml version="1.0" encoding="UTF-8"?>
<svg width="22px" height="22px" viewBox="0 0 22 22" version="1.1" xmlns="http://www.w3.org/2000/svg" xmlns:xlink="http://www.w3.org/1999/xlink">
    <title>UI icon/promotion/filled</title>
    <g id="👀-Icons" stroke="none" stroke-width="1" fill="none" fill-rule="evenodd">
        <g id="Subtract" transform="translate(-1.000000, -1.000000)" fill="#6F767E">
            <path d="M10.0541053,2.34440233 C11.1753853,1.38886133 12.8245853,1.38886133 13.9457853,2.34440233 L15.2172853,3.42793633 C15.3774853,3.56442633 15.5765853,3.64691633 15.7863853,3.66365633 L17.4515853,3.79654633 C18.9200853,3.91373633 20.0862853,5.07986633 20.2034853,6.54839633 L20.3362853,8.21363633 C20.3530853,8.42339633 20.4355853,8.62253633 20.5720853,8.78270633 L21.6555853,10.0541663 C22.6110853,11.1754463 22.6110853,12.8246463 21.6555853,13.9458463 L20.5720853,15.2173463 C20.4355853,15.3775463 20.3530853,15.5766463 20.3362853,15.7864463 L20.2034853,17.4516463 C20.0862853,18.9201463 18.9200853,20.0863463 17.4515853,20.2035463 L15.7863853,20.3363463 C15.5765853,20.3531463 15.3774853,20.4356463 15.2172853,20.5721463 L13.9457853,21.6556463 C12.8245853,22.6111463 11.1753853,22.6111463 10.0541053,21.6556463 L8.7826453,20.5721463 C8.6224753,20.4356463 8.4233353,20.3531463 8.2135753,20.3363463 L6.5483353,20.2035463 C5.0798053,20.0863463 3.9136753,18.9201463 3.7964853,17.4516463 L3.6635953,15.7864463 C3.6468553,15.5766463 3.5643653,15.3775463 3.4278753,15.2173463 L2.3443413,13.9458463 C1.3888003,12.8246463 1.3888003,11.1754463 2.3443413,10.0541663 L3.4278753,8.78270633 C3.5643653,8.62253633 3.6468553,8.42339633 3.6635953,8.21363633 L3.7964853,6.54839633 C3.9136753,5.07986633 5.0798053,3.91373633 6.5483353,3.79654633 L8.2135753,3.66365633 C8.4233353,3.64691633 8.6224753,3.56442633 8.7826453,3.42793633 L10.0541053,2.34440233 Z M8.4999953,9.99999633 C9.3284253,9.99999633 9.9999953,9.32842633 9.9999953,8.49999633 C9.9999953,7.67157633 9.3284253,6.99999633 8.4999953,6.99999633 C7.6715753,6.99999633 6.9999953,7.67157633 6.9999953,8.49999633 C6.9999953,9.32842633 7.6715753,9.99999633 8.4999953,9.99999633 Z M16.9999853,15.5000463 C16.9999853,16.3284463 16.3283853,17.0000463 15.4999853,17.0000463 C14.6715853,17.0000463 13.9999853,16.3284463 13.9999853,15.5000463 C13.9999853,14.6715463 14.6715853,14.0000463 15.4999853,14.0000463 C16.3283853,14.0000463 16.9999853,14.6715463 16.9999853,15.5000463 Z M16.1016853,8.64020633 C16.4551853,8.21593633 16.3978853,7.58536633 15.9735853,7.23180633 C15.5493853,6.87823633 14.9187853,6.93556633 14.5651853,7.35983633 L7.8985553,15.3598463 C7.5449853,15.7841463 7.6023153,16.4146463 8.0265853,16.7682463 C8.4508653,17.1218463 9.0814253,17.0644463 9.4349953,16.6402463 L16.1016853,8.64020633 Z"></path>
        </g>
    </g>
</svg>