<?xml version="1.0" encoding="UTF-8"?>
<svg width="14px" height="19px" viewBox="0 0 14 19" version="1.1" xmlns="http://www.w3.org/2000/svg" xmlns:xlink="http://www.w3.org/1999/xlink">
    <title>UI icon/music/light</title>
    <g id="👀-Icons" stroke="none" stroke-width="1" fill="none" fill-rule="evenodd">
        <g id="Union" transform="translate(-6.000000, -2.000000)" fill="#6F767E">
            <path d="M12,6.34231492 C12,4.96571492 12.93689,3.76576692 14.27239,3.43189192 L16.3837,2.90406672 C18.2206,2.44483992 20,3.83415492 20,5.72759492 C20,7.06309492 19.0911,8.22721492 17.7955,8.55112492 L14,9.49998492 L14,17.0000349 C14,19.2091349 12.20914,21.0000349 10,21.0000349 C7.79086,21.0000349 6,19.2091349 6,17.0000349 C6,14.7908349 7.79086,13.0000349 10,13.0000349 C10.72857,13.0000349 11.41165,13.1948349 12,13.5351349 L12,6.34231492 Z M14.75746,5.37217492 L16.8688,4.84435492 C17.4434,4.70069492 18,5.13529492 18,5.72759492 C18,6.14536492 17.7157,6.50951492 17.3104,6.61084492 L14,7.43843492 L14,6.34231492 C14,5.88345492 14.3123,5.48346492 14.75746,5.37217492 Z M10,15.0000349 C11.10457,15.0000349 12,15.8954349 12,17.0000349 C12,18.1045349 11.10457,19.0000349 10,19.0000349 C8.89543,19.0000349 8,18.1045349 8,17.0000349 C8,15.8954349 8.89543,15.0000349 10,15.0000349 Z"></path>
        </g>
    </g>
</svg>