<?xml version="1.0" encoding="UTF-8"?>
<svg width="20px" height="14px" viewBox="0 0 20 14" version="1.1" xmlns="http://www.w3.org/2000/svg" xmlns:xlink="http://www.w3.org/1999/xlink">
    <title>UI icon/cloud check/filled</title>
    <g id="👀-Icons" stroke="none" stroke-width="1" fill="none" fill-rule="evenodd">
        <g id="Subtract" transform="translate(-2.000000, -5.000000)" fill="#6F767E">
            <path d="M15,19 C18.866,19 22,15.866 22,12 C22,8.13401 18.866,5 15,5 C12.1108,5 9.63037,6.75042 8.56143,9.24864 C8.07015,9.08728 7.54527,9 7,9 C4.23858,9 2,11.23858 2,14 C2,16.7614 4.23858,19 7,19 L15,19 Z M12.2071,15.7071 L15.2071,12.70711 C15.5976,12.31658 15.5976,11.68342 15.2071,11.29289 C14.8166,10.90237 14.1834,10.90237 13.7929,11.29289 L11.5,13.58579 L10.70711,12.79289 C10.31658,12.40237 9.68342,12.40237 9.29289,12.79289 C8.90237,13.18342 8.90237,13.81658 9.29289,14.20711 L10.79289,15.7071 C11.18342,16.0976 11.81658,16.0976 12.2071,15.7071 Z"></path>
        </g>
    </g>
</svg>