<?xml version="1.0" encoding="UTF-8"?>
<svg width="20px" height="15px" viewBox="0 0 20 15" version="1.1" xmlns="http://www.w3.org/2000/svg" xmlns:xlink="http://www.w3.org/1999/xlink">
    <title>UI icon/cloud check/light</title>
    <g id="👀-Icons" stroke="none" stroke-width="1" fill="none" fill-rule="evenodd">
        <g id="编组" transform="translate(-2.000000, -5.000000)" fill="#6F767E">
            <path d="M15.20711,11.2928931 C15.59763,11.6834171 15.59763,12.3165801 15.20711,12.70711 L12.20711,15.70711 C11.81658,16.09763 11.18342,16.09763 10.7928901,15.70711 L9.29289307,14.20711 C8.90236898,13.81658 8.90236898,13.18342 9.29289307,12.79289 C9.68341707,12.4023701 10.3165801,12.4023701 10.7071101,12.79289 L11.5,13.58579 L13.79289,11.2928931 C14.18342,10.902369 14.81658,10.902369 15.20711,11.2928931 Z" id="Vector-408-(Stroke)"></path>
            <path d="M14.7439,18 C14.7851,17.9947 14.8267,17.9907 14.8686,17.9879 C17.7333,17.7994 20,15.4136 20,12.5 C20,9.46243 17.5376,7 14.5,7 C12.3888,7 10.55212,8.18891 9.62876,9.9431 C9.26127,10.64124 8.51771,11.05811 7.73039,11.00739 C7.65447,11.0025 7.57766,11 7.5,11 C5.567,11 4,12.567 4,14.5 C4,16.3246 5.39773,17.8251 7.1795,17.9857 C7.2197,17.9893 7.25953,17.9941 7.29897,18 L14.7439,18 Z M15,19.9836 C18.909,19.7263 22,16.4741 22,12.5 C22,8.35786 18.6421,5 14.5,5 C11.61731,5 9.11447,6.62634 7.85897,9.01153 C7.74029,9.00388 7.6206,9 7.5,9 C4.46243,9 2,11.46243 2,14.5 C2,17.369 4.19675,19.725 7,19.9776 L7,20 L15,20 L15,19.9836 Z" id="Union-(Stroke)"></path>
        </g>
    </g>
</svg>