<?xml version="1.0" encoding="UTF-8"?>
<svg width="20px" height="20px" viewBox="0 0 20 20" version="1.1" xmlns="http://www.w3.org/2000/svg" xmlns:xlink="http://www.w3.org/1999/xlink">
    <title>UI icon/help/filled</title>
    <g id="👀-Icons" stroke="none" stroke-width="1" fill="none" fill-rule="evenodd">
        <g id="Subtract" transform="translate(-2.000000, -2.000000)" fill="#6F767E">
            <path d="M22,12 C22,17.5228 17.5228,22 12,22 C6.47715,22 2,17.5228 2,12 C2,6.47715 6.47715,2 12,2 C17.5228,2 22,6.47715 22,12 Z M13,18 C13,18.5523 12.5523,19 12,19 C11.44771,19 11,18.5523 11,18 C11,17.4477 11.44771,17 12,17 C12.5523,17 13,17.4477 13,18 Z M10.11352,9.33325 C10.38856,8.5551 11.13073,8 11.99998,8 C13.1045,8 14,8.89543 14,10 C14,11.10457 13.1045,12 11.99998,12 C11.44769,12 10.99998,12.4477 10.99998,13 L10.99998,14.5 C10.99998,15.0523 11.44769,15.5 11.99998,15.5 C12.5523,15.5 13,15.0523 13,14.5 L13,13.874 C14.7252,13.4299 16,11.86384 16,10 C16,7.79086 14.2091,6 11.99998,6 C10.25679,6 8.77648,7.11451 8.22784,8.66675 C8.0438,9.18747 8.31672,9.75879 8.83744,9.94284 C9.35815,10.12689 9.92948,9.85396 10.11352,9.33325 Z"></path>
        </g>
    </g>
</svg>