<?xml version="1.0" encoding="UTF-8"?>
<svg width="20px" height="20px" viewBox="0 0 20 20" version="1.1" xmlns="http://www.w3.org/2000/svg" xmlns:xlink="http://www.w3.org/1999/xlink">
    <title>UI icon/help/light</title>
    <g id="👀-Icons" stroke="none" stroke-width="1" fill="none" fill-rule="evenodd">
        <g id="编组" transform="translate(-2.000000, -2.000000)" fill="#6F767E">
            <path d="M12,20 C16.4183,20 20,16.4183 20,12 C20,7.58172 16.4183,4 12,4 C7.58172,4 4,7.58172 4,12 C4,16.4183 7.58172,20 12,20 Z M12,22 C17.5228,22 22,17.5228 22,12 C22,6.47715 17.5228,2 12,2 C6.47715,2 2,6.47715 2,12 C2,17.5228 6.47715,22 12,22 Z" id="Ellipse-134-(Stroke)"></path>
            <path d="M13,18 C13,18.55228 12.55228,19 12,19 C11.44772,19 11,18.55228 11,18 C11,17.44771 11.44772,17 12,17 C12.55228,17 13,17.44771 13,18 Z" id="Ellipse-190" fill-rule="nonzero"></path>
            <path d="M12.0000015,8 C11.1307519,8 10.3885822,8.5551 10.1135423,9.33325 C9.92950235,9.85396 9.35817257,10.12689 8.83745877,9.94284 C8.31674297,9.75879 8.04381907,9.18747 8.2278657,8.66675 C8.77650379,7.11451 10.2568122,6 12.0000015,6 C14.2091407,6 16,7.79086 16,10 C16,11.86384 14.7252205,13.42994 13.0000012,13.87398 L13.0000012,15 C13.0000012,15.55229 12.5522813,16 12.0000015,16 C11.4477118,16 11.0000019,15.55229 11.0000019,15 L11.0000019,13 C11.0000019,12.44772 11.4477118,12 12.0000015,12 C13.1045711,12 14.0000008,11.10457 14.0000008,10 C14.0000008,8.89543 13.1045711,8 12.0000015,8 Z" id="Ellipse-191-(Stroke)"></path>
        </g>
    </g>
</svg>