<?xml version="1.0" encoding="UTF-8"?>
<svg width="20px" height="19px" viewBox="0 0 20 19" version="1.1" xmlns="http://www.w3.org/2000/svg" xmlns:xlink="http://www.w3.org/1999/xlink">
    <title>UI icon/cloud_upload/filled</title>
    <g id="👀-Icons" stroke="none" stroke-width="1" fill="none" fill-rule="evenodd">
        <g id="编组" transform="translate(-2.000000, -2.000000)" fill="#6F767E">
            <path d="M17.9483,14.6089569 C18.0205,14.9985507 18.4346,15.2871237 18.7643,15.0736324 C20.71,13.8138614 22,11.6059235 22,9.09273459 C22,5.17552873 18.866,2 15,2 C12.1108,2 9.63037,3.77360921 8.56143,6.30492513 C8.07015,6.14142746 7.54527,6.05299119 7,6.05299119 C4.23858,6.05299119 2,8.32122745 2,11.1192302 C2,13.3299342 3.3974,15.2098129 5.346,15.9016585 C5.70094,16.0277065 6.01654,15.669726 6.0022,15.2888462 C5.97145,14.4725738 6.26361,13.6460675 6.87868,13.0228188 L9.87739,9.98436225 L9.88849,9.97315573 C10.17384,9.68662952 10.50183,9.47003767 10.85165,9.32339032 C11.20537,9.17476713 11.59323,9.09273459 12,9.09273459 C12.8216,9.09273459 13.5661,9.4274002 14.1079,9.96953844 L14.123,9.98471689 L17.1213,13.0228188 C17.5651,13.4723969 17.8407,14.0278593 17.9483,14.6089569 Z" id="Subtract" fill-rule="nonzero"></path>
            <path d="M9.70710996,15.70711 C9.31657998,16.09763 8.68341703,16.09763 8.29289305,15.70711 C7.90236898,15.31658 7.90236898,14.68342 8.29289305,14.29289 L11.2928898,11.292893 C11.4873898,11.0983936 11.7420798,11.0007641 11.9969998,11 L12,11 L12.0029998,11 C12.1374998,11.0003991 12.2657498,11.0273459 12.3827798,11.0758785 C12.5007298,11.124678 12.6112298,11.197016 12.7071098,11.292893 L15.7071095,14.29289 C16.0976295,14.68342 16.0976295,15.31658 15.7071095,15.70711 C15.3165796,16.09763 14.6834196,16.09763 14.2928896,15.70711 L13,14.41421 L13,20 C13,20.55229 12.5522798,21 12,21 C11.4477198,21 11,20.55229 11,20 L11,14.41421 L9.70710996,15.70711 Z" id="Union"></path>
        </g>
    </g>
</svg>