<?xml version="1.0" encoding="UTF-8"?>
<svg width="20px" height="19px" viewBox="0 0 20 19" version="1.1" xmlns="http://www.w3.org/2000/svg" xmlns:xlink="http://www.w3.org/1999/xlink">
    <title>UI icon/cloud_upload/light</title>
    <g id="👀-Icons" stroke="none" stroke-width="1" fill="none" fill-rule="evenodd">
        <g id="编组" transform="translate(-2.000000, -2.000000)" fill="#6F767E">
            <path d="M9.70710996,15.70711 C9.31657998,16.09763 8.68341703,16.09763 8.29289305,15.70711 C7.90236898,15.31658 7.90236898,14.68342 8.29289305,14.29289 L11.2928898,11.292893 C11.4873898,11.0983936 11.7420798,11.0007641 11.9969998,11 C11.9979998,11 11.9989998,11 12,11 C12.0009998,11 12.0019998,11 12.0029998,11 C12.1374998,11.0003991 12.2657498,11.0273459 12.3827798,11.0758785 C12.5007298,11.124678 12.6112298,11.197016 12.7071098,11.292893 L15.7071095,14.29289 C16.0976295,14.68342 16.0976295,15.31658 15.7071095,15.70711 C15.3165796,16.09763 14.6834196,16.09763 14.2928896,15.70711 L13,14.41421 L13,20 C13,20.55229 12.5522798,21 12,21 C11.4477198,21 11,20.55229 11,20 L11,14.41421 L9.70710996,15.70711 Z" id="Union"></path>
            <path d="M8.56161,6.24898774 C9.63043,3.75081907 12.1098,2 15,2 C18.866,2 22,5.13400833 22,9 C22,11.0732552 21.0974,12.9369942 19.6669,14.2172935 C19.2554,14.5856933 18.6232,14.5506933 18.2549,14.1390935 C17.8865,13.7275938 17.9216,13.0953941 18.3331,12.7270943 C19.3576,11.8101048 20,10.4807355 20,9 C20,6.23857774 17.7614,4 15,4 C12.6324,4 10.64697,5.64654806 10.13076,7.85809688 C10.05692,8.17444671 9.83401,8.43521658 9.533,8.55737651 C9.23199,8.67954645 8.8904,8.64788646 8.61697,8.47247656 C8.15091,8.17348672 7.59724,8 7,8 C5.34315,8 4,9.34314609 4,11 C4,12.1091946 4.60141,13.0789941 5.50073,13.5992938 C5.97879,13.8757937 6.14215,14.4874934 5.86561,14.9655931 C5.58906,15.4436928 4.97733,15.6069928 4.49927,15.3304929 C3.00738,14.4674934 2,12.8519942 2,11 C2,8.23857668 4.23858,6 7,6 C7.54465,6 8.0698,6.08739783 8.56161,6.24898774 Z" id="Union-(Stroke)"></path>
        </g>
    </g>
</svg>