<?xml version="1.0" encoding="UTF-8"?>
<svg width="18px" height="22px" viewBox="0 0 18 22" version="1.1" xmlns="http://www.w3.org/2000/svg" xmlns:xlink="http://www.w3.org/1999/xlink">
    <title>UI icon 16/up</title>
    <g id="👀-Icons" stroke="none" stroke-width="1" fill="none" fill-rule="evenodd">
        <g id="编组" transform="translate(-3.000000, -1.000000)" fill="#6F767E" fill-rule="nonzero">
            <g id="Frame-87" transform="translate(4.500000, 3.000000)">
                <path d="M-1.06066387,6.43933612 C-1.64644387,7.02513112 -1.64644387,7.97487112 -1.06066387,8.56066612 C-0.474883875,9.14644612 0.474871125,9.14644612 1.06065112,8.56066612 L-1.06066387,6.43933612 Z M7.50000112,1.125e-06 L8.56066613,-1.06066387 C7.97487113,-1.64644387 7.02513113,-1.64644387 6.43933612,-1.06066387 L7.50000112,1.125e-06 Z M13.9393361,8.56066612 C14.5251311,9.14644612 15.4749011,9.14644612 16.0606511,8.56066612 C16.6464011,7.97487112 16.6464011,7.02513112 16.0606511,6.43933612 L13.9393361,8.56066612 Z M1.06066612,8.56066612 L8.56066613,1.06066612 L6.43933612,-1.06064887 L-1.06066388,6.43935112 L1.06066612,8.56066612 Z M6.43933612,1.06066612 L13.9393361,8.56066612 L16.0606511,6.43933612 L8.56066613,-1.06066388 L6.43933612,1.06066612 Z" id="Vector-618"></path>
                <path d="M6,18 C6,18.82845 6.671565,19.5 7.5,19.5 C8.328435,19.5 9,18.82845 9,18 L6,18 Z M9,0 C9,-0.82842 8.328435,-1.5 7.5,-1.5 C6.671565,-1.5 6,-0.82842 6,0 L9,0 Z M9,18 L9,0 L6,0 L6,18 L9,18 Z" id="Vector-619"></path>
            </g>
        </g>
    </g>
</svg>