<?xml version="1.0" encoding="UTF-8"?>
<svg width="20px" height="20px" viewBox="0 0 20 20" version="1.1" xmlns="http://www.w3.org/2000/svg" xmlns:xlink="http://www.w3.org/1999/xlink">
    <title>UI icon/flight/filled</title>
    <g id="👀-Icons" stroke="none" stroke-width="1" fill="none" fill-rule="evenodd">
        <g id="Rectangle-9-(Stroke)" transform="translate(-2.000000, -2.000000)" fill="#6F767E">
            <path d="M8.99999989,2.50000012 L10.7639299,2.50000012 C11.7108599,2.50000012 12.5764999,3.03500612 12.9999999,3.88197012 L15.6707999,9.22361012 C15.7554999,9.39300012 15.9285999,9.50000012 16.1179999,9.50000012 L19.4999999,9.50000012 C20.8806999,9.50000012 21.9999999,10.6192901 21.9999999,12.0000001 C21.9999999,13.3807001 20.8806999,14.5000001 19.4999999,14.5000001 L16.1179999,14.5000001 C15.9285999,14.5000001 15.7554999,14.6070001 15.6707999,14.7764001 L12.9999999,20.1180001 C12.5764999,20.9650001 11.7108599,21.5000001 10.7639299,21.5000001 L8.99999989,21.5000001 C8.8415799,21.5000001 8.6925399,21.4249001 8.5982399,21.2976001 C8.5039399,21.1703001 8.4755399,21.0059001 8.5216899,20.8543001 L10.3583499,14.8228001 C10.4072599,14.6622001 10.2870899,14.5000001 10.1191899,14.5000001 L7.49999989,14.5000001 C7.3426199,14.5000001 7.1944299,14.5741001 7.0999999,14.7000001 L6.19999991,15.9000001 C5.91671991,16.2777001 5.47213991,16.5000001 4.99999989,16.5000001 L2.49999989,16.5000001 C2.32671191,16.5000001 2.16577791,16.4103001 2.07467501,16.2629001 C1.98357171,16.1155001 1.97528971,15.9314001 2.05278681,15.7764001 L3.94097991,12.0000001 L2.05278681,8.22361012 C1.97528971,8.06861012 1.98357171,7.88454012 2.07467501,7.73713012 C2.16577791,7.58973012 2.32671191,7.50000012 2.49999989,7.50000012 L4.99999989,7.50000012 C5.47213991,7.50000012 5.91671991,7.72229012 6.19999991,8.10000012 L7.0999999,9.30000012 C7.1944299,9.42590012 7.3426199,9.50000012 7.49999989,9.50000012 L10.1191899,9.50000012 C10.2870899,9.50000012 10.4072599,9.33779012 10.3583499,9.17717012 L8.5216899,3.14565212 C8.4755399,2.99410612 8.5039399,2.82965612 8.5982399,2.70236512 C8.6925399,2.57507282 8.8415799,2.50000012 8.99999989,2.50000012 Z" transform="translate(12.000000, 12.000000) rotate(-89.999999) translate(-12.000000, -12.000000) "></path>
        </g>
    </g>
</svg>