<?xml version="1.0" encoding="UTF-8"?>
<svg width="20px" height="22px" viewBox="0 0 20 22" version="1.1" xmlns="http://www.w3.org/2000/svg" xmlns:xlink="http://www.w3.org/1999/xlink">
    <title>UI icon/flight/light</title>
    <g id="👀-Icons" stroke="none" stroke-width="1" fill="none" fill-rule="evenodd">
        <g id="Rectangle-9-(Stroke)" transform="translate(-2.000000, -1.000000)" fill="#6F767E">
            <path d="M10.3498499,4.00000013 L12.0881999,9.70869013 C12.1804999,10.0117901 12.1236999,10.3406901 11.9350999,10.5952701 C11.7464999,10.8498601 11.4484099,11.0000001 11.1315799,11.0000001 L6.99999991,11.0000001 C6.68523991,11.0000001 6.38884991,10.8518001 6.19999991,10.6000001 L4.99999991,9.00000013 L4.11802991,9.00000013 L5.39442991,11.5527901 C5.53518991,11.8343101 5.53518991,12.1657001 5.39442991,12.4472001 L4.11802991,15.0000001 L4.99999991,15.0000001 L6.19999991,13.4000001 C6.38884991,13.1482001 6.68523991,13.0000001 6.99999991,13.0000001 L11.1315799,13.0000001 C11.4484099,13.0000001 11.7464999,13.1501001 11.9350999,13.4047001 C12.1236999,13.6593001 12.1804999,13.9882001 12.0881999,14.2913001 L10.3498499,20.0000001 L10.7639299,20.0000001 C11.1426999,20.0000001 11.4889699,19.7860001 11.6583999,19.4472001 L14.6055999,13.5528001 C14.7749999,13.2140001 15.1211999,13.0000001 15.4999999,13.0000001 L19.4999999,13.0000001 C20.0522999,13.0000001 20.4999999,12.5523001 20.4999999,12.0000001 C20.4999999,11.4477101 20.0522999,11.0000001 19.4999999,11.0000001 L15.4999999,11.0000001 C15.1211999,11.0000001 14.7749999,10.7860001 14.6055999,10.4472101 L11.6583999,4.55279013 C11.4889699,4.21400013 11.1426999,4.00000013 10.7639299,4.00000013 L10.3498499,4.00000013 Z M8.99999988,2.00000013 L10.7639299,2.00000013 C11.9001999,2.00000013 12.9389999,2.64200713 13.4471999,3.65836013 L16.1179999,9.00000013 L19.4999999,9.00000013 C21.1568999,9.00000013 22.4999999,10.3431501 22.4999999,12.0000001 C22.4999999,13.6569001 21.1568999,15.0000001 19.4999999,15.0000001 L16.1179999,15.0000001 L13.4471999,20.3416001 C12.9389999,21.3580001 11.9001999,22.0000001 10.7639299,22.0000001 L8.99999988,22.0000001 C8.68316991,22.0000001 8.38507991,21.8499001 8.19647991,21.5953001 C8.00786991,21.3407001 7.95107991,21.0118001 8.04336991,20.7087001 L9.78172991,15.0000001 L7.49999988,15.0000001 L6.59999991,16.2000001 C6.22228991,16.7036001 5.62951991,17.0000001 4.99999988,17.0000001 L2.49999988,17.0000001 C2.15342291,17.0000001 1.83155691,16.8205001 1.64934991,16.5257001 C1.46714351,16.2309001 1.45057951,15.8628001 1.60557391,15.5528001 L3.38196991,12.0000001 L1.60557391,8.44721013 C1.45057951,8.13723013 1.46714351,7.76909013 1.64934991,7.47427013 C1.83155691,7.17945013 2.15342291,7.00000013 2.49999988,7.00000013 L4.99999988,7.00000013 C5.62951991,7.00000013 6.22228991,7.29639013 6.59999991,7.80000013 L7.49999988,9.00000013 L9.78172991,9.00000013 L8.04336991,3.29130013 C7.95107991,2.98821213 8.00786991,2.65931313 8.19647991,2.40472913 C8.38507991,2.15014513 8.68316991,2.00000013 8.99999988,2.00000013 Z" transform="translate(12.000000, 12.000000) rotate(-89.999999) translate(-12.000000, -12.000000) "></path>
        </g>
    </g>
</svg>