<?xml version="1.0" encoding="UTF-8"?>
<svg width="20px" height="20px" viewBox="0 0 20 20" version="1.1" xmlns="http://www.w3.org/2000/svg" xmlns:xlink="http://www.w3.org/1999/xlink">
    <title>UI icon/volume_off/filled</title>
    <g id="👀-Icons" stroke="none" stroke-width="1" fill="none" fill-rule="evenodd">
        <g id="编组" transform="translate(-2.000000, -2.000000)" fill="#6F767E">
            <g id="Subtract" transform="translate(4.000000, 2.403625)" fill-rule="nonzero">
                <path d="M4.41585,4.59636 L3,4.59636 C1.34315,4.59636 0,5.9395 0,7.59636 L0,11.5964 C0,13.2532 1.34315,14.5964 3,14.5964 L5,14.5964 L9.68299,18.694 C10.9762,19.8255 13,18.9071 13,17.1888 L13,13.1805 L4.41585,4.59636 Z" id="CE64DCA0-0413-4282-8EE6-560ABD68C050"></path>
                <path d="M13,10.3521 L13,2.00389 C13,0.285575 10.9762,-0.632782 9.68299,0.498738 L6.19695,3.54903 L13,10.3521 Z" id="4E5E0DE7-9055-4451-82D6-BFD2DFAB19BA"></path>
            </g>
            <path d="M2.29289344,2.29289344 C2.68341793,1.90236885 3.31658172,1.90236885 3.7071122,2.29289344 L21.7071246,20.2929229 C22.0976251,20.6834234 22.0976251,21.3166241 21.7071246,21.7071246 C21.3166241,22.0976251 20.6834234,22.0976251 20.2929229,21.7071246 L2.29289344,3.7071122 C1.90236885,3.31658172 1.90236885,2.68341793 2.29289344,2.29289344 Z" id="Vector-606-(Stroke)"></path>
        </g>
    </g>
</svg>