<?xml version="1.0" encoding="UTF-8"?>
<svg width="20px" height="20px" viewBox="0 0 20 20" version="1.1" xmlns="http://www.w3.org/2000/svg" xmlns:xlink="http://www.w3.org/1999/xlink">
    <title>UI icon/volume_off/light</title>
    <g id="👀-Icons" stroke="none" stroke-width="1" fill="none" fill-rule="evenodd">
        <g id="编组" transform="translate(-2.000000, -2.000000)" fill="#6F767E">
            <g id="Subtract" transform="translate(4.000000, 2.403625)" fill-rule="nonzero">
                <path d="M4.41578,4.59636 L3,4.59636 C1.34315,4.59636 0,5.9395 0,7.59636 L0,11.5964 C0,13.2532 1.34315,14.5964 3,14.5964 L5,14.5964 L9.68299,18.694 C10.9762,19.8255 13,18.9071 13,17.1888 L13,13.1806 L11,11.1806 L11,17.1888 L6.31701,13.0912 C5.95243,12.7722 5.48445,12.5964 5,12.5964 L3,12.5964 C2.44772,12.5964 2,12.1486 2,11.5964 L2,7.59636 C2,7.04407 2.44772,6.59636 3,6.59636 L5,6.59636 C5.38959,6.59636 5.76853,6.48264 6.09161,6.27218 L4.41578,4.59636 Z" id="4A27121A-34D9-4C2B-9E52-2965ABDDA20D"></path>
                <path d="M11,8.35214 L11,2.00389 L7.61427,4.96641 L6.19691,3.54906 L9.68299,0.498738 C10.9762,-0.632782 13,0.285575 13,2.00389 L13,10.3521 L11,8.35214 Z" id="E7E85210-5057-4521-9756-8ADE49EBBFE4"></path>
            </g>
            <path d="M2.29289344,2.29289344 C2.68341793,1.90236885 3.31658172,1.90236885 3.7071122,2.29289344 L21.7071246,20.2929229 C22.0976251,20.6834234 22.0976251,21.3166241 21.7071246,21.7071246 C21.3166241,22.0976251 20.6834234,22.0976251 20.2929229,21.7071246 L2.29289344,3.7071122 C1.90236885,3.31658172 1.90236885,2.68341793 2.29289344,2.29289344 Z" id="Vector-606-(Stroke)"></path>
        </g>
    </g>
</svg>