<?xml version="1.0" encoding="UTF-8"?>
<svg width="20px" height="18px" viewBox="0 0 20 18" version="1.1" xmlns="http://www.w3.org/2000/svg" xmlns:xlink="http://www.w3.org/1999/xlink">
    <title>UI icon/shuffle/filled</title>
    <g id="👀-Icons" stroke="none" stroke-width="1" fill="none" fill-rule="evenodd">
        <g id="编组" transform="translate(-2.000000, -3.000000)" fill="#6F767E" fill-rule="nonzero">
            <g id="Union">
                <path d="M17.7929269,3.79295018 C18.1834276,3.40242809 18.8166287,3.40243189 19.2071293,3.79295818 L21.352033,5.93791173 C21.937834,6.52369188 21.937834,7.47343212 21.352033,8.05922227 L19.2071293,10.2041828 C18.8166287,10.5947129 18.1834276,10.5947229 17.7929269,10.2042028 C17.4024263,9.81368271 17.4024263,9.18051255 17.7929269,8.78998245 L18.5866283,7.99621225 L16.2648243,7.99621225 C15.2110225,7.99621225 14.2345209,8.54911239 13.6923199,9.45273262 L12.1639173,12.0000033 L13.6923199,14.5472639 C14.2345209,15.4508641 15.2110225,16.0037643 16.2648243,16.0037643 L18.5867283,16.0037643 L17.7929269,15.2099641 C17.4024263,14.819464 17.4024263,14.1862638 17.7929269,13.7957637 C18.1834276,13.4052536 18.8166287,13.4052536 19.2071293,13.7957637 L21.352033,15.9406643 C21.937834,16.5264644 21.937834,17.4762647 21.352033,18.0620648 L19.2071293,20.2069654 C18.8166287,20.5974655 18.1834276,20.5975655 17.7929269,20.2069654 C17.4024263,19.8164653 17.4024263,19.1832651 17.7929269,18.792765 L18.5819283,18.0037648 L16.2648243,18.0037648 C14.5084213,18.0037648 12.8809186,17.0822646 11.977317,15.5762642 L10.9977453,13.9436638 L10.0227137,15.5686642 C9.11910214,17.0747646 7.49155936,17.9962648 5.73524637,17.9962648 L3,17.9962648 C2.44771576,17.9962648 2,17.5484647 2,16.9962645 C2,16.4439644 2.44771576,15.9962643 3,15.9962643 L5.73524637,15.9962643 C6.78903817,15.9962643 7.76555983,15.4433641 8.30773075,14.5396639 L9.83155335,12.0000033 L8.30773075,9.46030262 C7.76555983,8.55668239 6.78903817,8.00378225 5.73524637,8.00378225 L3,8.00378225 C2.44771576,8.00378225 2,7.55607214 2,7.003782 C2,6.45150186 2.44771576,6.00378175 3,6.00378175 L5.73524637,6.00378175 C7.49155936,6.00378175 9.11910214,6.92528198 10.0227137,8.43130236 L10.9977453,10.0563528 L11.977317,8.42374236 C12.8809186,6.91771198 14.5084213,5.99621174 16.2648243,5.99621174 L18.5819283,5.99621174 L17.7929269,5.20716154 C17.4024263,4.81664144 17.4024263,4.18347228 17.7929269,3.79295018 Z"></path>
            </g>
        </g>
    </g>
</svg>