<?xml version="1.0" encoding="UTF-8"?>
<svg width="20px" height="18px" viewBox="0 0 20 18" version="1.1" xmlns="http://www.w3.org/2000/svg" xmlns:xlink="http://www.w3.org/1999/xlink">
    <title>UI icon/shuffle/light</title>
    <g id="👀-Icons" stroke="none" stroke-width="1" fill="none" fill-rule="evenodd">
        <g id="编组" transform="translate(-2.000000, -3.000000)" fill="#6F767E" fill-rule="nonzero">
            <g id="Union">
                <path d="M19.2071194,3.7929572 C18.8166189,3.40243222 18.1834182,3.40242842 17.7929178,3.7929492 C17.4024174,4.18346998 17.4024174,4.816637 17.7929178,5.20715578 L18.5819187,5.99620331 L15.7081154,5.99620331 C13.6636131,5.99620331 11.8250711,7.24095942 11.0657602,9.13924349 L9.07730797,14.110328 C8.62171746,15.2493244 7.51858622,15.9962221 6.29187484,15.9962221 L3,15.9962221 C2.4477155,15.9962221 2,16.4439207 2,16.9962189 C2,17.5484172 2.4477155,17.9962158 3,17.9962158 L6.29187484,17.9962158 C8.33639714,17.9962158 10.1749492,16.7514197 10.9342601,14.8531256 L12.9227123,9.88202117 C13.3783128,8.74305473 14.4814141,7.99619706 15.7081154,7.99619706 L18.5866187,7.99619706 L17.7929178,8.78996458 C17.4024174,9.18049336 17.4024174,9.81366138 17.7929178,10.2041802 C18.1834182,10.5946989 18.8166189,10.5946889 19.2071194,10.2041602 L21.3520218,8.05920687 C21.9378225,7.4734187 21.9378225,6.52368166 21.3520218,5.93790349 L19.2071194,3.7929572 Z"></path>
                <path d="M12.9227186,14.117977 C13.3783194,15.2569602 14.4814213,16.0038123 15.7081234,16.0038123 L18.5866283,16.0038123 L17.7929269,15.2101401 C17.4024263,14.819619 17.4024263,14.1864472 17.7929269,13.7959261 C18.1834276,13.405395 18.8166287,13.405395 19.2071293,13.7959161 L21.352033,15.9408522 C21.937834,16.5266138 21.937834,17.4764165 21.352033,18.0622181 L19.2071293,20.2071242 C18.8166287,20.5976253 18.1834276,20.5976253 17.7929269,20.2071242 C17.4024263,19.8166231 17.4024263,19.1834213 17.7929269,18.7929202 L18.5820283,18.003818 L15.7081234,18.003818 C13.6636199,18.003818 11.8250768,16.7590145 11.0657655,14.8607591 L9.07731207,9.88962512 C8.62172129,8.75064191 7.51858941,8.00378418 6.29187732,8.00378418 L3,8.00378418 C2.44771576,8.00378418 2,7.55607855 2,7.00378418 C2,6.45150044 2.44771576,6.00378418 3,6.00378418 L6.29187732,6.00378418 C8.3364008,6.00378418 10.1749539,7.24853768 10.9342652,9.14684303 L12.9227186,14.117977 Z"></path>
            </g>
        </g>
    </g>
</svg>