<?xml version="1.0" encoding="UTF-8"?>
<svg width="20px" height="16px" viewBox="0 0 20 16" version="1.1" xmlns="http://www.w3.org/2000/svg" xmlns:xlink="http://www.w3.org/1999/xlink">
    <title>UI icon/vector/filled</title>
    <g id="👀-Icons" stroke="none" stroke-width="1" fill="none" fill-rule="evenodd">
        <g id="编组" transform="translate(-2.000000, -4.000000)" fill="#6F767E" fill-rule="nonzero">
            <g id="Union">
                <path d="M11,4 C9.89543,4 9,4.89543 9,6 L5.73244,6 C5.38663,5.4022 4.74028,5 4,5 C2.895431,5 2,5.89543 2,7 C2,8.10457 2.895431,9 4,9 C4.74028,9 5.38663,8.5978 5.73244,8 L7.10102,8 C5.80447,9.27052 5,11.04131 5,13 L5,14 C3.89543,14 3,14.8954 3,16 L3,18 C3,19.1046 3.89543,20 5,20 L7,20 C8.10457,20 9,19.1046 9,18 L9,16 C9,14.8954 8.10457,14 7,14 L7,13 C7,11.27854 7.86997,9.76026 9.19423,8.86085 C9.51597,9.53455 10.20363,10 11,10 L13,10 C13.7964,10 14.484,9.53455 14.8058,8.86085 C16.13,9.76026 17,11.27854 17,13 L17,14 C15.8954,14 15,14.8954 15,16 L15,18 C15,19.1046 15.8954,20 17,20 L19,20 C20.1046,20 21,19.1046 21,18 L21,16 C21,14.8954 20.1046,14 19,14 L19,13 C19,11.04131 18.1955,9.27052 16.899,8 L18.2676,8 C18.6134,8.5978 19.2597,9 20,9 C21.1046,9 22,8.10457 22,7 C22,5.89543 21.1046,5 20,5 C19.2597,5 18.6134,5.4022 18.2676,6 L15,6 C15,4.895431 14.1046,4 13,4 L11,4 Z"></path>
            </g>
        </g>
    </g>
</svg>