<?xml version="1.0" encoding="UTF-8"?>
<svg width="20px" height="16px" viewBox="0 0 20 16" version="1.1" xmlns="http://www.w3.org/2000/svg" xmlns:xlink="http://www.w3.org/1999/xlink">
    <title>UI icon/vector/light</title>
    <g id="👀-Icons" stroke="none" stroke-width="1" fill="none" fill-rule="evenodd">
        <g id="Union" transform="translate(-2.000000, -4.000000)" fill="#6F767E">
            <path d="M5.73244,6 L9,6 C9,4.89543 9.89543,4 11,4 L13,4 C14.1046,4 15,4.895431 15,6 L18.2676,6 C18.6134,5.4022 19.2597,5 20,5 C21.1046,5 22,5.89543 22,7 C22,8.10457 21.1046,9 20,9 C19.2597,9 18.6134,8.5978 18.2676,8 L16.899,8 C18.1956,9.27051 19,11.04129 19,12.99995 L19,14 C20.1046,14 21,14.8954 21,16 L21,18 C21,19.1046 20.1046,20 19,20 L17,20 C15.8954,20 15,19.1046 15,18 L15,16 C15,14.8954 15.8954,14 17,14 L17,12.99995 C17,11.27849 16.13,9.76023 14.8058,8.86081 C14.484,9.53453 13.7964,10 13,10 L11,10 C10.20362,10 9.51595,9.53453 9.19421,8.86081 C7.86996,9.76023 7,11.2785 7,12.99995 L7,14 C8.10457,14 9,14.8954 9,16 L9,18 C9,19.1046 8.10457,20 7,20 L5,20 C3.89543,20 3,19.1046 3,18 L3,16 C3,14.8954 3.89543,14 5,14 L5,12.99995 C5,11.04129 5.80445,9.27051 7.10097,8 L5.73244,8 C5.38663,8.5978 4.74028,9 4,9 C2.895431,9 2,8.10457 2,7 C2,5.89543 2.895431,5 4,5 C4.74028,5 5.38663,5.4022 5.73244,6 Z M13,6 L11,6 L11,8 L13,8 L13,6 Z M7,16 L5,16 L5,18 L7,18 L7,16 Z M17,16 L19,16 L19,18 L17,18 L17,16 Z"></path>
        </g>
    </g>
</svg>