<?xml version="1.0" encoding="UTF-8"?>
<svg width="20px" height="14px" viewBox="0 0 20 14" version="1.1" xmlns="http://www.w3.org/2000/svg" xmlns:xlink="http://www.w3.org/1999/xlink">
    <title>UI icon/toggle_off/filled</title>
    <g id="👀-Icons" stroke="none" stroke-width="1" fill="none" fill-rule="evenodd">
        <g id="编组" transform="translate(-2.000000, -5.000000)" fill="#6F767E">
            <path d="M2,12 C2,8.13401 5.13401,5 9,5 L15,5 C18.866,5 22,8.13401 22,12 C22,15.866 18.866,19 15,19 L9,19 C5.13401,19 2,15.866 2,12 Z M9,7 C6.23858,7 4,9.23858 4,12 C4,14.76142 6.23858,17 9,17 L15,17 C17.7614,17 20,14.76142 20,12 C20,9.23858 17.7614,7 15,7 L9,7 Z" id="Rectangle-259-(Stroke)"></path>
            <path d="M9,8.5 C7.067,8.5 5.5,10.067 5.5,12 C5.5,13.933 7.067,15.5 9,15.5 C10.933,15.5 12.5,13.933 12.5,12 C12.5,10.067 10.933,8.5 9,8.5 Z" id="Union" fill-rule="nonzero"></path>
        </g>
    </g>
</svg>