<?xml version="1.0" encoding="UTF-8"?>
<svg width="18px" height="20px" viewBox="0 0 18 20" version="1.1" xmlns="http://www.w3.org/2000/svg" xmlns:xlink="http://www.w3.org/1999/xlink">
    <title>UI icon/receipt/filled</title>
    <g id="👀-Icons" stroke="none" stroke-width="1" fill="none" fill-rule="evenodd">
        <g id="Subtract" transform="translate(-3.000000, -2.000000)" fill="#6F767E">
            <path d="M8.6,21.5500178 L10,20.5000178 L11.4,21.5500178 C11.75556,21.8166178 12.24444,21.8166178 12.6,21.5500178 L14,20.5000178 L15.4,21.5500178 C15.7556,21.8166178 16.2444,21.8166178 16.6,21.5500178 L18,20.5000178 L19.3598,21.6331177 C20.0111,22.1759178 21,21.7128178 21,20.8649178 L21,3.13502776 C21,2.28719176 20.0111,1.82403576 19.3598,2.36680876 L18,3.49998776 L16.6,2.44998776 C16.2444,2.18332136 15.7556,2.18332136 15.4,2.44998776 L14,3.49998776 L12.6,2.44998776 C12.24444,2.18332136 11.75556,2.18332136 11.4,2.44998776 L10,3.49998776 L8.6,2.44998776 C8.24444,2.18332136 7.75556,2.18332136 7.4,2.44998776 L6,3.49998776 L4.64018,2.36680776 C3.988856,1.82403476 3,2.28719176 3,3.13502776 L3,20.8649178 C3,21.7128178 3.988856,22.1759178 4.64018,21.6332178 L6,20.5000178 L7.4,21.5500178 C7.75556,21.8166178 8.24444,21.8166178 8.6,21.5500178 Z M7,9.99999776 C7,9.44771776 7.44772,8.99999776 8,8.99999776 L16,8.99999776 C16.5523,8.99999776 17,9.44771776 17,9.99999776 C17,10.5522878 16.5523,10.9999978 16,10.9999978 L8,10.9999978 C7.44772,10.9999978 7,10.5522878 7,9.99999776 Z M8,13.0000178 C7.44772,13.0000178 7,13.4477178 7,14.0000178 C7,14.5523178 7.44772,15.0000178 8,15.0000178 L12,15.0000178 C12.55228,15.0000178 13,14.5523178 13,14.0000178 C13,13.4477178 12.55228,13.0000178 12,13.0000178 L8,13.0000178 Z"></path>
        </g>
    </g>
</svg>