<?xml version="1.0" encoding="UTF-8"?>
<svg width="18px" height="20px" viewBox="0 0 18 20" version="1.1" xmlns="http://www.w3.org/2000/svg" xmlns:xlink="http://www.w3.org/1999/xlink">
    <title>UI icon/receipt/light</title>
    <g id="👀-Icons" stroke="none" stroke-width="1" fill="none" fill-rule="evenodd">
        <g id="编组" transform="translate(-3.000000, -2.000000)" fill="#6F767E">
            <path d="M5,18.7677299 C5.68376,18.3726299 6.55101,18.4132299 7.2,18.9000299 L8,19.5000299 L8.8,18.9000299 C9.51111,18.3666299 10.48889,18.3666299 11.2,18.9000299 L12,19.5000299 L12.8,18.9000299 C13.5111,18.3666299 14.4889,18.3666299 15.2,18.9000299 L16,19.5000299 L16.8,18.9000299 C17.449,18.4132299 18.3162,18.3726299 19,18.7677299 L19,5.23222992 C18.3162,5.62737992 17.449,5.58673992 16.8,5.09999992 L16,4.49999992 L15.2,5.09999992 C14.4889,5.63332992 13.5111,5.63332992 12.8,5.09999992 L12,4.49999992 L11.2,5.09999992 C10.48889,5.63332992 9.51111,5.63332992 8.8,5.09999992 L8,4.49999992 L7.2,5.09999992 C6.55101,5.58673992 5.68376,5.62737992 5,5.23222992 L5,18.7677299 Z M10,3.49999992 L8.6,2.44999992 C8.24444,2.18333352 7.75556,2.18333352 7.4,2.44999992 L6,3.49999992 L4.64018,2.36681992 C3.988856,1.82404692 3,2.28720392 3,3.13503992 L3,20.8649299 C3,21.7128299 3.988856,22.1759299 4.64018,21.6332299 L6,20.5000299 L7.4,21.5500299 C7.75556,21.8166299 8.24444,21.8166299 8.6,21.5500299 L10,20.5000299 L11.4,21.5500299 C11.75556,21.8166299 12.24444,21.8166299 12.6,21.5500299 L14,20.5000299 L15.4,21.5500299 C15.7556,21.8166299 16.2444,21.8166299 16.6,21.5500299 L18,20.5000299 L19.3598,21.6331298 C20.0111,22.1759299 21,21.7128299 21,20.8649299 L21,3.13503992 C21,2.28720392 20.0111,1.82404792 19.3598,2.36682092 L18,3.49999992 L16.6,2.44999992 C16.2444,2.18333352 15.7556,2.18333352 15.4,2.44999992 L14,3.49999992 L12.6,2.44999992 C12.24444,2.18333352 11.75556,2.18333352 11.4,2.44999992 L10,3.49999992 Z" id="Vector-(Stroke)"></path>
            <path d="M7,10 C7,9.447715 7.447715,9 8,9 L16,9 C16.55229,9 17,9.447715 17,10 C17,10.55228 16.55229,11 16,11 L8,11 C7.447715,11 7,10.55228 7,10 Z" id="Vector-605-(Stroke)"></path>
            <path d="M7,14 C7,13.447715 7.447715,13 8,13 L12,13 C12.55228,13 13,13.447715 13,14 C13,14.55228 12.55228,15 12,15 L8,15 C7.447715,15 7,14.55228 7,14 Z" id="Vector-607-(Stroke)"></path>
        </g>
    </g>
</svg>