<?xml version="1.0" encoding="UTF-8"?>
<svg width="18px" height="12px" viewBox="0 0 18 12" version="1.1" xmlns="http://www.w3.org/2000/svg" xmlns:xlink="http://www.w3.org/1999/xlink">
    <title>UI icon/list/light</title>
    <g id="👀-Icons" stroke="none" stroke-width="1" fill="none" fill-rule="evenodd">
        <g id="UI-icon/list/light" transform="translate(-3.000000, -6.000000)" fill="#6F767E">
            <path d="M7,7 C7,6.447715 7.447715,6 8,6 L20,6 C20.5523,6 21,6.447715 21,7 C21,7.55228 20.5523,8 20,8 L8,8 C7.447715,8 7,7.55228 7,7 Z" id="Vector-567-(Stroke)"></path>
            <path d="M7,12 C7,11.447715 7.447715,11 8,11 L20,11 C20.5523,11 21,11.447715 21,12 C21,12.55228 20.5523,13 20,13 L8,13 C7.447715,13 7,12.55228 7,12 Z" id="Vector-568-(Stroke)"></path>
            <path d="M7,17 C7,16.447715 7.447715,16 8,16 L20,16 C20.5523,16 21,16.447715 21,17 C21,17.55228 20.5523,18 20,18 L8,18 C7.447715,18 7,17.55228 7,17 Z" id="Vector-569-(Stroke)"></path>
            <path d="M5,7 C5,7.55228 4.55228,8 4,8 C3.44772,8 3,7.55228 3,7 C3,6.44771 3.44772,6 4,6 C4.55228,6 5,6.44771 5,7 Z" id="Ellipse-180" fill-rule="nonzero"></path>
            <path d="M5,12 C5,12.55228 4.55228,13 4,13 C3.44772,13 3,12.55228 3,12 C3,11.44772 3.44772,11 4,11 C4.55228,11 5,11.44772 5,12 Z" id="Ellipse-181" fill-rule="nonzero"></path>
            <path d="M5,17 C5,17.55228 4.55228,18 4,18 C3.44772,18 3,17.55228 3,17 C3,16.44771 3.44772,16 4,16 C4.55228,16 5,16.44771 5,17 Z" id="Ellipse-182" fill-rule="nonzero"></path>
        </g>
    </g>
</svg>