<?xml version="1.0" encoding="UTF-8"?>
<svg width="20px" height="20px" viewBox="0 0 20 20" version="1.1" xmlns="http://www.w3.org/2000/svg" xmlns:xlink="http://www.w3.org/1999/xlink">
    <title>UI icon/compass/filled</title>
    <g id="👀-Icons" stroke="none" stroke-width="1" fill="none" fill-rule="evenodd">
        <g id="Subtract" transform="translate(-2.000000, -2.000000)" fill="#6F767E">
            <path d="M22,12 C22,17.5228 17.5228,22 12,22 C6.47715,22 2,17.5228 2,12 C2,6.47715 6.47715,2 12,2 C17.5228,2 22,6.47715 22,12 Z M15.7808,6.9138 L10.27056,9.18271 C9.77739,9.38577 9.38577,9.7774 9.1827,10.27056 L6.91379,15.7808 C6.57535,16.6027 7.39728,17.4246 8.21922,17.0862 L13.7294,14.8173 C14.2226,14.6142 14.6142,14.2226 14.8173,13.7294 L17.0862,8.21923 C17.4246,7.39729 16.6027,6.57535 15.7808,6.9138 Z"></path>
        </g>
    </g>
</svg>