<?xml version="1.0" encoding="UTF-8"?>
<svg width="20px" height="20px" viewBox="0 0 20 20" version="1.1" xmlns="http://www.w3.org/2000/svg" xmlns:xlink="http://www.w3.org/1999/xlink">
    <title>UI icon/compass/light</title>
    <g id="👀-Icons" stroke="none" stroke-width="1" fill="none" fill-rule="evenodd">
        <g id="编组" transform="translate(-2.000000, -2.000000)" fill="#6F767E">
            <path d="M12,20 C16.4183,20 20,16.4183 20,12 C20,7.58172 16.4183,4 12,4 C7.58172,4 4,7.58172 4,12 C4,16.4183 7.58172,20 12,20 Z M22,12 C22,17.5228 17.5228,22 12,22 C6.47715,22 2,17.5228 2,12 C2,6.47715 6.47715,2 12,2 C17.5228,2 22,6.47715 22,12 Z" id="Oval-(Stroke)"></path>
            <path d="M14.0823998,9.9175998 L11.0534598,11.0534598 L9.9175998,14.0823998 L12.9465498,12.9465498 L14.0823998,9.9175998 Z M15.4400798,7.2724716 L10.3512098,9.1807998 C9.8103598,9.3836098 9.3836098,9.8103598 9.1807998,10.3512098 L7.2724715,15.4400798 C6.9710138,16.2439598 7.7560378,17.0289898 8.5599198,16.7275298 L13.6487898,14.8191998 C14.1896398,14.6163898 14.6163898,14.1896398 14.8191998,13.6487898 L16.7275298,8.5599198 C17.0289898,7.7560368 16.2439598,6.9710138 15.4400798,7.2724716 Z" id="Vector-209-(Stroke)"></path>
        </g>
    </g>
</svg>