<?xml version="1.0" encoding="UTF-8"?>
<svg width="20px" height="18px" viewBox="0 0 20 18" version="1.1" xmlns="http://www.w3.org/2000/svg" xmlns:xlink="http://www.w3.org/1999/xlink">
    <title>UI icon/folder_add/filled</title>
    <g id="👀-Icons" stroke="none" stroke-width="1" fill="none" fill-rule="evenodd">
        <g id="Subtract" transform="translate(-2.000000, -3.000000)" fill="#6F767E">
            <path d="M22,18 C22,19.6569 20.6569,21 19,21 L5,21 C3.34315,21 2,19.6569 2,18 L2,6 C2,4.34315 3.34315,3 5,3 L7.75736,3 C8.55301,3 9.31607,3.316071 9.87868,3.87868 L11,5 L19,5 C20.6569,5 22,6.34315 22,8 L22,18 Z M12,9 C12.5523,9 13,9.44772 13,10 L13,12 L15,12 C15.5523,12 16,12.44772 16,13 C16,13.5523 15.5523,14 15,14 L13,14 L13,16 C13,16.5523 12.5523,17 12,17 C11.44771,17 11,16.5523 11,16 L11,14 L9,14 C8.44772,14 8,13.5523 8,13 C8,12.44772 8.44772,12 9,12 L11,12 L11,10 C11,9.44772 11.44772,9 12,9 Z"></path>
        </g>
    </g>
</svg>