<?xml version="1.0" encoding="UTF-8"?>
<svg width="20px" height="18px" viewBox="0 0 20 18" version="1.1" xmlns="http://www.w3.org/2000/svg" xmlns:xlink="http://www.w3.org/1999/xlink">
    <title>UI icon/folder_add/light</title>
    <g id="👀-Icons" stroke="none" stroke-width="1" fill="none" fill-rule="evenodd">
        <g id="编组" transform="translate(-2.000000, -3.000000)" fill="#6F767E">
            <path d="M13,10 C13,9.447715 12.55228,9 12,9 C11.44772,9 11,9.447715 11,10 L11,12 L9,12 C8.447715,12 8,12.44772 8,13 C8,13.55228 8.447715,14 9,14 L11,14 L11,16 C11,16.55228 11.44771,17 12,17 C12.55228,17 13,16.55228 13,16 L13,14 L15,14 C15.55228,14 16,13.55228 16,13 C16,12.44772 15.55228,12 15,12 L13,12 L13,10 Z" id="Union" fill-rule="nonzero"></path>
            <path d="M11,7 C10.46957,7 9.96086,6.78929 9.58579,6.41421 L8.46447,5.29289 C8.27693,5.10536 8.02258,5 7.75736,5 L5,5 C4.44772,5 4,5.44772 4,6 L4,18 C4,18.5523 4.44772,19 5,19 L19,19 C19.5523,19 20,18.5523 20,18 L20,8 C20,7.44772 19.5523,7 19,7 L11,7 Z M11,5 L19,5 C20.6569,5 22,6.34315 22,8 L22,18 C22,19.6569 20.6569,21 19,21 L5,21 C3.34315,21 2,19.6569 2,18 L2,6 C2,4.34315 3.34315,3 5,3 L7.75736,3 C8.55301,3 9.31607,3.316071 9.87868,3.87868 L11,5 Z" id="Rectangle-205-(Stroke)"></path>
        </g>
    </g>
</svg>