<?xml version="1.0" encoding="UTF-8"?>
<svg width="19px" height="19px" viewBox="0 0 19 19" version="1.1" xmlns="http://www.w3.org/2000/svg" xmlns:xlink="http://www.w3.org/1999/xlink">
    <title>UI icon/phone_call_outgoing/filled</title>
    <g id="👀-Icons" stroke="none" stroke-width="1" fill="none" fill-rule="evenodd">
        <g id="编组" transform="translate(-2.000000, -2.000000)" fill="#6F767E" fill-rule="nonzero">
            <g>
                <path d="M2.49083475,8.70887632 C1.3875108,6.49466806 2.50075275,4.05101998 4.62207857,2.77822597 C5.64340944,2.16542946 6.96339057,2.43137385 7.66774118,3.39185149 L9.23040251,5.52275882 C9.89551308,6.42971811 9.99745317,7.63251717 9.49447274,8.63848638 L9.08474239,9.45793573 C8.96613229,9.69515555 8.94738227,9.96956533 9.06871238,10.2053951 C9.28975257,10.6350648 9.76047297,11.3964942 10.6672637,12.3032935 C11.5740645,13.2100428 12.3355152,13.6808424 12.7652155,13.9018422 C13.0010157,14.0231422 13.275416,14.0044422 13.5126162,13.8858423 L14.3321169,13.4760426 C15.3380177,12.973143 16.5408188,13.0750429 17.4478195,13.7401424 L19.5787214,15.3028411 C20.5392222,16.0071406 20.8051224,17.3271396 20.1923219,18.3484388 C18.9195208,20.4698371 16.4759187,21.5830362 14.2617168,20.4797371 C12.3955152,19.5498378 10.0109032,18.010839 7.48528102,15.485241 C4.95966886,12.959643 3.42071754,10.5750049 2.49083475,8.70887632 Z" id="Rectangle-158"></path>
                <path d="M16,3.5 C15.4477201,3.5 15,3.947715 15,4.5 C15,5.05228 15.4477201,5.5 16,5.5 L17.08579,5.5 L14.2928931,8.29289 C13.902369,8.68342 13.902369,9.31658 14.2928931,9.70711 C14.6834171,10.09763 15.3165801,10.09763 15.7071101,9.70711 L18.5,6.91421 L18.5,8 C18.5,8.55228 18.94772,9 19.5,9 C20.05229,9 20.5,8.55228 20.5,8 L20.5,5.5 C20.5,4.395431 19.60457,3.5 18.5,3.5 L16,3.5 Z" id="Union"></path>
            </g>
        </g>
    </g>
</svg>