<?xml version="1.0" encoding="UTF-8"?>
<svg width="16px" height="19px" viewBox="0 0 16 19" version="1.1" xmlns="http://www.w3.org/2000/svg" xmlns:xlink="http://www.w3.org/1999/xlink">
    <title>UI icon/arrow_down/light</title>
    <g id="👀-Icons" stroke="none" stroke-width="1" fill="none" fill-rule="evenodd">
        <g id="编组" transform="translate(-4.000000, -3.000000)" fill="#6F767E" fill-rule="nonzero">
            <g id="UI-icon/arrow_down/light">
                <path d="M13.0000142,4 C13.0000142,3.44771591 12.5523035,3 12.0000125,3 C11.4477316,3 11.0000109,3.44771591 11.0000109,4 L11.0000109,18.0858307 L6.20711291,13.292921 C5.81658226,12.9023902 5.18341821,12.9023902 4.79289356,13.292921 C4.40236881,13.6834217 4.40236881,14.316623 4.79289356,14.7071238 L10.5858002,20.5000356 C11.3668415,21.2810372 12.6331736,21.2810372 13.4142249,20.5000356 L19.2071245,14.7071238 C19.5976252,14.316623 19.5976252,13.6834217 19.2071245,13.292921 C18.8166239,12.9023902 18.1834228,12.9023902 17.7929222,13.292921 L13.0000142,18.0858307 L13.0000142,4 Z" id="Union"></path>
            </g>
        </g>
    </g>
</svg>