<?xml version="1.0" encoding="UTF-8"?>
<svg width="20px" height="20px" viewBox="0 0 20 20" version="1.1" xmlns="http://www.w3.org/2000/svg" xmlns:xlink="http://www.w3.org/1999/xlink">
    <title>UI icon/shopping_bag/filled</title>
    <g id="👀-Icons" stroke="none" stroke-width="1" fill="none" fill-rule="evenodd">
        <g id="Union" transform="translate(-2.000000, -2.000000)" fill="#6F767E">
            <path d="M11.9999992,2 C9.79085924,2 7.99999924,3.79086 7.99999924,6 L6.64838924,6 C5.13541924,6 3.85921924,7.12661 3.67155924,8.6279 L2.42155764,18.6279 C2.19773724,20.4185 3.59389924,22 5.39838924,22 L18.6016492,22 C20.4061492,22 21.8023492,20.4185 21.5785492,18.6279 L20.3285492,8.6279 C20.1408492,7.12661 18.8646492,6 17.3516492,6 L16.0000492,6 C16.0000492,3.79086 14.2091492,2 11.9999992,2 Z M14.0000492,6 C14.0000492,4.89543 13.1045492,4 11.9999992,4 C10.8954292,4 9.99999924,4.89543 9.99999924,6 L14.0000492,6 Z"></path>
        </g>
    </g>
</svg>