<?xml version="1.0" encoding="UTF-8"?>
<svg width="20px" height="20px" viewBox="0 0 20 20" version="1.1" xmlns="http://www.w3.org/2000/svg" xmlns:xlink="http://www.w3.org/1999/xlink">
    <title>UI icon/shopping_bag/light</title>
    <g id="👀-Icons" stroke="none" stroke-width="1" fill="none" fill-rule="evenodd">
        <g id="Union" transform="translate(-2.000000, -2.000000)" fill="#6F767E">
            <path d="M11.9999982,2 C9.79085821,2 7.99999821,3.79086 7.99999821,6 L6.64832821,6 C5.13535821,6 3.85915821,7.12661 3.67149821,8.6279 L2.42149661,18.6279 C2.19767621,20.4185 3.59383821,22 5.39832821,22 L18.6015882,22 C20.4060882,22 21.8022882,20.4185 21.5784882,18.6279 L20.3284882,8.6279 C20.1407882,7.12661 18.8645882,6 17.3515882,6 L15.9999882,6 C15.9999882,3.79086 14.2091882,2 11.9999982,2 Z M13.9999882,8 L13.9999882,9 C13.9999882,9.55228 14.4476882,10 14.9999882,10 C15.5522882,10 15.9999882,9.55228 15.9999882,9 L15.9999882,8 L17.3515882,8 C17.8559882,8 18.2813882,8.37554 18.3438882,8.87597 L19.5938882,18.876 C19.6684882,19.4728 19.2030882,20 18.6015882,20 L5.39832821,20 C4.79682821,20 4.33144821,19.4728 4.40604821,18.876 L5.65604821,8.87597 C5.71860821,8.37554 6.14400821,8 6.64832821,8 L7.99999821,8 L7.99999821,9 C7.99999821,9.55228 8.44771821,10 8.99999821,10 C9.55228821,10 9.99999821,9.55228 9.99999821,9 L9.99999821,8 L13.9999882,8 Z M13.9999882,6 C13.9999882,4.89543 13.1045882,4 11.9999982,4 C10.8954282,4 9.99999821,4.89543 9.99999821,6 L13.9999882,6 Z"></path>
        </g>
    </g>
</svg>