<?xml version="1.0" encoding="UTF-8"?>
<svg width="18px" height="16px" viewBox="0 0 18 16" version="1.1" xmlns="http://www.w3.org/2000/svg" xmlns:xlink="http://www.w3.org/1999/xlink">
    <title>UI icon/tune/filled</title>
    <g id="👀-Icons" stroke="none" stroke-width="1" fill="none" fill-rule="evenodd">
        <g id="编组" transform="translate(-3.000000, -4.000000)" fill="#6F767E">
            <path d="M3,7 C3,6.447715 3.447715,6 4,6 L20,6 C20.5523,6 21,6.447715 21,7 C21,7.55228 20.5523,8 20,8 L4,8 C3.447715,8 3,7.55228 3,7 Z" id="Vector-390-(Stroke)"></path>
            <path d="M3,17 C3,16.447715 3.447715,16 4,16 L20,16 C20.5523,16 21,16.447715 21,17 C21,17.55228 20.5523,18 20,18 L4,18 C3.447715,18 3,17.55228 3,17 Z" id="Vector-392-(Stroke)"></path>
            <path d="M10,20 C11.65685,20 13,18.65685 13,17 C13,15.34315 11.65685,14 10,14 C8.34315,14 7,15.34315 7,17 C7,18.65685 8.34315,20 10,20 Z" id="Oval-Copy"></path>
            <path d="M14,10 C15.65685,10 17,8.65685 17,7 C17,5.34315 15.65685,4 14,4 C12.34315,4 11,5.34315 11,7 C11,8.65685 12.34315,10 14,10 Z" id="Oval"></path>
        </g>
    </g>
</svg>