<?xml version="1.0" encoding="UTF-8"?>
<svg width="18px" height="18px" viewBox="0 0 18 18" version="1.1" xmlns="http://www.w3.org/2000/svg" xmlns:xlink="http://www.w3.org/1999/xlink">
    <title>UI icon/tune/light</title>
    <g id="👀-Icons" stroke="none" stroke-width="1" fill="none" fill-rule="evenodd">
        <g id="Union" transform="translate(-3.000000, -3.000000)" fill="#6F767E">
            <path d="M6.12602,18 L4,18 C3.447715,18 3,17.55228 3,17 C3,16.44772 3.447715,16 4,16 L6.12602,16 C6.57006,14.27477 8.13616,13 10,13 C11.86384,13 13.4299,14.27477 13.874,16 L20,16 C20.5523,16 21,16.44772 21,17 C21,17.55228 20.5523,18 20,18 L13.874,18 C13.4299,19.72523 11.86384,21 10,21 C8.13616,21 6.57006,19.72523 6.12602,18 Z M8,17 C8,15.89543 8.89543,15 10,15 C11.10457,15 12,15.89543 12,17 C12,18.10457 11.10457,19 10,19 C8.89543,19 8,18.10457 8,17 Z"></path>
            <path d="M10.12602,8 L4,8 C3.447715,8 3,7.55228 3,7 C3,6.44772 3.447715,6 4,6 L10.12602,6 C10.57006,4.27477 12.13616,3 14,3 C15.8638,3 17.4299,4.27477 17.874,6 L20,6 C20.5523,6 21,6.44772 21,7 C21,7.55228 20.5523,8 20,8 L17.874,8 C17.4299,9.72523 15.8638,11 14,11 C12.13616,11 10.57006,9.72523 10.12602,8 Z M12,7 C12,5.89543 12.89543,5 14,5 C15.1046,5 16,5.89543 16,7 C16,8.10457 15.1046,9 14,9 C12.89543,9 12,8.10457 12,7 Z"></path>
        </g>
    </g>
</svg>