<?xml version="1.0" encoding="UTF-8"?>
<svg width="20px" height="20px" viewBox="0 0 20 20" version="1.1" xmlns="http://www.w3.org/2000/svg" xmlns:xlink="http://www.w3.org/1999/xlink">
    <title>UI icon/tag/filled</title>
    <g id="👀-Icons" stroke="none" stroke-width="1" fill="none" fill-rule="evenodd">
        <g id="Subtract" transform="translate(-2.000000, -2.000000)" fill="#6F767E">
            <path d="M20.6811179,13.2434109 C21.3004179,12.6241109 21.6181179,11.7651809 21.5509179,10.8919809 L21.1469179,5.63919092 C21.0334179,4.16385092 19.8611179,2.99160592 18.3858179,2.87811892 L13.1330179,2.47405788 C12.2598279,2.40688952 11.4008779,2.72463492 10.7816079,3.34390092 L3.27199793,10.8535109 C2.10042493,12.0250909 2.10042493,13.9246109 3.27199793,15.0961109 L8.92884793,20.7530109 C10.1004179,21.9246109 11.9999179,21.9246109 13.1715179,20.7530109 L20.6811179,13.2434109 Z M14.5858179,7.31800092 C14.0000179,7.90379092 14.0000179,8.85353092 14.5858179,9.43932092 C15.1716179,10.0251109 16.1214179,10.0251109 16.7071179,9.43932092 C17.2929179,8.85353092 17.2929179,7.90379092 16.7071179,7.31800092 C16.1214179,6.73221092 15.1716179,6.73221092 14.5858179,7.31800092 Z M10.3432779,16.5104109 L7.51484793,13.6820109 C7.12432793,13.2914109 7.12432793,12.6583109 7.51484793,12.2677509 C7.90537793,11.8772209 8.53853793,11.8772209 8.92906793,12.2677509 L11.7574879,15.0962109 C12.1480179,15.4867109 12.1480179,16.1199109 11.7574879,16.5104109 C11.3669679,16.9009109 10.7338079,16.9009109 10.3432779,16.5104109 Z"></path>
        </g>
    </g>
</svg>