<?xml version="1.0" encoding="UTF-8"?>
<svg width="20px" height="20px" viewBox="0 0 20 20" version="1.1" xmlns="http://www.w3.org/2000/svg" xmlns:xlink="http://www.w3.org/1999/xlink">
    <title>UI icon/tag/light</title>
    <g id="👀-Icons" stroke="none" stroke-width="1" fill="none" fill-rule="evenodd">
        <g id="编组" transform="translate(-2.000000, -2.000000)" fill="#6F767E">
            <path d="M4.68628565,12.2677517 L12.1959057,4.75813167 C12.4022957,4.55171167 12.6885957,4.44580167 12.9796957,4.46819167 L18.2324957,4.87225167 C18.7242957,4.91008167 19.1149957,5.30083167 19.1528957,5.79260167 L19.5568957,11.0454017 C19.5792957,11.3364617 19.4733957,11.6227817 19.2669957,11.8292017 L11.7573557,19.3388317 C11.3668257,19.7293317 10.7336657,19.7293317 10.3431457,19.3388317 L4.68628565,13.6819317 C4.29576565,13.2914317 4.29576565,12.6582317 4.68628565,12.2677517 Z M21.5509957,10.8920017 C21.6181957,11.7652017 21.3004957,12.6241317 20.6811957,13.2434317 L13.1715957,20.7530317 C11.9999957,21.9246317 10.1004957,21.9246317 8.92892565,20.7530317 L3.27207565,15.0961317 C2.10050265,13.9246317 2.10050265,12.0251117 3.27207565,10.8535317 L10.7816857,3.34392167 C11.4009557,2.72465567 12.2599057,2.40691027 13.1330957,2.47407863 L18.3858957,2.87813967 C19.8611957,2.99162667 21.0334957,4.16387167 21.1469957,5.63921167 L21.5509957,10.8920017 Z" id="Rectangle-190-(Stroke)"></path>
            <path d="M14.5857842,7.3179991 C13.9999977,7.90378856 13.9999977,8.85352769 14.5857842,9.43931715 C15.1715736,10.0251066 16.1213128,10.0251066 16.7071022,9.43931715 C17.2928917,8.85352769 17.2928917,7.90378856 16.7071022,7.3179991 C16.1213128,6.73221263 15.1715736,6.73221263 14.5857842,7.3179991 Z" id="Ellipse-140" fill-rule="nonzero"></path>
            <path d="M7.51471669,13.6819635 L10.3431433,16.5103833 C10.7336632,16.9009133 11.3668331,16.9009133 11.7573531,16.5103833 C12.147883,16.1198634 12.147883,15.4867034 11.7573531,15.0961734 L8.92893348,12.2677465 C8.53840354,11.8772226 7.90524163,11.8772225 7.51471669,12.2677465 C7.12419274,12.6582705 7.12419264,13.2914335 7.51471669,13.6819635 Z" id="Vector-566-(Stroke)"></path>
        </g>
    </g>
</svg>