<?xml version="1.0" encoding="UTF-8"?>
<svg width="18px" height="18px" viewBox="0 0 18 18" version="1.1" xmlns="http://www.w3.org/2000/svg" xmlns:xlink="http://www.w3.org/1999/xlink">
    <title>UI icon/checkbox_unchecked/light</title>
    <g id="👀-Icons" stroke="none" stroke-width="1" fill="none" fill-rule="evenodd">
        <g id="Rectangle-259-(Stroke)" transform="translate(-3.000000, -3.000000)" fill="#6F767E">
            <path d="M18,5 L6,5 C5.44772,5 5,5.44772 5,6 L5,18 C5,18.5523 5.44772,19 6,19 L18,19 C18.5523,19 19,18.5523 19,18 L19,6 C19,5.44772 18.5523,5 18,5 Z M6,3 C4.34315,3 3,4.34315 3,6 L3,18 C3,19.6569 4.34315,21 6,21 L18,21 C19.6569,21 21,19.6569 21,18 L21,6 C21,4.34315 19.6569,3 18,3 L6,3 Z"></path>
        </g>
    </g>
</svg>