<?xml version="1.0" encoding="UTF-8"?>
<svg width="20px" height="20px" viewBox="0 0 20 20" version="1.1" xmlns="http://www.w3.org/2000/svg" xmlns:xlink="http://www.w3.org/1999/xlink">
    <title>UI icon/bus/filled</title>
    <g id="👀-Icons" stroke="none" stroke-width="1" fill="none" fill-rule="evenodd">
        <g id="Subtract" transform="translate(-2.000000, -2.000000)" fill="#6F767E">
            <path d="M18,2 C19.6569,2 21,3.34315 21,5 C21.5523,5 22,5.44772 22,6 L22,8 C22,8.55228 21.5523,9 21,9 L21,17 C21,18.3062 20.1652,19.4175 19,19.8293 L19,21 C19,21.5523 18.5523,22 18,22 C17.4477,22 17,21.5523 17,21 L17,20 L7,20 L7,21 C7,21.5523 6.55228,22 6,22 C5.44772,22 5,21.5523 5,21 L5,19.8293 C3.83481,19.4175 3,18.3062 3,17 L3,9 C2.447715,9 2,8.55228 2,8 L2,6 C2,5.44772 2.447715,5 3,5 C3,3.34315 4.34315,2 6,2 L18,2 Z M19,10 C19,10.55228 18.5523,11 18,11 L6,11 C5.44772,11 5,10.55228 5,10 L5,5 C5,4.44772 5.44772,4 6,4 L18,4 C18.5523,4 19,4.44772 19,5 L19,10 Z M8,16 C8,16.5523 7.55228,17 7,17 C6.44772,17 6,16.5523 6,16 C6,15.4477 6.44772,15 7,15 C7.55228,15 8,15.4477 8,16 Z M17,17 C17.5523,17 18,16.5523 18,16 C18,15.4477 17.5523,15 17,15 C16.4477,15 16,15.4477 16,16 C16,16.5523 16.4477,17 17,17 Z"></path>
        </g>
    </g>
</svg>