<?xml version="1.0" encoding="UTF-8"?>
<svg width="20px" height="20px" viewBox="0 0 20 20" version="1.1" xmlns="http://www.w3.org/2000/svg" xmlns:xlink="http://www.w3.org/1999/xlink">
    <title>UI icon/bus/light</title>
    <g id="👀-Icons" stroke="none" stroke-width="1" fill="none" fill-rule="evenodd">
        <g id="编组" transform="translate(-2.000000, -2.000000)" fill="#6F767E">
            <g id="Union" transform="translate(2.000000, 2.000000)">
                <path d="M5,15 C5.55228,15 6,14.5523 6,14 C6,13.4477 5.55228,13 5,13 C4.44772,13 4,13.4477 4,14 C4,14.5523 4.44772,15 5,15 Z" id="1F9E219B-8473-4FEE-BFB7-9BFF5573EE66" fill-rule="nonzero"></path>
                <path d="M16,14 C16,14.5523 15.5523,15 15,15 C14.4477,15 14,14.5523 14,14 C14,13.4477 14.4477,13 15,13 C15.5523,13 16,13.4477 16,14 Z" id="7F89D1BD-62C9-43DB-A782-86D85C6E9B5C" fill-rule="nonzero"></path>
                <path d="M19,7 L19,15 C19,16.3062 18.1652,17.4175 17,17.8293 L17,19 C17,19.5523 16.5523,20 16,20 C15.4477,20 15,19.5523 15,19 L15,18 L5,18 L5,19 C5,19.5523 4.55228,20 4,20 C3.44772,20 3,19.5523 3,19 L3,17.8293 C1.83481,17.4175 1,16.3062 1,15 L1,7 C0.447715,7 0,6.55228 0,6 L0,4 C0,3.44772 0.447715,3 1,3 C1,1.34315 2.34315,0 4,0 L16,0 C17.6569,0 19,1.34315 19,3 C19.5523,3 20,3.44772 20,4 L20,6 C20,6.55228 19.5523,7 19,7 Z M4,2 L16,2 C16.5523,2 17,2.44772 17,3 L17,9 L3,9 L3,3 C3,2.44772 3.44772,2 4,2 Z M3,11 L3,15 C3,15.5523 3.44772,16 4,16 L16,16 C16.5523,16 17,15.5523 17,15 L17,11 L3,11 Z" id="570C6386-0D52-44FB-BC82-C90A083D09B6"></path>
            </g>
        </g>
    </g>
</svg>