<?xml version="1.0" encoding="UTF-8"?>
<svg width="18px" height="18px" viewBox="0 0 18 18" version="1.1" xmlns="http://www.w3.org/2000/svg" xmlns:xlink="http://www.w3.org/1999/xlink">
    <title>UI icon/checkbox/filled</title>
    <g id="👀-Icons" stroke="none" stroke-width="1" fill="none" fill-rule="evenodd">
        <g id="Subtract" transform="translate(-3.000000, -3.000000)" fill="#6F767E">
            <path d="M6,3 C4.34315,3 3,4.34315 3,6 L3,18 C3,19.6569 4.34315,21 6,21 L18,21 C19.6569,21 21,19.6569 21,18 L21,6 C21,4.34315 19.6569,3 18,3 L6,3 Z M16.7071,9.70711 C17.0976,9.31658 17.0976,8.68342 16.7071,8.29289 C16.3166,7.90237 15.6834,7.90237 15.2929,8.29289 L10,13.5858 L8.20711,11.79289 C7.81658,11.40237 7.18342,11.40237 6.79289,11.79289 C6.40237,12.18342 6.40237,12.81658 6.79289,13.2071 L8.58579,15 C9.36684,15.7811 10.63317,15.781 11.41421,15 L16.7071,9.70711 Z"></path>
        </g>
    </g>
</svg>