<?xml version="1.0" encoding="UTF-8"?>
<svg width="18px" height="18px" viewBox="0 0 18 18" version="1.1" xmlns="http://www.w3.org/2000/svg" xmlns:xlink="http://www.w3.org/1999/xlink">
    <title>UI icon/checkbox/light</title>
    <g id="👀-Icons" stroke="none" stroke-width="1" fill="none" fill-rule="evenodd">
        <g id="编组" transform="translate(-3.000000, -3.000000)" fill="#6F767E">
            <path d="M18,5 L6,5 C5.44772,5 5,5.44772 5,6 L5,18 C5,18.5523 5.44772,19 6,19 L18,19 C18.5523,19 19,18.5523 19,18 L19,6 C19,5.44772 18.5523,5 18,5 Z M6,3 C4.34315,3 3,4.34315 3,6 L3,18 C3,19.6569 4.34315,21 6,21 L18,21 C19.6569,21 21,19.6569 21,18 L21,6 C21,4.34315 19.6569,3 18,3 L6,3 Z" id="Rectangle-259-(Stroke)"></path>
            <path d="M16.7071243,8.29289305 C17.0976252,8.68341701 17.0976252,9.31657994 16.7071243,9.7071099 L11.4142217,15 C10.6331799,15.7810493 9.36684688,15.7810493 8.58579503,15 L6.79289377,13.2071096 C6.40236874,12.8165796 6.40236874,12.1834197 6.79289377,11.7928897 C7.1834187,11.4023697 7.8165832,11.4023697 8.20711413,11.7928897 L10,13.5857895 L15.2929109,8.29289305 C15.6834419,7.90236898 16.3166034,7.90236898 16.7071243,8.29289305 Z" id="Vector-408-(Stroke)"></path>
        </g>
    </g>
</svg>