<?xml version="1.0" encoding="UTF-8"?>
<svg width="18px" height="22px" viewBox="0 0 18 22" version="1.1" xmlns="http://www.w3.org/2000/svg" xmlns:xlink="http://www.w3.org/1999/xlink">
    <title>UI icon/privacy/filled</title>
    <g id="👀-Icons" stroke="none" stroke-width="1" fill="none" fill-rule="evenodd">
        <g id="Subtract" transform="translate(-3.000000, -1.000000)" fill="#6F767E">
            <path d="M3,6.66223145 C3,5.37094147 3.82629,4.22452147 5.05132,3.81618147 L11.05131,1.81618147 C11.66711,1.61091507 12.33288,1.61091447 12.94868,1.81618147 L18.9487,3.81618147 C20.1737,4.22452147 21,5.37094147 21,6.66223145 L21,11.9999315 C21,17.5019315 15.4398,20.8417315 13.0601,22.0191315 C12.38748,22.3518315 11.61252,22.3518315 10.93993,22.0191315 C8.56019,20.8417315 3,17.5019315 3,11.9999315 L3,6.66223145 Z M15,9.00000147 C15,10.6568515 13.6569,12.0000315 12,12.0000315 C10.34315,12.0000315 9,10.6568515 9,9.00000147 C9,7.34314147 10.34315,6.00000147 12,6.00000147 C13.6569,6.00000147 15,7.34314147 15,9.00000147 Z M12.00003,14.0000315 C13.7944,14.0000315 15.431,14.6751315 16.6698,15.7852315 C17.0352,16.1126315 17.0409,16.6710315 16.6998,17.0235315 C16.6392,17.0860315 16.5779,17.1481315 16.5157,17.2096315 C15.0429,18.6670315 13.2698,19.6839315 12.17318,20.2265315 C12.05954,20.2827315 11.94053,20.2827315 11.82688,20.2265315 C10.73031,19.6839315 8.95721,18.6670315 7.48435,17.2096315 C7.42218,17.1481315 7.36082,17.0860315 7.30031,17.0235315 C6.95912,16.6710315 6.96487,16.1126315 7.33023,15.7852315 C8.56904,14.6751315 10.20569,14.0000315 12.00003,14.0000315 Z"></path>
        </g>
    </g>
</svg>