<?xml version="1.0" encoding="UTF-8"?>
<svg width="18px" height="22px" viewBox="0 0 18 22" version="1.1" xmlns="http://www.w3.org/2000/svg" xmlns:xlink="http://www.w3.org/1999/xlink">
    <title>UI icon/privacy/light</title>
    <g id="👀-Icons" stroke="none" stroke-width="1" fill="none" fill-rule="evenodd">
        <g id="编组" transform="translate(-3.000000, -1.000000)" fill="#6F767E">
            <path d="M11.68377,3.71359796 L5.68377,5.71359796 C5.27543,5.84970796 5,6.23184796 5,6.66227546 L5,11.999978 C5,14.025678 6.01463,15.755378 7.48432,17.209678 C8.95718,18.667078 10.73028,19.683978 11.82685,20.226578 C11.94049,20.282778 12.05951,20.282778 12.17315,20.226578 C13.2697,19.683978 15.0428,18.667078 16.5157,17.209678 C17.9854,15.755378 19,14.025678 19,11.999978 L19,6.66227546 C19,6.23184796 18.7246,5.84970796 18.3162,5.71359796 L12.31623,3.71359796 C12.11096,3.64516796 11.88904,3.64516796 11.68377,3.71359796 Z M5.05132,3.81622796 C3.82629,4.22456796 3,5.37098796 3,6.66227794 L3,11.999978 C3,17.501978 8.56019,20.841778 10.93993,22.019178 C11.61252,22.351878 12.38748,22.351878 13.0601,22.019178 C15.4398,20.841778 21,17.501978 21,11.999978 L21,6.66227794 C21,5.37098796 20.1737,4.22456796 18.9487,3.81622796 L12.94868,1.81622796 C12.33288,1.61096096 11.66711,1.61096156 11.05131,1.81622796 L5.05132,3.81622796 Z" id="Rectangle-(Stroke)"></path>
            <path d="M12,11 C12.55228,11 13,10.55228 13,10 C13,9.44772 12.55228,9 12,9 C11.44772,9 11,9.44772 11,10 C11,10.55228 11.44772,11 12,11 Z M12,13 C13.65685,13 15,11.65685 15,10 C15,8.34315 13.65685,7 12,7 C10.34315,7 9,8.34315 9,10 C9,11.65685 10.34315,13 12,13 Z" id="Ellipse-132-(Stroke)"></path>
            <path d="M17.2678542,16.3901222 C15.9848031,14.9251178 14.1004414,14 12.0000095,14 C9.89956765,14 8.01520598,14.9251158 6.73214483,16.3901222 C6.96563604,16.6724424 7.21747826,16.9455727 7.4843215,17.2096229 C7.69861869,17.4216831 7.91927589,17.6244033 8.14327609,17.8177035 C9.06035691,16.7075225 10.4475581,16 12.0000095,16 C13.5524509,16 14.9396521,16.7075225 15.856733,17.8177035 C16.0807332,17.6244133 16.3013934,17.4216831 16.5156835,17.2096229 C16.7825538,16.9455727 17.034354,16.6724424 17.2678542,16.3901222 Z" id="Subtract" fill-rule="nonzero"></path>
        </g>
    </g>
</svg>