<?xml version="1.0" encoding="UTF-8"?>
<svg width="20px" height="20px" viewBox="0 0 20 20" version="1.1" xmlns="http://www.w3.org/2000/svg" xmlns:xlink="http://www.w3.org/1999/xlink">
    <title>UI icon/sync/filled</title>
    <g id="👀-Icons" stroke="none" stroke-width="1" fill="none" fill-rule="evenodd">
        <g id="编组" transform="translate(-2.000000, -2.000000)" fill="#6F767E" fill-rule="nonzero">
            <g id="Union">
                <path d="M4,12 C4,7.58172 7.58172,4 12,4 C14.5171,4 16.7288,5.1635 18.1822,6.99321 L16.5029,6.98829 C15.9506,6.98667 15.5016,7.43307 15.5,7.98535 C15.4984,8.53763 15.9448,8.98666 16.4971,8.98828 L19.9399,8.99836 C19.9783,9.00071 20.017,9.00084 20.0557,8.9987 L20.4971,9 C20.7628,9.00077 21.0179,8.89576 21.2061,8.70814 C21.3942,8.52052 21.5,8.26572 21.5,8 L21.5,4 C21.5,3.44771 21.0523,3 20.5,3 C19.9477,3 19.5,3.44772 19.5,4 L19.5,5.44947 C17.6875,3.34038 15.023,2 12,2 C6.47715,2 2,6.47715 2,12 C2,12.5523 2.447715,13 3,13 C3.55228,13 4,12.5523 4,12 Z"></path>
                <path d="M20,12 C20,16.41828 16.4183,20 12,20 C9.48295,20 7.27119,18.8365 5.81776,17.00679 L7.49707,17.01171 C8.04935,17.01333 8.49838,16.56693 8.5,16.01465 C8.50161,15.46237 8.05521,15.01334 7.50293,15.01172 L4.06007,15.00164 C4.02166,14.99929 3.983,14.99916 3.94428,15.0013 L3.50293,15 C3.237206,14.99923 2.9821,15.10424 2.79393,15.29186 C2.605759,15.47948 2.5,15.73428 2.5,16 L2.5,20 C2.5,20.55229 2.947718,21 3.5,21 C4.05229,21 4.5,20.55228 4.5,20 L4.5,18.55053 C6.31255,20.65962 8.97702,22 12,22 C17.5228,22 22,17.52285 22,12 C22,11.447715 21.5523,11 21,11 C20.4477,11 20,11.447715 20,12 Z"></path>
            </g>
        </g>
    </g>
</svg>