<?xml version="1.0" encoding="UTF-8"?>
<svg width="12px" height="20px" viewBox="0 0 12 20" version="1.1" xmlns="http://www.w3.org/2000/svg" xmlns:xlink="http://www.w3.org/1999/xlink">
    <title>UI icon/pin/filled</title>
    <g id="👀-Icons" stroke="none" stroke-width="1" fill="none" fill-rule="evenodd">
        <g id="编组" transform="translate(-6.000000, -2.000000)" fill="#6F767E" fill-rule="nonzero">
            <g id="Union">
                <path d="M18,14.6759 L18,15 C18,15.5523 17.5523,16 17,16 L13,16 L13,21 C13,21.5523 12.55228,22 12,22 C11.44772,22 11,21.5523 11,21 L11,16 L7,16 C6.447715,16 6,15.5523 6,15 L6,14.6759 C6,13.0042 6.835505,11.443 8.2265,10.51567 L8.5547,10.29687 C8.8329,10.1114 9,9.79917 9,9.46482 L9,7.85078 C9,7.62371 8.92272,7.4034 8.78087,7.22609 L7.21913,5.27391 C7.07728,5.0966 7,4.87629 7,4.64922 L7,3 C7,2.447715 7.44772,2 8,2 L16,2 C16.5523,2 17,2.447715 17,3 L17,4.64922 C17,4.87629 16.9227,5.0966 16.7809,5.27391 L15.21913,7.22609 C15.07728,7.4034 15,7.62371 15,7.85078 L15,9.46482 C15,9.79917 15.1671,10.1114 15.4453,10.29687 L15.7735,10.51567 C17.1645,11.443 18,13.0042 18,14.6759 Z"></path>
            </g>
        </g>
    </g>
</svg>