<?xml version="1.0" encoding="UTF-8"?>
<svg width="12px" height="20px" viewBox="0 0 12 20" version="1.1" xmlns="http://www.w3.org/2000/svg" xmlns:xlink="http://www.w3.org/1999/xlink">
    <title>UI icon/pin/light</title>
    <g id="👀-Icons" stroke="none" stroke-width="1" fill="none" fill-rule="evenodd">
        <g id="UI-icon/pin/light" transform="translate(-6.000000, -2.000000)" fill="#6F767E">
            <path d="M13,16 L17,16 C17.5523,16 18,15.5523 18,15 L18,14.6759 C18,13.0042 17.1645,11.443 15.7735,10.51567 L15.4453,10.29687 C15.1671,10.1114 15,9.79917 15,9.46482 L15,7.85078 C15,7.62371 15.07728,7.4034 15.21913,7.22609 L16.7809,5.27391 C16.9227,5.0966 17,4.87629 17,4.64922 L17,3 C17,2.447715 16.5523,2 16,2 L8,2 C7.44772,2 7,2.447715 7,3 L7,4.64922 C7,4.87629 7.07728,5.0966 7.21913,5.27391 L8.78087,7.22609 C8.92272,7.4034 9,7.62371 9,7.85078 L9,9.46482 C9,9.79917 8.8329,10.1114 8.5547,10.29687 L8.2265,10.51567 C6.835505,11.443 6,13.0042 6,14.6759 L6,15 C6,15.5523 6.447715,16 7,16 L11,16 L11,21 C11,21.5523 11.44772,22 12,22 C12.55228,22 13,21.5523 13,21 L13,16 Z M14.6641,12.1798 C15.30728,12.6086 15.75251,13.2632 15.92291,14 L8.07709,14 C8.24749,13.2632 8.69272,12.6086 9.3359,12.1798 L9.6641,11.96097 C10.4987,11.40457 11,10.46788 11,9.46482 L11,7.85078 C11,7.16957 10.76816,6.50863 10.34261,5.9767 L9,4.29844 L9,4 L15,4 L15,4.29844 L13.65739,5.9767 C13.23184,6.50863 13,7.16957 13,7.85078 L13,9.46482 C13,10.46788 13.5013,11.40457 14.3359,11.96097 L14.6641,12.1798 Z" id="Union"></path>
        </g>
    </g>
</svg>