<?xml version="1.0" encoding="UTF-8"?>
<svg width="20px" height="20px" viewBox="0 0 20 20" version="1.1" xmlns="http://www.w3.org/2000/svg" xmlns:xlink="http://www.w3.org/1999/xlink">
    <title>UI icon/scissors/light</title>
    <g id="👀-Icons" stroke="none" stroke-width="1" fill="none" fill-rule="evenodd">
        <g id="Union" transform="translate(-2.000000, -2.000000)" fill="#6F767E">
            <path d="M17.7810766,4.15673873 C18.0571766,3.67843873 17.8933766,3.06685273 17.4150766,2.79071073 C16.9367766,2.51456773 16.3251766,2.67844303 16.0489766,3.15673573 L8.88060661,15.5727687 C8.59486661,15.1584687 8.21484661,14.7994687 7.74995661,14.5310687 C6.07593661,13.5645687 3.93536661,14.1381687 2.96887261,15.8121687 C2.00237361,17.4861687 2.57593691,19.6267687 4.24995661,20.5932687 C5.92167661,21.5583687 8.05865661,20.9877687 9.02704661,19.3190687 C9.02839661,19.3167687 9.02973661,19.3144687 9.03106661,19.3121687 L17.7810766,4.15673873 Z M7.29899661,18.3121687 C6.88478661,19.0295687 5.96739661,19.2753687 5.24995661,18.8611687 C4.53252661,18.4469687 4.28670661,17.5295687 4.70092661,16.8121687 C5.11513661,16.0946687 6.03252661,15.8488687 6.74995661,16.2630687 C7.46739661,16.6773687 7.71321661,17.5946687 7.29899661,18.3121687 Z"></path>
            <path d="M6.2189384,4.15673873 C5.9427954,3.67843873 6.1066707,3.06685273 6.5849634,2.79071073 C7.0632564,2.51456773 7.6748464,2.67844303 7.9509864,3.15673573 L15.1193664,15.5727687 C15.4050964,15.1583687 15.7851064,14.7994687 16.2499964,14.5310687 C17.9239964,13.5645687 20.0645964,14.1381687 21.0310964,15.8121687 C21.9975964,17.4861687 21.4239964,19.6267687 19.7499964,20.5932687 C18.0759964,21.5597687 15.9353864,20.9861687 14.9688864,19.3121687 C14.9663564,19.3077687 14.9638264,19.3033687 14.9613164,19.2989687 L6.2189384,4.15673873 Z M16.7040964,18.3175687 C17.1197964,19.0308687 18.0343964,19.2743687 18.7499964,18.8611687 C19.4673964,18.4469687 19.7131964,17.5295687 19.2989964,16.8121687 C18.8847964,16.0946687 17.9673964,15.8488687 17.2499964,16.2630687 C16.5353964,16.6756687 16.2886964,17.5874687 16.6959964,18.3035687 L16.7009964,18.3121687 C16.7019964,18.3139687 16.7030964,18.3157687 16.7040964,18.3175687 Z"></path>
        </g>
    </g>
</svg>