<?xml version="1.0" encoding="UTF-8"?>
<svg width="20px" height="20px" viewBox="0 0 20 20" version="1.1" xmlns="http://www.w3.org/2000/svg" xmlns:xlink="http://www.w3.org/1999/xlink">
    <title>UI icon/crosshairs/light</title>
    <g id="👀-Icons" stroke="none" stroke-width="1" fill="none" fill-rule="evenodd">
        <g id="编组" transform="translate(-2.000000, -2.000000)" fill="#6F767E">
            <path d="M12,13 C12.55228,13 13,12.55228 13,12 C13,11.44772 12.55228,11 12,11 C11.44772,11 11,11.44772 11,12 C11,12.55228 11.44772,13 12,13 Z M12,15 C13.65685,15 15,13.65685 15,12 C15,10.34315 13.65685,9 12,9 C10.34315,9 9,10.34315 9,12 C9,13.65685 10.34315,15 12,15 Z" id="Ellipse-202-(Stroke)"></path>
            <path d="M12,2 C12.5523,2 13,2.447715 13,3 L13,4.06189 C16.6187,4.51314 19.4869,7.38128 19.9381,11 L21,11 C21.5523,11 22,11.44771 22,12 C22,12.5523 21.5523,13 21,13 L19.9381,13 C19.4869,16.6187 16.6187,19.4869 13,19.9381 L13,21 C13,21.5523 12.5523,22 12,22 C11.44771,22 11,21.5523 11,21 L11,19.9381 C7.38128,19.4869 4.51314,16.6187 4.06189,13 L3,13 C2.447715,13 2,12.5523 2,12 C2,11.44771 2.447715,11 3,11 L4.06189,11 C4.51314,7.38128 7.38128,4.51314 11,4.06189 L11,3 C11,2.447715 11.44771,2 12,2 Z M12,18 C15.3137,18 18,15.3137 18,12 C18,8.68629 15.3137,6 12,6 C8.68629,6 6,8.68629 6,12 C6,15.3137 8.68629,18 12,18 Z" id="Union"></path>
        </g>
    </g>
</svg>