<?xml version="1.0" encoding="UTF-8"?>
<svg width="22px" height="22px" viewBox="0 0 22 22" version="1.1" xmlns="http://www.w3.org/2000/svg" xmlns:xlink="http://www.w3.org/1999/xlink">
    <title>UI icon/chip/filled</title>
    <g id="👀-Icons" stroke="none" stroke-width="1" fill="none" fill-rule="evenodd">
        <g id="编组" transform="translate(-1.000000, -1.000000)" fill="#6F767E">
            <path d="M6,9 C6,7.34315 7.34315,6 9,6 L15,6 C16.6569,6 18,7.34315 18,9 L18,15 C18,16.6569 16.6569,18 15,18 L9,18 C7.34315,18 6,16.6569 6,15 L6,9 Z" id="Rectangle-259" fill-rule="nonzero"></path>
            <path d="M1.5,16 C1.5,15.447715 1.947715,15 2.5,15 L3.5,15 C4.05228,15 4.5,15.447715 4.5,16 C4.5,16.55228 4.05228,17 3.5,17 L2.5,17 C1.947715,17 1.5,16.55228 1.5,16 Z" id="Vector-605-(Stroke)"></path>
            <path d="M19.5,16 C19.5,15.447715 19.947715,15 20.5,15 L21.5,15 C22.05228,15 22.5,15.447715 22.5,16 C22.5,16.55228 22.05228,17 21.5,17 L20.5,17 C19.947715,17 19.5,16.55228 19.5,16 Z" id="Vector-609-(Stroke)"></path>
            <path d="M1.5,12 C1.5,11.447715 1.947715,11 2.5,11 L3.5,11 C4.05228,11 4.5,11.447715 4.5,12 C4.5,12.55228 4.05228,13 3.5,13 L2.5,13 C1.947715,13 1.5,12.55228 1.5,12 Z" id="Vector-607-(Stroke)"></path>
            <path d="M19.5,12 C19.5,11.447715 19.947715,11 20.5,11 L21.5,11 C22.05228,11 22.5,11.447715 22.5,12 C22.5,12.55228 22.05228,13 21.5,13 L20.5,13 C19.947715,13 19.5,12.55228 19.5,12 Z" id="Vector-610-(Stroke)"></path>
            <path d="M1.5,8 C1.5,7.447715 1.947715,7 2.5,7 L3.5,7 C4.05228,7 4.5,7.447715 4.5,8 C4.5,8.55228 4.05228,9 3.5,9 L2.5,9 C1.947715,9 1.5,8.55228 1.5,8 Z" id="Vector-608-(Stroke)"></path>
            <path d="M19.5,8 C19.5,7.447715 19.947715,7 20.5,7 L21.5,7 C22.05228,7 22.5,7.447715 22.5,8 C22.5,8.55228 22.05228,9 21.5,9 L20.5,9 C19.947715,9 19.5,8.55228 19.5,8 Z" id="Vector-611-(Stroke)"></path>
            <path d="M16,1.5 C16.55228,1.5 17,1.947715 17,2.5 L17,3.5 C17,4.05228 16.55228,4.5 16,4.5 C15.447715,4.5 15,4.05228 15,3.5 L15,2.5 C15,1.947715 15.447715,1.5 16,1.5 Z" id="Vector-606-(Stroke)"></path>
            <path d="M16,19.5 C16.55228,19.5 17,19.947715 17,20.5 L17,21.5 C17,22.05228 16.55228,22.5 16,22.5 C15.447715,22.5 15,22.05228 15,21.5 L15,20.5 C15,19.947715 15.447715,19.5 16,19.5 Z" id="Vector-614-(Stroke)"></path>
            <path d="M12,1.5 C12.55228,1.5 13,1.947715 13,2.5 L13,3.5 C13,4.05228 12.55228,4.5 12,4.5 C11.447715,4.5 11,4.05228 11,3.5 L11,2.5 C11,1.947715 11.447715,1.5 12,1.5 Z" id="Vector-612-(Stroke)"></path>
            <path d="M12,19.5 C12.55228,19.5 13,19.947715 13,20.5 L13,21.5 C13,22.05228 12.55228,22.5 12,22.5 C11.447715,22.5 11,22.05228 11,21.5 L11,20.5 C11,19.947715 11.447715,19.5 12,19.5 Z" id="Vector-615-(Stroke)"></path>
            <path d="M8,1.5 C8.55228,1.5 9,1.947715 9,2.5 L9,3.5 C9,4.05228 8.55228,4.5 8,4.5 C7.447715,4.5 7,4.05228 7,3.5 L7,2.5 C7,1.947715 7.447715,1.5 8,1.5 Z" id="Vector-613-(Stroke)"></path>
            <path d="M8,19.5 C8.55228,19.5 9,19.947715 9,20.5 L9,21.5 C9,22.05228 8.55228,22.5 8,22.5 C7.447715,22.5 7,22.05228 7,21.5 L7,20.5 C7,19.947715 7.447715,19.5 8,19.5 Z" id="Vector-616-(Stroke)"></path>
        </g>
    </g>
</svg>