<?xml version="1.0" encoding="UTF-8"?>
<svg width="20px" height="20px" viewBox="0 0 20 20" version="1.1" xmlns="http://www.w3.org/2000/svg" xmlns:xlink="http://www.w3.org/1999/xlink">
    <title>UI icon/chip/light</title>
    <g id="👀-Icons" stroke="none" stroke-width="1" fill="none" fill-rule="evenodd">
        <g id="编组" transform="translate(-2.000000, -2.000000)" fill="#6F767E">
            <path d="M15,8 L9,8 C8.44772,8 8,8.44772 8,9 L8,15 C8,15.55228 8.44772,16 9,16 L15,16 C15.55228,16 16,15.55228 16,15 L16,9 C16,8.44772 15.55228,8 15,8 Z M9,6 C7.34315,6 6,7.34315 6,9 L6,15 C6,16.6569 7.34315,18 9,18 L15,18 C16.6569,18 18,16.6569 18,15 L18,9 C18,7.34315 16.6569,6 15,6 L9,6 Z" id="Rectangle-259-(Stroke)"></path>
            <path d="M2,16 C2,15.447715 2.447715,15 3,15 L4,15 C4.55228,15 5,15.447715 5,16 C5,16.55228 4.55228,17 4,17 L3,17 C2.447715,17 2,16.55228 2,16 Z" id="Vector-605-(Stroke)"></path>
            <path d="M19,16 C19,15.447715 19.447715,15 20,15 L21,15 C21.55228,15 22,15.447715 22,16 C22,16.55228 21.55228,17 21,17 L20,17 C19.447715,17 19,16.55228 19,16 Z" id="Vector-609-(Stroke)"></path>
            <path d="M2,12 C2,11.447715 2.447715,11 3,11 L4,11 C4.55228,11 5,11.447715 5,12 C5,12.55228 4.55228,13 4,13 L3,13 C2.447715,13 2,12.55228 2,12 Z" id="Vector-607-(Stroke)"></path>
            <path d="M19,12 C19,11.447715 19.447715,11 20,11 L21,11 C21.55228,11 22,11.447715 22,12 C22,12.55228 21.55228,13 21,13 L20,13 C19.447715,13 19,12.55228 19,12 Z" id="Vector-610-(Stroke)"></path>
            <path d="M2,8 C2,7.447715 2.447715,7 3,7 L4,7 C4.55228,7 5,7.447715 5,8 C5,8.55228 4.55228,9 4,9 L3,9 C2.447715,9 2,8.55228 2,8 Z" id="Vector-608-(Stroke)"></path>
            <path d="M19,8 C19,7.447715 19.447715,7 20,7 L21,7 C21.55228,7 22,7.447715 22,8 C22,8.55228 21.55228,9 21,9 L20,9 C19.447715,9 19,8.55228 19,8 Z" id="Vector-611-(Stroke)"></path>
            <path d="M16,2 C16.55228,2 17,2.447715 17,3 L17,4 C17,4.55228 16.55228,5 16,5 C15.447715,5 15,4.55228 15,4 L15,3 C15,2.447715 15.447715,2 16,2 Z" id="Vector-606-(Stroke)"></path>
            <path d="M16,19 C16.55228,19 17,19.447715 17,20 L17,21 C17,21.55228 16.55228,22 16,22 C15.447715,22 15,21.55228 15,21 L15,20 C15,19.447715 15.447715,19 16,19 Z" id="Vector-614-(Stroke)"></path>
            <path d="M12,2 C12.55228,2 13,2.447715 13,3 L13,4 C13,4.55228 12.55228,5 12,5 C11.447715,5 11,4.55228 11,4 L11,3 C11,2.447715 11.447715,2 12,2 Z" id="Vector-612-(Stroke)"></path>
            <path d="M12,19 C12.55228,19 13,19.447715 13,20 L13,21 C13,21.55228 12.55228,22 12,22 C11.447715,22 11,21.55228 11,21 L11,20 C11,19.447715 11.447715,19 12,19 Z" id="Vector-615-(Stroke)"></path>
            <path d="M8,2 C8.55228,2 9,2.447715 9,3 L9,4 C9,4.55228 8.55228,5 8,5 C7.447715,5 7,4.55228 7,4 L7,3 C7,2.447715 7.447715,2 8,2 Z" id="Vector-613-(Stroke)"></path>
            <path d="M8,19 C8.55228,19 9,19.447715 9,20 L9,21 C9,21.55228 8.55228,22 8,22 C7.447715,22 7,21.55228 7,21 L7,20 C7,19.447715 7.447715,19 8,19 Z" id="Vector-616-(Stroke)"></path>
        </g>
    </g>
</svg>