<?xml version="1.0" encoding="UTF-8"?>
<svg width="20px" height="17px" viewBox="0 0 20 17" version="1.1" xmlns="http://www.w3.org/2000/svg" xmlns:xlink="http://www.w3.org/1999/xlink">
    <title>UI icon/book/filled</title>
    <g id="👀-Icons" stroke="none" stroke-width="1" fill="none" fill-rule="evenodd">
        <g id="Union" transform="translate(-2.000000, -4.000000)" fill="#6F767E">
            <path d="M5,4 C3.34315,4 2,5.34315 2,7 L2,17 C2,18.6569 3.34315,20 5,20 L8.02633,20 C8.67123,20 9.3119,20.104 9.9237,20.3079 L11.68377,20.8946 C11.88904,20.963 12.111,20.963 12.3162,20.8946 L14.0763,20.3079 C14.6881,20.104 15.3288,20 15.9737,20 L19,20 C20.6569,20 22,18.6569 22,17 L22,7 C22,5.34315 20.6569,4 19,4 L15,4 C13.9072,4 12.9167,4.438245 12.1948,5.14858 C12.0876,5.25406 11.91245,5.25406 11.80524,5.14858 C11.08329,4.438245 10.09283,4 9,4 L5,4 Z M13,18.5585 L13.4438,18.4105 C14.2596,18.1386 15.1138,18 15.9737,18 L19,18 C19.5523,18 20,17.5523 20,17 L20,7 C20,6.44772 19.5523,6 19,6 L15,6 C13.8954,6 13,6.89543 13,8 L13,18.5585 Z"></path>
        </g>
    </g>
</svg>