<?xml version="1.0" encoding="UTF-8"?>
<svg width="20px" height="17px" viewBox="0 0 20 17" version="1.1" xmlns="http://www.w3.org/2000/svg" xmlns:xlink="http://www.w3.org/1999/xlink">
    <title>UI icon/book/light</title>
    <g id="👀-Icons" stroke="none" stroke-width="1" fill="none" fill-rule="evenodd">
        <g id="Union" transform="translate(-2.000000, -4.000000)" fill="#6F767E">
            <path d="M5,6 L9,6 C10.10457,6 11,6.89543 11,8 L11,18.5585 L10.55616,18.4105 C9.74042,18.1386 8.88619,18 8.02633,18 L5,18 C4.44772,18 4,17.5523 4,17 L4,7 C4,6.44772 4.44772,6 5,6 Z M12.3162,20.8946 C12.111,20.963 11.88904,20.963 11.68377,20.8946 L9.9237,20.3079 C9.3119,20.104 8.67123,20 8.02633,20 L5,20 C3.34315,20 2,18.6569 2,17 L2,7 C2,5.34315 3.34315,4 5,4 L9,4 C10.19469,4 11.26706,4.523755 12,5.35418 C12.7329,4.523755 13.8053,4 15,4 L19,4 C20.6569,4 22,5.34315 22,7 L22,17 C22,18.6569 20.6569,20 19,20 L15.9737,20 C15.3288,20 14.6881,20.104 14.0763,20.3079 L12.3162,20.8946 Z M15,6 L19,6 C19.5523,6 20,6.44772 20,7 L20,17 C20,17.5523 19.5523,18 19,18 L15.9737,18 C15.1138,18 14.2596,18.1386 13.4438,18.4105 L13,18.5585 L13,8 C13,6.89543 13.8954,6 15,6 Z"></path>
        </g>
    </g>
</svg>