<?xml version="1.0" encoding="UTF-8"?>
<svg width="16px" height="18px" viewBox="0 0 16 18" version="1.1" xmlns="http://www.w3.org/2000/svg" xmlns:xlink="http://www.w3.org/1999/xlink">
    <title>UI icon/utensils/light</title>
    <g id="👀-Icons" stroke="none" stroke-width="1" fill="none" fill-rule="evenodd">
        <g id="Union" transform="translate(-4.000000, -3.000000)" fill="#6F767E">
            <path d="M19.999999,4 C19.999999,3.447715 19.552289,3 18.999999,3 C16.238579,3 13.999999,5.23858 13.999999,8 L13.999999,14 C13.999999,14.5523 14.447714,15 14.999999,15 L17.999999,15 L17.999999,20 C17.999999,20.5523 18.447719,21 18.999999,21 C19.552279,21 19.999999,20.5523 19.999999,20 L19.999999,4 Z M15.999999,13 L17.999999,13 L17.999999,5.17071 C16.834809,5.58254 15.999999,6.69378 15.999999,8 L15.999999,13 Z"></path>
            <path d="M6,4 C6,3.447715 5.55228,3 5,3 C4.447715,3 4,3.447715 4,4 L4,9 C4,10.86384 5.27477,12.42994 7,12.87398 L7,20 C7,20.5523 7.44772,21 8,21 C8.55228,21 9,20.5523 9,20 L9,12.87398 C10.72523,12.42994 12,10.86384 12,9 L12,4 C12,3.447715 11.55228,3 11,3 C10.44772,3 10,3.447715 10,4 L10,7 L9,7 L9,4 C9,3.447715 8.55228,3 8,3 C7.44772,3 7,3.447715 7,4 L7,7 L6,7 L6,4 Z M6,9 C6,10.10457 6.89543,11 8,11 C9.10457,11 10,10.10457 10,9 L6,9 Z"></path>
        </g>
    </g>
</svg>