<?xml version="1.0" encoding="UTF-8"?>
<svg width="20px" height="20px" viewBox="0 0 20 20" version="1.1" xmlns="http://www.w3.org/2000/svg" xmlns:xlink="http://www.w3.org/1999/xlink">
    <title>UI icon/at_sign/light</title>
    <g id="👀-Icons" stroke="none" stroke-width="1" fill="none" fill-rule="evenodd">
        <g id="Union" transform="translate(-2.000000, -2.000000)" fill="#6F767E">
            <path d="M12,4 C7.58172,4 4,7.58172 4,12 C4,16.4183 7.58172,20 12,20 C13.279,20 14.4852,19.7006 15.555,19.169 C16.0495,18.9232 16.6497,19.1249 16.8955,19.6194 C17.1413,20.114 16.9396,20.7142 16.445,20.96 C15.1049,21.626 13.5947,22 12,22 C6.47715,22 2,17.5228 2,12 C2,6.47715 6.47715,2 12,2 C17.5228,2 22,6.47715 22,12 L22,13 C22,14.409 21.6473,15.5353 20.987,16.3277 C20.3167,17.132 19.4033,17.5 18.5,17.5 C17.2731,17.5 16.0324,16.8089 15.4101,15.6567 C14.5168,16.4901 13.318,17 12,17 C9.23858,17 7,14.7614 7,12 C7,9.23858 9.23858,7 12,7 C13.1256,7 14.1643,7.37194 15,7.99963 C15.0002,7.44752 15.4478,7 16,7 C16.5523,7 17,7.44772 17,8 L17,12 L17,14 C17,14.8839 17.7362,15.5 18.5,15.5 C18.8467,15.5 19.1833,15.368 19.4505,15.0473 C19.7277,14.7147 20,14.091 20,13 L20,12 C20,7.58172 16.4183,4 12,4 Z M15,12 C15,10.34315 13.6569,9 12,9 C10.34315,9 9,10.34315 9,12 C9,13.6569 10.34315,15 12,15 C13.6569,15 15,13.6569 15,12 Z"></path>
        </g>
    </g>
</svg>