<?xml version="1.0" encoding="UTF-8"?>
<svg width="20px" height="20px" viewBox="0 0 20 20" version="1.1" xmlns="http://www.w3.org/2000/svg" xmlns:xlink="http://www.w3.org/1999/xlink">
    <title>UI icon/filter/light</title>
    <g id="👀-Icons" stroke="none" stroke-width="1" fill="none" fill-rule="evenodd">
        <g id="Rectangle-41-(Stroke)" transform="translate(-2.000000, -2.000000)" fill="#6F767E">
            <path d="M10.23564,10.92736 C10.71822,11.30653 11,11.88628 11,12.5 L11,19.1761 L13,18.4724 L13,12.5 C13,11.88628 13.2818,11.30653 13.7644,10.92736 L19.6178,6.32821 C19.8591,6.13863 20,5.84875 20,5.54189 L20,4 L4,4 L4,5.54189 C4,5.84876 4.14089,6.13863 4.38218,6.32821 L10.23564,10.92736 Z M20.8535,7.90085 L15,12.5 L15,19.1806 C15,19.605 14.7322,19.9831 14.3319,20.124 L10.33191,21.5314 C9.68145,21.7602 9,21.2776 9,20.5881 L9,12.5 L3.14654,7.90085 C2.422664,7.33209 2,6.46248 2,5.54189 L2,4 C2,2.89543 2.895431,2 4,2 L20,2 C21.1046,2 22,2.895431 22,4 L22,5.54189 C22,6.46248 21.5773,7.33209 20.8535,7.90085 Z"></path>
        </g>
    </g>
</svg>