<?xml version="1.0" encoding="UTF-8"?>
<svg width="18px" height="18px" viewBox="0 0 18 18" version="1.1" xmlns="http://www.w3.org/2000/svg" xmlns:xlink="http://www.w3.org/1999/xlink">
    <title>UI icon/eye_dropper/filled</title>
    <g id="👀-Icons" stroke="none" stroke-width="1" fill="none" fill-rule="evenodd">
        <g id="Union" transform="translate(-3.000000, -3.000000)" fill="#6F767E">
            <path d="M14.1214097,4.22176429 C15.6835097,2.65967029 18.2162097,2.65967029 19.7783097,4.22176429 C21.3404097,5.78386429 21.3404097,8.31652429 19.7783097,9.87862429 L19.0358097,10.6210943 C19.6789097,11.5917743 19.5728097,12.9124743 18.7176097,13.7676943 C17.8624097,14.6229943 16.5416097,14.7289943 15.5709097,14.0857943 L11.2928197,18.3638943 C10.8338297,18.8228943 10.2383497,19.1205943 9.59575967,19.2123943 L9.10078967,19.2831943 C8.45819967,19.3749943 7.86271967,19.6726943 7.40372967,20.1316943 C6.62267967,20.9126943 5.35634967,20.9126943 4.57529967,20.1316943 L3.86819567,19.4245943 C3.08714767,18.6434943 3.08714767,17.3771943 3.86819567,16.5960943 C4.32718967,16.1371943 4.62492967,15.5416943 4.71671967,14.8990943 L4.78743967,14.4040943 C4.87922967,13.7614943 5.17696967,13.1660943 5.63595967,12.7070543 L9.91407967,8.42893429 C9.27105967,7.45826429 9.37713967,6.13762429 10.2323397,5.28242429 C11.0875697,4.42719429 12.4082797,4.32113429 13.3790097,4.96423429 L14.1214097,4.22176429 Z M11.2929097,9.87853429 L7.05017967,14.1212943 C6.89717967,14.2742943 6.79792967,14.4727943 6.76732967,14.6869943 L6.69661967,15.1818943 C6.54362967,16.2528943 6.04738967,17.2453943 5.28240967,18.0103943 L5.98951967,18.7174943 C6.75449967,17.9524943 7.74696967,17.4562943 8.81793967,17.3032943 L9.31291967,17.2324943 C9.52710967,17.2018943 9.72560967,17.1026943 9.87859967,16.9496943 L14.1213097,12.7069543 L11.2929097,9.87853429 Z"></path>
        </g>
    </g>
</svg>