<?xml version="1.0" encoding="UTF-8"?>
<svg width="18px" height="18px" viewBox="0 0 18 18" version="1.1" xmlns="http://www.w3.org/2000/svg" xmlns:xlink="http://www.w3.org/1999/xlink">
    <title>UI icon/eye_dropper/light</title>
    <g id="👀-Icons" stroke="none" stroke-width="1" fill="none" fill-rule="evenodd">
        <g id="Union" transform="translate(-3.000000, -3.000000)" fill="#6F767E">
            <path d="M19.7781707,4.22176429 C18.2160707,2.65967029 15.6833707,2.65967029 14.1212707,4.22176429 L13.3788707,4.96423429 C12.4081507,4.32113429 11.0874507,4.42719429 10.2322207,5.28242429 C9.3769807,6.13766429 9.2709207,7.45839429 9.9140507,8.42908429 L5.6360207,12.7071143 C5.1770307,13.1660943 4.8792907,13.7615943 4.7875007,14.4041943 L4.7167807,14.8991943 C4.6249907,15.5416943 4.3272507,16.1371943 3.8682567,16.5961943 C3.0872087,17.3772943 3.0872087,18.6435943 3.8682567,19.4245943 L4.5753607,20.1316943 C5.3564107,20.9127943 6.6227407,20.9127943 7.4037907,20.1316943 C7.8627807,19.6726943 8.4582607,19.3749943 9.1008507,19.2831943 L9.5958207,19.2124943 C10.2384107,19.1206943 10.8338907,18.8229943 11.2928807,18.3639943 L15.5709707,14.0858943 C16.5415707,14.7289943 17.8622707,14.6228943 18.7174707,13.7676943 C19.5727707,12.9124743 19.6787707,11.5917743 19.0356707,10.6210943 L19.7781707,9.87862429 C21.3402707,8.31652429 21.3402707,5.78386429 19.7781707,4.22176429 Z M12.2742207,6.63151429 L13.6370707,7.53443429 L15.5355707,5.63598429 C16.3165707,4.85493429 17.5828707,4.85493429 18.3639707,5.63598429 C19.1449707,6.41702429 19.1449707,7.68335429 18.3639707,8.46440429 L16.4654707,10.3628643 L17.3683707,11.7257043 C17.4965707,11.9191243 17.4726707,12.1840943 17.3032707,12.3534943 C17.1080707,12.5487543 16.7914707,12.5487543 16.5961707,12.3534943 L11.6464307,7.40374429 C11.4511707,7.20848429 11.4511707,6.89190429 11.6464307,6.69664429 C11.8158407,6.52723429 12.0808007,6.50336429 12.2742207,6.63151429 Z M14.1213707,12.7070743 L11.2929107,9.87865429 L7.0502407,14.1212943 C6.8972407,14.2742943 6.7979907,14.4727943 6.7673907,14.6869943 L6.6966807,15.1819943 C6.5436907,16.2529943 6.0474507,17.2453943 5.2824707,18.0103943 L5.9895807,18.7174943 C6.7545607,17.9524943 7.7470307,17.4562943 8.8180007,17.3032943 L9.3129807,17.2325943 C9.5271707,17.2019943 9.7256707,17.1027943 9.8786607,16.9497943 L14.1213707,12.7070743 Z"></path>
        </g>
    </g>
</svg>