<?xml version="1.0" encoding="UTF-8"?>
<svg width="20px" height="12px" viewBox="0 0 20 12" version="1.1" xmlns="http://www.w3.org/2000/svg" xmlns:xlink="http://www.w3.org/1999/xlink">
    <title>UI icon/trending_up/filled</title>
    <g id="👀-Icons" stroke="none" stroke-width="1" fill="none" fill-rule="evenodd">
        <g id="Union" transform="translate(-2.000000, -6.000000)" fill="#6F767E">
            <path d="M16,6 C15.4477,6 15,6.44771593 15,7 C15,7.55228323 15.4477,8 16,8 L18.5858,8 L13,13.5858058 L10.41421,11.0000104 C9.63316005,10.2189588 8.36683005,10.2189588 7.58579005,11.0000104 L2.29289307,16.2929214 C1.90236898,16.6834223 1.90236898,17.3166236 2.29289307,17.7071244 C2.68341807,18.0976252 3.31658007,18.0976252 3.70711007,17.7071244 L9,12.4142234 L11.58579,15.0000188 C12.3668,15.7810704 13.6332,15.7810704 14.4142,15.0000188 L20,9.41421711 L20,12.0000125 C20,12.5522937 20.4477,13.0000146 21,13.0000146 C21.5523,13.0000146 22,12.5522937 22,12.0000125 L22,7 C22,6.44771593 21.5523,6 21,6 L16,6 Z"></path>
        </g>
    </g>
</svg>