<?xml version="1.0" encoding="UTF-8"?>
<svg width="20px" height="20px" viewBox="0 0 20 20" version="1.1" xmlns="http://www.w3.org/2000/svg" xmlns:xlink="http://www.w3.org/1999/xlink">
    <title>UI icon/web_development/filled</title>
    <g id="👀-Icons" stroke="none" stroke-width="1" fill="none" fill-rule="evenodd">
        <g id="Subtract" transform="translate(-2.000000, -2.000000)" fill="#6F767E">
            <path d="M3,10 C2.447715,10 2,10.447715 2,11 L2,19 C2,20.6569 3.34315,22 5,22 L19,22 C20.6569,22 22,20.6569 22,19 L22,11 C22,10.447715 21.5523,10 21,10 L3,10 Z M15.2929,17.00713 C14.9024,17.39765 14.9024,18.03082 15.2929,18.42134 C15.6834,18.81186 16.3166,18.81186 16.7071,18.42134 L18.4214,16.70705 C18.8119,16.31653 18.8119,15.68336 18.4214,15.29284 L16.7071,13.57855 C16.3166,13.18803 15.6834,13.18803 15.2929,13.57855 C14.9024,13.96908 14.9024,14.60224 15.2929,14.99277 L16.3001,15.99995 L15.2929,17.00713 Z M8.70711,18.42134 C9.09763,18.03082 9.09763,17.39765 8.70711,17.00713 L7.69993,15.99995 L8.70711,14.99276 C9.09763,14.60224 9.09763,13.96908 8.70711,13.57855 C8.31658,13.18803 7.68342,13.18803 7.29289,13.57855 L5.57861,15.29284 C5.18808,15.68336 5.18808,16.31653 5.57861,16.70705 L7.29289,18.42134 C7.68342,18.81186 8.31658,18.81186 8.70711,18.42134 Z M11.89564,12.72529 C12.0474,12.19426 12.6009,11.88677 13.1319,12.03849 C13.6629,12.19021 13.9704,12.7437 13.8187,13.27473 L12.1044,19.27473 C11.95268,19.80577 11.39919,20.1133 10.86816,19.96154 C10.33712,19.80981 10.02963,19.25633 10.18135,18.72529 L11.89564,12.72529 Z"></path>
            <path d="M5,2 C3.34315,2 2,3.34315 2,5 L2,7 C2,7.55228 2.447716,8 3,8 L21,8 C21.5523,8 22,7.55228 22,7 L22,5 C22,3.34315 20.6569,2 19,2 L5,2 Z M5,6 C5.55228,6 6,5.55228 6,5 C6,4.44772 5.55228,4 5,4 C4.44772,4 4,4.44772 4,5 C4,5.55228 4.44772,6 5,6 Z M9,5 C9,5.55228 8.55228,6 8,6 C7.44772,6 7,5.55228 7,5 C7,4.44772 7.44772,4 8,4 C8.55228,4 9,4.44772 9,5 Z M11,6 C11.55228,6 12,5.55228 12,5 C12,4.44772 11.55228,4 11,4 C10.44772,4 10,4.44772 10,5 C10,5.55228 10.44772,6 11,6 Z"></path>
        </g>
    </g>
</svg>