<?xml version="1.0" encoding="UTF-8"?>
<svg width="20px" height="20px" viewBox="0 0 20 20" version="1.1" xmlns="http://www.w3.org/2000/svg" xmlns:xlink="http://www.w3.org/1999/xlink">
    <title>UI icon/web_development/light</title>
    <g id="👀-Icons" stroke="none" stroke-width="1" fill="none" fill-rule="evenodd">
        <g id="编组" transform="translate(-2.000000, -2.000000)" fill="#6F767E">
            <path d="M7,6 C7,6.55228 6.55228,7 6,7 C5.447715,7 5,6.55228 5,6 C5,5.447715 5.447715,5 6,5 C6.55228,5 7,5.447715 7,6 Z" id="Ellipse-201" fill-rule="nonzero"></path>
            <path d="M10,6 C10,6.55228 9.55228,7 9,7 C8.447715,7 8,6.55228 8,6 C8,5.447715 8.447715,5 9,5 C9.55228,5 10,5.447715 10,6 Z" id="Ellipse-202" fill-rule="nonzero"></path>
            <path d="M13,6 C13,6.55228 12.55228,7 12,7 C11.447715,7 11,6.55228 11,6 C11,5.447715 11.447715,5 12,5 C12.55228,5 13,5.447715 13,6 Z" id="Ellipse-203" fill-rule="nonzero"></path>
            <path d="M13.9357133,13.4356894 C14.3262371,13.0451654 14.9593998,13.0451653 15.3499295,13.4356894 L16.357109,14.4428663 L17.3642884,13.4356904 C17.7548082,13.0451661 18.3879779,13.0451661 18.7784977,13.4356904 C19.1690274,13.8262144 19.1690274,14.4593763 18.7784977,14.8499063 L17.0642086,16.5641862 C16.6736888,16.9547162 16.0405292,16.9547162 15.6499994,16.5641862 L13.9357133,14.8499063 C13.5451895,14.4593763 13.5451894,13.8262144 13.9357133,13.4356894 Z" id="Vector-474-(Stroke)" transform="translate(16.357108, 14.999940) rotate(-90.000003) translate(-16.357108, -14.999940) "></path>
            <path d="M5.22148185,13.4357142 C5.61200567,13.0451902 6.24516838,13.0451901 6.6356982,13.4357142 L7.64287774,14.4428912 L8.65005727,13.4357152 C9.04057709,13.0451909 9.6737468,13.0451909 10.0642666,13.4357152 C10.4547964,13.8262392 10.4547964,14.4594012 10.0642666,14.8499312 L8.34997741,16.5642112 C7.95945759,16.9547412 7.32629788,16.9547412 6.93576806,16.5642112 L5.22148185,14.8499312 C4.83095803,14.4594012 4.83095793,13.8262392 5.22148185,13.4357142 Z" id="Vector-601-(Stroke)" transform="translate(7.642876, 14.999965) scale(1, -1) rotate(89.999997) translate(-7.642876, -14.999965) "></path>
            <path d="M10.868135,11.0384761 C11.3991689,10.8867516 11.9526587,11.1942436 12.1043787,11.7252786 L13.8186682,17.7252822 C13.9703881,18.2563121 13.6628982,18.8098021 13.1318584,18.9615221 C12.6008285,19.1132521 12.0473387,18.8057521 11.8956187,18.2747221 L10.1813327,12.2747225 C10.0296083,11.7436866 10.3371002,11.1902006 10.868135,11.0384761 Z" id="Vector-600-(Stroke)" transform="translate(12.000000, 15.000000) scale(1, -1) rotate(180.000000) translate(-12.000000, -15.000000) "></path>
            <path d="M2,5 C2,3.34315 3.34315,2 5,2 L19,2 C20.6569,2 22,3.34315 22,5 L22,19 C22,20.6569 20.6569,22 19,22 L5,22 C3.34315,22 2,20.6569 2,19 L2,5 Z M5,4 L19,4 C19.5523,4 20,4.44771 20,5 L20,8 L4,8 L4,5 C4,4.44772 4.44771,4 5,4 Z M4,10 L4,19 C4,19.5523 4.44772,20 5,20 L19,20 C19.5523,20 20,19.5523 20,19 L20,10 L4,10 Z" id="Union"></path>
        </g>
    </g>
</svg>