<?xml version="1.0" encoding="UTF-8"?>
<svg width="20px" height="20px" viewBox="0 0 20 20" version="1.1" xmlns="http://www.w3.org/2000/svg" xmlns:xlink="http://www.w3.org/1999/xlink">
    <title>UI icon/instagram/light</title>
    <g id="👀-Icons" stroke="none" stroke-width="1" fill="none" fill-rule="evenodd">
        <g id="编组" transform="translate(-2.000000, -2.000000)" fill="#6F767E">
            <path d="M12,15 C13.65685,15 15,13.65685 15,12 C15,10.34315 13.65685,9 12,9 C10.34315,9 9,10.34315 9,12 C9,13.65685 10.34315,15 12,15 Z M12,17 C14.76142,17 17,14.76142 17,12 C17,9.23858 14.76142,7 12,7 C9.23858,7 7,9.23858 7,12 C7,14.76142 9.23858,17 12,17 Z" id="Ellipse-201-(Stroke)"></path>
            <path d="M18,7 C18,7.55228 17.55228,8 17,8 C16.447715,8 16,7.55228 16,7 C16,6.447715 16.447715,6 17,6 C17.55228,6 18,6.447715 18,7 Z" id="Ellipse-202" fill-rule="nonzero"></path>
            <path d="M16,4 L8,4 C5.79086,4 4,5.79086 4,8 L4,16 C4,18.2091 5.79086,20 8,20 L16,20 C18.2091,20 20,18.2091 20,16 L20,8 C20,5.79086 18.2091,4 16,4 Z M8,2 C4.68629,2 2,4.68629 2,8 L2,16 C2,19.3137 4.68629,22 8,22 L16,22 C19.3137,22 22,19.3137 22,16 L22,8 C22,4.68629 19.3137,2 16,2 L8,2 Z" id="Rectangle-259-(Stroke)"></path>
        </g>
    </g>
</svg>