<?xml version="1.0" encoding="UTF-8"?>
<svg width="20px" height="20px" viewBox="0 0 20 20" version="1.1" xmlns="http://www.w3.org/2000/svg" xmlns:xlink="http://www.w3.org/1999/xlink">
    <title>UI icon/table_tennis/filled</title>
    <g id="👀-Icons" stroke="none" stroke-width="1" fill="none" fill-rule="evenodd">
        <g id="编组" transform="translate(-2.000000, -2.000000)" fill="#6F767E" fill-rule="nonzero">
            <g>
                <path d="M11.6151828,19.6275006 C11.8881524,19.3545001 12.2925219,19.2692 12.6664314,19.3652001 C14.9848083,19.9606012 17.5488448,19.3507001 19.3639424,17.5354968 C22.0976387,14.8018718 22.0976387,10.3697037 19.3639424,7.63602869 C16.6302461,4.9023557 12.198132,4.9023557 9.4644657,7.63602869 C7.64931814,9.45118201 7.03941896,12.0151767 7.63477816,14.3335609 C7.73079803,14.7074716 7.64551814,15.1118424 7.37254851,15.3848229 L6.6360395,16.1212942 C5.46446808,17.2928964 5.46446808,19.1923998 6.6360395,20.364002 C7.80760793,21.5355041 9.70710537,21.5355041 10.8786738,20.364002 L11.6151828,19.6275006 Z" id="Union"></path>
                <path d="M8,5 C8,6.65685 6.65685,8 5,8 C3.34315,8 2,6.65685 2,5 C2,3.34315 3.34315,2 5,2 C6.65685,2 8,3.34315 8,5 Z" id="Ellipse-172"></path>
            </g>
        </g>
    </g>
</svg>