<?xml version="1.0" encoding="UTF-8"?>
<svg width="20px" height="20px" viewBox="0 0 20 20" version="1.1" xmlns="http://www.w3.org/2000/svg" xmlns:xlink="http://www.w3.org/1999/xlink">
    <title>UI icon/table_tennis/light</title>
    <defs>
        <rect id="path-1" x="0" y="0" width="24" height="24"></rect>
    </defs>
    <g id="👀-Icons" stroke="none" stroke-width="1" fill="none" fill-rule="evenodd">
        <g id="编组" transform="translate(-2.000000, -2.000000)">
            <mask id="mask-2" fill="white">
                <use xlink:href="#path-1"></use>
            </mask>
            <g id="UI-icon/table_tennis/light-(clip-mask)" fill-rule="nonzero"></g>
            <g id="UI-icon/table_tennis/light-(clip-group)" mask="url(#mask-2)" fill="#6F767E">
                <g transform="translate(1.686279, 2.000000)">
                    <path d="M12.3137133,16.3263904 C12.3137133,15.5542904 12.7581333,14.8510904 13.4555333,14.5197904 C15.1494133,13.7151904 16.3137133,11.9915504 16.3137133,9.99999045 C16.3137133,7.23857045 14.0751333,4.99999045 11.3137133,4.99999045 C8.55229327,4.99999045 6.31371327,7.23857045 6.31371327,9.99999045 C6.31371327,11.9915504 7.47800327,13.7151904 9.17189327,14.5197904 C9.86929327,14.8510904 10.3137133,15.5542904 10.3137133,16.3263904 L10.3137133,17.9999904 C10.3137133,18.5522904 10.7614333,18.9999904 11.3137133,18.9999904 C11.8660033,18.9999904 12.3137133,18.5522904 12.3137133,17.9999904 L12.3137133,16.3263904 Z M14.3137133,16.3263904 L14.3137133,17.9999904 C14.3137133,19.6568904 12.9705633,20.9999904 11.3137133,20.9999904 C9.65686327,20.9999904 8.31371327,19.6568904 8.31371327,17.9999904 L8.31371327,16.3263904 C5.94876327,15.2028904 4.31371327,12.7923904 4.31371327,9.99999045 C4.31371327,6.13400045 7.44772327,2.99999045 11.3137133,2.99999045 C15.1797133,2.99999045 18.3137133,6.13400045 18.3137133,9.99999045 C18.3137133,12.7923904 16.6786133,15.2028904 14.3137133,16.3263904 Z" id="Union-(Stroke)" transform="translate(11.313713, 11.999990) rotate(45.000000) translate(-11.313713, -11.999990) "></path>
                    <path d="M3.3137207,4 C3.8660007,4 4.3137207,3.55228 4.3137207,3 C4.3137207,2.44772 3.8660007,2 3.3137207,2 C2.7614407,2 2.3137207,2.44772 2.3137207,3 C2.3137207,3.55228 2.7614407,4 3.3137207,4 Z M3.3137207,6 C4.9705707,6 6.3137207,4.65685 6.3137207,3 C6.3137207,1.34315 4.9705707,0 3.3137207,0 C1.6568707,0 0.313720703,1.34315 0.313720703,3 C0.313720703,4.65685 1.6568707,6 3.3137207,6 Z" id="Ellipse-172-(Stroke)"></path>
                </g>
            </g>
        </g>
    </g>
</svg>