<?xml version="1.0" encoding="UTF-8"?>
<svg width="12px" height="18px" viewBox="0 0 12 18" version="1.1" xmlns="http://www.w3.org/2000/svg" xmlns:xlink="http://www.w3.org/1999/xlink">
    <title>UI icon/italics/light</title>
    <g id="👀-Icons" stroke="none" stroke-width="1" fill="none" fill-rule="evenodd">
        <g id="编组" transform="translate(-6.000000, -3.000000)" fill="#6F767E" fill-rule="nonzero">
            <g id="Union">
                <path d="M14.02126,3 L16.5,3 C17.0523,3 17.5,3.44771605 17.5,3.99999853 C17.5,4.55229 17.0523,5.0000012 16.5,5.0000012 L14.78077,5.0000012 L11.28077,18.9999985 L13,18.9999985 C13.55228,18.9999985 14,19.4477997 14,20.0000012 C14,20.5523027 13.55228,21.0000039 13,21.0000039 L10.02207,21.0000039 C10.00789,21.0002289 9.99368,21.0002289 9.97943,21.0000039 L7.5,21.0000039 C6.947715,21.0000039 6.5,20.5523027 6.5,20.0000012 C6.5,19.4477997 6.947715,18.9999985 7.5,18.9999985 L9.21921,18.9999985 L12.71921,5.0000012 L11,5.0000012 C10.44772,5.0000012 10,4.55229 10,3.99999853 C10,3.44771605 10.44772,3 11,3 L13.97722,3 C13.99186,2.99975586 14.00654,2.99975586 14.02126,3 Z"></path>
            </g>
        </g>
    </g>
</svg>