<?xml version="1.0" encoding="UTF-8"?>
<svg width="20px" height="20px" viewBox="0 0 20 20" version="1.1" xmlns="http://www.w3.org/2000/svg" xmlns:xlink="http://www.w3.org/1999/xlink">
    <title>UI icon/edit/filled</title>
    <g id="👀-Icons" stroke="none" stroke-width="1" fill="none" fill-rule="evenodd">
        <g id="编组" transform="translate(-2.000000, -2.000000)" fill="#6F767E" fill-rule="nonzero">
            <g id="Vector" transform="translate(2.788911, 2.928918)">
                <path d="M1.19667,18.2622 L6.49997,17.2015 C6.69356,17.1628 6.87136,17.0677 7.01096,16.928 L13.6608,10.2782 C14.0513,9.88768 14.0513,9.25451 13.6608,8.86399 L9.41812,4.62135 C9.02759,4.23082 8.39442,4.23083 8.0039,4.62135 L1.35411,11.2712 C1.21451,11.4108 1.11935,11.5886 1.08064,11.7822 L0.0199751,17.0855 C-0.119968,17.7852 0.49695,18.4021 1.19667,18.2622 Z" id="85E91866-1CF1-40F7-9760-100223C5CA14"></path>
                <path d="M17.4035,2.29289 L15.9893,0.87868 C14.8177,-0.292892 12.9182,-0.292893 11.7466,0.878677 L10.7613,1.86396 C10.3708,2.25449 10.3708,2.88765 10.7613,3.27818 L15.004,7.52082 C15.3945,7.91134 16.0277,7.91134 16.4182,7.52082 L17.4035,6.53554 C18.5751,5.36396 18.5751,3.46447 17.4035,2.29289 Z" id="52D6806E-674D-404A-8AF9-17A8D701AFBF"></path>
            </g>
        </g>
    </g>
</svg>