<?xml version="1.0" encoding="UTF-8"?>
<svg width="20px" height="20px" viewBox="0 0 20 20" version="1.1" xmlns="http://www.w3.org/2000/svg" xmlns:xlink="http://www.w3.org/1999/xlink">
    <title>UI icon/edit/light</title>
    <g id="👀-Icons" stroke="none" stroke-width="1" fill="none" fill-rule="evenodd">
        <g id="Union" transform="translate(-2.000000, -2.000000)" fill="#6F767E">
            <path d="M14.5355238,3.80760014 C15.7071238,2.63602714 17.6066238,2.63602714 18.7782238,3.80759914 L20.1924238,5.22181014 C21.3639238,6.39339014 21.3639238,8.29288014 20.1924238,9.46445014 L9.79988382,19.8569201 C9.66028382,19.9965201 9.48248382,20.0917201 9.28889382,20.1304201 L3.98559382,21.1911201 C3.28587482,21.3310201 2.66895482,20.7141201 2.80889902,20.0144201 L3.86956382,14.7111201 C3.90827382,14.5175201 4.00343382,14.3397201 4.14303382,14.2001201 L14.5355238,3.80760014 Z M17.3639238,5.22181014 L18.7782238,6.63603014 C19.1687238,7.02655014 19.1687238,7.65972014 18.7782238,8.05024014 L17.3639238,9.46446014 L14.5355238,6.63603014 L15.9497238,5.22181014 C16.3403238,4.83129014 16.9734238,4.83129014 17.3639238,5.22181014 Z M13.1213238,8.05024014 L5.77134382,15.4002201 L5.06423382,18.9357201 L8.59976382,18.2286201 L15.9497238,10.8786701 L13.1213238,8.05024014 Z"></path>
        </g>
    </g>
</svg>