<?xml version="1.0" encoding="UTF-8"?>
<svg width="22px" height="22px" viewBox="0 0 22 22" version="1.1" xmlns="http://www.w3.org/2000/svg" xmlns:xlink="http://www.w3.org/1999/xlink">
    <title>UI icon/ruler/filled</title>
    <g id="👀-Icons" stroke="none" stroke-width="1" fill="none" fill-rule="evenodd">
        <g id="Union" transform="translate(-1.000000, -1.000000)" fill="#6F767E">
            <path d="M18.3639548,2.80763483 C17.1924548,1.63606183 15.2929548,1.63606183 14.1213548,2.80763483 L2.80763483,14.1213548 C1.63606183,15.2929548 1.63606183,17.1924548 2.80763483,18.3639548 L5.63606483,21.1924548 C6.80763483,22.3639548 8.70712483,22.3639548 9.87870483,21.1924548 L21.1924548,9.87870483 C22.3639548,8.70712483 22.3639548,6.80763483 21.1924548,5.63606483 L18.3639548,2.80763483 Z M14.8283548,4.92901483 C14.6331548,4.73375483 14.3165548,4.73375483 14.1212548,4.92901483 L13.4141548,5.63612483 C13.2189548,5.83138483 13.2189548,6.14797483 13.4141548,6.34323483 L14.8283548,7.75738483 C15.2188548,8.14790483 15.8520548,8.14791483 16.2425548,7.75738483 C16.6330548,7.36686483 16.6330548,6.73369483 16.2425548,6.34317483 L14.8283548,4.92901483 Z M11.9999548,7.75744483 C11.8046948,7.56218483 11.4881148,7.56218483 11.2928448,7.75744483 L10.5857448,8.46455483 C10.3904748,8.65981483 10.3904748,8.97640483 10.5857448,9.17166483 L11.2927848,9.87870483 C11.6833148,10.2692348 12.3164548,10.2692348 12.7069548,9.87870483 C13.0975548,9.48818483 13.0975548,8.85501483 12.7069548,8.46449483 L11.9999548,7.75744483 Z M9.17152483,10.5858848 C8.97626483,10.3906148 8.65968483,10.3906148 8.46441483,10.5858848 L7.75731483,11.2929848 C7.56204483,11.4882448 7.56204483,11.8048348 7.75731483,12.0000548 L9.17152483,13.4143548 C9.56204483,13.8048548 10.1952148,13.8048548 10.5857348,13.4143548 C10.9762648,13.0237548 10.9762648,12.3906548 10.5857348,12.0000548 L9.17152483,10.5858848 Z M5.63604483,13.4142548 C5.83131483,13.2189548 6.14789483,13.2189548 6.34315483,13.4142548 L7.05026483,14.1213548 C7.44078483,14.5118548 7.44078483,15.1450548 7.05026483,15.5355548 C6.65973483,15.9260548 6.02657483,15.9260548 5.63604483,15.5355548 L4.92894483,14.8284548 C4.73368483,14.6331548 4.73367483,14.3166548 4.92894483,14.1213548 L5.63604483,13.4142548 Z"></path>
        </g>
    </g>
</svg>