<?xml version="1.0" encoding="UTF-8"?>
<svg width="22px" height="22px" viewBox="0 0 22 22" version="1.1" xmlns="http://www.w3.org/2000/svg" xmlns:xlink="http://www.w3.org/1999/xlink">
    <title>UI icon/ruler/light</title>
    <g id="👀-Icons" stroke="none" stroke-width="1" fill="none" fill-rule="evenodd">
        <g id="Union" transform="translate(-1.000000, -1.000000)" fill="#6F767E">
            <path d="M18.3639062,2.80759979 C17.1924062,1.63602679 15.2929062,1.63602679 14.1213062,2.80759879 L2.80758619,14.1213198 C1.63601319,15.2929198 1.63601319,17.1924198 2.80758619,18.3639198 L5.63601619,21.1924198 C6.80758619,22.3639198 8.70707619,22.3639198 9.87865619,21.1924198 L21.1924062,9.87866979 C22.3639062,8.70708979 22.3639062,6.80759979 21.1924062,5.63602979 L18.3639062,2.80759979 Z M16.9497062,4.22180979 C16.5592062,3.83128979 15.9260062,3.83128979 15.5355062,4.22180979 L14.8284062,4.92894979 L16.2426062,6.34319979 C16.6331062,6.73371979 16.6331062,7.36688979 16.2426062,7.75740979 C15.8521062,8.14793979 15.2189062,8.14793979 14.8284062,7.75740979 L13.4141062,6.34316979 L12.0000062,7.75731979 L12.7071062,8.46445979 C13.0977062,8.85497979 13.0977062,9.48814979 12.7071062,9.87866979 C12.3166062,10.2691998 11.6834462,10.2691998 11.2929262,9.87866979 L10.5857862,9.17153979 L9.17153619,10.5857798 L10.5858162,12.0000198 C10.9763362,12.3906198 10.9763362,13.0237198 10.5858162,13.4143198 C10.1952862,13.8048198 9.56212619,13.8048198 9.17159619,13.4143198 L7.75732619,12.0000198 L6.34313619,13.4142198 L7.05027619,14.1213198 C7.44079619,14.5118198 7.44079619,15.1450198 7.05027619,15.5355198 C6.65974619,15.9260198 6.02658619,15.9260198 5.63606619,15.5355198 L4.92892619,14.8284198 L4.22179619,15.5355198 C3.83127619,15.9260198 3.83127619,16.5592198 4.22179619,16.9497198 L7.05022619,19.7781198 C7.44074619,20.1687198 8.07391619,20.1687198 8.46443619,19.7781198 L19.7781062,8.46444979 C20.1687062,8.07392979 20.1687062,7.44075979 19.7781062,7.05023979 L16.9497062,4.22180979 Z"></path>
        </g>
    </g>
</svg>