<?xml version="1.0" encoding="UTF-8"?>
<svg width="20px" height="16px" viewBox="0 0 20 16" version="1.1" xmlns="http://www.w3.org/2000/svg" xmlns:xlink="http://www.w3.org/1999/xlink">
    <title>UI icon/payment/filled</title>
    <g id="👀-Icons" stroke="none" stroke-width="1" fill="none" fill-rule="evenodd">
        <g id="编组" transform="translate(-2.000000, -4.000000)" fill="#6F767E">
            <path d="M3,10 C2.447715,10 2,10.447716 2,11 L2,17 C2,18.65685 3.34315,20 5,20 L19,20 C20.6569,20 22,18.65685 22,17 L22,11 C22,10.447715 21.5523,10 21,10 L3,10 Z M5,14 C4.44772,14 4,14.44772 4,15 C4,15.55228 4.44772,16 5,16 L11,16 C11.55228,16 12,15.55228 12,15 C12,14.44772 11.55228,14 11,14 L5,14 Z" id="Subtract"></path>
            <path d="M2,7 C2,5.34315 3.34315,4 5,4 L19,4 C20.6569,4 22,5.34315 22,7 L22,7 C22,7.55228 21.5523,8 21,8 L3,8 C2.447716,8 2,7.55228 2,7 L2,7 Z" id="Rectangle-191" fill-rule="nonzero"></path>
        </g>
    </g>
</svg>