<?xml version="1.0" encoding="UTF-8"?>
<svg width="20px" height="16px" viewBox="0 0 20 16" version="1.1" xmlns="http://www.w3.org/2000/svg" xmlns:xlink="http://www.w3.org/1999/xlink">
    <title>UI icon/payment/light</title>
    <g id="👀-Icons" stroke="none" stroke-width="1" fill="none" fill-rule="evenodd">
        <g id="编组" transform="translate(-2.000000, -4.000000)" fill="#6F767E">
            <path d="M2,7 C2,5.34315 3.34315,4 5,4 L19,4 C20.6569,4 22,5.34315 22,7 L22,17 C22,18.6569 20.6569,20 19,20 L5,20 C3.34315,20 2,18.6569 2,17 L2,7 Z M5,6 L19,6 C19.5523,6 20,6.44771 20,7 L20,8 L4,8 L4,7 C4,6.44772 4.44772,6 5,6 Z M4,10 L4,17 C4,17.5523 4.44772,18 5,18 L19,18 C19.5523,18 20,17.5523 20,17 L20,10 L4,10 Z" id="Union"></path>
            <path d="M6,15 C6,14.447715 6.447715,14 7,14 L13,14 C13.55228,14 14,14.447715 14,15 C14,15.55228 13.55228,16 13,16 L7,16 C6.447715,16 6,15.55228 6,15 Z" id="Vector-478-(Stroke)"></path>
        </g>
    </g>
</svg>