<?xml version="1.0" encoding="UTF-8"?>
<svg width="16px" height="19px" viewBox="0 0 16 19" version="1.1" xmlns="http://www.w3.org/2000/svg" xmlns:xlink="http://www.w3.org/1999/xlink">
    <title>UI icon/arrow_up/filled</title>
    <g id="👀-Icons" stroke="none" stroke-width="1" fill="none" fill-rule="evenodd">
        <g id="编组" transform="translate(-4.000000, -2.000000)" fill="#6F767E" fill-rule="nonzero">
            <g id="Union">
                <path d="M6.20711291,10.7070979 C5.81658226,11.0976276 5.18341821,11.0976276 4.79289356,10.7070979 C4.40236881,10.3165782 4.40236881,9.68340865 4.79289356,9.29288893 L10.5858002,3.50000011 C11.3668415,2.71895267 12.6331736,2.71895067 13.4142249,3.49999911 L19.2071245,9.29288893 C19.5976252,9.68340865 19.5976252,10.3165782 19.2071245,10.7070979 C18.8166239,11.0976276 18.1834228,11.0976276 17.7929222,10.7070979 L13.0000142,5.91421366 L13.0000142,20.0000012 C13.0000142,20.5523008 12.5523035,21.0000005 12.0000125,21.0000005 C11.4477316,21.0000005 11.0000109,20.5523008 11.0000109,20.0000012 L11.0000109,5.91421366 L6.20711291,10.7070979 Z"></path>
            </g>
        </g>
    </g>
</svg>