<?xml version="1.0" encoding="UTF-8"?>
<svg width="22px" height="18px" viewBox="0 0 22 18" version="1.1" xmlns="http://www.w3.org/2000/svg" xmlns:xlink="http://www.w3.org/1999/xlink">
    <title>UI icon/layers/filled</title>
    <g id="👀-Icons" stroke="none" stroke-width="1" fill="none" fill-rule="evenodd">
        <g id="编组" transform="translate(-1.000000, -3.000000)" fill="#6F767E">
            <path d="M2.05778531,12.3949863 C2.24280644,11.8746151 2.81463821,11.60276 3.33500701,11.7877809 L11.3299739,14.6304344 C11.7633637,14.7845345 12.2366235,14.7845345 12.6700233,14.6304344 L20.6650202,11.7877809 C21.18532,11.60276 21.7572198,11.8746151 21.9422197,12.3949863 C22.1272196,12.9153536 21.8554197,13.4871939 21.3350199,13.672214 L13.3400231,16.5148653 C12.4732234,16.8230555 11.5267338,16.8230555 10.6599541,16.5148653 L2.66499027,13.672214 C2.14461948,13.4871939 1.87276458,12.9153536 2.05778531,12.3949863 Z" id="Vector-667-(Stroke)"></path>
            <path d="M2.05778531,16.6449863 C2.24280644,16.1246151 2.81463821,15.85276 3.33500701,16.0377809 L11.3299739,18.8804344 C11.7633637,19.0345345 12.2366235,19.0345345 12.6700233,18.8804344 L20.6650202,16.0377809 C21.18532,15.85276 21.7572198,16.1246151 21.9422197,16.6449863 C22.1272196,17.1653536 21.8554197,17.7371939 21.3350199,17.922214 L13.3400231,20.7648653 C12.4732234,21.0730555 11.5267338,21.0730555 10.6599541,20.7648653 L2.66499027,17.922214 C2.14461948,17.7371939 1.87276458,17.1653536 2.05778531,16.6449863 Z" id="Vector-669-(Stroke)"></path>
            <path d="M13.7087741,3.30728924 C12.6050737,2.90591223 11.3951733,2.90591123 10.291383,3.30728924 L3.2427806,5.87041632 C1.48743901,6.50872634 1.48742601,8.99127642 3.2427806,9.62958644 L10.291383,12.1927165 C11.3951733,12.5940965 12.6050737,12.5940965 13.7087741,12.1927165 L20.7573765,9.62958644 C22.5127771,8.99128642 22.5127771,6.50872634 20.7573765,5.87041632 L13.7087741,3.30728924 Z" id="Union" fill-rule="nonzero"></path>
        </g>
    </g>
</svg>