<?xml version="1.0" encoding="UTF-8"?>
<svg width="22px" height="18px" viewBox="0 0 22 18" version="1.1" xmlns="http://www.w3.org/2000/svg" xmlns:xlink="http://www.w3.org/1999/xlink">
    <title>UI icon/layers/light</title>
    <g id="👀-Icons" stroke="none" stroke-width="1" fill="none" fill-rule="evenodd">
        <g id="编组" transform="translate(-1.000000, -3.000000)" fill="#6F767E">
            <path d="M13.0252738,5.18687456 C12.3629738,4.94604456 11.6370438,4.94604456 10.9747738,5.18687456 L3.92617384,7.75000456 L10.9747738,10.3131246 C11.6370438,10.5539546 12.3629738,10.5539546 13.0252738,10.3131246 L20.0738738,7.75000456 L13.0252738,5.18687456 Z M10.2912838,3.30728756 C11.3950738,2.90590956 12.6049738,2.90591056 13.7086738,3.30728756 L20.7572738,5.87041456 C22.5126738,6.50872456 22.5126738,8.99128456 20.7572738,9.62958456 L13.7086738,12.1927146 C12.6049738,12.5940946 11.3950738,12.5940946 10.2912838,12.1927146 L3.24268384,9.62958456 C1.48732984,8.99127456 1.48734284,6.50872456 3.24268384,5.87041456 L10.2912838,3.30728756 Z" id="Rectangle-207-(Stroke)"></path>
            <path d="M2.05778531,12.3949863 C2.24280644,11.8746151 2.81463821,11.60276 3.33500701,11.7877809 L11.3299739,14.6304344 C11.7633637,14.7845345 12.2366235,14.7845345 12.6700233,14.6304344 L20.6650202,11.7877809 C21.18532,11.60276 21.7572198,11.8746151 21.9422197,12.3949863 C22.1272196,12.9153536 21.8554197,13.4871939 21.3350199,13.672214 L13.3400231,16.5148653 C12.4732234,16.8230555 11.5267338,16.8230555 10.6599541,16.5148653 L2.66499027,13.672214 C2.14461948,13.4871939 1.87276458,12.9153536 2.05778531,12.3949863 Z" id="Vector-667-(Stroke)"></path>
            <path d="M2.05778531,16.6449863 C2.24280644,16.1246151 2.81463821,15.85276 3.33500701,16.0377809 L11.3299739,18.8804344 C11.7633637,19.0345345 12.2366235,19.0345345 12.6700233,18.8804344 L20.6650202,16.0377809 C21.18532,15.85276 21.7572198,16.1246151 21.9422197,16.6449863 C22.1272196,17.1653536 21.8554197,17.7371939 21.3350199,17.922214 L13.3400231,20.7648653 C12.4732234,21.0730555 11.5267338,21.0730555 10.6599541,20.7648653 L2.66499027,17.922214 C2.14461948,17.7371939 1.87276458,17.1653536 2.05778531,16.6449863 Z" id="Vector-669-(Stroke)"></path>
        </g>
    </g>
</svg>