<?xml version="1.0" encoding="UTF-8"?>
<svg width="18px" height="19px" viewBox="0 0 18 19" version="1.1" xmlns="http://www.w3.org/2000/svg" xmlns:xlink="http://www.w3.org/1999/xlink">
    <title>UI icon/pizza/filled</title>
    <g id="👀-Icons" stroke="none" stroke-width="1" fill="none" fill-rule="evenodd">
        <g id="编组" transform="translate(-3.000000, -2.000000)" fill="#6F767E">
            <g id="Subtract" transform="translate(3.429688, 2.907837)">
                <path d="M8.52908,0.276547 C7.05425,-0.478475 5.33977,0.388105 4.81363,1.9592 L4.52752,2.81353 C6.85318,3.66085 8.96756,5.00652 10.7214,6.7582 C12.4755,8.51017 13.8239,10.6233 14.6741,12.9483 L15.5286,12.661 C17.099,12.1329 17.9635,10.4174 17.2067,8.94347 C16.2585,7.09701 15.0259,5.40386 13.5486,3.92844 C12.0714,2.45301 10.3767,1.22242 8.52908,0.276547 Z" id="4F8CD34B-3245-4234-B760-7942455D3A09" fill-rule="nonzero"></path>
                <path d="M12.7777,13.586 C12.0266,11.5539 10.8434,9.70679 9.30806,8.17329 C7.77295,6.64007 5.9248,5.45938 3.89216,4.71075 L3.23941,6.65991 C3.13257,6.97895 3.36775,7.3111 3.6938,7.39412 C4.19878,7.5227 4.6768,7.78459 5.072,8.17979 C6.24358,9.35136 6.24358,11.2509 5.072,12.4224 C4.18576,13.3087 2.88298,13.5245 1.79385,13.07 C1.48316,12.9403 1.09484,13.0637 0.987935,13.383 L0.0535119,16.1732 C-0.208757,16.9564 0.537646,17.7018 1.32048,17.4386 L12.7777,13.586 Z M7.90056,12.4225 C8.29108,12.813 8.92425,12.813 9.31477,12.4225 C9.7053,12.0319 9.7053,11.3988 9.31477,11.0083 C8.92425,10.6177 8.29108,10.6177 7.90056,11.0083 C7.51004,11.3988 7.51004,12.0319 7.90056,12.4225 Z" id="F189C2EF-017F-4801-B81D-4681B46AD264"></path>
            </g>
        </g>
    </g>
</svg>