<?xml version="1.0" encoding="UTF-8"?>
<svg width="18px" height="18px" viewBox="0 0 18 18" version="1.1" xmlns="http://www.w3.org/2000/svg" xmlns:xlink="http://www.w3.org/1999/xlink">
    <title>UI icon/pizza/light</title>
    <g id="👀-Icons" stroke="none" stroke-width="1" fill="none" fill-rule="evenodd">
        <g id="编组" transform="translate(-3.000000, -3.000000)" fill="#6F767E">
            <g id="Union" transform="translate(3.510498, 2.999634)">
                <path d="M8.60759,11.7153 C8.99811,12.1058 9.63128,12.1058 10.0218,11.7153 C10.4123,11.3248 10.4123,10.6916 10.0218,10.3011 C9.63128,9.91055 8.99811,9.91055 8.60759,10.3011 C8.21707,10.6916 8.21707,11.3248 8.60759,11.7153 Z" id="F2E77827-E0E5-4BBF-B269-FB3C33F0A1D6" fill-rule="nonzero"></path>
                <path d="M4.81363,1.9592 L0.0535119,16.1732 C0.0171408,16.2818 -8.17987394e-12,16.3897 -8.17987394e-12,16.4943 C-0.00105805,17.1437 0.646195,17.6654 1.32047,17.4386 L15.5286,12.661 C17.099,12.1329 17.9635,10.4174 17.2067,8.94347 C16.2585,7.09701 15.0259,5.40386 13.5486,3.92844 C12.0714,2.45301 10.3767,1.22242 8.52908,0.276547 C7.05425,-0.478475 5.33977,0.388105 4.81363,1.9592 Z M12.1353,5.34352 C10.8058,4.01564 9.28057,2.90811 7.61768,2.05682 C7.47294,1.98272 7.32809,1.97968 7.16555,2.05599 C6.98563,2.14046 6.80102,2.32284 6.71011,2.59431 L6.3527,3.66158 C7.96849,4.43906 9.4465,5.48478 10.7219,6.75864 C11.9973,8.03248 13.0449,9.5092 13.8244,11.124 L14.8912,10.7653 C15.1625,10.674 15.3447,10.4892 15.4289,10.3092 C15.505,10.1466 15.5018,10.0017 15.4275,9.85706 C14.5742,8.19523 13.4648,6.6714 12.1353,5.34352 Z M5.10311,7.39293 L5.71185,5.57522 C7.03748,6.24277 8.25242,7.11885 9.30859,8.17372 C10.3648,9.22858 11.2423,10.4424 11.9115,11.7672 L2.58833,14.9022 L3.20268,13.0677 C4.29291,13.5253 5.59856,13.3102 6.48628,12.4225 C7.65785,11.2509 7.65785,9.35143 6.48628,8.17986 C6.08978,7.78336 5.60992,7.52106 5.10311,7.39293 Z M5.07206,11.0083 C4.73869,11.3417 4.22849,11.3904 3.84336,11.1546 L4.46248,9.30592 C4.68499,9.32759 4.90164,9.42364 5.07206,9.59407 C5.46259,9.9846 5.46259,10.6178 5.07206,11.0083 Z" id="8FD5C213-DC5D-4CA3-8520-94D9A99AEA9D"></path>
            </g>
        </g>
    </g>
</svg>