<?xml version="1.0" encoding="UTF-8"?>
<svg width="20px" height="20px" viewBox="0 0 20 20" version="1.1" xmlns="http://www.w3.org/2000/svg" xmlns:xlink="http://www.w3.org/1999/xlink">
    <title>UI icon/loader/filled</title>
    <g id="👀-Icons" stroke="none" stroke-width="1" fill="none" fill-rule="evenodd">
        <g id="编组" transform="translate(-2.000000, -2.000000)" fill="#6F767E">
            <path d="M12,2 C12.55228,2 13,2.447715 13,3 L13,5 C13,5.55228 12.55228,6 12,6 C11.447715,6 11,5.55228 11,5 L11,3 C11,2.447715 11.447715,2 12,2 Z" id="Vector-465-(Stroke)"></path>
            <path d="M12,18 C12.55228,18 13,18.447715 13,19 L13,21 C13,21.55228 12.55228,22 12,22 C11.447715,22 11,21.55228 11,21 L11,19 C11,18.447715 11.447715,18 12,18 Z" id="Vector-466-(Stroke)"></path>
            <path d="M6.3431519,4.34317883 C6.8954319,4.34317883 7.3431519,4.79089383 7.3431519,5.34317883 L7.3431519,7.34317883 C7.3431519,7.89545883 6.8954319,8.34317883 6.3431519,8.34317883 C5.7908669,8.34317883 5.3431519,7.89545883 5.3431519,7.34317883 L5.3431519,5.34317883 C5.3431519,4.79089383 5.7908669,4.34317883 6.3431519,4.34317883 Z" id="Vector-465-(Stroke)" transform="translate(6.343152, 6.343179) rotate(-45.000000) translate(-6.343152, -6.343179) "></path>
            <path d="M17.6568733,15.656882 C18.2091533,15.656882 18.6568733,16.104597 18.6568733,16.656882 L18.6568733,18.656882 C18.6568733,19.209162 18.2091533,19.656882 17.6568733,19.656882 C17.1045883,19.656882 16.6568733,19.209162 16.6568733,18.656882 L16.6568733,16.656882 C16.6568733,16.104597 17.1045883,15.656882 17.6568733,15.656882 Z" id="Vector-466-(Stroke)" transform="translate(17.656873, 17.656882) rotate(-45.000000) translate(-17.656873, -17.656882) "></path>
            <path d="M4.00000665,9.9999931 C4.55228665,9.9999931 5.00000665,10.4477081 5.00000665,10.9999931 L5.00000665,12.9999931 C5.00000665,13.5522731 4.55228665,13.9999931 4.00000665,13.9999931 C3.44772165,13.9999931 3.00000665,13.5522731 3.00000665,12.9999931 L3.00000665,10.9999931 C3.00000665,10.4477081 3.44772165,9.9999931 4.00000665,9.9999931 Z" id="Vector-465-(Stroke)" transform="translate(4.000007, 11.999993) rotate(-89.999999) translate(-4.000007, -11.999993) "></path>
            <path d="M20.0000067,9.99999238 C20.5522867,9.99999238 21.0000067,10.4477074 21.0000067,10.9999924 L21.0000067,12.9999924 C21.0000067,13.5522724 20.5522867,13.9999924 20.0000067,13.9999924 C19.4477217,13.9999924 19.0000067,13.5522724 19.0000067,12.9999924 L19.0000067,10.9999924 C19.0000067,10.4477074 19.4477217,9.99999238 20.0000067,9.99999238 Z" id="Vector-466-(Stroke)" transform="translate(20.000007, 11.999992) rotate(-89.999999) translate(-20.000007, -11.999992) "></path>
            <path d="M6.34321429,15.6569002 C6.89549429,15.6569002 7.34321429,16.1046152 7.34321429,16.6569002 L7.34321429,18.6569002 C7.34321429,19.2091802 6.89549429,19.6569002 6.34321429,19.6569002 C5.79092929,19.6569002 5.34321429,19.2091802 5.34321429,18.6569002 L5.34321429,16.6569002 C5.34321429,16.1046152 5.79092929,15.6569002 6.34321429,15.6569002 Z" id="Vector-465-(Stroke)" transform="translate(6.343214, 17.656900) rotate(-135.000000) translate(-6.343214, -17.656900) "></path>
            <path d="M17.656935,4.34316197 C18.209215,4.34316197 18.656935,4.79087697 18.656935,5.34316197 L18.656935,7.34316197 C18.656935,7.89544197 18.209215,8.34316197 17.656935,8.34316197 C17.10465,8.34316197 16.656935,7.89544197 16.656935,7.34316197 L16.656935,5.34316197 C16.656935,4.79087697 17.10465,4.34316197 17.656935,4.34316197 Z" id="Vector-466-(Stroke)" transform="translate(17.656935, 6.343162) rotate(-135.000000) translate(-17.656935, -6.343162) "></path>
        </g>
    </g>
</svg>