<?xml version="1.0" encoding="UTF-8"?>
<svg width="20px" height="20px" viewBox="0 0 20 20" version="1.1" xmlns="http://www.w3.org/2000/svg" xmlns:xlink="http://www.w3.org/1999/xlink">
    <title>UI icon/loader/light</title>
    <g id="👀-Icons" stroke="none" stroke-width="1" fill="none" fill-rule="evenodd">
        <g id="编组" transform="translate(-2.000000, -2.000000)" fill="#6F767E">
            <path d="M12,2 C12.55228,2 13,2.447715 13,3 L13,5 C13,5.55228 12.55228,6 12,6 C11.447715,6 11,5.55228 11,5 L11,3 C11,2.447715 11.447715,2 12,2 Z" id="Vector-465-(Stroke)"></path>
            <path d="M12,18 C12.55228,18 13,18.447715 13,19 L13,21 C13,21.55228 12.55228,22 12,22 C11.447715,22 11,21.55228 11,21 L11,19 C11,18.447715 11.447715,18 12,18 Z" id="Vector-466-(Stroke)"></path>
            <path d="M6.34316084,4.34315725 C6.89544084,4.34315725 7.34316084,4.79087225 7.34316084,5.34315725 L7.34316084,7.34315725 C7.34316084,7.89543725 6.89544084,8.34315725 6.34316084,8.34315725 C5.79087584,8.34315725 5.34316084,7.89543725 5.34316084,7.34315725 L5.34316084,5.34315725 C5.34316084,4.79087225 5.79087584,4.34315725 6.34316084,4.34315725 Z" id="Vector-465-(Stroke)" transform="translate(6.343161, 6.343157) rotate(-45.000000) translate(-6.343161, -6.343157) "></path>
            <path d="M17.6568822,15.6568604 C18.2091622,15.6568604 18.6568822,16.1045754 18.6568822,16.6568604 L18.6568822,18.6568604 C18.6568822,19.2091404 18.2091622,19.6568604 17.6568822,19.6568604 C17.1045972,19.6568604 16.6568822,19.2091404 16.6568822,18.6568604 L16.6568822,16.6568604 C16.6568822,16.1045754 17.1045972,15.6568604 17.6568822,15.6568604 Z" id="Vector-466-(Stroke)" transform="translate(17.656882, 17.656860) rotate(-45.000000) translate(-17.656882, -17.656860) "></path>
            <path d="M4.00000665,9.9999931 C4.55228665,9.9999931 5.00000665,10.4477081 5.00000665,10.9999931 L5.00000665,12.9999931 C5.00000665,13.5522731 4.55228665,13.9999931 4.00000665,13.9999931 C3.44772165,13.9999931 3.00000665,13.5522731 3.00000665,12.9999931 L3.00000665,10.9999931 C3.00000665,10.4477081 3.44772165,9.9999931 4.00000665,9.9999931 Z" id="Vector-465-(Stroke)" transform="translate(4.000007, 11.999993) rotate(-89.999999) translate(-4.000007, -11.999993) "></path>
            <path d="M20.0000067,9.99999238 C20.5522867,9.99999238 21.0000067,10.4477074 21.0000067,10.9999924 L21.0000067,12.9999924 C21.0000067,13.5522724 20.5522867,13.9999924 20.0000067,13.9999924 C19.4477217,13.9999924 19.0000067,13.5522724 19.0000067,12.9999924 L19.0000067,10.9999924 C19.0000067,10.4477074 19.4477217,9.99999238 20.0000067,9.99999238 Z" id="Vector-466-(Stroke)" transform="translate(20.000007, 11.999992) rotate(-89.999999) translate(-20.000007, -11.999992) "></path>
            <path d="M6.343058,15.6569649 C6.895338,15.6569649 7.343058,16.1046799 7.343058,16.6569649 L7.343058,18.6569649 C7.343058,19.2092449 6.895338,19.6569649 6.343058,19.6569649 C5.790773,19.6569649 5.343058,19.2092449 5.343058,18.6569649 L5.343058,16.6569649 C5.343058,16.1046799 5.790773,15.6569649 6.343058,15.6569649 Z" id="Vector-465-(Stroke)" transform="translate(6.343058, 17.656965) rotate(-135.000000) translate(-6.343058, -17.656965) "></path>
            <path d="M17.6567787,4.34322671 C18.2090587,4.34322671 18.6567787,4.79094171 18.6567787,5.34322671 L18.6567787,7.34322671 C18.6567787,7.89550671 18.2090587,8.34322671 17.6567787,8.34322671 C17.1044937,8.34322671 16.6567787,7.89550671 16.6567787,7.34322671 L16.6567787,5.34322671 C16.6567787,4.79094171 17.1044937,4.34322671 17.6567787,4.34322671 Z" id="Vector-466-(Stroke)" transform="translate(17.656779, 6.343227) rotate(-135.000000) translate(-17.656779, -6.343227) "></path>
        </g>
    </g>
</svg>