<?xml version="1.0" encoding="UTF-8"?>
<svg width="20px" height="20px" viewBox="0 0 20 20" version="1.1" xmlns="http://www.w3.org/2000/svg" xmlns:xlink="http://www.w3.org/1999/xlink">
    <title>UI icon/basket/filled</title>
    <g id="👀-Icons" stroke="none" stroke-width="1" fill="none" fill-rule="evenodd">
        <g id="Subtract" transform="translate(-2.000000, -1.000000)" fill="#6F767E">
            <path d="M9.87858201,2.70711005 L5.58569201,7.00000005 L3.15302201,7.00000005 C2.54447101,7.00000005 2.07700851,7.53899005 2.16307041,8.14142005 L3.63205201,18.4242301 C3.84318201,19.9022301 5.10894201,21.0000301 6.60190201,21.0000301 L17.398132,21.0000301 C18.891032,21.0000301 20.156832,19.9022301 20.367932,18.4242301 L21.836932,8.14142005 C21.923032,7.53899005 21.455532,7.00000005 20.847032,7.00000005 L18.414132,7.00000005 L14.121232,2.70710905 C12.949632,1.53553605 11.050162,1.53553805 9.87858201,2.70711005 Z M12.707032,4.12132005 C12.316532,3.73080005 11.683322,3.73080005 11.292802,4.12132005 L8.41412201,7.00000005 L15.585732,7.00000005 L12.707032,4.12132005 Z M9.00000201,12.0000301 C9.00000201,11.4477101 8.55228201,11.0000001 8.00000201,11.0000001 C7.44771201,11.0000001 7.00000201,11.4477101 7.00000201,12.0000301 L7.00000201,16.0000301 C7.00000201,16.5523301 7.44771201,17.0000301 8.00000201,17.0000301 C8.55228201,17.0000301 9.00000201,16.5523301 9.00000201,16.0000301 L9.00000201,12.0000301 Z M12.000002,11.0000001 C12.552332,11.0000001 13.000032,11.4477101 13.000032,12.0000301 L13.000032,16.0000301 C13.000032,16.5523301 12.552332,17.0000301 12.000002,17.0000301 C11.447712,17.0000301 11.000002,16.5523301 11.000002,16.0000301 L11.000002,12.0000301 C11.000002,11.4477101 11.447712,11.0000001 12.000002,11.0000001 Z M17.000032,12.0000301 C17.000032,11.4477101 16.552332,11.0000001 16.000032,11.0000001 C15.447732,11.0000001 15.000032,11.4477101 15.000032,12.0000301 L15.000032,16.0000301 C15.000032,16.5523301 15.447732,17.0000301 16.000032,17.0000301 C16.552332,17.0000301 17.000032,16.5523301 17.000032,16.0000301 L17.000032,12.0000301 Z"></path>
        </g>
    </g>
</svg>