<?xml version="1.0" encoding="UTF-8"?>
<svg width="20px" height="20px" viewBox="0 0 20 20" version="1.1" xmlns="http://www.w3.org/2000/svg" xmlns:xlink="http://www.w3.org/1999/xlink">
    <title>UI icon/basket/light</title>
    <g id="👀-Icons" stroke="none" stroke-width="1" fill="none" fill-rule="evenodd">
        <g id="编组" transform="translate(-2.000000, -1.000000)" fill="#6F767E">
            <path d="M5.58582201,7.00000005 L9.87871201,2.70711005 C11.050282,1.53553805 12.949732,1.53553605 14.121332,2.70710905 L18.414232,7.00000005 L20.847032,7.00000005 C21.455532,7.00000005 21.923032,7.53899005 21.836932,8.14142005 L20.367932,18.4242301 C20.156832,19.9022301 18.891032,21.0000301 17.398132,21.0000301 L6.60190201,21.0000301 C5.10894201,21.0000301 3.84318201,19.9022301 3.63205201,18.4242301 L2.16307041,8.14142005 C2.07700851,7.53899005 2.54447101,7.00000005 3.15302201,7.00000005 L5.58582201,7.00000005 Z M11.292922,4.12132005 C11.683442,3.73080005 12.316632,3.73080005 12.707132,4.12132005 L15.585832,7.00000005 L8.41424201,7.00000005 L11.292922,4.12132005 Z M4.30603201,9.00000005 L5.61195201,18.1414301 C5.68232201,18.6340301 6.10424201,19.0000301 6.60190201,19.0000301 L17.398132,19.0000301 C17.895732,19.0000301 18.317732,18.6340301 18.388032,18.1414301 L19.694032,9.00000005 L4.30603201,9.00000005 Z" id="Union"></path>
            <path d="M8,11 C8.55228,11 9,11.447715 9,12 L9,16 C9,16.55228 8.55228,17 8,17 C7.447715,17 7,16.55228 7,16 L7,12 C7,11.447715 7.447715,11 8,11 Z" id="Vector-606-(Stroke)"></path>
            <path d="M12,11 C12.55228,11 13,11.447715 13,12 L13,16 C13,16.55228 12.55228,17 12,17 C11.447715,17 11,16.55228 11,16 L11,12 C11,11.447715 11.447715,11 12,11 Z" id="Vector-607-(Stroke)"></path>
            <path d="M16,11 C16.55228,11 17,11.447715 17,12 L17,16 C17,16.55228 16.55228,17 16,17 C15.447715,17 15,16.55228 15,16 L15,12 C15,11.447715 15.447715,11 16,11 Z" id="Vector-608-(Stroke)"></path>
        </g>
    </g>
</svg>