<?xml version="1.0" encoding="UTF-8"?>
<svg width="20px" height="20px" viewBox="0 0 20 20" version="1.1" xmlns="http://www.w3.org/2000/svg" xmlns:xlink="http://www.w3.org/1999/xlink">
    <title>UI icon/image/filled</title>
    <g id="👀-Icons" stroke="none" stroke-width="1" fill="none" fill-rule="evenodd">
        <g id="Subtract" transform="translate(-2.000000, -2.000000)" fill="#6F767E">
            <path d="M2,5 C2,3.34315 3.34315,2 5,2 L19,2 C20.6569,2 22,3.34315 22,5 L22,19 C22,20.6569 20.6569,22 19,22 L5,22 C3.34315,22 2,20.6569 2,19 L2,5 Z M19.0831,19.9966 C19.5656,19.9569 19.5575,19.3462 19.2305,18.9891 L10.56905,9.52987 C9.34177,8.19102 7.21566,8.24121 6.05292,9.63649 L4.23178,11.82187 C4.08202,12.0016 4,12.2281 4,12.462 L4,19 C4,19.5523 4.44772,20 5,20 L19,20 C19.028,20 19.0557,19.9988 19.0831,19.9966 Z M17,9 C18.1046,9 19,8.10457 19,7 C19,5.89543 18.1046,5 17,5 C15.8954,5 15,5.89543 15,7 C15,8.10457 15.8954,9 17,9 Z"></path>
        </g>
    </g>
</svg>