<?xml version="1.0" encoding="UTF-8"?>
<svg width="20px" height="20px" viewBox="0 0 20 20" version="1.1" xmlns="http://www.w3.org/2000/svg" xmlns:xlink="http://www.w3.org/1999/xlink">
    <title>UI icon/image/light</title>
    <g id="👀-Icons" stroke="none" stroke-width="1" fill="none" fill-rule="evenodd">
        <g id="编组" transform="translate(-2.000000, -2.000000)" fill="#6F767E">
            <g id="Vector" transform="translate(2.000000, 2.000000)">
                <path d="M14,8 C15.1046,8 16,7.10457 16,6 C16,4.89543 15.1046,4 14,4 C12.8954,4 12,4.89543 12,6 C12,7.10457 12.8954,8 14,8 Z" id="53F181DD-0B43-4C8E-867D-63AC08B3DF29"></path>
                <path d="M0,3 C0,1.34315 1.34315,0 3,0 L17,0 C18.6569,0 20,1.34315 20,3 L20,17 C20,18.6569 18.6569,20 17,20 L3,20 C1.34315,20 0,18.6569 0,17 L0,3 Z M3,2 L17,2 C17.5523,2 18,2.44771 18,3 L18,17 C18,17.2279 17.9238,17.438 17.7954,17.6061 C17.7648,17.5653 17.7316,17.5254 17.6959,17.4864 L8.56905,7.52987 C7.34177,6.19102 5.21566,6.24121 4.05292,7.63649 L2,10.1 L2,3 C2,2.44772 2.44771,2 3,2 Z M2,13.2241 L2,17 C2,17.5523 2.44772,18 3,18 L15.4535,18 L7.09474,8.88132 C6.68565,8.43503 5.97694,8.45177 5.58937,8.91686 L2,13.2241 Z" id="4938D0C9-2729-4849-B255-AF89A5F9AB41"></path>
            </g>
        </g>
    </g>
</svg>