<?xml version="1.0" encoding="UTF-8"?>
<svg width="20px" height="20px" viewBox="0 0 20 20" version="1.1" xmlns="http://www.w3.org/2000/svg" xmlns:xlink="http://www.w3.org/1999/xlink">
    <title>UI icon/video_off/filled</title>
    <g id="👀-Icons" stroke="none" stroke-width="1" fill="none" fill-rule="evenodd">
        <g id="编组" transform="translate(-2.000000, -2.000000)" fill="#6F767E">
            <g id="Subtract" transform="translate(2.000000, 5.000000)" fill-rule="nonzero">
                <path d="M4.41586,0 L3,0 C1.34315,0 0,1.34315 0,3 L0,11 C0,12.6569 1.34315,14 3,14 L12,14 C13.6569,14 15,12.6569 15,11 L15,10.5841 L4.41586,0 Z" id="A391A4FF-DB3D-4AE7-851D-FE27D478A413"></path>
                <path d="M19.0564,11.8121 C19.6083,11.4703 20,10.8644 20,10.1136 L20,3.88638 C20,2.25963 18.1613,1.31339 16.8375,2.25891 L15,3.57143 L15,3 C15,1.34315 13.6569,0 12,0 L7.24429,0 L19.0564,11.8121 Z" id="3242D999-53D1-4C05-8543-DCCCB46D51BD"></path>
            </g>
            <path d="M2.29289344,2.29289344 C2.68341793,1.90236885 3.31658172,1.90236885 3.7071122,2.29289344 L21.7071246,20.2929229 C22.0976251,20.6834234 22.0976251,21.3166241 21.7071246,21.7071246 C21.3166241,22.0976251 20.6834234,22.0976251 20.2929229,21.7071246 L2.29289344,3.7071122 C1.90236885,3.31658172 1.90236885,2.68341793 2.29289344,2.29289344 Z" id="Vector-606-(Stroke)"></path>
        </g>
    </g>
</svg>