<?xml version="1.0" encoding="UTF-8"?>
<svg width="20px" height="20px" viewBox="0 0 20 20" version="1.1" xmlns="http://www.w3.org/2000/svg" xmlns:xlink="http://www.w3.org/1999/xlink">
    <title>UI icon/video_off/light</title>
    <g id="👀-Icons" stroke="none" stroke-width="1" fill="none" fill-rule="evenodd">
        <g id="编组" transform="translate(-2.000000, -2.000000)" fill="#6F767E">
            <g id="Subtract" transform="translate(2.000000, 5.000000)" fill-rule="nonzero">
                <path d="M4.4158,0 L3,0 C1.34315,0 0,1.34315 0,3 L0,11 C0,12.6569 1.34315,14 3,14 L12,14 C13.6569,14 15,12.6569 15,11 L15,10.5842 L13,8.5842 L13,11 C13,11.5523 12.5523,12 12,12 L3,12 C2.44772,12 2,11.5523 2,11 L2,3 C2,2.44772 2.44772,2 3,2 L6.4158,2 L4.4158,0 Z" id="93143092-2EB7-4D27-8217-FC69E929D6C5"></path>
                <path d="M13,5.75577 L13,3 C13,2.44772 12.5523,2 12,2 L9.24423,2 L7.24423,0 L12,0 C13.6569,0 15,1.34315 15,3 L15,3.57145 L16.8375,2.25893 C18.1613,1.31341 20,2.25965 20,3.8864 L20,10.1136 C20,10.8645 19.6083,11.4703 19.0563,11.8121 L18,10.7558 L18,3.8864 L15,6.02926 L15,7.75577 L13,5.75577 Z" id="71A772F6-CDAD-4346-BD6A-7F8DE3CFC63C"></path>
            </g>
            <path d="M2.29289344,2.29289344 C2.68341793,1.90236885 3.31658172,1.90236885 3.7071122,2.29289344 L21.7071246,20.2929229 C22.0976251,20.6834234 22.0976251,21.3166241 21.7071246,21.7071246 C21.3166241,22.0976251 20.6834234,22.0976251 20.2929229,21.7071246 L2.29289344,3.7071122 C1.90236885,3.31658172 1.90236885,2.68341793 2.29289344,2.29289344 Z" id="Vector-606-(Stroke)"></path>
        </g>
    </g>
</svg>