<?xml version="1.0" encoding="UTF-8"?>
<svg width="20px" height="17px" viewBox="0 0 20 17" version="1.1" xmlns="http://www.w3.org/2000/svg" xmlns:xlink="http://www.w3.org/1999/xlink">
    <title>UI icon/dashboard/filled</title>
    <g id="👀-Icons" stroke="none" stroke-width="1" fill="none" fill-rule="evenodd">
        <g id="Subtract" transform="translate(-2.000000, -3.000000)" fill="#6F767E">
            <path d="M2,13 C2,7.47715 6.47715,3 12,3 C17.5228,3 22,7.47715 22,13 C22,15.1807 21.302,17.1984 20.1172,18.8418 C19.7785,19.3115 19.2187,19.5561 18.6395,19.5561 L5.36047,19.5561 C4.78135,19.5561 4.22149,19.3115 3.88281,18.8418 C2.698017,17.1984 2,15.1807 2,13 Z M16.7071,8.29289 C17.0976,8.68342 17.0976,9.31658 16.7071,9.70711 L13.9323,12.48196 C13.9764,12.64718 14,12.82084 14,13 C14,14.1046 13.1046,15 12,15 C10.89543,15 10,14.1046 10,13 C10,11.89543 10.89543,11 12,11 C12.1792,11 12.3528,11.02356 12.518,11.06774 L15.2929,8.29289 C15.6834,7.90237 16.3166,7.90237 16.7071,8.29289 Z"></path>
        </g>
    </g>
</svg>