<?xml version="1.0" encoding="UTF-8"?>
<svg width="20px" height="18px" viewBox="0 0 20 18" version="1.1" xmlns="http://www.w3.org/2000/svg" xmlns:xlink="http://www.w3.org/1999/xlink">
    <title>UI icon/dashboard/light</title>
    <g id="👀-Icons" stroke="none" stroke-width="1" fill="none" fill-rule="evenodd">
        <g id="编组" transform="translate(-2.000000, -3.000000)" fill="#6F767E">
            <path d="M12,5 C7.58172,5 4,8.58172972 4,13.0000174 C4,15.2122213 4.89659,17.2131248 6.34862,18.6623273 C6.73952,19.052528 6.74012,19.6856291 6.34998,20.0765298 C5.95983,20.4674304 5.32666,20.4680304 4.93576,20.0779298 C3.12321,18.2688266 2,15.7646222 2,13.0000174 C2,7.4771578 6.47715,3 12,3 C17.5228,3 22,7.4771578 22,13.0000174 C22,15.7611222 20.8796,18.2625266 19.0711,20.0711297 C18.6805,20.4616304 18.0474,20.4616304 17.6569,20.0711297 C17.2663,19.6805291 17.2663,19.047428 17.6569,18.6569273 C19.1057,17.2080248 20,15.2094213 20,13.0000174 C20,8.58172972 16.4183,5 12,5 Z" id="Ellipse-223-(Stroke)"></path>
            <path d="M16.70711,9.70711007 C17.09763,9.31658008 17.09763,8.68341707 16.70711,8.29289308 C16.31658,7.90236897 15.68342,7.90236897 15.29289,8.29289308 L13.29342,10.2923701 C12.90178,10.1049501 12.46315,10 12,10 C10.34315,10 9,11.3431501 9,13 C9,14.6568501 10.34315,16 12,16 C13.65685,16 15,14.6568501 15,13 C15,12.5368501 14.89505,12.0982201 14.70763,11.7065801 L16.70711,9.70711007 Z M11,13.0000001 C11,12.4477201 11.44772,12.0000001 12,12.0000001 C12.55228,12.0000001 13,12.4477201 13,13.0000001 C13,13.5522801 12.55228,14.0000001 12,14.0000001 C11.44772,14.0000001 11,13.5522801 11,13.0000001 Z" id="Union"></path>
        </g>
    </g>
</svg>