<?xml version="1.0" encoding="UTF-8"?>
<svg width="20px" height="20px" viewBox="0 0 20 20" version="1.1" xmlns="http://www.w3.org/2000/svg" xmlns:xlink="http://www.w3.org/1999/xlink">
    <title>UI icon/stop/light</title>
    <g id="👀-Icons" stroke="none" stroke-width="1" fill="none" fill-rule="evenodd">
        <g id="Union" transform="translate(-2.000000, -2.000000)" fill="#6F767E">
            <path d="M22,12 C22,17.5228 17.5228,22 12,22 C6.47715,22 2,17.5228 2,12 C2,6.47715 6.47715,2 12,2 C17.5228,2 22,6.47715 22,12 Z M16.9056,18.3199 C15.551,19.3729 13.8487,20 12,20 C7.58172,20 4,16.4183 4,12 C4,10.15129 4.62708,8.44904 5.68014,7.09436 L16.9056,18.3199 Z M18.3199,16.9056 L7.09436,5.68014 C8.44904,4.62708 10.15129,4 12,4 C16.4183,4 20,7.58172 20,12 C20,13.8487 19.3729,15.551 18.3199,16.9056 Z"></path>
        </g>
    </g>
</svg>