<?xml version="1.0" encoding="UTF-8"?>
<svg width="20px" height="20px" viewBox="0 0 20 20" version="1.1" xmlns="http://www.w3.org/2000/svg" xmlns:xlink="http://www.w3.org/1999/xlink">
    <title>UI icon/check_circled/filled</title>
    <g id="👀-Icons" stroke="none" stroke-width="1" fill="none" fill-rule="evenodd">
        <g id="编组" transform="translate(-2.000000, -2.000000)" fill="#6F767E" fill-rule="nonzero">
            <g id="Subtract">
                <path d="M12,22 C17.5228,22 22,17.5228 22,12 C22,10.34197 21.5965,8.77819 20.8823,7.4015 C20.7327,7.11315 20.348,7.06624 20.1183,7.29594 L12.4142,15 C11.63317,15.781 10.36684,15.7811 9.58579,15 L6.79289,12.2071 C6.40237,11.81658 6.40237,11.18342 6.79289,10.79289 C7.18342,10.40237 7.81658,10.40237 8.20711,10.79289 L11,13.5858 L19.0214,5.57007 C19.211,5.38054 19.2183,5.07414 19.0276,4.88571 C17.2215,3.10148 14.7394,2 12,2 C6.47715,2 2,6.47715 2,12 C2,17.5228 6.47715,22 12,22 Z"></path>
            </g>
        </g>
    </g>
</svg>