<?xml version="1.0" encoding="UTF-8"?>
<svg width="20px" height="20px" viewBox="0 0 20 20" version="1.1" xmlns="http://www.w3.org/2000/svg" xmlns:xlink="http://www.w3.org/1999/xlink">
    <title>UI icon/check_circled/light</title>
    <g id="👀-Icons" stroke="none" stroke-width="1" fill="none" fill-rule="evenodd">
        <g id="Union" transform="translate(-2.000000, -2.000000)" fill="#6F767E">
            <path d="M22,12 C22,17.5228 17.5228,22 12,22 C6.47715,22 2,17.5228 2,12 C2,6.47715 6.47715,2 12,2 C17.5228,2 22,6.47715 22,12 Z M20,12 C20,16.4183 16.4183,20 12,20 C7.58172,20 4,16.4183 4,12 C4,7.58172 7.58172,4 12,4 C14.3582,4 16.478,5.02032 17.9422,6.64358 L11,13.5858 L8.20711,10.79289 C7.81658,10.40237 7.18342,10.40237 6.79289,10.79289 C6.40237,11.18342 6.40237,11.81658 6.79289,12.2071 L9.58579,15 C10.36684,15.7811 11.63317,15.781 12.4142,15 L19.1015,8.31276 C19.6755,9.41616 20,10.67019 20,12 Z"></path>
        </g>
    </g>
</svg>