<?xml version="1.0" encoding="UTF-8"?>
<svg width="14px" height="18px" viewBox="0 0 14 18" version="1.1" xmlns="http://www.w3.org/2000/svg" xmlns:xlink="http://www.w3.org/1999/xlink">
    <title>UI icon/keypad/light</title>
    <g id="👀-Icons" stroke="none" stroke-width="1" fill="none" fill-rule="evenodd">
        <g id="编组" transform="translate(-5.000000, -3.000000)" fill="#6F767E" fill-rule="nonzero">
            <g>
                <path d="M8.5,4.5 C8.5,5.32843 7.82843,6 7,6 C6.171573,6 5.5,5.32843 5.5,4.5 C5.5,3.671573 6.171573,3 7,3 C7.82843,3 8.5,3.671573 8.5,4.5 Z" id="Ellipse-203"></path>
                <path d="M8.5,9.5 C8.5,10.32843 7.82843,11 7,11 C6.171573,11 5.5,10.32843 5.5,9.5 C5.5,8.671573 6.171573,8 7,8 C7.82843,8 8.5,8.671573 8.5,9.5 Z" id="Ellipse-206"></path>
                <path d="M8.5,14.5 C8.5,15.32843 7.82843,16 7,16 C6.171573,16 5.5,15.32843 5.5,14.5 C5.5,13.671573 6.171573,13 7,13 C7.82843,13 8.5,13.671573 8.5,14.5 Z" id="Ellipse-209"></path>
                <path d="M13.5,4.5 C13.5,5.32843 12.82843,6 12,6 C11.171573,6 10.5,5.32843 10.5,4.5 C10.5,3.671573 11.171573,3 12,3 C12.82843,3 13.5,3.671573 13.5,4.5 Z" id="Ellipse-204"></path>
                <path d="M13.5,9.5 C13.5,10.32843 12.82843,11 12,11 C11.171573,11 10.5,10.32843 10.5,9.5 C10.5,8.671573 11.171573,8 12,8 C12.82843,8 13.5,8.671573 13.5,9.5 Z" id="Ellipse-207"></path>
                <path d="M13.5,14.5 C13.5,15.32843 12.82843,16 12,16 C11.171573,16 10.5,15.32843 10.5,14.5 C10.5,13.671573 11.171573,13 12,13 C12.82843,13 13.5,13.671573 13.5,14.5 Z" id="Ellipse-210"></path>
                <path d="M13.5,19.5 C13.5,20.32843 12.82843,21 12,21 C11.171573,21 10.5,20.32843 10.5,19.5 C10.5,18.671573 11.171573,18 12,18 C12.82843,18 13.5,18.671573 13.5,19.5 Z" id="Ellipse-213"></path>
                <path d="M18.5,4.5 C18.5,5.32843 17.82843,6 17,6 C16.171573,6 15.5,5.32843 15.5,4.5 C15.5,3.671573 16.171573,3 17,3 C17.82843,3 18.5,3.671573 18.5,4.5 Z" id="Ellipse-205"></path>
                <path d="M18.5,9.5 C18.5,10.32843 17.82843,11 17,11 C16.171573,11 15.5,10.32843 15.5,9.5 C15.5,8.671573 16.171573,8 17,8 C17.82843,8 18.5,8.671573 18.5,9.5 Z" id="Ellipse-208"></path>
                <path d="M18.5,14.5 C18.5,15.32843 17.82843,16 17,16 C16.171573,16 15.5,15.32843 15.5,14.5 C15.5,13.671573 16.171573,13 17,13 C17.82843,13 18.5,13.671573 18.5,14.5 Z" id="Ellipse-211"></path>
            </g>
        </g>
    </g>
</svg>