<?xml version="1.0" encoding="UTF-8"?>
<svg width="20px" height="20px" viewBox="0 0 20 20" version="1.1" xmlns="http://www.w3.org/2000/svg" xmlns:xlink="http://www.w3.org/1999/xlink">
    <title>UI icon/medal/filled</title>
    <g id="👀-Icons" stroke="none" stroke-width="1" fill="none" fill-rule="evenodd">
        <g id="编组" transform="translate(-2.000000, -2.000000)" fill="#6F767E">
            <g id="Union" transform="translate(2.866943, 2.000000)">
                <path d="M12.1331,13 C12.1331,14.6569 10.7899,16 9.13306,16 C7.4762,16 6.13306,14.6569 6.13306,13 C6.13306,11.3431 7.4762,10 9.13306,10 C10.7899,10 12.1331,11.3431 12.1331,13 Z" id="50BC8E05-A880-46DB-8ACB-3E31597C49FD" fill-rule="nonzero"></path>
                <path d="M4.3762,7.86456 L0.169631,1.5547 C-0.273405,0.890145 0.202986,0 1.00168,0 L5.0628,0 C5.7315,0 6.35597,0.334203 6.7269,0.8906 L9.13317,4.5 L11.5394,0.8906 C11.9104,0.334203 12.5348,0 13.2035,0 L17.2646,0 C18.0633,0 18.5397,0.890145 18.0967,1.5547 L13.89,7.86468 C15.2696,9.1432 16.1331,10.9708 16.1331,13 C16.1331,16.866 12.9991,20 9.13306,20 C5.26706,20 2.13306,16.866 2.13306,13 C2.13306,10.9707 2.99657,9.14308 4.3762,7.86456 Z M9.13306,18 C11.8945,18 14.1331,15.7614 14.1331,13 C14.1331,10.2386 11.8945,8 9.13306,8 C6.37163,8 4.13306,10.2386 4.13306,13 C4.13306,15.7614 6.37163,18 9.13306,18 Z" id="DE2A1A79-048A-4EBD-803D-8CFA1C3FE0FE"></path>
            </g>
        </g>
    </g>
</svg>