<?xml version="1.0" encoding="UTF-8"?>
<svg width="20px" height="20px" viewBox="0 0 20 20" version="1.1" xmlns="http://www.w3.org/2000/svg" xmlns:xlink="http://www.w3.org/1999/xlink">
    <title>UI icon/medal/light</title>
    <g id="👀-Icons" stroke="none" stroke-width="1" fill="none" fill-rule="evenodd">
        <g id="编组" transform="translate(-2.000000, -2.000000)" fill="#6F767E">
            <path d="M7.24307098,9.86463 L3.03645198,3.5547 C2.59341598,2.890145 3.06980698,2 3.86850098,2 L7.92962098,2 C8.59832098,2 9.22279098,2.334203 9.59372098,2.8906 L12.000001,6.50003 L14.406321,2.8906 C14.777221,2.334203 15.401721,2 16.070421,2 L20.131521,2 C20.930221,2 21.406621,2.890145 20.963521,3.5547 L16.756921,9.86463 C18.136521,11.14315 19.000021,12.9707 19.000021,15 C19.000021,18.866 15.866021,22 12.000001,22 C8.13401098,22 5.00000098,18.866 5.00000098,15 C5.00000098,12.9707 5.86348098,11.14315 7.24307098,9.86463 Z M10.679231,8.12442 L7.92962098,4 L5.73702098,4 L8.88880098,8.72767 C9.44737098,8.45008 10.048271,8.2449 10.679231,8.12442 Z M15.111221,8.72767 L18.263021,4 L16.070421,4 L13.320821,8.12442 C13.951721,8.2449 14.552621,8.45008 15.111221,8.72767 Z M17.000021,15 C17.000021,17.7614 14.761421,20 12.000001,20 C9.23857098,20 7.00000098,17.7614 7.00000098,15 C7.00000098,12.2386 9.23857098,10 12.000001,10 C14.761421,10 17.000021,12.2386 17.000021,15 Z" id="Union"></path>
            <path d="M12,16 C12.55228,16 13,15.55228 13,15 C13,14.44772 12.55228,14 12,14 C11.44772,14 11,14.44772 11,15 C11,15.55228 11.44772,16 12,16 Z M15,15 C15,16.65685 13.65685,18 12,18 C10.34315,18 9,16.65685 9,15 C9,13.34315 10.34315,12 12,12 C13.65685,12 15,13.34315 15,15 Z" id="Oval-(Stroke)"></path>
        </g>
    </g>
</svg>