<?xml version="1.0" encoding="UTF-8"?>
<svg width="20px" height="20px" viewBox="0 0 20 20" version="1.1" xmlns="http://www.w3.org/2000/svg" xmlns:xlink="http://www.w3.org/1999/xlink">
    <title>UI icon/info/light</title>
    <g id="👀-Icons" stroke="none" stroke-width="1" fill="none" fill-rule="evenodd">
        <g id="编组" transform="translate(-2.000000, -2.000000)" fill="#6F767E">
            <path d="M12,20 C16.4183,20 20,16.4183 20,12 C20,7.58172 16.4183,4 12,4 C7.58172,4 4,7.58172 4,12 C4,16.4183 7.58172,20 12,20 Z M12,22 C17.5228,22 22,17.5228 22,12 C22,6.47715 17.5228,2 12,2 C6.47715,2 2,6.47715 2,12 C2,17.5228 6.47715,22 12,22 Z" id="Ellipse-134-(Stroke)"></path>
            <path d="M12,10 C12.55228,10 13,10.4477147 13,11 L13,16.0008861 C13,16.5531658 12.55228,17.0008855 12,17.0008855 C11.447715,17.0008855 11,16.5531658 11,16.0008861 L11,11 C11,10.4477147 11.447715,10 12,10 Z" id="Path-51-(Stroke)"></path>
            <path d="M13,8 C13,8.55228 12.55228,9 12,9 C11.44772,9 11,8.55228 11,8 C11,7.44771 11.44772,7 12,7 C12.55228,7 13,7.44771 13,8 Z" id="Ellipse-137" fill-rule="nonzero"></path>
        </g>
    </g>
</svg>