<?xml version="1.0" encoding="UTF-8"?>
<svg width="18px" height="20px" viewBox="0 0 18 20" version="1.1" xmlns="http://www.w3.org/2000/svg" xmlns:xlink="http://www.w3.org/1999/xlink">
    <title>UI icon/brush/filled</title>
    <g id="👀-Icons" stroke="none" stroke-width="1" fill="none" fill-rule="evenodd">
        <g id="编组" transform="translate(-3.000000, -2.000000)" fill="#6F767E">
            <path d="M4,5 C4,3.34315 5.34315,2 7,2 L17,2 C18.6569,2 20,3.34315 20,5 L20,9 C20,9.55228 19.5523,10 19,10 L5,10 C4.447715,10 4,9.55228 4,9 L4,5 Z" id="Rectangle-188" fill-rule="nonzero"></path>
            <path d="M5.14532,15.30647 C3.914343,15.13062 3,14.07637 3,12.832897 L3,12.832897 C3,12.372901 3.372901,12 3.832897,12 L20.1671,12 C20.6271,12 21,12.372901 21,12.832897 L21,12.832897 C21,14.07637 20.0857,15.13062 18.8547,15.30647 L15.8669,15.73331 C14.8185,15.88306 14.0687,16.824 14.1566,17.8793 L14.2924,19.50864 C14.4041,20.84977 13.3458,22 12,22 L12,22 C10.65421,22 9.59585,20.84977 9.70761,19.50864 L9.84339,17.8793 C9.93133,16.824 9.18145,15.88306 8.13314,15.73331 L5.14532,15.30647 Z" id="Path"></path>
        </g>
    </g>
</svg>