<?xml version="1.0" encoding="UTF-8"?>
<svg width="18px" height="20px" viewBox="0 0 18 20" version="1.1" xmlns="http://www.w3.org/2000/svg" xmlns:xlink="http://www.w3.org/1999/xlink">
    <title>UI icon/brush/light</title>
    <g id="👀-Icons" stroke="none" stroke-width="1" fill="none" fill-rule="evenodd">
        <g id="Union" transform="translate(-3.000000, -2.000000)" fill="#6F767E">
            <path d="M7,4 L17,4 C17.5523,4 18,4.44772 18,5 L18,10 L6,10 L6,5 C6,4.44772 6.44772,4 7,4 Z M4,10 L4,5 C4,3.34315 5.34315,2 7,2 L17,2 C18.6569,2 20,3.34315 20,5 L20,10 C20.5523,10 21,10.44772 21,11 L21,12.4262 C21,13.907 19.9197,15.1662 18.4562,15.3914 L16.3439,15.7163 C15.3055,15.8761 14.5677,16.8121 14.6549,17.8592 L14.7509,19.0104 C14.885,20.6197 13.6149,22 12,22 C10.38506,22 9.11502,20.6197 9.24914,19.0104 L9.34507,17.8592 C9.43232,16.8121 8.69454,15.8761 7.65609,15.7163 L5.54383,15.3914 C4.08033,15.1662 3,13.907 3,12.4262 L3,11 C3,10.44771 3.447715,10 4,10 Z M19,12 L5,12 L5,12.4262 C5,12.9198 5.36011,13.3396 5.84794,13.4146 L7.96021,13.7396 C10.0371,14.0591 11.51267,15.9312 11.33816,18.0252 L11.24223,19.1765 C11.20528,19.6198 11.55514,20 12,20 C12.44486,20 12.79472,19.6198 12.75777,19.1765 L12.66184,18.0252 C12.48733,15.9312 13.9629,14.0591 16.0398,13.7396 L18.1521,13.4146 C18.6399,13.3396 19,12.9198 19,12.4262 L19,12 Z"></path>
        </g>
    </g>
</svg>