<?xml version="1.0" encoding="UTF-8"?>
<svg width="20px" height="20px" viewBox="0 0 20 20" version="1.1" xmlns="http://www.w3.org/2000/svg" xmlns:xlink="http://www.w3.org/1999/xlink">
    <title>UI icon/alert_circled/filled</title>
    <g id="👀-Icons" stroke="none" stroke-width="1" fill="none" fill-rule="evenodd">
        <g id="Subtract" transform="translate(-2.000000, -2.000000)" fill="#6F767E">
            <path d="M22,12 C22,17.5228 17.5228,22 12,22 C6.47715,22 2,17.5228 2,12 C2,6.47715 6.47715,2 12,2 C17.5228,2 22,6.47715 22,12 Z M12,14.00001 C12.5523,14.00001 13,13.5523 13,13.00001 L13,8.00001 C13,7.44772 12.5523,7.00001 12,7.00001 C11.44771,7.00001 11,7.44772 11,8.00001 L11,13.00001 C11,13.5523 11.44771,14.00001 12,14.00001 Z M12,18 C12.5523,18 13,17.5523 13,17 C13,16.4477 12.5523,16 12,16 C11.44772,16 11,16.4477 11,17 C11,17.5523 11.44772,18 12,18 Z"></path>
        </g>
    </g>
</svg>