<?xml version="1.0" encoding="UTF-8"?>
<svg width="20px" height="20px" viewBox="0 0 20 20" version="1.1" xmlns="http://www.w3.org/2000/svg" xmlns:xlink="http://www.w3.org/1999/xlink">
    <title>UI icon/alert_circled/light</title>
    <g id="👀-Icons" stroke="none" stroke-width="1" fill="none" fill-rule="evenodd">
        <g id="编组" transform="translate(-2.000000, -2.000000)" fill="#6F767E">
            <path d="M12,7.00000763 C12.55228,7.00000763 13,7.44772266 13,8.00000763 L13,13.0000076 C13,13.5522881 12.55228,14.0000076 12,14.0000076 C11.447715,14.0000076 11,13.5522881 11,13.0000076 L11,8.00000763 C11,7.44772266 11.447715,7.00000763 12,7.00000763 Z" id="Path-51-(Stroke)" transform="translate(12.000000, 10.500003) scale(1, -1) translate(-12.000000, -10.500003) "></path>
            <path d="M13,16 C13,16.55228 12.55228,17 12,17 C11.447715,17 11,16.55228 11,16 C11,15.447715 11.447715,15 12,15 C12.55228,15 13,15.447715 13,16 Z" id="Ellipse-135" fill-rule="nonzero"></path>
            <path d="M12,20 C16.4183,20 20,16.4183 20,12 C20,7.58172 16.4183,4 12,4 C7.58172,4 4,7.58172 4,12 C4,16.4183 7.58172,20 12,20 Z M12,22 C17.5228,22 22,17.5228 22,12 C22,6.47715 17.5228,2 12,2 C6.47715,2 2,6.47715 2,12 C2,17.5228 6.47715,22 12,22 Z" id="Ellipse-134-(Stroke)"></path>
        </g>
    </g>
</svg>