<?xml version="1.0" encoding="UTF-8"?>
<svg width="14px" height="20px" viewBox="0 0 14 20" version="1.1" xmlns="http://www.w3.org/2000/svg" xmlns:xlink="http://www.w3.org/1999/xlink">
    <title>UI icon/wine/filled</title>
    <g id="👀-Icons" stroke="none" stroke-width="1" fill="none" fill-rule="evenodd">
        <g id="Union" transform="translate(-5.000000, -2.000000)" fill="#6F767E">
            <path d="M12.9999896,16.353 C12.9999896,16.1062 13.1809496,15.8983 13.4218996,15.8448 C16.5007296,15.1608 18.7359296,12.303 18.5012296,9.01779 L18.1326296,3.85751 C18.0579296,2.810895 17.1870296,2 16.1377296,2 L7.86223956,2 C6.81295956,2 5.94207856,2.810894 5.86732056,3.8575 L5.49872906,9.01779 C5.26407356,12.303 7.49922956,15.1608 10.5780796,15.8448 C10.8190296,15.8983 10.9999896,16.1062 10.9999896,16.353 L10.9999896,18.6529 C10.9999896,19.1417 10.6465796,19.5589 10.1643896,19.6393 L8.83559956,19.8607 C8.35340956,19.9411 7.99999956,20.3583 7.99999956,20.8471 L7.99999956,21 C7.99999956,21.5523 8.44771956,22 8.99999956,22 L14.9999996,22 C15.5523296,22 16.0000296,21.5523 16.0000296,21 L16.0000296,20.8471 C16.0000296,20.3583 15.6466296,19.9411 15.1643996,19.8607 L13.8355896,19.6393 C13.3533996,19.5589 12.9999896,19.1417 12.9999896,18.6529 L12.9999896,16.353 Z M16.1377296,4 L7.86223956,4 L7.64794956,7 L16.3520296,7 L16.1377296,4 Z"></path>
        </g>
    </g>
</svg>