<?xml version="1.0" encoding="UTF-8"?>
<svg width="14px" height="20px" viewBox="0 0 14 20" version="1.1" xmlns="http://www.w3.org/2000/svg" xmlns:xlink="http://www.w3.org/1999/xlink">
    <title>UI icon/wine/light</title>
    <g id="👀-Icons" stroke="none" stroke-width="1" fill="none" fill-rule="evenodd">
        <g id="Union" transform="translate(-5.000000, -2.000000)" fill="#6F767E">
            <path d="M7.86222148,2 L16.1377115,2 C17.1870115,2 18.0579115,2.810895 18.1326115,3.85751 L18.5012115,9.01779 C18.7465115,12.4513 16.2939115,15.4179 12.9999915,15.924 L12.9999915,18.6529 C12.9999915,19.1417 13.3534015,19.5589 13.8355915,19.6393 L15.1644015,19.8607 C15.6466115,19.9411 16.0000115,20.3583 16.0000115,20.8471 L16.0000115,21 C16.0000115,21.5523 15.5523115,22 15.0000015,22 L9.00000148,22 C8.44771148,22 8.00000148,21.5523 8.00000148,21 L8.00000148,20.8471 C8.00000148,20.3583 8.35341148,19.9411 8.83560148,19.8607 L10.1643915,19.6393 C10.6465815,19.5589 10.9999915,19.1417 10.9999915,18.6529 L10.9999915,15.924 C7.70602148,15.4179 5.25346348,12.4513 5.49871098,9.01779 L5.86730248,3.8575 C5.94206048,2.810894 6.81294148,2 7.86222148,2 Z M16.1377115,4 L7.86222148,4 L7.71936148,6 L16.2806115,6 L16.1377115,4 Z M16.4234115,8 L7.57650148,8 L7.49363148,9.16028 C7.30682148,11.77551 9.37809148,14 11.9999815,14 C14.6218715,14 16.6931115,11.77551 16.5063115,9.16029 L16.4234115,8 Z"></path>
        </g>
    </g>
</svg>