<?xml version="1.0" encoding="UTF-8"?>
<svg width="21px" height="21px" viewBox="0 0 21 21" version="1.1" xmlns="http://www.w3.org/2000/svg" xmlns:xlink="http://www.w3.org/1999/xlink">
    <title>UI icon/target/filled</title>
    <g id="👀-Icons" stroke="none" stroke-width="1" fill="none" fill-rule="evenodd">
        <g id="UI-icon/target/filled" transform="translate(-2.000000, -1.000000)" fill="#6F767E">
            <path d="M19.7822,2.47939907 C19.6655,1.66373777 18.6677,1.33137607 18.0851,1.91409307 L16.7834,3.21612507 C15.3625,2.44069807 13.7327,2.00000007 12,2.00000007 C6.47715,2.00000007 2,6.47715507 2,11.9999951 C2,17.5228951 6.47715,21.9999951 12,21.9999951 C17.5228,21.9999951 22,17.5228951 22,11.9999951 C22,10.2671251 21.5592,8.63719507 20.7837,7.21620507 L22.0857,5.91419507 C22.6684,5.33149507 22.3358,4.33366507 21.52,4.21713507 L19.9999,4.00000507 L19.7822,2.47939907 Z M17.2374,8.17679507 L19.0049,8.42929507 C19.0586,8.43696507 19.1124,8.44020507 19.1658,8.43916507 C19.6997,9.51155507 20,10.7207051 20,11.9999951 C20,16.4182951 16.4183,19.9999951 12,19.9999951 C7.58172,19.9999951 4,16.4182951 4,11.9999951 C4,7.58172507 7.58172,3.99999507 12,3.99999507 C13.2793,3.99999507 14.4884,4.30026507 15.5607,4.83414507 C15.5597,4.88749507 15.5629,4.94123507 15.5706,4.99489507 L15.8231,6.76264507 L15.4765,7.10925507 C14.4957,6.41079507 13.2958,5.99999507 12,5.99999507 C8.68629,5.99999507 6,8.68629507 6,11.9999951 C6,15.3136951 8.68629,17.9999951 12,17.9999951 C15.3137,17.9999951 18,15.3136951 18,11.9999951 C18,10.7041651 17.5892,9.50428507 16.8907,8.52346507 L17.2374,8.17679507 Z M12,7.99999507 C12.7418,7.99999507 13.4365,8.20192507 14.032,8.55381507 L12.518,10.0677451 C12.3528,10.0235551 12.1792,9.99999507 12,9.99999507 C10.89543,9.99999507 10,10.8954351 10,11.9999951 C10,13.1045951 10.89543,13.9999951 12,13.9999951 C13.1046,13.9999951 14,13.1045951 14,11.9999951 C14,11.8207951 13.9764,11.6471951 13.9323,11.4819551 L15.4462,9.96803507 C15.7981,10.5635451 16,11.2581951 16,11.9999951 C16,14.2090951 14.2091,15.9999951 12,15.9999951 C9.79086,15.9999951 8,14.2090951 8,11.9999951 C8,9.79086507 9.79086,7.99999507 12,7.99999507 Z" id="Union"></path>
        </g>
    </g>
</svg>