<?xml version="1.0" encoding="UTF-8"?>
<svg width="21px" height="21px" viewBox="0 0 21 21" version="1.1" xmlns="http://www.w3.org/2000/svg" xmlns:xlink="http://www.w3.org/1999/xlink">
    <title>UI icon/target/light</title>
    <g id="👀-Icons" stroke="none" stroke-width="1" fill="none" fill-rule="evenodd">
        <g id="编组" transform="translate(-2.000000, -1.000000)" fill="#6F767E">
            <path d="M12,16 C14.20914,16 16,14.20914 16,12 C16,9.79086 14.20914,8 12,8 C9.79086,8 8,9.79086 8,12 C8,14.20914 9.79086,16 12,16 Z M12,18 C15.31371,18 18,15.31371 18,12 C18,8.68629 15.31371,6 12,6 C8.68629,6 6,8.68629 6,12 C6,15.31371 8.68629,18 12,18 Z" id="Ellipse-202-(Stroke)"></path>
            <path d="M12,14 C13.10457,14 14,13.10457 14,12 C14,10.895431 13.10457,10 12,10 C10.895431,10 10,10.895431 10,12 C10,13.10457 10.895431,14 12,14 Z" id="Ellipse-203-(Stroke)"></path>
            <path d="M16.7835,3.21617 C15.3626,2.440714 13.7328,2 12,2 C6.47715,2 2,6.47715 2,12 C2,17.5228 6.47715,22 12,22 C17.5228,22 22,17.5228 22,12 C22,10.26716 21.5592,8.63725 20.7837,7.21629 L19.8536,8.14645 C19.6693,8.33069 19.4222,8.43422 19.1658,8.43917 C19.6997,9.51156 20,10.72071 20,12 C20,16.4183 16.4183,20 12,20 C7.58172,20 4,16.4183 4,12 C4,7.58172 7.58172,4 12,4 C13.2793,4 14.4885,4.30028 15.5609,4.83421 C15.5658,4.57783 15.6693,4.33071 15.8535,4.14647 L16.7835,3.21617 Z" id="Subtract" fill-rule="nonzero"></path>
            <path d="M18.0852401,1.91409307 C18.6678001,1.33137607 19.6656001,1.66373777 19.7823601,2.47939907 L20.0000301,4.00000507 L21.5201001,4.21713507 C22.3359001,4.33366507 22.6685001,5.33149507 22.0858001,5.91419507 L19.8535901,8.14644507 C19.6310201,8.36901507 19.3166501,8.47381507 19.0050501,8.42929507 L17.2363501,8.17662507 C17.2268601,8.18693507 17.2171101,8.19710507 17.2071101,8.20710507 L12.7071101,12.7070951 C12.3165801,13.0975951 11.6834171,13.0975951 11.2928931,12.7070951 C10.902369,12.3165951 10.902369,11.6833951 11.2928931,11.2928951 L15.7928901,6.79289507 C15.8029101,6.78287507 15.8130801,6.77312507 15.8234001,6.76362507 L15.5707301,4.99489507 C15.5262201,4.68335507 15.6309701,4.36902507 15.8534801,4.14646507 L18.0852401,1.91409307 Z M17.6213301,5.20694507 L18.1268501,4.70128507 C18.3292401,5.24224507 18.7575901,5.67064507 19.2985001,5.87309507 L18.7929201,6.37868507 L17.7678001,6.23224507 L17.6213301,5.20694507 Z" id="Union"></path>
        </g>
    </g>
</svg>