<?xml version="1.0" encoding="UTF-8"?>
<svg width="14px" height="14px" viewBox="0 0 14 14" version="1.1" xmlns="http://www.w3.org/2000/svg" xmlns:xlink="http://www.w3.org/1999/xlink">
    <title>UI icon/close/filled</title>
    <g id="👀-Icons" stroke="none" stroke-width="1" fill="none" fill-rule="evenodd">
        <g id="编组" transform="translate(-5.000000, -5.000000)" fill="#6F767E" fill-rule="nonzero">
            <g id="Union">
                <path d="M6.70711003,5.29289237 C6.31658936,4.90236735 5.68341927,4.90236725 5.2928946,5.29289237 C4.90236912,5.68341738 4.90236882,6.31658203 5.2928936,6.70711305 L10.5857467,11.9999768 L5.2928006,17.2929306 C4.90227582,17.6834316 4.90227582,18.3166332 5.2928006,18.7071343 C5.68332627,19.0976353 6.31648936,19.0976353 6.70702003,18.7071343 L11.9999691,13.4141905 L17.2929283,18.7071343 C17.6834289,19.0976353 18.31663,19.0976353 18.7071307,18.7071343 C19.0976314,18.3166332 19.0976314,17.6834316 18.7071307,17.2929306 L13.4141816,11.9999768 L18.7070307,6.70711305 C19.0975314,6.31658203 19.0975314,5.68341938 18.7070307,5.29289437 C18.31653,4.90236855 17.6833289,4.90236895 17.2928283,5.29289437 L11.9999691,10.5857531 L6.70711003,5.29289237 Z"></path>
            </g>
        </g>
    </g>
</svg>