<?xml version="1.0" encoding="UTF-8"?>
<svg width="14px" height="14px" viewBox="0 0 14 14" version="1.1" xmlns="http://www.w3.org/2000/svg" xmlns:xlink="http://www.w3.org/1999/xlink">
    <title>UI icon/close/light</title>
    <g id="👀-Icons" stroke="none" stroke-width="1" fill="none" fill-rule="evenodd">
        <g id="编组" transform="translate(-5.000000, -5.000000)" fill="#6F767E" fill-rule="nonzero">
            <g id="Union">
                <path d="M6.70710757,5.29289237 C6.31657815,4.90236735 5.68341707,4.90236725 5.29289265,5.29289237 C4.90236922,5.68341738 4.90236902,6.31658203 5.29289265,6.70711305 L10.5857919,12.0000368 L5.29292165,17.2929306 C4.90239812,17.6834316 4.90239812,18.3166332 5.29292165,18.7071343 C5.68344607,19.0976353 6.31660815,19.0976353 6.70713757,18.7071343 L12,13.4142505 L17.2928821,18.7071343 C17.6833815,19.0976353 18.3165806,19.0976353 18.70708,18.7071343 C19.0975794,18.3166332 19.0975794,17.6834316 18.70708,17.2929306 L13.4142177,12.0000368 L18.70708,6.70711305 C19.0976794,6.31658203 19.0976794,5.68341938 18.70708,5.29289437 C18.3165806,4.90236855 17.6833815,4.90236895 17.2928821,5.29289437 L12,10.5858131 L6.70710757,5.29289237 Z"></path>
            </g>
        </g>
    </g>
</svg>