<?xml version="1.0" encoding="UTF-8"?>
<svg width="10px" height="20px" viewBox="0 0 10 20" version="1.1" xmlns="http://www.w3.org/2000/svg" xmlns:xlink="http://www.w3.org/1999/xlink">
    <title>UI icon/thermometer/light</title>
    <g id="👀-Icons" stroke="none" stroke-width="1" fill="none" fill-rule="evenodd">
        <g id="编组" transform="translate(-7.000000, -2.000000)" fill="#6F767E">
            <path d="M10,13.9995 C10,14.4328 9.85927,14.8544 9.59899,15.2009 C9.22238,15.7021 9,16.3222 9,17 C9,18.6569 10.34315,20 12,20 C13.65685,20 15,18.6569 15,17 C15,16.3222 14.77762,15.7021 14.40101,15.2009 C14.14073,14.8544 14,14.4328 14,13.9995 L14,6 C14,4.89543 13.10457,4 12,4 C10.89543,4 10,4.89543 10,6 L10,13.9995 Z M8,6 C8,3.79086 9.79086,2 12,2 C14.20914,2 16,3.79086 16,6 L16,13.9995 C16.62791,14.8353 17,15.8742 17,17 C17,19.7614 14.76142,22 12,22 C9.23858,22 7,19.7614 7,17 C7,15.8742 7.37209,14.8353 8,13.9995 L8,6 Z" id="Union-(Stroke)"></path>
            <path d="M13,8 C13,7.447715 12.55228,7 12,7 C11.44772,7 11,7.447715 11,8 L11,15.26756 C10.402199,15.61337 10,16.25972 10,17 C10,18.1046 10.89543,19 12,19 C13.10457,19 14,18.1046 14,17 C14,16.25972 13.5978,15.61337 13,15.26756 L13,8 Z" id="Union" fill-rule="nonzero"></path>
        </g>
    </g>
</svg>