<?xml version="1.0" encoding="UTF-8"?>
<svg width="18px" height="18px" viewBox="0 0 18 18" version="1.1" xmlns="http://www.w3.org/2000/svg" xmlns:xlink="http://www.w3.org/1999/xlink">
    <title>UI icon/tool/filled</title>
    <g id="👀-Icons" stroke="none" stroke-width="1" fill="none" fill-rule="evenodd">
        <g id="编组" transform="translate(-3.000000, -3.000000)" fill="#6F767E" fill-rule="nonzero">
            <g id="UI-icon/tool/filled">
                <path d="M16.1504902,3.13113755 C16.8255897,3.27438032 16.9745896,4.096448 16.48659,4.58445722 L14.8994911,6.17157468 C14.1183917,6.95261343 14.1183917,8.2189414 14.8994911,9 C15.6804906,9.78103889 16.9468896,9.78103889 17.7278891,9 L19.3149879,7.41288269 C19.8029875,6.92487347 20.6250869,7.07391323 20.7683868,7.74902215 C21.1757865,9.66943907 20.6336869,11.7510157 19.142088,13.2425833 C17.2948894,15.0898804 14.5426914,15.4807798 12.312473,14.4153815 L6.41420737,20.313672 C5.63316794,21.0947708 4.36683887,21.0947708 3.58578545,20.313672 C2.80473802,19.5326733 2.80473802,18.2662753 3.58578645,17.4852765 L9.48404512,11.587006 C8.4186359,9.35674957 8.80957561,6.60462398 10.6568443,4.75735694 C12.1484532,3.26574633 14.2299916,2.7236742 16.1504902,3.13113755 Z" id="Union"></path>
            </g>
        </g>
    </g>
</svg>