<?xml version="1.0" encoding="UTF-8"?>
<svg width="19px" height="19px" viewBox="0 0 19 19" version="1.1" xmlns="http://www.w3.org/2000/svg" xmlns:xlink="http://www.w3.org/1999/xlink">
    <title>UI icon/tool/light</title>
    <g id="👀-Icons" stroke="none" stroke-width="1" fill="none" fill-rule="evenodd">
        <g id="Union-(Stroke)" transform="translate(-3.000000, -2.000000)" fill="#6F767E">
            <path d="M12.5969151,12.8588263 C13.1017451,12.3539563 13.8373751,12.1565063 14.5271751,12.3407163 C15.8674751,12.6986263 17.3481751,12.3501863 18.3932751,11.3050563 C19.1097751,10.5885563 19.4985751,9.66646626 19.5573751,8.72676626 L19.1003751,9.18371626 C17.9288751,10.3552963 16.0293751,10.3552863 14.8577751,9.18371626 C13.6861751,8.01214626 13.6861751,6.11264626 14.8577751,4.94107626 L15.3146751,4.48412626 C14.3749751,4.54286626 13.4529751,4.93170626 12.7364351,5.64819626 C11.6912951,6.69333626 11.3428551,8.17404626 11.7007751,9.51433626 C11.8849751,10.2040963 11.6875351,10.9397463 11.1827051,11.4445663 L5.66536514,16.9619263 C5.27484514,17.3524263 5.27484514,17.9856263 5.66536514,18.3761263 C6.05589514,18.7666263 6.68905514,18.7666263 7.07958514,18.3761263 L12.5969151,12.8588263 Z M14.0111751,14.2730263 C16.0128751,14.8075263 18.2371751,14.2896263 19.8074751,12.7192263 C21.6178751,10.9088663 22.0294751,8.22937626 21.0423751,6.02377626 C20.7897751,5.45935626 20.0575751,5.39811626 19.6203751,5.83537626 L17.6861751,7.76950626 C17.2956751,8.16002626 16.6624751,8.16002626 16.2719751,7.76950626 C15.8814751,7.37898626 15.8814751,6.74581626 16.2719751,6.35529626 L18.2060751,4.42115626 C18.6433751,3.98390626 18.5821751,3.25174926 18.0176751,2.99913126 C15.8120751,2.01196626 13.1326251,2.42358446 11.3222251,4.23398626 C9.75184514,5.80436626 9.23393514,8.02865626 9.76849514,10.0303563 L4.25115514,15.5477263 C3.07958214,16.7192263 3.07958214,18.6187263 4.25115514,19.7903263 C5.42272514,20.9619263 7.32222514,20.9619263 8.49379514,19.7903263 L14.0111751,14.2730263 Z"></path>
        </g>
    </g>
</svg>