<?xml version="1.0" encoding="UTF-8"?>
<svg width="18px" height="18px" viewBox="0 0 18 18" version="1.1" xmlns="http://www.w3.org/2000/svg" xmlns:xlink="http://www.w3.org/1999/xlink">
    <title>UI icon/puzzle/filled</title>
    <g id="👀-Icons" stroke="none" stroke-width="1" fill="none" fill-rule="evenodd">
        <g id="编组" transform="translate(-2.000000, -2.000000)" fill="#6F767E" fill-rule="nonzero">
            <g id="Subtract">
                <path d="M15.5,4.5 C15.5,4.70758 15.4747,4.90926 15.427,5.1021 C15.3281,5.50224 15.5889,6 16.0011,6 L18,6 C19.1046,6 20,6.89543 20,8 L20,9.99891 C20,10.4111 19.5022,10.67192 19.1021,10.57298 C18.9093,10.5253 18.7076,10.5 18.5,10.5 C17.1193,10.5 16,11.61929 16,13 C16,14.3807 17.1193,15.5 18.5,15.5 C18.7076,15.5 18.9093,15.4747 19.1021,15.427 C19.5022,15.3281 20,15.5889 20,16.0011 L20,18 C20,19.1046 19.1046,20 18,20 L16.0011,20 C15.5889,20 15.3281,19.5022 15.427,19.1021 C15.4747,18.9093 15.5,18.7076 15.5,18.5 C15.5,17.1193 14.3807,16 13,16 C11.61929,16 10.5,17.1193 10.5,18.5 C10.5,18.7076 10.5253,18.9093 10.57298,19.1021 C10.67192,19.5022 10.4111,20 9.99891,20 L8,20 C6.89543,20 6,19.1046 6,18 L6,16.0011 C6,15.5889 5.50224,15.3281 5.1021,15.427 C4.90926,15.4747 4.70758,15.5 4.5,15.5 C3.11929,15.5 2,14.3807 2,13 C2,11.61929 3.11929,10.5 4.5,10.5 C4.70758,10.5 4.90926,10.5253 5.1021,10.57298 C5.50224,10.67192 6,10.4111 6,9.99891 L6,8 C6,6.89543 6.89543,6 8,6 L9.99891,6 C10.4111,6 10.67192,5.50224 10.57298,5.1021 C10.5253,4.90926 10.5,4.70758 10.5,4.5 C10.5,3.11929 11.61929,2 13,2 C14.3807,2 15.5,3.11929 15.5,4.5 Z"></path>
            </g>
        </g>
    </g>
</svg>