<?xml version="1.0" encoding="UTF-8"?>
<svg width="19px" height="19px" viewBox="0 0 19 19" version="1.1" xmlns="http://www.w3.org/2000/svg" xmlns:xlink="http://www.w3.org/1999/xlink">
    <title>UI icon/puzzle/light</title>
    <g id="👀-Icons" stroke="none" stroke-width="1" fill="none" fill-rule="evenodd">
        <g id="Subtract-(Stroke)" transform="translate(-2.000000, -2.000000)" fill="#6F767E">
            <path d="M10,5 C10,3.34315 11.34315,2 13,2 C14.6569,2 16,3.34315 16,5 L19,5 C20.1046,5 21,5.89543 21,7 L21,11.26756 C21,11.62498 20.8092,11.95522 20.4996,12.1338 C20.19,12.3124 19.8087,12.3121 19.4993,12.1332 C19.3532,12.0487 19.1838,12 19,12 C18.4477,12 18,12.4477 18,13 C18,13.5523 18.4477,14 19,14 C19.1838,14 19.3532,13.9513 19.4993,13.8668 C19.8087,13.6879 20.19,13.6876 20.4996,13.8662 C20.8092,14.0448 21,14.375 21,14.7324 L21,19 C21,20.1046 20.1046,21 19,21 L14.7324,21 C14.375,21 14.0448,20.8092 13.8662,20.4996 C13.6876,20.19 13.6879,19.8087 13.8668,19.4993 C13.9513,19.3532 14,19.1838 14,19 C14,18.4477 13.5523,18 13,18 C12.4477,18 12,18.4477 12,19 C12,19.1838 12.0487,19.3532 12.1332,19.4993 C12.3121,19.8087 12.3124,20.19 12.1338,20.4996 C11.95522,20.8092 11.62498,21 11.26756,21 L7,21 C5.89543,21 5,20.1046 5,19 L5,16 C3.34315,16 2,14.6569 2,13 C2,11.34315 3.34315,10 5,10 L5,7 C5,5.89543 5.89543,5 7,5 L10,5 Z M13,4 C12.4477,4 12,4.44772 12,5 C12,5.1838 12.0487,5.35321 12.1332,5.49927 C12.3121,5.80866 12.3124,6.19003 12.1338,6.49964 C11.95522,6.80924 11.62498,7 11.26756,7 L7,7 L7,11.26756 C7,11.62498 6.80924,11.95522 6.49964,12.1338 C6.19003,12.3124 5.80866,12.3121 5.49927,12.1332 C5.35321,12.0487 5.1838,12 5,12 C4.44772,12 4,12.4477 4,13 C4,13.5523 4.44772,14 5,14 C5.1838,14 5.35321,13.9513 5.49927,13.8668 C5.80866,13.6879 6.19003,13.6876 6.49964,13.8662 C6.80924,14.0448 7,14.375 7,14.7324 L7,19 L10,19 C10,17.3431 11.34315,16 13,16 C14.6569,16 16,17.3431 16,19 L19,19 L19,16 C17.3431,16 16,14.6569 16,13 C16,11.34315 17.3431,10 19,10 L19,7 L14.7324,7 C14.375,7 14.0448,6.80924 13.8662,6.49964 C13.6876,6.19003 13.6879,5.80866 13.8668,5.49927 C13.9513,5.35321 14,5.1838 14,5 C14,4.44772 13.5523,4 13,4 Z"></path>
        </g>
    </g>
</svg>