<?xml version="1.0" encoding="UTF-8"?>
<svg width="20px" height="20px" viewBox="0 0 20 20" version="1.1" xmlns="http://www.w3.org/2000/svg" xmlns:xlink="http://www.w3.org/1999/xlink">
    <title>UI icon/notification/filled</title>
    <g id="👀-Icons" stroke="none" stroke-width="1" fill="none" fill-rule="evenodd">
        <g id="编组" transform="translate(-2.000000, -2.000000)" fill="#6F767E" fill-rule="nonzero">
            <g>
                <path d="M15.7384543,20.17582 C16.1348196,19.627814 15.6052968,19 14.8776026,19 L9.12230983,19 C8.39462337,19 7.86510396,19.627814 8.26145812,20.17582 C9.0555919,21.27379 10.4333377,22 11.9999562,22 C13.5665858,22 14.9443205,21.27379 15.7384543,20.17582 Z" id="Subtract"></path>
                <path d="M20.5857965,17 L3.40407973,17 C2.62862788,17 2,16.3714 2,15.5959 C2,15.2151 2.15470497,14.8506 2.42863492,14.586 L3.45735972,13.5924 C3.84918965,13.2139 4.06968961,12.692 4.06790961,12.1473 L4.06085961,9.99568 C4.04640961,5.58403 7.61872893,2 12.0303981,2 C16.4318972,2 20,5.5681 20,9.96958 L20,12.1716 C20,12.702 20.2106965,13.2107 20.5857965,13.5858 L21.5857963,14.5858 C21.8509962,14.851 22,15.2107 22,15.5858 C22,16.3668 21.3667963,17 20.5857965,17 Z" id="Path-24"></path>
            </g>
        </g>
    </g>
</svg>