<?xml version="1.0" encoding="UTF-8"?>
<svg width="20px" height="20px" viewBox="0 0 20 20" version="1.1" xmlns="http://www.w3.org/2000/svg" xmlns:xlink="http://www.w3.org/1999/xlink">
    <title>UI icon/notification/light</title>
    <g id="👀-Icons" stroke="none" stroke-width="1" fill="none" fill-rule="evenodd">
        <g id="Union" transform="translate(-2.000000, -2.000000)" fill="#6F767E">
            <path d="M2,16.5959 C2,16.2151 2.154705,15.8506 2.428635,15.586 L3.45759,14.5922 C3.84928,14.2139 4.06977,13.6922 4.06814,13.1476 L4.05867,9.9946 C4.04543,5.58319 7.61789,2 12.0293,2 C16.4314,2 20,5.56859 20,9.97067 L20,13.1716 C20,13.702 20.2107,14.2107 20.5858,14.5858 L21.5858,15.5858 C21.851,15.851 22,16.2107 22,16.5858 C22,17.3668 21.3668,18 20.5858,18 L16,18 C16,20.2091 14.2091,22 12,22 C9.79086,22 8,20.2091 8,18 L3.40408,18 C2.628628,18 2,17.3714 2,16.5959 Z M10,18 C10,19.1046 10.89543,20 12,20 C13.1046,20 14,19.1046 14,18 L10,18 Z M18,13.1716 C18,14.2324 18.4214,15.2499 19.1716,16 L4.87851,16 C5.64222,15.246 6.07136,14.2161 6.06813,13.1416 L6.05867,9.9886 C6.04875,6.6841 8.7248,4 12.0293,4 C15.3268,4 18,6.67316 18,9.97067 L18,13.1716 Z"></path>
        </g>
    </g>
</svg>