<?xml version="1.0" encoding="UTF-8"?>
<svg width="18px" height="22px" viewBox="0 0 18 22" version="1.1" xmlns="http://www.w3.org/2000/svg" xmlns:xlink="http://www.w3.org/1999/xlink">
    <title>UI icon/train/filled</title>
    <g id="👀-Icons" stroke="none" stroke-width="1" fill="none" fill-rule="evenodd">
        <g id="编组" transform="translate(-3.000000, -1.000000)" fill="#6F767E">
            <path d="M15,2 C15,1.447715 14.5523,1 14,1 L10,1 C9.44772,1 9,1.447715 9,2 L6,2 C4.34315,2 3,3.34315 3,5 L3,15 C3,16.6569 4.34315,18 6,18 L18,18 C19.6569,18 21,16.6569 21,15 L21,5 C21,3.34315 19.6569,2 18,2 L15,2 Z M6,4 L18,4 C18.5523,4 19,4.44772 19,5 L19,9 C19,9.55228 18.5523,10 18,10 L6,10 C5.44772,10 5,9.55228 5,9 L5,5 C5,4.44772 5.44772,4 6,4 Z M7,15 C7,15.5523 6.55228,16 6,16 C5.44772,16 5,15.5523 5,15 C5,14.4477 5.44772,14 6,14 C6.55228,14 7,14.4477 7,15 Z M18,16 C18.5523,16 19,15.5523 19,15 C19,14.4477 18.5523,14 18,14 C17.4477,14 17,14.4477 17,15 C17,15.5523 17.4477,16 18,16 Z" id="Subtract"></path>
            <path d="M8.07035411,21.5 C7.73599403,21.5 7.42375397,21.6671114 7.23829393,21.9453215 L6.83206384,22.5546819 C6.52571378,23.0142222 5.90484965,23.1384023 5.44531555,22.8320621 C4.98578065,22.5257219 4.86159543,21.9048515 5.16793949,21.4453212 L5.57416858,20.8359508 C6.1305637,20.0013233 7.06727389,19.5 8.07035411,19.5 L15.9295958,19.5 C16.932696,19.5 17.8693962,20.0012933 18.4257963,20.8358808 L18.8320964,21.4452912 C19.1383964,21.9048215 19.0141964,22.5256919 18.5546963,22.8320421 C18.0951962,23.1384023 17.4742961,23.0142322 17.167996,22.5547119 L16.7616959,21.9452915 C16.5761959,21.6671014 16.2639958,21.5 15.9295958,21.5 L8.07035411,21.5 Z" id="Vector-(Stroke)"></path>
        </g>
    </g>
</svg>