<?xml version="1.0" encoding="UTF-8"?>
<svg width="18px" height="22px" viewBox="0 0 18 22" version="1.1" xmlns="http://www.w3.org/2000/svg" xmlns:xlink="http://www.w3.org/1999/xlink">
    <title>UI icon/train/light</title>
    <g id="👀-Icons" stroke="none" stroke-width="1" fill="none" fill-rule="evenodd">
        <g id="编组" transform="translate(-3.000000, -1.000000)" fill="#6F767E">
            <path d="M8,14 C8,14.55228 7.55228,15 7,15 C6.447715,15 6,14.55228 6,14 C6,13.447715 6.447715,13 7,13 C7.55228,13 8,13.447715 8,14 Z" id="Ellipse-68" fill-rule="nonzero"></path>
            <path d="M18,14 C18,14.55228 17.55228,15 17,15 C16.447715,15 16,14.55228 16,14 C16,13.447715 16.447715,13 17,13 C17.55228,13 18,13.447715 18,14 Z" id="Ellipse-69" fill-rule="nonzero"></path>
            <path d="M8.23607916,21 C7.85729823,21 7.51102738,21.2140096 7.34163696,21.5527995 L6.89445586,22.4471993 C6.64747525,22.9411792 6.04680377,23.1414192 5.55282255,22.8944293 C5.05883884,22.6474493 4.85860384,22.0467794 5.10558645,21.5527995 L5.55276755,20.6583997 C6.0609338,19.6420269 7.09974636,19 8.23607916,19 L15.7639277,19 C16.9003305,19 17.9390331,19.6419979 18.4472343,20.6583397 L18.8944354,21.5527795 C19.141436,22.0467594 18.9412355,22.6474293 18.4472343,22.8944193 C17.9533331,23.1414192 17.3526316,22.9411992 17.105631,22.4472193 L16.6584299,21.5527795 C16.4890295,21.2139996 16.1427286,21 15.7639277,21 L8.23607916,21 Z" id="Vector-(Stroke)"></path>
            <path d="M15,2 C15,1.447715 14.5523,1 14,1 L10,1 C9.44772,1 9,1.447715 9,2 L6,2 C4.34315,2 3,3.34315 3,5 L3,15 C3,16.6569 4.34315,18 6,18 L18,18 C19.6569,18 21,16.6569 21,15 L21,5 C21,3.34315 19.6569,2 18,2 L15,2 Z M18,4 L6,4 C5.44772,4 5,4.44772 5,5 L5,9 L19,9 L19,5 C19,4.44772 18.5523,4 18,4 Z M19,11 L5,11 L5,15 C5,15.5523 5.44772,16 6,16 L18,16 C18.5523,16 19,15.5523 19,15 L19,11 Z" id="Union"></path>
        </g>
    </g>
</svg>