<?xml version="1.0" encoding="UTF-8"?>
<svg width="24px" height="20px" viewBox="0 0 24 20" version="1.1" xmlns="http://www.w3.org/2000/svg" xmlns:xlink="http://www.w3.org/1999/xlink">
    <title>UI icon/bank/filled</title>
    <g id="👀-Icons" stroke="none" stroke-width="1" fill="none" fill-rule="evenodd">
        <g id="编组" transform="translate(0.000000, -2.000000)" fill="#6F767E" fill-rule="nonzero">
            <g id="UI-icon/bank/filled">
                <path d="M22.2089337,8.00282925 C22.7216088,8.27437926 22.5136369,9 21.9232314,9 L2.07674046,9 C1.48630044,9 1.27843211,8.27437926 1.79107265,8.00282925 L10.5716584,3.35162527 C11.4566908,2.88279104 12.5433041,2.88279211 13.4282789,3.35162527 L22.2089337,8.00282925 Z" id="Vector-21" stroke="#6F767E" stroke-width="2" stroke-linecap="round" stroke-linejoin="round"></path>
                <path d="M13,12.5 C13,11.94772 12.55228,11.5 12,11.5 C11.44772,11.5 11,11.94772 11,12.5 L13,12.5 Z M11,17.5 C11,18.05228 11.44772,18.5 12,18.5 C12.55228,18.5 13,18.05228 13,17.5 L11,17.5 Z M11,12.5 L11,17.5 L13,17.5 L13,12.5 L11,12.5 Z" id="Vector-13"></path>
                <path d="M6,12.5 C6,11.94772 5.55229,11.5 5,11.5 C4.44771,11.5 4,11.94772 4,12.5 L6,12.5 Z M4,17.5 C4,18.05228 4.44771,18.5 5,18.5 C5.55229,18.5 6,18.05228 6,17.5 L4,17.5 Z M4,12.5 L4,17.5 L6,17.5 L6,12.5 L4,12.5 Z" id="Vector-19"></path>
                <path d="M20,12.5 C20,11.94772 19.55229,11.5 19,11.5 C18.44771,11.5 18,11.94772 18,12.5 L20,12.5 Z M18,17.5 C18,18.05228 18.44771,18.5 19,18.5 C19.55229,18.5 20,18.05228 20,17.5 L18,17.5 Z M18,12.5 L18,17.5 L20,17.5 L20,12.5 L18,12.5 Z" id="Vector-15"></path>
                <path d="M3,20 C2.44772,20 2,20.44771 2,21 C2,21.55229 2.44772,22 3,22 L3,20 Z M21,22 C21.5523,22 22,21.55229 22,21 C22,20.44771 21.5523,20 21,20 L21,22 Z M3,22 L21,22 L21,20 L3,20 L3,22 Z" id="Vector-20"></path>
            </g>
        </g>
    </g>
</svg>