<?xml version="1.0" encoding="UTF-8"?>
<svg width="22px" height="20px" viewBox="0 0 22 20" version="1.1" xmlns="http://www.w3.org/2000/svg" xmlns:xlink="http://www.w3.org/1999/xlink">
    <title>UI icon/bank/light</title>
    <g id="👀-Icons" stroke="none" stroke-width="1" fill="none" fill-rule="evenodd">
        <g id="编组" transform="translate(-1.000000, -2.000000)" fill="#6F767E">
            <path d="M12.8654531,4.52465137 C12.3183533,4.26205144 11.6816335,4.26205144 11.1345337,4.52465137 L3.89423634,8.0000005 L3.02877665,6.19695095 L10.269074,2.72160982 C11.3632636,2.19639895 12.6367532,2.19639995 13.7309528,2.72160982 L20.9712502,6.19695095 C22.8896495,7.11780072 22.2337497,10 20.1057505,10 L3.89423634,10 C1.76623911,10 1.11035234,7.11779072 3.02877665,6.19695095 L3.89423634,8.0000005 L20.1057505,8.0000005 L12.8654531,4.52465137 Z" id="Vector-21-(Stroke)"></path>
            <path d="M12,11 C12.55228,11 13,11.447715 13,12 L13,18 C13,18.55229 12.55228,19 12,19 C11.447715,19 11,18.55229 11,18 L11,12 C11,11.447715 11.447715,11 12,11 Z" id="Vector-13-(Stroke)"></path>
            <path d="M5,11 C5.55228,11 6,11.447715 6,12 L6,18 C6,18.55228 5.55228,19 5,19 C4.447715,19 4,18.55228 4,18 L4,12 C4,11.447715 4.447715,11 5,11 Z" id="Vector-19-(Stroke)"></path>
            <path d="M19,11 C19.55228,11 20,11.447715 20,12 L20,18 C20,18.55229 19.55228,19 19,19 C18.447715,19 18,18.55229 18,18 L18,12 C18,11.447715 18.447715,11 19,11 Z" id="Vector-15-(Stroke)"></path>
            <path d="M2,21 C2,20.447715 2.447715,20 3,20 L21,20 C21.5523,20 22,20.447715 22,21 C22,21.55228 21.5523,22 21,22 L3,22 C2.447715,22 2,21.55228 2,21 Z" id="Vector-20-(Stroke)"></path>
        </g>
    </g>
</svg>