<?xml version="1.0" encoding="UTF-8"?>
<svg width="14px" height="21px" viewBox="0 0 14 21" version="1.1" xmlns="http://www.w3.org/2000/svg" xmlns:xlink="http://www.w3.org/1999/xlink">
    <title>UI icon/pen/filled</title>
    <g id="👀-Icons" stroke="none" stroke-width="1" fill="none" fill-rule="evenodd">
        <g id="编组" transform="translate(-5.000000, -1.000000)" fill="#6F767E" fill-rule="nonzero">
            <g>
                <rect id="Rectangle-259" x="6" y="18" width="12" height="4" rx="2"></rect>
                <path d="M10.9497534,7.77465822 C11.1230134,7.66026504 11.2500033,7.46970941 11.2500033,7.25217868 L11.2500033,1.50227674 C11.2500033,0.993937232 10.6477235,0.773182526 10.3553936,1.17437881 L6.01454712,7.13175188 C5.39931623,7.97646949 5.31587136,9.13188121 5.80253519,10.0673488 L8.60314423,15.4507803 C8.77951417,15.789731 9.11413406,16 9.47730394,16 L14.5227122,16 C14.8858721,16 15.220492,15.789731 15.3968619,15.4507803 L18.197511,10.0673594 C18.6841108,9.13188121 18.6007108,7.97646949 17.985511,7.13175188 L13.6446125,1.17437881 C13.3522826,0.773182526 12.7500028,0.993937232 12.7500028,1.50227674 L12.7500028,7.25217868 C12.7500028,7.46970941 12.8770028,7.66026504 13.0502627,7.77465822 C13.6202425,8.15097463 14.0000024,8.82443352 14.0000024,9.59262559 C14.0000024,10.7722145 13.1045727,11.7284099 12.0000031,11.7284099 C10.8954335,11.7284099 10.0000038,10.7722145 10.0000038,9.59262559 C10.0000038,8.82443352 10.3797736,8.15097463 10.9497534,7.77465822 Z" id="Subtract"></path>
            </g>
        </g>
    </g>
</svg>