<?xml version="1.0" encoding="UTF-8"?>
<svg width="14px" height="20px" viewBox="0 0 14 20" version="1.1" xmlns="http://www.w3.org/2000/svg" xmlns:xlink="http://www.w3.org/1999/xlink">
    <title>UI icon/pen/light</title>
    <g id="👀-Icons" stroke="none" stroke-width="1" fill="none" fill-rule="evenodd">
        <g id="Union" transform="translate(-5.000000, -2.000000)" fill="#6F767E">
            <path d="M11.2689553,2.2832583 L6.48938031,7.4042263 C5.60153671,8.3554863 5.42814931,9.7706463 6.06007631,10.9081063 L8.89000531,16.0019763 C7.28410531,16.0598763 6.00000031,17.3799763 6.00000031,18.9999763 C6.00000031,20.6568763 7.34314531,21.9999763 8.99999531,21.9999763 L14.9999953,21.9999763 C16.6568953,21.9999763 17.9999953,20.6568763 17.9999953,18.9999763 C17.9999953,17.3799763 16.7158953,16.0598763 15.1100153,16.0019763 L17.9398953,10.9081063 C18.5718953,9.7706463 18.3984953,8.3554863 17.5105953,7.4042263 L12.7310653,2.2832573 C12.3357253,1.8596813 11.6642853,1.8596833 11.2689553,2.2832583 Z M7.95149531,8.7688663 L10.9999953,5.5025863 L10.9999953,8.2675663 C10.4021953,8.6133763 9.99999531,9.2597163 9.99999531,9.9999963 C9.99999531,11.1045663 10.8954353,11.9999763 11.9999953,11.9999763 C13.1045653,11.9999763 13.9999953,11.1045663 13.9999953,9.9999963 C13.9999953,9.2597163 13.5978053,8.6133763 12.9999953,8.2675663 L12.9999953,5.5025863 L16.0484953,8.7688663 C16.3444953,9.0859463 16.4022953,9.5576663 16.1915953,9.9368263 L12.8232053,15.9999763 L11.1768153,15.9999763 L7.80839531,9.9368263 C7.59774531,9.5576663 7.65554531,9.0859463 7.95149531,8.7688663 Z M7.99999531,18.9999763 C7.99999531,18.4476763 8.44771531,17.9999763 8.99999531,17.9999763 L14.9999953,17.9999763 C15.5522853,17.9999763 15.9999953,18.4476763 15.9999953,18.9999763 C15.9999953,19.5522763 15.5522853,19.9999763 14.9999953,19.9999763 L8.99999531,19.9999763 C8.44771531,19.9999763 7.99999531,19.5522763 7.99999531,18.9999763 Z"></path>
        </g>
    </g>
</svg>