<?xml version="1.0" encoding="UTF-8"?>
<svg width="18px" height="20px" viewBox="0 0 18 20" version="1.1" xmlns="http://www.w3.org/2000/svg" xmlns:xlink="http://www.w3.org/1999/xlink">
    <title>UI icon/tablet/filled</title>
    <g id="👀-Icons" stroke="none" stroke-width="1" fill="none" fill-rule="evenodd">
        <g id="Subtract" transform="translate(-3.000000, -2.000000)" fill="#6F767E">
            <path d="M6,2 C4.34315,2 3,3.34315 3,5 L3,19 C3,20.6569 4.34315,22 6,22 L18,22 C19.6569,22 21,20.6569 21,19 L21,5 C21,3.34315 19.6569,2 18,2 L6,2 Z M12,20.5 C12.55228,20.5 13,20.0523 13,19.5 C13,18.9477 12.55228,18.5 12,18.5 C11.44771,18.5 11,18.9477 11,19.5 C11,20.0523 11.44771,20.5 12,20.5 Z"></path>
        </g>
    </g>
</svg>