<?xml version="1.0" encoding="UTF-8"?>
<svg width="18px" height="20px" viewBox="0 0 18 20" version="1.1" xmlns="http://www.w3.org/2000/svg" xmlns:xlink="http://www.w3.org/1999/xlink">
    <title>UI icon/tablet/light</title>
    <g id="👀-Icons" stroke="none" stroke-width="1" fill="none" fill-rule="evenodd">
        <g id="编组" transform="translate(-3.000000, -2.000000)" fill="#6F767E">
            <path d="M18,4 L6,4 C5.44771,4 5,4.44772 5,5 L5,19 C5,19.5523 5.44772,20 6,20 L18,20 C18.5523,20 19,19.5523 19,19 L19,5 C19,4.44772 18.5523,4 18,4 Z M6,2 C4.34315,2 3,3.34315 3,5 L3,19 C3,20.6569 4.34315,22 6,22 L18,22 C19.6569,22 21,20.6569 21,19 L21,5 C21,3.34315 19.6569,2 18,2 L6,2 Z" id="Rectangle-188-(Stroke)"></path>
            <path d="M13,18 C13,18.55228 12.55228,19 12,19 C11.447715,19 11,18.55228 11,18 C11,17.447715 11.447715,17 12,17 C12.55228,17 13,17.447715 13,18 Z" id="Ellipse-205" fill-rule="nonzero"></path>
        </g>
    </g>
</svg>