<?xml version="1.0" encoding="UTF-8"?>
<svg width="16px" height="15px" viewBox="0 0 16 15" version="1.1" xmlns="http://www.w3.org/2000/svg" xmlns:xlink="http://www.w3.org/1999/xlink">
    <title>UI icon/chevron_double_down/filled</title>
    <g id="👀-Icons" stroke="none" stroke-width="1" fill="none" fill-rule="evenodd">
        <g id="编组" transform="translate(-4.000000, -5.000000)" fill="#6F767E">
            <path d="M4.79289427,11.7928917 C5.18341892,11.4023677 5.81658297,11.4023677 6.20711362,11.7928917 L12.0000132,17.5857875 L17.7929229,11.7928917 C18.1834235,11.4023677 18.8166246,11.4023677 19.2071252,11.7928917 C19.5976259,12.1834156 19.5976259,12.8165785 19.2071252,13.2071084 L13.4142256,18.9999987 C12.6331743,19.781047 11.3668422,19.781047 10.5858009,18.9999987 L4.79289427,13.2071084 C4.40236952,12.8165785 4.40236952,12.1834156 4.79289427,11.7928917 Z" id="Vector-474-(Stroke)" transform="translate(12.000001, 15.542892) rotate(-0.000010) translate(-12.000001, -15.542892) "></path>
            <path d="M4.79289427,5.5428917 C5.18341892,5.15236768 5.81658297,5.15236768 6.20711362,5.5428917 L12.0000132,11.3357875 L17.7929229,5.5428917 C18.1834235,5.15236768 18.8166246,5.15236768 19.2071252,5.5428917 C19.5976259,5.93341562 19.5976259,6.56657848 19.2071252,6.9571084 L13.4142256,12.7499987 C12.6331743,13.531047 11.3668422,13.531047 10.5858009,12.7499987 L4.79289427,6.9571084 C4.40236952,6.56657848 4.40236952,5.93341562 4.79289427,5.5428917 Z" id="Vector-475-(Stroke)" transform="translate(12.000001, 9.292892) rotate(-0.000010) translate(-12.000001, -9.292892) "></path>
        </g>
    </g>
</svg>