<?xml version="1.0" encoding="UTF-8"?>
<svg width="20px" height="21px" viewBox="0 0 20 21" version="1.1" xmlns="http://www.w3.org/2000/svg" xmlns:xlink="http://www.w3.org/1999/xlink">
    <title>UI icon/briefcase/filled</title>
    <g id="👀-Icons" stroke="none" stroke-width="1" fill="none" fill-rule="evenodd">
        <g id="编组" transform="translate(-2.000000, -1.000000)" fill="#6F767E">
            <g id="Union" transform="translate(2.000000, 1.500000)">
                <path d="M6.20064,1.75859 L5.40909,3.5 L3,3.5 C1.55025,3.5 0.340688,4.52835 0.0609493,5.8954 C0.0209867,6.09069 0,6.29289 0,6.5 L0,8 C0,9.38071 1.11929,10.5 2.5,10.5 L6.17071,10.5 C6.58254,9.33481 7.69378,8.5 9,8.5 L11,8.5 C12.3062,8.5 13.4175,9.33481 13.8293,10.5 L17.5,10.5 C18.8807,10.5 20,9.38071 20,8 L20,6.5 C20,4.84315 18.6569,3.5 17,3.5 L14.5909,3.5 L13.7994,1.75859 C13.3125,0.687608 12.2447,0 11.0683,0 L8.93174,0 C7.75531,0 6.68745,0.687609 6.20064,1.75859 Z M11.0683,2 L8.93174,2 C8.5396,2 8.18364,2.2292 8.02137,2.5862 L7.60601,3.5 L12.394,3.5 L11.9786,2.5862 C11.8164,2.2292 11.4604,2 11.0683,2 Z" id="0653AF05-AFA0-44AE-9C03-92731DC6511F"></path>
                <path d="M6.17071,12.5 L2.5,12.5 C1.74231,12.5 1.02835,12.3127 0.401894,11.982 C0.225133,11.8886 0,12.0105 0,12.2104 L0,17.5 C0,19.1569 1.34315,20.5 3,20.5 L17,20.5 C18.6569,20.5 20,19.1569 20,17.5 L20,12.2104 C20,12.0105 19.7749,11.8886 19.5981,11.982 C18.9716,12.3127 18.2577,12.5 17.5,12.5 L13.8293,12.5 C13.4175,13.6652 12.3062,14.5 11,14.5 L9,14.5 C7.69378,14.5 6.58254,13.6652 6.17071,12.5 Z" id="E3E20C86-AE9F-44E6-A1C1-3C4BC91C2DDB" fill-rule="nonzero"></path>
                <path d="M9,10.5 C8.44771,10.5 8,10.9477 8,11.5 C8,12.0523 8.44771,12.5 9,12.5 L11,12.5 C11.5523,12.5 12,12.0523 12,11.5 C12,10.9477 11.5523,10.5 11,10.5 L9,10.5 Z" id="53E674E4-D7BC-472B-BBD0-41A9DD78591E" fill-rule="nonzero"></path>
            </g>
        </g>
    </g>
</svg>