<?xml version="1.0" encoding="UTF-8"?>
<svg width="20px" height="20px" viewBox="0 0 20 20" version="1.1" xmlns="http://www.w3.org/2000/svg" xmlns:xlink="http://www.w3.org/1999/xlink">
    <title>UI icon/briefcase/light</title>
    <g id="👀-Icons" stroke="none" stroke-width="1" fill="none" fill-rule="evenodd">
        <g id="Union" transform="translate(-2.000000, -2.000000)" fill="#6F767E">
            <path d="M8.24567,3.88583 L7.8,5 L5,5 C3.34315,5 2,6.34315 2,8 L2,19 C2,20.6569 3.34315,22 5,22 L19,22 C20.6569,22 22,20.6569 22,19 L22,8 C22,6.34315 20.6569,5 19,5 L16.2,5 L15.7543,3.88583 C15.2987,2.746853 14.1956,2 12.9689,2 L11.0311,2 C9.80439,2 8.70126,2.746853 8.24567,3.88583 Z M12.9689,4 L11.0311,4 C10.62219,4 10.25449,4.24895 10.10262,4.62861 L9.95407,5 L14.0459,5 L13.8974,4.62861 C13.7455,4.24895 13.3778,4 12.9689,4 Z M19,7 C19.5523,7 20,7.44771 20,8 L20,11 C20,11.55228 19.5523,12 19,12 L14.7324,12 C14.3866,11.4022 13.7403,11 13,11 L11,11 C10.25972,11 9.61337,11.4022 9.26756,12 L5,12 C4.44772,12 4,11.55229 4,11 L4,8 C4,7.44772 4.44772,7 5,7 L19,7 Z M9.26756,14 L5,14 C4.64936,14 4.31278,13.9398 4,13.8293 L4,19 C4,19.5523 4.44772,20 5,20 L19,20 C19.5523,20 20,19.5523 20,19 L20,13.8293 C19.6872,13.9398 19.3506,14 19,14 L14.7324,14 C14.3866,14.5978 13.7403,15 13,15 L11,15 C10.25972,15 9.61337,14.5978 9.26756,14 Z"></path>
        </g>
    </g>
</svg>