<?xml version="1.0" encoding="UTF-8"?>
<svg width="18px" height="20px" viewBox="0 0 18 20" version="1.1" xmlns="http://www.w3.org/2000/svg" xmlns:xlink="http://www.w3.org/1999/xlink">
    <title>UI icon/note/filled</title>
    <g id="👀-Icons" stroke="none" stroke-width="1" fill="none" fill-rule="evenodd">
        <g id="编组" transform="translate(-3.000000, -2.000000)" fill="#6F767E">
            <path d="M6,4 C5.44772,4 5,4.44772 5,5 L5,19 C5,19.5523 5.44772,20 6,20 L18,20 C18.5523,20 19,19.5523 19,19 L19,12 C19,11.44771 19.4477,11 20,11 C20.5523,11 21,11.44771 21,12 L21,19 C21,20.6569 19.6569,22 18,22 L6,22 C4.34315,22 3,20.6569 3,19 L3,5 C3,3.34315 4.34315,2 6,2 L12,2 C12.55229,2 13,2.447715 13,3 C13,3.55228 12.55229,4 12,4 L6,4 Z" id="Rectangle-193-(Stroke)"></path>
            <g id="Union" transform="translate(7.299634, 3.035534)" fill-rule="nonzero">
                <path d="M12.1962,0.732233 C11.2198,-0.244078 9.63694,-0.244078 8.66063,0.732233 L7.95352,1.43934 C7.75826,1.6346 7.75826,1.95118 7.95352,2.14645 L11.4891,5.68198 C11.6843,5.87724 12.0009,5.87724 12.1962,5.68198 L12.9033,4.97487 C13.8796,3.99856 13.8796,2.41565 12.9033,1.43934 L12.1962,0.732233 Z" id="1189BC8D-03D9-4C5D-9EB0-F1F910ED7715"></path>
                <path d="M6.53927,3.56066 C6.34401,3.3654 6.02743,3.3654 5.83216,3.56066 L0.764565,8.62826 C0.611568,8.78126 0.512321,8.97975 0.481722,9.19395 L0.0103178,12.4938 C-0.0839631,13.1537 0.481722,13.7194 1.14169,13.6252 L4.44152,13.1537 C4.65572,13.1231 4.85421,13.0239 5.00721,12.8709 L10.0748,7.80331 C10.2701,7.60804 10.2701,7.29146 10.0748,7.0962 L6.53927,3.56066 Z" id="BE52C979-0E08-4170-82D0-B21300432D6A"></path>
            </g>
        </g>
    </g>
</svg>