<?xml version="1.0" encoding="UTF-8"?>
<svg width="18px" height="20px" viewBox="0 0 18 20" version="1.1" xmlns="http://www.w3.org/2000/svg" xmlns:xlink="http://www.w3.org/1999/xlink">
    <title>UI icon/note/light</title>
    <g id="👀-Icons" stroke="none" stroke-width="1" fill="none" fill-rule="evenodd">
        <g id="编组" transform="translate(-3.000000, -2.000000)" fill="#6F767E">
            <path d="M6,4 C5.44772,4 5,4.44772 5,5 L5,19 C5,19.5523 5.44772,20 6,20 L18,20 C18.5523,20 19,19.5523 19,19 L19,12 C19,11.44771 19.4477,11 20,11 C20.5523,11 21,11.44771 21,12 L21,19 C21,20.6569 19.6569,22 18,22 L6,22 C4.34315,22 3,20.6569 3,19 L3,5 C3,3.34315 4.34315,2 6,2 L12,2 C12.55229,2 13,2.447715 13,3 C13,3.55228 12.55229,4 12,4 L6,4 Z" id="Rectangle-193-(Stroke)"></path>
            <path d="M8.06411261,11.6637905 C7.91111661,11.8167905 7.81186961,12.0152805 7.78126961,12.2294805 L7.30986661,15.5293405 C7.21558461,16.1892405 7.78127061,16.7549405 8.44123861,16.6606405 L11.7410686,16.1892405 C11.9552586,16.1586405 12.1537586,16.0594405 12.3067586,15.9064405 L19.8492486,8.36396048 C21.0208486,7.19239048 21.0208486,5.29289048 19.8492486,4.12132048 C18.6776486,2.94974748 16.7781586,2.94974748 15.6065886,4.12132048 L8.06411261,11.6637905 Z M16.3136886,9.07107048 L11.1282386,14.2565405 L9.47832861,14.4922405 L9.71402861,12.8423005 L14.8994786,7.65686048 L16.3136886,9.07107048 Z M17.7279486,7.65686048 L16.3136886,6.24264048 L17.0207986,5.53553048 C17.4113486,5.14501048 18.0444486,5.14501048 18.4350486,5.53553048 C18.8255486,5.92606048 18.8255486,6.55922048 18.4350486,6.94975048 L17.7279486,7.65686048 Z" id="Union"></path>
        </g>
    </g>
</svg>