<?xml version="1.0" encoding="UTF-8"?>
<svg width="20px" height="18px" viewBox="0 0 20 18" version="1.1" xmlns="http://www.w3.org/2000/svg" xmlns:xlink="http://www.w3.org/1999/xlink">
    <title>UI icon/cart/filled</title>
    <g id="👀-Icons" stroke="none" stroke-width="1" fill="none" fill-rule="evenodd">
        <g id="编组" transform="translate(-2.000000, -3.000000)" fill="#6F767E">
            <path d="M9.5,21 C10.32843,21 11,20.32843 11,19.5 C11,18.671573 10.32843,18 9.5,18 C8.671573,18 8,18.671573 8,19.5 C8,20.32843 8.671573,21 9.5,21 Z" id="Oval"></path>
            <path d="M17.5,21 C18.32843,21 19,20.32843 19,19.5 C19,18.671573 18.32843,18 17.5,18 C16.671573,18 16,18.671573 16,19.5 C16,20.32843 16.671573,21 17.5,21 Z" id="Oval-Copy"></path>
            <path d="M3,3 C2.44771529,3 2,3.447715 2,4 C2,4.55228 2.44771529,5 3,5 L3.43845094,5 C3.89731124,5 4.29730151,5.3123 4.40859158,5.75746 L6.65112305,14.7276 C6.98500327,16.0631 8.18495405,17 9.56155496,17 L17.3957101,17 C18.801811,17 20.0192118,16.0234 20.324212,14.6508 L21.4353127,9.65079 C21.851713,7.77725 20.4260121,6 18.5068108,6 L6.53078297,6 L6.34888285,5.27239 C6.01500263,3.936892 4.81505185,3 3.43845094,3 L3,3 Z" id="Union" fill-rule="nonzero"></path>
        </g>
    </g>
</svg>