<?xml version="1.0" encoding="UTF-8"?>
<svg width="20px" height="18px" viewBox="0 0 20 18" version="1.1" xmlns="http://www.w3.org/2000/svg" xmlns:xlink="http://www.w3.org/1999/xlink">
    <title>UI icon/cart/light</title>
    <g id="👀-Icons" stroke="none" stroke-width="1" fill="none" fill-rule="evenodd">
        <g id="编组" transform="translate(-2.000000, -3.000000)" fill="#6F767E">
            <path d="M2,4 C2,3.447715 2.447715,3 3,3 L3.43845,3 C4.81505,3 6.015,3.936892 6.34888,5.27239 L6.53078,6 L18.5068,6 C20.426,6 21.8517,7.77725 21.4353,9.65079 L20.3242,14.6508 C20.0192,16.0234 18.8018,17 17.3957,17 L9.56155,17 C8.18495,17 6.985,16.0631 6.65112,14.7276 L4.40859,5.75746 C4.2973,5.3123 3.89731,5 3.43845,5 L3,5 C2.447715,5 2,4.55228 2,4 Z M7.03078,8 L8.59141,14.2425 C8.7027,14.6877 9.10268,15 9.56155,15 L17.3957,15 C17.8644,15 18.2702,14.6745 18.3718,14.2169 L19.483,9.21693 C19.6217,8.59242 19.1465,8 18.5068,8 L7.03078,8 Z" id="Path-(Stroke)"></path>
            <path d="M9.5,21 C10.32843,21 11,20.32843 11,19.5 C11,18.671573 10.32843,18 9.5,18 C8.671573,18 8,18.671573 8,19.5 C8,20.32843 8.671573,21 9.5,21 Z" id="Oval"></path>
            <path d="M17.5,21 C18.32843,21 19,20.32843 19,19.5 C19,18.671573 18.32843,18 17.5,18 C16.671573,18 16,18.671573 16,19.5 C16,20.32843 16.671573,21 17.5,21 Z" id="Oval-Copy"></path>
        </g>
    </g>
</svg>