<?xml version="1.0" encoding="UTF-8"?>
<svg width="20px" height="14px" viewBox="0 0 20 14" version="1.1" xmlns="http://www.w3.org/2000/svg" xmlns:xlink="http://www.w3.org/1999/xlink">
    <title>UI icon/leaderboard/light</title>
    <g id="👀-Icons" stroke="none" stroke-width="1" fill="none" fill-rule="evenodd">
        <g id="Union" transform="translate(-2.000000, -5.000000)" fill="#6F767E">
            <path d="M16,12 L16,8 C16,6.34315 14.6569,5 13,5 L11,5 C9.34315,5 8,6.34315 8,8 L8,10 L5,10 C3.34315,10 2,11.34315 2,13 L2,18 C2,18.5523 2.447715,19 3,19 L21,19 C21.5523,19 22,18.5523 22,18 L22,15 C22,13.34315 20.6569,12 19,12 L16,12 Z M13,7 L11,7 C10.44772,7 10,7.44772 10,8 L10,17 L14,17 L14,8 C14,7.44772 13.5523,7 13,7 Z M16,14 L16,17 L20,17 L20,15 C20,14.44772 19.5523,14 19,14 L16,14 Z M5,12 L8,12 L8,17 L4,17 L4,13 C4,12.44772 4.44772,12 5,12 Z"></path>
        </g>
    </g>
</svg>