<?xml version="1.0" encoding="UTF-8"?>
<svg width="20px" height="20px" viewBox="0 0 20 20" version="1.1" xmlns="http://www.w3.org/2000/svg" xmlns:xlink="http://www.w3.org/1999/xlink">
    <title>UI icon/building/filled</title>
    <g id="👀-Icons" stroke="none" stroke-width="1" fill="none" fill-rule="evenodd">
        <g id="Subtract" transform="translate(-2.000000, -2.000000)" fill="#6F767E">
            <path d="M6.27239,4.43187059 C4.93689,4.76575059 4,5.96570059 4,7.34230059 L4,20.0000206 L3,20.0000206 C2.447715,20.0000206 2,20.4477206 2,21.0000206 C2,21.5523206 2.447715,22.0000206 3,22.0000206 L21,22.0000206 C21.5523,22.0000206 22,21.5523206 22,21.0000206 C22,20.4477206 21.5523,20.0000206 21,20.0000206 L20,20.0000206 L20,11.0000006 C20,9.34315059 18.6569,8.00000059 17,8.00000059 L16,8.00000059 L16,5.84230059 C16,3.89058059 14.1658,2.45851059 12.2724,2.93187089 L6.27239,4.43187059 Z M18,11.0000006 L18,20.0000206 L16,20.0000206 L16,10.0000006 L17,10.0000006 C17.5523,10.0000006 18,10.4477106 18,11.0000006 Z M9,16.0000206 C8.44772,16.0000206 8,16.4477206 8,17.0000206 C8,17.5523206 8.44772,18.0000206 9,18.0000206 L11,18.0000206 C11.55228,18.0000206 12,17.5523206 12,17.0000206 C12,16.4477206 11.55228,16.0000206 11,16.0000206 L9,16.0000206 Z M8,13.0000206 C8,12.4477106 8.44772,12.0000006 9,12.0000006 L11,12.0000006 C11.55228,12.0000006 12,12.4477106 12,13.0000206 C12,13.5523206 11.55228,14.0000206 11,14.0000206 L9,14.0000206 C8.44772,14.0000206 8,13.5523206 8,13.0000206 Z M9,8.00000059 C8.44772,8.00000059 8,8.44771059 8,9.00000059 C8,9.55228059 8.44772,10.0000006 9,10.0000006 L11,10.0000006 C11.55228,10.0000006 12,9.55228059 12,9.00000059 C12,8.44771059 11.55228,8.00000059 11,8.00000059 L9,8.00000059 Z"></path>
        </g>
    </g>
</svg>