<?xml version="1.0" encoding="UTF-8"?>
<svg width="20px" height="20px" viewBox="0 0 20 20" version="1.1" xmlns="http://www.w3.org/2000/svg" xmlns:xlink="http://www.w3.org/1999/xlink">
    <title>UI icon/building/light</title>
    <g id="👀-Icons" stroke="none" stroke-width="1" fill="none" fill-rule="evenodd">
        <g id="编组" transform="translate(-2.000000, -2.000000)" fill="#6F767E">
            <path d="M12.7575,4.8721911 L6.75746,6.3721911 C6.3123,6.4834811 6,6.8834611 6,7.3423311 L6,19.9999511 L14,19.9999511 L14,10.0000011 L14,8.0000011 L14,5.8423311 C14,5.1917511 13.3886,4.7144011 12.7575,4.8721911 Z M16,10.0000011 L16,19.9999511 L18,19.9999511 L18,11.0000011 C18,10.4477111 17.5523,10.0000011 17,10.0000011 L16,10.0000011 Z M20,21.9999511 L21,21.9999511 C21.5523,21.9999511 22,21.5522511 22,20.9999511 C22,20.4477511 21.5523,19.9999511 21,19.9999511 L20,19.9999511 L20,11.0000011 C20,9.3431511 18.6569,8.0000011 17,8.0000011 L16,8.0000011 L16,5.8423311 C16,3.8906111 14.1658,2.4585411 12.2724,2.9319014 L6.27239,4.4319011 C4.93689,4.7657811 4,5.9657311 4,7.3423311 L4,19.9999511 L3,19.9999511 C2.447715,19.9999511 2,20.4477511 2,20.9999511 C2,21.5522511 2.447715,21.9999511 3,21.9999511 L4,21.9999511 L6,21.9999511 L14,21.9999511 L16,21.9999511 L18,21.9999511 L20,21.9999511 Z" id="Union"></path>
            <path d="M8,17 C8,16.447715 8.447715,16 9,16 L11,16 C11.55228,16 12,16.447715 12,17 C12,17.55228 11.55228,18 11,18 L9,18 C8.447715,18 8,17.55228 8,17 Z" id="Vector-511-(Stroke)"></path>
            <path d="M8,13 C8,12.447715 8.447715,12 9,12 L11,12 C11.55228,12 12,12.447715 12,13 C12,13.55228 11.55228,14 11,14 L9,14 C8.447715,14 8,13.55228 8,13 Z" id="Vector-512-(Stroke)"></path>
            <path d="M8,9 C8,8.447715 8.447715,8 9,8 L11,8 C11.55228,8 12,8.447715 12,9 C12,9.55228 11.55228,10 11,10 L9,10 C8.447715,10 8,9.55228 8,9 Z" id="Vector-513-(Stroke)"></path>
        </g>
    </g>
</svg>