<?xml version="1.0" encoding="UTF-8"?>
<svg width="20px" height="20px" viewBox="0 0 20 20" version="1.1" xmlns="http://www.w3.org/2000/svg" xmlns:xlink="http://www.w3.org/1999/xlink">
    <title>UI icon/growth/filled</title>
    <g id="👀-Icons" stroke="none" stroke-width="1" fill="none" fill-rule="evenodd">
        <g id="编组" transform="translate(-2.000000, -2.000000)" fill="#6F767E">
            <path d="M3,2 C3.55228,2 4,2.447715 4,3 L4,19 C4,19.5523 4.44772,20 5,20 L21,20 C21.5523,20 22,20.4477 22,21 C22,21.5523 21.5523,22 21,22 L5,22 C3.34315,22 2,20.6569 2,19 L2,3 C2,2.447715 2.447715,2 3,2 Z" id="Vector-606-(Stroke)"></path>
            <path d="M17,6.5 C16.4477,6.5 16,6.94771496 16,7.5 C16,8.05227987 16.4477,8.5 17,8.5 L18.5858,8.5 L14.5,12.5857895 L11.91421,10 C11.1331701,9.21894977 9.86684006,9.21894977 9.08579006,10 L6.29289307,12.7928895 C5.90236898,13.1834194 5.90236898,13.8165794 6.29289307,14.2071094 C6.68341707,14.5976293 7.31658007,14.5976293 7.70711007,14.2071094 L10.5,11.4142096 L13.08579,14 C13.86684,14.7810493 15.13317,14.7810493 15.91421,14 L20,9.91420971 L20,11.5 C20,12.0522795 20.4477,12.5 21,12.5 C21.5523,12.5 22,12.0522795 22,11.5 L22,7.5 C22,6.94771496 21.5523,6.5 21,6.5 L17,6.5 Z" id="Union" fill-rule="nonzero"></path>
        </g>
    </g>
</svg>