<?xml version="1.0" encoding="UTF-8"?>
<svg width="20px" height="20px" viewBox="0 0 20 20" version="1.1" xmlns="http://www.w3.org/2000/svg" xmlns:xlink="http://www.w3.org/1999/xlink">
    <title>UI icon/color_palette/filled</title>
    <g id="👀-Icons" stroke="none" stroke-width="1" fill="none" fill-rule="evenodd">
        <g id="Subtract" transform="translate(-2.000000, -2.000000)" fill="#6F767E">
            <path d="M19.7866,14 C20.9581,14 22,13.1714 22,12 C22,6.47715 17.5228,2 12,2 C6.47715,2 2,6.47715 2,12 C2,17.5228 6.47715,22 12,22 C13.1714,22 14,20.9581 14,19.7866 L14,18 C14,15.7909 15.7909,14 18,14 L19.7866,14 Z M13,6 C13,6.82843 12.3284,7.5 11.5,7.5 C10.67157,7.5 10,6.82843 10,6 C10,5.17157 10.67157,4.5 11.5,4.5 C12.3284,4.5 13,5.17157 13,6 Z M17.5,11 C18.3284,11 19,10.32843 19,9.5 C19,8.67157 18.3284,8 17.5,8 C16.6716,8 16,8.67157 16,9.5 C16,10.32843 16.6716,11 17.5,11 Z M8,10 C8,10.82843 7.32843,11.5 6.5,11.5 C5.67157,11.5 5,10.82843 5,10 C5,9.17157 5.67157,8.5 6.5,8.5 C7.32843,8.5 8,9.17157 8,10 Z M8,18 C8.82843,18 9.5,17.3284 9.5,16.5 C9.5,15.6716 8.82843,15 8,15 C7.17157,15 6.5,15.6716 6.5,16.5 C6.5,17.3284 7.17157,18 8,18 Z"></path>
        </g>
    </g>
</svg>