<?xml version="1.0" encoding="UTF-8"?>
<svg width="20px" height="20px" viewBox="0 0 20 20" version="1.1" xmlns="http://www.w3.org/2000/svg" xmlns:xlink="http://www.w3.org/1999/xlink">
    <title>UI icon/color_palette/light</title>
    <g id="👀-Icons" stroke="none" stroke-width="1" fill="none" fill-rule="evenodd">
        <g id="编组" transform="translate(-2.000000, -2.000000)" fill="#6F767E">
            <path d="M13.5,7 C13.5,7.82843 12.82843,8.5 12,8.5 C11.171573,8.5 10.5,7.82843 10.5,7 C10.5,6.171573 11.171573,5.5 12,5.5 C12.82843,5.5 13.5,6.171573 13.5,7 Z" id="Ellipse-13" fill-rule="nonzero"></path>
            <path d="M18,9.5 C18,10.32843 17.32843,11 16.5,11 C15.671573,11 15,10.32843 15,9.5 C15,8.671573 15.671573,8 16.5,8 C17.32843,8 18,8.671573 18,9.5 Z" id="Ellipse-16" fill-rule="nonzero"></path>
            <path d="M9,10 C9,10.82843 8.32843,11.5 7.5,11.5 C6.671573,11.5 6,10.82843 6,10 C6,9.171573 6.671573,8.5 7.5,8.5 C8.32843,8.5 9,9.171573 9,10 Z" id="Ellipse-14" fill-rule="nonzero"></path>
            <path d="M10,15.5 C10,16.32843 9.32843,17 8.5,17 C7.671573,17 7,16.32843 7,15.5 C7,14.671573 7.671573,14 8.5,14 C9.32843,14 10,14.671573 10,15.5 Z" id="Ellipse-17" fill-rule="nonzero"></path>
            <path d="M19.9998,11.94493 C19.9702,7.552 16.3999,4 12,4 C7.58172,4 4,7.58172 4,12 C4,16.3999 7.552,19.9702 11.94493,19.9998 C11.95392,19.9856 11.96439,19.9658 11.97393,19.9397 C11.98965,19.8967 12,19.8444 12,19.7866 L12,18 C12,14.6863 14.6863,12 18,12 L19.7866,12 C19.8444,12 19.8967,11.98965 19.9397,11.97393 C19.9658,11.96439 19.9856,11.95392 19.9998,11.94493 Z M22,12 C22,13.1714 20.9581,14 19.7866,14 L18,14 C15.7909,14 14,15.7909 14,18 L14,19.7866 C14,20.9581 13.1714,22 12,22 C6.47715,22 2,17.5228 2,12 C2,6.47715 6.47715,2 12,2 C17.5228,2 22,6.47715 22,12 Z" id="Subtract-(Stroke)"></path>
        </g>
    </g>
</svg>