<?xml version="1.0" encoding="UTF-8"?>
<svg width="18px" height="21px" viewBox="0 0 18 21" version="1.1" xmlns="http://www.w3.org/2000/svg" xmlns:xlink="http://www.w3.org/1999/xlink">
    <title>UI icon/clipboard/light</title>
    <g id="👀-Icons" stroke="none" stroke-width="1" fill="none" fill-rule="evenodd">
        <g id="编组" transform="translate(-3.000000, -1.000000)" fill="#6F767E">
            <path d="M12,1 C13.1046,1 14,1.895431 14,3 L18,3 C19.6569,3 21,4.34315 21,6 L21,19 C21,20.6569 19.6569,22 18,22 L6,22 C4.34315,22 3,20.6569 3,19 L3,6 C3,4.34315 4.34315,3 6,3 L10,3 C10,1.895431 10.89543,1 12,1 Z M8,5 L6,5 C5.44772,5 5,5.44772 5,6 L5,19 C5,19.5523 5.44772,20 6,20 L18,20 C18.5523,20 19,19.5523 19,19 L19,6 C19,5.44772 18.5523,5 18,5 L16,5 L16,6 C16,6.55228 15.5523,7 15,7 L9,7 C8.44772,7 8,6.55228 8,6 L8,5 Z" id="Union"></path>
            <path d="M7,11 C7,10.447715 7.447715,10 8,10 L16,10 C16.55229,10 17,10.447715 17,11 C17,11.55228 16.55229,12 16,12 L8,12 C7.447715,12 7,11.55228 7,11 Z" id="Vector-391-(Stroke)"></path>
            <path d="M7,15 C7,14.447715 7.447715,14 8,14 L12,14 C12.55228,14 13,14.447715 13,15 C13,15.55228 12.55228,16 12,16 L8,16 C7.447715,16 7,15.55228 7,15 Z" id="Vector-392-(Stroke)"></path>
        </g>
    </g>
</svg>