<?xml version="1.0" encoding="UTF-8"?>
<svg width="14px" height="20px" viewBox="0 0 14 20" version="1.1" xmlns="http://www.w3.org/2000/svg" xmlns:xlink="http://www.w3.org/1999/xlink">
    <title>UI icon/figma/light</title>
    <g id="👀-Icons" stroke="none" stroke-width="1" fill="none" fill-rule="evenodd">
        <g id="Union" transform="translate(-5.000000, -2.000000)" fill="#6F767E">
            <path d="M11,4 L9,4 C7.89543,4 7,4.89543 7,6 C7,7.10457 7.89543,8 9,8 L11,8 L11,4 Z M13,4 L13,8 L15,8 C16.1046,8 17,7.10457 17,6 C17,4.89543 16.1046,4 15,4 L13,4 Z M9,16 L11,16 L11,18 C11,19.1046 10.10457,20 9,20 C7.89543,20 7,19.1046 7,18 C7,16.8954 7.89543,16 9,16 Z M5,12 C5,13.1947 5.523756,14.2671 6.35418,15 C5.523756,15.7329 5,16.8053 5,18 C5,20.2091 6.79086,22 9,22 C11.20914,22 13,20.2091 13,18 L13,15.4649 C13.58835,15.8052 14.27143,16 15,16 C17.2091,16 19,14.2091 19,12 C19,10.80531 18.4762,9.73295 17.6458,9 C18.4762,8.26706 19,7.19469 19,6 C19,3.79086 17.2091,2 15,2 L9,2 C6.79086,2 5,3.79086 5,6 C5,7.19469 5.523755,8.26706 6.35418,9 C5.523756,9.73295 5,10.80531 5,12 Z M11,14 L9,14 C7.89543,14 7,13.1046 7,12 C7,10.89543 7.89543,10 9,10 L11,10 L11,12 L11,14 Z M13,12 C13,10.89543 13.89543,10 15,10 C16.1046,10 17,10.89543 17,12 C17,13.1046 16.1046,14 15,14 C13.89543,14 13,13.1046 13,12 Z"></path>
        </g>
    </g>
</svg>