<?xml version="1.0" encoding="UTF-8"?>
<svg width="18px" height="20px" viewBox="0 0 18 20" version="1.1" xmlns="http://www.w3.org/2000/svg" xmlns:xlink="http://www.w3.org/1999/xlink">
    <title>UI icon/file/filled</title>
    <g id="👀-Icons" stroke="none" stroke-width="1" fill="none" fill-rule="evenodd">
        <g id="Subtract" transform="translate(-3.000000, -2.000000)" fill="#6F767E">
            <path d="M6,2 C4.34315,2 3,3.34315 3,5 L3,19 C3,20.6569 4.34315,22 6,22 L18,22 C19.6569,22 21,20.6569 21,19 L21,7.74264 C21,6.94699 20.6839,6.18393 20.1213,5.62132 L17.3787,2.87868 C16.8161,2.316071 16.053,2 15.2574,2 L6,2 Z M15,4.2071 L15,6 C15,7.10457 15.8954,8 17,8 L18.7929,8 C19.2383,8 19.4614,7.46143 19.1464,7.14644 L15.8536,3.85355 C15.5386,3.53857 15,3.76165 15,4.2071 Z"></path>
        </g>
    </g>
</svg>