<?xml version="1.0" encoding="UTF-8"?>
<svg width="20px" height="20px" viewBox="0 0 20 20" version="1.1" xmlns="http://www.w3.org/2000/svg" xmlns:xlink="http://www.w3.org/1999/xlink">
    <title>UI icon/event_add/filled</title>
    <g id="👀-Icons" stroke="none" stroke-width="1" fill="none" fill-rule="evenodd">
        <g id="Subtract" transform="translate(-2.000000, -2.000000)" fill="#6F767E">
            <path d="M8,3 C8,2.447715 7.55228,2 7,2 C6.44772,2 6,2.447715 6,3 L6,4 L5,4 C3.34315,4 2,5.34315 2,7 L2,19 C2,20.6569 3.34315,22 5,22 L19,22 C20.6569,22 22,20.6569 22,19 L22,7 C22,5.34315 20.6569,4 19,4 L18,4 L18,3 C18,2.447715 17.5523,2 17,2 C16.4477,2 16,2.447715 16,3 L16,4 L8,4 L8,3 Z M12,9 C12.5523,9 13,9.44772 13,10 L13,12 L15,12 C15.5523,12 16,12.4477 16,13 C16,13.5523 15.5523,14 15,14 L13,14 L13,16 C13,16.5523 12.5523,17 12,17 C11.44771,17 11,16.5523 11,16 L11,14 L9,14 C8.44772,14 8,13.5523 8,13 C8,12.4477 8.44772,12 9,12 L11,12 L11,10 C11,9.44772 11.44772,9 12,9 Z"></path>
        </g>
    </g>
</svg>