<?xml version="1.0" encoding="UTF-8"?>
<svg width="20px" height="20px" viewBox="0 0 20 20" version="1.1" xmlns="http://www.w3.org/2000/svg" xmlns:xlink="http://www.w3.org/1999/xlink">
    <title>UI icon/window/filled</title>
    <g id="👀-Icons" stroke="none" stroke-width="1" fill="none" fill-rule="evenodd">
        <g id="编组" transform="translate(-2.000000, -2.000000)" fill="#6F767E">
            <path d="M2,11 C2,10.447715 2.447715,10 3,10 L21,10 C21.5523,10 22,10.447715 22,11 L22,19 C22,20.6569 20.6569,22 19,22 L5,22 C3.34315,22 2,20.6569 2,19 L2,11 Z" id="Rectangle-259" fill-rule="nonzero"></path>
            <path d="M5,2 C3.34315,2 2,3.34315 2,5 L2,7 C2,7.55228 2.447716,8 3,8 L21,8 C21.5523,8 22,7.55228 22,7 L22,5 C22,3.34315 20.6569,2 19,2 L5,2 Z M5,6 C5.55228,6 6,5.55228 6,5 C6,4.44772 5.55228,4 5,4 C4.44772,4 4,4.44772 4,5 C4,5.55228 4.44772,6 5,6 Z M9,5 C9,5.55228 8.55228,6 8,6 C7.44772,6 7,5.55228 7,5 C7,4.44772 7.44772,4 8,4 C8.55228,4 9,4.44772 9,5 Z M11,6 C11.55228,6 12,5.55228 12,5 C12,4.44772 11.55228,4 11,4 C10.44772,4 10,4.44772 10,5 C10,5.55228 10.44772,6 11,6 Z" id="Subtract"></path>
        </g>
    </g>
</svg>