<?xml version="1.0" encoding="UTF-8"?>
<svg width="20px" height="20px" viewBox="0 0 20 20" version="1.1" xmlns="http://www.w3.org/2000/svg" xmlns:xlink="http://www.w3.org/1999/xlink">
    <title>UI icon/window/light</title>
    <g id="👀-Icons" stroke="none" stroke-width="1" fill="none" fill-rule="evenodd">
        <g id="编组" transform="translate(-2.000000, -2.000000)" fill="#6F767E">
            <path d="M2,5 C2,3.34315 3.34315,2 5,2 L19,2 C20.6569,2 22,3.34315 22,5 L22,19 C22,20.6569 20.6569,22 19,22 L5,22 C3.34315,22 2,20.6569 2,19 L2,5 Z M5,4 L19,4 C19.5523,4 20,4.44771 20,5 L20,8 L4,8 L4,5 C4,4.44772 4.44771,4 5,4 Z M20,10 L20,19 C20,19.5523 19.5523,20 19,20 L5,20 C4.44772,20 4,19.5523 4,19 L4,10 L20,10 Z" id="Union"></path>
            <path d="M7,6 C7,6.55228 6.55228,7 6,7 C5.447715,7 5,6.55228 5,6 C5,5.447715 5.447715,5 6,5 C6.55228,5 7,5.447715 7,6 Z" id="Ellipse-201" fill-rule="nonzero"></path>
            <path d="M10,6 C10,6.55228 9.55228,7 9,7 C8.447715,7 8,6.55228 8,6 C8,5.447715 8.447715,5 9,5 C9.55228,5 10,5.447715 10,6 Z" id="Ellipse-202" fill-rule="nonzero"></path>
            <path d="M13,6 C13,6.55228 12.55228,7 12,7 C11.447715,7 11,6.55228 11,6 C11,5.447715 11.447715,5 12,5 C12.55228,5 13,5.447715 13,6 Z" id="Ellipse-203" fill-rule="nonzero"></path>
        </g>
    </g>
</svg>