<?xml version="1.0" encoding="UTF-8"?>
<svg width="20px" height="20px" viewBox="0 0 20 20" version="1.1" xmlns="http://www.w3.org/2000/svg" xmlns:xlink="http://www.w3.org/1999/xlink">
    <title>UI icon/bluetooth_off/filled</title>
    <g id="👀-Icons" stroke="none" stroke-width="1" fill="none" fill-rule="evenodd">
        <g id="编组" transform="translate(-2.000000, -2.000000)" fill="#6F767E">
            <g id="Subtract" transform="translate(4.999939, 2.413391)">
                <path d="M5.00008,6.17083 L4.91709,9.58662 L0.422064,12.7706 C-0.0286142,13.0898 -0.135174,13.714 0.184057,14.1646 C0.503287,14.6153 1.12742,14.7219 1.5781,14.4026 L5.00008,11.9787 L5.00008,17.6708 C5.00008,18.8575 6.31295,19.5743 7.31122,18.9326 L12.2948,15.7288 C12.806,15.4002 13.1051,14.8946 13.1889,14.3597 L8.50982,9.68057 L8.37719,9.58662 L8.39984,9.57058 L5.00008,6.17083 Z M7.00008,16.755 L7.00008,11.0621 L11.2133,14.0464 L7.00008,16.755 Z" id="F8482D1C-C7F6-47DE-B34A-DC1684AE7577"></path>
                <path d="M10.0555,8.39782 L12.3693,6.75884 C13.5258,5.93968 13.4869,4.2108 12.2948,3.44444 L7.31122,0.240686 C6.31295,-0.401058 5.00008,0.315704 5.00008,1.50245 L5.00008,3.3424 L7.00008,5.3424 L7.00008,2.41829 L11.2133,5.12679 L8.62082,6.96314 L10.0555,8.39782 Z" id="026EBBF3-E82D-4455-A7D4-7BFEDF13D551" fill-rule="nonzero"></path>
            </g>
            <path d="M2.29289344,2.29289344 C2.68341793,1.90236885 3.31658172,1.90236885 3.7071122,2.29289344 L21.7071246,20.2929229 C22.0976251,20.6834234 22.0976251,21.3166241 21.7071246,21.7071246 C21.3166241,22.0976251 20.6834234,22.0976251 20.2929229,21.7071246 L2.29289344,3.7071122 C1.90236885,3.31658172 1.90236885,2.68341793 2.29289344,2.29289344 Z" id="Vector-606-(Stroke)"></path>
        </g>
    </g>
</svg>