<?xml version="1.0" encoding="UTF-8"?>
<svg width="18px" height="20px" viewBox="0 0 18 20" version="1.1" xmlns="http://www.w3.org/2000/svg" xmlns:xlink="http://www.w3.org/1999/xlink">
    <title>UI icon/trash/filled</title>
    <g id="👀-Icons" stroke="none" stroke-width="1" fill="none" fill-rule="evenodd">
        <g id="编组" transform="translate(-3.000000, -2.000000)" fill="#6F767E">
            <path d="M5,8 C4.447715,8 4,8.447715 4,9 L4,19 C4,20.6569 5.34315,22 7,22 L17,22 C18.6569,22 20,20.6569 20,19 L20,9 C20,8.447715 19.5523,8 19,8 L5,8 Z M9,11 C9.55228,11 10,11.44772 10,12 L10,18 C10,18.5523 9.55228,19 9,19 C8.44772,19 8,18.5523 8,18 L8,12 C8,11.44772 8.44772,11 9,11 Z M16,12 C16,11.44772 15.5523,11 15,11 C14.4477,11 14,11.44772 14,12 L14,18 C14,18.5523 14.4477,19 15,19 C15.5523,19 16,18.5523 16,18 L16,12 Z" id="Subtract"></path>
            <path d="M4,6 C3.447715,6 3,5.55228 3,5 C3,4.44772 3.447715,4 4,4 L7.17071,4 C7.58254,2.834808 8.69378,2 10,2 L14,2 C15.3062,2 16.4175,2.834808 16.8293,4 L20,4 C20.5523,4 21,4.44772 21,5 C21,5.55228 20.5523,6 20,6 L4,6 Z" id="Union" fill-rule="nonzero"></path>
        </g>
    </g>
</svg>