<?xml version="1.0" encoding="UTF-8"?>
<svg width="20px" height="20px" viewBox="0 0 20 20" version="1.1" xmlns="http://www.w3.org/2000/svg" xmlns:xlink="http://www.w3.org/1999/xlink">
    <title>UI icon/trash/light</title>
    <g id="👀-Icons" stroke="none" stroke-width="1" fill="none" fill-rule="evenodd">
        <g id="编组" transform="translate(-2.000000, -2.000000)" fill="#6F767E">
            <path d="M10,10 C10.55228,10 11,10.447715 11,11 L11,16 C11,16.55228 10.55228,17 10,17 C9.447715,17 9,16.55228 9,16 L9,11 C9,10.447715 9.447715,10 10,10 Z" id="Path-38-Copy-(Stroke)"></path>
            <path d="M14,10 C14.55228,10 15,10.447715 15,11 L15,16 C15,16.55228 14.55228,17 14,17 C13.447715,17 13,16.55228 13,16 L13,11 C13,10.447715 13.447715,10 14,10 Z" id="Path-38-Copy-(Stroke)"></path>
            <path d="M10,2 C8.34315,2 7,3.34315 7,5 L4,5 L3,5 C2.447715,5 2,5.44772 2,6 C2,6.55228 2.447715,7 3,7 L4,7 L4,19 C4,20.6569 5.34315,22 7,22 L17,22 C18.6569,22 20,20.6569 20,19 L20,7 L21,7 C21.5523,7 22,6.55228 22,6 C22,5.44772 21.5523,5 21,5 L20,5 L17,5 C17,3.34315 15.6569,2 14,2 L10,2 Z M15,5 C15,4.44772 14.5523,4 14,4 L10,4 C9.44772,4 9,4.44772 9,5 L15,5 Z M7,7 L6,7 L6,19 C6,19.5523 6.44772,20 7,20 L17,20 C17.5523,20 18,19.5523 18,19 L18,7 L17,7 L7,7 Z" id="Union"></path>
        </g>
    </g>
</svg>