<?xml version="1.0" encoding="UTF-8"?>
<svg width="18px" height="20px" viewBox="0 0 18 20" version="1.1" xmlns="http://www.w3.org/2000/svg" xmlns:xlink="http://www.w3.org/1999/xlink">
    <title>UI icon/file_add/filled</title>
    <g id="👀-Icons" stroke="none" stroke-width="1" fill="none" fill-rule="evenodd">
        <g id="Subtract" transform="translate(-3.000000, -2.000000)" fill="#6F767E">
            <path d="M3,5 C3,3.34315 4.34315,2 6,2 L15.2574,2 C16.053,2 16.8161,2.316071 17.3787,2.87868 L20.1213,5.62132 C20.6839,6.18393 21,6.94699 21,7.74264 L21,19 C21,20.6569 19.6569,22 18,22 L6,22 C4.34315,22 3,20.6569 3,19 L3,5 Z M15,6.00001 L15,4.20712 C15,3.76167 15.5386,3.53858 15.8536,3.85356 L19.1464,7.14646 C19.4614,7.46144 19.2383,8.00001 18.7929,8.00001 L17,8.00001 C15.8954,8.00001 15,7.10458 15,6.00001 Z M12,9 C12.55228,9 13,9.44772 13,10 L13,12 L15,12 C15.5523,12 16,12.4477 16,13 C16,13.5523 15.5523,14 15,14 L13,14 L13,16 C13,16.5523 12.55228,17 12,17 C11.44771,17 11,16.5523 11,16 L11,14 L9,14 C8.44772,14 8,13.5523 8,13 C8,12.4477 8.44772,12 9,12 L11,12 L11,10 C11,9.44772 11.44772,9 12,9 Z"></path>
        </g>
    </g>
</svg>