<?xml version="1.0" encoding="UTF-8"?>
<svg width="18px" height="20px" viewBox="0 0 18 20" version="1.1" xmlns="http://www.w3.org/2000/svg" xmlns:xlink="http://www.w3.org/1999/xlink">
    <title>UI icon/file_add/light</title>
    <g id="👀-Icons" stroke="none" stroke-width="1" fill="none" fill-rule="evenodd">
        <g id="Union" transform="translate(-3.000000, -2.000000)" fill="#6F767E">
            <path d="M21,19 C21,20.6569 19.6569,22 18,22 L6,22 C4.34315,22 3,20.6569 3,19 L3,5 C3,3.34315 4.34315,2 6,2 L16,2 L16.0107,2.0107091 C16.7136,2.0702502 17.3761,2.376096 17.8787,2.87868 L20.1213,5.12132 C20.6239,5.6239 20.9297,6.28645 20.9893,6.98929 L21,7 L21,19 Z M18,20 L6,20 C5.44772,20 5,19.5523 5,19 L5,5 C5,4.44772 5.44771,4 6,4 L15,4 L15,6 C15,7.10457 15.8954,8 17,8 L19,8 L19,19 C19,19.5523 18.5523,20 18,20 Z"></path>
            <path d="M13,10 C13,9.447715 12.55228,9 12,9 C11.44772,9 11,9.447715 11,10 L11,12 L9,12 C8.447715,12 8,12.44772 8,13 C8,13.55228 8.447715,14 9,14 L11,14 L11,16 C11,16.55228 11.44771,17 12,17 C12.55228,17 13,16.55228 13,16 L13,14 L15,14 C15.55228,14 16,13.55228 16,13 C16,12.44772 15.55228,12 15,12 L13,12 L13,10 Z" fill-rule="nonzero"></path>
        </g>
    </g>
</svg>