<?xml version="1.0" encoding="UTF-8"?>
<svg width="21px" height="19px" viewBox="0 0 21 19" version="1.1" xmlns="http://www.w3.org/2000/svg" xmlns:xlink="http://www.w3.org/1999/xlink">
    <title>UI icon/thumbs_up/filled</title>
    <g id="👀-Icons" stroke="none" stroke-width="1" fill="none" fill-rule="evenodd">
        <g id="编组" transform="translate(-2.000000, -2.000000)" fill="#6F767E" fill-rule="nonzero">
            <g>
                <path d="M2,12 C2,10.895431 2.895431,10 4,10 L5,10 C5.55228,10 6,10.447715 6,11 L6,20 C6,20.5523 5.55228,21 5,21 L4,21 C2.895431,21 2,20.1046 2,19 L2,12 Z" id="Rectangle-183"></path>
                <path d="M22.9253236,12.2002086 C23.2871072,10.8794819 22.2888388,9.57765317 20.9138731,9.57710285 L15.4464655,9.57491193 C15.1073128,9.57477695 14.8585383,9.25740589 14.9407922,8.92981749 L15.686928,5.95831481 C16.0704041,4.431123 15.3370752,2.84366547 13.9228963,2.1396697 L13.9228963,2.1396697 C13.0775593,1.71885012 12.0708329,2.27130108 11.9767942,3.20761682 L11.7496704,5.46886873 C11.6849477,6.11329863 11.4200916,6.72161478 10.9919583,7.20919184 L8.51549429,10.0294799 C8.18315911,10.4079577 8,10.8936139 8,11.39633 L8,18.9233041 C8,20.0702632 8.93384929,21 10.0858096,21 L18.125156,21 C19.5360915,21 20.7723509,20.0598797 21.143625,18.704628 L22.9253236,12.2002086 Z" id="Path"></path>
            </g>
        </g>
    </g>
</svg>