<?xml version="1.0" encoding="UTF-8"?>
<svg width="21px" height="20px" viewBox="0 0 21 20" version="1.1" xmlns="http://www.w3.org/2000/svg" xmlns:xlink="http://www.w3.org/1999/xlink">
    <title>UI icon/thumbs_up/light</title>
    <g id="👀-Icons" stroke="none" stroke-width="1" fill="none" fill-rule="evenodd">
        <g id="Union" transform="translate(-2.000000, -2.000000)" fill="#6F767E">
            <path d="M13.0272,9.67119808 C12.9306,10.2509581 13.0939,10.8438781 13.4737,11.2924281 C13.8535,11.7409781 14.4114,11.9997481 14.9991,11.9999981 L19.1582,12.0017781 C19.8087,12.0020581 20.2857,12.6133881 20.1279,13.2444081 L18.628,19.2426081 C18.5166,19.6877081 18.1167,20.0000081 17.6578,20.0000081 L8,20.0000081 L8,12.7016081 L10.90434,9.07112808 C11.6136,8.18456808 12,7.08301808 12,5.94765808 L12,4.79259808 C12.9985,5.26016808 13.582,6.34276808 13.3969,7.45331808 L13.0272,9.67119808 Z M6.8,10.9999981 L9.34261,7.82173808 C9.76816,7.28979808 10,6.62886808 10,5.94765808 L10,4.49026808 C10,3.26515508 11.20023,2.40007708 12.3625,2.78749148 C14.4572,3.48573308 15.7326,5.60412808 15.3696,7.78211808 L15,9.99999808 L19.1591,10.0017781 C21.1104,10.0026181 22.5416,11.8366081 22.0682,13.7296081 L20.5682,19.7278081 C20.2343,21.0632081 19.0344,22.0000081 17.6578,22.0000081 L8,22.0000081 L5,22.0000081 C3.34315,22.0000081 2,20.6568081 2,19.0000081 L2,14.0000081 C2,12.3431481 3.34315,10.9999981 5,10.9999981 L6.8,10.9999981 Z M6,13.0000081 L5,13.0000081 C4.44772,13.0000081 4,13.4477081 4,14.0000081 L4,19.0000081 C4,19.5523081 4.44772,20.0000081 5,20.0000081 L6,20.0000081 L6,13.0000081 Z"></path>
        </g>
    </g>
</svg>