<?xml version="1.0" encoding="UTF-8"?>
<svg width="4px" height="16px" viewBox="0 0 4 16" version="1.1" xmlns="http://www.w3.org/2000/svg" xmlns:xlink="http://www.w3.org/1999/xlink">
    <title>UI icon/more_vertical/filled</title>
    <g id="👀-Icons" stroke="none" stroke-width="1" fill="none" fill-rule="evenodd">
        <g id="编组" transform="translate(-10.000000, -4.000000)" fill="#6F767E" fill-rule="nonzero">
            <g>
                <path d="M14,6 C14,7.10457 13.10457,8 12,8 C10.895431,8 10,7.10457 10,6 C10,4.895431 10.895431,4 12,4 C13.10457,4 14,4.895431 14,6 Z" id="Ellipse-31"></path>
                <path d="M14,12 C14,13.10457 13.10457,14 12,14 C10.895431,14 10,13.10457 10,12 C10,10.895431 10.895431,10 12,10 C13.10457,10 14,10.895431 14,12 Z" id="Ellipse-32"></path>
                <path d="M14,18 C14,19.10457 13.10457,20 12,20 C10.895431,20 10,19.10457 10,18 C10,16.895431 10.895431,16 12,16 C13.10457,16 14,16.895431 14,18 Z" id="Ellipse-33"></path>
            </g>
        </g>
    </g>
</svg>