<?xml version="1.0" encoding="UTF-8"?>
<svg width="6px" height="20px" viewBox="0 0 6 20" version="1.1" xmlns="http://www.w3.org/2000/svg" xmlns:xlink="http://www.w3.org/1999/xlink">
    <title>UI icon/more_vertical/light</title>
    <g id="👀-Icons" stroke="none" stroke-width="1" fill="none" fill-rule="evenodd">
        <g id="编组" transform="translate(-9.000000, -2.000000)" fill="#6F767E">
            <path d="M12,6 C12.55228,6 13,5.55228 13,5 C13,4.44772 12.55228,4 12,4 C11.44772,4 11,4.44772 11,5 C11,5.55228 11.44772,6 12,6 Z M12,8 C13.65685,8 15,6.65685 15,5 C15,3.34315 13.65685,2 12,2 C10.34315,2 9,3.34315 9,5 C9,6.65685 10.34315,8 12,8 Z" id="Ellipse-31-(Stroke)"></path>
            <path d="M12,13 C12.55228,13 13,12.55228 13,12 C13,11.44772 12.55228,11 12,11 C11.44772,11 11,11.44772 11,12 C11,12.55228 11.44772,13 12,13 Z M12,15 C13.65685,15 15,13.65685 15,12 C15,10.34315 13.65685,9 12,9 C10.34315,9 9,10.34315 9,12 C9,13.65685 10.34315,15 12,15 Z" id="Ellipse-32-(Stroke)"></path>
            <path d="M12,20 C12.55228,20 13,19.55228 13,19 C13,18.44772 12.55228,18 12,18 C11.44772,18 11,18.44772 11,19 C11,19.55228 11.44772,20 12,20 Z M12,22 C13.65685,22 15,20.65685 15,19 C15,17.34315 13.65685,16 12,16 C10.34315,16 9,17.34315 9,19 C9,20.65685 10.34315,22 12,22 Z" id="Ellipse-33-(Stroke)"></path>
        </g>
    </g>
</svg>