<?xml version="1.0" encoding="UTF-8"?>
<svg width="21px" height="10px" viewBox="0 0 21 10" version="1.1" xmlns="http://www.w3.org/2000/svg" xmlns:xlink="http://www.w3.org/1999/xlink">
    <title>UI icon/redo/light</title>
    <g id="👀-Icons" stroke="none" stroke-width="1" fill="none" fill-rule="evenodd">
        <g id="编组" transform="translate(-2.000000, -7.000000)" fill="#6F767E" fill-rule="nonzero">
            <g id="UI-icon/redo/light">
                <path d="M3.965844,14.7427768 C5.05063444,10.6943064 9.21195616,8.29176621 13.2603778,9.37655631 C15.5333788,9.98557637 17.2572795,11.5572865 18.1513799,13.5495567 L16.6969793,13.1552767 C16.163979,13.0107667 15.6146788,13.3257467 15.4701788,13.8587867 C15.3256787,14.3918368 15.6406788,14.9410968 16.173679,15.0855969 L19.3440804,15.9450669 C19.3794804,15.9568269 19.4155804,15.9666469 19.4523804,15.9744169 L19.8580806,16.084397 C20.1144807,16.153927 20.3880808,16.118517 20.6183809,15.9859969 C20.848781,15.8534669 21.016881,15.6347269 21.0855811,15.3780569 L22.0735815,11.6907965 C22.2165815,11.1573365 21.8999814,10.6089964 21.3664812,10.4660564 C20.833081,10.3231164 20.2846807,10.6396964 20.1417807,11.1731565 L19.8152805,12.3914566 C18.6481801,10.0401464 16.5354792,8.1835562 13.7780781,7.44470312 C8.66266594,6.07403599 3.40466376,9.10974628 2.0339956,14.2251468 C1.89105314,14.7586068 2.20763627,15.3069469 2.74110249,15.4498869 C3.27457371,15.5928269 3.82290394,15.2762469 3.965844,14.7427768 Z" id="Union"></path>
            </g>
        </g>
    </g>
</svg>