<?xml version="1.0" encoding="UTF-8"?>
<svg width="21px" height="14px" viewBox="0 0 21 14" version="1.1" xmlns="http://www.w3.org/2000/svg" xmlns:xlink="http://www.w3.org/1999/xlink">
    <title>UI icon/fast_forward/filled</title>
    <g id="👀-Icons" stroke="none" stroke-width="1" fill="none" fill-rule="evenodd">
        <g id="编组" transform="translate(-2.000000, -5.000000)" fill="#6F767E" fill-rule="nonzero">
            <g id="Union">
                <path d="M21.3332829,13.9999938 C22.6666818,12.9999937 22.6666818,10.9999934 21.3332829,9.99999333 L15.9999876,5.99999183 C14.3518891,4.76392368 12,5.93987883 12,7.99999308 L12,10.7490934 C11.8373113,10.4673334 11.6150915,10.2113434 11.3333218,10.0000233 L6,6.00002183 C4.35190793,4.76395468 2,5.93990883 2,8.00002308 L2,16.0000541 C2,18.0601543 4.35190793,19.2360545 6,18.0000543 L11.3333218,14.0000238 C11.6150915,13.7886938 11.8373113,13.5327138 12,13.2509437 L12,15.9999541 C12,18.0601543 14.3518891,19.2360545 15.9999876,17.9999543 L21.3332829,13.9999938 Z"></path>
            </g>
        </g>
    </g>
</svg>