<?xml version="1.0" encoding="UTF-8"?>
<svg width="18px" height="20px" viewBox="0 0 18 20" version="1.1" xmlns="http://www.w3.org/2000/svg" xmlns:xlink="http://www.w3.org/1999/xlink">
    <title>UI icon/files/filled</title>
    <g id="👀-Icons" stroke="none" stroke-width="1" fill="none" fill-rule="evenodd">
        <g id="Subtract" transform="translate(-3.000000, -2.000000)" fill="#6F767E">
            <path d="M7,5 C7,3.34315 8.34315,2 10,2 L15.2574,2 C16.053,2 16.8161,2.316071 17.3787,2.87868 L20.1213,5.62132 C20.6839,6.18393 21,6.94699 21,7.74264 L21,15 C21,16.6569 19.6569,18 18,18 L17,18 L17,19 C17,20.6569 15.6569,22 14,22 L6,22 C4.34315,22 3,20.6569 3,19 L3,9 C3,7.34315 4.34315,6 6,6 L7,6 L7,5 Z M7,15 L7,8 L6,8 C5.44772,8 5,8.44772 5,9 L5,19 C5,19.5523 5.44772,20 6,20 L14,20 C14.5523,20 15,19.5523 15,19 L15,18 L10,18 C8.34315,18 7,16.6569 7,15 Z M15,4.20712 L15,6.00001 C15,7.10458 15.8954,8.00001 17,8.00001 L18.7929,8.00001 C19.2383,8.00001 19.4614,7.46144 19.1464,7.14646 L15.8536,3.85356 C15.5386,3.53858 15,3.76167 15,4.20712 Z"></path>
        </g>
    </g>
</svg>