<?xml version="1.0" encoding="UTF-8"?>
<svg width="18px" height="20px" viewBox="0 0 18 20" version="1.1" xmlns="http://www.w3.org/2000/svg" xmlns:xlink="http://www.w3.org/1999/xlink">
    <title>UI icon/files/light</title>
    <g id="👀-Icons" stroke="none" stroke-width="1" fill="none" fill-rule="evenodd">
        <g id="编组" transform="translate(-3.000000, -2.000000)" fill="#6F767E">
            <path d="M7,6 L6,6 C4.34315,6 3,7.34315 3,9 L3,19 C3,20.6569 4.34315,22 6,22 L14,22 C15.6569,22 17,20.6569 17,19 L17,18 L15,18 L15,19 C15,19.5523 14.5523,20 14,20 L6,20 C5.44772,20 5,19.5523 5,19 L5,9 C5,8.44772 5.44772,8 6,8 L7,8 L7,6 Z" id="Subtract" fill-rule="nonzero"></path>
            <path d="M20.9902,7 C20.9967,7.08042 21,7.16136 21,7.24264 L21,15 C21,16.6569 19.6569,18 18,18 L10,18 C8.34315,18 7,16.6569 7,15 L7,5 C7,3.34315 8.34315,2 10,2 L15.75736,2 C15.83864,2 15.91958,2.00329843 16,2.00982115 L16,2 L16.01071,2.0107091 C16.71355,2.0702502 17.3761,2.376096 17.8787,2.87868 L20.1213,5.12132 C20.6239,5.6239 20.9298,6.28645 20.9893,6.98929 L21,7 L20.9902,7 Z M18,16 L10,16 C9.44772,16 9,15.5523 9,15 L9,5 C9,4.44772 9.44772,4 10,4 L15.75736,4 C15.83985,4 15.92129,4.01019 16,4.02988 L16,5 C16,6.10457 16.89543,7 18,7 L18.9701,7 C18.9898,7.07871 19,7.16015 19,7.24264 L19,15 C19,15.5523 18.5523,16 18,16 Z" id="Union"></path>
        </g>
    </g>
</svg>