<?xml version="1.0" encoding="UTF-8"?>
<svg width="20px" height="19px" viewBox="0 0 20 19" version="1.1" xmlns="http://www.w3.org/2000/svg" xmlns:xlink="http://www.w3.org/1999/xlink">
    <title>UI icon/headphone/light</title>
    <g id="👀-Icons" stroke="none" stroke-width="1" fill="none" fill-rule="evenodd">
        <g id="Ellipse-198-(Stroke)" transform="translate(-2.000000, -2.000000)" fill="#6F767E">
            <path d="M12,4 C7.58172,4 4,7.58172 4,12 L6,12 C7.65685,12 9,13.3431 9,15 L9,18 C9,19.6569 7.65685,21 6,21 L5,21 C3.34315,21 2,19.6569 2,18 L2,12 C2,6.47715 6.47715,2 12,2 C17.5228,2 22,6.47715 22,12 L22,18 C22,19.6569 20.6569,21 19,21 L18,21 C16.3431,21 15,19.6569 15,18 L15,15 C15,13.3431 16.3431,12 18,12 L20,12 C20,7.58172 16.4183,4 12,4 Z M20,14 L18,14 C17.4477,14 17,14.4477 17,15 L17,18 C17,18.5523 17.4477,19 18,19 L19,19 C19.5523,19 20,18.5523 20,18 L20,14 Z M4,14 L4,18 C4,18.5523 4.44772,19 5,19 L6,19 C6.55228,19 7,18.5523 7,18 L7,15 C7,14.4477 6.55228,14 6,14 L4,14 Z"></path>
        </g>
    </g>
</svg>