<?xml version="1.0" encoding="UTF-8"?>
<svg width="20px" height="20px" viewBox="0 0 20 20" version="1.1" xmlns="http://www.w3.org/2000/svg" xmlns:xlink="http://www.w3.org/1999/xlink">
    <title>UI icon/cloud_download/filled</title>
    <g id="👀-Icons" stroke="none" stroke-width="1" fill="none" fill-rule="evenodd">
        <g id="编组" transform="translate(-2.000000, -2.000000)" fill="#6F767E">
            <path d="M16.7412,15.5704093 C16.8787,15.6687108 17.0525,15.710554 17.2128,15.6571989 C19.9944,14.7301419 22,12.1031299 22,9.00723388 C22,5.13724872 18.866,2 15,2 C12.1108,2 9.63037,3.7522289 8.56143,6.25303059 C8.07015,6.09150384 7.54527,6.00413364 7,6.00413364 C4.23858,6.00413364 2,8.24502702 2,11.0093007 C2,13.6157915 3.99035,15.757002 6.53263,15.9928454 C6.68166,16.0067598 6.8249,15.9427938 6.9336,15.8397874 C7.36665,15.4294638 7.91656,15.1556812 8.50236,15.0557781 C8.77458,15.00923 9,14.789303 9,14.5129176 L9,13.0113675 C9,11.3528053 10.34315,10.0082673 12,10.0082673 C13.6569,10.0082673 15,11.3528053 15,13.0113675 L15,14.5129176 C15,14.789303 15.2254,15.00923 15.4977,15.054777 C15.9372,15.1284531 16.3635,15.3003305 16.7412,15.5704093 Z" id="Subtract" fill-rule="nonzero"></path>
            <path d="M9.70710996,16.70711 C9.31657998,17.09763 8.68341703,17.09763 8.29289305,16.70711 C7.90236898,16.31658 7.90236898,15.68342 8.29289305,15.29289 L11.2928898,12.292893 C11.4873898,12.0983936 11.7420798,12.0007641 11.9969998,12 C11.9979998,12 11.9989998,12 12,12 C12.0009998,12 12.0019998,12 12.0029998,12 C12.1374998,12.0003991 12.2657498,12.0273459 12.3827798,12.0758785 C12.5007298,12.124678 12.6112298,12.197016 12.7071098,12.292893 L15.7071095,15.29289 C16.0976295,15.68342 16.0976295,16.31658 15.7071095,16.70711 C15.3165796,17.09763 14.6834196,17.09763 14.2928896,16.70711 L13,15.41421 L13,21 C13,21.55229 12.5522798,22 12,22 C11.4477198,22 11,21.55229 11,21 L11,15.41421 L9.70710996,16.70711 Z" id="Union" transform="translate(12.000000, 17.000000) scale(1, -1) translate(-12.000000, -17.000000) "></path>
        </g>
    </g>
</svg>