<?xml version="1.0" encoding="UTF-8"?>
<svg width="20px" height="20px" viewBox="0 0 20 20" version="1.1" xmlns="http://www.w3.org/2000/svg" xmlns:xlink="http://www.w3.org/1999/xlink">
    <title>UI icon/cycling/filled</title>
    <g id="👀-Icons" stroke="none" stroke-width="1" fill="none" fill-rule="evenodd">
        <g id="编组" transform="translate(-2.000000, -2.000000)" fill="#6F767E">
            <g id="Union" transform="translate(2.000000, 2.000000)">
                <path d="M14,2 C14,3.10457 13.1046,4 12,4 C10.8954,4 10,3.10457 10,2 C10,0.895431 10.8954,0 12,0 C13.1046,0 14,0.895431 14,2 Z" id="D84D6CED-0BB2-48F5-8E4A-77B2DD26A094" fill-rule="nonzero"></path>
                <path d="M4,20 C6.20914,20 8,18.2091 8,16 C8,13.7909 6.20914,12 4,12 C1.79086,12 0,13.7909 0,16 C0,18.2091 1.79086,20 4,20 Z M4,18 C5.10457,18 6,17.1046 6,16 C6,14.8954 5.10457,14 4,14 C2.89543,14 2,14.8954 2,16 C2,17.1046 2.89543,18 4,18 Z" id="CF939F7E-B7CB-4A81-AFF4-D7467CC8CCD9"></path>
                <path d="M16,20 C18.2091,20 20,18.2091 20,16 C20,13.8715 18.3375,12.1313 16.2402,12.0071 L15.3125,8.99996 L16.0001,8.99996 C16.5524,8.99996 17.0001,8.55225 17.0001,7.99996 C17.0001,7.44768 16.5524,6.99996 16.0001,6.99996 L13.4143,6.99996 L11.4972,5.08288 C10.6543,4.24 9.26592,4.31689 8.52127,5.24771 L5.90059,8.52355 C5.16786,9.43946 5.37698,10.7864 6.35293,11.437 L9.35903,13.4411 L8.52995,16.7574 C8.396,17.2932 8.72176,17.8362 9.25755,17.9701 C9.79335,18.1041 10.3363,17.7783 10.4702,17.2425 L11.3753,13.6223 C11.5347,12.9845 11.276,12.3154 10.729,11.9507 L7.46233,9.77294 L10.083,6.4971 L12.1303,8.54435 C12.4194,8.83353 12.8108,8.9971 13.2194,8.99993 L14.2665,12.3941 C12.9255,13.04 12,14.4119 12,16 C12,18.2091 13.7909,20 16,20 Z M16,18 C17.1046,18 18,17.1046 18,16 C18,14.8954 17.1046,14 16,14 C14.8954,14 14,14.8954 14,16 C14,17.1046 14.8954,18 16,18 Z" id="43B54B79-B8C7-4E29-B2A7-8725F7E0AEDF"></path>
            </g>
        </g>
    </g>
</svg>