<?xml version="1.0" encoding="UTF-8"?>
<svg width="20px" height="20px" viewBox="0 0 20 20" version="1.1" xmlns="http://www.w3.org/2000/svg" xmlns:xlink="http://www.w3.org/1999/xlink">
    <title>UI icon/cycling/light</title>
    <g id="👀-Icons" stroke="none" stroke-width="1" fill="none" fill-rule="evenodd">
        <g id="编组" transform="translate(-2.000000, -2.000000)" fill="#6F767E">
            <g id="Union" transform="translate(2.000000, 9.483032)">
                <path d="M16.2402,4.52406 L14.8445,0 L12.9333,0.58959 L14.2665,4.91107 C12.9255,5.55693 12,6.92887 12,8.51697 C12,10.7261 13.7909,12.517 16,12.517 C18.2091,12.517 20,10.7261 20,8.51697 C20,6.38846 18.3375,4.64826 16.2402,4.52406 Z M16,10.517 C17.1046,10.517 18,9.62154 18,8.51697 C18,7.4124 17.1046,6.51697 16,6.51697 C14.8954,6.51697 14,7.4124 14,8.51697 C14,9.62154 14.8954,10.517 16,10.517 Z" id="A6940967-2B41-437F-AC46-7B0810397E9A"></path>
                <path d="M4,12.517 C6.20914,12.517 8,10.7261 8,8.51697 C8,6.30783 6.20914,4.51697 4,4.51697 C1.79086,4.51697 0,6.30783 0,8.51697 C0,10.7261 1.79086,12.517 4,12.517 Z M4,10.517 C5.10457,10.517 6,9.62154 6,8.51697 C6,7.4124 5.10457,6.51697 4,6.51697 C2.89543,6.51697 2,7.4124 2,8.51697 C2,9.62154 2.89543,10.517 4,10.517 Z" id="FD6A97A1-ECF2-469B-AAC7-AF01158DEFB7"></path>
            </g>
            <g id="Vector" transform="translate(7.462036, 2.000000)">
                <path d="M6.53796,4 C7.64253,4 8.53796,3.10457 8.53796,2 C8.53796,0.895431 7.64253,0 6.53796,0 C5.43339,0 4.53796,0.895431 4.53796,2 C4.53796,3.10457 5.43339,4 6.53796,4 Z" id="7239A5AD-9EB3-47AE-B2E0-8707F930429A"></path>
                <path d="M3.05911,5.24771 C3.80376,4.31689 5.19218,4.24 6.03506,5.08288 L7.95214,6.99996 L10.5379,6.99996 C11.0902,6.99996 11.5379,7.44768 11.5379,7.99996 C11.5379,8.55225 11.0902,8.99996 10.5379,8.99996 L7.76805,8.99996 C7.35549,8.99996 6.95983,8.83607 6.6681,8.54435 L4.62085,6.4971 L2.00017,9.77294 L5.26687,11.9507 C5.81386,12.3154 6.07256,12.9845 5.91312,13.6223 L5.00807,17.2425 C4.87412,17.7783 4.33119,18.1041 3.79539,17.9701 C3.2596,17.8362 2.93384,17.2932 3.06779,16.7574 L3.89687,13.4411 L0.890772,11.437 C-0.0851752,10.7864 -0.294295,9.43946 0.438435,8.52355 L3.05911,5.24771 Z" id="6D714162-D259-4DF3-87D1-7F1265D41D19"></path>
            </g>
        </g>
    </g>
</svg>