<?xml version="1.0" encoding="UTF-8"?>
<svg width="16px" height="20px" viewBox="0 0 16 20" version="1.1" xmlns="http://www.w3.org/2000/svg" xmlns:xlink="http://www.w3.org/1999/xlink">
    <title>UI icon/apple/filled</title>
    <g id="👀-Icons" stroke="none" stroke-width="1" fill="none" fill-rule="evenodd">
        <g id="编组" transform="translate(-4.000000, -2.000000)" fill="#6F767E" fill-rule="nonzero">
            <g id="Vector">
                <path d="M17.6007002,12.6253279 C17.6189002,14.5792279 18.7200002,15.6915279 19.5062002,16.2379279 C19.9243002,16.5285279 20.1748002,17.0414279 19.9800002,17.5118279 C19.7585002,18.0465279 19.4081002,18.7753279 18.9009002,19.5166279 C18.0673002,20.7349279 17.2022002,21.9488279 15.8393002,21.9739279 C14.5001002,21.9986279 14.0695002,21.1798279 12.5384602,21.1798279 C11.0078802,21.1798279 10.5294402,21.9488279 9.26177019,21.9986279 C7.94625019,22.0485279 6.94445019,20.6812279 6.10397019,19.4673279 C4.38646919,16.9842279 3.07394319,12.4507279 4.83633319,9.39060789 C5.71185019,7.87091789 7.27647019,6.90858789 8.97472019,6.88390789 C10.2665302,6.85926789 11.4858102,7.75299789 12.2755502,7.75299789 C13.0647802,7.75299789 14.5465002,6.67820789 16.1042002,6.83605789 C16.6396002,6.85833789 17.9693002,7.02158789 19.0786002,8.03148789 C19.4999002,8.41500789 19.3498002,9.06680789 18.9435002,9.46616789 C18.3256002,10.0735579 17.5872002,11.1155479 17.6007002,12.6253279 Z M15.0839002,5.19329789 C15.5963002,4.57311789 15.9857002,3.77454789 16.1063002,2.93077889 C16.1806002,2.41049889 15.7098002,2.01136289 15.2105002,2.17550059 C14.4518002,2.42493989 13.6902602,2.91637889 13.1779902,3.51579789 C12.6822402,4.08899789 12.2336602,4.92591789 12.1196702,5.80213789 C12.0587702,6.27026789 12.4602002,6.65052789 12.9217202,6.55128789 C13.7630202,6.37038789 14.5529002,5.83643789 15.0839002,5.19329789 Z"></path>
            </g>
        </g>
    </g>
</svg>