<?xml version="1.0" encoding="UTF-8"?>
<svg width="16px" height="20px" viewBox="0 0 16 20" version="1.1" xmlns="http://www.w3.org/2000/svg" xmlns:xlink="http://www.w3.org/1999/xlink">
    <title>UI icon/apple/light</title>
    <g id="👀-Icons" stroke="none" stroke-width="1" fill="none" fill-rule="evenodd">
        <g id="Vector-(Stroke)" transform="translate(-4.000000, -2.000000)" fill="#6F767E">
            <path d="M4.83633319,9.39060789 C5.71185019,7.87091789 7.27647019,6.90858789 8.97472019,6.88390789 C9.47958019,6.87427789 9.97336019,7.00491789 10.4347502,7.16765789 C10.6427302,7.24101789 10.8441202,7.32088789 11.0369902,7.39738789 C11.5110602,7.58541789 11.9335802,7.75299789 12.2755502,7.75299789 C12.5070002,7.75299789 12.7980002,7.66056789 13.1330102,7.53388789 C13.2416302,7.49281789 13.3548802,7.44814789 13.4722302,7.40185789 C14.2271002,7.10411789 15.1514002,6.73950789 16.1042002,6.83605789 C16.1566002,6.83823789 16.2166002,6.84176789 16.2832002,6.84730789 C16.8977002,6.89839789 18.0778002,7.12041789 19.0786002,8.03148789 C19.4999002,8.41500789 19.3498002,9.06680789 18.9435002,9.46616789 C18.3256002,10.0735579 17.5872002,11.1155479 17.6007002,12.6253279 C17.6189002,14.5792279 18.7200002,15.6915279 19.5062002,16.2379279 C19.9243002,16.5285279 20.1748002,17.0414279 19.9800002,17.5118279 C19.7585002,18.0465279 19.4081002,18.7753279 18.9009002,19.5166279 C18.0673002,20.7349279 17.2022002,21.9488279 15.8393002,21.9739279 C15.1851002,21.9860279 14.7478002,21.7968279 14.2930002,21.6001279 C13.8168502,21.3941279 13.3216202,21.1798279 12.5384602,21.1798279 C11.7186802,21.1798279 11.2007302,21.4004279 10.7016802,21.6130279 C10.2689702,21.7973279 9.85048019,21.9755279 9.26177019,21.9986279 C7.94625019,22.0485279 6.94445019,20.6812279 6.10397019,19.4673279 C4.38646919,16.9842279 3.07394319,12.4507279 4.83633319,9.39060789 Z M12.1196702,5.80213789 C12.1249902,5.76121789 12.1310502,5.72038789 12.1378002,5.67965789 C12.2756702,4.84831789 12.7053902,4.06222789 13.1779902,3.51579789 C13.4379502,3.21160789 13.7621102,2.93522489 14.1175002,2.70416589 L14.1197002,2.70273289 C14.1434002,2.68735889 14.1672002,2.67218389 14.1912002,2.65721789 C14.5154002,2.45451989 14.8633002,2.28966389 15.2105002,2.17550059 C15.7098002,2.01136289 16.1806002,2.41049889 16.1063002,2.93077889 C16.0539002,3.29759789 15.9506002,3.65587789 15.8086002,3.99466789 C15.7942002,4.02884789 15.7795002,4.06282789 15.7644002,4.09659789 L15.7626002,4.10067789 C15.6460002,4.36062789 15.5067002,4.60812789 15.3504002,4.83803789 C15.2662002,4.96182789 15.1771002,5.08051789 15.0839002,5.19329789 C14.8147002,5.51939789 14.4788002,5.81743789 14.1035002,6.05559789 L14.0975002,6.05944789 C13.7342102,6.28908789 13.3341402,6.46260789 12.9217202,6.55128789 C12.6644202,6.60661789 12.4257902,6.51290789 12.2755502,6.33802789 C12.1563002,6.19922789 12.0927202,6.00928789 12.1196702,5.80213789 Z M9.23035019,20.0039279 C9.22843686,20.0037946 9.22548352,20.0030612 9.22149019,20.0017279 C9.22537686,20.0023279 9.22833019,20.0030612 9.23035019,20.0039279 Z M15.6008002,12.6433279 C15.5867002,11.0699979 16.1321002,9.84483789 16.7545002,8.96451789 C16.4521002,8.87102789 16.1839002,8.84110789 16.0210002,8.83432789 C15.9814002,8.83267789 15.9419002,8.82985789 15.9025002,8.82586789 C15.6108002,8.79629789 15.2200002,8.87691789 14.6040002,9.10794789 C14.5347002,9.13397789 14.4182002,9.17953789 14.2870002,9.23089789 C14.0711002,9.31537789 13.8150802,9.41555789 13.6625102,9.47023789 C13.3767002,9.57268789 12.8498302,9.75299789 12.2755502,9.75299789 C11.7414502,9.75299789 11.2646702,9.60924789 10.9650602,9.50747789 C10.7326702,9.42854789 10.4683802,9.32364789 10.2580002,9.24014789 C10.1953802,9.21529789 10.1375302,9.19233789 10.0867302,9.17252789 C9.52740019,8.95438789 9.22655019,8.87946789 9.01286019,8.88354789 L9.00378019,8.88371789 C8.05623019,8.89748789 7.11668019,9.43910789 6.56946019,10.3887379 C6.00624019,11.3669079 5.85912019,12.7370279 6.13472019,14.2975279 C6.40749019,15.8421279 7.05490019,17.3260279 7.74831019,18.3288279 C8.17984019,18.9521279 8.52953019,19.4262279 8.87243019,19.7476279 C9.06431019,19.9275279 9.17372019,19.9834279 9.21326019,19.9987279 C9.40351019,19.9876279 9.52058019,19.9408279 10.0226202,19.7285279 C10.5830402,19.4915279 11.3769502,19.1798279 12.5384602,19.1798279 C13.7267702,19.1798279 14.5266002,19.5222279 15.0543002,19.7503279 C15.5223002,19.9526279 15.6085002,19.9778279 15.8024002,19.9743279 L15.8050002,19.9742279 C15.8373002,19.9739279 15.9451002,19.9726279 16.2027002,19.7318279 C16.5072002,19.4471279 16.8145002,19.0241279 17.2504002,18.3871279 C17.4699002,18.0663279 17.6549002,17.7451279 17.8077002,17.4475279 C17.3889002,17.0855279 16.9479002,16.6144279 16.5711002,16.0219279 C16.0250002,15.1632279 15.6139002,14.0495279 15.6008002,12.6433279 Z"></path>
        </g>
    </g>
</svg>