<?xml version="1.0" encoding="UTF-8"?>
<svg width="20px" height="20px" viewBox="0 0 20 20" version="1.1" xmlns="http://www.w3.org/2000/svg" xmlns:xlink="http://www.w3.org/1999/xlink">
    <title>UI icon/meh/filled</title>
    <g id="👀-Icons" stroke="none" stroke-width="1" fill="none" fill-rule="evenodd">
        <g id="Subtract" transform="translate(-2.000000, -2.000000)" fill="#6F767E">
            <path d="M12,22 C17.5228,22 22,17.5228 22,12 C22,6.47715 17.5228,2 12,2 C6.47715,2 2,6.47715 2,12 C2,17.5228 6.47715,22 12,22 Z M8,10 C8.55228,10 9,9.55228 9,9 C9,8.44772 8.55228,8 8,8 C7.44772,8 7,8.44772 7,9 C7,9.55228 7.44772,10 8,10 Z M17,9 C17,9.55228 16.5523,10 16,10 C15.4477,10 15,9.55228 15,9 C15,8.44772 15.4477,8 16,8 C16.5523,8 17,8.44772 17,9 Z M8,14 C7.44772,14 7,14.4477 7,15 C7,15.5523 7.44772,16 8,16 L16,16 C16.5523,16 17,15.5523 17,15 C17,14.4477 16.5523,14 16,14 L8,14 Z"></path>
        </g>
    </g>
</svg>