<?xml version="1.0" encoding="UTF-8"?>
<svg width="22px" height="17px" viewBox="0 0 22 17" version="1.1" xmlns="http://www.w3.org/2000/svg" xmlns:xlink="http://www.w3.org/1999/xlink">
    <title>UI icon/truck/filled</title>
    <g id="👀-Icons" stroke="none" stroke-width="1" fill="none" fill-rule="evenodd">
        <g id="Subtract" transform="translate(-1.000000, -4.000000)" fill="#6F767E">
            <path d="M4,4 C2.34315,4 1,5.34315 1,7 L1,16 C1,17.3538 1.896693,18.4981 3.12854,18.8715 C3.5019,20.1033 4.64623,21 6,21 C7.30622,21 8.41746,20.1652 8.82929,19 L15.1707,19 C15.5825,20.1652 16.6938,21 18,21 C19.3146,21 20.4318,20.1544 20.8372,18.9775 C22.0584,18.8128 23,17.7664 23,16.5 L23,11.66667 C23,11.23393 22.8596,10.81286 22.6,10.46667 L20.6,7.8 C20.2223,7.29639 19.6295,7 19,7 L17,7 C17,5.34315 15.6569,4 14,4 L4,4 Z M17.5,9 C17.2239,9 17,9.22386 17,9.5 L17,12.5 C17,12.77614 17.2239,13 17.5,13 L20.5,13 C20.7761,13 21,12.77614 21,12.5 L21,11.83333 C21,11.72515 20.9649,11.61988 20.9,11.53333 L19.15,9.2 C19.0556,9.0741 18.9074,9 18.75,9 L17.5,9 Z M7,18 C7,18.5523 6.55228,19 6,19 C5.44772,19 5,18.5523 5,18 C5,17.4477 5.44772,17 6,17 C6.55228,17 7,17.4477 7,18 Z M18,19 C18.5523,19 19,18.5523 19,18 C19,17.4477 18.5523,17 18,17 C17.4477,17 17,17.4477 17,18 C17,18.5523 17.4477,19 18,19 Z"></path>
        </g>
    </g>
</svg>