<?xml version="1.0" encoding="UTF-8"?>
<svg width="20px" height="16px" viewBox="0 0 20 16" version="1.1" xmlns="http://www.w3.org/2000/svg" xmlns:xlink="http://www.w3.org/1999/xlink">
    <title>UI icon/truck/light</title>
    <g id="👀-Icons" stroke="none" stroke-width="1" fill="none" fill-rule="evenodd">
        <g id="编组" transform="translate(-2.000000, -4.000000)" fill="#6F767E">
            <path d="M5,18 L19,18 C20.6569,18 22,16.6569 22,15 L22,12.7082 C22,12.24247 21.8916,11.78313 21.6833,11.36656 L19.8292,7.65836 C19.321,6.64201 18.2822,6 17.1459,6 L15.8293,6 C15.4175,4.834808 14.3062,4 13,4 L5,4 C3.34315,4 2,5.34315 2,7 L2,15 C2,16.6569 3.34315,18 5,18 Z M13,6 L5,6 C4.44772,6 4,6.44772 4,7 L4,15 C4,15.5523 4.44772,16 5,16 L14,16 L14,7 C14,6.44772 13.5523,6 13,6 Z M16,12 L16,16 L19,16 C19.5523,16 20,15.5523 20,15 L20,12.7082 C20,12.55296 19.9639,12.39985 19.8944,12.26099 L19.7639,12 L16,12 Z M18.7639,10 L16,10 L16,8 L17.1459,8 C17.5247,8 17.8709,8.214 18.0403,8.55279 L18.7639,10 Z" id="Union"></path>
            <path d="M7,20 C8.10457,20 9,19.10457 9,18 C9,16.895431 8.10457,16 7,16 C5.895431,16 5,16.895431 5,18 C5,19.10457 5.895431,20 7,20 Z" id="Ellipse-201-(Stroke)"></path>
            <path d="M18,20 C19.10457,20 20,19.10457 20,18 C20,16.895431 19.10457,16 18,16 C16.895431,16 16,16.895431 16,18 C16,19.10457 16.895431,20 18,20 Z" id="Ellipse-202-(Stroke)"></path>
        </g>
    </g>
</svg>