<?xml version="1.0" encoding="UTF-8"?>
<svg width="18px" height="21px" viewBox="0 0 18 21" version="1.1" xmlns="http://www.w3.org/2000/svg" xmlns:xlink="http://www.w3.org/1999/xlink">
    <title>UI icon/drop/light</title>
    <g id="👀-Icons" stroke="none" stroke-width="1" fill="none" fill-rule="evenodd">
        <g id="Union-(Stroke)" transform="translate(-3.000000, -1.000000)" fill="#6F767E">
            <path d="M16.60151,13.8852954 C16.63571,13.8332954 16.67261,13.7825954 16.71201,13.7333954 C17.54051,12.6998954 18.03481,11.3916654 18.03481,9.96257541 C18.03481,6.62965541 15.33291,3.92779541 11.99999,3.92779541 C8.66706996,3.92779541 5.96520996,6.62965541 5.96520996,9.96257541 C5.96520996,11.3915454 6.45936996,12.6995954 7.28773996,13.7330954 L7.29369996,13.7404954 C7.30822996,13.7585954 7.32244996,13.7769954 7.33633996,13.7955954 C7.49061996,14.0014954 7.64517996,14.2072954 7.80013996,14.4126954 C8.09312996,14.8011954 8.50627996,15.3466954 8.98630996,15.9739954 C9.88085996,17.1430954 10.9983,18.5842954 12.0007,19.8215954 C13.00625,18.5816954 14.12621,17.1381954 15.02251,15.9675954 C15.74381,15.0255954 16.31451,14.2676954 16.55351,13.9493954 L16.60151,13.8852954 Z M18.27541,14.9866954 C18.2742766,14.9881621 18.27331,14.9894287 18.27251,14.9904954 C18.22131,15.0589954 17.75101,15.6872954 17.06961,16.5821954 C16.05871,17.9096954 14.58311,19.8238954 13.32148,21.3670954 C12.63133,22.2111954 11.36891,22.2108954 10.67917,21.3663954 C9.24160329,19.6063287 7.59320329,17.4816621 5.73396996,14.9923954 L5.72746996,14.9842954 C4.62478396,13.6087954 3.96520996,11.8626954 3.96520996,9.96257541 C3.96520996,5.52509541 7.56249996,1.92779541 11.99999,1.92779541 C16.43751,1.92779541 20.03481,5.52509541 20.03481,9.96257541 C20.03481,11.1448254 19.77941,12.2673954 19.32091,13.2782954 C19.04351,13.8897954 18.69171,14.4603954 18.27721,14.9784954 L18.27421,14.9820954 L18.27251,14.9842954 L18.27721,14.9842954 L18.27541,14.9866954 Z" transform="translate(11.999992, 11.963899) scale(1, -1) translate(-11.999992, -11.963899) "></path>
        </g>
    </g>
</svg>