<?xml version="1.0" encoding="UTF-8"?>
<svg width="18px" height="20px" viewBox="0 0 18 20" version="1.1" xmlns="http://www.w3.org/2000/svg" xmlns:xlink="http://www.w3.org/1999/xlink">
    <title>UI icon/flag/light</title>
    <g id="👀-Icons" stroke="none" stroke-width="1" fill="none" fill-rule="evenodd">
        <g id="Union" transform="translate(-3.000000, -2.000000)" fill="#6F767E">
            <path d="M5,3 C5,2.447715 4.55228,2 4,2 C3.447715,2 3,2.447715 3,3 L3,21 C3,21.5523 3.447715,22 4,22 C4.55228,22 5,21.5523 5,21 L5,15 L10.02633,15 C10.67123,15 11.3119,15.104 11.9237,15.3079 L13.0763,15.6921 C13.6881,15.896 14.3288,16 14.9737,16 L18,16 C19.6569,16 21,14.6569 21,13 L21,7 C21,5.34315 19.6569,4 18,4 L14.9737,4 C14.3288,4 13.6881,3.89603 13.0763,3.6921 L11.9237,3.3079 C11.3119,3.10397 10.67123,3 10.02633,3 L5,3 Z M5,5 L5,13 L10.02633,13 C10.88619,13 11.74042,13.1386 12.55616,13.4105 L13.7088,13.7947 C14.1166,13.9307 14.5437,14 14.9737,14 L18,14 C18.5523,14 19,13.5523 19,13 L19,7 C19,6.44771 18.5523,6 18,6 L14.9737,6 C14.1138,6 13.2596,5.86138 12.44384,5.58947 L11.29125,5.20527 C10.88338,5.06931 10.45626,5 10.02633,5 L5,5 Z"></path>
        </g>
    </g>
</svg>