<?xml version="1.0" encoding="UTF-8"?>
<svg width="20px" height="18px" viewBox="0 0 20 18" version="1.1" xmlns="http://www.w3.org/2000/svg" xmlns:xlink="http://www.w3.org/1999/xlink">
    <title>UI icon/arrow_up_down/light</title>
    <g id="👀-Icons" stroke="none" stroke-width="1" fill="none" fill-rule="evenodd">
        <g id="编组" transform="translate(-2.000000, -3.000000)" fill="#6F767E" fill-rule="nonzero">
            <g id="Union">
                <path d="M3.7071139,9.20709876 C3.31658303,9.59762844 2.68341961,9.59762844 2.29289373,9.20709876 C1.90236876,8.81657908 1.90236876,8.18340959 2.29289373,7.79288991 L5.58579812,4.49999858 C6.36684987,3.71895021 7.63318271,3.71895221 8.41422446,4.49999958 L11.7071318,7.79288991 C12.0976227,8.18340959 12.0976227,8.81657908 11.7071318,9.20709876 C11.316601,9.59762844 10.6834395,9.59762844 10.2929087,9.20709876 L8.00001353,6.91421318 L8.00001353,19.0000008 C8.00001353,19.5523004 7.55229253,20 7.00001129,20 C6.44773005,20 6,19.5523004 6,19.0000008 L6,6.91421318 L3.7071139,9.20709876 Z"></path>
                <path d="M18.0000135,5 C18.0000135,4.44771602 17.5522925,4 17.0000113,4 C16.44773,4 16,4.44771602 16,5 L16,17.08583 L13.7071139,14.7929247 C13.316583,14.4024238 12.6834186,14.4024238 12.2928937,14.7929247 C11.9023688,15.1834256 11.9023688,15.816627 12.2928937,16.2071279 L15.5857981,19.5000355 C16.3668499,20.2810373 17.6331827,20.2810373 18.4142245,19.5000355 L21.7071318,16.2071279 C22.0976227,15.816627 22.0976227,15.1834256 21.7071318,14.7929247 C21.316601,14.4024238 20.6834395,14.4024238 20.2929087,14.7929247 L18.0000135,17.08583 L18.0000135,5 Z"></path>
            </g>
        </g>
    </g>
</svg>