<?xml version="1.0" encoding="UTF-8"?>
<svg width="20px" height="18px" viewBox="0 0 20 18" version="1.1" xmlns="http://www.w3.org/2000/svg" xmlns:xlink="http://www.w3.org/1999/xlink">
    <title>UI icon/heart/light</title>
    <g id="👀-Icons" stroke="none" stroke-width="1" fill="none" fill-rule="evenodd">
        <g id="UI-icon/heart/light" transform="translate(-2.000000, -3.000000)" fill="#6F767E">
            <path d="M10.3726984,6.6143785 C8.91480838,5.1285385 6.55909838,5.1285385 5.10120838,6.6143785 C3.63292838,8.1107985 3.63292838,10.5447085 5.10120838,12.0411385 L11.2862084,18.3446985 C11.6782084,18.7441985 12.3217984,18.7441985 12.7137984,18.3446985 L18.8987984,12.0411385 C20.3670984,10.5447085 20.3670984,8.1107985 18.8987984,6.6143785 C17.4408984,5.1285385 15.0851984,5.1285385 13.6272984,6.6143785 L12.7137984,7.5453985 C12.5256984,7.7370585 12.2684984,7.8450385 11.9999984,7.8450385 C11.7314884,7.8450385 11.4742584,7.7370585 11.2862084,7.5453985 L10.3726984,6.6143785 Z M11.8002784,5.2136585 L11.9999999,5.4172085 L12.1996984,5.2136585 C14.4415984,2.9287805 18.0844984,2.9287805 20.3263984,5.2136585 C22.5578984,7.4879385 22.5578984,11.1675685 20.3263984,13.4418585 L14.1413984,19.7453985 C12.9653984,20.9439985 11.0346484,20.9439985 9.85863838,19.7453985 L3.67363838,13.4418585 C1.44212038,11.1675685 1.44212038,7.4879385 3.67363838,5.2136585 C5.91552838,2.9287805 9.55837838,2.9287805 11.8002784,5.2136585 Z" id="Union-(Stroke)"></path>
        </g>
    </g>
</svg>