<?xml version="1.0" encoding="UTF-8"?>
<svg width="19px" height="20px" viewBox="0 0 19 20" version="1.1" xmlns="http://www.w3.org/2000/svg" xmlns:xlink="http://www.w3.org/1999/xlink">
    <title>UI icon/paint_roller/filled</title>
    <g id="👀-Icons" stroke="none" stroke-width="1" fill="none" fill-rule="evenodd">
        <g id="编组" transform="translate(-3.000000, -2.000000)" fill="#6F767E" fill-rule="nonzero">
            <g id="Union">
                <path d="M6,2 C4.34315,2 3,3.34315 3,5 L3,6 C3,7.65685 4.34315,9 6,9 L16,9 C17.6569,9 19,7.65685 19,6 C19.5523,6 20,6.44772 20,7 L20,8.86039 C20,9.33707 19.6635,9.74749 19.1961,9.84097 L12.41165,11.19787 C11.00938,11.47832 10,12.7096 10,14.1396 L10,14.2676 C9.4022,14.6134 9,15.2597 9,16 L9,20 C9,21.1046 9.89543,22 11,22 C12.10457,22 13,21.1046 13,20 L13,16 C13,15.2597 12.5978,14.6134 12,14.2676 L12,14.1396 C12,13.6629 12.33646,13.2525 12.80388,13.159 L19.5883,11.80213 C20.9906,11.52168 22,10.29044 22,8.86039 L22,7 C22,5.34315 20.6569,4 19,4 L18.8293,4 C18.4175,2.834808 17.3062,2 16,2 L6,2 Z"></path>
            </g>
        </g>
    </g>
</svg>