<?xml version="1.0" encoding="UTF-8"?>
<svg width="19px" height="20px" viewBox="0 0 19 20" version="1.1" xmlns="http://www.w3.org/2000/svg" xmlns:xlink="http://www.w3.org/1999/xlink">
    <title>UI icon/paint_roller/light</title>
    <g id="👀-Icons" stroke="none" stroke-width="1" fill="none" fill-rule="evenodd">
        <g id="Union" transform="translate(-3.000000, -2.000000)" fill="#6F767E">
            <path d="M3,5 C3,3.34315 4.34315,2 6,2 L16,2 C17.3062,2 18.4175,2.834808 18.8293,4 L19,4 C20.6569,4 22,5.34315 22,7 L22,8.86039 C22,10.29044 20.9906,11.52168 19.5883,11.80213 L12.80388,13.159 C12.33646,13.2525 12,13.6629 12,14.1396 L12,14.2676 C12.5978,14.6134 13,15.2597 13,16 L13,20 C13,21.1046 12.10457,22 11,22 C9.89543,22 9,21.1046 9,20 L9,16 C9,15.2597 9.4022,14.6134 10,14.2676 L10,14.1396 C10,12.7096 11.00938,11.47832 12.41165,11.19787 L19.1961,9.84097 C19.6635,9.74749 20,9.33707 20,8.86039 L20,7 C20,6.44772 19.5523,6 19,6 C19,7.65685 17.6569,9 16,9 L6,9 C4.34315,9 3,7.65685 3,6 L3,5 Z M17,5 C17,4.44772 16.5523,4 16,4 L6,4 C5.44772,4 5,4.44772 5,5 L5,6 C5,6.55228 5.44772,7 6,7 L16,7 C16.5523,7 17,6.55228 17,6 L17,5 Z"></path>
        </g>
    </g>
</svg>