<?xml version="1.0" encoding="UTF-8"?>
<svg width="16px" height="15px" viewBox="0 0 16 15" version="1.1" xmlns="http://www.w3.org/2000/svg" xmlns:xlink="http://www.w3.org/1999/xlink">
    <title>UI icon/chevron_double_up/filled</title>
    <g id="👀-Icons" stroke="none" stroke-width="1" fill="none" fill-rule="evenodd">
        <g id="编组" transform="translate(-4.000000, -4.000000)" fill="#6F767E">
            <path d="M4.79289427,4.95710679 C5.18341892,4.56658277 5.81658297,4.56658277 6.20711362,4.95710679 L12.0000132,10.7500026 L17.7929229,4.95710679 C18.1834235,4.56658277 18.8166246,4.56658277 19.2071252,4.95710679 C19.5976259,5.34763071 19.5976259,5.98079357 19.2071252,6.37132349 L13.4142256,12.1642138 C12.6331743,12.9452621 11.3668422,12.9452621 10.5858009,12.1642138 L4.79289427,6.37132349 C4.40236952,5.98079357 4.40236952,5.34763071 4.79289427,4.95710679 Z" id="Vector-474-(Stroke)" transform="translate(12.000001, 8.707107) scale(1, -1) rotate(-0.000010) translate(-12.000001, -8.707107) "></path>
            <path d="M4.79289427,11.2071068 C5.18341892,10.8165828 5.81658297,10.8165828 6.20711362,11.2071068 L12.0000132,17.0000026 L17.7929229,11.2071068 C18.1834235,10.8165828 18.8166246,10.8165828 19.2071252,11.2071068 C19.5976259,11.5976307 19.5976259,12.2307936 19.2071252,12.6213235 L13.4142256,18.4142138 C12.6331743,19.1952621 11.3668422,19.1952621 10.5858009,18.4142138 L4.79289427,12.6213235 C4.40236952,12.2307936 4.40236952,11.5976307 4.79289427,11.2071068 Z" id="Vector-475-(Stroke)" transform="translate(12.000001, 14.957107) scale(1, -1) rotate(-0.000010) translate(-12.000001, -14.957107) "></path>
        </g>
    </g>
</svg>