<?xml version="1.0" encoding="UTF-8"?>
<svg width="20px" height="13px" viewBox="0 0 20 13" version="1.1" xmlns="http://www.w3.org/2000/svg" xmlns:xlink="http://www.w3.org/1999/xlink">
    <title>UI icon/android/filled</title>
    <g id="👀-Icons" stroke="none" stroke-width="1" fill="none" fill-rule="evenodd">
        <g id="Subtract" transform="translate(-2.000000, -5.000000)" fill="#6F767E">
            <path d="M5.00378773,5.63174488 C5.48330773,5.35773488 6.09415773,5.52433168 6.36816773,6.00384888 L7.98742773,8.83754688 C9.21563773,8.29891688 10.5728577,7.99999688 11.9998977,7.99999688 C13.4269777,7.99999688 14.7842777,8.29893688 16.0125777,8.83761688 L17.6318777,6.00384888 C17.9058777,5.52433168 18.5166777,5.35773488 18.9961777,5.63174488 C19.4757777,5.90575488 19.6422777,6.51660688 19.3682777,6.99612688 L17.7543777,9.82057688 C20.0663777,11.4501369 21.6565777,14.0351769 21.9506777,17.0014169 C22.0051777,17.5510169 21.5521777,18.0000169 20.9998777,18.0000169 L2.99989473,18.0000169 C2.44760973,18.0000169 1.99464233,17.5510169 2.04913114,17.0014169 C2.34322173,14.0351169 3.93349773,11.4500169 6.24559773,9.82046688 L4.63168773,6.99612688 C4.35767773,6.51660688 4.52426773,5.90575488 5.00378773,5.63174488 Z M7.99999773,14.9999969 C7.44771773,14.9999969 6.99999773,14.5522869 6.99999773,13.9999969 C6.99999773,13.4477169 7.44771773,12.9999969 7.99999773,12.9999969 C8.55228773,12.9999969 8.99999773,13.4477169 8.99999773,13.9999969 C8.99999773,14.5522869 8.55228773,14.9999969 7.99999773,14.9999969 Z M14.9999777,13.9999969 C14.9999777,14.5522869 15.4476777,14.9999969 15.9999777,14.9999969 C16.5522777,14.9999969 16.9999777,14.5522869 16.9999777,13.9999969 C16.9999777,13.4477169 16.5522777,12.9999969 15.9999777,12.9999969 C15.4476777,12.9999969 14.9999777,13.4477169 14.9999777,13.9999969 Z"></path>
        </g>
    </g>
</svg>