<?xml version="1.0" encoding="UTF-8"?>
<svg width="20px" height="13px" viewBox="0 0 20 13" version="1.1" xmlns="http://www.w3.org/2000/svg" xmlns:xlink="http://www.w3.org/1999/xlink">
    <title>UI icon/android/light</title>
    <g id="👀-Icons" stroke="none" stroke-width="1" fill="none" fill-rule="evenodd">
        <g id="编组" transform="translate(-2.000000, -5.000000)" fill="#6F767E">
            <path d="M8,15 C7.44771497,15 7,14.55228 7,14 C7,13.447715 7.44771497,13 8,13 C8.55227991,13 9,13.447715 9,14 C9,14.55228 8.55227991,15 8,15 L8,15 Z" id="Path" fill-rule="nonzero"></path>
            <path d="M16,15 C15.447715,15 15,14.55228 15,14 C15,13.447715 15.447715,13 16,13 C16.5522799,13 17,13.447715 17,14 C17,14.55228 16.5522799,15 16,15 L16,15 Z" id="Path" fill-rule="nonzero"></path>
            <path d="M5.0039098,5.63174491 C5.4834298,5.35773491 6.0942798,5.52433161 6.3682898,6.00384891 L7.9875498,8.83754691 C9.2157598,8.29891691 10.5729798,7.99999691 12.0000198,7.99999691 C13.4270998,7.99999691 14.7842998,8.29891691 16.0124998,8.83755691 L17.6317998,6.00384891 C17.9057998,5.52433161 18.5165998,5.35773491 18.9961998,5.63174491 C19.4756998,5.90575491 19.6422998,6.51660691 19.3682998,6.99612691 L17.7542998,9.82048691 C20.0663998,11.4500369 21.6566998,14.0351269 21.9507998,17.0014169 C22.0052998,17.5510169 21.5522998,18.0000169 20.9999998,18.0000169 L3.0000168,18.0000169 C2.4477318,18.0000169 1.9947644,17.5510169 2.04925321,17.0014169 C2.3433438,14.0351169 3.9336198,11.4500169 6.2457198,9.82046691 L4.6318098,6.99612691 C4.3577998,6.51660691 4.5243898,5.90575491 5.0039098,5.63174491 Z M12.0000198,9.99999691 C15.7272998,9.99999691 18.8608998,12.5502269 19.7483998,16.0000169 L4.2516598,16.0000169 C5.1391698,12.5502269 8.2727698,9.99999691 12.0000198,9.99999691 Z" id="Union"></path>
        </g>
    </g>
</svg>