<?xml version="1.0" encoding="UTF-8"?>
<svg width="16px" height="4px" viewBox="0 0 16 4" version="1.1" xmlns="http://www.w3.org/2000/svg" xmlns:xlink="http://www.w3.org/1999/xlink">
    <title>UI icon/more_horizontal/filled</title>
    <g id="👀-Icons" stroke="none" stroke-width="1" fill="none" fill-rule="evenodd">
        <g id="编组" transform="translate(-4.000000, -10.000000)" fill="#6F767E" fill-rule="nonzero">
            <g>
                <path d="M8,12 C8,13.10457 7.10457,14 6,14 C4.895431,14 4,13.10457 4,12 C4,10.895431 4.895431,10 6,10 C7.10457,10 8,10.895431 8,12 Z" id="Ellipse-31"></path>
                <path d="M14,12 C14,13.10457 13.10457,14 12,14 C10.895431,14 10,13.10457 10,12 C10,10.895431 10.895431,10 12,10 C13.10457,10 14,10.895431 14,12 Z" id="Ellipse-32"></path>
                <path d="M20,12 C20,13.10457 19.10457,14 18,14 C16.895431,14 16,13.10457 16,12 C16,10.895431 16.895431,10 18,10 C19.10457,10 20,10.895431 20,12 Z" id="Ellipse-33"></path>
            </g>
        </g>
    </g>
</svg>