<?xml version="1.0" encoding="UTF-8"?>
<svg width="20px" height="6px" viewBox="0 0 20 6" version="1.1" xmlns="http://www.w3.org/2000/svg" xmlns:xlink="http://www.w3.org/1999/xlink">
    <title>UI icon/more_horizontal/light</title>
    <g id="👀-Icons" stroke="none" stroke-width="1" fill="none" fill-rule="evenodd">
        <g id="编组" transform="translate(-2.000000, -9.000000)" fill="#6F767E">
            <path d="M5,13 C5.55228,13 6,12.55228 6,12 C6,11.44772 5.55228,11 5,11 C4.44772,11 4,11.44772 4,12 C4,12.55228 4.44772,13 5,13 Z M5,15 C6.65685,15 8,13.65685 8,12 C8,10.34315 6.65685,9 5,9 C3.34315,9 2,10.34315 2,12 C2,13.65685 3.34315,15 5,15 Z" id="Ellipse-31-(Stroke)"></path>
            <path d="M12,13 C12.55228,13 13,12.55228 13,12 C13,11.44772 12.55228,11 12,11 C11.44772,11 11,11.44772 11,12 C11,12.55228 11.44772,13 12,13 Z M12,15 C13.65685,15 15,13.65685 15,12 C15,10.34315 13.65685,9 12,9 C10.34315,9 9,10.34315 9,12 C9,13.65685 10.34315,15 12,15 Z" id="Ellipse-32-(Stroke)"></path>
            <path d="M19,13 C19.55228,13 20,12.55228 20,12 C20,11.44772 19.55228,11 19,11 C18.44772,11 18,11.44772 18,12 C18,12.55228 18.44772,13 19,13 Z M19,15 C20.65685,15 22,13.65685 22,12 C22,10.34315 20.65685,9 19,9 C17.34315,9 16,10.34315 16,12 C16,13.65685 17.34315,15 19,15 Z" id="Ellipse-33-(Stroke)"></path>
        </g>
    </g>
</svg>