<?xml version="1.0" encoding="UTF-8"?>
<svg width="20px" height="20px" viewBox="0 0 20 20" version="1.1" xmlns="http://www.w3.org/2000/svg" xmlns:xlink="http://www.w3.org/1999/xlink">
    <title>UI icon/cake/filled</title>
    <g id="👀-Icons" stroke="none" stroke-width="1" fill="none" fill-rule="evenodd">
        <g id="编组" transform="translate(-2.000000, -2.000000)" fill="#6F767E">
            <g id="Subtract" transform="translate(2.000000, 10.000000)" fill-rule="nonzero">
                <path d="M0.173828,2.83 C0.110561,3.03716 0.211069,3.2546 0.399132,3.36206 L2.00777,4.28129 C2.62264,4.63264 3.37746,4.63264 3.99233,4.28129 L5.50777,3.41532 C6.12264,3.06397 6.87746,3.06397 7.49233,3.41532 L9.00777,4.28129 C9.62264,4.63264 10.3775,4.63264 10.9923,4.28129 L12.5078,3.41532 C13.1226,3.06397 13.8775,3.06397 14.4923,3.41532 L16.0078,4.28129 C16.6226,4.63264 17.3775,4.63264 17.9923,4.28129 L19.6009,3.36211 C19.7889,3.25465 19.8895,3.03721 19.8262,2.83006 C19.3259,1.19171 17.8021,0 16,0 L4,0 C2.19792,0 0.674182,1.19169 0.173828,2.83 Z" id="BA0C30B8-A021-4E1E-B388-EE4FF7E6F6BD"></path>
                <path d="M20,6.29914 C20,5.91523 19.5853,5.67454 19.2519,5.86502 L18.9846,6.01777 C17.7549,6.72048 16.2452,6.72048 15.0155,6.01777 L13.5,5.1518 L11.9846,6.01777 C10.7549,6.72048 9.24522,6.72048 8.01549,6.01777 L6.50005,5.1518 L4.98461,6.01777 C3.75487,6.72048 2.24522,6.72048 1.01549,6.01777 L0.748069,5.86496 C0.414741,5.67449 0,5.91517 0,6.29908 L0,10 C0,11.1046 0.895431,12 2,12 L18,12 C19.1046,12 20,11.1046 20,10 L20,6.29914 Z" id="9E9EAD05-83FD-43D2-9A74-47537ECDF818"></path>
            </g>
            <path d="M12,7 C12.55228,7 13,7.447715 13,8 L13,10 C13,10.55228 12.55228,11 12,11 C11.447715,11 11,10.55228 11,10 L11,8 C11,7.447715 11.447715,7 12,7 Z" id="Vector-606-(Stroke)"></path>
            <path d="M10.7370904,4.57196678 C10.5682679,4.32592678 10.4694824,4.02806678 10.4694824,3.70712678 C10.4694824,2.86189578 11.1546814,2.17669678 11.9999124,2.17669678 C12.4832224,2.17669678 12.9142124,2.40072878 13.1946824,2.75060978 C13.1949824,2.75097878 13.1952724,2.75134678 13.1955724,2.75171578 C13.4050724,3.01355578 13.5303524,3.34571678 13.5303524,3.70712678 C13.5303524,4.02798678 13.4316124,4.32578678 13.2628624,4.57178678 C13.2626824,4.57206678 13.2624924,4.57233678 13.2623024,4.57261678 C13.2411324,4.60342678 13.2188724,4.63341678 13.1955724,4.66254678 C13.1953824,4.66277678 13.1952024,4.66300678 13.1950124,4.66323678 C13.1949024,4.66337678 13.1947924,4.66351678 13.1946824,4.66365678 L13.1955724,4.66365678 C13.1954991,4.66375678 13.1953891,4.66390344 13.1952424,4.66409678 C13.1950924,4.66428678 13.1949124,4.66453678 13.1946824,4.66483678 C13.1900224,4.67107678 13.1670924,4.70170678 13.1302524,4.75061678 C12.9757524,4.95567678 12.5764524,5.48210678 12.2516324,5.87941678 C12.1201724,6.04020678 11.8797124,6.04014678 11.7483324,5.87929678 C11.6061524,5.70520678 11.4495334,5.50616678 11.3055114,5.32029678 C11.1202924,5.08126678 10.9559054,4.86403678 10.8698494,4.74973678 C10.8429608,4.71401678 10.8218074,4.68583678 10.8063894,4.66519678 L10.8051504,4.66365678 C10.7815614,4.63422678 10.7590364,4.60390678 10.7376344,4.57275678 C10.7374534,4.57249678 10.7372724,4.57223678 10.7370904,4.57196678 Z M12.0437324,3.74101678 L12.0890924,3.70712678 C12.0746424,3.71792678 12.0595224,3.72921678 12.0437324,3.74101678 Z" id="Union-(Stroke)" transform="translate(11.999917, 4.088336) scale(1, -1) translate(-11.999917, -4.088336) "></path>
        </g>
    </g>
</svg>