<?xml version="1.0" encoding="UTF-8"?>
<svg width="20px" height="20px" viewBox="0 0 20 20" version="1.1" xmlns="http://www.w3.org/2000/svg" xmlns:xlink="http://www.w3.org/1999/xlink">
    <title>UI icon/cake/light</title>
    <g id="👀-Icons" stroke="none" stroke-width="1" fill="none" fill-rule="evenodd">
        <g id="编组" transform="translate(-2.000000, -2.000000)" fill="#6F767E">
            <path d="M18,12 L6,12 C4.89543,12 4,12.89543 4,14 L4,20 L20,20 L20,14 C20,12.89543 19.1046,12 18,12 Z M6,10 C3.79086,10 2,11.79086 2,14 L2,20 C2,21.1046 2.895431,22 4,22 L20,22 C21.1046,22 22,21.1046 22,20 L22,14 C22,11.79086 20.2091,10 18,10 L6,10 Z" id="Rectangle-259-(Stroke)"></path>
            <path d="M3.78118809,13.6716769 C5.12477835,12.7759449 6.87518869,12.7759449 8.21878895,13.6716769 L8.9999891,14.192478 L9.78118925,13.6716769 C11.1247795,12.7759449 12.8751799,12.7759449 14.2187801,13.6716769 L14.9999803,14.192478 L15.7811804,13.6716769 C17.1247807,12.7759449 18.875181,12.7759449 20.2187813,13.6716769 L21.5546815,14.562278 C22.0141816,14.868628 22.1383817,15.489498 21.8320816,15.949028 C21.5256815,16.408558 20.9047814,16.532728 20.4452813,16.226378 L19.1093811,15.335778 C18.4375809,14.887908 17.5623808,14.887908 16.8905806,15.335778 L16.1093805,15.856578 C15.4375804,16.304438 14.5623802,16.304448 13.8905801,15.856578 L13.1093799,15.335778 C12.4375798,14.887908 11.5623796,14.887908 10.8905895,15.335778 L10.1093893,15.856578 C9.43758919,16.304438 8.56237902,16.304438 7.89058889,15.856578 L7.10938873,15.335778 C6.4375886,14.887908 5.56238843,14.887908 4.8905883,15.335778 L3.55468804,16.226378 C3.09515795,16.532728 2.47428583,16.408558 2.16793377,15.949028 C1.86158171,15.489498 1.98575504,14.868628 2.44528383,14.562278 L3.78118809,13.6716769 Z" id="Vector-247-(Stroke)" transform="translate(11.999985, 14.697156) scale(1, -1) translate(-11.999985, -14.697156) "></path>
            <g id="Vector" transform="translate(10.469543, 2.176758)">
                <path d="M1.530457,4.82328 C2.08274,4.82328 2.530457,5.27099 2.530457,5.82328 L2.530457,7.82328 C2.530457,8.37556 2.08274,8.82328 1.530457,8.82328 C0.978172,8.82328 0.530457,8.37556 0.530457,7.82328 L0.530457,5.82328 C0.530457,5.27099 0.978172,4.82328 1.530457,4.82328 Z" id="C5753C4F-93C4-4771-9F1B-082A44344008"></path>
                <path d="M0.267608,1.42801 C0.0987855,1.67405 0,1.97191 0,2.29284 C0,3.13808 0.685199,3.82328 1.53043,3.82328 C2.01374,3.82328 2.44473,3.59925 2.7252,3.24936 L2.72609,3.24826 C2.93559,2.98642 3.06087,2.65426 3.06087,2.29284 C3.06087,1.97199 2.96213,1.67419 2.79338,1.42818 L2.79338,1.42818 C2.77222,1.39737 2.74939,1.36655 2.72609,1.33743 L2.72609,1.33743 L2.7252,1.33632 L2.7252,1.33514 C2.72054,1.3289 2.69761,1.29827 2.66077,1.24936 C2.50627,1.04429 2.10697,0.517865 1.78215,0.120555 C1.65069,-0.0402368 1.41023,-0.0401751 1.27885,0.120681 C1.13667,0.294762 0.980051,0.493807 0.836029,0.679673 C0.65081,0.918704 0.486423,1.13594 0.400367,1.25024 C0.373478333,1.28595333 0.352325,1.31413333 0.336907,1.33478 L0.335668,1.33632 C0.312079,1.36575 0.28901,1.39686 0.267608,1.42801 L0.267608,1.42801 Z" id="69694F35-3743-4C5B-A479-43D0EDA86068"></path>
            </g>
        </g>
    </g>
</svg>