<?xml version="1.0" encoding="UTF-8"?>
<svg width="18px" height="18px" viewBox="0 0 18 18" version="1.1" xmlns="http://www.w3.org/2000/svg" xmlns:xlink="http://www.w3.org/1999/xlink">
    <title>UI icon/server/filled</title>
    <g id="👀-Icons" stroke="none" stroke-width="1" fill="none" fill-rule="evenodd">
        <g id="Subtract" transform="translate(-3.000000, -3.000000)" fill="#6F767E">
            <path d="M3,6 C3,4.34315 4.34315,3 6,3 L18,3 C19.6569,3 21,4.34315 21,6 L21,8 C21,9.65685 19.6569,11 18,11 L6,11 C4.34315,11 3,9.65685 3,8 L3,6 Z M5.5,7 C5.5,6.44772 5.94772,6 6.5,6 L13.5,6 C14.0523,6 14.5,6.44772 14.5,7 C14.5,7.55228 14.0523,8 13.5,8 L6.5,8 C5.94772,8 5.5,7.55228 5.5,7 Z M17.5,8 C18.0523,8 18.5,7.55228 18.5,7 C18.5,6.44772 18.0523,6 17.5,6 C16.9477,6 16.5,6.44772 16.5,7 C16.5,7.55228 16.9477,8 17.5,8 Z"></path>
            <path d="M3,16 C3,14.34315 4.34315,13 6,13 L18,13 C19.6569,13 21,14.34315 21,16 L21,18 C21,19.65685 19.6569,21 18,21 L6,21 C4.34315,21 3,19.65685 3,18 L3,16 Z M5.5,17 C5.5,16.44772 5.94772,16 6.5,16 L13.5,16 C14.0523,16 14.5,16.44772 14.5,17 C14.5,17.55228 14.0523,18 13.5,18 L6.5,18 C5.94772,18 5.5,17.55228 5.5,17 Z M17.5,18 C18.0523,18 18.5,17.55228 18.5,17 C18.5,16.44772 18.0523,16 17.5,16 C16.9477,16 16.5,16.44772 16.5,17 C16.5,17.55228 16.9477,18 17.5,18 Z"></path>
        </g>
    </g>
</svg>