<?xml version="1.0" encoding="UTF-8"?>
<svg width="18px" height="20px" viewBox="0 0 18 20" version="1.1" xmlns="http://www.w3.org/2000/svg" xmlns:xlink="http://www.w3.org/1999/xlink">
    <title>UI icon/server/light</title>
    <g id="👀-Icons" stroke="none" stroke-width="1" fill="none" fill-rule="evenodd">
        <g id="编组" transform="translate(-3.000000, -2.000000)" fill="#6F767E">
            <path d="M18,15 L6,15 C5.44772,15 5,15.44772 5,16 L5,19 C5,19.55228 5.44772,20 6,20 L18,20 C18.5523,20 19,19.55228 19,19 L19,16 C19,15.44772 18.5523,15 18,15 Z M6,13 C4.34315,13 3,14.34315 3,16 L3,19 C3,20.65685 4.34315,22 6,22 L18,22 C19.6569,22 21,20.65685 21,19 L21,16 C21,14.34315 19.6569,13 18,13 L6,13 Z" id="Rectangle-325-(Stroke)"></path>
            <path d="M18,4 L6,4 C5.44772,4 5,4.44772 5,5 L5,8 C5,8.55228 5.44772,9 6,9 L18,9 C18.5523,9 19,8.55228 19,8 L19,5 C19,4.44772 18.5523,4 18,4 Z M6,2 C4.34315,2 3,3.34315 3,5 L3,8 C3,9.65685 4.34315,11 6,11 L18,11 C19.6569,11 21,9.65685 21,8 L21,5 C21,3.34315 19.6569,2 18,2 L6,2 Z" id="Rectangle-326-(Stroke)"></path>
            <path d="M6.5,17.5 C6.5,16.947715 6.947715,16.5 7.5,16.5 L13,16.5 C13.55228,16.5 14,16.947715 14,17.5 C14,18.05228 13.55228,18.5 13,18.5 L7.5,18.5 C6.947715,18.5 6.5,18.05228 6.5,17.5 Z" id="Vector-687-(Stroke)"></path>
            <path d="M6.5,6.5 C6.5,5.947715 6.947715,5.5 7.5,5.5 L13,5.5 C13.55228,5.5 14,5.947715 14,6.5 C14,7.05228 13.55228,7.5 13,7.5 L7.5,7.5 C6.947715,7.5 6.5,7.05228 6.5,6.5 Z" id="Vector-688-(Stroke)"></path>
            <path d="M17.5,17.5 C17.5,18.05228 17.05228,18.5 16.5,18.5 C15.947715,18.5 15.5,18.05228 15.5,17.5 C15.5,16.947715 15.947715,16.5 16.5,16.5 C17.05228,16.5 17.5,16.947715 17.5,17.5 Z" id="Ellipse-243" fill-rule="nonzero"></path>
            <path d="M17.5,6.5 C17.5,7.05228 17.05228,7.5 16.5,7.5 C15.947715,7.5 15.5,7.05228 15.5,6.5 C15.5,5.947715 15.947715,5.5 16.5,5.5 C17.05228,5.5 17.5,5.947715 17.5,6.5 Z" id="Ellipse-244" fill-rule="nonzero"></path>
        </g>
    </g>
</svg>