<?xml version="1.0" encoding="UTF-8"?>
<svg width="18px" height="16px" viewBox="0 0 18 16" version="1.1" xmlns="http://www.w3.org/2000/svg" xmlns:xlink="http://www.w3.org/1999/xlink">
    <title>UI icon/download/filled</title>
    <g id="👀-Icons" stroke="none" stroke-width="1" fill="none" fill-rule="evenodd">
        <g id="编组" transform="translate(-3.000000, -4.000000)" fill="#6F767E">
            <path d="M13.0019448,4.99958801 C13.0019448,4.44730292 12.5542353,3.99958801 12.0019458,3.99958801 C11.4496664,3.99958801 11.0019469,4.44730292 11.0019469,4.99958801 L11.0019469,13.0858761 L8.20896988,10.2928967 C7.8184403,9.90236676 7.18527897,9.90236676 6.79475439,10.2928867 C6.4042313,10.6834166 6.4042303,11.3165765 6.79475339,11.7071064 L10.5876874,15.5000856 C11.3687365,16.2810854 12.6350652,16.2810854 13.4161143,15.5000856 L17.2070503,11.7090564 C17.5976499,11.3185365 17.5976499,10.6853666 17.2070503,10.2948467 C16.8165507,9.90431676 16.1834114,9.90431676 15.7928818,10.2948467 L13.0019448,13.0857861 L13.0019448,4.99958801 Z" id="Union" fill-rule="nonzero"></path>
            <path d="M4,14 C4.55228,14 5,14.447715 5,15 L5,17 C5,17.55228 5.44772,18 6,18 L18,18 C18.5523,18 19,17.55228 19,17 L19,15 C19,14.447715 19.4477,14 20,14 C20.5523,14 21,14.447715 21,15 L21,17 C21,18.65685 19.6569,20 18,20 L6,20 C4.34315,20 3,18.65685 3,17 L3,15 C3,14.447715 3.447715,14 4,14 Z" id="Path-13-Copy-5-(Stroke)"></path>
        </g>
    </g>
</svg>