<?xml version="1.0" encoding="UTF-8"?>
<svg width="14px" height="20px" viewBox="0 0 14 20" version="1.1" xmlns="http://www.w3.org/2000/svg" xmlns:xlink="http://www.w3.org/1999/xlink">
    <title>UI icon/bluetooth/filled</title>
    <g id="👀-Icons" stroke="none" stroke-width="1" fill="none" fill-rule="evenodd">
        <g id="Vector-160-(Stroke)" transform="translate(-5.000000, -2.000000)" fill="#6F767E">
            <path d="M12.0000114,4.83166956 L12.0000114,10.5245496 L16.2132314,7.54016956 L12.0000114,4.83166956 Z M10.0000114,9.60787956 L10.0000114,3.91582956 C10.0000114,2.72908356 11.3128814,2.01232156 12.3111514,2.65406556 L17.2947314,5.85781956 C18.4868314,6.62417956 18.5257314,8.35305956 17.3692314,9.17221956 L13.3771214,11.9999996 L17.3692314,14.8277796 C18.5257314,15.6469796 18.4868314,17.3757796 17.2947314,18.1421796 L12.3111514,21.3459796 C11.3128814,21.9876796 10.0000114,21.2708796 10.0000114,20.0841796 L10.0000114,14.3920796 L6.5780314,16.8159796 C6.1273514,17.1352796 5.5032184,17.0286796 5.1839884,16.5779796 C4.8647574,16.1273796 4.9713172,15.5031796 5.4219954,15.1839796 L9.9170214,11.9999996 L5.4219954,8.81602956 C4.9713172,8.49679956 4.8647574,7.87265956 5.1839884,7.42197956 C5.5032184,6.97130956 6.1273514,6.86474956 6.5780314,7.18397956 L10.0000114,9.60787956 Z M12.0000114,13.4754796 L12.0000114,19.1683796 L16.2132314,16.4597796 L12.0000114,13.4754796 Z"></path>
        </g>
    </g>
</svg>