<?xml version="1.0" encoding="UTF-8"?>
<svg width="16px" height="20px" viewBox="0 0 16 20" version="1.1" xmlns="http://www.w3.org/2000/svg" xmlns:xlink="http://www.w3.org/1999/xlink">
    <title>UI icon/unlock/light</title>
    <g id="👀-Icons" stroke="none" stroke-width="1" fill="none" fill-rule="evenodd">
        <g id="Union" transform="translate(-4.000000, -2.000000)" fill="#6F767E">
            <path d="M13,15.73244 C13.5978,15.38663 14,14.74028 14,14 C14,12.89543 13.10457,12 12,12 C10.89543,12 10,12.89543 10,14 C10,14.74028 10.402199,15.38663 11,15.73244 L11,17 C11,17.55228 11.44772,18 12,18 C12.55228,18 13,17.55228 13,17 L13,15.73244 Z" fill-rule="nonzero"></path>
            <path d="M14.9055,6.24926 C14.5724,4.95512 13.39649,4 11.99998,4 C10.34313,4 8.99998,5.34315 8.99998,7 L8.99998,8 L17,8 C18.6569,8 20,9.34315 20,11 L20,19 C20,20.6569 18.6569,22 17,22 L7,22 C5.34315,22 4,20.6569 4,19 L4,11 C4,9.34315 5.34314,8 6.99998,8 L6.99998,7 C6.99998,4.23858 9.23856,2 11.99998,2 C14.3312,2 16.2874,3.59442 16.8424,5.75074 C16.9801,6.28559 16.6581,6.83078 16.1232,6.96844 C15.5884,7.1061 15.0432,6.78411 14.9055,6.24926 Z M7,10 C6.44772,10 6,10.44772 6,11 L6,19 C6,19.5523 6.44772,20 7,20 L17,20 C17.5523,20 18,19.5523 18,19 L18,11 C18,10.44772 17.5523,10 17,10 L7,10 Z"></path>
        </g>
    </g>
</svg>