<?xml version="1.0" encoding="UTF-8"?>
<svg width="22px" height="20px" viewBox="0 0 22 20" version="1.1" xmlns="http://www.w3.org/2000/svg" xmlns:xlink="http://www.w3.org/1999/xlink">
    <title>UI icon/paint_bucket/filled</title>
    <g id="👀-Icons" stroke="none" stroke-width="1" fill="none" fill-rule="evenodd">
        <g id="编组" transform="translate(-1.000000, -2.000000)" fill="#6F767E" fill-rule="nonzero">
            <g>
                <path d="M21.5677696,19.3273662 C21.9878396,18.803346 22.2391095,18.1381758 22.2391095,17.4143256 C22.2391095,15.723855 20.8687098,14.3534546 19.1782401,14.3534546 C17.4877704,14.3534546 16.1173706,15.723855 16.1173706,17.4143256 C16.1173706,18.1381758 16.3686366,18.803346 16.7887065,19.3273662 L16.7911845,19.3304562 C17.4994617,20.2787365 18.1274236,21.0881334 18.6750702,21.7586469 C18.9378301,22.080357 19.41875,22.080487 19.68166,21.7588969 C20.2310532,21.0869034 20.8603464,20.2763931 21.5695396,19.3273662 L21.5677696,19.3273662 Z" id="Union" transform="translate(19.178240, 18.176732) scale(1, -1) translate(-19.178240, -18.176732) "></path>
                <path d="M10.975077,2.57536343 C10.5845564,2.18484063 9.95139553,2.18483963 9.56086498,2.57536143 L7.43940201,4.69680827 L10.7393566,7.99675492 C11.4065876,7.8185851 12.1479986,7.99121492 12.6714993,8.51467439 C13.4525004,9.2957236 13.4525004,10.5620423 12.6714993,11.3430915 C11.8903982,12.1241407 10.6240765,12.1241407 9.84302537,11.3430915 C9.31956464,10.819632 9.1469244,10.0781928 9.32512465,9.41095348 L6.02515003,6.11098684 L7.43940201,4.69680827 L5.31794904,2.57539243 C4.9274285,2.18486873 4.29425761,2.18486873 3.90373707,2.57539243 C3.51320652,2.96591703 3.51320652,3.59907939 3.90373707,3.98960899 L6.02515003,6.11098684 L2.48977109,9.64639324 C1.31819145,10.8179721 1.31818745,12.7174601 2.48976409,13.8890589 L7.43949201,18.8387539 C8.61106365,20.0103527 10.5105563,20.0103527 11.6820979,18.8387539 L18.7532078,11.7677211 C18.9408081,11.5801813 19.0461082,11.3258315 19.0461082,11.0606118 C19.0461082,10.7953921 18.9408081,10.5410423 18.7532078,10.3535025 L10.975077,2.57536343 Z" id="Subtract"></path>
            </g>
        </g>
    </g>
</svg>