<?xml version="1.0" encoding="UTF-8"?>
<svg width="22px" height="21px" viewBox="0 0 22 21" version="1.1" xmlns="http://www.w3.org/2000/svg" xmlns:xlink="http://www.w3.org/1999/xlink">
    <title>UI icon/paint_bucket/light</title>
    <g id="👀-Icons" stroke="none" stroke-width="1" fill="none" fill-rule="evenodd">
        <g id="编组" transform="translate(-1.000000, -1.000000)" fill="#6F767E">
            <path d="M19.6816606,21.7588946 C19.8969706,21.4955446 20.1286406,21.2038146 20.3534306,20.9165246 C20.9686406,20.1302546 21.5322806,19.3771946 21.5677706,19.3297346 L21.5688806,19.3282546 L21.5695406,19.3273646 L21.5677706,19.3273646 L21.5684406,19.3265446 L21.5695406,19.3251546 C21.9830606,18.8083346 22.2325206,18.1545246 22.2389806,17.4426846 L22.2391106,17.4143246 C22.2391106,15.7238546 20.8687106,14.3534546 19.1782406,14.3534546 C17.4877706,14.3534546 16.1173706,15.7238546 16.1173706,17.4143246 C16.1173706,18.1381746 16.3686366,18.8033446 16.7887066,19.3273646 L16.7911846,19.3304546 C17.4994619,20.2787346 18.1274239,21.0881313 18.6750706,21.7586446 C18.9378306,22.0803546 19.4187506,22.0804846 19.6816606,21.7588946 Z M20.0072806,18.0764246 C20.1531706,17.8944346 20.2391106,17.6671546 20.2391106,17.4143246 C20.2391106,16.8284246 19.7641406,16.3534546 19.1782406,16.3534546 C18.5923406,16.3534546 18.1173706,16.8284246 18.1173706,17.4143246 C18.1173706,17.6669846 18.2032006,17.8941346 18.3489106,18.0760646 C18.5710806,18.3675646 18.7907306,18.6609546 19.0134506,18.9520346 C19.0668206,19.0217846 19.1221406,19.0939046 19.1789306,19.1677146 C19.2365106,19.0929446 19.2925906,19.0198946 19.3466506,18.9492846 C19.5682106,18.6599146 19.7793506,18.3607546 20.0072806,18.0764246 Z" id="Union-(Stroke)" transform="translate(19.178240, 18.176732) scale(1, -1) translate(-19.178240, -18.176732) "></path>
            <path d="M9.70714738,2.22185373 C10.0976774,1.83133153 10.7308374,1.83133253 11.1213574,2.22185573 L18.8994774,10.0000027 C19.0870774,10.1875427 19.1923774,10.4418927 19.1923774,10.7071127 C19.1923774,10.9723327 19.0870774,11.2266827 18.8994774,11.4142227 L11.8283774,18.4852627 C10.6568374,19.6568627 8.75734738,19.6568627 7.58577738,18.4852627 L2.63605638,13.5355627 C1.46448138,12.3639627 1.46448538,10.4644727 2.63606338,9.29289273 L9.70714738,2.22185373 Z M10.4142474,4.34317273 L4.05027738,10.7071127 C3.65974738,11.0976427 3.65974738,11.7308027 4.05026738,12.1213627 L8.99999738,17.0710627 C9.39051738,17.4615627 10.0236774,17.4615627 10.4142074,17.0710627 L16.7781774,10.7071127 L10.4142474,4.34317273 Z" id="Rectangle-Copy-228-(Stroke)"></path>
            <path d="M5.53560054,2.29292219 C5.14507071,1.90239805 4.51190899,1.90239805 4.12138416,2.29292219 C3.73086023,2.68344722 3.73086023,3.31660928 4.12138416,3.70713931 L9.54277878,9.12853978 C9.36460886,9.79575984 9.53724878,10.5371799 10.0606985,11.06064 C10.8417482,11.84168 12.1080777,11.84168 12.8891273,11.06064 C13.670177,10.2795899 13.670177,9.01325977 12.8891273,8.2322097 C12.3656575,7.70873966 11.6242179,7.53610964 10.9569782,7.71429966 L5.53560054,2.29292219 Z" id="Union" fill-rule="nonzero"></path>
        </g>
    </g>
</svg>