<?xml version="1.0" encoding="UTF-8"?>
<svg width="15px" height="20px" viewBox="0 0 15 20" version="1.1" xmlns="http://www.w3.org/2000/svg" xmlns:xlink="http://www.w3.org/1999/xlink">
    <title>UI icon/watch/filled</title>
    <g id="👀-Icons" stroke="none" stroke-width="1" fill="none" fill-rule="evenodd">
        <g id="编组" transform="translate(-5.000000, -2.000000)" fill="#6F767E">
            <path d="M7.99193,4.37141 C8.28834,2.988202 9.51073,2 10.92534,2 L13.07485,2 C14.48946,2 15.7119,2.9882 16.0083,4.37141 L16.4926,6.63167 C17.5352,7.50514 18.3196,8.6767 18.7146,10.01524 C19.4414,10.11937 20,10.74445 20,11.5 L20,12.5 C20,13.2556 19.4414,13.8806 18.7146,13.9848 C18.3196,15.3233 17.5352,16.4948 16.4926,17.3683 L16.0083,19.6286 C15.7119,21.0118 14.48949,22 13.07487,22 L10.92537,22 C9.51077,22 8.28838,21.0118 7.99197,19.6286 L7.50764,17.3685 C5.974766,16.0845 5,14.1561 5,12 C5,9.84394 5.974761,7.91555 7.50763,6.63148 L7.99193,4.37141 Z M17,12 C17,9.23858 14.76142,7 12,7 C9.23858,7 7,9.23858 7,12 C7,14.7614 9.23858,17 12,17 C14.76142,17 17,14.7614 17,12 Z" id="Union"></path>
            <path d="M12,8 C12.55228,8 13,8.447715 13,9 L13,11.58579 L14.20711,12.79289 C14.59763,13.18342 14.59763,13.81658 14.20711,14.20711 C13.81658,14.59763 13.18342,14.59763 12.79289,14.20711 L11.43934,12.85355 C11.158035,12.57225 11,12.19072 11,11.79289 L11,9 C11,8.447715 11.447715,8 12,8 Z" id="Vector-378-(Stroke)"></path>
        </g>
    </g>
</svg>