<?xml version="1.0" encoding="UTF-8"?>
<svg width="15px" height="20px" viewBox="0 0 15 20" version="1.1" xmlns="http://www.w3.org/2000/svg" xmlns:xlink="http://www.w3.org/1999/xlink">
    <title>UI icon/watch/light</title>
    <g id="👀-Icons" stroke="none" stroke-width="1" fill="none" fill-rule="evenodd">
        <g id="编组" transform="translate(-5.000000, -2.000000)" fill="#6F767E">
            <path d="M12,8 C12.55228,8 13,8.447715 13,9 L13,11.58579 L14.20711,12.79289 C14.59763,13.18342 14.59763,13.81658 14.20711,14.20711 C13.81658,14.59763 13.18342,14.59763 12.79289,14.20711 L11.43934,12.85355 C11.158035,12.57225 11,12.19072 11,11.79289 L11,9 C11,8.447715 11.447715,8 12,8 Z" id="Vector-378-(Stroke)"></path>
            <path d="M7.99183,4.37141 L7.50751,6.63158 C5.974707,7.91565 5,9.844 5,12 C5,14.156 5.97474,16.0844 7.50757,17.3684 L7.99191,19.6286 C8.28832,21.0118 9.51071,22 10.92531,22 L13.07481,22 C14.48943,22 15.7118,21.0118 16.0082,19.6286 L16.4925,17.3684 C17.5352,16.4949 18.3196,15.3233 18.7146,13.9848 C19.4414,13.8806 20,13.2556 20,12.5 L20,11.5 C20,10.74445 19.4414,10.11938 18.7146,10.01525 C18.3196,8.67666 17.5352,7.50506 16.4925,6.63158 L16.0081,4.37141 C15.7117,2.9882 14.48936,2 13.07474,2 L10.92524,2 C9.51062,2 8.28823,2.988202 7.99183,4.37141 Z M13.07474,4 L10.92524,4 C10.4537,4 10.04623,4.3294 9.94743,4.79047 L9.829,5.34318 C10.51248,5.12042 11.24218,5 12,5 C12.75782,5 13.48751,5.12043 14.17098,5.34318 L14.05254,4.79047 C13.95374,4.3294 13.54628,4 13.07474,4 Z M17,12 C17,9.23858 14.76142,7 12,7 C9.23858,7 7,9.23858 7,12 C7,14.7614 9.23858,17 12,17 C14.76142,17 17,14.7614 17,12 Z M9.94751,19.2095 L9.82907,18.6568 C10.51253,18.8796 11.2422,19 12,19 C12.75784,19 13.48755,18.8796 14.17104,18.6568 L14.05261,19.2095 C13.95381,19.6706 13.54635,20 13.07481,20 L10.92531,20 C10.45378,20 10.04632,19.6706 9.94751,19.2095 Z" id="Union"></path>
        </g>
    </g>
</svg>