<?xml version="1.0" encoding="UTF-8"?>
<svg width="14px" height="18px" viewBox="0 0 14 18" version="1.1" xmlns="http://www.w3.org/2000/svg" xmlns:xlink="http://www.w3.org/1999/xlink">
    <title>UI icon/calculator/filled</title>
    <g id="👀-Icons" stroke="none" stroke-width="1" fill="none" fill-rule="evenodd">
        <g id="Subtract" transform="translate(-5.000000, -3.000000)" fill="#6F767E">
            <path d="M8,3 C6.34315,3 5,4.34315 5,6 L5,18 C5,19.6569 6.34315,21 8,21 L16,21 C17.6569,21 19,19.6569 19,18 L19,6 C19,4.34315 17.6569,3 16,3 L8,3 Z M8,5 C7.44772,5 7,5.44772 7,6 L7,7.5 C7,8.05228 7.44772,8.5 8,8.5 L16,8.5 C16.5523,8.5 17,8.05228 17,7.5 L17,6 C17,5.44772 16.5523,5 16,5 L8,5 Z M8,17 C7.44772,17 7,17.4477 7,18 C7,18.5523 7.44772,19 8,19 L12,19 C12.55228,19 13,18.5523 13,18 C13,17.4477 12.55228,17 12,17 L8,17 Z M8,12 C8.55228,12 9,11.55228 9,11 C9,10.44772 8.55228,10 8,10 C7.44772,10 7,10.44772 7,11 C7,11.55228 7.44772,12 8,12 Z M9,14.5 C9,15.0523 8.55228,15.5 8,15.5 C7.44772,15.5 7,15.0523 7,14.5 C7,13.9477 7.44772,13.5 8,13.5 C8.55228,13.5 9,13.9477 9,14.5 Z M12,12 C12.55228,12 13,11.55228 13,11 C13,10.44772 12.55228,10 12,10 C11.44772,10 11,10.44772 11,11 C11,11.55228 11.44772,12 12,12 Z M13,14.5 C13,15.0523 12.55228,15.5 12,15.5 C11.44772,15.5 11,15.0523 11,14.5 C11,13.9477 11.44772,13.5 12,13.5 C12.55228,13.5 13,13.9477 13,14.5 Z M16,12 C16.5523,12 17,11.55228 17,11 C17,10.44772 16.5523,10 16,10 C15.4477,10 15,10.44772 15,11 C15,11.55228 15.4477,12 16,12 Z M17,14.5 C17,15.0523 16.5523,15.5 16,15.5 C15.4477,15.5 15,15.0523 15,14.5 C15,13.9477 15.4477,13.5 16,13.5 C16.5523,13.5 17,13.9477 17,14.5 Z M16,19 C16.5523,19 17,18.5523 17,18 C17,17.4477 16.5523,17 16,17 C15.4477,17 15,17.4477 15,18 C15,18.5523 15.4477,19 16,19 Z"></path>
        </g>
    </g>
</svg>