<?xml version="1.0" encoding="UTF-8"?>
<svg width="16px" height="20px" viewBox="0 0 16 20" version="1.1" xmlns="http://www.w3.org/2000/svg" xmlns:xlink="http://www.w3.org/1999/xlink">
    <title>UI icon/calculator/light</title>
    <g id="👀-Icons" stroke="none" stroke-width="1" fill="none" fill-rule="evenodd">
        <g id="编组" transform="translate(-4.000000, -2.000000)" fill="#6F767E">
            <path d="M17,4 L7,4 C6.44771,4 6,4.44772 6,5 L6,19 C6,19.5523 6.44772,20 7,20 L17,20 C17.5523,20 18,19.5523 18,19 L18,5 C18,4.44772 17.5523,4 17,4 Z M7,2 C5.34315,2 4,3.34315 4,5 L4,19 C4,20.6569 5.34315,22 7,22 L17,22 C18.6569,22 20,20.6569 20,19 L20,5 C20,3.34315 18.6569,2 17,2 L7,2 Z" id="Rectangle-73-(Stroke)"></path>
            <path d="M8,5 C7.447715,5 7,5.447715 7,6 L7,8 C7,8.55228 7.447716,9 8,9 L16,9 C16.55229,9 17,8.55228 17,8 L17,6 C17,5.447715 16.55228,5 16,5 L8,5 Z" id="Rectangle-83-(Stroke)"></path>
            <path d="M8.5,17 C7.947715,17 7.5,17.447715 7.5,18 C7.5,18.55228 7.947715,19 8.5,19 L12,19 C12.55228,19 13,18.55228 13,18 C13,17.447715 12.55228,17 12,17 L8.5,17 Z" id="Rectangle-84-(Stroke)"></path>
            <path d="M9.5,11 C9.5,11.55228 9.05228,12 8.5,12 C7.947715,12 7.5,11.55228 7.5,11 C7.5,10.447715 7.947715,10 8.5,10 C9.05228,10 9.5,10.447715 9.5,11 Z" id="Ellipse-225" fill-rule="nonzero"></path>
            <path d="M9.5,14.5 C9.5,15.05228 9.05228,15.5 8.5,15.5 C7.947715,15.5 7.5,15.05228 7.5,14.5 C7.5,13.947715 7.947715,13.5 8.5,13.5 C9.05228,13.5 9.5,13.947715 9.5,14.5 Z" id="Ellipse-236" fill-rule="nonzero"></path>
            <path d="M13,11 C13,11.55228 12.55228,12 12,12 C11.447715,12 11,11.55228 11,11 C11,10.447715 11.447715,10 12,10 C12.55228,10 13,10.447715 13,11 Z" id="Ellipse-234" fill-rule="nonzero"></path>
            <path d="M13,14.5 C13,15.05228 12.55228,15.5 12,15.5 C11.447715,15.5 11,15.05228 11,14.5 C11,13.947715 11.447715,13.5 12,13.5 C12.55228,13.5 13,13.947715 13,14.5 Z" id="Ellipse-237" fill-rule="nonzero"></path>
            <path d="M16.5,11 C16.5,11.55228 16.05228,12 15.5,12 C14.947715,12 14.5,11.55228 14.5,11 C14.5,10.447715 14.947715,10 15.5,10 C16.05228,10 16.5,10.447715 16.5,11 Z" id="Ellipse-235" fill-rule="nonzero"></path>
            <path d="M16.5,14.5 C16.5,15.05228 16.05228,15.5 15.5,15.5 C14.947715,15.5 14.5,15.05228 14.5,14.5 C14.5,13.947715 14.947715,13.5 15.5,13.5 C16.05228,13.5 16.5,13.947715 16.5,14.5 Z" id="Ellipse-238" fill-rule="nonzero"></path>
            <path d="M16.5,18 C16.5,18.55228 16.05228,19 15.5,19 C14.947715,19 14.5,18.55228 14.5,18 C14.5,17.447715 14.947715,17 15.5,17 C16.05228,17 16.5,17.447715 16.5,18 Z" id="Ellipse-241" fill-rule="nonzero"></path>
        </g>
    </g>
</svg>