<?xml version="1.0" encoding="UTF-8"?>
<svg width="19px" height="16px" viewBox="0 0 19 16" version="1.1" xmlns="http://www.w3.org/2000/svg" xmlns:xlink="http://www.w3.org/1999/xlink">
    <title>UI icon/arrow_forward/filled</title>
    <g id="👀-Icons" stroke="none" stroke-width="1" fill="none" fill-rule="evenodd">
        <g id="编组" transform="translate(-3.000000, -4.000000)" fill="#6F767E" fill-rule="nonzero">
            <g id="UI-icon/arrow_forward/filled">
                <path d="M13.292921,17.7929221 C12.9023902,18.1834228 12.9023902,18.8166239 13.292921,19.2071245 C13.6834217,19.5976252 14.316623,19.5976252 14.7071238,19.2071245 L20.5000356,13.4142248 C21.2810372,12.6331835 21.2810372,11.3668514 20.5000356,10.5858001 L14.7071238,4.79289439 C14.316623,4.40236854 13.6834217,4.40236854 13.292921,4.79289439 C12.9023902,5.18341904 12.9023902,5.8165821 13.292921,6.20711276 L18.0858307,11.0000108 L4,11.0000108 C3.44771591,11.0000108 3,11.4477315 3,12.0000125 C3,12.5523034 3.44771591,13.0000141 4,13.0000141 L18.0858307,13.0000141 L13.292921,17.7929221 Z" id="Union"></path>
            </g>
        </g>
    </g>
</svg>