<?xml version="1.0" encoding="UTF-8"?>
<svg width="17px" height="20px" viewBox="0 0 17 20" version="1.1" xmlns="http://www.w3.org/2000/svg" xmlns:xlink="http://www.w3.org/1999/xlink">
    <title>UI icon/euro/filled</title>
    <g id="👀-Icons" stroke="none" stroke-width="1" fill="none" fill-rule="evenodd">
        <g id="编组" transform="translate(-2.000000, -2.000000)" fill="#6F767E" fill-rule="nonzero">
            <g id="Union">
                <path d="M14,4 C11.1286853,4 8.5591266,6.02383 7.50601715,9 L13,9 C13.552294,9 14,9.44772 14,10 C14,10.55229 13.552294,11 13,11 L7.05346738,11 C7.0181974,11.32668 7,11.66035 7,12 C7,12.3396 7.0181974,12.6733 7.05346738,13 L13,13 C13.552294,13 14,13.4477 14,14 C14,14.5523 13.552294,15 13,15 L7.50601715,15 C8.5591266,17.9762 11.1286853,20 14,20 C15.1365932,20 16.2115926,19.6905 17.1658921,19.1356 C17.6432919,18.8579 18.2553916,19.0199 18.5330914,19.4973 C18.8106913,19.9747 18.6487914,20.5868 18.1713916,20.8644 C16.9278923,21.5876 15.508093,22 14,22 C9.89750591,22 6.54955764,19.0034 5.41461823,15 L3,15 C2.44771477,15 2,14.5523 2,14 C2,13.4477 2.44771477,13 3,13 L5.04494842,13 C5.01520844,12.6704 5,12.3368 5,12 C5,11.66319 5.01520844,11.32956 5.04494842,11 L3,11 C2.44771477,11 2,10.55229 2,10 C2,9.44772 2.44771477,9 3,9 L5.41461823,9 C6.54955764,4.99657 9.89750591,2 14,2 C15.508093,2 16.9278923,2.412407 18.1713916,3.13556 C18.6487914,3.41321 18.8106913,4.02531 18.5330914,4.50273 C18.2553916,4.98015 17.6432919,5.14209 17.1658921,4.86444 C16.2115926,4.30945 15.1365932,4 14,4 Z"></path>
            </g>
        </g>
    </g>
</svg>