<?xml version="1.0" encoding="UTF-8"?>
<svg width="22px" height="22px" viewBox="0 0 22 22" version="1.1" xmlns="http://www.w3.org/2000/svg" xmlns:xlink="http://www.w3.org/1999/xlink">
    <title>UI icon/settings/filled</title>
    <g id="👀-Icons" stroke="none" stroke-width="1" fill="none" fill-rule="evenodd">
        <g id="Subtract" transform="translate(-1.000000, -1.000000)" fill="#6F767E">
            <path d="M9.09403878,3.53021 C8.91178878,4.07694 8.49581878,4.50673 7.99230878,4.78709 C7.91398878,4.83069 7.83645878,4.87554 7.75973878,4.9216 C7.26503878,5.21857 6.68418878,5.36439 6.11890878,5.24871 L4.91713878,5.00278 C4.07374878,4.8302 3.21454878,5.21665 2.78412278,5.96218 L2.16314178,7.03775 C1.73271178,7.78328 1.82763128,8.72059 2.39878678,9.36469 L3.21381878,10.28381 C3.59572878,10.7145 3.76078878,11.2889 3.75166878,11.8644 C3.75022878,11.9548 3.75022878,12.0452 3.75165878,12.1355 C3.76077878,12.7111 3.59571878,13.2854 3.21380878,13.7161 L2.39878778,14.6352 C1.82763228,15.2793 1.73271178,16.2167 2.16314178,16.9622 L2.78412278,18.0378 C3.21454878,18.7833 4.07374878,19.1697 4.91713878,18.9971 L6.11882878,18.7512 C6.68410878,18.6356 7.26497878,18.7814 7.75967878,19.0784 C7.83641878,19.1244 7.91396878,19.1693 7.99230878,19.2129 C8.49581878,19.4933 8.91178878,19.9231 9.09403878,20.4698 L9.48158878,21.6325 C9.75381878,22.4491 10.5180988,23 11.3789588,23 L12.6209688,23 C13.4817688,23 14.2460688,22.4491 14.5182688,21.6325 L14.9058688,20.4698 C15.0880688,19.9231 15.5040688,19.4933 16.0075688,19.2129 C16.0858688,19.1693 16.1634688,19.1244 16.2401688,19.0784 C16.7348688,18.7814 17.3157688,18.6356 17.8810688,18.7512 L19.0826688,18.9971 C19.9260688,19.1697 20.7852688,18.7833 21.2156688,18.0378 L21.8366688,16.9622 C22.2670688,16.2167 22.1721688,15.2793 21.6010688,14.6352 L20.7860688,13.7162 C20.4041688,13.2855 20.2390688,12.7111 20.2481688,12.1356 C20.2496688,12.0452 20.2496688,11.9548 20.2481688,11.8644 C20.2390688,11.2888 20.4041688,10.71445 20.7860688,10.28375 L21.6010688,9.36469 C22.1721688,8.72059 22.2670688,7.78328 21.8366688,7.03775 L21.2156688,5.96218 C20.7852688,5.21666 19.9260688,4.8302 19.0826688,5.00279 L17.8809688,5.2487 C17.3156688,5.36438 16.7348688,5.21857 16.2401688,4.92159 C16.1633688,4.87554 16.0858688,4.83069 16.0075688,4.78709 C15.5040688,4.50673 15.0880688,4.07694 14.9058688,3.53021 L14.5182688,2.36754 C14.2460688,1.550859 13.4817688,1 12.6209688,1 L11.3789588,1 C10.5180988,1 9.75381878,1.55086 9.48158878,2.36754 L9.09403878,3.53021 Z M14.9999688,12 C14.9999688,13.6569 13.6568688,15 11.9999688,15 C10.3431488,15 8.99999878,13.6569 8.99999878,12 C8.99999878,10.34315 10.3431488,9 11.9999688,9 C13.6568688,9 14.9999688,10.34315 14.9999688,12 Z"></path>
        </g>
    </g>
</svg>