<?xml version="1.0" encoding="UTF-8"?>
<svg width="22px" height="22px" viewBox="0 0 22 22" version="1.1" xmlns="http://www.w3.org/2000/svg" xmlns:xlink="http://www.w3.org/1999/xlink">
    <title>UI icon/settings/light</title>
    <g id="👀-Icons" stroke="none" stroke-width="1" fill="none" fill-rule="evenodd">
        <g id="编组" transform="translate(-1.000000, -1.000000)" fill="#6F767E">
            <path d="M12,14 C13.10457,14 14,13.10457 14,12 C14,10.89543 13.10457,10 12,10 C10.89543,10 10,10.89543 10,12 C10,13.10457 10.89543,14 12,14 Z M16,12 C16,14.20914 14.20914,16 12,16 C9.79086,16 8,14.20914 8,12 C8,9.79086 9.79086,8 12,8 C14.20914,8 16,9.79086 16,12 Z" id="Oval-(Stroke)"></path>
            <path d="M11.3790321,3 L10.9914721,4.16266 C10.6165121,5.28756 9.79905209,6.07025 8.96534209,6.53447 C8.90604209,6.56749 8.84732209,6.60145 8.78921209,6.63634 C7.96923209,7.12859 6.88109209,7.44611 5.71802209,7.20811 L4.51625209,6.96218 L4.91721209,5.00278 L6.11898209,5.24871 C6.68426209,5.36439 7.26511209,5.21857 7.75981209,4.9216 C7.83653209,4.87554 7.91406209,4.83069 7.99238209,4.78709 C8.49589209,4.50673 8.91186209,4.07694 9.09411209,3.53021 L9.48166209,2.36754 C9.75389209,1.55086 10.5181721,1 11.3790321,1 L12.6210421,1 C13.4818421,1 14.2461421,1.550859 14.5183421,2.36754 L14.9059421,3.53021 C15.0881421,4.07694 15.5041421,4.50673 16.0076421,4.78709 C16.0859421,4.83069 16.1634421,4.87554 16.2402421,4.92159 C16.7349421,5.21857 17.3157421,5.36438 17.8810421,5.2487 L19.0827421,5.00279 C19.9261421,4.8302 20.7853421,5.21666 21.2157421,5.96218 L21.8367421,7.03775 C22.2671421,7.78328 22.1722421,8.72059 21.6011421,9.36469 L20.7861421,10.28375 C20.4042421,10.71445 20.2391421,11.2888 20.2482421,11.8644 C20.2497421,11.9548 20.2497421,12.0452 20.2482421,12.1356 C20.2391421,12.7111 20.4042421,13.2855 20.7861421,13.7162 L21.6011421,14.6352 C22.1722421,15.2793 22.2671421,16.2167 21.8367421,16.9622 L21.2157421,18.0378 C20.7853421,18.7833 19.9261421,19.1697 19.0827421,18.9971 L17.8811421,18.7512 C17.3158421,18.6356 16.7349421,18.7814 16.2402421,19.0784 C16.1635421,19.1244 16.0859421,19.1693 16.0076421,19.2129 C15.5041421,19.4933 15.0881421,19.9231 14.9059421,20.4698 L14.5183421,21.6325 C14.2461421,22.4491 13.4818421,23 12.6210421,23 L11.3790321,23 C10.5181721,23 9.75389209,22.4491 9.48166209,21.6325 L9.09411209,20.4698 C8.91186209,19.9231 8.49589209,19.4933 7.99238209,19.2129 C7.91404209,19.1693 7.83649209,19.1244 7.75975209,19.0784 C7.26505209,18.7814 6.68418209,18.6356 6.11890209,18.7512 L4.91721209,18.9971 C4.07382209,19.1697 3.21462209,18.7833 2.78419609,18.0378 L2.16321509,16.9622 C1.73278509,16.2167 1.82770559,15.2793 2.39886109,14.6352 L3.89526209,15.9622 L4.51625209,17.0378 L5.71794209,16.7918 C6.88102209,16.5538 7.96917209,16.8714 8.78916209,17.3636 C8.84729209,17.3985 8.90602209,17.4325 8.96534209,17.4655 C9.79905209,17.9298 10.6165121,18.7124 10.9914821,19.8373 L11.3790321,21 L12.6210421,21 L13.0085421,19.8373 C13.3835421,18.7124 14.2009421,17.9298 15.0346421,17.4655 C15.0940421,17.4325 15.1527421,17.3985 15.2108421,17.3636 C16.0308421,16.8714 17.1189421,16.5538 18.2820421,16.7919 L19.4837421,17.0378 L20.1047421,15.9622 L19.2897421,15.0431 C18.5049421,14.1581 18.2333421,13.0606 18.2485421,12.1039 C18.2496421,12.0346 18.2496421,11.9653 18.2485421,11.8961 C18.2333421,10.93936 18.5049421,9.8418 19.2897421,8.95681 L20.1047421,8.03775 L19.4837421,6.96218 L18.2819421,7.2081 C17.1189421,7.4461 16.0307421,7.12858 15.2108421,6.63633 C15.1527421,6.60145 15.0939421,6.56749 15.0346421,6.53447 C14.2009421,6.07025 13.3835421,5.28756 13.0085421,4.16266 L12.6210421,3 L11.3790321,3 Z M2.39886109,14.6352 L3.89526209,15.9622 L4.71029209,15.0431 C5.49504209,14.1581 5.76664209,13.0605 5.75148209,12.1039 C5.75039209,12.0346 5.75039209,11.9653 5.75148209,11.8961 C5.76664209,10.93941 5.49505209,9.84185 4.71029209,8.95687 L3.89526209,8.03775 L4.51625209,6.96218 L4.91721209,5.00278 C4.07382209,4.8302 3.21462209,5.21665 2.78419609,5.96218 L2.16321509,7.03775 C1.73278509,7.78328 1.82770459,8.72059 2.39886009,9.36469 L3.21389209,10.28381 C3.59580209,10.7145 3.76086209,11.2889 3.75174209,11.8644 C3.75030209,11.9548 3.75030209,12.0452 3.75173209,12.1355 C3.76085209,12.7111 3.59580209,13.2854 3.21388209,13.7161 L2.39886109,14.6352 Z" id="Union-(Stroke)"></path>
        </g>
    </g>
</svg>