<?xml version="1.0" encoding="UTF-8"?>
<svg width="20px" height="18px" viewBox="0 0 20 18" version="1.1" xmlns="http://www.w3.org/2000/svg" xmlns:xlink="http://www.w3.org/1999/xlink">
    <title>UI icon/camera/filled</title>
    <g id="👀-Icons" stroke="none" stroke-width="1" fill="none" fill-rule="evenodd">
        <g id="Subtract" transform="translate(-2.000000, -3.000000)" fill="#6F767E">
            <path d="M2,8 C2,6.34315 3.34315,5 5,5 L7.19098,5 C7.38037,5 7.5535,4.893 7.6382,4.72361 L7.80902,4.38197 C8.2325,3.535005 9.09815,3 10.04508,3 L13.9549,3 C14.9018,3 15.7675,3.535006 16.191,4.38197 L16.3618,4.72361 C16.4465,4.893 16.6196,5 16.809,5 L19,5 C20.6569,5 22,6.34315 22,8 L22,18 C22,19.6569 20.6569,21 19,21 L5,21 C3.34315,21 2,19.6569 2,18 L2,8 Z M12,17 C14.2091,17 16,15.2091 16,13 C16,10.79086 14.2091,9 12,9 C9.79086,9 8,10.79086 8,13 C8,15.2091 9.79086,17 12,17 Z M18,10 C18.5523,10 19,9.55228 19,9 C19,8.44772 18.5523,8 18,8 C17.4477,8 17,8.44772 17,9 C17,9.55228 17.4477,10 18,10 Z"></path>
        </g>
    </g>
</svg>