<?xml version="1.0" encoding="UTF-8"?>
<svg width="20px" height="18px" viewBox="0 0 20 18" version="1.1" xmlns="http://www.w3.org/2000/svg" xmlns:xlink="http://www.w3.org/1999/xlink">
    <title>UI icon/camera/light</title>
    <g id="👀-Icons" stroke="none" stroke-width="1" fill="none" fill-rule="evenodd">
        <g id="编组" transform="translate(-2.000000, -2.000000)" fill="#6F767E">
            <path d="M12,14 C13.10457,14 14,13.10457 14,12 C14,10.89543 13.10457,10 12,10 C10.89543,10 10,10.89543 10,12 C10,13.10457 10.89543,14 12,14 Z M16,12 C16,14.20914 14.20914,16 12,16 C9.79086,16 8,14.20914 8,12 C8,9.79086 9.79086,8 12,8 C14.20914,8 16,9.79086 16,12 Z" id="Oval-(Stroke)"></path>
            <path d="M17,6 C16.2425,6 15.5499,5.572 15.2111,4.89443 L15.0403,4.55279 C14.8709,4.214 14.5247,4 14.1459,4 L9.8541,4 C9.47533,4 9.12907,4.214 8.95967,4.55279 L8.78885,4.89443 C8.45007,5.572 7.75754,6 7,6 L5,6 C4.44772,6 4,6.44772 4,7 L4,17 C4,17.5523 4.44772,18 5,18 L19,18 C19.5523,18 20,17.5523 20,17 L20,7 C20,6.44772 19.5523,6 19,6 L17,6 Z M17,4 L16.8292,3.65836 C16.321,2.642007 15.2822,2 14.1459,2 L9.8541,2 C8.71779,2 7.679,2.642007 7.17082,3.65836 L7,4 L5,4 C3.34315,4 2,5.34315 2,7 L2,17 C2,18.6569 3.34315,20 5,20 L19,20 C20.6569,20 22,18.6569 22,17 L22,7 C22,5.34315 20.6569,4 19,4 L17,4 Z" id="Rectangle-209-(Stroke)"></path>
            <path d="M18.5,8.5 C18.5,9.05228 18.05228,9.5 17.5,9.5 C16.947715,9.5 16.5,9.05228 16.5,8.5 C16.5,7.947715 16.947715,7.5 17.5,7.5 C18.05228,7.5 18.5,7.947715 18.5,8.5 Z" id="Ellipse-169" fill-rule="nonzero"></path>
        </g>
    </g>
</svg>