<?xml version="1.0" encoding="UTF-8"?>
<svg width="20px" height="22px" viewBox="0 0 20 22" version="1.1" xmlns="http://www.w3.org/2000/svg" xmlns:xlink="http://www.w3.org/1999/xlink">
    <title>UI icon/zap/light</title>
    <g id="👀-Icons" stroke="none" stroke-width="1" fill="none" fill-rule="evenodd">
        <g id="Union-(Stroke)" transform="translate(-2.000000, -1.000000)" fill="#6F767E">
            <path d="M10.6259124,2.52843118 C12.8388024,0.126396179 16.7532524,2.48927618 15.6588524,5.56641618 L14.4884524,8.85714618 L18.1524524,8.85714618 C20.7662524,8.85714618 22.1298524,11.9673662 20.3588524,13.8898662 L13.3740524,21.4715662 C11.1611624,23.8735662 7.24667237,21.5106662 8.34112237,18.4335662 L9.51153237,15.1428662 L5.84758237,15.1428662 C3.23371637,15.1428662 1.87012237,12.0325662 3.64116637,10.1101862 L10.6259124,2.52843118 Z M13.7744524,4.89620618 C14.1393524,3.87048618 12.8344724,3.08287618 12.0968524,3.88354618 L5.11210237,11.4652962 C4.52176237,12.1060662 4.97629237,13.1428662 5.84758237,13.1428662 L10.9285724,13.1428662 C11.2535424,13.1428662 11.5582424,13.3007662 11.7456124,13.5662662 C11.9329824,13.8317662 11.9796524,14.1717662 11.8707524,14.4779662 L10.2254824,19.1037662 C9.86066237,20.1294662 11.1655024,20.9170662 11.9031324,20.1163662 L18.8878524,12.5346662 C19.4782524,11.8938662 19.0236524,10.8571462 18.1524524,10.8571462 L13.0714524,10.8571462 C12.7464624,10.8571462 12.4417624,10.6992362 12.2543924,10.4337262 C12.0670224,10.1682162 12.0203524,9.82821618 12.1292424,9.52203618 L13.7744524,4.89620618 Z"></path>
        </g>
    </g>
</svg>