<?xml version="1.0" encoding="UTF-8"?>
<svg width="18px" height="20px" viewBox="0 0 18 20" version="1.1" xmlns="http://www.w3.org/2000/svg" xmlns:xlink="http://www.w3.org/1999/xlink">
    <title>UI icon/volume/filled</title>
    <g id="👀-Icons" stroke="none" stroke-width="1" fill="none" fill-rule="evenodd">
        <g id="编组" transform="translate(-3.000000, -2.000000)" fill="#6F767E">
            <path d="M17.8099699,14.3924889 C18.0440999,14.2153689 18.2523719,14.0037789 18.4270519,13.7633589 C18.7994319,13.2508089 19.0000019,12.6335389 19.0000019,11.9999989 C19.0000019,11.3664589 18.7994319,10.7491889 18.4270519,10.2366489 C18.2522819,9.99608891 18.0438669,9.78439891 17.8095769,9.60720891 C17.7525859,9.56410891 17.6978839,9.51732891 17.6462039,9.46740891 C17.5988339,9.42163891 17.5540029,9.37323891 17.5122719,9.32259891 C17.2476393,9.00150891 17.107722,8.59077891 17.2360675,8.19577391 C17.4067329,7.67051991 17.9781579,7.37485191 18.4590319,7.64647291 C18.6527419,7.75588891 18.8387819,7.87802991 19.0159619,8.01201791 M19.0159619,8.01201791 C19.4062919,8.30725191 19.7538619,8.66023891 20.0450819,9.06106891 C20.6657219,9.91530891 21.0000019,10.9440989 21.0000019,11.9999989 C21.0000019,13.0558989 20.6657219,14.0846889 20.0450819,14.9389289 C19.7537919,15.3398589 19.4064019,15.6927089 19.0159619,15.9879789 C18.8387819,16.1219689 18.6527419,16.2441089 18.4590319,16.3535289 C17.9781589,16.6251489 17.4067329,16.3294789 17.2360675,15.8042289 C17.107722,15.4092189 17.2476393,14.9984889 17.5122719,14.6773989 C17.5540029,14.6267589 17.5988339,14.5783589 17.6462039,14.5325989 C17.6978839,14.4826689 17.7529789,14.4355889 17.8099699,14.3924889" id="Ellipse-124-(Stroke)"></path>
            <path d="M16,19.5924394 L16,4.40753309 C16,2.68921851 13.9762,1.77086173 12.68299,2.90238146 L8,7.00000245 L6,7.00000245 C4.34315,7.00000245 3,8.34314212 3,10.0000017 L3,14.0000407 C3,15.6568403 4.34315,17.00004 6,17.00004 L8,17.00004 L12.68299,21.097639 C13.9762,22.2291387 16,21.3107389 16,19.5924394 Z" id="Vector-432" fill-rule="nonzero"></path>
        </g>
    </g>
</svg>