<?xml version="1.0" encoding="UTF-8"?>
<svg width="20px" height="20px" viewBox="0 0 20 20" version="1.1" xmlns="http://www.w3.org/2000/svg" xmlns:xlink="http://www.w3.org/1999/xlink">
    <title>UI icon/sad/filled</title>
    <g id="👀-Icons" stroke="none" stroke-width="1" fill="none" fill-rule="evenodd">
        <g id="Subtract" transform="translate(-2.000000, -2.000000)" fill="#6F767E">
            <path d="M12,22 C17.5228,22 22,17.5228 22,12 C22,6.47715 17.5228,2 12,2 C6.47715,2 2,6.47715 2,12 C2,17.5228 6.47715,22 12,22 Z M8.33238,16.4004 C8.11126,16.9065 7.52174,17.1375 7.01565,16.9163 C6.50957,16.6952 6.27855,16.1057 6.49967,15.5996 C7.42463,13.4826 9.53804,11.99999 11.99998,11.99999 C14.4619,11.99999 16.5753,13.4826 17.5003,15.5996 C17.7214,16.1057 17.4904,16.6952 16.9843,16.9163 C16.4782,17.1375 15.8887,16.9065 15.6676,16.4004 C15.0494,14.9855 13.6387,13.99999 11.99998,13.99999 C10.36128,13.99999 8.95054,14.9855 8.33238,16.4004 Z M9,9 C9,9.55228 8.55228,10 8,10 C7.44772,10 7,9.55228 7,9 C7,8.44772 7.44772,8 8,8 C8.55228,8 9,8.44772 9,9 Z M16,10 C16.5523,10 17,9.55228 17,9 C17,8.44772 16.5523,8 16,8 C15.4477,8 15,8.44772 15,9 C15,9.55228 15.4477,10 16,10 Z"></path>
        </g>
    </g>
</svg>