<?xml version="1.0" encoding="UTF-8"?>
<svg width="14px" height="20px" viewBox="0 0 14 20" version="1.1" xmlns="http://www.w3.org/2000/svg" xmlns:xlink="http://www.w3.org/1999/xlink">
    <title>UI icon/rupee/filled</title>
    <g id="👀-Icons" stroke="none" stroke-width="1" fill="none" fill-rule="evenodd">
        <g id="编组" transform="translate(-5.000000, -2.000000)" fill="#6F767E" fill-rule="nonzero">
            <g id="Union">
                <path d="M5,3 C5,2.44771504 5.447715,2 6,2 L18,2 C18.5523,2 19,2.44771504 19,3 C19,3.55228014 18.5523,4 18,4 L13.72397,4 C14.20217,4.57903024 14.56412,5.2576103 14.7741,6 L18,6 C18.5523,6 19,6.44772041 19,7 C19,7.55228051 18.5523,8 18,8 L14.95871,8 C14.70609,10.8032508 12.35015,13 9.48113,13 L8.18783,13 L13.79691,20.3957017 C14.13065,20.8358017 14.04447,21.4630018 13.60443,21.7968018 C13.16439,22.1305018 12.53712,22.0443018 12.20338,21.6043018 L6.09194,13.5462011 C5.29924,12.501001 6.04472,11 7.3565,11 L9.48113,11 C11.24436,11 12.70307,9.69615071 12.94568,8 L6,8 C5.447715,8 5,7.55228051 5,7 C5,6.44772041 5.447715,6 6,6 L12.64431,6 C12.08258,4.81753026 10.87733,4 9.48113,4 L6,4 C5.447715,4 5,3.55228014 5,3 Z"></path>
            </g>
        </g>
    </g>
</svg>