<?xml version="1.0" encoding="UTF-8"?>
<svg width="20px" height="20px" viewBox="0 0 20 20" version="1.1" xmlns="http://www.w3.org/2000/svg" xmlns:xlink="http://www.w3.org/1999/xlink">
    <title>UI icon/multiselect/filled</title>
    <g id="👀-Icons" stroke="none" stroke-width="1" fill="none" fill-rule="evenodd">
        <g id="Union" transform="translate(-2.000000, -2.000000)" fill="#6F767E">
            <path d="M6,5 C6,3.34315 7.34315,2 9,2 L19,2 C20.6569,2 22,3.34315 22,5 L22,15 C22,16.6569 20.6569,18 19,18 L18,18 L18,19 C18,20.6569 16.6569,22 15,22 L5,22 C3.34315,22 2,20.6569 2,19 L2,9 C2,7.34315 3.34315,6 5,6 L6,6 L6,5 Z M17.2682,7.03646 C16.9322,6.94326 16.557,7.02874 16.2929,7.29289 L13,10.58579 L11.70711,9.29289 C11.31658,8.90237 10.68342,8.90237 10.29289,9.29289 C9.90237,9.68342 9.90237,10.31658 10.29289,10.70711 L12.2929,12.7071 C12.6834,13.0976 13.3166,13.0976 13.7071,12.7071 L17.7071,8.70711 C17.8047,8.60948 17.878,8.49668 17.9268,8.3763 C17.9286,8.37178 17.9304,8.36725 17.9322,8.36271 C18.0714,8.00444 17.9963,7.58212 17.7071,7.29289 C17.5807,7.16652 17.429,7.08105 17.2682,7.03646 Z M16,18 L9,18 C7.34315,18 6,16.6569 6,15 L6,8 L5,8 C4.44772,8 4,8.44772 4,9 L4,19 C4,19.5523 4.44772,20 5,20 L15,20 C15.5523,20 16,19.5523 16,19 L16,18 Z"></path>
        </g>
    </g>
</svg>