<?xml version="1.0" encoding="UTF-8"?>
<svg width="20px" height="20px" viewBox="0 0 20 20" version="1.1" xmlns="http://www.w3.org/2000/svg" xmlns:xlink="http://www.w3.org/1999/xlink">
    <title>UI icon/multiselect/light</title>
    <g id="👀-Icons" stroke="none" stroke-width="1" fill="none" fill-rule="evenodd">
        <g id="编组" transform="translate(-2.000000, -2.000000)" fill="#6F767E">
            <path d="M6,6 L5,6 C3.34315,6 2,7.34315 2,9 L2,19 C2,20.6569 3.34315,22 5,22 L15,22 C16.6569,22 18,20.6569 18,19 L18,18 L16,18 L16,19 C16,19.5523 15.5523,20 15,20 L5,20 C4.44772,20 4,19.5523 4,19 L4,9 C4,8.44772 4.44772,8 5,8 L6,8 L6,6 Z" id="Subtract" fill-rule="nonzero"></path>
            <path d="M19,4 L9,4 C8.44772,4 8,4.44772 8,5 L8,15 C8,15.5523 8.44772,16 9,16 L19,16 C19.5523,16 20,15.5523 20,15 L20,5 C20,4.44772 19.5523,4 19,4 Z M9,2 C7.34315,2 6,3.34315 6,5 L6,15 C6,16.6569 7.34315,18 9,18 L19,18 C20.6569,18 22,16.6569 22,15 L22,5 C22,3.34315 20.6569,2 19,2 L9,2 Z" id="Rectangle-324-(Stroke)"></path>
            <path d="M17.70711,7.29289307 C18.09763,7.68341707 18.09763,8.31658006 17.70711,8.70711005 L13.70711,12.70711 C13.31658,13.09763 12.68342,13.09763 12.2928901,12.70711 L10.2928931,10.70711 C9.90236898,10.31658 9.90236898,9.68342004 10.2928931,9.29289005 C10.6834171,8.90237005 11.3165801,8.90237005 11.7071101,9.29289005 L13,10.58579 L16.29289,7.29289307 C16.68342,6.90236898 17.31658,6.90236898 17.70711,7.29289307 Z" id="Vector-408-(Stroke)"></path>
        </g>
    </g>
</svg>