<?xml version="1.0" encoding="UTF-8"?>
<svg width="19px" height="20px" viewBox="0 0 19 20" version="1.1" xmlns="http://www.w3.org/2000/svg" xmlns:xlink="http://www.w3.org/1999/xlink">
    <title>UI icon/logout/light</title>
    <g id="👀-Icons" stroke="none" stroke-width="1" fill="none" fill-rule="evenodd">
        <g id="编组" transform="translate(-3.000000, -2.000000)" fill="#6F767E">
            <path d="M17.7071095,7.7928939 C17.3165795,7.4023687 16.6834195,7.4023687 16.2928896,7.7928939 C15.9023696,8.18341791 15.9023696,8.81657991 16.2928896,9.20710992 L18.0857995,11 L9,11 C8.44771498,11 8,11.4477199 8,12 C8,12.55229 8.44771498,13 9,13 L18.0857995,13 L16.2928896,14.79289 C15.9023696,15.18342 15.9023696,15.81658 16.2928896,16.20711 C16.6834195,16.59763 17.3165795,16.59763 17.7071095,16.20711 L20.5,13.41421 C21.2810993,12.63316 21.2809993,11.3668299 20.5,10.5857899 L17.7071095,7.7928939 Z" id="Union" fill-rule="nonzero"></path>
            <path d="M3,5 C3,3.34315 4.34315,2 6,2 L12,2 C13.6569,2 15,3.34315 15,5 L15,6 C15,6.55228 14.5523,7 14,7 C13.4477,7 13,6.55228 13,6 L13,5 C13,4.44772 12.55229,4 12,4 L6,4 C5.44772,4 5,4.44772 5,5 L5,19 C5,19.5523 5.44772,20 6,20 L12,20 C12.55229,20 13,19.5523 13,19 L13,18 C13,17.4477 13.4477,17 14,17 C14.5523,17 15,17.4477 15,18 L15,19 C15,20.6569 13.6569,22 12,22 L6,22 C4.34315,22 3,20.6569 3,19 L3,5 Z" id="Vector-587-(Stroke)"></path>
        </g>
    </g>
</svg>