<?xml version="1.0" encoding="UTF-8"?>
<svg width="18px" height="18px" viewBox="0 0 18 18" version="1.1" xmlns="http://www.w3.org/2000/svg" xmlns:xlink="http://www.w3.org/1999/xlink">
    <title>UI icon/percent/filled</title>
    <g id="👀-Icons" stroke="none" stroke-width="1" fill="none" fill-rule="evenodd">
        <g id="编组" transform="translate(-3.000000, -3.000000)" fill="#6F767E">
            <path d="M7,9 C8.10457,9 9,8.10457 9,7 C9,5.89543 8.10457,5 7,5 C5.89543,5 5,5.89543 5,7 C5,8.10457 5.89543,9 7,9 Z M7,11 C9.20914,11 11,9.20914 11,7 C11,4.79086 9.20914,3 7,3 C4.79086,3 3,4.79086 3,7 C3,9.20914 4.79086,11 7,11 Z" id="Ellipse-201-(Stroke)"></path>
            <path d="M17,19 C18.10457,19 19,18.10457 19,17 C19,15.89543 18.10457,15 17,15 C15.89543,15 15,15.89543 15,17 C15,18.10457 15.89543,19 17,19 Z M17,21 C19.20914,21 21,19.20914 21,17 C21,14.79086 19.20914,13 17,13 C14.79086,13 13,14.79086 13,17 C13,19.20914 14.79086,21 17,21 Z" id="Ellipse-202-(Stroke)"></path>
            <path d="M18.6000385,3.20000003 C19.0418384,3.531371 19.1313384,4.15817093 18.8000385,4.60000088 L6.80000092,20.6000392 C6.46863099,21.0418391 5.84182812,21.1313391 5.40000021,20.8000391 C4.9581724,20.4686392 4.86862932,19.8418393 5.20000025,19.4000393 L17.2000388,3.40000001 C17.5313387,2.95817216 18.1581386,2.86862907 18.6000385,3.20000003 Z" id="Vector-617-(Stroke)"></path>
        </g>
    </g>
</svg>