<?xml version="1.0" encoding="UTF-8"?>
<svg width="20px" height="12px" viewBox="0 0 20 12" version="1.1" xmlns="http://www.w3.org/2000/svg" xmlns:xlink="http://www.w3.org/1999/xlink">
    <title>UI icon/dumbell/light</title>
    <g id="👀-Icons" stroke="none" stroke-width="1" fill="none" fill-rule="evenodd">
        <g id="编组" transform="translate(-2.000000, -6.000000)" fill="#6F767E">
            <path d="M6,6 C6.55228,6 7,6.447715 7,7 L7,11 L17,11 L17,7 C17,6.447715 17.4477,6 18,6 C18.5523,6 19,6.447715 19,7 L19,17 C19,17.5523 18.5523,18 18,18 C17.4477,18 17,17.5523 17,17 L17,13 L7,13 L7,17 C7,17.5523 6.55228,18 6,18 C5.447715,18 5,17.5523 5,17 L5,7 C5,6.447715 5.447715,6 6,6 Z" id="Union" fill-rule="nonzero"></path>
            <path d="M3,8 C3.55228,8 4,8.447715 4,9 L4,15 C4,15.55228 3.55228,16 3,16 C2.447715,16 2,15.55228 2,15 L2,9 C2,8.447715 2.447715,8 3,8 Z" id="Vector-520-(Stroke)"></path>
            <path d="M21,8 C21.55228,8 22,8.447715 22,9 L22,15 C22,15.55228 21.55228,16 21,16 C20.447715,16 20,15.55228 20,15 L20,9 C20,8.447715 20.447715,8 21,8 Z" id="Vector-521-(Stroke)"></path>
        </g>
    </g>
</svg>