<?xml version="1.0" encoding="UTF-8"?>
<svg width="18px" height="20px" viewBox="0 0 18 20" version="1.1" xmlns="http://www.w3.org/2000/svg" xmlns:xlink="http://www.w3.org/1999/xlink">
    <title>UI icon/document/light</title>
    <g id="👀-Icons" stroke="none" stroke-width="1" fill="none" fill-rule="evenodd">
        <g id="编组" transform="translate(-3.000000, -2.000000)" fill="#6F767E">
            <path d="M7,11 C7,10.447715 7.447715,10 8,10 L16,10 C16.55229,10 17,10.447715 17,11 C17,11.55228 16.55229,12 16,12 L8,12 C7.447715,12 7,11.55228 7,11 Z" id="Vector-492-(Stroke)"></path>
            <path d="M7,15 C7,14.447715 7.447715,14 8,14 L12,14 C12.55228,14 13,14.447715 13,15 C13,15.55228 12.55228,16 12,16 L8,16 C7.447715,16 7,15.55228 7,15 Z" id="Vector-493-(Stroke)"></path>
            <path d="M21,19 C21,20.6569 19.6569,22 18,22 L6,22 C4.34315,22 3,20.6569 3,19 L3,5 C3,3.34315 4.34315,2 6,2 L16,2 L16.0107,2.0107091 C16.7136,2.0702502 17.3761,2.376096 17.8787,2.87868 L20.1213,5.12132 C20.6239,5.6239 20.9297,6.28645 20.9893,6.98929 L21,7 L21,19 Z M18,20 L6,20 C5.44772,20 5,19.5523 5,19 L5,5 C5,4.44772 5.44771,4 6,4 L15,4 L15,6 C15,7.10457 15.8954,8 17,8 L19,8 L19,19 C19,19.5523 18.5523,20 18,20 Z" id="Union"></path>
        </g>
    </g>
</svg>