<?xml version="1.0" encoding="UTF-8"?>
<svg width="20px" height="20px" viewBox="0 0 20 20" version="1.1" xmlns="http://www.w3.org/2000/svg" xmlns:xlink="http://www.w3.org/1999/xlink">
    <title>UI icon/gift/filled</title>
    <g id="👀-Icons" stroke="none" stroke-width="1" fill="none" fill-rule="evenodd">
        <g id="Subtract" transform="translate(-2.000000, -2.000000)" fill="#6F767E">
            <path d="M6.49982,6 L4,6 C2.895431,6 2,6.89543 2,8 L2,9 C2,10.10457 2.895431,11 4,11 L11,11 L11,8 C11,7.44772 11.44771,7 12,7 C12.5523,7 13,7.44772 13,8 L13,11 L20,11 C21.1046,11 22,10.10457 22,9 L22,8 C22,6.89543 21.1046,6 20,6 L17.5002,6 C17.814,5.58217 18,5.0628 18,4.5 C18,3.11929 16.8807,2 15.5,2 L15.2984,2 C14.4777,2 13.7016,2.373058 13.1889,3.01391 L12,4.5 L10.81113,3.01391 C10.29845,2.373058 9.52225,2 8.70156,2 L8.5,2 C7.11929,2 6,3.11929 6,4.5 C6,5.0628 6.18597,5.58217 6.49982,6 Z M9.24939,4.2633 L9.83875,5 L8.5,5 C8.22386,5 8,4.77614 8,4.5 C8,4.22386 8.22386,4 8.5,4 L8.70156,4 C8.91468,4 9.11625,4.09688 9.24939,4.2633 Z M14.1612,5 L14.7506,4.2633 C14.8837,4.09688 15.0853,4 15.2984,4 L15.5,4 C15.7761,4 16,4.22386 16,4.5 C16,4.77614 15.7761,5 15.5,5 L14.1612,5 Z"></path>
            <g transform="translate(3.000000, 12.873962)" fill-rule="nonzero">
                <path d="M8,0.126018 L1,0.126018 L1,0.126018 C0.488091,0.126018 0,0.498671 0,1.01058 L0,6.126018 C0,7.78287 1.34315,9.126018 3,9.126018 L8,9.126018 L8,0.126018 Z" id="13ABA391-F4F4-4460-8072-5993CB6B078E"></path>
                <path d="M10,9.126018 L15,9.126018 C16.6569,9.126018 18,7.78287 18,6.126018 L18,1.01058 C18,0.498671 17.5119,0.126018 17,0.126018 L17,0.126018 L10,0.126018 L10,9.126018 Z" id="37BAA29B-F1A5-4338-A90E-3879DAC6CE8E"></path>
            </g>
        </g>
    </g>
</svg>