<?xml version="1.0" encoding="UTF-8"?>
<svg width="20px" height="20px" viewBox="0 0 20 20" version="1.1" xmlns="http://www.w3.org/2000/svg" xmlns:xlink="http://www.w3.org/1999/xlink">
    <title>UI icon/gift/light</title>
    <g id="👀-Icons" stroke="none" stroke-width="1" fill="none" fill-rule="evenodd">
        <g id="Union" transform="translate(-2.000000, -2.000000)" fill="#6F767E">
            <path d="M12,4.5 L10.81113,3.01391 C10.29845,2.373058 9.52225,2 8.70156,2 L8.5,2 C7.11929,2 6,3.11929 6,4.5 C6,4.67123 6.01722,4.83844 6.05001,5 L5,5 C3.34315,5 2,6.34315 2,8 L2,9 C2,9.8885 2.386251,10.68679 3,11.23611 L3,19 C3,20.6569 4.34315,22 6,22 L18,22 C19.6569,22 21,20.6569 21,19 L21,11.23611 C21.6137,10.68679 22,9.8885 22,9 L22,8 C22,6.34315 20.6569,5 19,5 L17.95,5 C17.9828,4.83844 18,4.67123 18,4.5 C18,3.11929 16.8807,2 15.5,2 L15.2984,2 C14.4777,2 13.7016,2.373058 13.1889,3.01391 L12,4.5 Z M14.1612,5 L15.5,5 C15.7761,5 16,4.77614 16,4.5 C16,4.22386 15.7761,4 15.5,4 L15.2984,4 C15.0853,4 14.8837,4.09688 14.7506,4.2633 L14.1612,5 Z M5,7 C4.44772,7 4,7.44772 4,8 L4,9 C4,9.55229 4.44772,10 5,10 L11,10 L11,7 L5,7 Z M13,7 L13,10 L19,10 C19.5523,10 20,9.55228 20,9 L20,8 C20,7.44771 19.5523,7 19,7 L13,7 Z M8,4.5 C8,4.77614 8.22386,5 8.5,5 L9.83875,5 L9.24939,4.2633 C9.11625,4.09688 8.91468,4 8.70156,4 L8.5,4 C8.22386,4 8,4.22386 8,4.5 Z M5,12 L5,19 C5,19.5523 5.44772,20 6,20 L11,20 L11,12 L5,12 Z M13,20 L13,12 L19,12 L19,19 C19,19.5523 18.5523,20 18,20 L13,20 Z"></path>
        </g>
    </g>
</svg>