<?xml version="1.0" encoding="UTF-8"?>
<svg width="22px" height="20px" viewBox="0 0 22 20" version="1.1" xmlns="http://www.w3.org/2000/svg" xmlns:xlink="http://www.w3.org/1999/xlink">
    <title>UI icon/store/filled</title>
    <g id="👀-Icons" stroke="none" stroke-width="1" fill="none" fill-rule="evenodd">
        <g id="Subtract" transform="translate(-1.000000, -2.000000)" fill="#6F767E">
            <path d="M8.51805871,1.99981689 L15.4818287,1.99981689 C15.4946287,1.99981689 15.5073287,1.99981689 15.5200287,1.99981689 L17.4478287,1.99981689 C18.6850287,1.99981689 19.7954287,2.75954689 20.2438287,3.91265689 L22.0317287,8.51022689 C22.4661287,9.62723689 21.9889287,10.8522369 21.0000287,11.4121369 L21.0000287,19.0000169 C21.0000287,20.6568169 19.6568287,22.0000169 18.0000287,22.0000169 L5.99999871,22.0000169 C4.34314871,22.0000169 2.99999871,20.6568169 2.99999871,19.0000169 L2.99999871,11.4121369 C2.01111071,10.8522269 1.53386171,9.62722689 1.96824971,8.51022689 L3.75618871,3.91265689 C4.20462871,2.75954489 5.31496871,1.99981689 6.55220871,1.99981689 L8.47989871,1.99981689 C8.49257871,1.99981689 8.50530871,1.99981689 8.51805871,1.99981689 Z M17.8489287,9.18908689 C17.8641287,9.19623689 17.8793287,9.20359689 17.8944287,9.21114689 L18.5960287,9.56192689 C19.0068287,9.76735689 19.4776287,9.81903689 19.9233287,9.70762689 C20.1304287,9.65584689 20.2451287,9.43410689 20.1677287,9.23512689 L18.3798287,4.63755689 C18.2303287,4.25318689 17.8602287,3.99999689 17.4478287,3.99999689 L16.7369287,3.99999689 L17.8489287,9.18908689 Z M14.6915287,3.99999689 L15.8302287,9.31384689 L15.6141287,9.40026689 C14.8989287,9.68635689 14.1010287,9.68635689 13.3858287,9.40026689 L13.0000287,9.24593689 L13.0000287,3.99999689 L14.6915287,3.99999689 Z M9.30837871,3.99999689 L10.9999987,3.99999689 L10.9999987,9.24593689 L10.6141787,9.40026689 C9.89893871,9.68635689 9.10106871,9.68635689 8.38582871,9.40026689 L8.16970871,9.31381689 L9.30837871,3.99999689 Z M7.26297871,3.99999689 L6.15101871,9.18913689 C6.13579871,9.19626689 6.12065871,9.20360689 6.10557871,9.21114689 L5.40400871,9.56192689 C4.99315871,9.76735689 4.52236871,9.81903689 4.07672871,9.70762689 C3.86960871,9.65584689 3.75487871,9.43410689 3.83225871,9.23511689 L5.62019871,4.63754689 C5.76967871,4.25317689 6.13978871,3.99999689 6.55220871,3.99999689 L7.26297871,3.99999689 Z M10.9999987,14.0000169 C9.89542871,14.0000169 8.99999871,14.8954169 8.99999871,16.0000169 L8.99999871,19.5000169 C8.99999871,19.7761169 9.22385871,20.0000169 9.49999871,20.0000169 L14.5000287,20.0000169 C14.7761287,20.0000169 15.0000287,19.7761169 15.0000287,19.5000169 L15.0000287,16.0000169 C15.0000287,14.8954169 14.1045287,14.0000169 13.0000287,14.0000169 L10.9999987,14.0000169 Z"></path>
        </g>
    </g>
</svg>