<?xml version="1.0" encoding="UTF-8"?>
<svg width="22px" height="20px" viewBox="0 0 22 20" version="1.1" xmlns="http://www.w3.org/2000/svg" xmlns:xlink="http://www.w3.org/1999/xlink">
    <title>UI icon/store/light</title>
    <g id="👀-Icons" stroke="none" stroke-width="1" fill="none" fill-rule="evenodd">
        <g id="Union" transform="translate(-1.000000, -2.000000)" fill="#6F767E">
            <path d="M8.51811871,1.99981689 C8.50536871,1.99981689 8.49263871,1.99981689 8.47995871,1.99981689 L6.55220871,1.99981689 C5.31496871,1.99981689 4.20462871,2.75954489 3.75618871,3.91265689 L1.96824971,8.51022689 C1.53386171,9.62722689 2.01111071,10.8522269 2.99999871,11.4121369 L2.99999871,19.0000169 C2.99999871,20.6568169 4.34314871,22.0000169 5.99999871,22.0000169 L18.0000287,22.0000169 C19.6568287,22.0000169 21.0000287,20.6568169 21.0000287,19.0000169 L21.0000287,11.4121369 C21.9889287,10.8522369 22.4661287,9.62723689 22.0317287,8.51022689 L20.2438287,3.91265689 C19.7954287,2.75954689 18.6850287,1.99981689 17.4478287,1.99981689 L15.5201287,1.99981689 C15.5074287,1.99981689 15.4947287,1.99981689 15.4819287,1.99981689 L8.51811871,1.99981689 Z M19.0000287,11.7384369 C18.5514287,11.6858969 18.1118287,11.5559269 17.7015287,11.3507869 L17.0004287,11.0002269 L16.9994287,11.0002269 L16.3569287,11.2572169 C15.1649287,11.7340369 13.8351287,11.7340369 12.6430287,11.2572169 L12.0000287,10.9999969 L11.3569587,11.2572169 C10.1648987,11.7340369 8.83510871,11.7340369 7.64304871,11.2572169 L7.00057871,11.0002269 L6.99954871,11.0002269 L6.29843871,11.3507869 C5.88813871,11.5559369 5.44853871,11.6858969 4.99999871,11.7384369 L4.99999871,19.0000169 C4.99999871,19.5522169 5.44771871,20.0000169 5.99999871,20.0000169 L7.99999871,20.0000169 L7.99999871,17.0000169 C7.99999871,15.3431169 9.34314871,14.0000169 10.9999987,14.0000169 L13.0000287,14.0000169 C14.6568287,14.0000169 16.0000287,15.3431169 16.0000287,17.0000169 L16.0000287,20.0000169 L18.0000287,20.0000169 C18.5523287,20.0000169 19.0000287,19.5522169 19.0000287,19.0000169 L19.0000287,11.7384369 Z M17.8944287,9.21114689 C17.8793287,9.20360689 17.8642287,9.19625689 17.8489287,9.18912689 L16.7370287,3.99999689 L17.4478287,3.99999689 C17.8602287,3.99999689 18.2303287,4.25318689 18.3798287,4.63755689 L20.1677287,9.23512689 C20.2451287,9.43410689 20.1304287,9.65584689 19.9233287,9.70762689 C19.4776287,9.81903689 19.0068287,9.76735689 18.5960287,9.56192689 L17.8944287,9.21114689 Z M15.8303287,9.31382689 L14.6916287,3.99999689 L13.0000287,3.99999689 L13.0000287,9.24593689 L13.3858287,9.40026689 C14.1010287,9.68635689 14.8989287,9.68635689 15.6141287,9.40026689 L15.8303287,9.31382689 Z M10.9999987,3.99999689 L9.30844871,3.99999689 L8.16976871,9.31383689 L8.38582871,9.40026689 C9.10106871,9.68635689 9.89893871,9.68635689 10.6141787,9.40026689 L10.9999987,9.24593689 L10.9999987,3.99999689 Z M6.15108871,9.18910689 L7.26303871,3.99999689 L6.55220871,3.99999689 C6.13978871,3.99999689 5.76967871,4.25317689 5.62019871,4.63754689 L3.83225871,9.23511689 C3.75487871,9.43410689 3.86960871,9.65584689 4.07672871,9.70762689 C4.52236871,9.81903689 4.99315871,9.76735689 5.40400871,9.56192689 L6.10557871,9.21114689 C6.12067871,9.20359689 6.13584871,9.19624689 6.15108871,9.18910689 Z M14.0000287,17.0000169 L14.0000287,20.0000169 L9.99999871,20.0000169 L9.99999871,17.0000169 C9.99999871,16.4477169 10.4477187,16.0000169 10.9999987,16.0000169 L13.0000287,16.0000169 C13.5523287,16.0000169 14.0000287,16.4477169 14.0000287,17.0000169 Z"></path>
        </g>
    </g>
</svg>