<?xml version="1.0" encoding="UTF-8"?>
<svg width="18px" height="18px" viewBox="0 0 18 18" version="1.1" xmlns="http://www.w3.org/2000/svg" xmlns:xlink="http://www.w3.org/1999/xlink">
    <title>UI icon/command/light</title>
    <g id="👀-Icons" stroke="none" stroke-width="1" fill="none" fill-rule="evenodd">
        <g id="Vector-161-(Stroke)" transform="translate(-3.000000, -3.000000)" fill="#6F767E">
            <path d="M3,6.5 C3,4.567 4.567,3 6.5,3 C8.433,3 10,4.567 10,6.5 L10,8 L14,8 L14,6.5 C14,4.567 15.567,3 17.5,3 C19.433,3 21,4.567 21,6.5 C21,8.433 19.433,10 17.5,10 L16,10 L16,14 L17.5,14 C19.433,14 21,15.567 21,17.5 C21,19.433 19.433,21 17.5,21 C15.567,21 14,19.433 14,17.5 L14,16 L10,16 L10,17.5 C10,19.433 8.433,21 6.5,21 C4.567,21 3,19.433 3,17.5 C3,15.567 4.567,14 6.5,14 L8,14 L8,10 L6.5,10 C4.567,10 3,8.433 3,6.5 Z M8,8 L8,6.5 C8,5.67157 7.32843,5 6.5,5 C5.67157,5 5,5.67157 5,6.5 C5,7.32843 5.67157,8 6.5,8 L8,8 Z M10,10 L10,14 L14,14 L14,10 L10,10 Z M8,16 L6.5,16 C5.67157,16 5,16.6716 5,17.5 C5,18.3284 5.67157,19 6.5,19 C7.32843,19 8,18.3284 8,17.5 L8,16 Z M16,16 L16,17.5 C16,18.3284 16.6716,19 17.5,19 C18.3284,19 19,18.3284 19,17.5 C19,16.6716 18.3284,16 17.5,16 L16,16 Z M16,8 L17.5,8 C18.3284,8 19,7.32843 19,6.5 C19,5.67157 18.3284,5 17.5,5 C16.6716,5 16,5.67157 16,6.5 L16,8 Z"></path>
        </g>
    </g>
</svg>