<?xml version="1.0" encoding="UTF-8"?>
<svg width="20px" height="20px" viewBox="0 0 20 20" version="1.1" xmlns="http://www.w3.org/2000/svg" xmlns:xlink="http://www.w3.org/1999/xlink">
    <title>UI icon/bar_chart/filled</title>
    <g id="👀-Icons" stroke="none" stroke-width="1" fill="none" fill-rule="evenodd">
        <g id="编组" transform="translate(-2.000000, -2.000000)" fill="#6F767E">
            <path d="M3,2 C3.55228,2 4,2.447715 4,3 L4,19 C4,19.5523 4.44772,20 5,20 L21,20 C21.5523,20 22,20.4477 22,21 C22,21.5523 21.5523,22 21,22 L5,22 C3.34315,22 2,20.6569 2,19 L2,3 C2,2.447715 2.447715,2 3,2 Z" id="Vector-606-(Stroke)"></path>
            <path d="M7,8 C7.55228,8 8,8.447715 8,9 L8,17 C8,17.55229 7.55228,18 7,18 C6.447715,18 6,17.55229 6,17 L6,9 C6,8.447715 6.447715,8 7,8 Z" id="Vector-642-(Stroke)"></path>
            <path d="M11,14 C11.55228,14 12,14.447715 12,15 L12,17 C12,17.55228 11.55228,18 11,18 C10.447715,18 10,17.55228 10,17 L10,15 C10,14.447715 10.447715,14 11,14 Z" id="Vector-643-(Stroke)"></path>
            <path d="M15,4 C15.55228,4 16,4.447715 16,5 L16,17 C16,17.5523 15.55228,18 15,18 C14.447715,18 14,17.5523 14,17 L14,5 C14,4.447715 14.447715,4 15,4 Z" id="Vector-644-(Stroke)"></path>
            <path d="M19,10 C19.55228,10 20,10.447715 20,11 L20,17 C20,17.55228 19.55228,18 19,18 C18.447715,18 18,17.55228 18,17 L18,11 C18,10.447715 18.447715,10 19,10 Z" id="Vector-645-(Stroke)"></path>
        </g>
    </g>
</svg>