<?xml version="1.0" encoding="UTF-8"?>
<svg width="20px" height="17px" viewBox="0 0 20 17" version="1.1" xmlns="http://www.w3.org/2000/svg" xmlns:xlink="http://www.w3.org/1999/xlink">
    <title>UI icon/sort_decending/light</title>
    <g id="👀-Icons" stroke="none" stroke-width="1" fill="none" fill-rule="evenodd">
        <g id="编组" transform="translate(-2.000000, -4.000000)" fill="#6F767E">
            <path d="M7,5 C7,4.44771602 6.55228003,4 6,4 C5.44772004,4 5,4.44771602 5,5 L5,17.08583 L3.70711006,15.792927 C3.31658006,15.4024261 2.68341807,15.4024261 2.29289307,15.792927 C1.90236898,16.1834279 1.90236898,16.8166293 2.29289307,17.2071302 L4.58579005,19.5000355 C5.36683004,20.2810373 6.63316003,20.2810373 7.41421002,19.5000355 L9.70711,17.2071302 C10.09763,16.8166293 10.09763,16.1834279 9.70711,15.792927 C9.31658001,15.4024261 8.68342001,15.4024261 8.29289002,15.792927 L7,17.08583 L7,5 Z" id="Union" fill-rule="nonzero"></path>
            <path d="M12,7 C12,6.447715 12.447715,6 13,6 L21,6 C21.55229,6 22,6.447715 22,7 C22,7.55228 21.55229,8 21,8 L13,8 C12.447715,8 12,7.55228 12,7 Z" id="Path-13-Copy-5-(Stroke)"></path>
            <path d="M12,12 C12,11.447715 12.447715,11 13,11 L18,11 C18.55228,11 19,11.447715 19,12 C19,12.55228 18.55228,13 18,13 L13,13 C12.447715,13 12,12.55228 12,12 Z" id="Path-13-Copy-6-(Stroke)" transform="translate(15.500000, 12.000000) scale(1, -1) translate(-15.500000, -12.000000) "></path>
            <path d="M12,17 C12,16.447715 12.447715,16 13,16 L15,16 C15.55228,16 16,16.447715 16,17 C16,17.55228 15.55228,18 15,18 L13,18 C12.447715,18 12,17.55228 12,17 Z" id="Path-13-Copy-7-(Stroke)" transform="translate(14.000000, 17.000000) scale(1, -1) translate(-14.000000, -17.000000) "></path>
        </g>
    </g>
</svg>