<?xml version="1.0" encoding="UTF-8"?>
<svg width="16px" height="19px" viewBox="0 0 16 19" version="1.1" xmlns="http://www.w3.org/2000/svg" xmlns:xlink="http://www.w3.org/1999/xlink">
    <title>UI icon/timer/filled</title>
    <g id="👀-Icons" stroke="none" stroke-width="1" fill="none" fill-rule="evenodd">
        <g id="编组" transform="translate(-4.000000, -2.000000)" fill="#6F767E">
            <path d="M6.77136774,4.47378204 C6.4831574,4.00379865 5.86528668,3.85291179 5.42335615,4.18253239 C5.03330969,4.47345404 4.66299426,4.78993765 4.31485485,5.12989424 C3.92040638,5.51507377 3.97318604,6.148903 4.39252694,6.50682256 C4.81186843,6.86474212 5.43848617,6.81021219 5.84060665,6.43304265 C6.04292688,6.24328288 6.25391713,6.0629631 6.47288739,5.89268331 C6.9080879,5.55423372 7.05957808,4.94376446 6.77136774,4.47378204 Z" id="Ellipse-135" fill-rule="nonzero"></path>
            <path d="M17.2286346,4.47378204 C17.5168487,4.00379865 18.1347139,3.85291179 18.5766441,4.18253239 C18.9666943,4.47345404 19.3370044,4.78993765 19.6851445,5.12989424 C20.0795947,5.51507377 20.0268147,6.148903 19.6074745,6.50682256 C19.1881343,6.86474212 18.5615141,6.81021219 18.1593939,6.43304265 C17.9570749,6.24328288 17.7460908,6.0629631 17.5271197,5.89268331 C17.0919119,5.55423372 16.9404215,4.94376446 17.2286346,4.47378204 Z" id="Ellipse-200" fill-rule="nonzero"></path>
            <path d="M9,3 C9,2.447715 9.44772,2 10,2 L14,2 C14.5523,2 15,2.447715 15,3 C15,3.55228 14.5523,4 14,4 L13,4 L13,5.06189 C16.9463,5.55399 20,8.92038 20,13 C20,17.4183 16.4183,21 12,21 C7.58172,21 4,17.4183 4,13 C4,8.92038 7.05369,5.55399 11,5.06189 L11,4 L10,4 C9.44772,4 9,3.55228 9,3 Z M15.7071,9.29289 C16.0976,9.68342 16.0976,10.31658 15.7071,10.70711 L13.93226,12.482 C13.97644,12.6472 14,12.8208 14,13 C14,14.1046 13.10457,15 12,15 C10.89543,15 10,14.1046 10,13 C10,11.89543 10.89543,11 12,11 C12.17916,11 12.35282,11.02356 12.51804,11.06774 L14.2929,9.29289 C14.6834,8.90237 15.3166,8.90237 15.7071,9.29289 Z" id="Subtract"></path>
        </g>
    </g>
</svg>