<?xml version="1.0" encoding="UTF-8"?>
<svg width="16px" height="19px" viewBox="0 0 16 19" version="1.1" xmlns="http://www.w3.org/2000/svg" xmlns:xlink="http://www.w3.org/1999/xlink">
    <title>UI icon/timer/light</title>
    <g id="👀-Icons" stroke="none" stroke-width="1" fill="none" fill-rule="evenodd">
        <g id="编组" transform="translate(-4.000000, -2.000000)" fill="#6F767E">
            <path d="M6.77136774,4.47378204 C6.4831574,4.00379865 5.86528668,3.85291179 5.42335615,4.18253239 C5.03330969,4.47345404 4.66299426,4.78993765 4.31485485,5.12989424 C3.92040638,5.51507377 3.97318604,6.148903 4.39252694,6.50682256 C4.81186843,6.86474212 5.43848617,6.81021219 5.84060665,6.43304265 C6.04292688,6.24328288 6.25391713,6.0629631 6.47288739,5.89268331 C6.9080879,5.55423372 7.05957808,4.94376446 6.77136774,4.47378204 Z" id="Ellipse-135" fill-rule="nonzero"></path>
            <path d="M17.2286346,4.47378204 C17.5168487,4.00379865 18.1347139,3.85291179 18.5766441,4.18253239 C18.9666943,4.47345404 19.3370044,4.78993765 19.6851445,5.12989424 C20.0795947,5.51507377 20.0268147,6.148903 19.6074745,6.50682256 C19.1881343,6.86474212 18.5615141,6.81021219 18.1593939,6.43304265 C17.9570749,6.24328288 17.7460908,6.0629631 17.5271197,5.89268331 C17.0919119,5.55423372 16.9404215,4.94376446 17.2286346,4.47378204 Z" id="Ellipse-200" fill-rule="nonzero"></path>
            <path d="M15.2071105,11.2071101 C15.5976305,10.8165801 15.5976305,10.1834171 15.2071105,9.79289307 C14.8165804,9.40236898 14.1834204,9.40236898 13.7928903,9.79289307 L12.5180402,11.0677401 C12.3528202,11.0235601 12.1791602,11 12,11 C10.8954311,11 10,11.89543 10,13 C10,14.10457 10.8954311,15 12,15 C13.1045703,15 14,14.10457 14,13 C14,12.82084 13.9764403,12.64718 13.9322603,12.48196 L15.2071105,11.2071101 Z" id="Union" fill-rule="nonzero"></path>
            <path d="M10,2 C9.44772,2 9,2.447715 9,3 C9,3.55228 9.44772,4 10,4 L11,4 L11,5.06189 C7.05369,5.55399 4,8.92038 4,13 C4,17.4183 7.58172,21 12,21 C16.4183,21 20,17.4183 20,13 C20,8.92038 16.9463,5.55399 13,5.06189 L13,4 L14,4 C14.5523,4 15,3.55228 15,3 C15,2.447715 14.5523,2 14,2 L10,2 Z M12,19 C15.3137,19 18,16.3137 18,13 C18,9.68629 15.3137,7 12,7 C8.68629,7 6,9.68629 6,13 C6,16.3137 8.68629,19 12,19 Z" id="Union"></path>
        </g>
    </g>
</svg>