<?xml version="1.0" encoding="UTF-8"?>
<svg width="20px" height="14px" viewBox="0 0 20 14" version="1.1" xmlns="http://www.w3.org/2000/svg" xmlns:xlink="http://www.w3.org/1999/xlink">
    <title>UI icon/toggle_on/filled</title>
    <g id="👀-Icons" stroke="none" stroke-width="1" fill="none" fill-rule="evenodd">
        <g id="Subtract" transform="translate(-2.000000, -5.000000)" fill="#6F767E">
            <path d="M2,12 C2,8.13401 5.13401,5 9,5 L15,5 C18.866,5 22,8.13401 22,12 C22,15.866 18.866,19 15,19 L9,19 C5.13401,19 2,15.866 2,12 Z M15,8.5 C13.067,8.5 11.5,10.067 11.5,12 C11.5,13.933 13.067,15.5 15,15.5 C16.933,15.5 18.5,13.933 18.5,12 C18.5,10.067 16.933,8.5 15,8.5 Z"></path>
        </g>
    </g>
</svg>