<?xml version="1.0" encoding="UTF-8"?>
<svg width="20px" height="14px" viewBox="0 0 20 14" version="1.1" xmlns="http://www.w3.org/2000/svg" xmlns:xlink="http://www.w3.org/1999/xlink">
    <title>UI icon/toggle_on/light</title>
    <g id="👀-Icons" stroke="none" stroke-width="1" fill="none" fill-rule="evenodd">
        <g id="编组" transform="translate(-2.000000, -5.000000)" fill="#6F767E">
            <path d="M2,12 C2,8.13401 5.13401,5 9,5 L15,5 C18.866,5 22,8.13401 22,12 C22,15.866 18.866,19 15,19 L9,19 C5.13401,19 2,15.866 2,12 Z M9,7 C6.23858,7 4,9.23858 4,12 C4,14.76142 6.23858,17 9,17 L15,17 C17.7614,17 20,14.76142 20,12 C20,9.23858 17.7614,7 15,7 L9,7 Z" id="Rectangle-259-(Stroke)"></path>
            <path d="M15,10.5 C14.17157,10.5 13.5,11.17157 13.5,12 C13.5,12.82843 14.17157,13.5 15,13.5 C15.82843,13.5 16.5,12.82843 16.5,12 C16.5,11.17157 15.82843,10.5 15,10.5 Z M11.5,12 C11.5,10.067 13.067,8.5 15,8.5 C16.933,8.5 18.5,10.067 18.5,12 C18.5,13.933 16.933,15.5 15,15.5 C13.067,15.5 11.5,13.933 11.5,12 Z" id="Ellipse-202-(Stroke)"></path>
        </g>
    </g>
</svg>