<?xml version="1.0" encoding="UTF-8"?>
<svg width="16px" height="20px" viewBox="0 0 16 20" version="1.1" xmlns="http://www.w3.org/2000/svg" xmlns:xlink="http://www.w3.org/1999/xlink">
    <title>UI icon/lock/filled</title>
    <g id="👀-Icons" stroke="none" stroke-width="1" fill="none" fill-rule="evenodd">
        <g id="Subtract" transform="translate(-4.000000, -2.000000)" fill="#6F767E">
            <path d="M7,7 L7,8 C5.34315,8 4,9.34315 4,11 L4,19 C4,20.6569 5.34315,22 7,22 L17,22 C18.6569,22 20,20.6569 20,19 L20,11 C20,9.34315 18.6569,8 17,8 L17,7 C17,4.23858 14.7614,2 12,2 C9.23858,2 7,4.23858 7,7 Z M12,4 C10.34315,4 9,5.34315 9,7 L9,8 L15,8 L15,7 C15,5.34315 13.65685,4 12,4 Z M14,14 C14,14.7403 13.5978,15.3866 13,15.7324 L13,17 C13,17.5523 12.55228,18 12,18 C11.44772,18 11,17.5523 11,17 L11,15.7324 C10.4022,15.3866 10,14.7403 10,14 C10,12.8954 10.89543,12 12,12 C13.10457,12 14,12.8954 14,14 Z"></path>
        </g>
    </g>
</svg>