<?xml version="1.0" encoding="UTF-8"?>
<svg width="16px" height="20px" viewBox="0 0 16 20" version="1.1" xmlns="http://www.w3.org/2000/svg" xmlns:xlink="http://www.w3.org/1999/xlink">
    <title>UI icon/lock/light</title>
    <g id="👀-Icons" stroke="none" stroke-width="1" fill="none" fill-rule="evenodd">
        <g id="Union" transform="translate(-4.000000, -2.000000)" fill="#6F767E">
            <path d="M13,15.73244 C13.5978,15.38663 14,14.74028 14,14 C14,12.89543 13.10457,12 12,12 C10.89543,12 10,12.89543 10,14 C10,14.74028 10.402199,15.38663 11,15.73244 L11,17 C11,17.55228 11.44772,18 12,18 C12.55228,18 13,17.55228 13,17 L13,15.73244 Z" fill-rule="nonzero"></path>
            <path d="M7,8 L7,7 C7,4.23858 9.23858,2 12,2 C14.7614,2 17,4.23858 17,7 L17,8 C18.6569,8 20,9.34315 20,11 L20,19 C20,20.6569 18.6569,22 17,22 L7,22 C5.34315,22 4,20.6569 4,19 L4,11 C4,9.34315 5.34315,8 7,8 Z M9,7 C9,5.34315 10.34315,4 12,4 C13.65685,4 15,5.34315 15,7 L15,8 L9,8 L9,7 Z M6,11 C6,10.44772 6.44772,10 7,10 L17,10 C17.5523,10 18,10.44772 18,11 L18,19 C18,19.5523 17.5523,20 17,20 L7,20 C6.44772,20 6,19.5523 6,19 L6,11 Z"></path>
        </g>
    </g>
</svg>