<?xml version="1.0" encoding="UTF-8"?>
<svg width="18px" height="20px" viewBox="0 0 18 20" version="1.1" xmlns="http://www.w3.org/2000/svg" xmlns:xlink="http://www.w3.org/1999/xlink">
    <title>UI icon/repeat/light</title>
    <g id="👀-Icons" stroke="none" stroke-width="1" fill="none" fill-rule="evenodd">
        <g id="编组" transform="translate(-3.000000, -2.000000)" fill="#6F767E" fill-rule="nonzero">
            <g id="Union">
                <path d="M16.2071194,2.79295696 C15.8166189,2.40243229 15.1834179,2.40242849 14.7929174,2.79294896 C14.4024168,3.18346942 14.4024168,3.81663592 14.7929174,4.20715438 L15.5819185,4.99620128 L10.0000103,4.99620128 C6.13401461,4.99620128 3,8.13019893 3,11.9961737 L3,12.9962198 C3,13.5484176 3.44771566,13.9962158 4,13.9962158 C4.55228229,13.9962158 5,13.5484176 5,12.9962198 L5,11.9961737 C5,9.23476458 7.23858624,6.9961934 10.0000103,6.9961934 L15.5866185,6.9961934 L14.7929174,7.78996027 C14.4024168,8.18048873 14.4024168,8.81365624 14.7929174,9.2041747 C15.1834179,9.59469316 15.8166189,9.59468316 16.2071194,9.2041547 L18.3520226,7.05920315 C18.9378235,6.47341546 18.9378235,5.5236792 18.3520226,4.93790151 L16.2071194,2.79295696 Z"></path>
                <path d="M13.9984558,19.0000147 C17.8644791,19.0000147 20.9984736,15.8659996 20.9984736,12 L20.9984736,11 C20.9984736,10.4477157 20.5507744,10 19.9984754,10 C19.4461763,10 18.9984771,10.4477157 18.9984771,11 L18.9984771,12 C18.9984771,14.7614278 16.759881,17.0000114 13.9984558,17.0000114 L8.41176542,17.0000114 L9.20558405,16.2061801 C9.59610338,15.8156495 9.59609338,15.1824885 9.20556405,14.7919678 C8.81503473,14.4014472 8.18187582,14.4014472 7.7913565,14.7919778 L5.64643021,16.9369513 C5.06065622,17.5227323 5.06065922,18.4724738 5.64643421,19.0582548 L7.7913565,21.2032183 C8.18187582,21.5937189 8.81504473,21.5937189 9.20557405,21.2032183 C9.59609338,20.8127176 9.59610338,20.1795166 9.20557405,19.789006 L8.41659542,19.0000147 L13.9984558,19.0000147 Z"></path>
            </g>
        </g>
    </g>
</svg>