<?xml version="1.0" encoding="UTF-8"?>
<svg width="20px" height="16px" viewBox="0 0 20 16" version="1.1" xmlns="http://www.w3.org/2000/svg" xmlns:xlink="http://www.w3.org/1999/xlink">
    <title>UI icon/cast/filled</title>
    <g id="👀-Icons" stroke="none" stroke-width="1" fill="none" fill-rule="evenodd">
        <g id="编组" transform="translate(-2.000000, -4.000000)" fill="#6F767E">
            <path d="M5,4 C3.34315,4 2,5.34315 2,7 L2,8.67934 C2,9.16463 2.51471,9.5 3,9.5 L3,9.5 C8.24671,9.5 12.5,13.75329 12.5,19 L12.5,19 C12.5,19.4853 12.8354,20 13.3207,20 L19,20 C20.6569,20 22,18.6569 22,17 L22,7 C22,5.34315 20.6569,4 19,4 L5,4 Z" id="Subtract" fill-rule="nonzero"></path>
            <path d="M2,12 C2,11.447715 2.447715,11 3,11 C7.41828,11 11,14.58172 11,19 C11,19.55228 10.55228,20 10,20 C9.44771,20 9,19.55228 9,19 C9,15.68629 6.31371,13 3,13 C2.447715,13 2,12.55228 2,12 Z" id="Ellipse-30-(Stroke)"></path>
            <path d="M2,15.5 C2,14.947715 2.447715,14.5 3,14.5 C5.48528,14.5 7.5,16.51472 7.5,19 C7.5,19.55228 7.05228,20 6.5,20 C5.94772,20 5.5,19.55228 5.5,19 C5.5,17.61929 4.38071,16.5 3,16.5 C2.447715,16.5 2,16.05228 2,15.5 Z" id="Ellipse-29-(Stroke)"></path>
            <path d="M4,19 C4,19.55228 3.55228,20 3,20 C2.447715,20 2,19.55228 2,19 C2,18.447715 2.447715,18 3,18 C3.55228,18 4,18.447715 4,19 Z" id="Ellipse-28" fill-rule="nonzero"></path>
        </g>
    </g>
</svg>