<?xml version="1.0" encoding="UTF-8"?>
<svg width="20px" height="16px" viewBox="0 0 20 16" version="1.1" xmlns="http://www.w3.org/2000/svg" xmlns:xlink="http://www.w3.org/1999/xlink">
    <title>UI icon/cast/light</title>
    <g id="👀-Icons" stroke="none" stroke-width="1" fill="none" fill-rule="evenodd">
        <g id="编组" transform="translate(-2.000000, -4.000000)" fill="#6F767E">
            <path d="M2,7 C2,5.34315 3.34315,4 5,4 L19,4 C20.6569,4 22,5.34315 22,7 L22,17 C22,18.6569 20.6569,20 19,20 L13.5,20 C12.9477,20 12.5,19.5523 12.5,19 C12.5,18.4477 12.9477,18 13.5,18 L19,18 C19.5523,18 20,17.5523 20,17 L20,7 C20,6.44772 19.5523,6 19,6 L5,6 C4.44772,6 4,6.44772 4,7 L4,8.5 C4,9.05228 3.55228,9.5 3,9.5 C2.447715,9.5 2,9.05228 2,8.5 L2,7 Z" id="Rectangle-259-(Stroke)"></path>
            <path d="M4,19 C4,19.55228 3.55228,20 3,20 C2.447715,20 2,19.55228 2,19 C2,18.447715 2.447715,18 3,18 C3.55228,18 4,18.447715 4,19 Z" id="Ellipse-28" fill-rule="nonzero"></path>
            <path d="M2,15.5 C2,14.947715 2.447715,14.5 3,14.5 C5.48528,14.5 7.5,16.51472 7.5,19 C7.5,19.55228 7.05228,20 6.5,20 C5.94772,20 5.5,19.55228 5.5,19 C5.5,17.61929 4.38071,16.5 3,16.5 C2.447715,16.5 2,16.05228 2,15.5 Z" id="Ellipse-29-(Stroke)"></path>
            <path d="M2,12 C2,11.447715 2.447715,11 3,11 C7.41828,11 11,14.58172 11,19 C11,19.55228 10.55228,20 10,20 C9.44771,20 9,19.55228 9,19 C9,15.68629 6.31371,13 3,13 C2.447715,13 2,12.55228 2,12 Z" id="Ellipse-30-(Stroke)"></path>
        </g>
    </g>
</svg>