<?xml version="1.0" encoding="UTF-8"?>
<svg width="20px" height="21px" viewBox="0 0 20 21" version="1.1" xmlns="http://www.w3.org/2000/svg" xmlns:xlink="http://www.w3.org/1999/xlink">
    <title>UI icon/umbrella/filled</title>
    <g id="👀-Icons" stroke="none" stroke-width="1" fill="none" fill-rule="evenodd">
        <g id="编组" transform="translate(-2.000000, -1.000000)" fill="#6F767E" fill-rule="nonzero">
            <g id="Union">
                <path d="M11.9999877,1 C12.5522671,1 12.9999667,1.447715 12.9999667,2 L12.9999667,3.04939 C17.7248619,3.51855 21.4821581,7.27636 21.9506576,12.0014 C22.0051575,12.551 21.552158,13 20.9998586,13 L12.9999667,13 L12.9999667,19 C12.9999667,20.6569 11.656848,22 9.99998969,22 C8.34314136,22 6.99999272,20.6569 6.99999272,19 L6.99999272,18 C6.99999272,17.4477 7.44771227,17 7.99999171,17 C8.55228115,17 8.9999907,17.4477 8.9999907,18 L8.9999907,19 C8.9999907,19.5523 9.44771024,20 9.99998969,20 C10.5522791,20 10.9999887,19.5523 10.9999887,19 L10.9999887,13 L2.99989377,13 C2.44760932,13 1.99464238,12.551 2.04913114,12.0014 C2.51759925,7.27629 6.27506345,3.51843 10.9999887,3.04936 L10.9999887,2 C10.9999887,1.447715 11.4477082,1 11.9999877,1 Z"></path>
            </g>
        </g>
    </g>
</svg>