<?xml version="1.0" encoding="UTF-8"?>
<svg width="20px" height="21px" viewBox="0 0 20 21" version="1.1" xmlns="http://www.w3.org/2000/svg" xmlns:xlink="http://www.w3.org/1999/xlink">
    <title>UI icon/umbrella/light</title>
    <g id="👀-Icons" stroke="none" stroke-width="1" fill="none" fill-rule="evenodd">
        <g id="Union" transform="translate(-2.000000, -1.000000)" fill="#6F767E">
            <path d="M12.9999998,2 C12.9999998,1.447715 12.5522998,1 11.9999998,1 C11.4477198,1 10.9999998,1.447715 10.9999998,2 L10.9999998,3.04938 C6.2751198,3.5185 2.5177178,7.27633 2.04925321,12.0014 C1.9947644,12.551 2.4477318,13 3.0000168,13 L10.9999998,13 L10.9999998,19 C10.9999998,19.5523 10.5522798,20 9.9999998,20 C9.4477198,20 8.9999998,19.5523 8.9999998,19 L8.9999998,18 C8.9999998,17.4477 8.5522798,17 7.9999998,17 C7.4477198,17 6.9999998,17.4477 6.9999998,18 L6.9999998,19 C6.9999998,20.6569 8.3431498,22 9.9999998,22 C11.6568498,22 12.9999998,20.6569 12.9999998,19 L12.9999998,13 L20.9999998,13 C21.5522998,13 22.0052998,12.551 21.9507998,12.0014 C21.4822998,7.27632 17.7248998,3.51848 12.9999998,3.04937 L12.9999998,2 Z M19.7483998,11 C18.8608998,7.55022 15.7272998,5 12.0000198,5 C8.2727698,5 5.1391698,7.55022 4.2516598,11 L19.7483998,11 Z"></path>
        </g>
    </g>
</svg>