<?xml version="1.0" encoding="UTF-8"?>
<svg width="22px" height="19px" viewBox="0 0 22 19" version="1.1" xmlns="http://www.w3.org/2000/svg" xmlns:xlink="http://www.w3.org/1999/xlink">
    <title>UI icon/laptop/filled</title>
    <g id="👀-Icons" stroke="none" stroke-width="1" fill="none" fill-rule="evenodd">
        <g id="编组" transform="translate(-1.000000, -3.000000)" fill="#6F767E">
            <path d="M2,6 C2,4.34315 3.34315,3 5,3 L19,3 C20.6569,3 22,4.34315 22,6 L22,15 C22,16.6569 20.6569,18 19,18 L5,18 C3.34315,18 2,16.6569 2,15 L2,6 Z" id="Rectangle-188" fill-rule="nonzero"></path>
            <path d="M1,20.5 C1,19.947715 1.447715,19.5 2,19.5 L22,19.5 C22.5523,19.5 23,19.947715 23,20.5 C23,21.05228 22.5523,21.5 22,21.5 L2,21.5 C1.447715,21.5 1,21.05228 1,20.5 Z" id="Vector-20-(Stroke)"></path>
        </g>
    </g>
</svg>