<?xml version="1.0" encoding="UTF-8"?>
<svg width="22px" height="18px" viewBox="0 0 22 18" version="1.1" xmlns="http://www.w3.org/2000/svg" xmlns:xlink="http://www.w3.org/1999/xlink">
    <title>UI icon/laptop/light</title>
    <g id="👀-Icons" stroke="none" stroke-width="1" fill="none" fill-rule="evenodd">
        <g id="编组" transform="translate(-1.000000, -3.000000)" fill="#6F767E">
            <path d="M19,5 L5,5 C4.44772,5 4,5.44772 4,6 L4,15 C4,15.5523 4.44772,16 5,16 L19,16 C19.5523,16 20,15.5523 20,15 L20,6 C20,5.44771 19.5523,5 19,5 Z M5,3 C3.34315,3 2,4.34315 2,6 L2,15 C2,16.6569 3.34315,18 5,18 L19,18 C20.6569,18 22,16.6569 22,15 L22,6 C22,4.34315 20.6569,3 19,3 L5,3 Z" id="Rectangle-188-(Stroke)"></path>
            <path d="M1,20 C1,19.447715 1.447715,19 2,19 L22,19 C22.5523,19 23,19.447715 23,20 C23,20.55228 22.5523,21 22,21 L2,21 C1.447715,21 1,20.55228 1,20 Z" id="Vector-20-(Stroke)"></path>
        </g>
    </g>
</svg>