<?xml version="1.0" encoding="UTF-8"?>
<svg width="14px" height="20px" viewBox="0 0 14 20" version="1.1" xmlns="http://www.w3.org/2000/svg" xmlns:xlink="http://www.w3.org/1999/xlink">
    <title>UI icon/mouse/filled</title>
    <g id="👀-Icons" stroke="none" stroke-width="1" fill="none" fill-rule="evenodd">
        <g id="Subtract" transform="translate(-5.000000, -2.000000)" fill="#6F767E">
            <path d="M12,2 C8.13401,2 5,5.13401 5,9 L5,15 C5,18.866 8.13401,22 12,22 C15.866,22 19,18.866 19,15 L19,9 C19,5.13401 15.866,2 12,2 Z M13,7 C13,6.44772 12.55228,6 12,6 C11.44772,6 11,6.44771 11,7 L11,10 C11,10.55228 11.44771,11 12,11 C12.55228,11 13,10.55229 13,10 L13,7 Z"></path>
        </g>
    </g>
</svg>