<?xml version="1.0" encoding="UTF-8"?>
<svg width="14px" height="20px" viewBox="0 0 14 20" version="1.1" xmlns="http://www.w3.org/2000/svg" xmlns:xlink="http://www.w3.org/1999/xlink">
    <title>UI icon/mouse/light</title>
    <g id="👀-Icons" stroke="none" stroke-width="1" fill="none" fill-rule="evenodd">
        <g id="编组" transform="translate(-5.000000, -2.000000)" fill="#6F767E">
            <path d="M17,15 L17,9 C17,6.23858 14.76142,4 12,4 C9.23858,4 7,6.23858 7,9 L7,15 C7,17.7614 9.23858,20 12,20 C14.76142,20 17,17.7614 17,15 Z M12,2 C8.13401,2 5,5.13401 5,9 L5,15 C5,18.866 8.13401,22 12,22 C15.866,22 19,18.866 19,15 L19,9 C19,5.13401 15.866,2 12,2 Z" id="Rectangle-259-(Stroke)"></path>
            <path d="M9.49999996,8.50000011 C9.49999996,7.94771527 9.94771496,7.50000011 10.5,7.50000011 L13.5,7.50000011 C14.05229,7.50000011 14.5,7.94771627 14.5,8.50000011 C14.5,9.05229066 14.05228,9.50000011 13.5,9.50000011 L10.5,9.50000011 C9.94771496,9.50000011 9.49999996,9.05228066 9.49999996,8.50000011 Z" id="Vector-479-(Stroke)" transform="translate(12.000000, 8.500000) rotate(90.000003) translate(-12.000000, -8.500000) "></path>
        </g>
    </g>
</svg>