<?xml version="1.0" encoding="UTF-8"?>
<svg width="14px" height="20px" viewBox="0 0 14 20" version="1.1" xmlns="http://www.w3.org/2000/svg" xmlns:xlink="http://www.w3.org/1999/xlink">
    <title>UI icon/spray/filled</title>
    <g id="👀-Icons" stroke="none" stroke-width="1" fill="none" fill-rule="evenodd">
        <g id="编组" transform="translate(-6.000000, -2.000000)" fill="#6F767E" fill-rule="nonzero">
            <g>
                <rect id="Rectangle-259" x="6" y="8" width="10" height="14" rx="3"></rect>
                <path d="M9,4 C9,3.447715 9.447715,3 10,3 L12,3 C12.55228,3 13,3.447715 13,4 L13,6 C13,6.27614 12.77614,6.5 12.5,6.5 L9.5,6.5 C9.223858,6.5 9,6.27614 9,6 L9,4 Z" id="Rectangle-260"></path>
                <path d="M17,5 C17,5.55228 16.55228,6 16,6 C15.44772,6 15,5.55228 15,5 C15,4.44771 15.44772,4 16,4 C16.55228,4 17,4.44771 17,5 Z" id="Ellipse-201"></path>
                <path d="M20,3 C20,3.55228 19.55228,4 19,4 C18.44771,4 18,3.55228 18,3 C18,2.44772 18.44771,2 19,2 C19.55228,2 20,2.44772 20,3 Z" id="Ellipse-202"></path>
                <path d="M20,7 C20,7.55228 19.55228,8 19,8 C18.44771,8 18,7.55228 18,7 C18,6.44771 18.44771,6 19,6 C19.55228,6 20,6.44771 20,7 Z" id="Ellipse-203"></path>
            </g>
        </g>
    </g>
</svg>