<?xml version="1.0" encoding="UTF-8"?>
<svg width="16px" height="20px" viewBox="0 0 16 20" version="1.1" xmlns="http://www.w3.org/2000/svg" xmlns:xlink="http://www.w3.org/1999/xlink">
    <title>UI icon/spray/light</title>
    <g id="👀-Icons" stroke="none" stroke-width="1" fill="none" fill-rule="evenodd">
        <g id="编组" transform="translate(-5.000000, -2.000000)" fill="#6F767E">
            <path d="M8,7 L8,4 C8,3.447715 8.44772,3 9,3 L13,3 C13.55228,3 14,3.447715 14,4 L14,7 C15.6569,7 17,8.34315 17,10 L17,19 C17,20.6569 15.6569,22 14,22 L8,22 C6.34315,22 5,20.6569 5,19 L5,10 C5,8.34315 6.34315,7 8,7 Z M10,7 L10,5 L12,5 L12,7 L10,7 Z M14,9 L8,9 C7.44772,9 7,9.44772 7,10 L7,19 C7,19.5523 7.44772,20 8,20 L14,20 C14.55229,20 15,19.5523 15,19 L15,10 C15,9.44772 14.55228,9 14,9 Z" id="Union"></path>
            <path d="M18,5 C18,5.55228 17.55228,6 17,6 C16.447715,6 16,5.55228 16,5 C16,4.447715 16.447715,4 17,4 C17.55228,4 18,4.447715 18,5 Z" id="Ellipse-201" fill-rule="nonzero"></path>
            <path d="M21,3 C21,3.55228 20.55228,4 20,4 C19.447715,4 19,3.55228 19,3 C19,2.447715 19.447715,2 20,2 C20.55228,2 21,2.447715 21,3 Z" id="Ellipse-202" fill-rule="nonzero"></path>
            <path d="M21,7 C21,7.55228 20.55228,8 20,8 C19.447715,8 19,7.55228 19,7 C19,6.447715 19.447715,6 20,6 C20.55228,6 21,6.447715 21,7 Z" id="Ellipse-203" fill-rule="nonzero"></path>
        </g>
    </g>
</svg>