<?xml version="1.0" encoding="UTF-8"?>
<svg width="20px" height="14px" viewBox="0 0 20 14" version="1.1" xmlns="http://www.w3.org/2000/svg" xmlns:xlink="http://www.w3.org/1999/xlink">
    <title>UI icon/keyboard/filled</title>
    <g id="👀-Icons" stroke="none" stroke-width="1" fill="none" fill-rule="evenodd">
        <g id="Subtract" transform="translate(-2.000000, -5.000000)" fill="#6F767E">
            <path d="M5,5 C3.34315,5 2,6.34315 2,8 L2,16 C2,17.6569 3.34315,19 5,19 L19,19 C20.6569,19 22,17.6569 22,16 L22,8 C22,6.34315 20.6569,5 19,5 L5,5 Z M5,11 C4.44772,11 4,11.44772 4,12 C4,12.55228 4.44772,13 5,13 C5.55228,13 6,12.55228 6,12 C6,11.44772 5.55228,11 5,11 Z M7.5,12 C7.5,11.44772 7.94772,11 8.5,11 C9.05228,11 9.5,11.44772 9.5,12 C9.5,12.55228 9.05228,13 8.5,13 C7.94772,13 7.5,12.55228 7.5,12 Z M12,11 C11.44772,11 11,11.44772 11,12 C11,12.55228 11.44772,13 12,13 C12.5523,13 13,12.55228 13,12 C13,11.44772 12.5523,11 12,11 Z M14.5,12 C14.5,11.44772 14.9477,11 15.5,11 C16.0523,11 16.5,11.44772 16.5,12 C16.5,12.55228 16.0523,13 15.5,13 C14.9477,13 14.5,12.55228 14.5,12 Z M19,11 C18.4477,11 18,11.44772 18,12 C18,12.55228 18.4477,13 19,13 C19.5523,13 20,12.55228 20,12 C20,11.44772 19.5523,11 19,11 Z M7.5,15.5 C7.5,14.94771 7.94772,14.5 8.5,14.5 L15.5,14.5 C16.0523,14.5 16.5,14.94771 16.5,15.5 C16.5,16.0523 16.0523,16.5 15.5,16.5 L8.5,16.5 C7.94772,16.5 7.5,16.0523 7.5,15.5 Z M5,14.5 C4.44772,14.5 4,14.94772 4,15.5 C4,16.0523 4.44772,16.5 5,16.5 C5.55228,16.5 6,16.0523 6,15.5 C6,14.94772 5.55228,14.5 5,14.5 Z M18,15.5 C18,14.94772 18.4477,14.5 19,14.5 C19.5523,14.5 20,14.94772 20,15.5 C20,16.0523 19.5523,16.5 19,16.5 C18.4477,16.5 18,16.0523 18,15.5 Z M5,7.5 C4.44772,7.5 4,7.94772 4,8.5 C4,9.05228 4.44772,9.5 5,9.5 C5.55228,9.5 6,9.05228 6,8.5 C6,7.94772 5.55228,7.5 5,7.5 Z M7.5,8.5 C7.5,7.94772 7.94772,7.5 8.5,7.5 C9.05228,7.5 9.5,7.94772 9.5,8.5 C9.5,9.05228 9.05228,9.5 8.5,9.5 C7.94772,9.5 7.5,9.05228 7.5,8.5 Z M12,7.5 C11.44772,7.5 11,7.94772 11,8.5 C11,9.05228 11.44772,9.5 12,9.5 C12.5523,9.5 13,9.05228 13,8.5 C13,7.94772 12.5523,7.5 12,7.5 Z M14.5,8.5 C14.5,7.94772 14.9477,7.5 15.5,7.5 C16.0523,7.5 16.5,7.94772 16.5,8.5 C16.5,9.05228 16.0523,9.5 15.5,9.5 C14.9477,9.5 14.5,9.05228 14.5,8.5 Z M19,7.5 C18.4477,7.5 18,7.94772 18,8.5 C18,9.05228 18.4477,9.5 19,9.5 C19.5523,9.5 20,9.05228 20,8.5 C20,7.94772 19.5523,7.5 19,7.5 Z"></path>
        </g>
    </g>
</svg>