<?xml version="1.0" encoding="UTF-8"?>
<svg width="20px" height="14px" viewBox="0 0 20 14" version="1.1" xmlns="http://www.w3.org/2000/svg" xmlns:xlink="http://www.w3.org/1999/xlink">
    <title>UI icon/keyboard/light</title>
    <g id="👀-Icons" stroke="none" stroke-width="1" fill="none" fill-rule="evenodd">
        <g id="编组" transform="translate(-2.000000, -5.000000)" fill="#6F767E">
            <path d="M19,7 L5,7 C4.44772,7 4,7.44772 4,8 L4,16 C4,16.5523 4.44772,17 5,17 L19,17 C19.5523,17 20,16.5523 20,16 L20,8 C20,7.44772 19.5523,7 19,7 Z M5,5 C3.34315,5 2,6.34315 2,8 L2,16 C2,17.6569 3.34315,19 5,19 L19,19 C20.6569,19 22,17.6569 22,16 L22,8 C22,6.34315 20.6569,5 19,5 L5,5 Z" id="Rectangle-(Stroke)"></path>
            <path d="M8,15 C8,14.447715 8.447715,14 9,14 L15,14 C15.55228,14 16,14.447715 16,15 C16,15.55228 15.55228,16 15,16 L9,16 C8.447715,16 8,15.55228 8,15 Z" id="Vector-141-(Stroke)"></path>
            <path d="M5,9 C5,8.447715 5.447715,8 6,8 L6,8 C6.55228,8 7,8.447715 7,9 L7,9 C7,9.55228 6.55228,10 6,10 L6,10 C5.447715,10 5,9.55228 5,9 L5,9 Z" id="Rectangle-330" fill-rule="nonzero"></path>
            <path d="M5,12 C5,11.447715 5.447715,11 6,11 L6,11 C6.55228,11 7,11.447715 7,12 L7,12 C7,12.55228 6.55228,13 6,13 L6,13 C5.447715,13 5,12.55228 5,12 L5,12 Z" id="Rectangle-334" fill-rule="nonzero"></path>
            <path d="M8,12 C8,11.447715 8.447715,11 9,11 L9,11 C9.55228,11 10,11.447715 10,12 L10,12 C10,12.55228 9.55228,13 9,13 L9,13 C8.447715,13 8,12.55228 8,12 L8,12 Z" id="Rectangle-337" fill-rule="nonzero"></path>
            <path d="M11,12 C11,11.447715 11.447715,11 12,11 L12,11 C12.55228,11 13,11.447715 13,12 L13,12 C13,12.55228 12.55228,13 12,13 L12,13 C11.447715,13 11,12.55228 11,12 L11,12 Z" id="Rectangle-338" fill-rule="nonzero"></path>
            <path d="M14,12 C14,11.447715 14.447715,11 15,11 L15,11 C15.55228,11 16,11.447715 16,12 L16,12 C16,12.55228 15.55228,13 15,13 L15,13 C14.447715,13 14,12.55228 14,12 L14,12 Z" id="Rectangle-339" fill-rule="nonzero"></path>
            <path d="M17,12 C17,11.447715 17.447715,11 18,11 L18,11 C18.55228,11 19,11.447715 19,12 L19,12 C19,12.55228 18.55228,13 18,13 L18,13 C17.447715,13 17,12.55228 17,12 L17,12 Z" id="Rectangle-340" fill-rule="nonzero"></path>
            <path d="M5,15 C5,14.447715 5.447715,14 6,14 L6,14 C6.55228,14 7,14.447715 7,15 L7,15 C7,15.55228 6.55228,16 6,16 L6,16 C5.447715,16 5,15.55228 5,15 L5,15 Z" id="Rectangle-335" fill-rule="nonzero"></path>
            <path d="M17,15 C17,14.447715 17.447715,14 18,14 L18,14 C18.55228,14 19,14.447715 19,15 L19,15 C19,15.55228 18.55228,16 18,16 L18,16 C17.447715,16 17,15.55228 17,15 L17,15 Z" id="Rectangle-341" fill-rule="nonzero"></path>
            <path d="M8,9 C8,8.447715 8.447715,8 9,8 L9,8 C9.55228,8 10,8.447715 10,9 L10,9 C10,9.55228 9.55228,10 9,10 L9,10 C8.447715,10 8,9.55228 8,9 L8,9 Z" id="Rectangle-331" fill-rule="nonzero"></path>
            <path d="M11,9 C11,8.447715 11.447715,8 12,8 L12,8 C12.55228,8 13,8.447715 13,9 L13,9 C13,9.55228 12.55228,10 12,10 L12,10 C11.447715,10 11,9.55228 11,9 L11,9 Z" id="Rectangle-332" fill-rule="nonzero"></path>
            <path d="M14,9 C14,8.447715 14.447715,8 15,8 L15,8 C15.55228,8 16,8.447715 16,9 L16,9 C16,9.55228 15.55228,10 15,10 L15,10 C14.447715,10 14,9.55228 14,9 L14,9 Z" id="Rectangle-333" fill-rule="nonzero"></path>
            <path d="M17,9 C17,8.447715 17.447715,8 18,8 L18,8 C18.55228,8 19,8.447715 19,9 L19,9 C19,9.55228 18.55228,10 18,10 L18,10 C17.447715,10 17,9.55228 17,9 L17,9 Z" id="Rectangle-336" fill-rule="nonzero"></path>
        </g>
    </g>
</svg>