<?xml version="1.0" encoding="UTF-8"?>
<svg width="20px" height="20px" viewBox="0 0 20 20" version="1.1" xmlns="http://www.w3.org/2000/svg" xmlns:xlink="http://www.w3.org/1999/xlink">
    <title>UI icon/mission/filled</title>
    <g id="👀-Icons" stroke="none" stroke-width="1" fill="none" fill-rule="evenodd">
        <g id="编组" transform="translate(-2.000000, -2.000000)" fill="#6F767E" fill-rule="nonzero">
            <g id="Union">
                <path d="M7,3 C7,2.44771543 7.44772,2 8,2 L14,2 C14.3466,2 14.6684,2.17945217 14.8507,2.47426945 C15.0329,2.76908573 15.0494,3.13723108 14.8944,3.44721138 L14.118,5 L14.8944,6.55279434 C15.0494,6.86277464 15.0329,7.23091499 14.8507,7.52573527 C14.6684,7.82055555 14.3466,8 14,8 L9,8 L9,9.82932747 C9.2787,9.95083758 9.53977,10.1255877 9.76777,10.353578 L14,14.585812 L15.2322,13.3536108 C16.2085,12.3773099 17.7915,12.3773099 18.7678,13.3536108 L21.4142,16.0000134 C21.7893,16.3751137 22,16.8838142 22,17.4142147 L22,20.0000172 C22,21.1046182 21.1046,22.0000191 20,22.0000191 L4,22.0000191 C2.895431,22.0000191 2,21.1046182 2,20.0000172 L2,15.4142128 C2,14.8838123 2.210714,14.3751118 2.585786,14.0000114 L6.23223,10.353578 C6.46023,10.1255877 6.7213,9.95083758 7,9.82932747 L7,3 Z"></path>
            </g>
        </g>
    </g>
</svg>