<?xml version="1.0" encoding="UTF-8"?>
<svg width="20px" height="20px" viewBox="0 0 20 20" version="1.1" xmlns="http://www.w3.org/2000/svg" xmlns:xlink="http://www.w3.org/1999/xlink">
    <title>UI icon/mission/light</title>
    <g id="👀-Icons" stroke="none" stroke-width="1" fill="none" fill-rule="evenodd">
        <g id="Union" transform="translate(-2.000000, -2.000000)" fill="#6F767E">
            <path d="M8,2 C7.44772,2 7,2.447715 7,3 L7,9.9992 C6.59055,10.14361 6.20617,10.37955 5.87868,10.70705 L2.585786,13.9999 C2.210714,14.375 2,14.8837 2,15.4142 L2,19.9999 C2,21.1045 2.895432,21.9999 4,21.9999 L20,21.9999 C21.1046,21.9999 22,21.1045 22,19.9999 L22,17.4142 C22,16.8837 21.7893,16.375 21.4142,15.9999 L19.1213,13.7071 C17.9497,12.5355 16.0503,12.5355 14.8787,13.7071 L14,14.5857 L10.12132,10.70705 C9.79383,10.37956 9.40945,10.14361 9,9.9992 L9,8 L14,8 C14.3466,8 14.6684,7.82055 14.8507,7.52573 C15.0329,7.23091 15.0494,6.86277 14.8944,6.55279 L14.118,5 L14.8944,3.44721 C15.0494,3.13723 15.0329,2.769085 14.8507,2.474269 C14.6684,2.179452 14.3466,2 14,2 L8,2 Z M12.382,6 L9,6 L9,4 L12.382,4 L12.1056,4.55279 C11.96481,4.83431 11.96481,5.16569 12.1056,5.44721 L12.382,6 Z M4,15.4142 L7.29289,12.1213 C7.68342,11.73074 8.31658,11.73074 8.70711,12.1213 L13.2929,16.707 C13.6834,17.0976 14.3166,17.0976 14.7071,16.707 L16.2929,15.1213 C16.6834,14.7307 17.3166,14.7307 17.7071,15.1213 L20,17.4142 L20,19.9999 L4,19.9999 L4,15.4142 Z"></path>
        </g>
    </g>
</svg>