<?xml version="1.0" encoding="UTF-8"?>
<svg width="20px" height="20px" viewBox="0 0 20 20" version="1.1" xmlns="http://www.w3.org/2000/svg" xmlns:xlink="http://www.w3.org/1999/xlink">
    <title>UI icon/donut_chart/filled</title>
    <g id="👀-Icons" stroke="none" stroke-width="1" fill="none" fill-rule="evenodd">
        <g id="编组" transform="translate(-2.000000, -2.000000)" fill="#6F767E" fill-rule="nonzero">
            <g>
                <path d="M10.9999959,4.99999913 C10.9999959,4.44771417 10.5509235,3.99425521 10.002043,4.05549367 C8.57508164,4.21470019 7.20175038,4.71370815 5.99986928,5.51677809 C4.51982792,6.50570801 3.36627686,7.91131789 2.68508424,9.55584776 C2.00389518,11.2003876 1.82566545,13.0099875 2.17293277,14.7558373 C2.52019908,16.5016372 3.37736687,18.1053371 4.63603803,19.363937 C5.89471918,20.6226368 7.49836065,21.4798368 9.24419226,21.8270368 C10.9900239,22.1743367 12.7996055,21.9961367 14.444207,21.3149368 C16.0887085,20.6337368 17.4943098,19.4801369 18.4832107,18.0001371 C19.2863115,16.7982372 19.7853119,15.4249373 19.9445121,13.9979574 C20.0057121,13.4490774 19.5523117,12.9999975 19.0000112,12.9999975 L15.0079075,12.9999975 C14.455607,12.9999975 14.0234066,13.4596474 13.8432065,13.9816974 C13.7596064,14.2239374 13.6449063,14.4557374 13.5010062,14.6711373 C13.1705059,15.1657373 12.7007054,15.5512373 12.1511049,15.7789372 C11.6014544,16.0066372 10.9966739,16.0661372 10.4131933,15.9501372 C9.82972279,15.8340372 9.2937623,15.5475373 8.87310192,15.1269373 C8.45244153,14.7062373 8.16597127,14.1702374 8.04991116,13.5868074 C7.93385105,13.0033375 7.99341111,12.3985475 8.22107132,11.8489276 C8.44873153,11.2993076 8.83426188,10.8295377 9.32891233,10.4990277 C9.54426253,10.3551377 9.77608274,10.2404477 10.018313,10.1568177 C10.5403534,9.97656772 10.9999959,9.54438776 10.9999959,8.9921078 L10.9999959,4.99999913 Z" id="Ellipse-196"></path>
                <path d="M20.999999,10.9999998 C21.552292,10.9999998 22.0057422,10.5509299 21.9445022,10.0020501 C21.8508621,9.16275037 21.639362,8.33913065 21.3149219,7.55585091 C20.8626218,6.46392127 20.1996915,5.4717616 19.3639613,4.63604188 C18.528231,3.80031215 17.5360806,3.13737237 16.4441502,2.68508352 C15.66087,2.36063763 14.8372497,2.1491403 13.9979494,2.0554984 C13.4490702,1.99425895 12.999999,2.4477146 12.999999,2.99999942 L12.999999,6.99210109 C12.999999,7.54439091 13.4596422,7.97656077 13.9816854,8.15681071 C14.0387094,8.1765007 14.0951994,8.19792069 14.1510694,8.22107068 C14.5160096,8.37223063 14.8475897,8.59379056 15.1268998,8.87309047 C15.4062099,9.15240038 15.62777,9.48399027 15.77893,9.84893014 C15.80208,9.90480013 15.8235,9.96129011 15.84319,10.0183101 C16.0234401,10.5403499 16.4556102,10.9999998 17.0078904,10.9999998 L20.999999,10.9999998 Z" id="Ellipse-197"></path>
            </g>
        </g>
    </g>
</svg>