<?xml version="1.0" encoding="UTF-8"?>
<svg width="20px" height="20px" viewBox="0 0 20 20" version="1.1" xmlns="http://www.w3.org/2000/svg" xmlns:xlink="http://www.w3.org/1999/xlink">
    <title>UI icon/donut_chart/light</title>
    <g id="👀-Icons" stroke="none" stroke-width="1" fill="none" fill-rule="evenodd">
        <g id="编组" transform="translate(-2.000000, -2.000000)" fill="#6F767E">
            <path d="M8.99999637,6.29179821 C8.33308561,6.49062821 7.69593561,6.78887821 7.11100561,7.17970821 C5.95986561,7.94887821 5.06265561,9.04213821 4.53284561,10.3212182 C4.00302561,11.6002982 3.86440561,13.0077682 4.13450561,14.3656382 C4.40459561,15.7235382 5.07128561,16.9707382 6.05025561,17.9497382 C7.02921561,18.9287382 8.27649561,19.5954382 9.63436561,19.8655382 C10.9922356,20.1356382 12.3996956,19.9969382 13.6787956,19.4671382 C14.9578956,18.9373382 16.0510956,18.0401382 16.8202956,16.8890382 C17.2110956,16.3040382 17.5093956,15.6669382 17.7081956,15.0000382 L15.5911956,15.0000382 C15.4727956,15.2717382 15.3300956,15.5335382 15.1638956,15.7822382 C14.6135956,16.6057382 13.8314956,17.2476382 12.9163956,17.6267382 C12.0013956,18.0057382 10.9944456,18.1049382 10.0230056,17.9116382 C9.05157561,17.7184382 8.15924561,17.2414382 7.45888561,16.5411382 C6.75851561,15.8407382 6.28156561,14.9484382 6.08833561,13.9769882 C5.89509561,13.0055582 5.99427561,11.9986382 6.37330561,11.0835582 C6.75234561,10.1684882 7.39421561,9.38635821 8.21776561,8.83608821 C8.46642561,8.66993821 8.72830561,8.52716821 8.99999637,8.40880821 L8.99999637,6.29179821 Z M10.0020356,4.05549367 C10.5509156,3.99425521 10.9999959,4.44771421 10.9999959,4.99999921 L10.9999959,8.99210821 C10.9999959,9.54438821 10.5403456,9.97656821 10.0183056,10.1568182 C9.77607561,10.2404482 9.54425561,10.3551382 9.32890561,10.4990282 C8.83425561,10.8295382 8.44872561,11.2993082 8.22106561,11.8489282 C7.99340561,12.3985482 7.93384561,13.0033382 8.04990561,13.5868082 C8.16596561,14.1702382 8.45243561,14.7062382 8.87309561,15.1269382 C9.29375561,15.5475382 9.82971561,15.8340382 10.4131856,15.9501382 C10.9966656,16.0661382 11.6014456,16.0066382 12.1510956,15.7789382 C12.7006956,15.5512382 13.1704956,15.1657382 13.5009956,14.6711382 C13.6448956,14.4557382 13.7595956,14.2239382 13.8431956,13.9816982 C14.0233956,13.4596482 14.4555956,12.9999982 15.0078956,12.9999982 L18.9999959,12.9999982 C19.5522956,12.9999982 20.0056956,13.4490782 19.9444956,13.9979582 C19.7852956,15.4249382 19.2862956,16.7982382 18.4831956,18.0001382 C17.4942956,19.4801382 16.0886956,20.6337382 14.4441956,21.3149382 C12.7995956,21.9961382 10.9900156,22.1743382 9.24418561,21.8270382 C7.49835561,21.4798382 5.89471561,20.6226382 4.63603561,19.3639382 C3.37736561,18.1053382 2.52019861,16.5016382 2.17293261,14.7558382 C1.82566561,13.0099882 2.00389518,11.2003882 2.68508361,9.55584821 C3.36627561,7.91131821 4.51982561,6.50570821 5.99986561,5.51677821 C7.20174561,4.71370821 8.57507561,4.21470021 10.0020356,4.05549367 Z" id="Ellipse-196-(Stroke)"></path>
            <path d="M19.708209,9.00000274 C19.639689,8.77018274 19.559269,8.54360274 19.467159,8.32121274 C19.115369,7.47193274 18.599759,6.70026274 17.949749,6.05025274 C17.299739,5.40024274 16.528059,4.88462274 15.678779,4.53284274 C15.456389,4.44072274 15.229819,4.36031274 14.999999,4.29179274 L14.999999,6.40881274 C15.574669,6.65915274 16.097499,7.01526274 16.541119,7.45888274 C16.984729,7.90250274 17.340849,8.42532274 17.591189,9.00000274 L19.708209,9.00000274 Z M21.944499,10.0020527 C22.005739,10.5509327 21.552289,11.0000027 20.999999,11.0000027 L17.007889,11.0000027 C16.455609,11.0000027 16.023439,10.5403527 15.843189,10.0183127 C15.823499,9.96129274 15.802079,9.90480274 15.778929,9.84893274 C15.627769,9.48399274 15.406209,9.15240274 15.126899,8.87309274 C14.847589,8.59379274 14.516009,8.37223274 14.151069,8.22107274 C14.095199,8.19792274 14.038709,8.17650274 13.981685,8.15681274 C13.459642,7.97656274 12.999999,7.54439274 12.999999,6.99210274 L12.999999,2.99999974 C12.999999,2.44771474 13.44907,1.99425894 13.997949,2.05549841 C14.837249,2.14914034 15.660869,2.36063774 16.444149,2.68508374 C17.536079,3.13737274 18.528229,3.80031274 19.363959,4.63604274 C20.199689,5.47176274 20.862619,6.46392274 21.314919,7.55585274 C21.639359,8.33913274 21.850859,9.16275274 21.944499,10.0020527 Z" id="Ellipse-197-(Stroke)"></path>
        </g>
    </g>
</svg>