<?xml version="1.0" encoding="UTF-8"?>
<svg width="18px" height="20px" viewBox="0 0 18 20" version="1.1" xmlns="http://www.w3.org/2000/svg" xmlns:xlink="http://www.w3.org/1999/xlink">
    <title>UI icon/person/light</title>
    <g id="👀-Icons" stroke="none" stroke-width="1" fill="none" fill-rule="evenodd">
        <g id="编组" transform="translate(-3.000000, -2.000000)" fill="#6F767E">
            <path d="M12,10 C13.65685,10 15,8.65685 15,7 C15,5.34315 13.65685,4 12,4 C10.34315,4 9,5.34315 9,7 C9,8.65685 10.34315,10 12,10 Z M12,12 C14.76142,12 17,9.76142 17,7 C17,4.23858 14.76142,2 12,2 C9.23858,2 7,4.23858 7,7 C7,9.76142 9.23858,12 12,12 Z" id="Ellipse-132-(Stroke)"></path>
            <path d="M9,16 C6.79086,16 5,17.79086 5,20 L5,21 C5,21.55228 4.55228,22 4,22 C3.447715,22 3,21.55228 3,21 L3,20 C3,16.68629 5.68629,14 9,14 L15,14 C18.3137,14 21,16.68629 21,20 L21,21 C21,21.55228 20.5523,22 20,22 C19.4477,22 19,21.55228 19,21 L19,20 C19,17.79086 17.2091,16 15,16 L9,16 Z" id="Vector-631-(Stroke)"></path>
        </g>
    </g>
</svg>