<?xml version="1.0" encoding="UTF-8"?>
<svg width="22px" height="20px" viewBox="0 0 22 20" version="1.1" xmlns="http://www.w3.org/2000/svg" xmlns:xlink="http://www.w3.org/1999/xlink">
    <title>UI icon/wifi_off/filled</title>
    <g id="👀-Icons" stroke="none" stroke-width="1" fill="none" fill-rule="evenodd">
        <g id="编组" transform="translate(-1.000000, -2.000000)" fill="#6F767E">
            <path d="M14,18 C14,19.10457 13.10457,20 12,20 C10.895431,20 10,19.10457 10,18 C10,16.895431 10.895431,16 12,16 C13.10457,16 14,16.895431 14,18 Z" id="Ellipse-28" fill-rule="nonzero"></path>
            <path d="M13.5995922,12.183769 C13.0857808,12.0635909 12.5502493,12 12.0000178,12 C10.0640724,12 8.31009753,12.7872079 7.04395102,14.0565598 C6.65392144,14.4475798 6.65472404,15.0807497 7.04574402,15.4707797 C7.43676411,15.8608097 8.06992686,15.8599997 8.45995795,15.4689797 C9.36624046,14.5603998 10.6167339,14 12.0000178,14 C13.3832916,14 14.6337951,14.5603998 15.5400776,15.4689797 C15.9187686,15.8486397 16.5266903,15.8604297 16.9195814,15.5037797 L13.5995922,12.183769 Z" id="Subtract" fill-rule="nonzero"></path>
            <g id="Subtract" transform="translate(3.933838, 8.002719)" fill-rule="nonzero">
                <path d="M5.73059,0.245902 C3.63267,0.699701 1.7572,1.75194 0.293377,3.21376 C-0.0974144,3.60402 -0.0978472,4.23718 0.29241,4.62797 C0.682667,5.01876 1.31583,5.0192 1.70662,4.62894 C3.21115,3.12647 5.24206,2.15492 7.4995,2.01481 L5.73059,0.245902 Z" id="37B9D81F-54B3-41BE-AC10-F912D37826FD"></path>
                <path d="M10.7024,2.38929 C12.1254,2.82443 13.3983,3.60288 14.4258,4.62894 C14.8166,5.0192 15.4497,5.01876 15.84,4.62797 C16.2303,4.23718 16.2298,3.60402 15.839,3.21376 C13.904,1.2814 11.2497,0.0647396 8.31311,0 L10.7024,2.38929 Z" id="88B2C5F4-B71F-45D5-907A-C704776C9827"></path>
            </g>
            <g id="Subtract" transform="translate(1.099609, 4.000000)" fill-rule="nonzero">
                <path d="M5.36922,1.05303 C3.45083,1.81451 1.72683,2.96013 0.292826,4.39441 C-0.097661,4.78497 -0.0976012,5.41813 0.29296,5.80862 C0.683521,6.19911 1.31669,6.19905 1.70717,5.80849 C3.15368,4.36171 4.93833,3.25477 6.9326,2.61641 L5.36922,1.05303 Z" id="25FC29BC-5C3B-4581-B9D9-9E0BF440879C"></path>
                <path d="M9.24851,2.10389 C9.78946,2.03533 10.3408,2 10.9004,2 C14.491,2 17.74,3.45434 20.0937,5.80849 C20.4842,6.19905 21.1174,6.19911 21.5079,5.80862 C21.8985,5.41813 21.8985,4.78497 21.508,4.39441 C18.7946,1.68044 15.0428,0 10.9004,0 C9.7402,0 8.61061,0.13183 7.5259,0.381276 L9.24851,2.10389 Z" id="C927CB90-8719-4895-9B33-7968EC6BBD35"></path>
            </g>
            <path d="M2.29289344,2.29289344 C2.68341793,1.90236885 3.31658172,1.90236885 3.7071122,2.29289344 L21.7071246,20.2929229 C22.0976251,20.6834234 22.0976251,21.3166241 21.7071246,21.7071246 C21.3166241,22.0976251 20.6834234,22.0976251 20.2929229,21.7071246 L2.29289344,3.7071122 C1.90236885,3.31658172 1.90236885,2.68341793 2.29289344,2.29289344 Z" id="Vector-606-(Stroke)"></path>
        </g>
    </g>
</svg>