<?xml version="1.0" encoding="UTF-8"?>
<svg width="15px" height="16px" viewBox="0 0 15 16" version="1.1" xmlns="http://www.w3.org/2000/svg" xmlns:xlink="http://www.w3.org/1999/xlink">
    <title>UI icon/chevron_double_forward/filled</title>
    <g id="👀-Icons" stroke="none" stroke-width="1" fill="none" fill-rule="evenodd">
        <g id="编组" transform="translate(-5.000000, -4.000000)" fill="#6F767E">
            <path d="M8.08578668,8.25000124 C8.47631133,7.85947723 9.10947538,7.85947723 9.50000603,8.25000124 L15.2929057,14.042897 L21.0858153,8.25000124 C21.4763159,7.85947723 22.109517,7.85947723 22.5000176,8.25000124 C22.8905183,8.64052516 22.8905183,9.27368803 22.5000176,9.66421794 L16.707118,15.4571082 C15.9260667,16.2381566 14.6597346,16.2381566 13.8786933,15.4571082 L8.08578668,9.66421794 C7.69526193,9.27368803 7.69526193,8.64052516 8.08578668,8.25000124 Z" id="Vector-474-(Stroke)" transform="translate(15.292893, 12.000001) rotate(-90.000009) translate(-15.292893, -12.000001) "></path>
            <path d="M1.83578668,8.25000172 C2.22631133,7.8594777 2.85947538,7.8594777 3.25000603,8.25000172 L9.04290565,14.0428975 L14.8358153,8.25000172 C15.2263159,7.8594777 15.859517,7.8594777 16.2500176,8.25000172 C16.6405183,8.64052564 16.6405183,9.2736885 16.2500176,9.66421842 L10.457118,15.4571087 C9.6760667,16.238157 8.4097346,16.238157 7.6286933,15.4571087 L1.83578668,9.66421842 C1.44526193,9.2736885 1.44526193,8.64052564 1.83578668,8.25000172 Z" id="Vector-475-(Stroke)" transform="translate(9.042893, 12.000002) rotate(-90.000009) translate(-9.042893, -12.000002) "></path>
        </g>
    </g>
</svg>