<?xml version="1.0" encoding="UTF-8"?>
<svg width="15px" height="16px" viewBox="0 0 15 16" version="1.1" xmlns="http://www.w3.org/2000/svg" xmlns:xlink="http://www.w3.org/1999/xlink">
    <title>UI icon/chevron_double_forward/light</title>
    <g id="👀-Icons" stroke="none" stroke-width="1" fill="none" fill-rule="evenodd">
        <g id="编组" transform="translate(-5.000000, -4.000000)" fill="#6F767E">
            <path d="M8.08580194,8.24998598 C8.47632658,7.85946197 9.10949064,7.85946197 9.50002129,8.24998598 L15.2929209,14.0428818 L21.0858305,8.24998598 C21.4763312,7.85946197 22.1095322,7.85946197 22.5000329,8.24998598 C22.8905335,8.6405099 22.8905335,9.27367277 22.5000329,9.66420268 L16.7071333,15.457093 C15.926082,16.2381413 14.6597499,16.2381413 13.8787086,15.457093 L8.08580194,9.66420268 C7.69527719,9.27367277 7.69527719,8.6405099 8.08580194,8.24998598 Z" id="Vector-474-(Stroke)" transform="translate(15.292908, 11.999986) rotate(-90.000009) translate(-15.292908, -11.999986) "></path>
            <path d="M1.83580194,8.24998646 C2.22632658,7.85946244 2.85949064,7.85946244 3.25002129,8.24998646 L9.04292091,14.0428822 L14.8358305,8.24998646 C15.2263312,7.85946244 15.8595322,7.85946244 16.2500329,8.24998646 C16.6405335,8.64051038 16.6405335,9.27367324 16.2500329,9.66420316 L10.4571333,15.4570934 C9.67608196,16.2381418 8.40974986,16.2381418 7.62870856,15.4570934 L1.83580194,9.66420316 C1.44527719,9.27367324 1.44527719,8.64051038 1.83580194,8.24998646 Z" id="Vector-475-(Stroke)" transform="translate(9.042908, 11.999986) rotate(-90.000009) translate(-9.042908, -11.999986) "></path>
        </g>
    </g>
</svg>