<?xml version="1.0" encoding="UTF-8"?>
<svg width="20px" height="20px" viewBox="0 0 20 20" version="1.1" xmlns="http://www.w3.org/2000/svg" xmlns:xlink="http://www.w3.org/1999/xlink">
    <title>UI icon/phone/filled</title>
    <g id="👀-Icons" stroke="none" stroke-width="1" fill="none" fill-rule="evenodd">
        <g id="编组" transform="translate(-2.000000, -2.000000)" fill="#6F767E" fill-rule="nonzero">
            <g id="Rectangle-158">
                <path d="M3.18272809,9.00942511 C2.07940414,6.79521685 3.19264609,4.35156877 5.31397191,3.07877477 C6.33530278,2.46597825 7.65528391,2.73192264 8.35963452,3.69240029 L9.92229585,5.82330761 C10.5874064,6.7302669 10.6893465,7.93306596 10.1863661,8.93903517 L9.77663573,9.75848453 C9.65802563,9.99570434 9.63927561,10.2701141 9.76060572,10.5059439 C9.9816459,10.9356136 10.4523663,11.697043 11.3591571,12.6038423 C12.2659579,13.5105916 13.0274085,13.9813912 13.4571089,14.202391 C13.6929091,14.3236909 13.9673093,14.304991 14.2045095,14.1863911 L15.0240102,13.7765914 C16.0299111,13.2736918 17.2327121,13.3755917 18.1397129,14.0406912 L20.2706147,15.6033899 C21.2311155,16.3076894 21.4970158,17.6276884 20.8842152,18.6489876 C19.6114141,20.7703859 17.1678121,21.883585 14.9536102,20.7802859 C13.0874086,19.8503866 10.7027965,18.3113878 8.17717436,15.7857898 C5.6515622,13.2601918 4.11261088,10.8755536 3.18272809,9.00942511 Z"></path>
            </g>
        </g>
    </g>
</svg>