<?xml version="1.0" encoding="UTF-8"?>
<svg width="20px" height="20px" viewBox="0 0 20 20" version="1.1" xmlns="http://www.w3.org/2000/svg" xmlns:xlink="http://www.w3.org/1999/xlink">
    <title>UI icon/pie_chart/filled</title>
    <g id="👀-Icons" stroke="none" stroke-width="1" fill="none" fill-rule="evenodd">
        <g id="编组" transform="translate(-2.000000, -2.000000)" fill="#6F767E" fill-rule="nonzero">
            <g id="Union">
                <path d="M10,6 C8.41775149,6 6.87104111,6.46919166 5.55544079,7.34823904 C4.23985047,8.22728841 3.21447022,9.47671751 2.60896708,10.9385265 C2.00346624,12.4003354 1.84503989,14.0088643 2.15372097,15.5607132 C2.46240304,17.1125921 3.22433023,18.537991 4.3431505,19.6568902 C5.46197077,20.7756894 6.88743112,21.5375889 8.43928149,21.8462887 C9.99113187,22.1549884 11.5996623,21.9964886 13.0615026,21.390989 C14.523303,20.7854894 15.7727033,19.7601902 16.6518035,18.4445911 C17.5308037,17.128992 18,15.5822431 18,14 C18,13.4477147 17.5523037,13 17,13 L12,13 C11.4477222,13 11,12.5522753 11,12 L11,7 C11,6.44771468 10.552292,6 10,6 Z"></path>
                <path d="M14,2 C13.734784,2 13.48043,2.105357 13.292893,2.292893 C13.105357,2.48043 13,2.734784 13,3 L13,10 C13,10.26522 13.105357,10.51957 13.292893,10.70711 C13.48043,10.89464 13.734784,11 14,11 L21,11 C21.26522,11 21.51957,10.89464 21.70711,10.7071 C21.89464,10.51957 22,10.26521 22,10 C22,7.87827 21.15714,5.84344 19.65685,4.34314 C18.15656,2.842854 16.12173,2 14,2 Z"></path>
            </g>
        </g>
    </g>
</svg>