<?xml version="1.0" encoding="UTF-8"?>
<svg width="20px" height="20px" viewBox="0 0 20 20" version="1.1" xmlns="http://www.w3.org/2000/svg" xmlns:xlink="http://www.w3.org/1999/xlink">
    <title>UI icon/pie_chart/light</title>
    <g id="👀-Icons" stroke="none" stroke-width="1" fill="none" fill-rule="evenodd">
        <g id="编组" transform="translate(-2.000000, -2.000000)" fill="#6F767E">
            <path d="M8.99999643,8.08392 C8.16918636,8.22435 7.37340636,8.53889 6.66657636,9.01118 C5.67988636,9.67047 4.91084636,10.60754 4.45672636,11.7039 C4.00259636,12.80026 3.88377636,14.00666 4.11528636,15.17054 C4.34679636,16.3344 4.91824636,17.4035 5.75735636,18.2426 C6.59647636,19.0818 7.66557636,19.6532 8.82945636,19.8847 C9.99334636,20.1162 11.1997464,19.9974 12.2960964,19.5433 C13.3924964,19.0892 14.3294964,18.3201 14.9887964,17.3334 C15.4610964,16.6266 15.7756964,15.83081 15.9160964,15 L9.99999643,15 C9.73478636,15 9.48042636,14.89464 9.29289636,14.70711 C9.10535636,14.51957 8.99999643,14.26522 8.99999643,14 L8.99999643,8.08392 Z M5.55543636,7.34824 C6.87103636,6.469192 8.41774636,6 9.99999642,6 C10.5522864,6 10.9999964,6.447715 10.9999964,7 L10.9999964,13 L16.9999964,13 C17.5522964,13 17.9999964,13.44772 17.9999964,14 C17.9999964,15.58225 17.5307964,17.129 16.6517964,18.4446 C15.7726964,19.7602 14.5232964,20.7855 13.0614964,21.391 C11.5996564,21.9965 9.99112636,22.155 8.43927636,21.8463 C6.88742636,21.5376 5.46196636,20.7757 4.34314636,19.6569 C3.22432636,18.538 2.46239936,17.1126 2.15371736,15.56072 C1.84503636,14.00887 2.00346261,12.40034 2.60896336,10.93853 C3.21446636,9.47672 4.23984636,8.22729 5.55543636,7.34824 Z" id="Ellipse-207-(Stroke)"></path>
            <path d="M13.292893,2.292893 C13.48043,2.105357 13.734784,2 14,2 C16.12173,2 18.15656,2.842854 19.65685,4.34314 C21.15714,5.84344 22,7.87827 22,10 C22,10.55228 21.55229,11 21,11 L14,11 C13.734784,11 13.48043,10.89464 13.292893,10.70711 C13.105357,10.51957 13,10.26522 13,10 L13,3 C13,2.734784 13.105357,2.48043 13.292893,2.292893 Z M15,4.08389 L15,9 L19.91611,9 C19.70984,7.77969 19.12933,6.64405 18.24264,5.75736 C17.35595,4.87067 16.22031,4.29016 15,4.08389 Z" id="Ellipse-208-(Stroke)"></path>
        </g>
    </g>
</svg>