<?xml version="1.0" encoding="UTF-8"?>
<svg width="20px" height="18px" viewBox="0 0 20 18" version="1.1" xmlns="http://www.w3.org/2000/svg" xmlns:xlink="http://www.w3.org/1999/xlink">
    <title>UI icon/warning/filled</title>
    <g id="👀-Icons" stroke="none" stroke-width="1" fill="none" fill-rule="evenodd">
        <g id="Subtract" transform="translate(-2.000000, -3.000000)" fill="#6F767E">
            <path d="M9.39357711,4.57366046 C10.5444571,2.55416846 13.4556571,2.55416746 14.6064571,4.57365046 L21.4114571,16.5146405 C22.5512571,18.5145405 21.1069571,21.0000405 18.8050571,21.0000405 L5.19507711,21.0000405 C2.89316111,21.0000405 1.44887611,18.5145405 2.58861711,16.5146405 L9.39357711,4.57366046 Z M11.9999971,14.0000405 C12.5522571,14.0000405 12.9999571,13.5522405 12.9999571,13.0000005 L12.9999571,8.00000046 C12.9999571,7.44772046 12.5522571,7.00000046 11.9999971,7.00000046 C11.4477171,7.00000046 10.9999971,7.44772046 10.9999971,8.00000046 L10.9999971,13.0000005 C10.9999971,13.5522405 11.4477171,14.0000405 11.9999971,14.0000405 Z M11.9999971,18.0000405 C12.5522571,18.0000405 12.9999571,17.5522405 12.9999571,17.0000405 C12.9999571,16.4477405 12.5522571,16.0000405 11.9999971,16.0000405 C11.4477171,16.0000405 10.9999971,16.4477405 10.9999971,17.0000405 C10.9999971,17.5522405 11.4477171,18.0000405 11.9999971,18.0000405 Z"></path>
        </g>
    </g>
</svg>