<?xml version="1.0" encoding="UTF-8"?>
<svg width="20px" height="18px" viewBox="0 0 20 18" version="1.1" xmlns="http://www.w3.org/2000/svg" xmlns:xlink="http://www.w3.org/1999/xlink">
    <title>UI icon/warning/light</title>
    <g id="👀-Icons" stroke="none" stroke-width="1" fill="none" fill-rule="evenodd">
        <g id="编组" transform="translate(-2.000000, -3.000000)" fill="#6F767E">
            <path d="M12,8.00001049 C12.55228,8.00001049 13,8.44772552 13,9.00001049 L13,14.0000105 C13,14.5522909 12.55228,15.0000105 12,15.0000105 C11.447715,15.0000105 11,14.5522909 11,14.0000105 L11,9.00001049 C11,8.44772552 11.447715,8.00001049 12,8.00001049 Z" id="Path-51-(Stroke)" transform="translate(12.000000, 11.500006) scale(1, -1) translate(-12.000000, -11.500006) "></path>
            <path d="M19.6738073,17.5048405 L12.8688073,5.56391046 C12.4852073,4.89075046 11.5147973,4.89075046 11.1311673,5.56391046 L4.32620728,17.5048405 C3.94629728,18.1715405 4.42772728,19.0000405 5.19502728,19.0000405 L18.8050073,19.0000405 C19.5723073,19.0000405 20.0537073,18.1715405 19.6738073,17.5048405 Z M14.6064073,4.57365046 C13.4556073,2.55416746 10.5444073,2.55416846 9.39352728,4.57366046 L2.58856728,16.5146405 C1.44882628,18.5145405 2.89311128,21.0000405 5.19502728,21.0000405 L18.8050073,21.0000405 C21.1069073,21.0000405 22.5512073,18.5145405 21.4114073,16.5146405 L14.6064073,4.57365046 Z" id="Polygon-1-(Stroke)"></path>
            <path d="M13,17 C13,17.55228 12.55228,18 12,18 C11.447715,18 11,17.55228 11,17 C11,16.447715 11.447715,16 12,16 C12.55228,16 13,16.447715 13,17 Z" id="Ellipse-135" fill-rule="nonzero"></path>
        </g>
    </g>
</svg>