<?xml version="1.0" encoding="UTF-8"?>
<svg width="16px" height="22px" viewBox="0 0 16 22" version="1.1" xmlns="http://www.w3.org/2000/svg" xmlns:xlink="http://www.w3.org/1999/xlink">
    <title>UI icon/rocket/filled</title>
    <g id="👀-Icons" stroke="none" stroke-width="1" fill="none" fill-rule="evenodd">
        <g id="编组" transform="translate(-4.000000, -1.000000)">
            <path d="M12.9859829,21 C12.944531,21.190329 12.8668113,21.3920317 12.717652,21.5685532 C12.5835142,21.7272977 12.3915619,21.8571022 12.1338665,21.949409 C11.6755141,21.860992 11.4342302,21.7482889 11.2823572,21.5685563 C11.133197,21.3920342 11.0554763,21.1903306 11.0140226,21 L11.0140226,21 Z" id="Vector-75" stroke="#6F767E" stroke-width="2" fill-rule="nonzero"></path>
            <path d="M6.99995,7.16547999 C7.7498,4.91614999 10.18608,2.38571999 11.35835,1.26022599 C11.71974,0.913257688 12.28026,0.913257988 12.64165,1.26022699 C13.81391,2.38571999 16.2502,4.91614999 16.9999,7.16547999 C17.3826,8.31347999 17.3451,9.96911999 17.1244,11.668 C18.7236,11.7333 20,13.0503 20,14.6655 L20,18.797 C20,19.5957 19.1099,20.0721 18.4453,19.629 L15.5254,17.6824 C14.9898,18.2977 14.1922,18.6655 13.32967,18.6655 L10.66216,18.6655 C9.80136,18.6655 9.00507,18.2991 8.46989,17.6856 L5.5547,19.629 C4.890145,20.0721 4,19.5957 4,18.797 L4,14.6655 C4,13.0536 5.27124,11.7386 6.86583,11.6684 C6.64756,9.97659999 6.61361,8.32436999 6.99995,7.16547999 Z M12,10.66548 C13.10457,10.66548 14,9.77004999 14,8.66547999 C14,7.56090999 13.10457,6.66547999 12,6.66547999 C10.89543,6.66547999 10,7.56090999 10,8.66547999 C10,9.77004999 10.89543,10.66548 12,10.66548 Z" id="Subtract" fill="#6F767E"></path>
        </g>
    </g>
</svg>