<?xml version="1.0" encoding="UTF-8"?>
<svg width="16px" height="22px" viewBox="0 0 16 22" version="1.1" xmlns="http://www.w3.org/2000/svg" xmlns:xlink="http://www.w3.org/1999/xlink">
    <title>UI icon/rocket/light</title>
    <g id="👀-Icons" stroke="none" stroke-width="1" fill="none" fill-rule="evenodd">
        <g id="编组" transform="translate(-4.000000, -1.000000)" fill="#6F767E">
            <path d="M10.8340281,20 L13.1659801,20 C13.6396406,20 14.0524009,20.3380381 14.0127009,20.8100342 C13.9501808,21.5534103 13.5995605,22.5924806 12.1957993,22.9552607 C12.0679692,22.9882907 11.932029,22.9882907 11.8041989,22.9552607 C10.4004637,22.5924806 10.0498345,21.5534203 9.98730426,20.8100422 C9.94760116,20.3380431 10.3603616,20 10.8340281,20 Z" id="Vector-75-(Stroke)"></path>
            <path d="M7.00001,7.99999842 C7.74986,5.75067842 10.1861,3.22024842 11.35835,2.09474942 C11.71974,1.74777872 12.28027,1.74777382 12.64165,2.09474042 C13.81393,3.22023842 16.2502,5.75065842 17,7.99999842 C17.3625,9.08738842 17.3479,10.5806684 17.1579,12.1164184 C17.1625,12.0792184 17.167,12.0420184 17.1714,12.0048184 C18.7485,12.0936184 20,13.4007184 20,15.0000184 L20,19.1315184 C20,19.9302184 19.1099,20.4066184 18.4453,19.9635184 L15.5513,18.0342184 C15.018,18.6401184 14.2272,19.0000184 13.37412,19.0000184 L10.61727,19.0000184 C9.74457,19.0000184 8.93678,18.6234184 8.40406,17.9913184 C8.41716,18.0068184 8.43042,18.0222184 8.44384,18.0374184 L5.5547,19.9635184 C4.890145,20.4066184 4,19.9302184 4,19.1315184 L4,15.0000184 C4,13.4038184 5.24658,12.0988184 6.81931,12.0053184 C6.64489,10.5153984 6.64311,9.07057842 7.00001,7.99999842 Z M15.1026,8.63245842 C15.3348,9.32903842 15.356,10.5591484 15.1364,12.1505184 C14.9272,13.6653184 14.5424,15.2303184 14.204,16.4287184 C14.118,16.7331184 13.81608,17.0000184 13.37412,17.0000184 L10.61727,17.0000184 C10.17641,17.0000184 9.87696,16.7348184 9.79124,16.4341184 C9.45144,15.2421184 9.06549,13.6839184 8.85664,12.1711184 C8.63764,10.5849484 8.65913,9.34710842 8.89735,8.63251842 C9.15848,7.84921842 9.77596,6.87671842 10.57836,5.88050842 C11.0563,5.28713842 11.55698,4.73737842 12.00002,4.27879842 C12.44305,4.73737842 12.94375,5.28712842 13.42168,5.88049842 C14.2241,6.87670842 14.8415,7.84918842 15.1026,8.63245842 Z M7.13502,13.9756184 C7.13664,13.9837184 7.13825,13.9919184 7.13987,14.0000184 L7,14.0000184 C6.44772,14.0000184 6,14.4477184 6,15.0000184 L6,17.2630184 L7.64408,16.1669184 C7.46741,15.4968184 7.28857,14.7502184 7.13502,13.9756184 Z M16.348,16.1667184 L16.3491,16.1624184 L18,17.2630184 L18,15.0000184 C18,14.4477184 17.5523,14.0000184 17,14.0000184 L16.8498,14.0000184 C16.6977,14.7654184 16.5216,15.5034184 16.348,16.1667184 Z" id="Union"></path>
            <path d="M14,10 C14,11.10457 13.10457,12 12,12 C10.89543,12 10,11.10457 10,10 C10,8.89543 10.89543,8 12,8 C13.10457,8 14,8.89543 14,10 Z" id="Ellipse-30" fill-rule="nonzero"></path>
        </g>
    </g>
</svg>