<?xml version="1.0" encoding="UTF-8"?>
<svg width="20px" height="21px" viewBox="0 0 20 21" version="1.1" xmlns="http://www.w3.org/2000/svg" xmlns:xlink="http://www.w3.org/1999/xlink">
    <title>UI icon/diamond/filled</title>
    <g id="👀-Icons" stroke="none" stroke-width="1" fill="none" fill-rule="evenodd">
        <g id="编组" transform="translate(-2.000000, -2.000000)" fill="#6F767E" fill-rule="nonzero">
            <g id="Subtract" transform="translate(2.334564, 2.000000)">
                <path d="M2.43277,1.21844 L0.183062,4.42575 C-0.281771,5.08844 0.192281,6 1.00174,6 L18.3291,6 C19.1386,6 19.6126,5.08844 19.1478,4.42575 L16.8981,1.21844 C16.3325,0.452194 15.4367,0 14.4844,0 L4.8465,0 C3.89413,0 2.99834,0.452195 2.43277,1.21844 Z" id="17E9CCE1-4A6F-47A4-8202-54A6900A7CF4"></path>
                <path d="M19.0259,9.6005 C19.5209,8.94134 19.0506,8 18.2263,8 L1.10461,8 C0.280275,8 -0.19003,8.94134 0.304982,9.6005 L7.28462,18.8946 C8.48542,20.4609 10.8454,20.4609 12.0463,18.8946 L19.0259,9.6005 Z" id="532AEBE2-9587-4563-BF0E-5917AF723C42"></path>
            </g>
        </g>
    </g>
</svg>