<?xml version="1.0" encoding="UTF-8"?>
<svg width="22px" height="21px" viewBox="0 0 22 21" version="1.1" xmlns="http://www.w3.org/2000/svg" xmlns:xlink="http://www.w3.org/1999/xlink">
    <title>UI icon/diamond/light</title>
    <g id="👀-Icons" stroke="none" stroke-width="1" fill="none" fill-rule="evenodd">
        <g id="Union" transform="translate(-1.000000, -2.000000)" fill="#6F767E">
            <path d="M22.1597673,7.1842 L19.2326673,3.21844 C18.6670673,2.452194 17.7712673,2 16.8189673,2 L7.18106733,2 C6.22870733,2 5.33291733,2.452195 4.76734733,3.21844 L1.84024533,7.1842 C1.04651533,8.25957 1.05993333,9.73033 1.87314833,10.79105 L9.61918733,20.8946 C10.8199973,22.4609 13.1800673,22.4609 14.3808673,20.8946 L22.1268673,10.79105 C22.9400673,9.73033 22.9534673,8.25957 22.1597673,7.1842 Z M3.72389733,8 L6.37649733,4.40615 C6.56501733,4.15073 6.86361733,4 7.18106733,4 L16.8189673,4 C17.1363673,4 17.4349673,4.15073 17.6235673,4.40615 L20.2761673,8 L3.72389733,8 Z M3.78681733,10 L11.2064073,19.6777 C11.6066673,20.1998 12.3933673,20.1998 12.7935673,19.6777 L20.2131673,10 L3.78681733,10 Z"></path>
        </g>
    </g>
</svg>